<svg width="328" height="215" viewBox="0 0 328 215" fill="none" xmlns="http://www.w3.org/2000/svg">
<rect width="328" height="215" fill="#333333"/>
<path d="M194.012 77.0469H197.532C198.289 77.0469 198.934 77.1608 199.467 77.3887C200 77.6165 200.408 77.9538 200.69 78.4004C200.978 78.8424 201.121 79.3893 201.121 80.041C201.121 80.5378 201.03 80.9753 200.848 81.3535C200.665 81.7318 200.408 82.0508 200.075 82.3105C199.743 82.5658 199.346 82.764 198.886 82.9053L198.366 83.1582H195.201L195.188 81.7979H197.56C197.97 81.7979 198.312 81.7249 198.585 81.5791C198.858 81.4333 199.063 81.235 199.2 80.9844C199.341 80.7292 199.412 80.4421 199.412 80.123C199.412 79.7767 199.344 79.4759 199.207 79.2207C199.075 78.9609 198.87 78.7627 198.592 78.626C198.314 78.4847 197.961 78.4141 197.532 78.4141H195.728V87H194.012V77.0469ZM199.692 87L197.354 82.5293L199.152 82.5225L201.524 86.9111V87H199.692ZM206.46 77.0469V87H204.758V77.0469H206.46ZM209.584 77.0469V78.4141H201.661V77.0469H209.584ZM217.855 85.6396V87H210.944V85.6396H217.855ZM217.698 78.1064L211.58 87H210.432V85.9131L216.57 77.0469H217.698V78.1064ZM217.062 77.0469V78.4141H210.473V77.0469H217.062Z" fill="white"/>
<circle cx="34" cy="116" r="27" fill="#D7A55A"/>
<rect x="23" y="105" width="21" height="21" fill="#333333"/>
<circle cx="293" cy="116" r="27" fill="#CC594F"/>
<circle cx="292.5" cy="115.5" r="10.5" fill="#333333"/>
<circle cx="249" cy="42" r="27" fill="#81BA75"/>
<path d="M259 41.5L250 50.5933L250 32.4067L259 41.5Z" fill="#333333"/>
<path d="M249 41.5L240 50.5933L240 32.4067L249 41.5Z" fill="#333333"/>
<circle cx="163" cy="42" r="27" fill="#81BA75"/>
<path d="M151 41.5L160 32.4067L160 50.5933L151 41.5Z" fill="#333333"/>
<path d="M161 41.5L170 32.4067L170 50.5933L161 41.5Z" fill="#333333"/>
<circle cx="77" cy="42" r="27" fill="#6DA9CD"/>
<rect x="60" y="35" width="33" height="13" rx="6.5" stroke="#333333" stroke-width="4"/>
<path d="M73 41.5L70 46H73.5L76.5 41.5H73Z" fill="#333333" stroke="#333333"/>
<path d="M82 41.5L79 46H82.5L85.5 41.5H82Z" fill="#333333" stroke="#333333"/>
<path d="M75.0308 45L71.8 50H75.5692L78.8 45H75.0308Z" fill="#6DA9CD" stroke="#6DA9CD" stroke-width="0.5"/>
<circle cx="163.5" cy="155.5" r="43.5" fill="#81BA75"/>
<rect x="167" y="141" width="8" height="29" fill="#333333"/>
<rect x="183" y="141" width="8" height="29" fill="#333333"/>
<path d="M161 155.5L139.25 169.789L139.25 141.211L161 155.5Z" fill="#333333"/>
<rect x="162" y="72" width="2" height="11" fill="#F7F7F8"/>
<rect x="248" y="72" width="2" height="11" fill="#F7F7F8"/>
<rect x="162" y="81" width="28" height="2" fill="#F7F7F8"/>
<rect x="221" y="81" width="28" height="2" fill="#F7F7F8"/>
</svg>
