<svg width="566" height="476" viewBox="0 0 566 476" fill="none" xmlns="http://www.w3.org/2000/svg">
<rect x="9" width="557" height="422" fill="#333333"/>
<rect x="34" y="9" width="524" height="404" rx="8" fill="#596266"/>
<path d="M37 18C37 14.6863 39.6863 12 43 12H549C552.314 12 555 14.6863 555 18V164H37V18Z" fill="#333333"/>
<g clip-path="url(#clip0_2081_4321)">
<circle cx="293.5" cy="87.5" r="108.5" fill="#333333"/>
</g>
<g filter="url(#filter0_i_2081_4321)">
<rect x="456" y="215" width="85" height="56" rx="9" fill="#6DA9CD"/>
</g>
<rect x="456.5" y="215.5" width="84" height="55" rx="8.5" stroke="#6DA9CD"/>
<path d="M482.14 243.512H477.758L477.734 241.098H481.414C482.062 241.098 482.594 241.016 483.008 240.852C483.422 240.68 483.73 240.434 483.933 240.113C484.144 239.785 484.25 239.387 484.25 238.918C484.25 238.387 484.148 237.957 483.945 237.629C483.75 237.301 483.441 237.062 483.019 236.914C482.605 236.766 482.07 236.691 481.414 236.691H478.976V251H475.461V233.938H481.414C482.406 233.938 483.293 234.031 484.074 234.219C484.863 234.406 485.531 234.691 486.078 235.074C486.625 235.457 487.043 235.941 487.332 236.527C487.621 237.105 487.765 237.793 487.765 238.59C487.765 239.293 487.605 239.941 487.285 240.535C486.972 241.129 486.476 241.613 485.797 241.988C485.125 242.363 484.246 242.57 483.16 242.609L482.14 243.512ZM481.988 251H476.797L478.168 248.258H481.988C482.605 248.258 483.109 248.16 483.5 247.965C483.89 247.762 484.18 247.488 484.367 247.145C484.555 246.801 484.648 246.406 484.648 245.961C484.648 245.461 484.562 245.027 484.39 244.66C484.226 244.293 483.961 244.012 483.594 243.816C483.226 243.613 482.742 243.512 482.14 243.512H478.754L478.777 241.098H482.996L483.805 242.047C484.844 242.031 485.68 242.215 486.312 242.598C486.953 242.973 487.418 243.461 487.707 244.062C488.004 244.664 488.152 245.309 488.152 245.996C488.152 247.09 487.914 248.012 487.437 248.762C486.961 249.504 486.262 250.062 485.34 250.438C484.426 250.812 483.308 251 481.988 251ZM495.982 248.141V242.492C495.982 242.086 495.915 241.738 495.782 241.449C495.65 241.152 495.443 240.922 495.161 240.758C494.888 240.594 494.532 240.512 494.095 240.512C493.72 240.512 493.396 240.578 493.122 240.711C492.849 240.836 492.638 241.02 492.49 241.262C492.341 241.496 492.267 241.773 492.267 242.094H488.892C488.892 241.555 489.017 241.043 489.267 240.559C489.517 240.074 489.88 239.648 490.357 239.281C490.833 238.906 491.4 238.613 492.056 238.402C492.72 238.191 493.462 238.086 494.282 238.086C495.267 238.086 496.142 238.25 496.907 238.578C497.673 238.906 498.275 239.398 498.712 240.055C499.157 240.711 499.38 241.531 499.38 242.516V247.941C499.38 248.637 499.423 249.207 499.509 249.652C499.595 250.09 499.72 250.473 499.884 250.801V251H496.474C496.31 250.656 496.185 250.227 496.099 249.711C496.021 249.188 495.982 248.664 495.982 248.141ZM496.427 243.277L496.45 245.188H494.564C494.118 245.188 493.732 245.238 493.404 245.34C493.075 245.441 492.806 245.586 492.595 245.773C492.384 245.953 492.228 246.164 492.126 246.406C492.032 246.648 491.986 246.914 491.986 247.203C491.986 247.492 492.052 247.754 492.185 247.988C492.318 248.215 492.509 248.395 492.759 248.527C493.009 248.652 493.302 248.715 493.638 248.715C494.146 248.715 494.587 248.613 494.962 248.41C495.337 248.207 495.626 247.957 495.829 247.66C496.04 247.363 496.15 247.082 496.157 246.816L497.048 248.246C496.923 248.566 496.751 248.898 496.532 249.242C496.322 249.586 496.052 249.91 495.724 250.215C495.396 250.512 495.001 250.758 494.54 250.953C494.079 251.141 493.532 251.234 492.9 251.234C492.095 251.234 491.365 251.074 490.708 250.754C490.06 250.426 489.544 249.977 489.161 249.406C488.786 248.828 488.599 248.172 488.599 247.438C488.599 246.773 488.724 246.184 488.974 245.668C489.224 245.152 489.591 244.719 490.075 244.367C490.568 244.008 491.181 243.738 491.915 243.559C492.65 243.371 493.501 243.277 494.47 243.277H496.427ZM503.846 241.027V251H500.471V238.32H503.635L503.846 241.027ZM503.354 244.215H502.44C502.44 243.277 502.561 242.434 502.803 241.684C503.046 240.926 503.385 240.281 503.823 239.75C504.26 239.211 504.78 238.801 505.382 238.52C505.991 238.23 506.671 238.086 507.421 238.086C508.014 238.086 508.557 238.172 509.05 238.344C509.542 238.516 509.964 238.789 510.315 239.164C510.675 239.539 510.948 240.035 511.135 240.652C511.331 241.27 511.428 242.023 511.428 242.914V251H508.03V242.902C508.03 242.34 507.952 241.902 507.796 241.59C507.639 241.277 507.409 241.059 507.104 240.934C506.807 240.801 506.44 240.734 506.003 240.734C505.55 240.734 505.155 240.824 504.819 241.004C504.491 241.184 504.217 241.434 503.999 241.754C503.788 242.066 503.628 242.434 503.518 242.855C503.409 243.277 503.354 243.73 503.354 244.215ZM515.93 232.988V251H512.555V232.988H515.93ZM523.922 238.32L518.414 244.602L515.461 247.59L514.231 245.152L516.574 242.176L519.867 238.32H523.922ZM520.418 251L516.668 245.141L519 243.102L524.309 251H520.418Z" fill="#333333"/>
<g filter="url(#filter1_d_2081_4321)">
<path d="M410 73C410 68.0294 414.029 64 419 64H467.272C469.659 64 471.948 64.9482 473.636 66.636L493.253 86.2528C496.722 89.7216 496.774 95.3294 493.37 98.8618L475.655 117.245C473.958 119.005 471.619 120 469.174 120H419C414.029 120 410 115.971 410 111V73Z" fill="#6DA9CD"/>
<path d="M419 64.5H467.272C469.526 64.5 471.688 65.3955 473.282 66.9896L492.899 86.6063C496.175 89.8824 496.224 95.1787 493.009 98.5149L475.295 116.898C473.693 118.561 471.483 119.5 469.174 119.5H419C414.306 119.5 410.5 115.694 410.5 111V73C410.5 68.3056 414.306 64.5 419 64.5Z" stroke="#6DA9CD"/>
</g>
<g filter="url(#filter2_d_2081_4321)">
<path d="M411 74C411 69.0294 415.029 65 420 65H466.589C468.964 65 471.242 65.9383 472.928 67.6105L491.677 86.2099C495.18 89.6845 495.232 95.3315 491.794 98.8704L474.891 116.271C473.196 118.016 470.868 119 468.436 119H420C415.029 119 411 114.971 411 110V74Z" fill="#6DA9CD"/>
<path d="M420 65.5H466.589C468.832 65.5 470.983 66.3862 472.576 67.9655L491.325 86.5649C494.633 89.8465 494.682 95.1797 491.436 98.522L474.533 115.923C472.932 117.57 470.733 118.5 468.436 118.5H420C415.306 118.5 411.5 114.694 411.5 110V74C411.5 69.3056 415.306 65.5 420 65.5Z" stroke="#333333"/>
</g>
<g filter="url(#filter3_d_2081_4321)">
<path d="M178 111C178 115.971 173.971 120 169 120L120.728 120C118.341 120 116.052 119.052 114.364 117.364L94.7472 97.7472C91.2784 94.2784 91.2265 88.6706 94.6305 85.1382L112.345 66.755C114.042 64.9945 116.381 64 118.826 64L169 64C173.971 64 178 68.0294 178 73L178 111Z" fill="#6DA9CD"/>
<path d="M169 119.5L120.728 119.5C118.474 119.5 116.312 118.604 114.718 117.01L95.1008 97.3936C91.8247 94.1176 91.7756 88.8213 94.9905 85.4851L112.705 67.1019C114.307 65.4393 116.517 64.5 118.826 64.5L169 64.5C173.694 64.5 177.5 68.3056 177.5 73L177.5 111C177.5 115.694 173.694 119.5 169 119.5Z" stroke="#6DA9CD"/>
</g>
<g filter="url(#filter4_d_2081_4321)">
<path d="M177 110C177 114.971 172.971 119 168 119L121.411 119C119.036 119 116.758 118.062 115.072 116.389L96.3229 97.7901C92.8202 94.3155 92.7679 88.6685 96.2056 85.1296L113.109 67.729C114.804 65.9844 117.132 65 119.564 65L168 65C172.971 65 177 69.0294 177 74L177 110Z" fill="#6DA9CD"/>
<path d="M168 118.5L121.411 118.5C119.168 118.5 117.017 117.614 115.424 116.035L96.675 97.4351C93.3669 94.1535 93.3175 88.8203 96.5643 85.478L113.467 68.0774C115.068 66.4297 117.267 65.5 119.564 65.5L168 65.5C172.694 65.5 176.5 69.3056 176.5 74L176.5 110C176.5 114.694 172.694 118.5 168 118.5Z" stroke="#333333"/>
</g>
<g filter="url(#filter5_i_2081_4321)">
<rect x="320" y="215" width="85" height="56" rx="9" fill="#6DA9CD"/>
</g>
<rect x="320.5" y="215.5" width="84" height="55" rx="8.5" stroke="#6DA9CD"/>
<path d="M346.01 246.535C346.01 246.23 345.963 245.957 345.87 245.715C345.784 245.465 345.62 245.238 345.377 245.035C345.135 244.824 344.795 244.617 344.358 244.414C343.92 244.211 343.354 244 342.659 243.781C341.885 243.531 341.151 243.25 340.455 242.938C339.768 242.625 339.159 242.262 338.627 241.848C338.104 241.426 337.69 240.938 337.385 240.383C337.088 239.828 336.94 239.184 336.94 238.449C336.94 237.738 337.096 237.094 337.409 236.516C337.721 235.93 338.159 235.43 338.721 235.016C339.284 234.594 339.948 234.27 340.713 234.043C341.487 233.816 342.334 233.703 343.256 233.703C344.514 233.703 345.612 233.93 346.549 234.383C347.487 234.836 348.213 235.457 348.729 236.246C349.252 237.035 349.514 237.938 349.514 238.953H346.022C346.022 238.453 345.916 238.016 345.705 237.641C345.502 237.258 345.19 236.957 344.768 236.738C344.354 236.52 343.83 236.41 343.198 236.41C342.588 236.41 342.08 236.504 341.674 236.691C341.268 236.871 340.963 237.117 340.76 237.43C340.557 237.734 340.455 238.078 340.455 238.461C340.455 238.75 340.526 239.012 340.666 239.246C340.815 239.48 341.034 239.699 341.323 239.902C341.612 240.105 341.967 240.297 342.389 240.477C342.811 240.656 343.299 240.832 343.854 241.004C344.784 241.285 345.6 241.602 346.303 241.953C347.014 242.305 347.608 242.699 348.084 243.137C348.561 243.574 348.92 244.07 349.163 244.625C349.405 245.18 349.526 245.809 349.526 246.512C349.526 247.254 349.381 247.918 349.092 248.504C348.803 249.09 348.385 249.586 347.838 249.992C347.291 250.398 346.639 250.707 345.881 250.918C345.123 251.129 344.276 251.234 343.338 251.234C342.495 251.234 341.663 251.125 340.842 250.906C340.022 250.68 339.276 250.34 338.604 249.887C337.94 249.434 337.409 248.855 337.01 248.152C336.612 247.449 336.413 246.617 336.413 245.656H339.94C339.94 246.188 340.022 246.637 340.186 247.004C340.35 247.371 340.58 247.668 340.877 247.895C341.182 248.121 341.541 248.285 341.955 248.387C342.377 248.488 342.838 248.539 343.338 248.539C343.948 248.539 344.448 248.453 344.838 248.281C345.237 248.109 345.53 247.871 345.717 247.566C345.913 247.262 346.01 246.918 346.01 246.535ZM355.504 248.598C355.918 248.598 356.285 248.52 356.605 248.363C356.926 248.199 357.176 247.973 357.355 247.684C357.543 247.387 357.64 247.039 357.648 246.641H360.824C360.816 247.531 360.578 248.324 360.109 249.02C359.64 249.707 359.012 250.25 358.222 250.648C357.433 251.039 356.551 251.234 355.574 251.234C354.59 251.234 353.73 251.07 352.996 250.742C352.269 250.414 351.664 249.961 351.18 249.383C350.695 248.797 350.332 248.117 350.09 247.344C349.847 246.562 349.726 245.727 349.726 244.836V244.496C349.726 243.598 349.847 242.762 350.09 241.988C350.332 241.207 350.695 240.527 351.18 239.949C351.664 239.363 352.269 238.906 352.996 238.578C353.722 238.25 354.574 238.086 355.551 238.086C356.59 238.086 357.5 238.285 358.281 238.684C359.07 239.082 359.687 239.652 360.133 240.395C360.586 241.129 360.816 242 360.824 243.008H357.648C357.64 242.586 357.551 242.203 357.379 241.859C357.215 241.516 356.972 241.242 356.652 241.039C356.34 240.828 355.953 240.723 355.492 240.723C355 240.723 354.597 240.828 354.285 241.039C353.972 241.242 353.73 241.523 353.558 241.883C353.387 242.234 353.265 242.637 353.195 243.09C353.133 243.535 353.101 244.004 353.101 244.496V244.836C353.101 245.328 353.133 245.801 353.195 246.254C353.258 246.707 353.375 247.109 353.547 247.461C353.726 247.812 353.972 248.09 354.285 248.293C354.597 248.496 355.004 248.598 355.504 248.598ZM364.716 241.086V251H361.341V238.32H364.517L364.716 241.086ZM368.536 238.238L368.478 241.367C368.314 241.344 368.115 241.324 367.88 241.309C367.654 241.285 367.447 241.273 367.259 241.273C366.783 241.273 366.368 241.336 366.017 241.461C365.673 241.578 365.384 241.754 365.15 241.988C364.923 242.223 364.751 242.508 364.634 242.844C364.525 243.18 364.462 243.562 364.447 243.992L363.767 243.781C363.767 242.961 363.849 242.207 364.013 241.52C364.177 240.824 364.415 240.219 364.728 239.703C365.048 239.188 365.439 238.789 365.9 238.508C366.361 238.227 366.888 238.086 367.482 238.086C367.669 238.086 367.861 238.102 368.056 238.133C368.251 238.156 368.411 238.191 368.536 238.238ZM367.8 244.789V244.543C367.8 243.613 367.932 242.758 368.198 241.977C368.464 241.188 368.85 240.504 369.358 239.926C369.866 239.348 370.491 238.898 371.233 238.578C371.975 238.25 372.827 238.086 373.788 238.086C374.749 238.086 375.604 238.25 376.354 238.578C377.104 238.898 377.733 239.348 378.241 239.926C378.757 240.504 379.147 241.188 379.413 241.977C379.678 242.758 379.811 243.613 379.811 244.543V244.789C379.811 245.711 379.678 246.566 379.413 247.355C379.147 248.137 378.757 248.82 378.241 249.406C377.733 249.984 377.108 250.434 376.366 250.754C375.624 251.074 374.772 251.234 373.811 251.234C372.85 251.234 371.995 251.074 371.245 250.754C370.503 250.434 369.874 249.984 369.358 249.406C368.85 248.82 368.464 248.137 368.198 247.355C367.932 246.566 367.8 245.711 367.8 244.789ZM371.175 244.543V244.789C371.175 245.32 371.221 245.816 371.315 246.277C371.409 246.738 371.557 247.145 371.76 247.496C371.971 247.84 372.245 248.109 372.581 248.305C372.917 248.5 373.327 248.598 373.811 248.598C374.28 248.598 374.682 248.5 375.018 248.305C375.354 248.109 375.624 247.84 375.827 247.496C376.03 247.145 376.178 246.738 376.272 246.277C376.374 245.816 376.425 245.32 376.425 244.789V244.543C376.425 244.027 376.374 243.543 376.272 243.09C376.178 242.629 376.026 242.223 375.815 241.871C375.612 241.512 375.342 241.23 375.007 241.027C374.671 240.824 374.264 240.723 373.788 240.723C373.311 240.723 372.905 240.824 372.569 241.027C372.241 241.23 371.971 241.512 371.76 241.871C371.557 242.223 371.409 242.629 371.315 243.09C371.221 243.543 371.175 244.027 371.175 244.543ZM384.008 233V251H380.621V233H384.008ZM388.92 233V251H385.533V233H388.92Z" fill="#333333"/>
<g filter="url(#filter6_i_2081_4321)">
<rect x="184" y="215" width="85" height="56" rx="9" fill="#6DA9CD"/>
</g>
<rect x="184.5" y="215.5" width="84" height="55" rx="8.5" stroke="#6DA9CD"/>
<path d="M211.922 248.258V251H199.828V248.258H211.922ZM211.746 235.895L201.387 251H198.914V248.984L209.355 233.938H211.746V235.895ZM210.539 233.938V236.691H198.926V233.938H210.539ZM211.712 244.789V244.543C211.712 243.613 211.845 242.758 212.111 241.977C212.376 241.188 212.763 240.504 213.271 239.926C213.779 239.348 214.404 238.898 215.146 238.578C215.888 238.25 216.74 238.086 217.7 238.086C218.661 238.086 219.517 238.25 220.267 238.578C221.017 238.898 221.646 239.348 222.154 239.926C222.669 240.504 223.06 241.188 223.325 241.977C223.591 242.758 223.724 243.613 223.724 244.543V244.789C223.724 245.711 223.591 246.566 223.325 247.355C223.06 248.137 222.669 248.82 222.154 249.406C221.646 249.984 221.021 250.434 220.279 250.754C219.536 251.074 218.685 251.234 217.724 251.234C216.763 251.234 215.907 251.074 215.157 250.754C214.415 250.434 213.786 249.984 213.271 249.406C212.763 248.82 212.376 248.137 212.111 247.355C211.845 246.566 211.712 245.711 211.712 244.789ZM215.087 244.543V244.789C215.087 245.32 215.134 245.816 215.228 246.277C215.322 246.738 215.47 247.145 215.673 247.496C215.884 247.84 216.157 248.109 216.493 248.305C216.829 248.5 217.24 248.598 217.724 248.598C218.193 248.598 218.595 248.5 218.931 248.305C219.267 248.109 219.536 247.84 219.74 247.496C219.943 247.145 220.091 246.738 220.185 246.277C220.286 245.816 220.337 245.32 220.337 244.789V244.543C220.337 244.027 220.286 243.543 220.185 243.09C220.091 242.629 219.939 242.223 219.728 241.871C219.525 241.512 219.255 241.23 218.919 241.027C218.583 240.824 218.177 240.723 217.7 240.723C217.224 240.723 216.818 240.824 216.482 241.027C216.154 241.23 215.884 241.512 215.673 241.871C215.47 242.223 215.322 242.629 215.228 243.09C215.134 243.543 215.087 244.027 215.087 244.543ZM223.819 244.789V244.543C223.819 243.613 223.952 242.758 224.217 241.977C224.483 241.188 224.87 240.504 225.378 239.926C225.885 239.348 226.51 238.898 227.253 238.578C227.995 238.25 228.846 238.086 229.807 238.086C230.768 238.086 231.624 238.25 232.374 238.578C233.124 238.898 233.753 239.348 234.26 239.926C234.776 240.504 235.167 241.188 235.432 241.977C235.698 242.758 235.831 243.613 235.831 244.543V244.789C235.831 245.711 235.698 246.566 235.432 247.355C235.167 248.137 234.776 248.82 234.26 249.406C233.753 249.984 233.128 250.434 232.385 250.754C231.643 251.074 230.792 251.234 229.831 251.234C228.87 251.234 228.014 251.074 227.264 250.754C226.522 250.434 225.893 249.984 225.378 249.406C224.87 248.82 224.483 248.137 224.217 247.355C223.952 246.566 223.819 245.711 223.819 244.789ZM227.194 244.543V244.789C227.194 245.32 227.241 245.816 227.335 246.277C227.428 246.738 227.577 247.145 227.78 247.496C227.991 247.84 228.264 248.109 228.6 248.305C228.936 248.5 229.346 248.598 229.831 248.598C230.3 248.598 230.702 248.5 231.038 248.305C231.374 248.109 231.643 247.84 231.846 247.496C232.05 247.145 232.198 246.738 232.292 246.277C232.393 245.816 232.444 245.32 232.444 244.789V244.543C232.444 244.027 232.393 243.543 232.292 243.09C232.198 242.629 232.046 242.223 231.835 241.871C231.632 241.512 231.362 241.23 231.026 241.027C230.69 240.824 230.284 240.723 229.807 240.723C229.331 240.723 228.925 240.824 228.589 241.027C228.26 241.23 227.991 241.512 227.78 241.871C227.577 242.223 227.428 242.629 227.335 243.09C227.241 243.543 227.194 244.027 227.194 244.543ZM239.84 240.945V251H236.453V238.32H239.629L239.84 240.945ZM239.371 244.215H238.434C238.434 243.332 238.539 242.52 238.75 241.777C238.969 241.027 239.285 240.379 239.699 239.832C240.121 239.277 240.641 238.848 241.258 238.543C241.875 238.238 242.59 238.086 243.403 238.086C243.965 238.086 244.481 238.172 244.949 238.344C245.418 238.508 245.82 238.77 246.156 239.129C246.5 239.48 246.766 239.941 246.953 240.512C247.141 241.074 247.235 241.75 247.235 242.539V251H243.86V242.914C243.86 242.336 243.781 241.891 243.625 241.578C243.469 241.266 243.246 241.047 242.957 240.922C242.676 240.797 242.336 240.734 241.938 240.734C241.5 240.734 241.117 240.824 240.789 241.004C240.469 241.184 240.203 241.434 239.992 241.754C239.781 242.066 239.625 242.434 239.524 242.855C239.422 243.277 239.371 243.73 239.371 244.215ZM246.918 243.828L245.711 243.98C245.711 243.152 245.813 242.383 246.016 241.672C246.227 240.961 246.535 240.336 246.942 239.797C247.356 239.258 247.867 238.84 248.477 238.543C249.086 238.238 249.789 238.086 250.586 238.086C251.195 238.086 251.75 238.176 252.25 238.355C252.75 238.527 253.176 238.805 253.528 239.188C253.887 239.562 254.16 240.055 254.348 240.664C254.543 241.273 254.641 242.02 254.641 242.902V251H251.254V242.902C251.254 242.316 251.176 241.871 251.02 241.566C250.871 241.254 250.653 241.039 250.363 240.922C250.082 240.797 249.746 240.734 249.356 240.734C248.949 240.734 248.594 240.816 248.289 240.98C247.985 241.137 247.731 241.355 247.528 241.637C247.324 241.918 247.172 242.246 247.07 242.621C246.969 242.988 246.918 243.391 246.918 243.828Z" fill="#333333"/>
<g filter="url(#filter7_i_2081_4321)">
<rect x="48" y="215" width="85" height="56" rx="9" fill="#6DA9CD"/>
</g>
<rect x="48.5" y="215.5" width="84" height="55" rx="8.5" stroke="#6DA9CD"/>
<path d="M62.6247 245.34H66.1286C66.0583 246.488 65.7419 247.508 65.1794 248.398C64.6247 249.289 63.8473 249.984 62.8473 250.484C61.8552 250.984 60.6598 251.234 59.2614 251.234C58.1677 251.234 57.1872 251.047 56.32 250.672C55.4528 250.289 54.7106 249.742 54.0934 249.031C53.4841 248.32 53.0192 247.461 52.6989 246.453C52.3786 245.445 52.2184 244.316 52.2184 243.066V241.883C52.2184 240.633 52.3825 239.504 52.7106 238.496C53.0466 237.48 53.5231 236.617 54.1403 235.906C54.7653 235.195 55.5114 234.648 56.3786 234.266C57.2458 233.883 58.2145 233.691 59.2848 233.691C60.7067 233.691 61.9059 233.949 62.8825 234.465C63.8669 234.98 64.6286 235.691 65.1677 236.598C65.7145 237.504 66.0427 238.535 66.152 239.691H62.6364C62.5973 239.004 62.4606 238.422 62.2262 237.945C61.9919 237.461 61.6364 237.098 61.1598 236.855C60.6911 236.605 60.0661 236.48 59.2848 236.48C58.6989 236.48 58.1872 236.59 57.7497 236.809C57.3122 237.027 56.945 237.359 56.6481 237.805C56.3512 238.25 56.1286 238.812 55.9802 239.492C55.8395 240.164 55.7692 240.953 55.7692 241.859V243.066C55.7692 243.949 55.8356 244.727 55.9684 245.398C56.1012 246.062 56.3044 246.625 56.5778 247.086C56.8591 247.539 57.2184 247.883 57.6559 248.117C58.1012 248.344 58.6364 248.457 59.2614 248.457C59.9958 248.457 60.6012 248.34 61.0778 248.105C61.5544 247.871 61.9177 247.523 62.1677 247.062C62.4255 246.602 62.5778 246.027 62.6247 245.34ZM70.0792 233V251H66.7042V233H70.0792ZM69.5987 244.215H68.673C68.6808 243.332 68.798 242.52 69.0245 241.777C69.2511 241.027 69.5753 240.379 69.9972 239.832C70.4191 239.277 70.923 238.848 71.5089 238.543C72.1027 238.238 72.7589 238.086 73.4777 238.086C74.1027 238.086 74.6691 238.176 75.1769 238.355C75.6925 238.527 76.1339 238.809 76.5011 239.199C76.8761 239.582 77.1652 240.086 77.3683 240.711C77.5714 241.336 77.673 242.094 77.673 242.984V251H74.2745V242.961C74.2745 242.398 74.1925 241.957 74.0284 241.637C73.8722 241.309 73.6417 241.078 73.337 240.945C73.0402 240.805 72.673 240.734 72.2355 240.734C71.7511 240.734 71.337 240.824 70.9933 241.004C70.6573 241.184 70.3878 241.434 70.1847 241.754C69.9816 242.066 69.8331 242.434 69.7394 242.855C69.6456 243.277 69.5987 243.73 69.5987 244.215ZM85.6431 248.141V242.492C85.6431 242.086 85.5767 241.738 85.4439 241.449C85.3111 241.152 85.1041 240.922 84.8228 240.758C84.5494 240.594 84.1939 240.512 83.7564 240.512C83.3814 240.512 83.0572 240.578 82.7837 240.711C82.5103 240.836 82.2994 241.02 82.1509 241.262C82.0025 241.496 81.9283 241.773 81.9283 242.094H78.5533C78.5533 241.555 78.6783 241.043 78.9283 240.559C79.1783 240.074 79.5416 239.648 80.0181 239.281C80.4947 238.906 81.0611 238.613 81.7173 238.402C82.3814 238.191 83.1236 238.086 83.9439 238.086C84.9283 238.086 85.8033 238.25 86.5689 238.578C87.3345 238.906 87.9361 239.398 88.3736 240.055C88.8189 240.711 89.0416 241.531 89.0416 242.516V247.941C89.0416 248.637 89.0845 249.207 89.1705 249.652C89.2564 250.09 89.3814 250.473 89.5455 250.801V251H86.1353C85.9712 250.656 85.8462 250.227 85.7603 249.711C85.6822 249.188 85.6431 248.664 85.6431 248.141ZM86.0884 243.277L86.1119 245.188H84.2252C83.7798 245.188 83.3931 245.238 83.065 245.34C82.7369 245.441 82.4673 245.586 82.2564 245.773C82.0455 245.953 81.8892 246.164 81.7877 246.406C81.6939 246.648 81.647 246.914 81.647 247.203C81.647 247.492 81.7134 247.754 81.8462 247.988C81.9791 248.215 82.1705 248.395 82.4205 248.527C82.6705 248.652 82.9634 248.715 83.2994 248.715C83.8072 248.715 84.2486 248.613 84.6236 248.41C84.9986 248.207 85.2877 247.957 85.4908 247.66C85.7017 247.363 85.8111 247.082 85.8189 246.816L86.7095 248.246C86.5845 248.566 86.4127 248.898 86.1939 249.242C85.983 249.586 85.7134 249.91 85.3853 250.215C85.0572 250.512 84.6627 250.758 84.2017 250.953C83.7408 251.141 83.1939 251.234 82.5611 251.234C81.7564 251.234 81.0259 251.074 80.3697 250.754C79.7212 250.426 79.2056 249.977 78.8228 249.406C78.4478 248.828 78.2603 248.172 78.2603 247.438C78.2603 246.773 78.3853 246.184 78.6353 245.668C78.8853 245.152 79.2525 244.719 79.7369 244.367C80.2291 244.008 80.8423 243.738 81.5767 243.559C82.3111 243.371 83.1627 243.277 84.1314 243.277H86.0884ZM93.5078 241.027V251H90.1328V238.32H93.2969L93.5078 241.027ZM93.0156 244.215H92.1016C92.1016 243.277 92.2227 242.434 92.4648 241.684C92.707 240.926 93.0469 240.281 93.4844 239.75C93.9219 239.211 94.4414 238.801 95.043 238.52C95.6523 238.23 96.332 238.086 97.082 238.086C97.6758 238.086 98.2188 238.172 98.7109 238.344C99.2031 238.516 99.625 238.789 99.9766 239.164C100.336 239.539 100.609 240.035 100.797 240.652C100.992 241.27 101.09 242.023 101.09 242.914V251H97.6914V242.902C97.6914 242.34 97.6133 241.902 97.457 241.59C97.3008 241.277 97.0703 241.059 96.7656 240.934C96.4688 240.801 96.1016 240.734 95.6641 240.734C95.2109 240.734 94.8164 240.824 94.4805 241.004C94.1523 241.184 93.8789 241.434 93.6602 241.754C93.4492 242.066 93.2891 242.434 93.1797 242.855C93.0703 243.277 93.0156 243.73 93.0156 244.215ZM105.521 241.027V251H102.146V238.32H105.31L105.521 241.027ZM105.029 244.215H104.115C104.115 243.277 104.236 242.434 104.478 241.684C104.72 240.926 105.06 240.281 105.497 239.75C105.935 239.211 106.455 238.801 107.056 238.52C107.665 238.23 108.345 238.086 109.095 238.086C109.689 238.086 110.232 238.172 110.724 238.344C111.216 238.516 111.638 238.789 111.99 239.164C112.349 239.539 112.622 240.035 112.81 240.652C113.005 241.27 113.103 242.023 113.103 242.914V251H109.705V242.902C109.705 242.34 109.626 241.902 109.47 241.59C109.314 241.277 109.083 241.059 108.779 240.934C108.482 240.801 108.115 240.734 107.677 240.734C107.224 240.734 106.83 240.824 106.494 241.004C106.165 241.184 105.892 241.434 105.673 241.754C105.462 242.066 105.302 242.434 105.193 242.855C105.083 243.277 105.029 243.73 105.029 244.215ZM120.065 251.234C119.081 251.234 118.198 251.078 117.417 250.766C116.636 250.445 115.972 250.004 115.425 249.441C114.886 248.879 114.472 248.227 114.182 247.484C113.893 246.734 113.749 245.938 113.749 245.094V244.625C113.749 243.664 113.886 242.785 114.159 241.988C114.432 241.191 114.823 240.5 115.331 239.914C115.847 239.328 116.472 238.879 117.206 238.566C117.94 238.246 118.768 238.086 119.69 238.086C120.589 238.086 121.386 238.234 122.081 238.531C122.776 238.828 123.358 239.25 123.827 239.797C124.304 240.344 124.663 241 124.905 241.766C125.147 242.523 125.268 243.367 125.268 244.297V245.703H115.19V243.453H121.952V243.195C121.952 242.727 121.866 242.309 121.694 241.941C121.53 241.566 121.28 241.27 120.944 241.051C120.608 240.832 120.179 240.723 119.655 240.723C119.21 240.723 118.827 240.82 118.507 241.016C118.186 241.211 117.925 241.484 117.722 241.836C117.526 242.188 117.378 242.602 117.276 243.078C117.182 243.547 117.136 244.062 117.136 244.625V245.094C117.136 245.602 117.206 246.07 117.347 246.5C117.495 246.93 117.702 247.301 117.968 247.613C118.241 247.926 118.569 248.168 118.952 248.34C119.343 248.512 119.784 248.598 120.276 248.598C120.886 248.598 121.452 248.48 121.975 248.246C122.507 248.004 122.964 247.641 123.347 247.156L124.987 248.938C124.722 249.32 124.358 249.688 123.897 250.039C123.444 250.391 122.897 250.68 122.257 250.906C121.616 251.125 120.886 251.234 120.065 251.234ZM129.313 233V251H125.926V233H129.313Z" fill="#333333"/>
<g filter="url(#filter8_i_2081_4321)">
<rect x="47" y="314" width="85" height="56" rx="9" fill="#D7A55A"/>
</g>
<rect x="47.5" y="314.5" width="84" height="55" rx="8.5" stroke="#D7A55A"/>
<path d="M58.6898 332.938H61.6664L66.0492 345.465L70.432 332.938H73.4086L67.2445 350H64.8539L58.6898 332.938ZM57.0844 332.938H60.0492L60.5883 345.148V350H57.0844V332.938ZM72.0492 332.938H75.0258V350H71.5102V345.148L72.0492 332.938ZM83.3006 347.141V341.492C83.3006 341.086 83.2342 340.738 83.1014 340.449C82.9686 340.152 82.7616 339.922 82.4803 339.758C82.2069 339.594 81.8514 339.512 81.4139 339.512C81.0389 339.512 80.7147 339.578 80.4412 339.711C80.1678 339.836 79.9569 340.02 79.8084 340.262C79.66 340.496 79.5858 340.773 79.5858 341.094H76.2108C76.2108 340.555 76.3358 340.043 76.5858 339.559C76.8358 339.074 77.1991 338.648 77.6756 338.281C78.1522 337.906 78.7186 337.613 79.3748 337.402C80.0389 337.191 80.7811 337.086 81.6014 337.086C82.5858 337.086 83.4608 337.25 84.2264 337.578C84.992 337.906 85.5936 338.398 86.0311 339.055C86.4764 339.711 86.6991 340.531 86.6991 341.516V346.941C86.6991 347.637 86.742 348.207 86.828 348.652C86.9139 349.09 87.0389 349.473 87.203 349.801V350H83.7928C83.6287 349.656 83.5037 349.227 83.4178 348.711C83.3397 348.188 83.3006 347.664 83.3006 347.141ZM83.7459 342.277L83.7694 344.188H81.8827C81.4373 344.188 81.0506 344.238 80.7225 344.34C80.3944 344.441 80.1248 344.586 79.9139 344.773C79.703 344.953 79.5467 345.164 79.4452 345.406C79.3514 345.648 79.3045 345.914 79.3045 346.203C79.3045 346.492 79.3709 346.754 79.5037 346.988C79.6366 347.215 79.828 347.395 80.078 347.527C80.328 347.652 80.6209 347.715 80.9569 347.715C81.4647 347.715 81.9061 347.613 82.2811 347.41C82.6561 347.207 82.9452 346.957 83.1483 346.66C83.3592 346.363 83.4686 346.082 83.4764 345.816L84.367 347.246C84.242 347.566 84.0702 347.898 83.8514 348.242C83.6405 348.586 83.3709 348.91 83.0428 349.215C82.7147 349.512 82.3202 349.758 81.8592 349.953C81.3983 350.141 80.8514 350.234 80.2186 350.234C79.4139 350.234 78.6834 350.074 78.0272 349.754C77.3787 349.426 76.8631 348.977 76.4803 348.406C76.1053 347.828 75.9178 347.172 75.9178 346.438C75.9178 345.773 76.0428 345.184 76.2928 344.668C76.5428 344.152 76.91 343.719 77.3944 343.367C77.8866 343.008 78.4998 342.738 79.2342 342.559C79.9686 342.371 80.8202 342.277 81.7889 342.277H83.7459ZM94.7161 346.496C94.7161 346.254 94.6458 346.035 94.5052 345.84C94.3645 345.645 94.1028 345.465 93.72 345.301C93.345 345.129 92.802 344.973 92.0911 344.832C91.4505 344.691 90.8528 344.516 90.2981 344.305C89.7512 344.086 89.2747 343.824 88.8684 343.52C88.47 343.215 88.1575 342.855 87.9309 342.441C87.7044 342.02 87.5911 341.539 87.5911 341C87.5911 340.469 87.7044 339.969 87.9309 339.5C88.1653 339.031 88.4973 338.617 88.927 338.258C89.3645 337.891 89.8958 337.605 90.5208 337.402C91.1536 337.191 91.8645 337.086 92.6536 337.086C93.7552 337.086 94.7005 337.262 95.4895 337.613C96.2864 337.965 96.8958 338.449 97.3177 339.066C97.7473 339.676 97.9622 340.371 97.9622 341.152H94.5872C94.5872 340.824 94.5169 340.531 94.3762 340.273C94.2434 340.008 94.0325 339.801 93.7434 339.652C93.4622 339.496 93.095 339.418 92.6419 339.418C92.2669 339.418 91.9427 339.484 91.6692 339.617C91.3958 339.742 91.1848 339.914 91.0364 340.133C90.8958 340.344 90.8255 340.578 90.8255 340.836C90.8255 341.031 90.8645 341.207 90.9427 341.363C91.0286 341.512 91.1653 341.648 91.3528 341.773C91.5403 341.898 91.7825 342.016 92.0794 342.125C92.3841 342.227 92.7591 342.32 93.2044 342.406C94.1184 342.594 94.9348 342.84 95.6536 343.145C96.3723 343.441 96.9427 343.848 97.3645 344.363C97.7864 344.871 97.9973 345.539 97.9973 346.367C97.9973 346.93 97.8723 347.445 97.6223 347.914C97.3723 348.383 97.013 348.793 96.5442 349.145C96.0755 349.488 95.513 349.758 94.8567 349.953C94.2083 350.141 93.4778 350.234 92.6653 350.234C91.4856 350.234 90.4856 350.023 89.6653 349.602C88.8528 349.18 88.2356 348.645 87.8137 347.996C87.3997 347.34 87.1927 346.668 87.1927 345.98H90.3919C90.4075 346.441 90.5247 346.812 90.7434 347.094C90.97 347.375 91.2552 347.578 91.5989 347.703C91.9505 347.828 92.3294 347.891 92.7356 347.891C93.1731 347.891 93.5364 347.832 93.8255 347.715C94.1145 347.59 94.3333 347.426 94.4817 347.223C94.638 347.012 94.7161 346.77 94.7161 346.496ZM104.96 337.32V339.711H97.5769V337.32H104.96ZM99.405 334.191H102.78V346.18C102.78 346.547 102.827 346.828 102.921 347.023C103.022 347.219 103.171 347.355 103.366 347.434C103.561 347.504 103.807 347.539 104.104 347.539C104.315 347.539 104.503 347.531 104.667 347.516C104.839 347.492 104.983 347.469 105.1 347.445L105.112 349.93C104.823 350.023 104.51 350.098 104.175 350.152C103.839 350.207 103.467 350.234 103.061 350.234C102.319 350.234 101.671 350.113 101.116 349.871C100.569 349.621 100.147 349.223 99.8503 348.676C99.5534 348.129 99.405 347.41 99.405 346.52V334.191ZM111.277 350.234C110.293 350.234 109.41 350.078 108.629 349.766C107.848 349.445 107.184 349.004 106.637 348.441C106.098 347.879 105.684 347.227 105.395 346.484C105.106 345.734 104.961 344.938 104.961 344.094V343.625C104.961 342.664 105.098 341.785 105.371 340.988C105.645 340.191 106.035 339.5 106.543 338.914C107.059 338.328 107.684 337.879 108.418 337.566C109.152 337.246 109.981 337.086 110.902 337.086C111.801 337.086 112.598 337.234 113.293 337.531C113.988 337.828 114.57 338.25 115.039 338.797C115.516 339.344 115.875 340 116.117 340.766C116.36 341.523 116.481 342.367 116.481 343.297V344.703H106.402V342.453H113.164V342.195C113.164 341.727 113.078 341.309 112.906 340.941C112.742 340.566 112.492 340.27 112.156 340.051C111.82 339.832 111.391 339.723 110.867 339.723C110.422 339.723 110.039 339.82 109.719 340.016C109.399 340.211 109.137 340.484 108.934 340.836C108.738 341.188 108.59 341.602 108.488 342.078C108.395 342.547 108.348 343.062 108.348 343.625V344.094C108.348 344.602 108.418 345.07 108.559 345.5C108.707 345.93 108.914 346.301 109.18 346.613C109.453 346.926 109.781 347.168 110.164 347.34C110.555 347.512 110.996 347.598 111.488 347.598C112.098 347.598 112.664 347.48 113.188 347.246C113.719 347.004 114.176 346.641 114.559 346.156L116.199 347.938C115.934 348.32 115.57 348.688 115.11 349.039C114.656 349.391 114.11 349.68 113.469 349.906C112.828 350.125 112.098 350.234 111.277 350.234ZM120.337 340.086V350H116.962V337.32H120.138L120.337 340.086ZM124.158 337.238L124.099 340.367C123.935 340.344 123.736 340.324 123.502 340.309C123.275 340.285 123.068 340.273 122.88 340.273C122.404 340.273 121.99 340.336 121.638 340.461C121.295 340.578 121.005 340.754 120.771 340.988C120.545 341.223 120.373 341.508 120.255 341.844C120.146 342.18 120.084 342.562 120.068 342.992L119.388 342.781C119.388 341.961 119.47 341.207 119.634 340.52C119.798 339.824 120.037 339.219 120.349 338.703C120.67 338.188 121.06 337.789 121.521 337.508C121.982 337.227 122.509 337.086 123.103 337.086C123.291 337.086 123.482 337.102 123.677 337.133C123.873 337.156 124.033 337.191 124.158 337.238Z" fill="#333333"/>
<g filter="url(#filter9_i_2081_4321)">
<rect x="183" y="314" width="85" height="56" rx="9" fill="#CC594F"/>
</g>
<rect x="183.5" y="314.5" width="84" height="55" rx="8.5" stroke="#CC594F"/>
<path d="M213.423 344.34H216.927C216.857 345.488 216.54 346.508 215.978 347.398C215.423 348.289 214.646 348.984 213.646 349.484C212.653 349.984 211.458 350.234 210.06 350.234C208.966 350.234 207.985 350.047 207.118 349.672C206.251 349.289 205.509 348.742 204.892 348.031C204.282 347.32 203.818 346.461 203.497 345.453C203.177 344.445 203.017 343.316 203.017 342.066V340.883C203.017 339.633 203.181 338.504 203.509 337.496C203.845 336.48 204.321 335.617 204.939 334.906C205.564 334.195 206.31 333.648 207.177 333.266C208.044 332.883 209.013 332.691 210.083 332.691C211.505 332.691 212.704 332.949 213.681 333.465C214.665 333.98 215.427 334.691 215.966 335.598C216.513 336.504 216.841 337.535 216.95 338.691H213.435C213.396 338.004 213.259 337.422 213.025 336.945C212.79 336.461 212.435 336.098 211.958 335.855C211.489 335.605 210.864 335.48 210.083 335.48C209.497 335.48 208.985 335.59 208.548 335.809C208.11 336.027 207.743 336.359 207.446 336.805C207.15 337.25 206.927 337.812 206.778 338.492C206.638 339.164 206.568 339.953 206.568 340.859V342.066C206.568 342.949 206.634 343.727 206.767 344.398C206.9 345.062 207.103 345.625 207.376 346.086C207.657 346.539 208.017 346.883 208.454 347.117C208.9 347.344 209.435 347.457 210.06 347.457C210.794 347.457 211.4 347.34 211.876 347.105C212.353 346.871 212.716 346.523 212.966 346.062C213.224 345.602 213.376 345.027 213.423 344.34ZM221.147 332V350H217.76V332H221.147ZM226.059 337.32V350H222.672V337.32H226.059ZM222.461 334.016C222.461 333.523 222.633 333.117 222.977 332.797C223.32 332.477 223.781 332.316 224.359 332.316C224.93 332.316 225.387 332.477 225.73 332.797C226.082 333.117 226.258 333.523 226.258 334.016C226.258 334.508 226.082 334.914 225.73 335.234C225.387 335.555 224.93 335.715 224.359 335.715C223.781 335.715 223.32 335.555 222.977 335.234C222.633 334.914 222.461 334.508 222.461 334.016ZM232.646 347.598C233.06 347.598 233.427 347.52 233.748 347.363C234.068 347.199 234.318 346.973 234.498 346.684C234.685 346.387 234.783 346.039 234.79 345.641H237.966C237.958 346.531 237.72 347.324 237.251 348.02C236.783 348.707 236.154 349.25 235.365 349.648C234.576 350.039 233.693 350.234 232.716 350.234C231.732 350.234 230.873 350.07 230.138 349.742C229.412 349.414 228.806 348.961 228.322 348.383C227.837 347.797 227.474 347.117 227.232 346.344C226.99 345.562 226.869 344.727 226.869 343.836V343.496C226.869 342.598 226.99 341.762 227.232 340.988C227.474 340.207 227.837 339.527 228.322 338.949C228.806 338.363 229.412 337.906 230.138 337.578C230.865 337.25 231.716 337.086 232.693 337.086C233.732 337.086 234.642 337.285 235.423 337.684C236.212 338.082 236.83 338.652 237.275 339.395C237.728 340.129 237.958 341 237.966 342.008H234.79C234.783 341.586 234.693 341.203 234.521 340.859C234.357 340.516 234.115 340.242 233.794 340.039C233.482 339.828 233.095 339.723 232.634 339.723C232.142 339.723 231.74 339.828 231.427 340.039C231.115 340.242 230.873 340.523 230.701 340.883C230.529 341.234 230.408 341.637 230.337 342.09C230.275 342.535 230.244 343.004 230.244 343.496V343.836C230.244 344.328 230.275 344.801 230.337 345.254C230.4 345.707 230.517 346.109 230.689 346.461C230.869 346.812 231.115 347.09 231.427 347.293C231.74 347.496 232.146 347.598 232.646 347.598ZM241.858 331.988V350H238.483V331.988H241.858ZM249.85 337.32L244.343 343.602L241.39 346.59L240.159 344.152L242.503 341.176L245.796 337.32H249.85ZM246.347 350L242.597 344.141L244.929 342.102L250.237 350H246.347Z" fill="#333333"/>
<g filter="url(#filter10_i_2081_4321)">
<rect x="319" y="314" width="85" height="56" rx="9" fill="#81BA75"/>
</g>
<rect x="319.5" y="314.5" width="84" height="55" rx="8.5" stroke="#81BA75"/>
<path d="M335.851 345.535C335.851 345.23 335.804 344.957 335.711 344.715C335.625 344.465 335.461 344.238 335.218 344.035C334.976 343.824 334.636 343.617 334.199 343.414C333.761 343.211 333.195 343 332.5 342.781C331.726 342.531 330.992 342.25 330.297 341.938C329.609 341.625 329 341.262 328.468 340.848C327.945 340.426 327.531 339.938 327.226 339.383C326.929 338.828 326.781 338.184 326.781 337.449C326.781 336.738 326.937 336.094 327.25 335.516C327.562 334.93 328 334.43 328.562 334.016C329.125 333.594 329.789 333.27 330.554 333.043C331.328 332.816 332.175 332.703 333.097 332.703C334.355 332.703 335.453 332.93 336.39 333.383C337.328 333.836 338.054 334.457 338.57 335.246C339.093 336.035 339.355 336.938 339.355 337.953H335.863C335.863 337.453 335.757 337.016 335.547 336.641C335.343 336.258 335.031 335.957 334.609 335.738C334.195 335.52 333.672 335.41 333.039 335.41C332.429 335.41 331.922 335.504 331.515 335.691C331.109 335.871 330.804 336.117 330.601 336.43C330.398 336.734 330.297 337.078 330.297 337.461C330.297 337.75 330.367 338.012 330.507 338.246C330.656 338.48 330.875 338.699 331.164 338.902C331.453 339.105 331.808 339.297 332.23 339.477C332.652 339.656 333.14 339.832 333.695 340.004C334.625 340.285 335.441 340.602 336.144 340.953C336.855 341.305 337.449 341.699 337.925 342.137C338.402 342.574 338.761 343.07 339.004 343.625C339.246 344.18 339.367 344.809 339.367 345.512C339.367 346.254 339.222 346.918 338.933 347.504C338.644 348.09 338.226 348.586 337.679 348.992C337.132 349.398 336.48 349.707 335.722 349.918C334.965 350.129 334.117 350.234 333.179 350.234C332.336 350.234 331.504 350.125 330.683 349.906C329.863 349.68 329.117 349.34 328.445 348.887C327.781 348.434 327.25 347.855 326.851 347.152C326.453 346.449 326.254 345.617 326.254 344.656H329.781C329.781 345.188 329.863 345.637 330.027 346.004C330.191 346.371 330.422 346.668 330.718 346.895C331.023 347.121 331.382 347.285 331.797 347.387C332.218 347.488 332.679 347.539 333.179 347.539C333.789 347.539 334.289 347.453 334.679 347.281C335.078 347.109 335.371 346.871 335.558 346.566C335.754 346.262 335.851 345.918 335.851 345.535ZM345.942 350.234C344.958 350.234 344.075 350.078 343.294 349.766C342.513 349.445 341.849 349.004 341.302 348.441C340.763 347.879 340.349 347.227 340.06 346.484C339.771 345.734 339.626 344.938 339.626 344.094V343.625C339.626 342.664 339.763 341.785 340.036 340.988C340.31 340.191 340.7 339.5 341.208 338.914C341.724 338.328 342.349 337.879 343.083 337.566C343.817 337.246 344.646 337.086 345.567 337.086C346.466 337.086 347.263 337.234 347.958 337.531C348.653 337.828 349.235 338.25 349.704 338.797C350.181 339.344 350.54 340 350.782 340.766C351.025 341.523 351.146 342.367 351.146 343.297V344.703H341.067V342.453H347.829V342.195C347.829 341.727 347.743 341.309 347.571 340.941C347.407 340.566 347.157 340.27 346.821 340.051C346.485 339.832 346.056 339.723 345.532 339.723C345.087 339.723 344.704 339.82 344.384 340.016C344.064 340.211 343.802 340.484 343.599 340.836C343.403 341.188 343.255 341.602 343.153 342.078C343.06 342.547 343.013 343.062 343.013 343.625V344.094C343.013 344.602 343.083 345.07 343.224 345.5C343.372 345.93 343.579 346.301 343.845 346.613C344.118 346.926 344.446 347.168 344.829 347.34C345.22 347.512 345.661 347.598 346.153 347.598C346.763 347.598 347.329 347.48 347.853 347.246C348.384 347.004 348.841 346.641 349.224 346.156L350.864 347.938C350.599 348.32 350.235 348.688 349.775 349.039C349.321 349.391 348.775 349.68 348.134 349.906C347.493 350.125 346.763 350.234 345.942 350.234ZM356.866 347.598C357.28 347.598 357.647 347.52 357.967 347.363C358.288 347.199 358.538 346.973 358.717 346.684C358.905 346.387 359.002 346.039 359.01 345.641H362.186C362.178 346.531 361.94 347.324 361.471 348.02C361.002 348.707 360.374 349.25 359.585 349.648C358.795 350.039 357.913 350.234 356.936 350.234C355.952 350.234 355.092 350.07 354.358 349.742C353.631 349.414 353.026 348.961 352.542 348.383C352.057 347.797 351.694 347.117 351.452 346.344C351.21 345.562 351.088 344.727 351.088 343.836V343.496C351.088 342.598 351.21 341.762 351.452 340.988C351.694 340.207 352.057 339.527 352.542 338.949C353.026 338.363 353.631 337.906 354.358 337.578C355.085 337.25 355.936 337.086 356.913 337.086C357.952 337.086 358.862 337.285 359.643 337.684C360.432 338.082 361.049 338.652 361.495 339.395C361.948 340.129 362.178 341 362.186 342.008H359.01C359.002 341.586 358.913 341.203 358.741 340.859C358.577 340.516 358.335 340.242 358.014 340.039C357.702 339.828 357.315 339.723 356.854 339.723C356.362 339.723 355.96 339.828 355.647 340.039C355.335 340.242 355.092 340.523 354.92 340.883C354.749 341.234 354.627 341.637 354.557 342.09C354.495 342.535 354.463 343.004 354.463 343.496V343.836C354.463 344.328 354.495 344.801 354.557 345.254C354.62 345.707 354.737 346.109 354.909 346.461C355.088 346.812 355.335 347.09 355.647 347.293C355.96 347.496 356.366 347.598 356.866 347.598ZM368.914 337.32V339.711H361.531V337.32H368.914ZM363.359 334.191H366.734V346.18C366.734 346.547 366.781 346.828 366.875 347.023C366.977 347.219 367.125 347.355 367.32 347.434C367.516 347.504 367.762 347.539 368.059 347.539C368.27 347.539 368.457 347.531 368.621 347.516C368.793 347.492 368.938 347.469 369.055 347.445L369.066 349.93C368.777 350.023 368.465 350.098 368.129 350.152C367.793 350.207 367.422 350.234 367.016 350.234C366.273 350.234 365.625 350.113 365.07 349.871C364.523 349.621 364.102 349.223 363.805 348.676C363.508 348.129 363.359 347.41 363.359 346.52V334.191ZM372.958 337.32V350H369.572V337.32H372.958ZM369.361 334.016C369.361 333.523 369.533 333.117 369.876 332.797C370.22 332.477 370.681 332.316 371.259 332.316C371.83 332.316 372.287 332.477 372.63 332.797C372.982 333.117 373.158 333.523 373.158 334.016C373.158 334.508 372.982 334.914 372.63 335.234C372.287 335.555 371.83 335.715 371.259 335.715C370.681 335.715 370.22 335.555 369.876 335.234C369.533 334.914 369.361 334.508 369.361 334.016ZM373.768 343.789V343.543C373.768 342.613 373.901 341.758 374.167 340.977C374.432 340.188 374.819 339.504 375.327 338.926C375.835 338.348 376.46 337.898 377.202 337.578C377.944 337.25 378.796 337.086 379.757 337.086C380.718 337.086 381.573 337.25 382.323 337.578C383.073 337.898 383.702 338.348 384.21 338.926C384.725 339.504 385.116 340.188 385.382 340.977C385.647 341.758 385.78 342.613 385.78 343.543V343.789C385.78 344.711 385.647 345.566 385.382 346.355C385.116 347.137 384.725 347.82 384.21 348.406C383.702 348.984 383.077 349.434 382.335 349.754C381.593 350.074 380.741 350.234 379.78 350.234C378.819 350.234 377.964 350.074 377.214 349.754C376.472 349.434 375.843 348.984 375.327 348.406C374.819 347.82 374.432 347.137 374.167 346.355C373.901 345.566 373.768 344.711 373.768 343.789ZM377.143 343.543V343.789C377.143 344.32 377.19 344.816 377.284 345.277C377.378 345.738 377.526 346.145 377.729 346.496C377.94 346.84 378.214 347.109 378.55 347.305C378.886 347.5 379.296 347.598 379.78 347.598C380.249 347.598 380.651 347.5 380.987 347.305C381.323 347.109 381.593 346.84 381.796 346.496C381.999 346.145 382.147 345.738 382.241 345.277C382.343 344.816 382.393 344.32 382.393 343.789V343.543C382.393 343.027 382.343 342.543 382.241 342.09C382.147 341.629 381.995 341.223 381.784 340.871C381.581 340.512 381.311 340.23 380.975 340.027C380.64 339.824 380.233 339.723 379.757 339.723C379.28 339.723 378.874 339.824 378.538 340.027C378.21 340.23 377.94 340.512 377.729 340.871C377.526 341.223 377.378 341.629 377.284 342.09C377.19 342.543 377.143 343.027 377.143 343.543ZM389.719 340.027V350H386.344V337.32H389.508L389.719 340.027ZM389.227 343.215H388.313C388.313 342.277 388.434 341.434 388.676 340.684C388.918 339.926 389.258 339.281 389.696 338.75C390.133 338.211 390.653 337.801 391.254 337.52C391.864 337.23 392.543 337.086 393.293 337.086C393.887 337.086 394.43 337.172 394.922 337.344C395.414 337.516 395.836 337.789 396.188 338.164C396.547 338.539 396.821 339.035 397.008 339.652C397.203 340.27 397.301 341.023 397.301 341.914V350H393.903V341.902C393.903 341.34 393.825 340.902 393.668 340.59C393.512 340.277 393.282 340.059 392.977 339.934C392.68 339.801 392.313 339.734 391.875 339.734C391.422 339.734 391.028 339.824 390.692 340.004C390.364 340.184 390.09 340.434 389.871 340.754C389.66 341.066 389.5 341.434 389.391 341.855C389.282 342.277 389.227 342.73 389.227 343.215Z" fill="#333333"/>
<g filter="url(#filter11_i_2081_4321)">
<rect x="456" y="314" width="85" height="56" rx="9" fill="#81BA75"/>
</g>
<rect x="456.5" y="314.5" width="84" height="55" rx="8.5" stroke="#81BA75"/>
<path d="M467.233 332.938H470.209L474.592 345.465L478.975 332.938H481.952L475.787 350H473.397L467.233 332.938ZM465.627 332.938H468.592L469.131 345.148V350H465.627V332.938ZM480.592 332.938H483.569V350H480.053V345.148L480.592 332.938ZM491.844 347.141V341.492C491.844 341.086 491.777 340.738 491.644 340.449C491.512 340.152 491.305 339.922 491.023 339.758C490.75 339.594 490.394 339.512 489.957 339.512C489.582 339.512 489.258 339.578 488.984 339.711C488.711 339.836 488.5 340.02 488.351 340.262C488.203 340.496 488.129 340.773 488.129 341.094H484.754C484.754 340.555 484.879 340.043 485.129 339.559C485.379 339.074 485.742 338.648 486.219 338.281C486.695 337.906 487.262 337.613 487.918 337.402C488.582 337.191 489.324 337.086 490.144 337.086C491.129 337.086 492.004 337.25 492.769 337.578C493.535 337.906 494.137 338.398 494.574 339.055C495.019 339.711 495.242 340.531 495.242 341.516V346.941C495.242 347.637 495.285 348.207 495.371 348.652C495.457 349.09 495.582 349.473 495.746 349.801V350H492.336C492.172 349.656 492.047 349.227 491.961 348.711C491.883 348.188 491.844 347.664 491.844 347.141ZM492.289 342.277L492.312 344.188H490.426C489.98 344.188 489.594 344.238 489.265 344.34C488.937 344.441 488.668 344.586 488.457 344.773C488.246 344.953 488.09 345.164 487.988 345.406C487.894 345.648 487.847 345.914 487.847 346.203C487.847 346.492 487.914 346.754 488.047 346.988C488.18 347.215 488.371 347.395 488.621 347.527C488.871 347.652 489.164 347.715 489.5 347.715C490.008 347.715 490.449 347.613 490.824 347.41C491.199 347.207 491.488 346.957 491.691 346.66C491.902 346.363 492.012 346.082 492.019 345.816L492.91 347.246C492.785 347.566 492.613 347.898 492.394 348.242C492.183 348.586 491.914 348.91 491.586 349.215C491.258 349.512 490.863 349.758 490.402 349.953C489.941 350.141 489.394 350.234 488.762 350.234C487.957 350.234 487.226 350.074 486.57 349.754C485.922 349.426 485.406 348.977 485.023 348.406C484.648 347.828 484.461 347.172 484.461 346.438C484.461 345.773 484.586 345.184 484.836 344.668C485.086 344.152 485.453 343.719 485.937 343.367C486.43 343.008 487.043 342.738 487.777 342.559C488.512 342.371 489.363 342.277 490.332 342.277H492.289ZM499.779 340.086V350H496.404V337.32H499.579L499.779 340.086ZM503.599 337.238L503.54 340.367C503.376 340.344 503.177 340.324 502.943 340.309C502.716 340.285 502.509 340.273 502.322 340.273C501.845 340.273 501.431 340.336 501.079 340.461C500.736 340.578 500.447 340.754 500.212 340.988C499.986 341.223 499.814 341.508 499.697 341.844C499.587 342.18 499.525 342.562 499.509 342.992L498.829 342.781C498.829 341.961 498.911 341.207 499.075 340.52C499.24 339.824 499.478 339.219 499.79 338.703C500.111 338.188 500.501 337.789 500.962 337.508C501.423 337.227 501.95 337.086 502.544 337.086C502.732 337.086 502.923 337.102 503.118 337.133C503.314 337.156 503.474 337.191 503.599 337.238ZM507.128 331.988V350H503.753V331.988H507.128ZM515.12 337.32L509.612 343.602L506.659 346.59L505.428 344.152L507.772 341.176L511.065 337.32H515.12ZM511.616 350L507.866 344.141L510.198 342.102L515.507 350H511.616ZM520.735 350.234C519.75 350.234 518.867 350.078 518.086 349.766C517.305 349.445 516.641 349.004 516.094 348.441C515.555 347.879 515.141 347.227 514.852 346.484C514.563 345.734 514.418 344.938 514.418 344.094V343.625C514.418 342.664 514.555 341.785 514.828 340.988C515.102 340.191 515.492 339.5 516 338.914C516.516 338.328 517.141 337.879 517.875 337.566C518.61 337.246 519.438 337.086 520.36 337.086C521.258 337.086 522.055 337.234 522.75 337.531C523.445 337.828 524.027 338.25 524.496 338.797C524.973 339.344 525.332 340 525.574 340.766C525.817 341.523 525.938 342.367 525.938 343.297V344.703H515.86V342.453H522.621V342.195C522.621 341.727 522.535 341.309 522.363 340.941C522.199 340.566 521.949 340.27 521.613 340.051C521.277 339.832 520.848 339.723 520.324 339.723C519.879 339.723 519.496 339.82 519.176 340.016C518.856 340.211 518.594 340.484 518.391 340.836C518.195 341.188 518.047 341.602 517.945 342.078C517.852 342.547 517.805 343.062 517.805 343.625V344.094C517.805 344.602 517.875 345.07 518.016 345.5C518.164 345.93 518.371 346.301 518.637 346.613C518.91 346.926 519.238 347.168 519.621 347.34C520.012 347.512 520.453 347.598 520.945 347.598C521.555 347.598 522.121 347.48 522.645 347.246C523.176 347.004 523.633 346.641 524.016 346.156L525.656 347.938C525.391 348.32 525.027 348.688 524.567 349.039C524.113 349.391 523.567 349.68 522.926 349.906C522.285 350.125 521.555 350.234 520.735 350.234ZM529.795 340.086V350H526.42V337.32H529.595L529.795 340.086ZM533.615 337.238L533.556 340.367C533.392 340.344 533.193 340.324 532.959 340.309C532.732 340.285 532.525 340.273 532.337 340.273C531.861 340.273 531.447 340.336 531.095 340.461C530.752 340.578 530.462 340.754 530.228 340.988C530.002 341.223 529.83 341.508 529.712 341.844C529.603 342.18 529.541 342.562 529.525 342.992L528.845 342.781C528.845 341.961 528.927 341.207 529.091 340.52C529.255 339.824 529.494 339.219 529.806 338.703C530.127 338.188 530.517 337.789 530.978 337.508C531.439 337.227 531.966 337.086 532.56 337.086C532.748 337.086 532.939 337.102 533.134 337.133C533.33 337.156 533.49 337.191 533.615 337.238Z" fill="#333333"/>
<rect x="48" y="277" width="85" height="21" fill="#333333"/>
<path d="M84.4062 281.625V293H82.8984V281.625H84.4062ZM89.1719 286.742V287.977H84.0781V286.742H89.1719ZM89.9453 281.625V282.859H84.0781V281.625H89.9453ZM96.1172 281.562V293H94.6719V283.367L91.7578 284.43V283.125L95.8906 281.562H96.1172Z" fill="white"/>
<rect x="184" y="277" width="85" height="21" fill="#333333"/>
<path d="M220.406 281.625V293H218.898V281.625H220.406ZM225.172 286.742V287.977H220.078V286.742H225.172ZM225.945 281.625V282.859H220.078V281.625H225.945ZM234.82 291.812V293H227.375V291.961L231.102 287.812C231.56 287.302 231.914 286.87 232.164 286.516C232.419 286.156 232.596 285.836 232.695 285.555C232.799 285.268 232.852 284.977 232.852 284.68C232.852 284.305 232.773 283.966 232.617 283.664C232.466 283.357 232.242 283.112 231.945 282.93C231.648 282.747 231.289 282.656 230.867 282.656C230.362 282.656 229.94 282.755 229.602 282.953C229.268 283.146 229.018 283.417 228.852 283.766C228.685 284.115 228.602 284.516 228.602 284.969H227.156C227.156 284.328 227.297 283.742 227.578 283.211C227.859 282.68 228.276 282.258 228.828 281.945C229.38 281.628 230.06 281.469 230.867 281.469C231.586 281.469 232.201 281.596 232.711 281.852C233.221 282.102 233.612 282.456 233.883 282.914C234.159 283.367 234.297 283.898 234.297 284.508C234.297 284.841 234.24 285.18 234.125 285.523C234.016 285.862 233.862 286.201 233.664 286.539C233.471 286.878 233.245 287.211 232.984 287.539C232.729 287.867 232.456 288.19 232.164 288.508L229.117 291.812H234.82Z" fill="white"/>
<rect x="320" y="277" width="85" height="21" fill="#333333"/>
<path d="M356.406 281.625V293H354.898V281.625H356.406ZM361.172 286.742V287.977H356.078V286.742H361.172ZM361.945 281.625V282.859H356.078V281.625H361.945ZM365.477 286.602H366.508C367.013 286.602 367.43 286.518 367.758 286.352C368.091 286.18 368.339 285.948 368.5 285.656C368.667 285.359 368.75 285.026 368.75 284.656C368.75 284.219 368.677 283.852 368.531 283.555C368.385 283.258 368.167 283.034 367.875 282.883C367.583 282.732 367.214 282.656 366.766 282.656C366.359 282.656 366 282.737 365.688 282.898C365.38 283.055 365.138 283.279 364.961 283.57C364.789 283.862 364.703 284.206 364.703 284.602H363.258C363.258 284.023 363.404 283.497 363.695 283.023C363.987 282.549 364.396 282.172 364.922 281.891C365.453 281.609 366.068 281.469 366.766 281.469C367.453 281.469 368.055 281.591 368.57 281.836C369.086 282.076 369.487 282.435 369.773 282.914C370.06 283.388 370.203 283.979 370.203 284.688C370.203 284.974 370.135 285.281 370 285.609C369.87 285.932 369.664 286.234 369.383 286.516C369.107 286.797 368.747 287.029 368.305 287.211C367.862 287.388 367.331 287.477 366.711 287.477H365.477V286.602ZM365.477 287.789V286.922H366.711C367.435 286.922 368.034 287.008 368.508 287.18C368.982 287.352 369.354 287.581 369.625 287.867C369.901 288.154 370.094 288.469 370.203 288.812C370.318 289.151 370.375 289.49 370.375 289.828C370.375 290.359 370.284 290.831 370.102 291.242C369.924 291.654 369.672 292.003 369.344 292.289C369.021 292.576 368.641 292.792 368.203 292.938C367.766 293.083 367.289 293.156 366.773 293.156C366.279 293.156 365.812 293.086 365.375 292.945C364.943 292.805 364.56 292.602 364.227 292.336C363.893 292.065 363.633 291.734 363.445 291.344C363.258 290.948 363.164 290.497 363.164 289.992H364.609C364.609 290.388 364.695 290.734 364.867 291.031C365.044 291.328 365.294 291.56 365.617 291.727C365.945 291.888 366.331 291.969 366.773 291.969C367.216 291.969 367.596 291.893 367.914 291.742C368.237 291.586 368.484 291.352 368.656 291.039C368.833 290.727 368.922 290.333 368.922 289.859C368.922 289.385 368.823 288.997 368.625 288.695C368.427 288.388 368.146 288.161 367.781 288.016C367.422 287.865 366.997 287.789 366.508 287.789H365.477Z" fill="white"/>
<rect x="456" y="376" width="85" height="21" fill="#333333"/>
<path d="M492.406 380.625V392H490.898V380.625H492.406ZM497.172 385.742V386.977H492.078V385.742H497.172ZM497.945 380.625V381.859H492.078V380.625H497.945ZM506.539 388.922C506.539 389.615 506.378 390.203 506.055 390.688C505.737 391.167 505.305 391.531 504.758 391.781C504.216 392.031 503.604 392.156 502.922 392.156C502.24 392.156 501.625 392.031 501.078 391.781C500.531 391.531 500.099 391.167 499.781 390.688C499.464 390.203 499.305 389.615 499.305 388.922C499.305 388.469 499.391 388.055 499.562 387.68C499.74 387.299 499.987 386.969 500.305 386.688C500.628 386.406 501.008 386.19 501.445 386.039C501.888 385.883 502.375 385.805 502.906 385.805C503.604 385.805 504.227 385.94 504.773 386.211C505.32 386.477 505.75 386.844 506.062 387.312C506.38 387.781 506.539 388.318 506.539 388.922ZM505.086 388.891C505.086 388.469 504.995 388.096 504.812 387.773C504.63 387.445 504.375 387.19 504.047 387.008C503.719 386.826 503.339 386.734 502.906 386.734C502.464 386.734 502.081 386.826 501.758 387.008C501.44 387.19 501.193 387.445 501.016 387.773C500.839 388.096 500.75 388.469 500.75 388.891C500.75 389.328 500.836 389.703 501.008 390.016C501.185 390.323 501.435 390.56 501.758 390.727C502.086 390.888 502.474 390.969 502.922 390.969C503.37 390.969 503.755 390.888 504.078 390.727C504.401 390.56 504.648 390.323 504.82 390.016C504.997 389.703 505.086 389.328 505.086 388.891ZM506.273 383.586C506.273 384.138 506.128 384.635 505.836 385.078C505.544 385.521 505.146 385.87 504.641 386.125C504.135 386.38 503.562 386.508 502.922 386.508C502.271 386.508 501.69 386.38 501.18 386.125C500.674 385.87 500.279 385.521 499.992 385.078C499.706 384.635 499.562 384.138 499.562 383.586C499.562 382.924 499.706 382.362 499.992 381.898C500.284 381.435 500.682 381.081 501.188 380.836C501.693 380.591 502.268 380.469 502.914 380.469C503.565 380.469 504.143 380.591 504.648 380.836C505.154 381.081 505.549 381.435 505.836 381.898C506.128 382.362 506.273 382.924 506.273 383.586ZM504.828 383.609C504.828 383.229 504.747 382.893 504.586 382.602C504.424 382.31 504.201 382.081 503.914 381.914C503.628 381.742 503.294 381.656 502.914 381.656C502.534 381.656 502.201 381.737 501.914 381.898C501.633 382.055 501.411 382.279 501.25 382.57C501.094 382.862 501.016 383.208 501.016 383.609C501.016 384 501.094 384.341 501.25 384.633C501.411 384.924 501.635 385.151 501.922 385.312C502.208 385.474 502.542 385.555 502.922 385.555C503.302 385.555 503.633 385.474 503.914 385.312C504.201 385.151 504.424 384.924 504.586 384.633C504.747 384.341 504.828 384 504.828 383.609Z" fill="white"/>
<rect x="456" y="277" width="85" height="21" fill="#333333"/>
<path d="M492.406 281.625V293H490.898V281.625H492.406ZM497.172 286.742V287.977H492.078V286.742H497.172ZM497.945 281.625V282.859H492.078V281.625H497.945ZM507.055 289.172V290.359H498.836V289.508L503.93 281.625H505.109L503.844 283.906L500.477 289.172H507.055ZM505.469 281.625V293H504.023V281.625H505.469Z" fill="white"/>
<path d="M435.031 130.625V142H433.516L427.789 133.227V142H426.281V130.625H427.789L433.539 139.422V130.625H435.031ZM440.992 142.156C440.404 142.156 439.87 142.057 439.391 141.859C438.917 141.656 438.508 141.372 438.164 141.008C437.826 140.643 437.565 140.211 437.383 139.711C437.201 139.211 437.109 138.664 437.109 138.07V137.742C437.109 137.055 437.211 136.443 437.414 135.906C437.617 135.365 437.893 134.906 438.242 134.531C438.591 134.156 438.987 133.872 439.43 133.68C439.872 133.487 440.331 133.391 440.805 133.391C441.409 133.391 441.93 133.495 442.367 133.703C442.81 133.911 443.172 134.203 443.453 134.578C443.734 134.948 443.943 135.385 444.078 135.891C444.214 136.391 444.281 136.938 444.281 137.531V138.18H437.969V137H442.836V136.891C442.815 136.516 442.737 136.151 442.602 135.797C442.471 135.443 442.263 135.151 441.977 134.922C441.69 134.693 441.299 134.578 440.805 134.578C440.477 134.578 440.174 134.648 439.898 134.789C439.622 134.924 439.385 135.128 439.188 135.398C438.99 135.669 438.836 136 438.727 136.391C438.617 136.781 438.562 137.232 438.562 137.742V138.07C438.562 138.471 438.617 138.849 438.727 139.203C438.841 139.552 439.005 139.859 439.219 140.125C439.438 140.391 439.701 140.599 440.008 140.75C440.32 140.901 440.674 140.977 441.07 140.977C441.581 140.977 442.013 140.872 442.367 140.664C442.721 140.456 443.031 140.177 443.297 139.828L444.172 140.523C443.99 140.799 443.758 141.062 443.477 141.312C443.195 141.562 442.849 141.766 442.438 141.922C442.031 142.078 441.549 142.156 440.992 142.156ZM446.945 133.547L448.797 136.625L450.672 133.547H452.367L449.602 137.719L452.453 142H450.781L448.828 138.828L446.875 142H445.195L448.039 137.719L445.281 133.547H446.945ZM457.445 133.547V134.656H452.875V133.547H457.445ZM454.422 131.492H455.867V139.906C455.867 140.193 455.911 140.409 456 140.555C456.089 140.701 456.203 140.797 456.344 140.844C456.484 140.891 456.635 140.914 456.797 140.914C456.917 140.914 457.042 140.904 457.172 140.883C457.307 140.857 457.409 140.836 457.477 140.82L457.484 142C457.37 142.036 457.219 142.07 457.031 142.102C456.849 142.138 456.628 142.156 456.367 142.156C456.013 142.156 455.688 142.086 455.391 141.945C455.094 141.805 454.857 141.57 454.68 141.242C454.508 140.909 454.422 140.461 454.422 139.898V131.492Z" fill="white"/>
<path d="M133.273 137.539H130.234V136.312H133.273C133.862 136.312 134.339 136.219 134.703 136.031C135.068 135.844 135.333 135.583 135.5 135.25C135.672 134.917 135.758 134.536 135.758 134.109C135.758 133.719 135.672 133.352 135.5 133.008C135.333 132.664 135.068 132.388 134.703 132.18C134.339 131.966 133.862 131.859 133.273 131.859H130.586V142H129.078V130.625H133.273C134.133 130.625 134.859 130.773 135.453 131.07C136.047 131.367 136.497 131.779 136.805 132.305C137.112 132.826 137.266 133.422 137.266 134.094C137.266 134.823 137.112 135.445 136.805 135.961C136.497 136.477 136.047 136.87 135.453 137.141C134.859 137.406 134.133 137.539 133.273 137.539ZM140.398 134.875V142H138.953V133.547H140.359L140.398 134.875ZM143.039 133.5L143.031 134.844C142.911 134.818 142.797 134.802 142.688 134.797C142.583 134.786 142.464 134.781 142.328 134.781C141.995 134.781 141.701 134.833 141.445 134.938C141.19 135.042 140.974 135.188 140.797 135.375C140.62 135.562 140.479 135.786 140.375 136.047C140.276 136.302 140.211 136.583 140.18 136.891L139.773 137.125C139.773 136.615 139.823 136.135 139.922 135.688C140.026 135.24 140.185 134.844 140.398 134.5C140.612 134.151 140.883 133.88 141.211 133.688C141.544 133.49 141.94 133.391 142.398 133.391C142.503 133.391 142.622 133.404 142.758 133.43C142.893 133.451 142.987 133.474 143.039 133.5ZM147.727 142.156C147.138 142.156 146.604 142.057 146.125 141.859C145.651 141.656 145.242 141.372 144.898 141.008C144.56 140.643 144.299 140.211 144.117 139.711C143.935 139.211 143.844 138.664 143.844 138.07V137.742C143.844 137.055 143.945 136.443 144.148 135.906C144.352 135.365 144.628 134.906 144.977 134.531C145.326 134.156 145.721 133.872 146.164 133.68C146.607 133.487 147.065 133.391 147.539 133.391C148.143 133.391 148.664 133.495 149.102 133.703C149.544 133.911 149.906 134.203 150.188 134.578C150.469 134.948 150.677 135.385 150.812 135.891C150.948 136.391 151.016 136.938 151.016 137.531V138.18H144.703V137H149.57V136.891C149.549 136.516 149.471 136.151 149.336 135.797C149.206 135.443 148.997 135.151 148.711 134.922C148.424 134.693 148.034 134.578 147.539 134.578C147.211 134.578 146.909 134.648 146.633 134.789C146.357 134.924 146.12 135.128 145.922 135.398C145.724 135.669 145.57 136 145.461 136.391C145.352 136.781 145.297 137.232 145.297 137.742V138.07C145.297 138.471 145.352 138.849 145.461 139.203C145.576 139.552 145.74 139.859 145.953 140.125C146.172 140.391 146.435 140.599 146.742 140.75C147.055 140.901 147.409 140.977 147.805 140.977C148.315 140.977 148.747 140.872 149.102 140.664C149.456 140.456 149.766 140.177 150.031 139.828L150.906 140.523C150.724 140.799 150.492 141.062 150.211 141.312C149.93 141.562 149.583 141.766 149.172 141.922C148.766 142.078 148.284 142.156 147.727 142.156ZM155.164 140.695L157.477 133.547H158.953L155.914 142H154.945L155.164 140.695ZM153.234 133.547L155.617 140.734L155.781 142H154.812L151.75 133.547H153.234Z" fill="white"/>
<rect x="320" y="376" width="85" height="21" fill="#333333"/>
<path d="M356.406 380.625V392H354.898V380.625H356.406ZM361.172 385.742V386.977H356.078V385.742H361.172ZM361.945 380.625V381.859H356.078V380.625H361.945ZM370.719 380.625V381.438L366.008 392H364.484L369.188 381.812H363.031V380.625H370.719Z" fill="white"/>
<rect x="184" y="376" width="85" height="21" fill="#333333"/>
<path d="M220.406 380.625V392H218.898V380.625H220.406ZM225.172 385.742V386.977H220.078V385.742H225.172ZM225.945 380.625V381.859H220.078V380.625H225.945ZM232.914 380.609H233.039V381.836H232.914C232.148 381.836 231.508 381.961 230.992 382.211C230.477 382.456 230.068 382.786 229.766 383.203C229.464 383.615 229.245 384.078 229.109 384.594C228.979 385.109 228.914 385.633 228.914 386.164V387.836C228.914 388.341 228.974 388.789 229.094 389.18C229.214 389.565 229.378 389.891 229.586 390.156C229.794 390.422 230.029 390.622 230.289 390.758C230.555 390.893 230.831 390.961 231.117 390.961C231.451 390.961 231.747 390.898 232.008 390.773C232.268 390.643 232.487 390.464 232.664 390.234C232.846 390 232.984 389.724 233.078 389.406C233.172 389.089 233.219 388.74 233.219 388.359C233.219 388.021 233.177 387.695 233.094 387.383C233.01 387.065 232.883 386.784 232.711 386.539C232.539 386.289 232.323 386.094 232.062 385.953C231.807 385.807 231.503 385.734 231.148 385.734C230.747 385.734 230.372 385.833 230.023 386.031C229.68 386.224 229.396 386.479 229.172 386.797C228.953 387.109 228.828 387.451 228.797 387.82L228.031 387.812C228.104 387.229 228.24 386.732 228.438 386.32C228.641 385.904 228.891 385.565 229.188 385.305C229.49 385.039 229.826 384.846 230.195 384.727C230.57 384.602 230.966 384.539 231.383 384.539C231.951 384.539 232.44 384.646 232.852 384.859C233.263 385.073 233.602 385.359 233.867 385.719C234.133 386.073 234.328 386.474 234.453 386.922C234.583 387.365 234.648 387.82 234.648 388.289C234.648 388.826 234.573 389.328 234.422 389.797C234.271 390.266 234.044 390.677 233.742 391.031C233.445 391.385 233.078 391.661 232.641 391.859C232.203 392.057 231.695 392.156 231.117 392.156C230.503 392.156 229.966 392.031 229.508 391.781C229.049 391.526 228.669 391.188 228.367 390.766C228.065 390.344 227.839 389.875 227.688 389.359C227.536 388.844 227.461 388.32 227.461 387.789V387.109C227.461 386.307 227.542 385.521 227.703 384.75C227.865 383.979 228.143 383.281 228.539 382.656C228.94 382.031 229.495 381.534 230.203 381.164C230.911 380.794 231.815 380.609 232.914 380.609Z" fill="white"/>
<rect x="48" y="376" width="85" height="21" fill="#333333"/>
<path d="M84.4062 380.625V392H82.8984V380.625H84.4062ZM89.1719 385.742V386.977H84.0781V385.742H89.1719ZM89.9453 380.625V381.859H84.0781V380.625H89.9453ZM93.1953 386.586L92.0391 386.289L92.6094 380.625H98.4453V381.961H93.8359L93.4922 385.055C93.7005 384.935 93.9635 384.823 94.2812 384.719C94.6042 384.615 94.974 384.562 95.3906 384.562C95.9167 384.562 96.388 384.654 96.8047 384.836C97.2214 385.013 97.5755 385.268 97.8672 385.602C98.1641 385.935 98.3906 386.336 98.5469 386.805C98.7031 387.273 98.7812 387.797 98.7812 388.375C98.7812 388.922 98.7057 389.424 98.5547 389.883C98.4089 390.341 98.1875 390.742 97.8906 391.086C97.5938 391.424 97.2188 391.688 96.7656 391.875C96.3177 392.062 95.7891 392.156 95.1797 392.156C94.7214 392.156 94.2865 392.094 93.875 391.969C93.4688 391.839 93.1042 391.643 92.7812 391.383C92.4635 391.117 92.2031 390.789 92 390.398C91.8021 390.003 91.6771 389.539 91.625 389.008H93C93.0625 389.435 93.1875 389.794 93.375 390.086C93.5625 390.378 93.8073 390.599 94.1094 390.75C94.4167 390.896 94.7734 390.969 95.1797 390.969C95.5234 390.969 95.8281 390.909 96.0938 390.789C96.3594 390.669 96.5833 390.497 96.7656 390.273C96.9479 390.049 97.0859 389.779 97.1797 389.461C97.2786 389.143 97.3281 388.786 97.3281 388.391C97.3281 388.031 97.2786 387.698 97.1797 387.391C97.0807 387.083 96.9323 386.815 96.7344 386.586C96.5417 386.357 96.3047 386.18 96.0234 386.055C95.7422 385.924 95.4193 385.859 95.0547 385.859C94.5703 385.859 94.2031 385.924 93.9531 386.055C93.7083 386.185 93.4557 386.362 93.1953 386.586Z" fill="white"/>
<circle cx="293.5" cy="95.5" r="72" fill="#455178" stroke="#455178" stroke-dasharray="2 2"/>
<path d="M162.968 233.989L182.792 243L162.968 252.011L165.46 246.197L165.5 246.103L165.5 246L165.5 240L165.5 239.897L165.46 239.803L162.968 233.989Z" fill="#D97D41" stroke="#D97D41"/>
<rect x="165" y="246" width="3" height="6" transform="rotate(-180 165 246)" fill="#D97D41"/>
<path d="M162 246L157 246L157 240L162 240L162 246Z" fill="#D97D41"/>
<path d="M157 253L157 240L154.5 240C153.119 240 152 241.119 152 242.5L152 253L157 253Z" fill="#D97D41"/>
<path d="M157 253L157 434.5C157 435.881 155.881 437 154.5 437V437C153.119 437 152 435.881 152 434.5L152 253L157 253Z" fill="#D97D41"/>
<path d="M298.968 233.989L318.792 243L298.968 252.011L301.46 246.197L301.5 246.103L301.5 246L301.5 240L301.5 239.897L301.46 239.803L298.968 233.989Z" fill="#D97D41" stroke="#D97D41"/>
<rect x="301" y="246" width="3" height="6" transform="rotate(-180 301 246)" fill="#D97D41"/>
<path d="M298 246L293 246L293 240L298 240L298 246Z" fill="#D97D41"/>
<path d="M293 253L293 240L290.5 240C289.119 240 288 241.119 288 242.5L288 253L293 253Z" fill="#D97D41"/>
<path d="M293 253L293 434.5C293 435.881 291.881 437 290.5 437V437C289.119 437 288 435.881 288 434.5L288 253L293 253Z" fill="#D97D41"/>
<path d="M434.968 233.989L454.792 243L434.968 252.011L437.46 246.197L437.5 246.103L437.5 246L437.5 240L437.5 239.897L437.46 239.803L434.968 233.989Z" fill="#D97D41" stroke="#D97D41"/>
<rect x="437" y="246" width="3" height="6" transform="rotate(-180 437 246)" fill="#D97D41"/>
<path d="M434 246L429 246L429 240L434 240L434 246Z" fill="#D97D41"/>
<path d="M429 253L429 240L426.5 240C425.119 240 424 241.119 424 242.5L424 253L429 253Z" fill="#D97D41"/>
<path d="M429 253L429 434.5C429 435.881 427.881 437 426.5 437V437C425.119 437 424 435.881 424 434.5L424 253L429 253Z" fill="#D97D41"/>
<path d="M26.9679 233.989L46.7917 243L26.9679 252.011L29.4596 246.197L29.5 246.103L29.5 246L29.5 240L29.5 239.897L29.4596 239.803L26.9679 233.989Z" fill="#D97D41" stroke="#D97D41"/>
<rect x="29" y="246" width="3" height="6" transform="rotate(-180 29 246)" fill="#D97D41"/>
<path d="M26 246L21 246L21 240L26 240L26 246Z" fill="#D97D41"/>
<path d="M21 253L21 240L18.5 240C17.1193 240 16 241.119 16 242.5L16 253L21 253Z" fill="#D97D41"/>
<path d="M21 253L21 434.5C21 435.881 19.8807 437 18.5 437V437C17.1193 437 16 435.881 16 434.5L16 253L21 253Z" fill="#D97D41"/>
<path d="M355.989 418.032L365 398.208L374.011 418.032L368.197 415.54L368.103 415.5L368 415.5L362 415.5L361.897 415.5L361.803 415.54L355.989 418.032Z" fill="#D97D41" stroke="#D97D41"/>
<rect x="368" y="416" width="3" height="6" transform="rotate(90 368 416)" fill="#D97D41"/>
<path d="M368 419L368 434C368 435.657 366.657 437 365 437V437C363.343 437 362 435.657 362 434L362 419L368 419Z" fill="#D97D41"/>
<path d="M489.989 418.032L499 398.208L508.011 418.032L502.197 415.54L502.103 415.5L502 415.5L496 415.5L495.897 415.5L495.803 415.54L489.989 418.032Z" fill="#D97D41" stroke="#D97D41"/>
<rect x="502" y="416" width="3" height="6" transform="rotate(90 502 416)" fill="#D97D41"/>
<path d="M502 419L502 434C502 435.657 500.657 437 499 437V437C497.343 437 496 435.657 496 434L496 419L502 419Z" fill="#D97D41"/>
<path d="M217.989 418.032L227 398.208L236.011 418.032L230.197 415.54L230.103 415.5L230 415.5L224 415.5L223.897 415.5L223.803 415.54L217.989 418.032Z" fill="#D97D41" stroke="#D97D41"/>
<rect x="230" y="416" width="3" height="6" transform="rotate(90 230 416)" fill="#D97D41"/>
<path d="M230 419L230 434C230 435.657 228.657 437 227 437V437C225.343 437 224 435.657 224 434L224 419L230 419Z" fill="#D97D41"/>
<path d="M81.9892 418.032L91 398.208L100.011 418.032L94.197 415.54L94.1026 415.5L94 415.5L88 415.5L87.8974 415.5L87.803 415.54L81.9892 418.032Z" fill="#D97D41" stroke="#D97D41"/>
<rect x="94" y="416" width="3" height="6" transform="rotate(90 94 416)" fill="#D97D41"/>
<path d="M94 419L94 434C94 435.657 92.6569 437 91 437V437C89.3431 437 88 435.657 88 434L88 419L94 419Z" fill="#D97D41"/>
<path d="M21.7617 442.354V468H16.6992V448.189L10.6172 450.123V446.133L21.2168 442.354H21.7617Z" fill="#333333"/>
<path d="M99.9297 464.045V468H82.4219V464.625L90.7012 455.748C91.5332 454.822 92.1895 454.008 92.6699 453.305C93.1504 452.59 93.4961 451.951 93.707 451.389C93.9297 450.814 94.041 450.27 94.041 449.754C94.041 448.98 93.9121 448.318 93.6543 447.768C93.3965 447.205 93.0156 446.771 92.5117 446.467C92.0195 446.162 91.4102 446.01 90.6836 446.01C89.9102 446.01 89.2422 446.197 88.6797 446.572C88.1289 446.947 87.707 447.469 87.4141 448.137C87.1328 448.805 86.9922 449.561 86.9922 450.404H81.9121C81.9121 448.881 82.2754 447.486 83.002 446.221C83.7285 444.943 84.7539 443.93 86.0781 443.18C87.4023 442.418 88.9727 442.037 90.7891 442.037C92.582 442.037 94.0938 442.33 95.3242 442.916C96.5664 443.49 97.5039 444.322 98.1367 445.412C98.7812 446.49 99.1035 447.779 99.1035 449.279C99.1035 450.123 98.9688 450.949 98.6992 451.758C98.4297 452.555 98.043 453.352 97.5391 454.148C97.0469 454.934 96.4492 455.73 95.7461 456.539C95.043 457.348 94.2637 458.186 93.4082 459.053L88.9609 464.045H99.9297Z" fill="#333333"/>
<path d="M150.607 453.006H153.314C154.182 453.006 154.896 452.859 155.459 452.566C156.021 452.262 156.438 451.84 156.707 451.301C156.988 450.75 157.129 450.111 157.129 449.385C157.129 448.729 157 448.148 156.742 447.645C156.496 447.129 156.115 446.73 155.6 446.449C155.084 446.156 154.434 446.01 153.648 446.01C153.027 446.01 152.453 446.133 151.926 446.379C151.398 446.625 150.977 446.971 150.66 447.416C150.344 447.861 150.186 448.4 150.186 449.033H145.105C145.105 447.627 145.48 446.402 146.23 445.359C146.992 444.316 148.012 443.502 149.289 442.916C150.566 442.33 151.973 442.037 153.508 442.037C155.242 442.037 156.76 442.318 158.061 442.881C159.361 443.432 160.375 444.246 161.102 445.324C161.828 446.402 162.191 447.738 162.191 449.332C162.191 450.141 162.004 450.926 161.629 451.688C161.254 452.438 160.715 453.117 160.012 453.727C159.32 454.324 158.477 454.805 157.48 455.168C156.484 455.52 155.365 455.695 154.123 455.695H150.607V453.006ZM150.607 456.855V454.236H154.123C155.518 454.236 156.742 454.395 157.797 454.711C158.852 455.027 159.736 455.484 160.451 456.082C161.166 456.668 161.705 457.365 162.068 458.174C162.432 458.971 162.613 459.855 162.613 460.828C162.613 462.023 162.385 463.09 161.928 464.027C161.471 464.953 160.826 465.738 159.994 466.383C159.174 467.027 158.213 467.52 157.111 467.859C156.01 468.188 154.809 468.352 153.508 468.352C152.43 468.352 151.369 468.205 150.326 467.912C149.295 467.607 148.357 467.156 147.514 466.559C146.682 465.949 146.014 465.188 145.51 464.273C145.018 463.348 144.771 462.252 144.771 460.986H149.852C149.852 461.643 150.016 462.229 150.344 462.744C150.672 463.26 151.123 463.664 151.697 463.957C152.283 464.25 152.934 464.396 153.648 464.396C154.457 464.396 155.148 464.25 155.723 463.957C156.309 463.652 156.754 463.23 157.059 462.691C157.375 462.141 157.533 461.502 157.533 460.775C157.533 459.838 157.363 459.088 157.023 458.525C156.684 457.951 156.197 457.529 155.564 457.26C154.932 456.99 154.182 456.855 153.314 456.855H150.607Z" fill="#333333"/>
<path d="M236.352 458.438V462.41H217.912L217.666 459.334L228.336 442.406H232.361L228.002 449.701L222.693 458.438H236.352ZM233.451 442.406V468H228.389V442.406H233.451Z" fill="#333333"/>
<path d="M287.186 456.346L283.143 455.379L284.602 442.406H298.98V446.502H288.768L288.135 452.18C288.475 451.98 288.99 451.77 289.682 451.547C290.373 451.312 291.146 451.195 292.002 451.195C293.244 451.195 294.346 451.389 295.307 451.775C296.268 452.162 297.082 452.725 297.75 453.463C298.43 454.201 298.945 455.104 299.297 456.17C299.648 457.236 299.824 458.443 299.824 459.791C299.824 460.928 299.648 462.012 299.297 463.043C298.945 464.062 298.412 464.977 297.697 465.785C296.982 466.582 296.086 467.209 295.008 467.666C293.93 468.123 292.652 468.352 291.176 468.352C290.074 468.352 289.008 468.188 287.977 467.859C286.957 467.531 286.037 467.045 285.217 466.4C284.408 465.756 283.758 464.977 283.266 464.062C282.785 463.137 282.533 462.082 282.51 460.898H287.537C287.607 461.625 287.795 462.252 288.1 462.779C288.416 463.295 288.832 463.693 289.348 463.975C289.863 464.256 290.467 464.396 291.158 464.396C291.803 464.396 292.354 464.273 292.811 464.027C293.268 463.781 293.637 463.441 293.918 463.008C294.199 462.562 294.404 462.047 294.533 461.461C294.674 460.863 294.744 460.219 294.744 459.527C294.744 458.836 294.662 458.209 294.498 457.646C294.334 457.084 294.082 456.598 293.742 456.188C293.402 455.777 292.969 455.461 292.441 455.238C291.926 455.016 291.322 454.904 290.631 454.904C289.693 454.904 288.967 455.051 288.451 455.344C287.947 455.637 287.525 455.971 287.186 456.346Z" fill="#333333"/>
<path d="M369.482 442.143H370.221V446.186H369.922C368.586 446.186 367.396 446.385 366.354 446.783C365.311 447.182 364.426 447.75 363.699 448.488C362.984 449.215 362.434 450.094 362.047 451.125C361.672 452.156 361.484 453.311 361.484 454.588V458.842C361.484 459.756 361.572 460.564 361.748 461.268C361.936 461.959 362.199 462.539 362.539 463.008C362.891 463.465 363.301 463.811 363.77 464.045C364.238 464.268 364.766 464.379 365.352 464.379C365.902 464.379 366.4 464.262 366.846 464.027C367.303 463.793 367.689 463.465 368.006 463.043C368.334 462.609 368.58 462.105 368.744 461.531C368.92 460.945 369.008 460.307 369.008 459.615C369.008 458.924 368.92 458.285 368.744 457.699C368.58 457.113 368.334 456.609 368.006 456.188C367.678 455.754 367.279 455.42 366.811 455.186C366.342 454.951 365.814 454.834 365.229 454.834C364.432 454.834 363.729 455.021 363.119 455.396C362.521 455.76 362.053 456.229 361.713 456.803C361.373 457.377 361.191 457.98 361.168 458.613L359.639 457.629C359.674 456.727 359.861 455.871 360.201 455.062C360.553 454.254 361.033 453.539 361.643 452.918C362.264 452.285 363.008 451.793 363.875 451.441C364.742 451.078 365.721 450.896 366.811 450.896C368.006 450.896 369.055 451.125 369.957 451.582C370.871 452.039 371.633 452.666 372.242 453.463C372.852 454.26 373.309 455.18 373.613 456.223C373.918 457.266 374.07 458.379 374.07 459.562C374.07 460.805 373.865 461.959 373.455 463.025C373.057 464.092 372.477 465.023 371.715 465.82C370.965 466.617 370.062 467.238 369.008 467.684C367.953 468.129 366.77 468.352 365.457 468.352C364.098 468.352 362.861 468.105 361.748 467.613C360.646 467.109 359.697 466.406 358.9 465.504C358.104 464.602 357.488 463.529 357.055 462.287C356.633 461.045 356.422 459.686 356.422 458.209V456.24C356.422 454.178 356.721 452.291 357.318 450.58C357.928 448.857 358.801 447.369 359.938 446.115C361.074 444.85 362.445 443.871 364.051 443.18C365.656 442.488 367.467 442.143 369.482 442.143Z" fill="#333333"/>
<path d="M435.807 442.406V445.131L425.91 468H420.566L430.463 446.361H417.719V442.406H435.807Z" fill="#333333"/>
<path d="M507.666 460.986C507.666 462.592 507.291 463.945 506.541 465.047C505.791 466.137 504.76 466.963 503.447 467.525C502.146 468.076 500.67 468.352 499.018 468.352C497.365 468.352 495.883 468.076 494.57 467.525C493.258 466.963 492.221 466.137 491.459 465.047C490.697 463.945 490.316 462.592 490.316 460.986C490.316 459.908 490.533 458.936 490.967 458.068C491.4 457.189 492.004 456.439 492.777 455.818C493.562 455.186 494.482 454.705 495.537 454.377C496.592 454.037 497.74 453.867 498.982 453.867C500.646 453.867 502.135 454.16 503.447 454.746C504.76 455.332 505.791 456.158 506.541 457.225C507.291 458.291 507.666 459.545 507.666 460.986ZM502.568 460.652C502.568 459.867 502.416 459.193 502.111 458.631C501.818 458.057 501.402 457.617 500.863 457.312C500.324 457.008 499.697 456.855 498.982 456.855C498.268 456.855 497.641 457.008 497.102 457.312C496.562 457.617 496.141 458.057 495.836 458.631C495.543 459.193 495.396 459.867 495.396 460.652C495.396 461.426 495.543 462.094 495.836 462.656C496.141 463.219 496.562 463.652 497.102 463.957C497.652 464.25 498.291 464.396 499.018 464.396C499.744 464.396 500.371 464.25 500.898 463.957C501.438 463.652 501.848 463.219 502.129 462.656C502.422 462.094 502.568 461.426 502.568 460.652ZM507.121 449.191C507.121 450.492 506.775 451.646 506.084 452.654C505.393 453.65 504.432 454.43 503.201 454.992C501.982 455.555 500.588 455.836 499.018 455.836C497.436 455.836 496.029 455.555 494.799 454.992C493.568 454.43 492.607 453.65 491.916 452.654C491.225 451.646 490.879 450.492 490.879 449.191C490.879 447.645 491.225 446.344 491.916 445.289C492.619 444.223 493.58 443.414 494.799 442.863C496.029 442.312 497.424 442.037 498.982 442.037C500.564 442.037 501.965 442.312 503.184 442.863C504.414 443.414 505.375 444.223 506.066 445.289C506.77 446.344 507.121 447.645 507.121 449.191ZM502.059 449.42C502.059 448.729 501.936 448.131 501.689 447.627C501.443 447.111 501.092 446.713 500.635 446.432C500.189 446.15 499.639 446.01 498.982 446.01C498.35 446.01 497.805 446.145 497.348 446.414C496.902 446.684 496.557 447.076 496.311 447.592C496.076 448.096 495.959 448.705 495.959 449.42C495.959 450.111 496.076 450.721 496.311 451.248C496.557 451.764 496.908 452.168 497.365 452.461C497.822 452.754 498.373 452.9 499.018 452.9C499.662 452.9 500.207 452.754 500.652 452.461C501.109 452.168 501.455 451.764 501.689 451.248C501.936 450.721 502.059 450.111 502.059 449.42Z" fill="#333333"/>
<defs>
<filter id="filter0_i_2081_4321" x="456" y="215" width="85" height="56" filterUnits="userSpaceOnUse" color-interpolation-filters="sRGB">
<feFlood flood-opacity="0" result="BackgroundImageFix"/>
<feBlend mode="normal" in="SourceGraphic" in2="BackgroundImageFix" result="shape"/>
<feColorMatrix in="SourceAlpha" type="matrix" values="0 0 0 0 0 0 0 0 0 0 0 0 0 0 0 0 0 0 127 0" result="hardAlpha"/>
<feMorphology radius="2" operator="erode" in="SourceAlpha" result="effect1_innerShadow_2081_4321"/>
<feOffset/>
<feComposite in2="hardAlpha" operator="arithmetic" k2="-1" k3="1"/>
<feColorMatrix type="matrix" values="0 0 0 0 0.235294 0 0 0 0 0.235294 0 0 0 0 0.235294 0 0 0 1 0"/>
<feBlend mode="normal" in2="shape" result="effect1_innerShadow_2081_4321"/>
</filter>
<filter id="filter1_d_2081_4321" x="410" y="64" width="85.8887" height="56" filterUnits="userSpaceOnUse" color-interpolation-filters="sRGB">
<feFlood flood-opacity="0" result="BackgroundImageFix"/>
<feColorMatrix in="SourceAlpha" type="matrix" values="0 0 0 0 0 0 0 0 0 0 0 0 0 0 0 0 0 0 127 0" result="hardAlpha"/>
<feOffset/>
<feComposite in2="hardAlpha" operator="out"/>
<feColorMatrix type="matrix" values="0 0 0 0 0 0 0 0 0 0 0 0 0 0 0 0 0 0 1 0"/>
<feBlend mode="normal" in2="BackgroundImageFix" result="effect1_dropShadow_2081_4321"/>
<feBlend mode="normal" in="SourceGraphic" in2="effect1_dropShadow_2081_4321" result="shape"/>
</filter>
<filter id="filter2_d_2081_4321" x="411" y="65" width="83.3389" height="54" filterUnits="userSpaceOnUse" color-interpolation-filters="sRGB">
<feFlood flood-opacity="0" result="BackgroundImageFix"/>
<feColorMatrix in="SourceAlpha" type="matrix" values="0 0 0 0 0 0 0 0 0 0 0 0 0 0 0 0 0 0 127 0" result="hardAlpha"/>
<feOffset/>
<feComposite in2="hardAlpha" operator="out"/>
<feColorMatrix type="matrix" values="0 0 0 0 0 0 0 0 0 0 0 0 0 0 0 0 0 0 1 0"/>
<feBlend mode="normal" in2="BackgroundImageFix" result="effect1_dropShadow_2081_4321"/>
<feBlend mode="normal" in="SourceGraphic" in2="effect1_dropShadow_2081_4321" result="shape"/>
</filter>
<filter id="filter3_d_2081_4321" x="92.1113" y="64" width="85.8887" height="56" filterUnits="userSpaceOnUse" color-interpolation-filters="sRGB">
<feFlood flood-opacity="0" result="BackgroundImageFix"/>
<feColorMatrix in="SourceAlpha" type="matrix" values="0 0 0 0 0 0 0 0 0 0 0 0 0 0 0 0 0 0 127 0" result="hardAlpha"/>
<feOffset/>
<feComposite in2="hardAlpha" operator="out"/>
<feColorMatrix type="matrix" values="0 0 0 0 0 0 0 0 0 0 0 0 0 0 0 0 0 0 1 0"/>
<feBlend mode="normal" in2="BackgroundImageFix" result="effect1_dropShadow_2081_4321"/>
<feBlend mode="normal" in="SourceGraphic" in2="effect1_dropShadow_2081_4321" result="shape"/>
</filter>
<filter id="filter4_d_2081_4321" x="93.6611" y="65" width="83.3389" height="54" filterUnits="userSpaceOnUse" color-interpolation-filters="sRGB">
<feFlood flood-opacity="0" result="BackgroundImageFix"/>
<feColorMatrix in="SourceAlpha" type="matrix" values="0 0 0 0 0 0 0 0 0 0 0 0 0 0 0 0 0 0 127 0" result="hardAlpha"/>
<feOffset/>
<feComposite in2="hardAlpha" operator="out"/>
<feColorMatrix type="matrix" values="0 0 0 0 0 0 0 0 0 0 0 0 0 0 0 0 0 0 1 0"/>
<feBlend mode="normal" in2="BackgroundImageFix" result="effect1_dropShadow_2081_4321"/>
<feBlend mode="normal" in="SourceGraphic" in2="effect1_dropShadow_2081_4321" result="shape"/>
</filter>
<filter id="filter5_i_2081_4321" x="320" y="215" width="85" height="56" filterUnits="userSpaceOnUse" color-interpolation-filters="sRGB">
<feFlood flood-opacity="0" result="BackgroundImageFix"/>
<feBlend mode="normal" in="SourceGraphic" in2="BackgroundImageFix" result="shape"/>
<feColorMatrix in="SourceAlpha" type="matrix" values="0 0 0 0 0 0 0 0 0 0 0 0 0 0 0 0 0 0 127 0" result="hardAlpha"/>
<feMorphology radius="2" operator="erode" in="SourceAlpha" result="effect1_innerShadow_2081_4321"/>
<feOffset/>
<feComposite in2="hardAlpha" operator="arithmetic" k2="-1" k3="1"/>
<feColorMatrix type="matrix" values="0 0 0 0 0.235294 0 0 0 0 0.235294 0 0 0 0 0.235294 0 0 0 1 0"/>
<feBlend mode="normal" in2="shape" result="effect1_innerShadow_2081_4321"/>
</filter>
<filter id="filter6_i_2081_4321" x="184" y="215" width="85" height="56" filterUnits="userSpaceOnUse" color-interpolation-filters="sRGB">
<feFlood flood-opacity="0" result="BackgroundImageFix"/>
<feBlend mode="normal" in="SourceGraphic" in2="BackgroundImageFix" result="shape"/>
<feColorMatrix in="SourceAlpha" type="matrix" values="0 0 0 0 0 0 0 0 0 0 0 0 0 0 0 0 0 0 127 0" result="hardAlpha"/>
<feMorphology radius="2" operator="erode" in="SourceAlpha" result="effect1_innerShadow_2081_4321"/>
<feOffset/>
<feComposite in2="hardAlpha" operator="arithmetic" k2="-1" k3="1"/>
<feColorMatrix type="matrix" values="0 0 0 0 0.235294 0 0 0 0 0.235294 0 0 0 0 0.235294 0 0 0 1 0"/>
<feBlend mode="normal" in2="shape" result="effect1_innerShadow_2081_4321"/>
</filter>
<filter id="filter7_i_2081_4321" x="48" y="215" width="85" height="56" filterUnits="userSpaceOnUse" color-interpolation-filters="sRGB">
<feFlood flood-opacity="0" result="BackgroundImageFix"/>
<feBlend mode="normal" in="SourceGraphic" in2="BackgroundImageFix" result="shape"/>
<feColorMatrix in="SourceAlpha" type="matrix" values="0 0 0 0 0 0 0 0 0 0 0 0 0 0 0 0 0 0 127 0" result="hardAlpha"/>
<feMorphology radius="2" operator="erode" in="SourceAlpha" result="effect1_innerShadow_2081_4321"/>
<feOffset/>
<feComposite in2="hardAlpha" operator="arithmetic" k2="-1" k3="1"/>
<feColorMatrix type="matrix" values="0 0 0 0 0.235294 0 0 0 0 0.235294 0 0 0 0 0.235294 0 0 0 1 0"/>
<feBlend mode="normal" in2="shape" result="effect1_innerShadow_2081_4321"/>
</filter>
<filter id="filter8_i_2081_4321" x="47" y="314" width="85" height="56" filterUnits="userSpaceOnUse" color-interpolation-filters="sRGB">
<feFlood flood-opacity="0" result="BackgroundImageFix"/>
<feBlend mode="normal" in="SourceGraphic" in2="BackgroundImageFix" result="shape"/>
<feColorMatrix in="SourceAlpha" type="matrix" values="0 0 0 0 0 0 0 0 0 0 0 0 0 0 0 0 0 0 127 0" result="hardAlpha"/>
<feMorphology radius="2" operator="erode" in="SourceAlpha" result="effect1_innerShadow_2081_4321"/>
<feOffset/>
<feComposite in2="hardAlpha" operator="arithmetic" k2="-1" k3="1"/>
<feColorMatrix type="matrix" values="0 0 0 0 0.235294 0 0 0 0 0.235294 0 0 0 0 0.235294 0 0 0 1 0"/>
<feBlend mode="normal" in2="shape" result="effect1_innerShadow_2081_4321"/>
</filter>
<filter id="filter9_i_2081_4321" x="183" y="314" width="85" height="56" filterUnits="userSpaceOnUse" color-interpolation-filters="sRGB">
<feFlood flood-opacity="0" result="BackgroundImageFix"/>
<feBlend mode="normal" in="SourceGraphic" in2="BackgroundImageFix" result="shape"/>
<feColorMatrix in="SourceAlpha" type="matrix" values="0 0 0 0 0 0 0 0 0 0 0 0 0 0 0 0 0 0 127 0" result="hardAlpha"/>
<feMorphology radius="2" operator="erode" in="SourceAlpha" result="effect1_innerShadow_2081_4321"/>
<feOffset/>
<feComposite in2="hardAlpha" operator="arithmetic" k2="-1" k3="1"/>
<feColorMatrix type="matrix" values="0 0 0 0 0.235294 0 0 0 0 0.235294 0 0 0 0 0.235294 0 0 0 1 0"/>
<feBlend mode="normal" in2="shape" result="effect1_innerShadow_2081_4321"/>
</filter>
<filter id="filter10_i_2081_4321" x="319" y="314" width="85" height="56" filterUnits="userSpaceOnUse" color-interpolation-filters="sRGB">
<feFlood flood-opacity="0" result="BackgroundImageFix"/>
<feBlend mode="normal" in="SourceGraphic" in2="BackgroundImageFix" result="shape"/>
<feColorMatrix in="SourceAlpha" type="matrix" values="0 0 0 0 0 0 0 0 0 0 0 0 0 0 0 0 0 0 127 0" result="hardAlpha"/>
<feMorphology radius="2" operator="erode" in="SourceAlpha" result="effect1_innerShadow_2081_4321"/>
<feOffset/>
<feComposite in2="hardAlpha" operator="arithmetic" k2="-1" k3="1"/>
<feColorMatrix type="matrix" values="0 0 0 0 0.235294 0 0 0 0 0.235294 0 0 0 0 0.235294 0 0 0 1 0"/>
<feBlend mode="normal" in2="shape" result="effect1_innerShadow_2081_4321"/>
</filter>
<filter id="filter11_i_2081_4321" x="456" y="314" width="85" height="56" filterUnits="userSpaceOnUse" color-interpolation-filters="sRGB">
<feFlood flood-opacity="0" result="BackgroundImageFix"/>
<feBlend mode="normal" in="SourceGraphic" in2="BackgroundImageFix" result="shape"/>
<feColorMatrix in="SourceAlpha" type="matrix" values="0 0 0 0 0 0 0 0 0 0 0 0 0 0 0 0 0 0 127 0" result="hardAlpha"/>
<feMorphology radius="2" operator="erode" in="SourceAlpha" result="effect1_innerShadow_2081_4321"/>
<feOffset/>
<feComposite in2="hardAlpha" operator="arithmetic" k2="-1" k3="1"/>
<feColorMatrix type="matrix" values="0 0 0 0 0.235294 0 0 0 0 0.235294 0 0 0 0 0.235294 0 0 0 1 0"/>
<feBlend mode="normal" in2="shape" result="effect1_innerShadow_2081_4321"/>
</filter>
<clipPath id="clip0_2081_4321">
<rect width="217" height="176" fill="white" transform="translate(185 20)"/>
</clipPath>
</defs>
</svg>
