<svg width="557" height="222" viewBox="0 0 557 222" fill="none" xmlns="http://www.w3.org/2000/svg">
<g clip-path="url(#clip0_2086_4465)">
<rect y="-200" width="557" height="422" fill="#333333"/>
<rect x="25" y="-191" width="524" height="404" rx="8" fill="#596266"/>
<g filter="url(#filter0_i_2086_4465)">
<rect x="447" y="15" width="85" height="56" rx="9" fill="#6DA9CD"/>
</g>
<rect x="447.5" y="15.5" width="84" height="55" rx="8.5" stroke="#6DA9CD"/>
<path d="M473.14 43.5117H468.758L468.734 41.0977H472.414C473.062 41.0977 473.594 41.0156 474.008 40.8516C474.422 40.6797 474.73 40.4336 474.933 40.1133C475.144 39.7852 475.25 39.3867 475.25 38.918C475.25 38.3867 475.148 37.957 474.945 37.6289C474.75 37.3008 474.441 37.0625 474.019 36.9141C473.605 36.7656 473.07 36.6914 472.414 36.6914H469.976V51H466.461V33.9375H472.414C473.406 33.9375 474.293 34.0312 475.074 34.2188C475.863 34.4062 476.531 34.6914 477.078 35.0742C477.625 35.457 478.043 35.9414 478.332 36.5273C478.621 37.1055 478.765 37.793 478.765 38.5898C478.765 39.293 478.605 39.9414 478.285 40.5352C477.972 41.1289 477.476 41.6133 476.797 41.9883C476.125 42.3633 475.246 42.5703 474.16 42.6094L473.14 43.5117ZM472.988 51H467.797L469.168 48.2578H472.988C473.605 48.2578 474.109 48.1602 474.5 47.9648C474.89 47.7617 475.18 47.4883 475.367 47.1445C475.555 46.8008 475.648 46.4062 475.648 45.9609C475.648 45.4609 475.562 45.0273 475.39 44.6602C475.226 44.293 474.961 44.0117 474.594 43.8164C474.226 43.6133 473.742 43.5117 473.14 43.5117H469.754L469.777 41.0977H473.996L474.805 42.0469C475.844 42.0312 476.68 42.2148 477.312 42.5977C477.953 42.9727 478.418 43.4609 478.707 44.0625C479.004 44.6641 479.152 45.3086 479.152 45.9961C479.152 47.0898 478.914 48.0117 478.437 48.7617C477.961 49.5039 477.262 50.0625 476.34 50.4375C475.426 50.8125 474.308 51 472.988 51ZM486.982 48.1406V42.4922C486.982 42.0859 486.915 41.7383 486.782 41.4492C486.65 41.1523 486.443 40.9219 486.161 40.7578C485.888 40.5938 485.532 40.5117 485.095 40.5117C484.72 40.5117 484.396 40.5781 484.122 40.7109C483.849 40.8359 483.638 41.0195 483.49 41.2617C483.341 41.4961 483.267 41.7734 483.267 42.0938H479.892C479.892 41.5547 480.017 41.043 480.267 40.5586C480.517 40.0742 480.88 39.6484 481.357 39.2812C481.833 38.9062 482.4 38.6133 483.056 38.4023C483.72 38.1914 484.462 38.0859 485.282 38.0859C486.267 38.0859 487.142 38.25 487.907 38.5781C488.673 38.9062 489.275 39.3984 489.712 40.0547C490.157 40.7109 490.38 41.5312 490.38 42.5156V47.9414C490.38 48.6367 490.423 49.207 490.509 49.6523C490.595 50.0898 490.72 50.4727 490.884 50.8008V51H487.474C487.31 50.6562 487.185 50.2266 487.099 49.7109C487.021 49.1875 486.982 48.6641 486.982 48.1406ZM487.427 43.2773L487.45 45.1875H485.564C485.118 45.1875 484.732 45.2383 484.404 45.3398C484.075 45.4414 483.806 45.5859 483.595 45.7734C483.384 45.9531 483.228 46.1641 483.126 46.4062C483.032 46.6484 482.986 46.9141 482.986 47.2031C482.986 47.4922 483.052 47.7539 483.185 47.9883C483.318 48.2148 483.509 48.3945 483.759 48.5273C484.009 48.6523 484.302 48.7148 484.638 48.7148C485.146 48.7148 485.587 48.6133 485.962 48.4102C486.337 48.207 486.626 47.957 486.829 47.6602C487.04 47.3633 487.15 47.082 487.157 46.8164L488.048 48.2461C487.923 48.5664 487.751 48.8984 487.532 49.2422C487.322 49.5859 487.052 49.9102 486.724 50.2148C486.396 50.5117 486.001 50.7578 485.54 50.9531C485.079 51.1406 484.532 51.2344 483.9 51.2344C483.095 51.2344 482.365 51.0742 481.708 50.7539C481.06 50.4258 480.544 49.9766 480.161 49.4062C479.786 48.8281 479.599 48.1719 479.599 47.4375C479.599 46.7734 479.724 46.1836 479.974 45.668C480.224 45.1523 480.591 44.7188 481.075 44.3672C481.568 44.0078 482.181 43.7383 482.915 43.5586C483.65 43.3711 484.501 43.2773 485.47 43.2773H487.427ZM494.846 41.0273V51H491.471V38.3203H494.635L494.846 41.0273ZM494.354 44.2148H493.44C493.44 43.2773 493.561 42.4336 493.803 41.6836C494.046 40.9258 494.385 40.2812 494.823 39.75C495.26 39.2109 495.78 38.8008 496.382 38.5195C496.991 38.2305 497.671 38.0859 498.421 38.0859C499.014 38.0859 499.557 38.1719 500.05 38.3438C500.542 38.5156 500.964 38.7891 501.315 39.1641C501.675 39.5391 501.948 40.0352 502.135 40.6523C502.331 41.2695 502.428 42.0234 502.428 42.9141V51H499.03V42.9023C499.03 42.3398 498.952 41.9023 498.796 41.5898C498.639 41.2773 498.409 41.0586 498.104 40.9336C497.807 40.8008 497.44 40.7344 497.003 40.7344C496.55 40.7344 496.155 40.8242 495.819 41.0039C495.491 41.1836 495.217 41.4336 494.999 41.7539C494.788 42.0664 494.628 42.4336 494.518 42.8555C494.409 43.2773 494.354 43.7305 494.354 44.2148ZM506.93 32.9883V51H503.555V32.9883H506.93ZM514.922 38.3203L509.414 44.6016L506.461 47.5898L505.231 45.1523L507.574 42.1758L510.867 38.3203H514.922ZM511.418 51L507.668 45.1406L510 43.1016L515.309 51H511.418Z" fill="#333333"/>
<g filter="url(#filter1_i_2086_4465)">
<rect x="311" y="15" width="85" height="56" rx="9" fill="#6DA9CD"/>
</g>
<rect x="311.5" y="15.5" width="84" height="55" rx="8.5" stroke="#6DA9CD"/>
<path d="M337.01 46.5352C337.01 46.2305 336.963 45.957 336.87 45.7148C336.784 45.4648 336.62 45.2383 336.377 45.0352C336.135 44.8242 335.795 44.6172 335.358 44.4141C334.92 44.2109 334.354 44 333.659 43.7812C332.885 43.5312 332.151 43.25 331.455 42.9375C330.768 42.625 330.159 42.2617 329.627 41.8477C329.104 41.4258 328.69 40.9375 328.385 40.3828C328.088 39.8281 327.94 39.1836 327.94 38.4492C327.94 37.7383 328.096 37.0938 328.409 36.5156C328.721 35.9297 329.159 35.4297 329.721 35.0156C330.284 34.5938 330.948 34.2695 331.713 34.043C332.487 33.8164 333.334 33.7031 334.256 33.7031C335.514 33.7031 336.612 33.9297 337.549 34.3828C338.487 34.8359 339.213 35.457 339.729 36.2461C340.252 37.0352 340.514 37.9375 340.514 38.9531H337.022C337.022 38.4531 336.916 38.0156 336.705 37.6406C336.502 37.2578 336.19 36.957 335.768 36.7383C335.354 36.5195 334.83 36.4102 334.198 36.4102C333.588 36.4102 333.08 36.5039 332.674 36.6914C332.268 36.8711 331.963 37.1172 331.76 37.4297C331.557 37.7344 331.455 38.0781 331.455 38.4609C331.455 38.75 331.526 39.0117 331.666 39.2461C331.815 39.4805 332.034 39.6992 332.323 39.9023C332.612 40.1055 332.967 40.2969 333.389 40.4766C333.811 40.6562 334.299 40.832 334.854 41.0039C335.784 41.2852 336.6 41.6016 337.303 41.9531C338.014 42.3047 338.608 42.6992 339.084 43.1367C339.561 43.5742 339.92 44.0703 340.163 44.625C340.405 45.1797 340.526 45.8086 340.526 46.5117C340.526 47.2539 340.381 47.918 340.092 48.5039C339.803 49.0898 339.385 49.5859 338.838 49.9922C338.291 50.3984 337.639 50.707 336.881 50.918C336.123 51.1289 335.276 51.2344 334.338 51.2344C333.495 51.2344 332.663 51.125 331.842 50.9062C331.022 50.6797 330.276 50.3398 329.604 49.8867C328.94 49.4336 328.409 48.8555 328.01 48.1523C327.612 47.4492 327.413 46.6172 327.413 45.6562H330.94C330.94 46.1875 331.022 46.6367 331.186 47.0039C331.35 47.3711 331.58 47.668 331.877 47.8945C332.182 48.1211 332.541 48.2852 332.955 48.3867C333.377 48.4883 333.838 48.5391 334.338 48.5391C334.948 48.5391 335.448 48.4531 335.838 48.2812C336.237 48.1094 336.53 47.8711 336.717 47.5664C336.913 47.2617 337.01 46.918 337.01 46.5352ZM346.504 48.5977C346.918 48.5977 347.285 48.5195 347.605 48.3633C347.926 48.1992 348.176 47.9727 348.355 47.6836C348.543 47.3867 348.64 47.0391 348.648 46.6406H351.824C351.816 47.5312 351.578 48.3242 351.109 49.0195C350.64 49.707 350.012 50.25 349.222 50.6484C348.433 51.0391 347.551 51.2344 346.574 51.2344C345.59 51.2344 344.73 51.0703 343.996 50.7422C343.269 50.4141 342.664 49.9609 342.18 49.3828C341.695 48.7969 341.332 48.1172 341.09 47.3438C340.847 46.5625 340.726 45.7266 340.726 44.8359V44.4961C340.726 43.5977 340.847 42.7617 341.09 41.9883C341.332 41.207 341.695 40.5273 342.18 39.9492C342.664 39.3633 343.269 38.9062 343.996 38.5781C344.722 38.25 345.574 38.0859 346.551 38.0859C347.59 38.0859 348.5 38.2852 349.281 38.6836C350.07 39.082 350.687 39.6523 351.133 40.3945C351.586 41.1289 351.816 42 351.824 43.0078H348.648C348.64 42.5859 348.551 42.2031 348.379 41.8594C348.215 41.5156 347.972 41.2422 347.652 41.0391C347.34 40.8281 346.953 40.7227 346.492 40.7227C346 40.7227 345.597 40.8281 345.285 41.0391C344.972 41.2422 344.73 41.5234 344.558 41.8828C344.387 42.2344 344.265 42.6367 344.195 43.0898C344.133 43.5352 344.101 44.0039 344.101 44.4961V44.8359C344.101 45.3281 344.133 45.8008 344.195 46.2539C344.258 46.707 344.375 47.1094 344.547 47.4609C344.726 47.8125 344.972 48.0898 345.285 48.293C345.597 48.4961 346.004 48.5977 346.504 48.5977ZM355.716 41.0859V51H352.341V38.3203H355.517L355.716 41.0859ZM359.536 38.2383L359.478 41.3672C359.314 41.3438 359.115 41.3242 358.88 41.3086C358.654 41.2852 358.447 41.2734 358.259 41.2734C357.783 41.2734 357.368 41.3359 357.017 41.4609C356.673 41.5781 356.384 41.7539 356.15 41.9883C355.923 42.2227 355.751 42.5078 355.634 42.8438C355.525 43.1797 355.462 43.5625 355.447 43.9922L354.767 43.7812C354.767 42.9609 354.849 42.207 355.013 41.5195C355.177 40.8242 355.415 40.2188 355.728 39.7031C356.048 39.1875 356.439 38.7891 356.9 38.5078C357.361 38.2266 357.888 38.0859 358.482 38.0859C358.669 38.0859 358.861 38.1016 359.056 38.1328C359.251 38.1562 359.411 38.1914 359.536 38.2383ZM358.8 44.7891V44.543C358.8 43.6133 358.932 42.7578 359.198 41.9766C359.464 41.1875 359.85 40.5039 360.358 39.9258C360.866 39.3477 361.491 38.8984 362.233 38.5781C362.975 38.25 363.827 38.0859 364.788 38.0859C365.749 38.0859 366.604 38.25 367.354 38.5781C368.104 38.8984 368.733 39.3477 369.241 39.9258C369.757 40.5039 370.147 41.1875 370.413 41.9766C370.678 42.7578 370.811 43.6133 370.811 44.543V44.7891C370.811 45.7109 370.678 46.5664 370.413 47.3555C370.147 48.1367 369.757 48.8203 369.241 49.4062C368.733 49.9844 368.108 50.4336 367.366 50.7539C366.624 51.0742 365.772 51.2344 364.811 51.2344C363.85 51.2344 362.995 51.0742 362.245 50.7539C361.503 50.4336 360.874 49.9844 360.358 49.4062C359.85 48.8203 359.464 48.1367 359.198 47.3555C358.932 46.5664 358.8 45.7109 358.8 44.7891ZM362.175 44.543V44.7891C362.175 45.3203 362.221 45.8164 362.315 46.2773C362.409 46.7383 362.557 47.1445 362.76 47.4961C362.971 47.8398 363.245 48.1094 363.581 48.3047C363.917 48.5 364.327 48.5977 364.811 48.5977C365.28 48.5977 365.682 48.5 366.018 48.3047C366.354 48.1094 366.624 47.8398 366.827 47.4961C367.03 47.1445 367.178 46.7383 367.272 46.2773C367.374 45.8164 367.425 45.3203 367.425 44.7891V44.543C367.425 44.0273 367.374 43.543 367.272 43.0898C367.178 42.6289 367.026 42.2227 366.815 41.8711C366.612 41.5117 366.342 41.2305 366.007 41.0273C365.671 40.8242 365.264 40.7227 364.788 40.7227C364.311 40.7227 363.905 40.8242 363.569 41.0273C363.241 41.2305 362.971 41.5117 362.76 41.8711C362.557 42.2227 362.409 42.6289 362.315 43.0898C362.221 43.543 362.175 44.0273 362.175 44.543ZM375.008 33V51H371.621V33H375.008ZM379.92 33V51H376.533V33H379.92Z" fill="#333333"/>
<g filter="url(#filter2_i_2086_4465)">
<rect x="175" y="15" width="85" height="56" rx="9" fill="#6DA9CD"/>
</g>
<rect x="175.5" y="15.5" width="84" height="55" rx="8.5" stroke="#6DA9CD"/>
<path d="M202.922 48.2578V51H190.828V48.2578H202.922ZM202.746 35.8945L192.387 51H189.914V48.9844L200.355 33.9375H202.746V35.8945ZM201.539 33.9375V36.6914H189.926V33.9375H201.539ZM202.712 44.7891V44.543C202.712 43.6133 202.845 42.7578 203.111 41.9766C203.376 41.1875 203.763 40.5039 204.271 39.9258C204.779 39.3477 205.404 38.8984 206.146 38.5781C206.888 38.25 207.74 38.0859 208.7 38.0859C209.661 38.0859 210.517 38.25 211.267 38.5781C212.017 38.8984 212.646 39.3477 213.154 39.9258C213.669 40.5039 214.06 41.1875 214.325 41.9766C214.591 42.7578 214.724 43.6133 214.724 44.543V44.7891C214.724 45.7109 214.591 46.5664 214.325 47.3555C214.06 48.1367 213.669 48.8203 213.154 49.4062C212.646 49.9844 212.021 50.4336 211.279 50.7539C210.536 51.0742 209.685 51.2344 208.724 51.2344C207.763 51.2344 206.907 51.0742 206.157 50.7539C205.415 50.4336 204.786 49.9844 204.271 49.4062C203.763 48.8203 203.376 48.1367 203.111 47.3555C202.845 46.5664 202.712 45.7109 202.712 44.7891ZM206.087 44.543V44.7891C206.087 45.3203 206.134 45.8164 206.228 46.2773C206.322 46.7383 206.47 47.1445 206.673 47.4961C206.884 47.8398 207.157 48.1094 207.493 48.3047C207.829 48.5 208.24 48.5977 208.724 48.5977C209.193 48.5977 209.595 48.5 209.931 48.3047C210.267 48.1094 210.536 47.8398 210.74 47.4961C210.943 47.1445 211.091 46.7383 211.185 46.2773C211.286 45.8164 211.337 45.3203 211.337 44.7891V44.543C211.337 44.0273 211.286 43.543 211.185 43.0898C211.091 42.6289 210.939 42.2227 210.728 41.8711C210.525 41.5117 210.255 41.2305 209.919 41.0273C209.583 40.8242 209.177 40.7227 208.7 40.7227C208.224 40.7227 207.818 40.8242 207.482 41.0273C207.154 41.2305 206.884 41.5117 206.673 41.8711C206.47 42.2227 206.322 42.6289 206.228 43.0898C206.134 43.543 206.087 44.0273 206.087 44.543ZM214.819 44.7891V44.543C214.819 43.6133 214.952 42.7578 215.217 41.9766C215.483 41.1875 215.87 40.5039 216.378 39.9258C216.885 39.3477 217.51 38.8984 218.253 38.5781C218.995 38.25 219.846 38.0859 220.807 38.0859C221.768 38.0859 222.624 38.25 223.374 38.5781C224.124 38.8984 224.753 39.3477 225.26 39.9258C225.776 40.5039 226.167 41.1875 226.432 41.9766C226.698 42.7578 226.831 43.6133 226.831 44.543V44.7891C226.831 45.7109 226.698 46.5664 226.432 47.3555C226.167 48.1367 225.776 48.8203 225.26 49.4062C224.753 49.9844 224.128 50.4336 223.385 50.7539C222.643 51.0742 221.792 51.2344 220.831 51.2344C219.87 51.2344 219.014 51.0742 218.264 50.7539C217.522 50.4336 216.893 49.9844 216.378 49.4062C215.87 48.8203 215.483 48.1367 215.217 47.3555C214.952 46.5664 214.819 45.7109 214.819 44.7891ZM218.194 44.543V44.7891C218.194 45.3203 218.241 45.8164 218.335 46.2773C218.428 46.7383 218.577 47.1445 218.78 47.4961C218.991 47.8398 219.264 48.1094 219.6 48.3047C219.936 48.5 220.346 48.5977 220.831 48.5977C221.3 48.5977 221.702 48.5 222.038 48.3047C222.374 48.1094 222.643 47.8398 222.846 47.4961C223.05 47.1445 223.198 46.7383 223.292 46.2773C223.393 45.8164 223.444 45.3203 223.444 44.7891V44.543C223.444 44.0273 223.393 43.543 223.292 43.0898C223.198 42.6289 223.046 42.2227 222.835 41.8711C222.632 41.5117 222.362 41.2305 222.026 41.0273C221.69 40.8242 221.284 40.7227 220.807 40.7227C220.331 40.7227 219.925 40.8242 219.589 41.0273C219.26 41.2305 218.991 41.5117 218.78 41.8711C218.577 42.2227 218.428 42.6289 218.335 43.0898C218.241 43.543 218.194 44.0273 218.194 44.543ZM230.84 40.9453V51H227.453V38.3203H230.629L230.84 40.9453ZM230.371 44.2148H229.434C229.434 43.332 229.539 42.5195 229.75 41.7773C229.969 41.0273 230.285 40.3789 230.699 39.832C231.121 39.2773 231.641 38.8477 232.258 38.543C232.875 38.2383 233.59 38.0859 234.403 38.0859C234.965 38.0859 235.481 38.1719 235.949 38.3438C236.418 38.5078 236.82 38.7695 237.156 39.1289C237.5 39.4805 237.766 39.9414 237.953 40.5117C238.141 41.0742 238.235 41.75 238.235 42.5391V51H234.86V42.9141C234.86 42.3359 234.781 41.8906 234.625 41.5781C234.469 41.2656 234.246 41.0469 233.957 40.9219C233.676 40.7969 233.336 40.7344 232.938 40.7344C232.5 40.7344 232.117 40.8242 231.789 41.0039C231.469 41.1836 231.203 41.4336 230.992 41.7539C230.781 42.0664 230.625 42.4336 230.524 42.8555C230.422 43.2773 230.371 43.7305 230.371 44.2148ZM237.918 43.8281L236.711 43.9805C236.711 43.1523 236.813 42.3828 237.016 41.6719C237.227 40.9609 237.535 40.3359 237.942 39.7969C238.356 39.2578 238.867 38.8398 239.477 38.543C240.086 38.2383 240.789 38.0859 241.586 38.0859C242.195 38.0859 242.75 38.1758 243.25 38.3555C243.75 38.5273 244.176 38.8047 244.528 39.1875C244.887 39.5625 245.16 40.0547 245.348 40.6641C245.543 41.2734 245.641 42.0195 245.641 42.9023V51H242.254V42.9023C242.254 42.3164 242.176 41.8711 242.02 41.5664C241.871 41.2539 241.653 41.0391 241.363 40.9219C241.082 40.7969 240.746 40.7344 240.356 40.7344C239.949 40.7344 239.594 40.8164 239.289 40.9805C238.985 41.1367 238.731 41.3555 238.528 41.6367C238.324 41.918 238.172 42.2461 238.07 42.6211C237.969 42.9883 237.918 43.3906 237.918 43.8281Z" fill="#333333"/>
<g filter="url(#filter3_i_2086_4465)">
<rect x="39" y="15" width="85" height="56" rx="9" fill="#6DA9CD"/>
</g>
<rect x="39.5" y="15.5" width="84" height="55" rx="8.5" stroke="#6DA9CD"/>
<path d="M53.6247 45.3398H57.1286C57.0583 46.4883 56.7419 47.5078 56.1794 48.3984C55.6247 49.2891 54.8473 49.9844 53.8473 50.4844C52.8552 50.9844 51.6598 51.2344 50.2614 51.2344C49.1677 51.2344 48.1872 51.0469 47.32 50.6719C46.4528 50.2891 45.7106 49.7422 45.0934 49.0312C44.4841 48.3203 44.0192 47.4609 43.6989 46.4531C43.3786 45.4453 43.2184 44.3164 43.2184 43.0664V41.8828C43.2184 40.6328 43.3825 39.5039 43.7106 38.4961C44.0466 37.4805 44.5231 36.6172 45.1403 35.9062C45.7653 35.1953 46.5114 34.6484 47.3786 34.2656C48.2458 33.8828 49.2145 33.6914 50.2848 33.6914C51.7067 33.6914 52.9059 33.9492 53.8825 34.4648C54.8669 34.9805 55.6286 35.6914 56.1677 36.5977C56.7145 37.5039 57.0427 38.5352 57.152 39.6914H53.6364C53.5973 39.0039 53.4606 38.4219 53.2262 37.9453C52.9919 37.4609 52.6364 37.0977 52.1598 36.8555C51.6911 36.6055 51.0661 36.4805 50.2848 36.4805C49.6989 36.4805 49.1872 36.5898 48.7497 36.8086C48.3122 37.0273 47.945 37.3594 47.6481 37.8047C47.3512 38.25 47.1286 38.8125 46.9802 39.4922C46.8395 40.1641 46.7692 40.9531 46.7692 41.8594V43.0664C46.7692 43.9492 46.8356 44.7266 46.9684 45.3984C47.1012 46.0625 47.3044 46.625 47.5778 47.0859C47.8591 47.5391 48.2184 47.8828 48.6559 48.1172C49.1012 48.3438 49.6364 48.457 50.2614 48.457C50.9958 48.457 51.6012 48.3398 52.0778 48.1055C52.5544 47.8711 52.9177 47.5234 53.1677 47.0625C53.4255 46.6016 53.5778 46.0273 53.6247 45.3398ZM61.0792 33V51H57.7042V33H61.0792ZM60.5987 44.2148H59.673C59.6808 43.332 59.798 42.5195 60.0245 41.7773C60.2511 41.0273 60.5753 40.3789 60.9972 39.832C61.4191 39.2773 61.923 38.8477 62.5089 38.543C63.1027 38.2383 63.7589 38.0859 64.4777 38.0859C65.1027 38.0859 65.6691 38.1758 66.1769 38.3555C66.6925 38.5273 67.1339 38.8086 67.5011 39.1992C67.8761 39.582 68.1652 40.0859 68.3683 40.7109C68.5714 41.3359 68.673 42.0938 68.673 42.9844V51H65.2745V42.9609C65.2745 42.3984 65.1925 41.957 65.0284 41.6367C64.8722 41.3086 64.6417 41.0781 64.337 40.9453C64.0402 40.8047 63.673 40.7344 63.2355 40.7344C62.7511 40.7344 62.337 40.8242 61.9933 41.0039C61.6573 41.1836 61.3878 41.4336 61.1847 41.7539C60.9816 42.0664 60.8331 42.4336 60.7394 42.8555C60.6456 43.2773 60.5987 43.7305 60.5987 44.2148ZM76.6431 48.1406V42.4922C76.6431 42.0859 76.5767 41.7383 76.4439 41.4492C76.3111 41.1523 76.1041 40.9219 75.8228 40.7578C75.5494 40.5938 75.1939 40.5117 74.7564 40.5117C74.3814 40.5117 74.0572 40.5781 73.7837 40.7109C73.5103 40.8359 73.2994 41.0195 73.1509 41.2617C73.0025 41.4961 72.9283 41.7734 72.9283 42.0938H69.5533C69.5533 41.5547 69.6783 41.043 69.9283 40.5586C70.1783 40.0742 70.5416 39.6484 71.0181 39.2812C71.4947 38.9062 72.0611 38.6133 72.7173 38.4023C73.3814 38.1914 74.1236 38.0859 74.9439 38.0859C75.9283 38.0859 76.8033 38.25 77.5689 38.5781C78.3345 38.9062 78.9361 39.3984 79.3736 40.0547C79.8189 40.7109 80.0416 41.5312 80.0416 42.5156V47.9414C80.0416 48.6367 80.0845 49.207 80.1705 49.6523C80.2564 50.0898 80.3814 50.4727 80.5455 50.8008V51H77.1353C76.9712 50.6562 76.8462 50.2266 76.7603 49.7109C76.6822 49.1875 76.6431 48.6641 76.6431 48.1406ZM77.0884 43.2773L77.1119 45.1875H75.2252C74.7798 45.1875 74.3931 45.2383 74.065 45.3398C73.7369 45.4414 73.4673 45.5859 73.2564 45.7734C73.0455 45.9531 72.8892 46.1641 72.7877 46.4062C72.6939 46.6484 72.647 46.9141 72.647 47.2031C72.647 47.4922 72.7134 47.7539 72.8462 47.9883C72.9791 48.2148 73.1705 48.3945 73.4205 48.5273C73.6705 48.6523 73.9634 48.7148 74.2994 48.7148C74.8072 48.7148 75.2486 48.6133 75.6236 48.4102C75.9986 48.207 76.2877 47.957 76.4908 47.6602C76.7017 47.3633 76.8111 47.082 76.8189 46.8164L77.7095 48.2461C77.5845 48.5664 77.4127 48.8984 77.1939 49.2422C76.983 49.5859 76.7134 49.9102 76.3853 50.2148C76.0572 50.5117 75.6627 50.7578 75.2017 50.9531C74.7408 51.1406 74.1939 51.2344 73.5611 51.2344C72.7564 51.2344 72.0259 51.0742 71.3697 50.7539C70.7212 50.4258 70.2056 49.9766 69.8228 49.4062C69.4478 48.8281 69.2603 48.1719 69.2603 47.4375C69.2603 46.7734 69.3853 46.1836 69.6353 45.668C69.8853 45.1523 70.2525 44.7188 70.7369 44.3672C71.2291 44.0078 71.8423 43.7383 72.5767 43.5586C73.3111 43.3711 74.1627 43.2773 75.1314 43.2773H77.0884ZM84.5078 41.0273V51H81.1328V38.3203H84.2969L84.5078 41.0273ZM84.0156 44.2148H83.1016C83.1016 43.2773 83.2227 42.4336 83.4648 41.6836C83.707 40.9258 84.0469 40.2812 84.4844 39.75C84.9219 39.2109 85.4414 38.8008 86.043 38.5195C86.6523 38.2305 87.332 38.0859 88.082 38.0859C88.6758 38.0859 89.2188 38.1719 89.7109 38.3438C90.2031 38.5156 90.625 38.7891 90.9766 39.1641C91.3359 39.5391 91.6094 40.0352 91.7969 40.6523C91.9922 41.2695 92.0898 42.0234 92.0898 42.9141V51H88.6914V42.9023C88.6914 42.3398 88.6133 41.9023 88.457 41.5898C88.3008 41.2773 88.0703 41.0586 87.7656 40.9336C87.4688 40.8008 87.1016 40.7344 86.6641 40.7344C86.2109 40.7344 85.8164 40.8242 85.4805 41.0039C85.1523 41.1836 84.8789 41.4336 84.6602 41.7539C84.4492 42.0664 84.2891 42.4336 84.1797 42.8555C84.0703 43.2773 84.0156 43.7305 84.0156 44.2148ZM96.5209 41.0273V51H93.1459V38.3203H96.31L96.5209 41.0273ZM96.0287 44.2148H95.1147C95.1147 43.2773 95.2358 42.4336 95.478 41.6836C95.7202 40.9258 96.06 40.2812 96.4975 39.75C96.935 39.2109 97.4545 38.8008 98.0561 38.5195C98.6655 38.2305 99.3452 38.0859 100.095 38.0859C100.689 38.0859 101.232 38.1719 101.724 38.3438C102.216 38.5156 102.638 38.7891 102.99 39.1641C103.349 39.5391 103.622 40.0352 103.81 40.6523C104.005 41.2695 104.103 42.0234 104.103 42.9141V51H100.705V42.9023C100.705 42.3398 100.626 41.9023 100.47 41.5898C100.314 41.2773 100.083 41.0586 99.7787 40.9336C99.4819 40.8008 99.1147 40.7344 98.6772 40.7344C98.2241 40.7344 97.8295 40.8242 97.4936 41.0039C97.1655 41.1836 96.892 41.4336 96.6733 41.7539C96.4623 42.0664 96.3022 42.4336 96.1928 42.8555C96.0834 43.2773 96.0287 43.7305 96.0287 44.2148ZM111.065 51.2344C110.081 51.2344 109.198 51.0781 108.417 50.7656C107.636 50.4453 106.972 50.0039 106.425 49.4414C105.886 48.8789 105.472 48.2266 105.182 47.4844C104.893 46.7344 104.749 45.9375 104.749 45.0938V44.625C104.749 43.6641 104.886 42.7852 105.159 41.9883C105.432 41.1914 105.823 40.5 106.331 39.9141C106.847 39.3281 107.472 38.8789 108.206 38.5664C108.94 38.2461 109.768 38.0859 110.69 38.0859C111.589 38.0859 112.386 38.2344 113.081 38.5312C113.776 38.8281 114.358 39.25 114.827 39.7969C115.304 40.3438 115.663 41 115.905 41.7656C116.147 42.5234 116.268 43.3672 116.268 44.2969V45.7031H106.19V43.4531H112.952V43.1953C112.952 42.7266 112.866 42.3086 112.694 41.9414C112.53 41.5664 112.28 41.2695 111.944 41.0508C111.608 40.832 111.179 40.7227 110.655 40.7227C110.21 40.7227 109.827 40.8203 109.507 41.0156C109.186 41.2109 108.925 41.4844 108.722 41.8359C108.526 42.1875 108.378 42.6016 108.276 43.0781C108.182 43.5469 108.136 44.0625 108.136 44.625V45.0938C108.136 45.6016 108.206 46.0703 108.347 46.5C108.495 46.9297 108.702 47.3008 108.968 47.6133C109.241 47.9258 109.569 48.168 109.952 48.3398C110.343 48.5117 110.784 48.5977 111.276 48.5977C111.886 48.5977 112.452 48.4805 112.975 48.2461C113.507 48.0039 113.964 47.6406 114.347 47.1562L115.987 48.9375C115.722 49.3203 115.358 49.6875 114.897 50.0391C114.444 50.3906 113.897 50.6797 113.257 50.9062C112.616 51.125 111.886 51.2344 111.065 51.2344ZM120.313 33V51H116.926V33H120.313Z" fill="#333333"/>
<g filter="url(#filter4_i_2086_4465)">
<rect x="38" y="114" width="85" height="56" rx="9" fill="#D7A55A"/>
</g>
<rect x="38.5" y="114.5" width="84" height="55" rx="8.5" stroke="#D7A55A"/>
<path d="M49.6898 132.938H52.6664L57.0492 145.465L61.432 132.938H64.4086L58.2445 150H55.8539L49.6898 132.938ZM48.0844 132.938H51.0492L51.5883 145.148V150H48.0844V132.938ZM63.0492 132.938H66.0258V150H62.5102V145.148L63.0492 132.938ZM74.3006 147.141V141.492C74.3006 141.086 74.2342 140.738 74.1014 140.449C73.9686 140.152 73.7616 139.922 73.4803 139.758C73.2069 139.594 72.8514 139.512 72.4139 139.512C72.0389 139.512 71.7147 139.578 71.4412 139.711C71.1678 139.836 70.9569 140.02 70.8084 140.262C70.66 140.496 70.5858 140.773 70.5858 141.094H67.2108C67.2108 140.555 67.3358 140.043 67.5858 139.559C67.8358 139.074 68.1991 138.648 68.6756 138.281C69.1522 137.906 69.7186 137.613 70.3748 137.402C71.0389 137.191 71.7811 137.086 72.6014 137.086C73.5858 137.086 74.4608 137.25 75.2264 137.578C75.992 137.906 76.5936 138.398 77.0311 139.055C77.4764 139.711 77.6991 140.531 77.6991 141.516V146.941C77.6991 147.637 77.742 148.207 77.828 148.652C77.9139 149.09 78.0389 149.473 78.203 149.801V150H74.7928C74.6287 149.656 74.5037 149.227 74.4178 148.711C74.3397 148.188 74.3006 147.664 74.3006 147.141ZM74.7459 142.277L74.7694 144.188H72.8827C72.4373 144.188 72.0506 144.238 71.7225 144.34C71.3944 144.441 71.1248 144.586 70.9139 144.773C70.703 144.953 70.5467 145.164 70.4452 145.406C70.3514 145.648 70.3045 145.914 70.3045 146.203C70.3045 146.492 70.3709 146.754 70.5037 146.988C70.6366 147.215 70.828 147.395 71.078 147.527C71.328 147.652 71.6209 147.715 71.9569 147.715C72.4647 147.715 72.9061 147.613 73.2811 147.41C73.6561 147.207 73.9452 146.957 74.1483 146.66C74.3592 146.363 74.4686 146.082 74.4764 145.816L75.367 147.246C75.242 147.566 75.0702 147.898 74.8514 148.242C74.6405 148.586 74.3709 148.91 74.0428 149.215C73.7147 149.512 73.3202 149.758 72.8592 149.953C72.3983 150.141 71.8514 150.234 71.2186 150.234C70.4139 150.234 69.6834 150.074 69.0272 149.754C68.3787 149.426 67.8631 148.977 67.4803 148.406C67.1053 147.828 66.9178 147.172 66.9178 146.438C66.9178 145.773 67.0428 145.184 67.2928 144.668C67.5428 144.152 67.91 143.719 68.3944 143.367C68.8866 143.008 69.4998 142.738 70.2342 142.559C70.9686 142.371 71.8202 142.277 72.7889 142.277H74.7459ZM85.7161 146.496C85.7161 146.254 85.6458 146.035 85.5052 145.84C85.3645 145.645 85.1028 145.465 84.72 145.301C84.345 145.129 83.802 144.973 83.0911 144.832C82.4505 144.691 81.8528 144.516 81.2981 144.305C80.7512 144.086 80.2747 143.824 79.8684 143.52C79.47 143.215 79.1575 142.855 78.9309 142.441C78.7044 142.02 78.5911 141.539 78.5911 141C78.5911 140.469 78.7044 139.969 78.9309 139.5C79.1653 139.031 79.4973 138.617 79.927 138.258C80.3645 137.891 80.8958 137.605 81.5208 137.402C82.1536 137.191 82.8645 137.086 83.6536 137.086C84.7552 137.086 85.7005 137.262 86.4895 137.613C87.2864 137.965 87.8958 138.449 88.3177 139.066C88.7473 139.676 88.9622 140.371 88.9622 141.152H85.5872C85.5872 140.824 85.5169 140.531 85.3762 140.273C85.2434 140.008 85.0325 139.801 84.7434 139.652C84.4622 139.496 84.095 139.418 83.6419 139.418C83.2669 139.418 82.9427 139.484 82.6692 139.617C82.3958 139.742 82.1848 139.914 82.0364 140.133C81.8958 140.344 81.8255 140.578 81.8255 140.836C81.8255 141.031 81.8645 141.207 81.9427 141.363C82.0286 141.512 82.1653 141.648 82.3528 141.773C82.5403 141.898 82.7825 142.016 83.0794 142.125C83.3841 142.227 83.7591 142.32 84.2044 142.406C85.1184 142.594 85.9348 142.84 86.6536 143.145C87.3723 143.441 87.9427 143.848 88.3645 144.363C88.7864 144.871 88.9973 145.539 88.9973 146.367C88.9973 146.93 88.8723 147.445 88.6223 147.914C88.3723 148.383 88.013 148.793 87.5442 149.145C87.0755 149.488 86.513 149.758 85.8567 149.953C85.2083 150.141 84.4778 150.234 83.6653 150.234C82.4856 150.234 81.4856 150.023 80.6653 149.602C79.8528 149.18 79.2356 148.645 78.8137 147.996C78.3997 147.34 78.1927 146.668 78.1927 145.98H81.3919C81.4075 146.441 81.5247 146.812 81.7434 147.094C81.97 147.375 82.2552 147.578 82.5989 147.703C82.9505 147.828 83.3294 147.891 83.7356 147.891C84.1731 147.891 84.5364 147.832 84.8255 147.715C85.1145 147.59 85.3333 147.426 85.4817 147.223C85.638 147.012 85.7161 146.77 85.7161 146.496ZM95.9597 137.32V139.711H88.5769V137.32H95.9597ZM90.405 134.191H93.78V146.18C93.78 146.547 93.8269 146.828 93.9206 147.023C94.0222 147.219 94.1706 147.355 94.3659 147.434C94.5612 147.504 94.8073 147.539 95.1042 147.539C95.3152 147.539 95.5027 147.531 95.6667 147.516C95.8386 147.492 95.9831 147.469 96.1003 147.445L96.112 149.93C95.823 150.023 95.5105 150.098 95.1745 150.152C94.8386 150.207 94.4675 150.234 94.0612 150.234C93.3191 150.234 92.6706 150.113 92.1159 149.871C91.5691 149.621 91.1472 149.223 90.8503 148.676C90.5534 148.129 90.405 147.41 90.405 146.52V134.191ZM102.277 150.234C101.293 150.234 100.41 150.078 99.6291 149.766C98.8478 149.445 98.1837 149.004 97.6369 148.441C97.0978 147.879 96.6837 147.227 96.3947 146.484C96.1056 145.734 95.9611 144.938 95.9611 144.094V143.625C95.9611 142.664 96.0978 141.785 96.3712 140.988C96.6447 140.191 97.0353 139.5 97.5431 138.914C98.0587 138.328 98.6837 137.879 99.4181 137.566C100.152 137.246 100.981 137.086 101.902 137.086C102.801 137.086 103.598 137.234 104.293 137.531C104.988 137.828 105.57 138.25 106.039 138.797C106.516 139.344 106.875 140 107.117 140.766C107.36 141.523 107.481 142.367 107.481 143.297V144.703H97.4025V142.453H104.164V142.195C104.164 141.727 104.078 141.309 103.906 140.941C103.742 140.566 103.492 140.27 103.156 140.051C102.82 139.832 102.391 139.723 101.867 139.723C101.422 139.723 101.039 139.82 100.719 140.016C100.399 140.211 100.137 140.484 99.9337 140.836C99.7384 141.188 99.59 141.602 99.4884 142.078C99.3947 142.547 99.3478 143.062 99.3478 143.625V144.094C99.3478 144.602 99.4181 145.07 99.5587 145.5C99.7072 145.93 99.9142 146.301 100.18 146.613C100.453 146.926 100.781 147.168 101.164 147.34C101.555 147.512 101.996 147.598 102.488 147.598C103.098 147.598 103.664 147.48 104.188 147.246C104.719 147.004 105.176 146.641 105.559 146.156L107.199 147.938C106.934 148.32 106.57 148.688 106.11 149.039C105.656 149.391 105.11 149.68 104.469 149.906C103.828 150.125 103.098 150.234 102.277 150.234ZM111.337 140.086V150H107.962V137.32H111.138L111.337 140.086ZM115.158 137.238L115.099 140.367C114.935 140.344 114.736 140.324 114.502 140.309C114.275 140.285 114.068 140.273 113.88 140.273C113.404 140.273 112.99 140.336 112.638 140.461C112.295 140.578 112.005 140.754 111.771 140.988C111.545 141.223 111.373 141.508 111.255 141.844C111.146 142.18 111.084 142.562 111.068 142.992L110.388 142.781C110.388 141.961 110.47 141.207 110.634 140.52C110.798 139.824 111.037 139.219 111.349 138.703C111.67 138.188 112.06 137.789 112.521 137.508C112.982 137.227 113.509 137.086 114.103 137.086C114.291 137.086 114.482 137.102 114.677 137.133C114.873 137.156 115.033 137.191 115.158 137.238Z" fill="#333333"/>
<g filter="url(#filter5_i_2086_4465)">
<rect x="174" y="114" width="85" height="56" rx="9" fill="#CC594F"/>
</g>
<rect x="174.5" y="114.5" width="84" height="55" rx="8.5" stroke="#CC594F"/>
<path d="M204.423 144.34H207.927C207.857 145.488 207.54 146.508 206.978 147.398C206.423 148.289 205.646 148.984 204.646 149.484C203.653 149.984 202.458 150.234 201.06 150.234C199.966 150.234 198.985 150.047 198.118 149.672C197.251 149.289 196.509 148.742 195.892 148.031C195.282 147.32 194.818 146.461 194.497 145.453C194.177 144.445 194.017 143.316 194.017 142.066V140.883C194.017 139.633 194.181 138.504 194.509 137.496C194.845 136.48 195.321 135.617 195.939 134.906C196.564 134.195 197.31 133.648 198.177 133.266C199.044 132.883 200.013 132.691 201.083 132.691C202.505 132.691 203.704 132.949 204.681 133.465C205.665 133.98 206.427 134.691 206.966 135.598C207.513 136.504 207.841 137.535 207.95 138.691H204.435C204.396 138.004 204.259 137.422 204.025 136.945C203.79 136.461 203.435 136.098 202.958 135.855C202.489 135.605 201.864 135.48 201.083 135.48C200.497 135.48 199.985 135.59 199.548 135.809C199.11 136.027 198.743 136.359 198.446 136.805C198.15 137.25 197.927 137.812 197.778 138.492C197.638 139.164 197.568 139.953 197.568 140.859V142.066C197.568 142.949 197.634 143.727 197.767 144.398C197.9 145.062 198.103 145.625 198.376 146.086C198.657 146.539 199.017 146.883 199.454 147.117C199.9 147.344 200.435 147.457 201.06 147.457C201.794 147.457 202.4 147.34 202.876 147.105C203.353 146.871 203.716 146.523 203.966 146.062C204.224 145.602 204.376 145.027 204.423 144.34ZM212.147 132V150H208.76V132H212.147ZM217.059 137.32V150H213.672V137.32H217.059ZM213.461 134.016C213.461 133.523 213.633 133.117 213.977 132.797C214.32 132.477 214.781 132.316 215.359 132.316C215.93 132.316 216.387 132.477 216.73 132.797C217.082 133.117 217.258 133.523 217.258 134.016C217.258 134.508 217.082 134.914 216.73 135.234C216.387 135.555 215.93 135.715 215.359 135.715C214.781 135.715 214.32 135.555 213.977 135.234C213.633 134.914 213.461 134.508 213.461 134.016ZM223.646 147.598C224.06 147.598 224.427 147.52 224.748 147.363C225.068 147.199 225.318 146.973 225.498 146.684C225.685 146.387 225.783 146.039 225.79 145.641H228.966C228.958 146.531 228.72 147.324 228.251 148.02C227.783 148.707 227.154 149.25 226.365 149.648C225.576 150.039 224.693 150.234 223.716 150.234C222.732 150.234 221.873 150.07 221.138 149.742C220.412 149.414 219.806 148.961 219.322 148.383C218.837 147.797 218.474 147.117 218.232 146.344C217.99 145.562 217.869 144.727 217.869 143.836V143.496C217.869 142.598 217.99 141.762 218.232 140.988C218.474 140.207 218.837 139.527 219.322 138.949C219.806 138.363 220.412 137.906 221.138 137.578C221.865 137.25 222.716 137.086 223.693 137.086C224.732 137.086 225.642 137.285 226.423 137.684C227.212 138.082 227.83 138.652 228.275 139.395C228.728 140.129 228.958 141 228.966 142.008H225.79C225.783 141.586 225.693 141.203 225.521 140.859C225.357 140.516 225.115 140.242 224.794 140.039C224.482 139.828 224.095 139.723 223.634 139.723C223.142 139.723 222.74 139.828 222.427 140.039C222.115 140.242 221.873 140.523 221.701 140.883C221.529 141.234 221.408 141.637 221.337 142.09C221.275 142.535 221.244 143.004 221.244 143.496V143.836C221.244 144.328 221.275 144.801 221.337 145.254C221.4 145.707 221.517 146.109 221.689 146.461C221.869 146.812 222.115 147.09 222.427 147.293C222.74 147.496 223.146 147.598 223.646 147.598ZM232.858 131.988V150H229.483V131.988H232.858ZM240.85 137.32L235.343 143.602L232.39 146.59L231.159 144.152L233.503 141.176L236.796 137.32H240.85ZM237.347 150L233.597 144.141L235.929 142.102L241.237 150H237.347Z" fill="#333333"/>
<g filter="url(#filter6_i_2086_4465)">
<rect x="310" y="114" width="85" height="56" rx="9" fill="#81BA75"/>
</g>
<rect x="310.5" y="114.5" width="84" height="55" rx="8.5" stroke="#81BA75"/>
<path d="M326.851 145.535C326.851 145.23 326.804 144.957 326.711 144.715C326.625 144.465 326.461 144.238 326.218 144.035C325.976 143.824 325.636 143.617 325.199 143.414C324.761 143.211 324.195 143 323.5 142.781C322.726 142.531 321.992 142.25 321.297 141.938C320.609 141.625 320 141.262 319.468 140.848C318.945 140.426 318.531 139.938 318.226 139.383C317.929 138.828 317.781 138.184 317.781 137.449C317.781 136.738 317.937 136.094 318.25 135.516C318.562 134.93 319 134.43 319.562 134.016C320.125 133.594 320.789 133.27 321.554 133.043C322.328 132.816 323.175 132.703 324.097 132.703C325.355 132.703 326.453 132.93 327.39 133.383C328.328 133.836 329.054 134.457 329.57 135.246C330.093 136.035 330.355 136.938 330.355 137.953H326.863C326.863 137.453 326.757 137.016 326.547 136.641C326.343 136.258 326.031 135.957 325.609 135.738C325.195 135.52 324.672 135.41 324.039 135.41C323.429 135.41 322.922 135.504 322.515 135.691C322.109 135.871 321.804 136.117 321.601 136.43C321.398 136.734 321.297 137.078 321.297 137.461C321.297 137.75 321.367 138.012 321.507 138.246C321.656 138.48 321.875 138.699 322.164 138.902C322.453 139.105 322.808 139.297 323.23 139.477C323.652 139.656 324.14 139.832 324.695 140.004C325.625 140.285 326.441 140.602 327.144 140.953C327.855 141.305 328.449 141.699 328.925 142.137C329.402 142.574 329.761 143.07 330.004 143.625C330.246 144.18 330.367 144.809 330.367 145.512C330.367 146.254 330.222 146.918 329.933 147.504C329.644 148.09 329.226 148.586 328.679 148.992C328.132 149.398 327.48 149.707 326.722 149.918C325.965 150.129 325.117 150.234 324.179 150.234C323.336 150.234 322.504 150.125 321.683 149.906C320.863 149.68 320.117 149.34 319.445 148.887C318.781 148.434 318.25 147.855 317.851 147.152C317.453 146.449 317.254 145.617 317.254 144.656H320.781C320.781 145.188 320.863 145.637 321.027 146.004C321.191 146.371 321.422 146.668 321.718 146.895C322.023 147.121 322.382 147.285 322.797 147.387C323.218 147.488 323.679 147.539 324.179 147.539C324.789 147.539 325.289 147.453 325.679 147.281C326.078 147.109 326.371 146.871 326.558 146.566C326.754 146.262 326.851 145.918 326.851 145.535ZM336.942 150.234C335.958 150.234 335.075 150.078 334.294 149.766C333.513 149.445 332.849 149.004 332.302 148.441C331.763 147.879 331.349 147.227 331.06 146.484C330.771 145.734 330.626 144.938 330.626 144.094V143.625C330.626 142.664 330.763 141.785 331.036 140.988C331.31 140.191 331.7 139.5 332.208 138.914C332.724 138.328 333.349 137.879 334.083 137.566C334.817 137.246 335.646 137.086 336.567 137.086C337.466 137.086 338.263 137.234 338.958 137.531C339.653 137.828 340.235 138.25 340.704 138.797C341.181 139.344 341.54 140 341.782 140.766C342.025 141.523 342.146 142.367 342.146 143.297V144.703H332.067V142.453H338.829V142.195C338.829 141.727 338.743 141.309 338.571 140.941C338.407 140.566 338.157 140.27 337.821 140.051C337.485 139.832 337.056 139.723 336.532 139.723C336.087 139.723 335.704 139.82 335.384 140.016C335.064 140.211 334.802 140.484 334.599 140.836C334.403 141.188 334.255 141.602 334.153 142.078C334.06 142.547 334.013 143.062 334.013 143.625V144.094C334.013 144.602 334.083 145.07 334.224 145.5C334.372 145.93 334.579 146.301 334.845 146.613C335.118 146.926 335.446 147.168 335.829 147.34C336.22 147.512 336.661 147.598 337.153 147.598C337.763 147.598 338.329 147.48 338.853 147.246C339.384 147.004 339.841 146.641 340.224 146.156L341.864 147.938C341.599 148.32 341.235 148.688 340.775 149.039C340.321 149.391 339.775 149.68 339.134 149.906C338.493 150.125 337.763 150.234 336.942 150.234ZM347.866 147.598C348.28 147.598 348.647 147.52 348.967 147.363C349.288 147.199 349.538 146.973 349.717 146.684C349.905 146.387 350.002 146.039 350.01 145.641H353.186C353.178 146.531 352.94 147.324 352.471 148.02C352.002 148.707 351.374 149.25 350.585 149.648C349.795 150.039 348.913 150.234 347.936 150.234C346.952 150.234 346.092 150.07 345.358 149.742C344.631 149.414 344.026 148.961 343.542 148.383C343.057 147.797 342.694 147.117 342.452 146.344C342.21 145.562 342.088 144.727 342.088 143.836V143.496C342.088 142.598 342.21 141.762 342.452 140.988C342.694 140.207 343.057 139.527 343.542 138.949C344.026 138.363 344.631 137.906 345.358 137.578C346.085 137.25 346.936 137.086 347.913 137.086C348.952 137.086 349.862 137.285 350.643 137.684C351.432 138.082 352.049 138.652 352.495 139.395C352.948 140.129 353.178 141 353.186 142.008H350.01C350.002 141.586 349.913 141.203 349.741 140.859C349.577 140.516 349.335 140.242 349.014 140.039C348.702 139.828 348.315 139.723 347.854 139.723C347.362 139.723 346.96 139.828 346.647 140.039C346.335 140.242 346.092 140.523 345.92 140.883C345.749 141.234 345.627 141.637 345.557 142.09C345.495 142.535 345.463 143.004 345.463 143.496V143.836C345.463 144.328 345.495 144.801 345.557 145.254C345.62 145.707 345.737 146.109 345.909 146.461C346.088 146.812 346.335 147.09 346.647 147.293C346.96 147.496 347.366 147.598 347.866 147.598ZM359.914 137.32V139.711H352.531V137.32H359.914ZM354.359 134.191H357.734V146.18C357.734 146.547 357.781 146.828 357.875 147.023C357.977 147.219 358.125 147.355 358.32 147.434C358.516 147.504 358.762 147.539 359.059 147.539C359.27 147.539 359.457 147.531 359.621 147.516C359.793 147.492 359.938 147.469 360.055 147.445L360.066 149.93C359.777 150.023 359.465 150.098 359.129 150.152C358.793 150.207 358.422 150.234 358.016 150.234C357.273 150.234 356.625 150.113 356.07 149.871C355.523 149.621 355.102 149.223 354.805 148.676C354.508 148.129 354.359 147.41 354.359 146.52V134.191ZM363.958 137.32V150H360.572V137.32H363.958ZM360.361 134.016C360.361 133.523 360.533 133.117 360.876 132.797C361.22 132.477 361.681 132.316 362.259 132.316C362.83 132.316 363.287 132.477 363.63 132.797C363.982 133.117 364.158 133.523 364.158 134.016C364.158 134.508 363.982 134.914 363.63 135.234C363.287 135.555 362.83 135.715 362.259 135.715C361.681 135.715 361.22 135.555 360.876 135.234C360.533 134.914 360.361 134.508 360.361 134.016ZM364.768 143.789V143.543C364.768 142.613 364.901 141.758 365.167 140.977C365.432 140.188 365.819 139.504 366.327 138.926C366.835 138.348 367.46 137.898 368.202 137.578C368.944 137.25 369.796 137.086 370.757 137.086C371.718 137.086 372.573 137.25 373.323 137.578C374.073 137.898 374.702 138.348 375.21 138.926C375.725 139.504 376.116 140.188 376.382 140.977C376.647 141.758 376.78 142.613 376.78 143.543V143.789C376.78 144.711 376.647 145.566 376.382 146.355C376.116 147.137 375.725 147.82 375.21 148.406C374.702 148.984 374.077 149.434 373.335 149.754C372.593 150.074 371.741 150.234 370.78 150.234C369.819 150.234 368.964 150.074 368.214 149.754C367.472 149.434 366.843 148.984 366.327 148.406C365.819 147.82 365.432 147.137 365.167 146.355C364.901 145.566 364.768 144.711 364.768 143.789ZM368.143 143.543V143.789C368.143 144.32 368.19 144.816 368.284 145.277C368.378 145.738 368.526 146.145 368.729 146.496C368.94 146.84 369.214 147.109 369.55 147.305C369.886 147.5 370.296 147.598 370.78 147.598C371.249 147.598 371.651 147.5 371.987 147.305C372.323 147.109 372.593 146.84 372.796 146.496C372.999 146.145 373.147 145.738 373.241 145.277C373.343 144.816 373.393 144.32 373.393 143.789V143.543C373.393 143.027 373.343 142.543 373.241 142.09C373.147 141.629 372.995 141.223 372.784 140.871C372.581 140.512 372.311 140.23 371.975 140.027C371.64 139.824 371.233 139.723 370.757 139.723C370.28 139.723 369.874 139.824 369.538 140.027C369.21 140.23 368.94 140.512 368.729 140.871C368.526 141.223 368.378 141.629 368.284 142.09C368.19 142.543 368.143 143.027 368.143 143.543ZM380.719 140.027V150H377.344V137.32H380.508L380.719 140.027ZM380.227 143.215H379.313C379.313 142.277 379.434 141.434 379.676 140.684C379.918 139.926 380.258 139.281 380.696 138.75C381.133 138.211 381.653 137.801 382.254 137.52C382.864 137.23 383.543 137.086 384.293 137.086C384.887 137.086 385.43 137.172 385.922 137.344C386.414 137.516 386.836 137.789 387.188 138.164C387.547 138.539 387.821 139.035 388.008 139.652C388.203 140.27 388.301 141.023 388.301 141.914V150H384.903V141.902C384.903 141.34 384.825 140.902 384.668 140.59C384.512 140.277 384.282 140.059 383.977 139.934C383.68 139.801 383.313 139.734 382.875 139.734C382.422 139.734 382.028 139.824 381.692 140.004C381.364 140.184 381.09 140.434 380.871 140.754C380.66 141.066 380.5 141.434 380.391 141.855C380.282 142.277 380.227 142.73 380.227 143.215Z" fill="#333333"/>
<g filter="url(#filter7_i_2086_4465)">
<rect x="447" y="114" width="85" height="56" rx="9" fill="#81BA75"/>
</g>
<rect x="447.5" y="114.5" width="84" height="55" rx="8.5" stroke="#81BA75"/>
<path d="M458.233 132.938H461.209L465.592 145.465L469.975 132.938H472.952L466.787 150H464.397L458.233 132.938ZM456.627 132.938H459.592L460.131 145.148V150H456.627V132.938ZM471.592 132.938H474.569V150H471.053V145.148L471.592 132.938ZM482.844 147.141V141.492C482.844 141.086 482.777 140.738 482.644 140.449C482.512 140.152 482.305 139.922 482.023 139.758C481.75 139.594 481.394 139.512 480.957 139.512C480.582 139.512 480.258 139.578 479.984 139.711C479.711 139.836 479.5 140.02 479.351 140.262C479.203 140.496 479.129 140.773 479.129 141.094H475.754C475.754 140.555 475.879 140.043 476.129 139.559C476.379 139.074 476.742 138.648 477.219 138.281C477.695 137.906 478.262 137.613 478.918 137.402C479.582 137.191 480.324 137.086 481.144 137.086C482.129 137.086 483.004 137.25 483.769 137.578C484.535 137.906 485.137 138.398 485.574 139.055C486.019 139.711 486.242 140.531 486.242 141.516V146.941C486.242 147.637 486.285 148.207 486.371 148.652C486.457 149.09 486.582 149.473 486.746 149.801V150H483.336C483.172 149.656 483.047 149.227 482.961 148.711C482.883 148.188 482.844 147.664 482.844 147.141ZM483.289 142.277L483.312 144.188H481.426C480.98 144.188 480.594 144.238 480.265 144.34C479.937 144.441 479.668 144.586 479.457 144.773C479.246 144.953 479.09 145.164 478.988 145.406C478.894 145.648 478.847 145.914 478.847 146.203C478.847 146.492 478.914 146.754 479.047 146.988C479.18 147.215 479.371 147.395 479.621 147.527C479.871 147.652 480.164 147.715 480.5 147.715C481.008 147.715 481.449 147.613 481.824 147.41C482.199 147.207 482.488 146.957 482.691 146.66C482.902 146.363 483.012 146.082 483.019 145.816L483.91 147.246C483.785 147.566 483.613 147.898 483.394 148.242C483.183 148.586 482.914 148.91 482.586 149.215C482.258 149.512 481.863 149.758 481.402 149.953C480.941 150.141 480.394 150.234 479.762 150.234C478.957 150.234 478.226 150.074 477.57 149.754C476.922 149.426 476.406 148.977 476.023 148.406C475.648 147.828 475.461 147.172 475.461 146.438C475.461 145.773 475.586 145.184 475.836 144.668C476.086 144.152 476.453 143.719 476.937 143.367C477.43 143.008 478.043 142.738 478.777 142.559C479.512 142.371 480.363 142.277 481.332 142.277H483.289ZM490.779 140.086V150H487.404V137.32H490.579L490.779 140.086ZM494.599 137.238L494.54 140.367C494.376 140.344 494.177 140.324 493.943 140.309C493.716 140.285 493.509 140.273 493.322 140.273C492.845 140.273 492.431 140.336 492.079 140.461C491.736 140.578 491.447 140.754 491.212 140.988C490.986 141.223 490.814 141.508 490.697 141.844C490.587 142.18 490.525 142.562 490.509 142.992L489.829 142.781C489.829 141.961 489.911 141.207 490.075 140.52C490.24 139.824 490.478 139.219 490.79 138.703C491.111 138.188 491.501 137.789 491.962 137.508C492.423 137.227 492.95 137.086 493.544 137.086C493.732 137.086 493.923 137.102 494.118 137.133C494.314 137.156 494.474 137.191 494.599 137.238ZM498.128 131.988V150H494.753V131.988H498.128ZM506.12 137.32L500.612 143.602L497.659 146.59L496.428 144.152L498.772 141.176L502.065 137.32H506.12ZM502.616 150L498.866 144.141L501.198 142.102L506.507 150H502.616ZM511.735 150.234C510.75 150.234 509.867 150.078 509.086 149.766C508.305 149.445 507.641 149.004 507.094 148.441C506.555 147.879 506.141 147.227 505.852 146.484C505.563 145.734 505.418 144.938 505.418 144.094V143.625C505.418 142.664 505.555 141.785 505.828 140.988C506.102 140.191 506.492 139.5 507 138.914C507.516 138.328 508.141 137.879 508.875 137.566C509.61 137.246 510.438 137.086 511.36 137.086C512.258 137.086 513.055 137.234 513.75 137.531C514.445 137.828 515.027 138.25 515.496 138.797C515.973 139.344 516.332 140 516.574 140.766C516.817 141.523 516.938 142.367 516.938 143.297V144.703H506.86V142.453H513.621V142.195C513.621 141.727 513.535 141.309 513.363 140.941C513.199 140.566 512.949 140.27 512.613 140.051C512.277 139.832 511.848 139.723 511.324 139.723C510.879 139.723 510.496 139.82 510.176 140.016C509.856 140.211 509.594 140.484 509.391 140.836C509.195 141.188 509.047 141.602 508.945 142.078C508.852 142.547 508.805 143.062 508.805 143.625V144.094C508.805 144.602 508.875 145.07 509.016 145.5C509.164 145.93 509.371 146.301 509.637 146.613C509.91 146.926 510.238 147.168 510.621 147.34C511.012 147.512 511.453 147.598 511.945 147.598C512.555 147.598 513.121 147.48 513.645 147.246C514.176 147.004 514.633 146.641 515.016 146.156L516.656 147.938C516.391 148.32 516.027 148.688 515.567 149.039C515.113 149.391 514.567 149.68 513.926 149.906C513.285 150.125 512.555 150.234 511.735 150.234ZM520.795 140.086V150H517.42V137.32H520.595L520.795 140.086ZM524.615 137.238L524.556 140.367C524.392 140.344 524.193 140.324 523.959 140.309C523.732 140.285 523.525 140.273 523.337 140.273C522.861 140.273 522.447 140.336 522.095 140.461C521.752 140.578 521.462 140.754 521.228 140.988C521.002 141.223 520.83 141.508 520.712 141.844C520.603 142.18 520.541 142.562 520.525 142.992L519.845 142.781C519.845 141.961 519.927 141.207 520.091 140.52C520.255 139.824 520.494 139.219 520.806 138.703C521.127 138.188 521.517 137.789 521.978 137.508C522.439 137.227 522.966 137.086 523.56 137.086C523.748 137.086 523.939 137.102 524.134 137.133C524.33 137.156 524.49 137.191 524.615 137.238Z" fill="#333333"/>
<rect x="39" y="77" width="85" height="21" fill="#333333"/>
<path d="M75.4062 81.625V93H73.8984V81.625H75.4062ZM80.1719 86.7422V87.9766H75.0781V86.7422H80.1719ZM80.9453 81.625V82.8594H75.0781V81.625H80.9453ZM87.1172 81.5625V93H85.6719V83.3672L82.7578 84.4297V83.125L86.8906 81.5625H87.1172Z" fill="white"/>
<rect x="175" y="77" width="85" height="21" fill="#333333"/>
<path d="M211.406 81.625V93H209.898V81.625H211.406ZM216.172 86.7422V87.9766H211.078V86.7422H216.172ZM216.945 81.625V82.8594H211.078V81.625H216.945ZM225.82 91.8125V93H218.375V91.9609L222.102 87.8125C222.56 87.3021 222.914 86.8698 223.164 86.5156C223.419 86.1562 223.596 85.8359 223.695 85.5547C223.799 85.2682 223.852 84.9766 223.852 84.6797C223.852 84.3047 223.773 83.9661 223.617 83.6641C223.466 83.3568 223.242 83.112 222.945 82.9297C222.648 82.7474 222.289 82.6562 221.867 82.6562C221.362 82.6562 220.94 82.7552 220.602 82.9531C220.268 83.1458 220.018 83.4167 219.852 83.7656C219.685 84.1146 219.602 84.5156 219.602 84.9688H218.156C218.156 84.3281 218.297 83.7422 218.578 83.2109C218.859 82.6797 219.276 82.2578 219.828 81.9453C220.38 81.6276 221.06 81.4688 221.867 81.4688C222.586 81.4688 223.201 81.5964 223.711 81.8516C224.221 82.1016 224.612 82.4557 224.883 82.9141C225.159 83.3672 225.297 83.8984 225.297 84.5078C225.297 84.8411 225.24 85.1797 225.125 85.5234C225.016 85.862 224.862 86.2005 224.664 86.5391C224.471 86.8776 224.245 87.2109 223.984 87.5391C223.729 87.8672 223.456 88.1901 223.164 88.5078L220.117 91.8125H225.82Z" fill="white"/>
<rect x="311" y="77" width="85" height="21" fill="#333333"/>
<path d="M347.406 81.625V93H345.898V81.625H347.406ZM352.172 86.7422V87.9766H347.078V86.7422H352.172ZM352.945 81.625V82.8594H347.078V81.625H352.945ZM356.477 86.6016H357.508C358.013 86.6016 358.43 86.5182 358.758 86.3516C359.091 86.1797 359.339 85.9479 359.5 85.6562C359.667 85.3594 359.75 85.026 359.75 84.6562C359.75 84.2188 359.677 83.8516 359.531 83.5547C359.385 83.2578 359.167 83.0339 358.875 82.8828C358.583 82.7318 358.214 82.6562 357.766 82.6562C357.359 82.6562 357 82.737 356.688 82.8984C356.38 83.0547 356.138 83.2786 355.961 83.5703C355.789 83.862 355.703 84.2057 355.703 84.6016H354.258C354.258 84.0234 354.404 83.4974 354.695 83.0234C354.987 82.5495 355.396 82.1719 355.922 81.8906C356.453 81.6094 357.068 81.4688 357.766 81.4688C358.453 81.4688 359.055 81.5911 359.57 81.8359C360.086 82.0755 360.487 82.4349 360.773 82.9141C361.06 83.388 361.203 83.9792 361.203 84.6875C361.203 84.974 361.135 85.2812 361 85.6094C360.87 85.9323 360.664 86.2344 360.383 86.5156C360.107 86.7969 359.747 87.0286 359.305 87.2109C358.862 87.388 358.331 87.4766 357.711 87.4766H356.477V86.6016ZM356.477 87.7891V86.9219H357.711C358.435 86.9219 359.034 87.0078 359.508 87.1797C359.982 87.3516 360.354 87.5807 360.625 87.8672C360.901 88.1536 361.094 88.4688 361.203 88.8125C361.318 89.151 361.375 89.4896 361.375 89.8281C361.375 90.3594 361.284 90.8307 361.102 91.2422C360.924 91.6536 360.672 92.0026 360.344 92.2891C360.021 92.5755 359.641 92.7917 359.203 92.9375C358.766 93.0833 358.289 93.1562 357.773 93.1562C357.279 93.1562 356.812 93.0859 356.375 92.9453C355.943 92.8047 355.56 92.6016 355.227 92.3359C354.893 92.0651 354.633 91.7344 354.445 91.3438C354.258 90.9479 354.164 90.4974 354.164 89.9922H355.609C355.609 90.388 355.695 90.7344 355.867 91.0312C356.044 91.3281 356.294 91.5599 356.617 91.7266C356.945 91.888 357.331 91.9688 357.773 91.9688C358.216 91.9688 358.596 91.8932 358.914 91.7422C359.237 91.5859 359.484 91.3516 359.656 91.0391C359.833 90.7266 359.922 90.3333 359.922 89.8594C359.922 89.3854 359.823 88.9974 359.625 88.6953C359.427 88.388 359.146 88.1615 358.781 88.0156C358.422 87.8646 357.997 87.7891 357.508 87.7891H356.477Z" fill="white"/>
<rect x="447" y="176" width="85" height="21" fill="#333333"/>
<path d="M483.406 180.625V192H481.898V180.625H483.406ZM488.172 185.742V186.977H483.078V185.742H488.172ZM488.945 180.625V181.859H483.078V180.625H488.945ZM497.539 188.922C497.539 189.615 497.378 190.203 497.055 190.688C496.737 191.167 496.305 191.531 495.758 191.781C495.216 192.031 494.604 192.156 493.922 192.156C493.24 192.156 492.625 192.031 492.078 191.781C491.531 191.531 491.099 191.167 490.781 190.688C490.464 190.203 490.305 189.615 490.305 188.922C490.305 188.469 490.391 188.055 490.562 187.68C490.74 187.299 490.987 186.969 491.305 186.688C491.628 186.406 492.008 186.19 492.445 186.039C492.888 185.883 493.375 185.805 493.906 185.805C494.604 185.805 495.227 185.94 495.773 186.211C496.32 186.477 496.75 186.844 497.062 187.312C497.38 187.781 497.539 188.318 497.539 188.922ZM496.086 188.891C496.086 188.469 495.995 188.096 495.812 187.773C495.63 187.445 495.375 187.19 495.047 187.008C494.719 186.826 494.339 186.734 493.906 186.734C493.464 186.734 493.081 186.826 492.758 187.008C492.44 187.19 492.193 187.445 492.016 187.773C491.839 188.096 491.75 188.469 491.75 188.891C491.75 189.328 491.836 189.703 492.008 190.016C492.185 190.323 492.435 190.56 492.758 190.727C493.086 190.888 493.474 190.969 493.922 190.969C494.37 190.969 494.755 190.888 495.078 190.727C495.401 190.56 495.648 190.323 495.82 190.016C495.997 189.703 496.086 189.328 496.086 188.891ZM497.273 183.586C497.273 184.138 497.128 184.635 496.836 185.078C496.544 185.521 496.146 185.87 495.641 186.125C495.135 186.38 494.562 186.508 493.922 186.508C493.271 186.508 492.69 186.38 492.18 186.125C491.674 185.87 491.279 185.521 490.992 185.078C490.706 184.635 490.562 184.138 490.562 183.586C490.562 182.924 490.706 182.362 490.992 181.898C491.284 181.435 491.682 181.081 492.188 180.836C492.693 180.591 493.268 180.469 493.914 180.469C494.565 180.469 495.143 180.591 495.648 180.836C496.154 181.081 496.549 181.435 496.836 181.898C497.128 182.362 497.273 182.924 497.273 183.586ZM495.828 183.609C495.828 183.229 495.747 182.893 495.586 182.602C495.424 182.31 495.201 182.081 494.914 181.914C494.628 181.742 494.294 181.656 493.914 181.656C493.534 181.656 493.201 181.737 492.914 181.898C492.633 182.055 492.411 182.279 492.25 182.57C492.094 182.862 492.016 183.208 492.016 183.609C492.016 184 492.094 184.341 492.25 184.633C492.411 184.924 492.635 185.151 492.922 185.312C493.208 185.474 493.542 185.555 493.922 185.555C494.302 185.555 494.633 185.474 494.914 185.312C495.201 185.151 495.424 184.924 495.586 184.633C495.747 184.341 495.828 184 495.828 183.609Z" fill="white"/>
<rect x="447" y="77" width="85" height="21" fill="#333333"/>
<path d="M483.406 81.625V93H481.898V81.625H483.406ZM488.172 86.7422V87.9766H483.078V86.7422H488.172ZM488.945 81.625V82.8594H483.078V81.625H488.945ZM498.055 89.1719V90.3594H489.836V89.5078L494.93 81.625H496.109L494.844 83.9062L491.477 89.1719H498.055ZM496.469 81.625V93H495.023V81.625H496.469Z" fill="white"/>
<rect x="311" y="176" width="85" height="21" fill="#333333"/>
<path d="M347.406 180.625V192H345.898V180.625H347.406ZM352.172 185.742V186.977H347.078V185.742H352.172ZM352.945 180.625V181.859H347.078V180.625H352.945ZM361.719 180.625V181.438L357.008 192H355.484L360.188 181.812H354.031V180.625H361.719Z" fill="white"/>
<rect x="175" y="176" width="85" height="21" fill="#333333"/>
<path d="M211.406 180.625V192H209.898V180.625H211.406ZM216.172 185.742V186.977H211.078V185.742H216.172ZM216.945 180.625V181.859H211.078V180.625H216.945ZM223.914 180.609H224.039V181.836H223.914C223.148 181.836 222.508 181.961 221.992 182.211C221.477 182.456 221.068 182.786 220.766 183.203C220.464 183.615 220.245 184.078 220.109 184.594C219.979 185.109 219.914 185.633 219.914 186.164V187.836C219.914 188.341 219.974 188.789 220.094 189.18C220.214 189.565 220.378 189.891 220.586 190.156C220.794 190.422 221.029 190.622 221.289 190.758C221.555 190.893 221.831 190.961 222.117 190.961C222.451 190.961 222.747 190.898 223.008 190.773C223.268 190.643 223.487 190.464 223.664 190.234C223.846 190 223.984 189.724 224.078 189.406C224.172 189.089 224.219 188.74 224.219 188.359C224.219 188.021 224.177 187.695 224.094 187.383C224.01 187.065 223.883 186.784 223.711 186.539C223.539 186.289 223.323 186.094 223.062 185.953C222.807 185.807 222.503 185.734 222.148 185.734C221.747 185.734 221.372 185.833 221.023 186.031C220.68 186.224 220.396 186.479 220.172 186.797C219.953 187.109 219.828 187.451 219.797 187.82L219.031 187.812C219.104 187.229 219.24 186.732 219.438 186.32C219.641 185.904 219.891 185.565 220.188 185.305C220.49 185.039 220.826 184.846 221.195 184.727C221.57 184.602 221.966 184.539 222.383 184.539C222.951 184.539 223.44 184.646 223.852 184.859C224.263 185.073 224.602 185.359 224.867 185.719C225.133 186.073 225.328 186.474 225.453 186.922C225.583 187.365 225.648 187.82 225.648 188.289C225.648 188.826 225.573 189.328 225.422 189.797C225.271 190.266 225.044 190.677 224.742 191.031C224.445 191.385 224.078 191.661 223.641 191.859C223.203 192.057 222.695 192.156 222.117 192.156C221.503 192.156 220.966 192.031 220.508 191.781C220.049 191.526 219.669 191.188 219.367 190.766C219.065 190.344 218.839 189.875 218.688 189.359C218.536 188.844 218.461 188.32 218.461 187.789V187.109C218.461 186.307 218.542 185.521 218.703 184.75C218.865 183.979 219.143 183.281 219.539 182.656C219.94 182.031 220.495 181.534 221.203 181.164C221.911 180.794 222.815 180.609 223.914 180.609Z" fill="white"/>
<rect x="39" y="176" width="85" height="21" fill="#333333"/>
<path d="M75.4062 180.625V192H73.8984V180.625H75.4062ZM80.1719 185.742V186.977H75.0781V185.742H80.1719ZM80.9453 180.625V181.859H75.0781V180.625H80.9453ZM84.1953 186.586L83.0391 186.289L83.6094 180.625H89.4453V181.961H84.8359L84.4922 185.055C84.7005 184.935 84.9635 184.823 85.2812 184.719C85.6042 184.615 85.974 184.562 86.3906 184.562C86.9167 184.562 87.388 184.654 87.8047 184.836C88.2214 185.013 88.5755 185.268 88.8672 185.602C89.1641 185.935 89.3906 186.336 89.5469 186.805C89.7031 187.273 89.7812 187.797 89.7812 188.375C89.7812 188.922 89.7057 189.424 89.5547 189.883C89.4089 190.341 89.1875 190.742 88.8906 191.086C88.5938 191.424 88.2188 191.688 87.7656 191.875C87.3177 192.062 86.7891 192.156 86.1797 192.156C85.7214 192.156 85.2865 192.094 84.875 191.969C84.4688 191.839 84.1042 191.643 83.7812 191.383C83.4635 191.117 83.2031 190.789 83 190.398C82.8021 190.003 82.6771 189.539 82.625 189.008H84C84.0625 189.435 84.1875 189.794 84.375 190.086C84.5625 190.378 84.8073 190.599 85.1094 190.75C85.4167 190.896 85.7734 190.969 86.1797 190.969C86.5234 190.969 86.8281 190.909 87.0938 190.789C87.3594 190.669 87.5833 190.497 87.7656 190.273C87.9479 190.049 88.0859 189.779 88.1797 189.461C88.2786 189.143 88.3281 188.786 88.3281 188.391C88.3281 188.031 88.2786 187.698 88.1797 187.391C88.0807 187.083 87.9323 186.815 87.7344 186.586C87.5417 186.357 87.3047 186.18 87.0234 186.055C86.7422 185.924 86.4193 185.859 86.0547 185.859C85.5703 185.859 85.2031 185.924 84.9531 186.055C84.7083 186.185 84.4557 186.362 84.1953 186.586Z" fill="white"/>
</g>
<defs>
<filter id="filter0_i_2086_4465" x="447" y="15" width="85" height="56" filterUnits="userSpaceOnUse" color-interpolation-filters="sRGB">
<feFlood flood-opacity="0" result="BackgroundImageFix"/>
<feBlend mode="normal" in="SourceGraphic" in2="BackgroundImageFix" result="shape"/>
<feColorMatrix in="SourceAlpha" type="matrix" values="0 0 0 0 0 0 0 0 0 0 0 0 0 0 0 0 0 0 127 0" result="hardAlpha"/>
<feMorphology radius="2" operator="erode" in="SourceAlpha" result="effect1_innerShadow_2086_4465"/>
<feOffset/>
<feComposite in2="hardAlpha" operator="arithmetic" k2="-1" k3="1"/>
<feColorMatrix type="matrix" values="0 0 0 0 0.235294 0 0 0 0 0.235294 0 0 0 0 0.235294 0 0 0 1 0"/>
<feBlend mode="normal" in2="shape" result="effect1_innerShadow_2086_4465"/>
</filter>
<filter id="filter1_i_2086_4465" x="311" y="15" width="85" height="56" filterUnits="userSpaceOnUse" color-interpolation-filters="sRGB">
<feFlood flood-opacity="0" result="BackgroundImageFix"/>
<feBlend mode="normal" in="SourceGraphic" in2="BackgroundImageFix" result="shape"/>
<feColorMatrix in="SourceAlpha" type="matrix" values="0 0 0 0 0 0 0 0 0 0 0 0 0 0 0 0 0 0 127 0" result="hardAlpha"/>
<feMorphology radius="2" operator="erode" in="SourceAlpha" result="effect1_innerShadow_2086_4465"/>
<feOffset/>
<feComposite in2="hardAlpha" operator="arithmetic" k2="-1" k3="1"/>
<feColorMatrix type="matrix" values="0 0 0 0 0.235294 0 0 0 0 0.235294 0 0 0 0 0.235294 0 0 0 1 0"/>
<feBlend mode="normal" in2="shape" result="effect1_innerShadow_2086_4465"/>
</filter>
<filter id="filter2_i_2086_4465" x="175" y="15" width="85" height="56" filterUnits="userSpaceOnUse" color-interpolation-filters="sRGB">
<feFlood flood-opacity="0" result="BackgroundImageFix"/>
<feBlend mode="normal" in="SourceGraphic" in2="BackgroundImageFix" result="shape"/>
<feColorMatrix in="SourceAlpha" type="matrix" values="0 0 0 0 0 0 0 0 0 0 0 0 0 0 0 0 0 0 127 0" result="hardAlpha"/>
<feMorphology radius="2" operator="erode" in="SourceAlpha" result="effect1_innerShadow_2086_4465"/>
<feOffset/>
<feComposite in2="hardAlpha" operator="arithmetic" k2="-1" k3="1"/>
<feColorMatrix type="matrix" values="0 0 0 0 0.235294 0 0 0 0 0.235294 0 0 0 0 0.235294 0 0 0 1 0"/>
<feBlend mode="normal" in2="shape" result="effect1_innerShadow_2086_4465"/>
</filter>
<filter id="filter3_i_2086_4465" x="39" y="15" width="85" height="56" filterUnits="userSpaceOnUse" color-interpolation-filters="sRGB">
<feFlood flood-opacity="0" result="BackgroundImageFix"/>
<feBlend mode="normal" in="SourceGraphic" in2="BackgroundImageFix" result="shape"/>
<feColorMatrix in="SourceAlpha" type="matrix" values="0 0 0 0 0 0 0 0 0 0 0 0 0 0 0 0 0 0 127 0" result="hardAlpha"/>
<feMorphology radius="2" operator="erode" in="SourceAlpha" result="effect1_innerShadow_2086_4465"/>
<feOffset/>
<feComposite in2="hardAlpha" operator="arithmetic" k2="-1" k3="1"/>
<feColorMatrix type="matrix" values="0 0 0 0 0.235294 0 0 0 0 0.235294 0 0 0 0 0.235294 0 0 0 1 0"/>
<feBlend mode="normal" in2="shape" result="effect1_innerShadow_2086_4465"/>
</filter>
<filter id="filter4_i_2086_4465" x="38" y="114" width="85" height="56" filterUnits="userSpaceOnUse" color-interpolation-filters="sRGB">
<feFlood flood-opacity="0" result="BackgroundImageFix"/>
<feBlend mode="normal" in="SourceGraphic" in2="BackgroundImageFix" result="shape"/>
<feColorMatrix in="SourceAlpha" type="matrix" values="0 0 0 0 0 0 0 0 0 0 0 0 0 0 0 0 0 0 127 0" result="hardAlpha"/>
<feMorphology radius="2" operator="erode" in="SourceAlpha" result="effect1_innerShadow_2086_4465"/>
<feOffset/>
<feComposite in2="hardAlpha" operator="arithmetic" k2="-1" k3="1"/>
<feColorMatrix type="matrix" values="0 0 0 0 0.235294 0 0 0 0 0.235294 0 0 0 0 0.235294 0 0 0 1 0"/>
<feBlend mode="normal" in2="shape" result="effect1_innerShadow_2086_4465"/>
</filter>
<filter id="filter5_i_2086_4465" x="174" y="114" width="85" height="56" filterUnits="userSpaceOnUse" color-interpolation-filters="sRGB">
<feFlood flood-opacity="0" result="BackgroundImageFix"/>
<feBlend mode="normal" in="SourceGraphic" in2="BackgroundImageFix" result="shape"/>
<feColorMatrix in="SourceAlpha" type="matrix" values="0 0 0 0 0 0 0 0 0 0 0 0 0 0 0 0 0 0 127 0" result="hardAlpha"/>
<feMorphology radius="2" operator="erode" in="SourceAlpha" result="effect1_innerShadow_2086_4465"/>
<feOffset/>
<feComposite in2="hardAlpha" operator="arithmetic" k2="-1" k3="1"/>
<feColorMatrix type="matrix" values="0 0 0 0 0.235294 0 0 0 0 0.235294 0 0 0 0 0.235294 0 0 0 1 0"/>
<feBlend mode="normal" in2="shape" result="effect1_innerShadow_2086_4465"/>
</filter>
<filter id="filter6_i_2086_4465" x="310" y="114" width="85" height="56" filterUnits="userSpaceOnUse" color-interpolation-filters="sRGB">
<feFlood flood-opacity="0" result="BackgroundImageFix"/>
<feBlend mode="normal" in="SourceGraphic" in2="BackgroundImageFix" result="shape"/>
<feColorMatrix in="SourceAlpha" type="matrix" values="0 0 0 0 0 0 0 0 0 0 0 0 0 0 0 0 0 0 127 0" result="hardAlpha"/>
<feMorphology radius="2" operator="erode" in="SourceAlpha" result="effect1_innerShadow_2086_4465"/>
<feOffset/>
<feComposite in2="hardAlpha" operator="arithmetic" k2="-1" k3="1"/>
<feColorMatrix type="matrix" values="0 0 0 0 0.235294 0 0 0 0 0.235294 0 0 0 0 0.235294 0 0 0 1 0"/>
<feBlend mode="normal" in2="shape" result="effect1_innerShadow_2086_4465"/>
</filter>
<filter id="filter7_i_2086_4465" x="447" y="114" width="85" height="56" filterUnits="userSpaceOnUse" color-interpolation-filters="sRGB">
<feFlood flood-opacity="0" result="BackgroundImageFix"/>
<feBlend mode="normal" in="SourceGraphic" in2="BackgroundImageFix" result="shape"/>
<feColorMatrix in="SourceAlpha" type="matrix" values="0 0 0 0 0 0 0 0 0 0 0 0 0 0 0 0 0 0 127 0" result="hardAlpha"/>
<feMorphology radius="2" operator="erode" in="SourceAlpha" result="effect1_innerShadow_2086_4465"/>
<feOffset/>
<feComposite in2="hardAlpha" operator="arithmetic" k2="-1" k3="1"/>
<feColorMatrix type="matrix" values="0 0 0 0 0.235294 0 0 0 0 0.235294 0 0 0 0 0.235294 0 0 0 1 0"/>
<feBlend mode="normal" in2="shape" result="effect1_innerShadow_2086_4465"/>
</filter>
<clipPath id="clip0_2086_4465">
<rect width="557" height="222" fill="white"/>
</clipPath>
</defs>
</svg>
