<svg width="462" height="314" viewBox="0 0 462 314" fill="none" xmlns="http://www.w3.org/2000/svg">
<path d="M91.7617 2.35352V28H86.6992V8.18945L80.6172 10.123V6.13281L91.2168 2.35352H91.7617Z" fill="#333333"/>
<path d="M257.93 23.0449V27H240.422V23.625L248.701 14.748C249.533 13.8223 250.189 13.0078 250.67 12.3047C251.15 11.5898 251.496 10.9512 251.707 10.3887C251.93 9.81445 252.041 9.26953 252.041 8.75391C252.041 7.98047 251.912 7.31836 251.654 6.76758C251.396 6.20508 251.016 5.77148 250.512 5.4668C250.02 5.16211 249.41 5.00977 248.684 5.00977C247.91 5.00977 247.242 5.19727 246.68 5.57227C246.129 5.94727 245.707 6.46875 245.414 7.13672C245.133 7.80469 244.992 8.56055 244.992 9.4043H239.912C239.912 7.88086 240.275 6.48633 241.002 5.2207C241.729 3.94336 242.754 2.92969 244.078 2.17969C245.402 1.41797 246.973 1.03711 248.789 1.03711C250.582 1.03711 252.094 1.33008 253.324 1.91602C254.566 2.49023 255.504 3.32227 256.137 4.41211C256.781 5.49023 257.104 6.7793 257.104 8.2793C257.104 9.12305 256.969 9.94922 256.699 10.7578C256.43 11.5547 256.043 12.3516 255.539 13.1484C255.047 13.9336 254.449 14.7305 253.746 15.5391C253.043 16.3477 252.264 17.1855 251.408 18.0527L246.961 23.0449H257.93Z" fill="#333333"/>
<path d="M404.607 12.0059H407.314C408.182 12.0059 408.896 11.8594 409.459 11.5664C410.021 11.2617 410.438 10.8398 410.707 10.3008C410.988 9.75 411.129 9.11133 411.129 8.38477C411.129 7.72852 411 7.14844 410.742 6.64453C410.496 6.12891 410.115 5.73047 409.6 5.44922C409.084 5.15625 408.434 5.00977 407.648 5.00977C407.027 5.00977 406.453 5.13281 405.926 5.37891C405.398 5.625 404.977 5.9707 404.66 6.41602C404.344 6.86133 404.186 7.40039 404.186 8.0332H399.105C399.105 6.62695 399.48 5.40234 400.23 4.35938C400.992 3.31641 402.012 2.50195 403.289 1.91602C404.566 1.33008 405.973 1.03711 407.508 1.03711C409.242 1.03711 410.76 1.31836 412.061 1.88086C413.361 2.43164 414.375 3.24609 415.102 4.32422C415.828 5.40234 416.191 6.73828 416.191 8.33203C416.191 9.14062 416.004 9.92578 415.629 10.6875C415.254 11.4375 414.715 12.1172 414.012 12.7266C413.32 13.3242 412.477 13.8047 411.48 14.168C410.484 14.5195 409.365 14.6953 408.123 14.6953H404.607V12.0059ZM404.607 15.8555V13.2363H408.123C409.518 13.2363 410.742 13.3945 411.797 13.7109C412.852 14.0273 413.736 14.4844 414.451 15.082C415.166 15.668 415.705 16.3652 416.068 17.1738C416.432 17.9707 416.613 18.8555 416.613 19.8281C416.613 21.0234 416.385 22.0898 415.928 23.0273C415.471 23.9531 414.826 24.7383 413.994 25.3828C413.174 26.0273 412.213 26.5195 411.111 26.8594C410.01 27.1875 408.809 27.3516 407.508 27.3516C406.43 27.3516 405.369 27.2051 404.326 26.9121C403.295 26.6074 402.357 26.1562 401.514 25.5586C400.682 24.9492 400.014 24.1875 399.51 23.2734C399.018 22.3477 398.771 21.252 398.771 19.9863H403.852C403.852 20.6426 404.016 21.2285 404.344 21.7441C404.672 22.2598 405.123 22.6641 405.697 22.957C406.283 23.25 406.934 23.3965 407.648 23.3965C408.457 23.3965 409.148 23.25 409.723 22.957C410.309 22.6523 410.754 22.2305 411.059 21.6914C411.375 21.1406 411.533 20.502 411.533 19.7754C411.533 18.8379 411.363 18.0879 411.023 17.5254C410.684 16.9512 410.197 16.5293 409.564 16.2598C408.932 15.9902 408.182 15.8555 407.314 15.8555H404.607Z" fill="#333333"/>
<path d="M56.4824 276.143H57.2207V280.186H56.9219C55.5859 280.186 54.3965 280.385 53.3535 280.783C52.3105 281.182 51.4258 281.75 50.6992 282.488C49.9844 283.215 49.4336 284.094 49.0469 285.125C48.6719 286.156 48.4844 287.311 48.4844 288.588V292.842C48.4844 293.756 48.5723 294.564 48.748 295.268C48.9355 295.959 49.1992 296.539 49.5391 297.008C49.8906 297.465 50.3008 297.811 50.7695 298.045C51.2383 298.268 51.7656 298.379 52.3516 298.379C52.9023 298.379 53.4004 298.262 53.8457 298.027C54.3027 297.793 54.6895 297.465 55.0059 297.043C55.334 296.609 55.5801 296.105 55.7441 295.531C55.9199 294.945 56.0078 294.307 56.0078 293.615C56.0078 292.924 55.9199 292.285 55.7441 291.699C55.5801 291.113 55.334 290.609 55.0059 290.188C54.6777 289.754 54.2793 289.42 53.8105 289.186C53.3418 288.951 52.8145 288.834 52.2285 288.834C51.4316 288.834 50.7285 289.021 50.1191 289.396C49.5215 289.76 49.0527 290.229 48.7129 290.803C48.373 291.377 48.1914 291.98 48.168 292.613L46.6387 291.629C46.6738 290.727 46.8613 289.871 47.2012 289.062C47.5527 288.254 48.0332 287.539 48.6426 286.918C49.2637 286.285 50.0078 285.793 50.875 285.441C51.7422 285.078 52.7207 284.896 53.8105 284.896C55.0059 284.896 56.0547 285.125 56.957 285.582C57.8711 286.039 58.6328 286.666 59.2422 287.463C59.8516 288.26 60.3086 289.18 60.6133 290.223C60.918 291.266 61.0703 292.379 61.0703 293.562C61.0703 294.805 60.8652 295.959 60.4551 297.025C60.0566 298.092 59.4766 299.023 58.7148 299.82C57.9648 300.617 57.0625 301.238 56.0078 301.684C54.9531 302.129 53.7695 302.352 52.457 302.352C51.0977 302.352 49.8613 302.105 48.748 301.613C47.6465 301.109 46.6973 300.406 45.9004 299.504C45.1035 298.602 44.4883 297.529 44.0547 296.287C43.6328 295.045 43.4219 293.686 43.4219 292.209V290.24C43.4219 288.178 43.7207 286.291 44.3184 284.58C44.9277 282.857 45.8008 281.369 46.9375 280.115C48.0742 278.85 49.4453 277.871 51.0508 277.18C52.6562 276.488 54.4668 276.143 56.4824 276.143Z" fill="#333333"/>
<path d="M208.186 290.346L204.143 289.379L205.602 276.406H219.98V280.502H209.768L209.135 286.18C209.475 285.98 209.99 285.77 210.682 285.547C211.373 285.312 212.146 285.195 213.002 285.195C214.244 285.195 215.346 285.389 216.307 285.775C217.268 286.162 218.082 286.725 218.75 287.463C219.43 288.201 219.945 289.104 220.297 290.17C220.648 291.236 220.824 292.443 220.824 293.791C220.824 294.928 220.648 296.012 220.297 297.043C219.945 298.062 219.412 298.977 218.697 299.785C217.982 300.582 217.086 301.209 216.008 301.666C214.93 302.123 213.652 302.352 212.176 302.352C211.074 302.352 210.008 302.188 208.977 301.859C207.957 301.531 207.037 301.045 206.217 300.4C205.408 299.756 204.758 298.977 204.266 298.062C203.785 297.137 203.533 296.082 203.51 294.898H208.537C208.607 295.625 208.795 296.252 209.1 296.779C209.416 297.295 209.832 297.693 210.348 297.975C210.863 298.256 211.467 298.396 212.158 298.396C212.803 298.396 213.354 298.273 213.811 298.027C214.268 297.781 214.637 297.441 214.918 297.008C215.199 296.562 215.404 296.047 215.533 295.461C215.674 294.863 215.744 294.219 215.744 293.527C215.744 292.836 215.662 292.209 215.498 291.646C215.334 291.084 215.082 290.598 214.742 290.188C214.402 289.777 213.969 289.461 213.441 289.238C212.926 289.016 212.322 288.904 211.631 288.904C210.693 288.904 209.967 289.051 209.451 289.344C208.947 289.637 208.525 289.971 208.186 290.346Z" fill="#333333"/>
<path d="M381.352 293.438V297.41H362.912L362.666 294.334L373.336 277.406H377.361L373.002 284.701L367.693 293.438H381.352ZM378.451 277.406V303H373.389V277.406H378.451Z" fill="#333333"/>
<rect y="40" width="462" height="227" fill="#333333"/>
<g filter="url(#filter0_i_2068_3145)">
<rect x="175" y="52" width="110" height="56" rx="9" fill="#6DA9CD"/>
</g>
<rect x="175.5" y="52.5" width="109" height="55" rx="8.5" stroke="#6DA9CD"/>
<path d="M214.156 70.9375V88H210.652V70.9375H214.156ZM219.406 70.9375V73.6914H205.484V70.9375H219.406ZM223.754 78.0859V88H220.379V75.3203H223.555L223.754 78.0859ZM227.574 75.2383L227.516 78.3672C227.352 78.3438 227.152 78.3242 226.918 78.3086C226.691 78.2852 226.484 78.2734 226.297 78.2734C225.82 78.2734 225.406 78.3359 225.055 78.4609C224.711 78.5781 224.422 78.7539 224.188 78.9883C223.961 79.2227 223.789 79.5078 223.672 79.8438C223.562 80.1797 223.5 80.5625 223.484 80.9922L222.805 80.7812C222.805 79.9609 222.887 79.207 223.051 78.5195C223.215 77.8242 223.453 77.2188 223.766 76.7031C224.086 76.1875 224.477 75.7891 224.938 75.5078C225.398 75.2266 225.926 75.0859 226.52 75.0859C226.707 75.0859 226.898 75.1016 227.094 75.1328C227.289 75.1562 227.449 75.1914 227.574 75.2383ZM232.73 75.3203V88H229.344V75.3203H232.73ZM229.133 72.0156C229.133 71.5234 229.305 71.1172 229.648 70.7969C229.992 70.4766 230.453 70.3164 231.031 70.3164C231.602 70.3164 232.059 70.4766 232.402 70.7969C232.754 71.1172 232.93 71.5234 232.93 72.0156C232.93 72.5078 232.754 72.9141 232.402 73.2344C232.059 73.5547 231.602 73.7148 231.031 73.7148C230.453 73.7148 229.992 73.5547 229.648 73.2344C229.305 72.9141 229.133 72.5078 229.133 72.0156ZM238.895 77.9453V88H235.508V75.3203H238.684L238.895 77.9453ZM238.426 81.2148H237.488C237.488 80.332 237.594 79.5195 237.805 78.7773C238.023 78.0273 238.34 77.3789 238.754 76.832C239.176 76.2773 239.695 75.8477 240.312 75.543C240.93 75.2383 241.645 75.0859 242.457 75.0859C243.02 75.0859 243.535 75.1719 244.004 75.3438C244.473 75.5078 244.875 75.7695 245.211 76.1289C245.555 76.4805 245.82 76.9414 246.008 77.5117C246.195 78.0742 246.289 78.75 246.289 79.5391V88H242.914V79.9141C242.914 79.3359 242.836 78.8906 242.68 78.5781C242.523 78.2656 242.301 78.0469 242.012 77.9219C241.73 77.7969 241.391 77.7344 240.992 77.7344C240.555 77.7344 240.172 77.8242 239.844 78.0039C239.523 78.1836 239.258 78.4336 239.047 78.7539C238.836 79.0664 238.68 79.4336 238.578 79.8555C238.477 80.2773 238.426 80.7305 238.426 81.2148ZM245.973 80.8281L244.766 80.9805C244.766 80.1523 244.867 79.3828 245.07 78.6719C245.281 77.9609 245.59 77.3359 245.996 76.7969C246.41 76.2578 246.922 75.8398 247.531 75.543C248.141 75.2383 248.844 75.0859 249.641 75.0859C250.25 75.0859 250.805 75.1758 251.305 75.3555C251.805 75.5273 252.23 75.8047 252.582 76.1875C252.941 76.5625 253.215 77.0547 253.402 77.6641C253.598 78.2734 253.695 79.0195 253.695 79.9023V88H250.309V79.9023C250.309 79.3164 250.23 78.8711 250.074 78.5664C249.926 78.2539 249.707 78.0391 249.418 77.9219C249.137 77.7969 248.801 77.7344 248.41 77.7344C248.004 77.7344 247.648 77.8164 247.344 77.9805C247.039 78.1367 246.785 78.3555 246.582 78.6367C246.379 78.918 246.227 79.2461 246.125 79.6211C246.023 79.9883 245.973 80.3906 245.973 80.8281Z" fill="#333333"/>
<g filter="url(#filter1_i_2068_3145)">
<rect x="335" y="52" width="110" height="56" rx="9" fill="#D7A55A"/>
</g>
<rect x="335.5" y="52.5" width="109" height="55" rx="8.5" stroke="#D7A55A"/>
<path d="M388.664 79.0703V79.8789C388.664 81.1758 388.488 82.3398 388.137 83.3711C387.785 84.4023 387.289 85.2812 386.648 86.0078C386.008 86.7266 385.242 87.2773 384.352 87.6602C383.469 88.043 382.488 88.2344 381.41 88.2344C380.34 88.2344 379.359 88.043 378.469 87.6602C377.586 87.2773 376.82 86.7266 376.172 86.0078C375.523 85.2812 375.02 84.4023 374.66 83.3711C374.309 82.3398 374.133 81.1758 374.133 79.8789V79.0703C374.133 77.7656 374.309 76.6016 374.66 75.5781C375.012 74.5469 375.508 73.668 376.148 72.9414C376.797 72.2148 377.562 71.6602 378.445 71.2773C379.336 70.8945 380.316 70.7031 381.387 70.7031C382.465 70.7031 383.445 70.8945 384.328 71.2773C385.219 71.6602 385.984 72.2148 386.625 72.9414C387.273 73.668 387.773 74.5469 388.125 75.5781C388.484 76.6016 388.664 77.7656 388.664 79.0703ZM385.113 79.8789V79.0469C385.113 78.1406 385.031 77.3438 384.867 76.6562C384.703 75.9688 384.461 75.3906 384.141 74.9219C383.82 74.4531 383.43 74.1016 382.969 73.8672C382.508 73.625 381.98 73.5039 381.387 73.5039C380.793 73.5039 380.266 73.625 379.805 73.8672C379.352 74.1016 378.965 74.4531 378.645 74.9219C378.332 75.3906 378.094 75.9688 377.93 76.6562C377.766 77.3438 377.684 78.1406 377.684 79.0469V79.8789C377.684 80.7773 377.766 81.5742 377.93 82.2695C378.094 82.957 378.336 83.5391 378.656 84.0156C378.977 84.4844 379.367 84.8398 379.828 85.082C380.289 85.3242 380.816 85.4453 381.41 85.4453C382.004 85.4453 382.531 85.3242 382.992 85.082C383.453 84.8398 383.84 84.4844 384.152 84.0156C384.465 83.5391 384.703 82.957 384.867 82.2695C385.031 81.5742 385.113 80.7773 385.113 79.8789ZM395.285 88H391.887V74.1953C391.887 73.2344 392.074 72.4258 392.449 71.7695C392.832 71.1055 393.367 70.6055 394.055 70.2695C394.75 69.9258 395.574 69.7539 396.527 69.7539C396.84 69.7539 397.141 69.7773 397.43 69.8242C397.719 69.8633 398 69.9141 398.273 69.9766L398.238 72.5195C398.09 72.4805 397.934 72.4531 397.77 72.4375C397.605 72.4219 397.414 72.4141 397.195 72.4141C396.789 72.4141 396.441 72.4844 396.152 72.625C395.871 72.7578 395.656 72.957 395.508 73.2227C395.359 73.4883 395.285 73.8125 395.285 74.1953V88ZM397.816 75.3203V77.7109H390V75.3203H397.816ZM403.887 88H400.488V74.1953C400.488 73.2344 400.676 72.4258 401.051 71.7695C401.434 71.1055 401.969 70.6055 402.656 70.2695C403.352 69.9258 404.176 69.7539 405.129 69.7539C405.441 69.7539 405.742 69.7773 406.031 69.8242C406.32 69.8633 406.602 69.9141 406.875 69.9766L406.84 72.5195C406.691 72.4805 406.535 72.4531 406.371 72.4375C406.207 72.4219 406.016 72.4141 405.797 72.4141C405.391 72.4141 405.043 72.4844 404.754 72.625C404.473 72.7578 404.258 72.957 404.109 73.2227C403.961 73.4883 403.887 73.8125 403.887 74.1953V88ZM406.418 75.3203V77.7109H398.602V75.3203H406.418Z" fill="#333333"/>
<g filter="url(#filter2_i_2068_3145)">
<rect x="15" y="52" width="110" height="56" rx="9" fill="#6DA9CD"/>
</g>
<rect x="15.5" y="52.5" width="109" height="55" rx="8.5" stroke="#6DA9CD"/>
<path d="M52.5273 85.2578V88H43.9375V85.2578H52.5273ZM45.0742 70.9375V88H41.5586V70.9375H45.0742ZM61.1758 85.1406V79.4922C61.1758 79.0859 61.1094 78.7383 60.9766 78.4492C60.8438 78.1523 60.6367 77.9219 60.3555 77.7578C60.082 77.5938 59.7266 77.5117 59.2891 77.5117C58.9141 77.5117 58.5898 77.5781 58.3164 77.7109C58.043 77.8359 57.832 78.0195 57.6836 78.2617C57.5352 78.4961 57.4609 78.7734 57.4609 79.0938H54.0859C54.0859 78.5547 54.2109 78.043 54.4609 77.5586C54.7109 77.0742 55.0742 76.6484 55.5508 76.2812C56.0273 75.9062 56.5938 75.6133 57.25 75.4023C57.9141 75.1914 58.6562 75.0859 59.4766 75.0859C60.4609 75.0859 61.3359 75.25 62.1016 75.5781C62.8672 75.9062 63.4688 76.3984 63.9062 77.0547C64.3516 77.7109 64.5742 78.5312 64.5742 79.5156V84.9414C64.5742 85.6367 64.6172 86.207 64.7031 86.6523C64.7891 87.0898 64.9141 87.4727 65.0781 87.8008V88H61.668C61.5039 87.6562 61.3789 87.2266 61.293 86.7109C61.2148 86.1875 61.1758 85.6641 61.1758 85.1406ZM61.6211 80.2773L61.6445 82.1875H59.7578C59.3125 82.1875 58.9258 82.2383 58.5977 82.3398C58.2695 82.4414 58 82.5859 57.7891 82.7734C57.5781 82.9531 57.4219 83.1641 57.3203 83.4062C57.2266 83.6484 57.1797 83.9141 57.1797 84.2031C57.1797 84.4922 57.2461 84.7539 57.3789 84.9883C57.5117 85.2148 57.7031 85.3945 57.9531 85.5273C58.2031 85.6523 58.4961 85.7148 58.832 85.7148C59.3398 85.7148 59.7812 85.6133 60.1562 85.4102C60.5312 85.207 60.8203 84.957 61.0234 84.6602C61.2344 84.3633 61.3438 84.082 61.3516 83.8164L62.2422 85.2461C62.1172 85.5664 61.9453 85.8984 61.7266 86.2422C61.5156 86.5859 61.2461 86.9102 60.918 87.2148C60.5898 87.5117 60.1953 87.7578 59.7344 87.9531C59.2734 88.1406 58.7266 88.2344 58.0938 88.2344C57.2891 88.2344 56.5586 88.0742 55.9023 87.7539C55.2539 87.4258 54.7383 86.9766 54.3555 86.4062C53.9805 85.8281 53.793 85.1719 53.793 84.4375C53.793 83.7734 53.918 83.1836 54.168 82.668C54.418 82.1523 54.7852 81.7188 55.2695 81.3672C55.7617 81.0078 56.375 80.7383 57.1094 80.5586C57.8438 80.3711 58.6953 80.2773 59.6641 80.2773H61.6211ZM73.3867 75.3203V77.7109H66.0039V75.3203H73.3867ZM67.832 72.1914H71.207V84.1797C71.207 84.5469 71.2539 84.8281 71.3477 85.0234C71.4492 85.2188 71.5977 85.3555 71.793 85.4336C71.9883 85.5039 72.2344 85.5391 72.5312 85.5391C72.7422 85.5391 72.9297 85.5312 73.0938 85.5156C73.2656 85.4922 73.4102 85.4688 73.5273 85.4453L73.5391 87.9297C73.25 88.0234 72.9375 88.0977 72.6016 88.1523C72.2656 88.207 71.8945 88.2344 71.4883 88.2344C70.7461 88.2344 70.0977 88.1133 69.543 87.8711C68.9961 87.6211 68.5742 87.2227 68.2773 86.6758C67.9805 86.1289 67.832 85.4102 67.832 84.5195V72.1914ZM80.5469 85.5977C80.9609 85.5977 81.3281 85.5195 81.6484 85.3633C81.9688 85.1992 82.2188 84.9727 82.3984 84.6836C82.5859 84.3867 82.6836 84.0391 82.6914 83.6406H85.8672C85.8594 84.5312 85.6211 85.3242 85.1523 86.0195C84.6836 86.707 84.0547 87.25 83.2656 87.6484C82.4766 88.0391 81.5938 88.2344 80.6172 88.2344C79.6328 88.2344 78.7734 88.0703 78.0391 87.7422C77.3125 87.4141 76.707 86.9609 76.2227 86.3828C75.7383 85.7969 75.375 85.1172 75.1328 84.3438C74.8906 83.5625 74.7695 82.7266 74.7695 81.8359V81.4961C74.7695 80.5977 74.8906 79.7617 75.1328 78.9883C75.375 78.207 75.7383 77.5273 76.2227 76.9492C76.707 76.3633 77.3125 75.9062 78.0391 75.5781C78.7656 75.25 79.6172 75.0859 80.5938 75.0859C81.6328 75.0859 82.543 75.2852 83.3242 75.6836C84.1133 76.082 84.7305 76.6523 85.1758 77.3945C85.6289 78.1289 85.8594 79 85.8672 80.0078H82.6914C82.6836 79.5859 82.5938 79.2031 82.4219 78.8594C82.2578 78.5156 82.0156 78.2422 81.6953 78.0391C81.3828 77.8281 80.9961 77.7227 80.5352 77.7227C80.043 77.7227 79.6406 77.8281 79.3281 78.0391C79.0156 78.2422 78.7734 78.5234 78.6016 78.8828C78.4297 79.2344 78.3086 79.6367 78.2383 80.0898C78.1758 80.5352 78.1445 81.0039 78.1445 81.4961V81.8359C78.1445 82.3281 78.1758 82.8008 78.2383 83.2539C78.3008 83.707 78.418 84.1094 78.5898 84.4609C78.7695 84.8125 79.0156 85.0898 79.3281 85.293C79.6406 85.4961 80.0469 85.5977 80.5469 85.5977ZM91.1172 70V88H87.7422V70H91.1172ZM90.6367 81.2148H89.7109C89.7188 80.332 89.8359 79.5195 90.0625 78.7773C90.2891 78.0273 90.6133 77.3789 91.0352 76.832C91.457 76.2773 91.9609 75.8477 92.5469 75.543C93.1406 75.2383 93.7969 75.0859 94.5156 75.0859C95.1406 75.0859 95.707 75.1758 96.2148 75.3555C96.7305 75.5273 97.1719 75.8086 97.5391 76.1992C97.9141 76.582 98.2031 77.0859 98.4062 77.7109C98.6094 78.3359 98.7109 79.0938 98.7109 79.9844V88H95.3125V79.9609C95.3125 79.3984 95.2305 78.957 95.0664 78.6367C94.9102 78.3086 94.6797 78.0781 94.375 77.9453C94.0781 77.8047 93.7109 77.7344 93.2734 77.7344C92.7891 77.7344 92.375 77.8242 92.0312 78.0039C91.6953 78.1836 91.4258 78.4336 91.2227 78.7539C91.0195 79.0664 90.8711 79.4336 90.7773 79.8555C90.6836 80.2773 90.6367 80.7305 90.6367 81.2148Z" fill="#333333"/>
<g filter="url(#filter3_i_2068_3145)">
<rect x="15" y="172" width="110" height="56" rx="9" fill="#6DA9CD"/>
</g>
<rect x="15.5" y="172.5" width="109" height="55" rx="8.5" stroke="#6DA9CD"/>
<path d="M46.2461 190.938V208H42.7422V190.938H46.2461ZM51.4961 190.938V193.691H37.5742V190.938H51.4961ZM50.7109 201.789V201.543C50.7109 200.613 50.8438 199.758 51.1094 198.977C51.375 198.188 51.7617 197.504 52.2695 196.926C52.7773 196.348 53.4023 195.898 54.1445 195.578C54.8867 195.25 55.7383 195.086 56.6992 195.086C57.6602 195.086 58.5156 195.25 59.2656 195.578C60.0156 195.898 60.6445 196.348 61.1523 196.926C61.668 197.504 62.0586 198.188 62.3242 198.977C62.5898 199.758 62.7227 200.613 62.7227 201.543V201.789C62.7227 202.711 62.5898 203.566 62.3242 204.355C62.0586 205.137 61.668 205.82 61.1523 206.406C60.6445 206.984 60.0195 207.434 59.2773 207.754C58.5352 208.074 57.6836 208.234 56.7227 208.234C55.7617 208.234 54.9062 208.074 54.1562 207.754C53.4141 207.434 52.7852 206.984 52.2695 206.406C51.7617 205.82 51.375 205.137 51.1094 204.355C50.8438 203.566 50.7109 202.711 50.7109 201.789ZM54.0859 201.543V201.789C54.0859 202.32 54.1328 202.816 54.2266 203.277C54.3203 203.738 54.4688 204.145 54.6719 204.496C54.8828 204.84 55.1562 205.109 55.4922 205.305C55.8281 205.5 56.2383 205.598 56.7227 205.598C57.1914 205.598 57.5938 205.5 57.9297 205.305C58.2656 205.109 58.5352 204.84 58.7383 204.496C58.9414 204.145 59.0898 203.738 59.1836 203.277C59.2852 202.816 59.3359 202.32 59.3359 201.789V201.543C59.3359 201.027 59.2852 200.543 59.1836 200.09C59.0898 199.629 58.9375 199.223 58.7266 198.871C58.5234 198.512 58.2539 198.23 57.918 198.027C57.582 197.824 57.1758 197.723 56.6992 197.723C56.2227 197.723 55.8164 197.824 55.4805 198.027C55.1523 198.23 54.8828 198.512 54.6719 198.871C54.4688 199.223 54.3203 199.629 54.2266 200.09C54.1328 200.543 54.0859 201.027 54.0859 201.543ZM72.2969 204.965V195.32H75.6719V208H72.4961L72.2969 204.965ZM72.6719 202.363L73.668 202.34C73.668 203.184 73.5703 203.969 73.375 204.695C73.1797 205.414 72.8867 206.039 72.4961 206.57C72.1055 207.094 71.6133 207.504 71.0195 207.801C70.4258 208.09 69.7266 208.234 68.9219 208.234C68.3047 208.234 67.7344 208.148 67.2109 207.977C66.6953 207.797 66.25 207.52 65.875 207.145C65.5078 206.762 65.2188 206.273 65.0078 205.68C64.8047 205.078 64.7031 204.355 64.7031 203.512V195.32H68.0781V203.535C68.0781 203.91 68.1211 204.227 68.207 204.484C68.3008 204.742 68.4297 204.953 68.5938 205.117C68.7578 205.281 68.9492 205.398 69.168 205.469C69.3945 205.539 69.6445 205.574 69.918 205.574C70.6133 205.574 71.1602 205.434 71.5586 205.152C71.9648 204.871 72.25 204.488 72.4141 204.004C72.5859 203.512 72.6719 202.965 72.6719 202.363ZM83.4883 205.598C83.9023 205.598 84.2695 205.52 84.5898 205.363C84.9102 205.199 85.1602 204.973 85.3398 204.684C85.5273 204.387 85.625 204.039 85.6328 203.641H88.8086C88.8008 204.531 88.5625 205.324 88.0938 206.02C87.625 206.707 86.9961 207.25 86.207 207.648C85.418 208.039 84.5352 208.234 83.5586 208.234C82.5742 208.234 81.7148 208.07 80.9805 207.742C80.2539 207.414 79.6484 206.961 79.1641 206.383C78.6797 205.797 78.3164 205.117 78.0742 204.344C77.832 203.562 77.7109 202.727 77.7109 201.836V201.496C77.7109 200.598 77.832 199.762 78.0742 198.988C78.3164 198.207 78.6797 197.527 79.1641 196.949C79.6484 196.363 80.2539 195.906 80.9805 195.578C81.707 195.25 82.5586 195.086 83.5352 195.086C84.5742 195.086 85.4844 195.285 86.2656 195.684C87.0547 196.082 87.6719 196.652 88.1172 197.395C88.5703 198.129 88.8008 199 88.8086 200.008H85.6328C85.625 199.586 85.5352 199.203 85.3633 198.859C85.1992 198.516 84.957 198.242 84.6367 198.039C84.3242 197.828 83.9375 197.723 83.4766 197.723C82.9844 197.723 82.582 197.828 82.2695 198.039C81.957 198.242 81.7148 198.523 81.543 198.883C81.3711 199.234 81.25 199.637 81.1797 200.09C81.1172 200.535 81.0859 201.004 81.0859 201.496V201.836C81.0859 202.328 81.1172 202.801 81.1797 203.254C81.2422 203.707 81.3594 204.109 81.5312 204.461C81.7109 204.812 81.957 205.09 82.2695 205.293C82.582 205.496 82.9883 205.598 83.4883 205.598ZM94.0586 190V208H90.6836V190H94.0586ZM93.5781 201.215H92.6523C92.6602 200.332 92.7773 199.52 93.0039 198.777C93.2305 198.027 93.5547 197.379 93.9766 196.832C94.3984 196.277 94.9023 195.848 95.4883 195.543C96.082 195.238 96.7383 195.086 97.457 195.086C98.082 195.086 98.6484 195.176 99.1562 195.355C99.6719 195.527 100.113 195.809 100.48 196.199C100.855 196.582 101.145 197.086 101.348 197.711C101.551 198.336 101.652 199.094 101.652 199.984V208H98.2539V199.961C98.2539 199.398 98.1719 198.957 98.0078 198.637C97.8516 198.309 97.6211 198.078 97.3164 197.945C97.0195 197.805 96.6523 197.734 96.2148 197.734C95.7305 197.734 95.3164 197.824 94.9727 198.004C94.6367 198.184 94.3672 198.434 94.1641 198.754C93.9609 199.066 93.8125 199.434 93.7188 199.855C93.625 200.277 93.5781 200.73 93.5781 201.215Z" fill="#333333"/>
<g filter="url(#filter4_i_2068_3145)">
<rect x="175" y="172" width="110" height="56" rx="9" fill="#CC594F"/>
</g>
<rect x="175.5" y="172.5" width="109" height="55" rx="8.5" stroke="#CC594F"/>
<path d="M207.148 205.293L210.547 190.938H212.445L212.879 193.328L209.258 208H207.219L207.148 205.293ZM205.402 190.938L208.215 205.293L207.98 208H205.707L201.922 190.938H205.402ZM215.867 205.234L218.645 190.938H222.125L218.352 208H216.078L215.867 205.234ZM213.512 190.938L216.934 205.352L216.84 208H214.801L211.156 193.316L211.625 190.938H213.512ZM226.941 198.086V208H223.566V195.32H226.742L226.941 198.086ZM230.762 195.238L230.703 198.367C230.539 198.344 230.34 198.324 230.105 198.309C229.879 198.285 229.672 198.273 229.484 198.273C229.008 198.273 228.594 198.336 228.242 198.461C227.898 198.578 227.609 198.754 227.375 198.988C227.148 199.223 226.977 199.508 226.859 199.844C226.75 200.18 226.688 200.562 226.672 200.992L225.992 200.781C225.992 199.961 226.074 199.207 226.238 198.52C226.402 197.824 226.641 197.219 226.953 196.703C227.273 196.188 227.664 195.789 228.125 195.508C228.586 195.227 229.113 195.086 229.707 195.086C229.895 195.086 230.086 195.102 230.281 195.133C230.477 195.156 230.637 195.191 230.762 195.238ZM235.918 195.32V208H232.531V195.32H235.918ZM232.32 192.016C232.32 191.523 232.492 191.117 232.836 190.797C233.18 190.477 233.641 190.316 234.219 190.316C234.789 190.316 235.246 190.477 235.59 190.797C235.941 191.117 236.117 191.523 236.117 192.016C236.117 192.508 235.941 192.914 235.59 193.234C235.246 193.555 234.789 193.715 234.219 193.715C233.641 193.715 233.18 193.555 232.836 193.234C232.492 192.914 232.32 192.508 232.32 192.016ZM244.918 195.32V197.711H237.535V195.32H244.918ZM239.363 192.191H242.738V204.18C242.738 204.547 242.785 204.828 242.879 205.023C242.98 205.219 243.129 205.355 243.324 205.434C243.52 205.504 243.766 205.539 244.062 205.539C244.273 205.539 244.461 205.531 244.625 205.516C244.797 205.492 244.941 205.469 245.059 205.445L245.07 207.93C244.781 208.023 244.469 208.098 244.133 208.152C243.797 208.207 243.426 208.234 243.02 208.234C242.277 208.234 241.629 208.113 241.074 207.871C240.527 207.621 240.105 207.223 239.809 206.676C239.512 206.129 239.363 205.41 239.363 204.52V192.191ZM252.676 208.234C251.691 208.234 250.809 208.078 250.027 207.766C249.246 207.445 248.582 207.004 248.035 206.441C247.496 205.879 247.082 205.227 246.793 204.484C246.504 203.734 246.359 202.938 246.359 202.094V201.625C246.359 200.664 246.496 199.785 246.77 198.988C247.043 198.191 247.434 197.5 247.941 196.914C248.457 196.328 249.082 195.879 249.816 195.566C250.551 195.246 251.379 195.086 252.301 195.086C253.199 195.086 253.996 195.234 254.691 195.531C255.387 195.828 255.969 196.25 256.438 196.797C256.914 197.344 257.273 198 257.516 198.766C257.758 199.523 257.879 200.367 257.879 201.297V202.703H247.801V200.453H254.562V200.195C254.562 199.727 254.477 199.309 254.305 198.941C254.141 198.566 253.891 198.27 253.555 198.051C253.219 197.832 252.789 197.723 252.266 197.723C251.82 197.723 251.438 197.82 251.117 198.016C250.797 198.211 250.535 198.484 250.332 198.836C250.137 199.188 249.988 199.602 249.887 200.078C249.793 200.547 249.746 201.062 249.746 201.625V202.094C249.746 202.602 249.816 203.07 249.957 203.5C250.105 203.93 250.312 204.301 250.578 204.613C250.852 204.926 251.18 205.168 251.562 205.34C251.953 205.512 252.395 205.598 252.887 205.598C253.496 205.598 254.062 205.48 254.586 205.246C255.117 205.004 255.574 204.641 255.957 204.156L257.598 205.938C257.332 206.32 256.969 206.688 256.508 207.039C256.055 207.391 255.508 207.68 254.867 207.906C254.227 208.125 253.496 208.234 252.676 208.234Z" fill="#333333"/>
<g filter="url(#filter5_i_2068_3145)">
<rect x="335" y="172" width="110" height="56" rx="9" fill="#82B769"/>
</g>
<rect x="335.5" y="172.5" width="109" height="55" rx="8.5" stroke="#82B769"/>
<path d="M364.172 190.938H370.535C371.84 190.938 372.961 191.133 373.898 191.523C374.844 191.914 375.57 192.492 376.078 193.258C376.586 194.023 376.84 194.965 376.84 196.082C376.84 196.996 376.684 197.781 376.371 198.438C376.066 199.086 375.633 199.629 375.07 200.066C374.516 200.496 373.863 200.84 373.113 201.098L372 201.684H366.469L366.445 198.941H370.559C371.176 198.941 371.688 198.832 372.094 198.613C372.5 198.395 372.805 198.09 373.008 197.699C373.219 197.309 373.324 196.855 373.324 196.34C373.324 195.793 373.223 195.32 373.02 194.922C372.816 194.523 372.508 194.219 372.094 194.008C371.68 193.797 371.16 193.691 370.535 193.691H367.688V208H364.172V190.938ZM373.711 208L369.82 200.395L373.535 200.371L377.473 207.836V208H373.711ZM385.172 208.234C384.188 208.234 383.305 208.078 382.523 207.766C381.742 207.445 381.078 207.004 380.531 206.441C379.992 205.879 379.578 205.227 379.289 204.484C379 203.734 378.855 202.938 378.855 202.094V201.625C378.855 200.664 378.992 199.785 379.266 198.988C379.539 198.191 379.93 197.5 380.438 196.914C380.953 196.328 381.578 195.879 382.312 195.566C383.047 195.246 383.875 195.086 384.797 195.086C385.695 195.086 386.492 195.234 387.188 195.531C387.883 195.828 388.465 196.25 388.934 196.797C389.41 197.344 389.77 198 390.012 198.766C390.254 199.523 390.375 200.367 390.375 201.297V202.703H380.297V200.453H387.059V200.195C387.059 199.727 386.973 199.309 386.801 198.941C386.637 198.566 386.387 198.27 386.051 198.051C385.715 197.832 385.285 197.723 384.762 197.723C384.316 197.723 383.934 197.82 383.613 198.016C383.293 198.211 383.031 198.484 382.828 198.836C382.633 199.188 382.484 199.602 382.383 200.078C382.289 200.547 382.242 201.062 382.242 201.625V202.094C382.242 202.602 382.312 203.07 382.453 203.5C382.602 203.93 382.809 204.301 383.074 204.613C383.348 204.926 383.676 205.168 384.059 205.34C384.449 205.512 384.891 205.598 385.383 205.598C385.992 205.598 386.559 205.48 387.082 205.246C387.613 205.004 388.07 204.641 388.453 204.156L390.094 205.938C389.828 206.32 389.465 206.688 389.004 207.039C388.551 207.391 388.004 207.68 387.363 207.906C386.723 208.125 385.992 208.234 385.172 208.234ZM399.141 205.141V199.492C399.141 199.086 399.074 198.738 398.941 198.449C398.809 198.152 398.602 197.922 398.32 197.758C398.047 197.594 397.691 197.512 397.254 197.512C396.879 197.512 396.555 197.578 396.281 197.711C396.008 197.836 395.797 198.02 395.648 198.262C395.5 198.496 395.426 198.773 395.426 199.094H392.051C392.051 198.555 392.176 198.043 392.426 197.559C392.676 197.074 393.039 196.648 393.516 196.281C393.992 195.906 394.559 195.613 395.215 195.402C395.879 195.191 396.621 195.086 397.441 195.086C398.426 195.086 399.301 195.25 400.066 195.578C400.832 195.906 401.434 196.398 401.871 197.055C402.316 197.711 402.539 198.531 402.539 199.516V204.941C402.539 205.637 402.582 206.207 402.668 206.652C402.754 207.09 402.879 207.473 403.043 207.801V208H399.633C399.469 207.656 399.344 207.227 399.258 206.711C399.18 206.188 399.141 205.664 399.141 205.141ZM399.586 200.277L399.609 202.188H397.723C397.277 202.188 396.891 202.238 396.562 202.34C396.234 202.441 395.965 202.586 395.754 202.773C395.543 202.953 395.387 203.164 395.285 203.406C395.191 203.648 395.145 203.914 395.145 204.203C395.145 204.492 395.211 204.754 395.344 204.988C395.477 205.215 395.668 205.395 395.918 205.527C396.168 205.652 396.461 205.715 396.797 205.715C397.305 205.715 397.746 205.613 398.121 205.41C398.496 205.207 398.785 204.957 398.988 204.66C399.199 204.363 399.309 204.082 399.316 203.816L400.207 205.246C400.082 205.566 399.91 205.898 399.691 206.242C399.48 206.586 399.211 206.91 398.883 207.215C398.555 207.512 398.16 207.758 397.699 207.953C397.238 208.141 396.691 208.234 396.059 208.234C395.254 208.234 394.523 208.074 393.867 207.754C393.219 207.426 392.703 206.977 392.32 206.406C391.945 205.828 391.758 205.172 391.758 204.438C391.758 203.773 391.883 203.184 392.133 202.668C392.383 202.152 392.75 201.719 393.234 201.367C393.727 201.008 394.34 200.738 395.074 200.559C395.809 200.371 396.66 200.277 397.629 200.277H399.586ZM412.629 205.234V190H416.027V208H412.969L412.629 205.234ZM404.613 201.812V201.566C404.613 200.598 404.723 199.719 404.941 198.93C405.16 198.133 405.48 197.449 405.902 196.879C406.324 196.309 406.844 195.867 407.461 195.555C408.078 195.242 408.781 195.086 409.57 195.086C410.312 195.086 410.961 195.242 411.516 195.555C412.078 195.867 412.555 196.312 412.945 196.891C413.344 197.461 413.664 198.137 413.906 198.918C414.148 199.691 414.324 200.539 414.434 201.461V202C414.324 202.883 414.148 203.703 413.906 204.461C413.664 205.219 413.344 205.883 412.945 206.453C412.555 207.016 412.078 207.453 411.516 207.766C410.953 208.078 410.297 208.234 409.547 208.234C408.758 208.234 408.055 208.074 407.438 207.754C406.828 207.434 406.312 206.984 405.891 206.406C405.477 205.828 405.16 205.148 404.941 204.367C404.723 203.586 404.613 202.734 404.613 201.812ZM407.988 201.566V201.812C407.988 202.336 408.027 202.824 408.105 203.277C408.191 203.73 408.328 204.133 408.516 204.484C408.711 204.828 408.961 205.098 409.266 205.293C409.578 205.48 409.957 205.574 410.402 205.574C410.98 205.574 411.457 205.445 411.832 205.188C412.207 204.922 412.492 204.559 412.688 204.098C412.891 203.637 413.008 203.105 413.039 202.504V200.969C413.016 200.477 412.945 200.035 412.828 199.645C412.719 199.246 412.555 198.906 412.336 198.625C412.125 198.344 411.859 198.125 411.539 197.969C411.227 197.812 410.855 197.734 410.426 197.734C409.988 197.734 409.613 197.836 409.301 198.039C408.988 198.234 408.734 198.504 408.539 198.848C408.352 199.191 408.211 199.598 408.117 200.066C408.031 200.527 407.988 201.027 407.988 201.566Z" fill="#333333"/>
<rect x="28" y="117" width="84" height="21" fill="#596266"/>
<path d="M60.2812 130.125C60.2812 129.859 60.2396 129.625 60.1562 129.422C60.0781 129.214 59.9375 129.026 59.7344 128.859C59.5365 128.693 59.2604 128.534 58.9062 128.383C58.5573 128.232 58.1146 128.078 57.5781 127.922C57.0156 127.755 56.5078 127.57 56.0547 127.367C55.6016 127.159 55.2135 126.922 54.8906 126.656C54.5677 126.391 54.3203 126.086 54.1484 125.742C53.9766 125.398 53.8906 125.005 53.8906 124.562C53.8906 124.12 53.9818 123.711 54.1641 123.336C54.3464 122.961 54.6068 122.635 54.9453 122.359C55.2891 122.078 55.6979 121.859 56.1719 121.703C56.6458 121.547 57.1745 121.469 57.7578 121.469C58.612 121.469 59.3359 121.633 59.9297 121.961C60.5286 122.284 60.9844 122.708 61.2969 123.234C61.6094 123.755 61.7656 124.312 61.7656 124.906H60.2656C60.2656 124.479 60.1745 124.102 59.9922 123.773C59.8099 123.44 59.5339 123.18 59.1641 122.992C58.7943 122.799 58.3255 122.703 57.7578 122.703C57.2214 122.703 56.7786 122.784 56.4297 122.945C56.0807 123.107 55.8203 123.326 55.6484 123.602C55.4818 123.878 55.3984 124.193 55.3984 124.547C55.3984 124.786 55.4479 125.005 55.5469 125.203C55.651 125.396 55.8099 125.576 56.0234 125.742C56.2422 125.909 56.5182 126.062 56.8516 126.203C57.1901 126.344 57.5938 126.479 58.0625 126.609C58.7083 126.792 59.2656 126.995 59.7344 127.219C60.2031 127.443 60.5885 127.695 60.8906 127.977C61.1979 128.253 61.4245 128.568 61.5703 128.922C61.7214 129.271 61.7969 129.667 61.7969 130.109C61.7969 130.573 61.7031 130.992 61.5156 131.367C61.3281 131.742 61.0599 132.062 60.7109 132.328C60.362 132.594 59.9427 132.799 59.4531 132.945C58.9688 133.086 58.4271 133.156 57.8281 133.156C57.3021 133.156 56.7839 133.083 56.2734 132.938C55.7682 132.792 55.3073 132.573 54.8906 132.281C54.4792 131.99 54.1484 131.63 53.8984 131.203C53.6536 130.771 53.5312 130.271 53.5312 129.703H55.0312C55.0312 130.094 55.1068 130.43 55.2578 130.711C55.4089 130.987 55.6146 131.216 55.875 131.398C56.1406 131.581 56.4401 131.716 56.7734 131.805C57.112 131.888 57.4635 131.93 57.8281 131.93C58.3542 131.93 58.7995 131.857 59.1641 131.711C59.5286 131.565 59.8047 131.357 59.9922 131.086C60.1849 130.815 60.2812 130.495 60.2812 130.125ZM68.4844 131.555V127.203C68.4844 126.87 68.4167 126.581 68.2812 126.336C68.151 126.086 67.9531 125.893 67.6875 125.758C67.4219 125.622 67.0938 125.555 66.7031 125.555C66.3385 125.555 66.0182 125.617 65.7422 125.742C65.4714 125.867 65.2578 126.031 65.1016 126.234C64.9505 126.438 64.875 126.656 64.875 126.891H63.4297C63.4297 126.589 63.5078 126.289 63.6641 125.992C63.8203 125.695 64.0443 125.427 64.3359 125.188C64.6328 124.943 64.987 124.75 65.3984 124.609C65.8151 124.464 66.2786 124.391 66.7891 124.391C67.4036 124.391 67.9453 124.495 68.4141 124.703C68.888 124.911 69.2578 125.227 69.5234 125.648C69.7943 126.065 69.9297 126.589 69.9297 127.219V131.156C69.9297 131.438 69.9531 131.737 70 132.055C70.0521 132.372 70.1276 132.646 70.2266 132.875V133H68.7188C68.6458 132.833 68.5885 132.612 68.5469 132.336C68.5052 132.055 68.4844 131.794 68.4844 131.555ZM68.7344 127.875L68.75 128.891H67.2891C66.8776 128.891 66.5104 128.924 66.1875 128.992C65.8646 129.055 65.5938 129.151 65.375 129.281C65.1562 129.411 64.9896 129.576 64.875 129.773C64.7604 129.966 64.7031 130.193 64.7031 130.453C64.7031 130.719 64.763 130.961 64.8828 131.18C65.0026 131.398 65.1823 131.573 65.4219 131.703C65.6667 131.828 65.9661 131.891 66.3203 131.891C66.763 131.891 67.1536 131.797 67.4922 131.609C67.8307 131.422 68.099 131.193 68.2969 130.922C68.5 130.651 68.6094 130.388 68.625 130.133L69.2422 130.828C69.2057 131.047 69.1068 131.289 68.9453 131.555C68.7839 131.82 68.5677 132.076 68.2969 132.32C68.0312 132.56 67.7135 132.76 67.3438 132.922C66.9792 133.078 66.5677 133.156 66.1094 133.156C65.5365 133.156 65.0339 133.044 64.6016 132.82C64.1745 132.596 63.8411 132.297 63.6016 131.922C63.3672 131.542 63.25 131.117 63.25 130.648C63.25 130.195 63.3385 129.797 63.5156 129.453C63.6927 129.104 63.9479 128.815 64.2812 128.586C64.6146 128.352 65.0156 128.174 65.4844 128.055C65.9531 127.935 66.4766 127.875 67.0547 127.875H68.7344ZM74.6484 131.695L76.9609 124.547H78.4375L75.3984 133H74.4297L74.6484 131.695ZM72.7188 124.547L75.1016 131.734L75.2656 133H74.2969L71.2344 124.547H72.7188ZM83.2266 133.156C82.638 133.156 82.1042 133.057 81.625 132.859C81.151 132.656 80.7422 132.372 80.3984 132.008C80.0599 131.643 79.7995 131.211 79.6172 130.711C79.4349 130.211 79.3438 129.664 79.3438 129.07V128.742C79.3438 128.055 79.4453 127.443 79.6484 126.906C79.8516 126.365 80.1276 125.906 80.4766 125.531C80.8255 125.156 81.2214 124.872 81.6641 124.68C82.1068 124.487 82.5651 124.391 83.0391 124.391C83.6432 124.391 84.1641 124.495 84.6016 124.703C85.0443 124.911 85.4062 125.203 85.6875 125.578C85.9688 125.948 86.1771 126.385 86.3125 126.891C86.4479 127.391 86.5156 127.938 86.5156 128.531V129.18H80.2031V128H85.0703V127.891C85.0495 127.516 84.9714 127.151 84.8359 126.797C84.7057 126.443 84.4974 126.151 84.2109 125.922C83.9245 125.693 83.5339 125.578 83.0391 125.578C82.7109 125.578 82.4089 125.648 82.1328 125.789C81.8568 125.924 81.6198 126.128 81.4219 126.398C81.224 126.669 81.0703 127 80.9609 127.391C80.8516 127.781 80.7969 128.232 80.7969 128.742V129.07C80.7969 129.471 80.8516 129.849 80.9609 130.203C81.0755 130.552 81.2396 130.859 81.4531 131.125C81.6719 131.391 81.9349 131.599 82.2422 131.75C82.5547 131.901 82.9089 131.977 83.3047 131.977C83.8151 131.977 84.2474 131.872 84.6016 131.664C84.9557 131.456 85.2656 131.177 85.5312 130.828L86.4062 131.523C86.224 131.799 85.9922 132.062 85.7109 132.312C85.4297 132.562 85.0833 132.766 84.6719 132.922C84.2656 133.078 83.7839 133.156 83.2266 133.156Z" fill="white"/>
<rect x="189" y="117" width="84" height="21" fill="#596266"/>
<path d="M214.07 121.625H217.836C218.69 121.625 219.411 121.755 220 122.016C220.594 122.276 221.044 122.661 221.352 123.172C221.664 123.677 221.82 124.299 221.82 125.039C221.82 125.56 221.714 126.036 221.5 126.469C221.292 126.896 220.99 127.26 220.594 127.562C220.203 127.859 219.734 128.081 219.188 128.227L218.766 128.391H215.227L215.211 127.164H217.883C218.424 127.164 218.875 127.07 219.234 126.883C219.594 126.69 219.865 126.432 220.047 126.109C220.229 125.786 220.32 125.43 220.32 125.039C220.32 124.602 220.234 124.219 220.062 123.891C219.891 123.562 219.62 123.31 219.25 123.133C218.885 122.951 218.414 122.859 217.836 122.859H215.578V133H214.07V121.625ZM220.719 133L217.953 127.844L219.523 127.836L222.328 132.906V133H220.719ZM227.219 133.156C226.63 133.156 226.096 133.057 225.617 132.859C225.143 132.656 224.734 132.372 224.391 132.008C224.052 131.643 223.792 131.211 223.609 130.711C223.427 130.211 223.336 129.664 223.336 129.07V128.742C223.336 128.055 223.438 127.443 223.641 126.906C223.844 126.365 224.12 125.906 224.469 125.531C224.818 125.156 225.214 124.872 225.656 124.68C226.099 124.487 226.557 124.391 227.031 124.391C227.635 124.391 228.156 124.495 228.594 124.703C229.036 124.911 229.398 125.203 229.68 125.578C229.961 125.948 230.169 126.385 230.305 126.891C230.44 127.391 230.508 127.938 230.508 128.531V129.18H224.195V128H229.062V127.891C229.042 127.516 228.964 127.151 228.828 126.797C228.698 126.443 228.49 126.151 228.203 125.922C227.917 125.693 227.526 125.578 227.031 125.578C226.703 125.578 226.401 125.648 226.125 125.789C225.849 125.924 225.612 126.128 225.414 126.398C225.216 126.669 225.062 127 224.953 127.391C224.844 127.781 224.789 128.232 224.789 128.742V129.07C224.789 129.471 224.844 129.849 224.953 130.203C225.068 130.552 225.232 130.859 225.445 131.125C225.664 131.391 225.927 131.599 226.234 131.75C226.547 131.901 226.901 131.977 227.297 131.977C227.807 131.977 228.24 131.872 228.594 131.664C228.948 131.456 229.258 131.177 229.523 130.828L230.398 131.523C230.216 131.799 229.984 132.062 229.703 132.312C229.422 132.562 229.076 132.766 228.664 132.922C228.258 133.078 227.776 133.156 227.219 133.156ZM237.523 131.359V121H238.977V133H237.648L237.523 131.359ZM231.836 128.867V128.703C231.836 128.057 231.914 127.471 232.07 126.945C232.232 126.414 232.458 125.958 232.75 125.578C233.047 125.198 233.398 124.906 233.805 124.703C234.216 124.495 234.674 124.391 235.18 124.391C235.711 124.391 236.174 124.484 236.57 124.672C236.971 124.854 237.31 125.122 237.586 125.477C237.867 125.826 238.089 126.247 238.25 126.742C238.411 127.237 238.523 127.797 238.586 128.422V129.141C238.529 129.76 238.417 130.318 238.25 130.812C238.089 131.307 237.867 131.729 237.586 132.078C237.31 132.427 236.971 132.695 236.57 132.883C236.169 133.065 235.701 133.156 235.164 133.156C234.669 133.156 234.216 133.049 233.805 132.836C233.398 132.622 233.047 132.323 232.75 131.938C232.458 131.552 232.232 131.099 232.07 130.578C231.914 130.052 231.836 129.482 231.836 128.867ZM233.289 128.703V128.867C233.289 129.289 233.331 129.685 233.414 130.055C233.503 130.424 233.638 130.75 233.82 131.031C234.003 131.312 234.234 131.534 234.516 131.695C234.797 131.852 235.133 131.93 235.523 131.93C236.003 131.93 236.396 131.828 236.703 131.625C237.016 131.422 237.266 131.154 237.453 130.82C237.641 130.487 237.786 130.125 237.891 129.734V127.852C237.828 127.565 237.737 127.289 237.617 127.023C237.503 126.753 237.352 126.513 237.164 126.305C236.982 126.091 236.755 125.922 236.484 125.797C236.219 125.672 235.904 125.609 235.539 125.609C235.143 125.609 234.802 125.693 234.516 125.859C234.234 126.021 234.003 126.245 233.82 126.531C233.638 126.812 233.503 127.141 233.414 127.516C233.331 127.885 233.289 128.281 233.289 128.703ZM240.844 128.867V128.688C240.844 128.078 240.932 127.513 241.109 126.992C241.286 126.466 241.542 126.01 241.875 125.625C242.208 125.234 242.612 124.932 243.086 124.719C243.56 124.5 244.091 124.391 244.68 124.391C245.273 124.391 245.807 124.5 246.281 124.719C246.76 124.932 247.167 125.234 247.5 125.625C247.839 126.01 248.096 126.466 248.273 126.992C248.451 127.513 248.539 128.078 248.539 128.688V128.867C248.539 129.477 248.451 130.042 248.273 130.562C248.096 131.083 247.839 131.539 247.5 131.93C247.167 132.315 246.763 132.617 246.289 132.836C245.82 133.049 245.289 133.156 244.695 133.156C244.102 133.156 243.568 133.049 243.094 132.836C242.62 132.617 242.214 132.315 241.875 131.93C241.542 131.539 241.286 131.083 241.109 130.562C240.932 130.042 240.844 129.477 240.844 128.867ZM242.289 128.688V128.867C242.289 129.289 242.339 129.688 242.438 130.062C242.536 130.432 242.685 130.76 242.883 131.047C243.086 131.333 243.339 131.56 243.641 131.727C243.943 131.888 244.294 131.969 244.695 131.969C245.091 131.969 245.438 131.888 245.734 131.727C246.036 131.56 246.286 131.333 246.484 131.047C246.682 130.76 246.831 130.432 246.93 130.062C247.034 129.688 247.086 129.289 247.086 128.867V128.688C247.086 128.271 247.034 127.878 246.93 127.508C246.831 127.133 246.68 126.802 246.477 126.516C246.279 126.224 246.029 125.995 245.727 125.828C245.43 125.661 245.081 125.578 244.68 125.578C244.284 125.578 243.935 125.661 243.633 125.828C243.336 125.995 243.086 126.224 242.883 126.516C242.685 126.802 242.536 127.133 242.438 127.508C242.339 127.878 242.289 128.271 242.289 128.688Z" fill="white"/>
<rect x="348" y="117" width="84" height="21" fill="#596266"/>
<path d="M379.141 121.625H380.641V129.32C380.641 130.174 380.451 130.885 380.07 131.453C379.69 132.021 379.185 132.448 378.555 132.734C377.93 133.016 377.25 133.156 376.516 133.156C375.745 133.156 375.047 133.016 374.422 132.734C373.802 132.448 373.31 132.021 372.945 131.453C372.586 130.885 372.406 130.174 372.406 129.32V121.625H373.898V129.32C373.898 129.914 374.008 130.404 374.227 130.789C374.445 131.174 374.75 131.461 375.141 131.648C375.536 131.836 375.995 131.93 376.516 131.93C377.042 131.93 377.5 131.836 377.891 131.648C378.286 131.461 378.594 131.174 378.812 130.789C379.031 130.404 379.141 129.914 379.141 129.32V121.625ZM384.234 126.352V133H382.789V124.547H384.156L384.234 126.352ZM383.891 128.453L383.289 128.43C383.294 127.852 383.38 127.318 383.547 126.828C383.714 126.333 383.948 125.904 384.25 125.539C384.552 125.174 384.911 124.893 385.328 124.695C385.75 124.492 386.216 124.391 386.727 124.391C387.143 124.391 387.518 124.448 387.852 124.562C388.185 124.672 388.469 124.849 388.703 125.094C388.943 125.339 389.125 125.656 389.25 126.047C389.375 126.432 389.438 126.904 389.438 127.461V133H387.984V127.445C387.984 127.003 387.919 126.648 387.789 126.383C387.659 126.112 387.469 125.917 387.219 125.797C386.969 125.672 386.661 125.609 386.297 125.609C385.938 125.609 385.609 125.685 385.312 125.836C385.021 125.987 384.768 126.195 384.555 126.461C384.346 126.727 384.182 127.031 384.062 127.375C383.948 127.714 383.891 128.073 383.891 128.453ZM396.961 131.359V121H398.414V133H397.086L396.961 131.359ZM391.273 128.867V128.703C391.273 128.057 391.352 127.471 391.508 126.945C391.669 126.414 391.896 125.958 392.188 125.578C392.484 125.198 392.836 124.906 393.242 124.703C393.654 124.495 394.112 124.391 394.617 124.391C395.148 124.391 395.612 124.484 396.008 124.672C396.409 124.854 396.747 125.122 397.023 125.477C397.305 125.826 397.526 126.247 397.688 126.742C397.849 127.237 397.961 127.797 398.023 128.422V129.141C397.966 129.76 397.854 130.318 397.688 130.812C397.526 131.307 397.305 131.729 397.023 132.078C396.747 132.427 396.409 132.695 396.008 132.883C395.607 133.065 395.138 133.156 394.602 133.156C394.107 133.156 393.654 133.049 393.242 132.836C392.836 132.622 392.484 132.323 392.188 131.938C391.896 131.552 391.669 131.099 391.508 130.578C391.352 130.052 391.273 129.482 391.273 128.867ZM392.727 128.703V128.867C392.727 129.289 392.768 129.685 392.852 130.055C392.94 130.424 393.076 130.75 393.258 131.031C393.44 131.312 393.672 131.534 393.953 131.695C394.234 131.852 394.57 131.93 394.961 131.93C395.44 131.93 395.833 131.828 396.141 131.625C396.453 131.422 396.703 131.154 396.891 130.82C397.078 130.487 397.224 130.125 397.328 129.734V127.852C397.266 127.565 397.174 127.289 397.055 127.023C396.94 126.753 396.789 126.513 396.602 126.305C396.419 126.091 396.193 125.922 395.922 125.797C395.656 125.672 395.341 125.609 394.977 125.609C394.581 125.609 394.24 125.693 393.953 125.859C393.672 126.021 393.44 126.245 393.258 126.531C393.076 126.812 392.94 127.141 392.852 127.516C392.768 127.885 392.727 128.281 392.727 128.703ZM400.281 128.867V128.688C400.281 128.078 400.37 127.513 400.547 126.992C400.724 126.466 400.979 126.01 401.312 125.625C401.646 125.234 402.049 124.932 402.523 124.719C402.997 124.5 403.529 124.391 404.117 124.391C404.711 124.391 405.245 124.5 405.719 124.719C406.198 124.932 406.604 125.234 406.938 125.625C407.276 126.01 407.534 126.466 407.711 126.992C407.888 127.513 407.977 128.078 407.977 128.688V128.867C407.977 129.477 407.888 130.042 407.711 130.562C407.534 131.083 407.276 131.539 406.938 131.93C406.604 132.315 406.201 132.617 405.727 132.836C405.258 133.049 404.727 133.156 404.133 133.156C403.539 133.156 403.005 133.049 402.531 132.836C402.057 132.617 401.651 132.315 401.312 131.93C400.979 131.539 400.724 131.083 400.547 130.562C400.37 130.042 400.281 129.477 400.281 128.867ZM401.727 128.688V128.867C401.727 129.289 401.776 129.688 401.875 130.062C401.974 130.432 402.122 130.76 402.32 131.047C402.523 131.333 402.776 131.56 403.078 131.727C403.38 131.888 403.732 131.969 404.133 131.969C404.529 131.969 404.875 131.888 405.172 131.727C405.474 131.56 405.724 131.333 405.922 131.047C406.12 130.76 406.268 130.432 406.367 130.062C406.471 129.688 406.523 129.289 406.523 128.867V128.688C406.523 128.271 406.471 127.878 406.367 127.508C406.268 127.133 406.117 126.802 405.914 126.516C405.716 126.224 405.466 125.995 405.164 125.828C404.867 125.661 404.518 125.578 404.117 125.578C403.721 125.578 403.372 125.661 403.07 125.828C402.773 125.995 402.523 126.224 402.32 126.516C402.122 126.802 401.974 127.133 401.875 127.508C401.776 127.878 401.727 128.271 401.727 128.688Z" fill="white"/>
<rect x="28" y="237" width="84" height="21" fill="#596266"/>
<path d="M55.0703 241.625H56.5703V249.32C56.5703 250.174 56.3802 250.885 56 251.453C55.6198 252.021 55.1146 252.448 54.4844 252.734C53.8594 253.016 53.1797 253.156 52.4453 253.156C51.6745 253.156 50.9766 253.016 50.3516 252.734C49.7318 252.448 49.2396 252.021 48.875 251.453C48.5156 250.885 48.3359 250.174 48.3359 249.32V241.625H49.8281V249.32C49.8281 249.914 49.9375 250.404 50.1562 250.789C50.375 251.174 50.6797 251.461 51.0703 251.648C51.4661 251.836 51.9245 251.93 52.4453 251.93C52.9714 251.93 53.4297 251.836 53.8203 251.648C54.2161 251.461 54.5234 251.174 54.7422 250.789C54.9609 250.404 55.0703 249.914 55.0703 249.32V241.625ZM63.6406 250.758C63.6406 250.549 63.5938 250.357 63.5 250.18C63.4115 249.997 63.2266 249.833 62.9453 249.688C62.6693 249.536 62.2526 249.406 61.6953 249.297C61.2266 249.198 60.8021 249.081 60.4219 248.945C60.0469 248.81 59.7266 248.646 59.4609 248.453C59.2005 248.26 59 248.034 58.8594 247.773C58.7188 247.513 58.6484 247.208 58.6484 246.859C58.6484 246.526 58.7214 246.211 58.8672 245.914C59.0182 245.617 59.2292 245.354 59.5 245.125C59.776 244.896 60.1068 244.716 60.4922 244.586C60.8776 244.456 61.3073 244.391 61.7812 244.391C62.4583 244.391 63.0365 244.51 63.5156 244.75C63.9948 244.99 64.362 245.31 64.6172 245.711C64.8724 246.107 65 246.547 65 247.031H63.5547C63.5547 246.797 63.4844 246.57 63.3438 246.352C63.2083 246.128 63.0078 245.943 62.7422 245.797C62.4818 245.651 62.1615 245.578 61.7812 245.578C61.3802 245.578 61.0547 245.641 60.8047 245.766C60.5599 245.885 60.3802 246.039 60.2656 246.227C60.1562 246.414 60.1016 246.612 60.1016 246.82C60.1016 246.977 60.1276 247.117 60.1797 247.242C60.237 247.362 60.3359 247.474 60.4766 247.578C60.6172 247.677 60.8151 247.771 61.0703 247.859C61.3255 247.948 61.651 248.036 62.0469 248.125C62.7396 248.281 63.3099 248.469 63.7578 248.688C64.2057 248.906 64.5391 249.174 64.7578 249.492C64.9766 249.81 65.0859 250.195 65.0859 250.648C65.0859 251.018 65.0078 251.357 64.8516 251.664C64.7005 251.971 64.4792 252.237 64.1875 252.461C63.901 252.68 63.5573 252.852 63.1562 252.977C62.7604 253.096 62.3151 253.156 61.8203 253.156C61.0755 253.156 60.4453 253.023 59.9297 252.758C59.4141 252.492 59.0234 252.148 58.7578 251.727C58.4922 251.305 58.3594 250.859 58.3594 250.391H59.8125C59.8333 250.786 59.9479 251.102 60.1562 251.336C60.3646 251.565 60.6198 251.729 60.9219 251.828C61.224 251.922 61.5234 251.969 61.8203 251.969C62.2161 251.969 62.5469 251.917 62.8125 251.812C63.0833 251.708 63.2891 251.565 63.4297 251.383C63.5703 251.201 63.6406 250.992 63.6406 250.758ZM70.4922 253.156C69.9036 253.156 69.3698 253.057 68.8906 252.859C68.4167 252.656 68.0078 252.372 67.6641 252.008C67.3255 251.643 67.0651 251.211 66.8828 250.711C66.7005 250.211 66.6094 249.664 66.6094 249.07V248.742C66.6094 248.055 66.7109 247.443 66.9141 246.906C67.1172 246.365 67.3932 245.906 67.7422 245.531C68.0911 245.156 68.487 244.872 68.9297 244.68C69.3724 244.487 69.8307 244.391 70.3047 244.391C70.9089 244.391 71.4297 244.495 71.8672 244.703C72.3099 244.911 72.6719 245.203 72.9531 245.578C73.2344 245.948 73.4427 246.385 73.5781 246.891C73.7135 247.391 73.7812 247.938 73.7812 248.531V249.18H67.4688V248H72.3359V247.891C72.3151 247.516 72.237 247.151 72.1016 246.797C71.9714 246.443 71.763 246.151 71.4766 245.922C71.1901 245.693 70.7995 245.578 70.3047 245.578C69.9766 245.578 69.6745 245.648 69.3984 245.789C69.1224 245.924 68.8854 246.128 68.6875 246.398C68.4896 246.669 68.3359 247 68.2266 247.391C68.1172 247.781 68.0625 248.232 68.0625 248.742V249.07C68.0625 249.471 68.1172 249.849 68.2266 250.203C68.3411 250.552 68.5052 250.859 68.7188 251.125C68.9375 251.391 69.2005 251.599 69.5078 251.75C69.8203 251.901 70.1745 251.977 70.5703 251.977C71.0807 251.977 71.513 251.872 71.8672 251.664C72.2214 251.456 72.5312 251.177 72.7969 250.828L73.6719 251.523C73.4896 251.799 73.2578 252.062 72.9766 252.312C72.6953 252.562 72.349 252.766 71.9375 252.922C71.5312 253.078 71.0495 253.156 70.4922 253.156ZM76.9141 245.875V253H75.4688V244.547H76.875L76.9141 245.875ZM79.5547 244.5L79.5469 245.844C79.4271 245.818 79.3125 245.802 79.2031 245.797C79.099 245.786 78.9792 245.781 78.8438 245.781C78.5104 245.781 78.2161 245.833 77.9609 245.938C77.7057 246.042 77.4896 246.188 77.3125 246.375C77.1354 246.562 76.9948 246.786 76.8906 247.047C76.7917 247.302 76.7266 247.583 76.6953 247.891L76.2891 248.125C76.2891 247.615 76.3385 247.135 76.4375 246.688C76.5417 246.24 76.7005 245.844 76.9141 245.5C77.1276 245.151 77.3984 244.88 77.7266 244.688C78.0599 244.49 78.4557 244.391 78.9141 244.391C79.0182 244.391 79.138 244.404 79.2734 244.43C79.4089 244.451 79.5026 244.474 79.5547 244.5ZM89.4531 241.562V253H88.0078V243.367L85.0938 244.43V243.125L89.2266 241.562H89.4531Z" fill="white"/>
<rect x="189" y="237" width="84" height="21" fill="#596266"/>
<path d="M216.07 241.625H217.57V249.32C217.57 250.174 217.38 250.885 217 251.453C216.62 252.021 216.115 252.448 215.484 252.734C214.859 253.016 214.18 253.156 213.445 253.156C212.674 253.156 211.977 253.016 211.352 252.734C210.732 252.448 210.24 252.021 209.875 251.453C209.516 250.885 209.336 250.174 209.336 249.32V241.625H210.828V249.32C210.828 249.914 210.938 250.404 211.156 250.789C211.375 251.174 211.68 251.461 212.07 251.648C212.466 251.836 212.924 251.93 213.445 251.93C213.971 251.93 214.43 251.836 214.82 251.648C215.216 251.461 215.523 251.174 215.742 250.789C215.961 250.404 216.07 249.914 216.07 249.32V241.625ZM224.641 250.758C224.641 250.549 224.594 250.357 224.5 250.18C224.411 249.997 224.227 249.833 223.945 249.688C223.669 249.536 223.253 249.406 222.695 249.297C222.227 249.198 221.802 249.081 221.422 248.945C221.047 248.81 220.727 248.646 220.461 248.453C220.201 248.26 220 248.034 219.859 247.773C219.719 247.513 219.648 247.208 219.648 246.859C219.648 246.526 219.721 246.211 219.867 245.914C220.018 245.617 220.229 245.354 220.5 245.125C220.776 244.896 221.107 244.716 221.492 244.586C221.878 244.456 222.307 244.391 222.781 244.391C223.458 244.391 224.036 244.51 224.516 244.75C224.995 244.99 225.362 245.31 225.617 245.711C225.872 246.107 226 246.547 226 247.031H224.555C224.555 246.797 224.484 246.57 224.344 246.352C224.208 246.128 224.008 245.943 223.742 245.797C223.482 245.651 223.161 245.578 222.781 245.578C222.38 245.578 222.055 245.641 221.805 245.766C221.56 245.885 221.38 246.039 221.266 246.227C221.156 246.414 221.102 246.612 221.102 246.82C221.102 246.977 221.128 247.117 221.18 247.242C221.237 247.362 221.336 247.474 221.477 247.578C221.617 247.677 221.815 247.771 222.07 247.859C222.326 247.948 222.651 248.036 223.047 248.125C223.74 248.281 224.31 248.469 224.758 248.688C225.206 248.906 225.539 249.174 225.758 249.492C225.977 249.81 226.086 250.195 226.086 250.648C226.086 251.018 226.008 251.357 225.852 251.664C225.701 251.971 225.479 252.237 225.188 252.461C224.901 252.68 224.557 252.852 224.156 252.977C223.76 253.096 223.315 253.156 222.82 253.156C222.076 253.156 221.445 253.023 220.93 252.758C220.414 252.492 220.023 252.148 219.758 251.727C219.492 251.305 219.359 250.859 219.359 250.391H220.812C220.833 250.786 220.948 251.102 221.156 251.336C221.365 251.565 221.62 251.729 221.922 251.828C222.224 251.922 222.523 251.969 222.82 251.969C223.216 251.969 223.547 251.917 223.812 251.812C224.083 251.708 224.289 251.565 224.43 251.383C224.57 251.201 224.641 250.992 224.641 250.758ZM231.492 253.156C230.904 253.156 230.37 253.057 229.891 252.859C229.417 252.656 229.008 252.372 228.664 252.008C228.326 251.643 228.065 251.211 227.883 250.711C227.701 250.211 227.609 249.664 227.609 249.07V248.742C227.609 248.055 227.711 247.443 227.914 246.906C228.117 246.365 228.393 245.906 228.742 245.531C229.091 245.156 229.487 244.872 229.93 244.68C230.372 244.487 230.831 244.391 231.305 244.391C231.909 244.391 232.43 244.495 232.867 244.703C233.31 244.911 233.672 245.203 233.953 245.578C234.234 245.948 234.443 246.385 234.578 246.891C234.714 247.391 234.781 247.938 234.781 248.531V249.18H228.469V248H233.336V247.891C233.315 247.516 233.237 247.151 233.102 246.797C232.971 246.443 232.763 246.151 232.477 245.922C232.19 245.693 231.799 245.578 231.305 245.578C230.977 245.578 230.674 245.648 230.398 245.789C230.122 245.924 229.885 246.128 229.688 246.398C229.49 246.669 229.336 247 229.227 247.391C229.117 247.781 229.062 248.232 229.062 248.742V249.07C229.062 249.471 229.117 249.849 229.227 250.203C229.341 250.552 229.505 250.859 229.719 251.125C229.938 251.391 230.201 251.599 230.508 251.75C230.82 251.901 231.174 251.977 231.57 251.977C232.081 251.977 232.513 251.872 232.867 251.664C233.221 251.456 233.531 251.177 233.797 250.828L234.672 251.523C234.49 251.799 234.258 252.062 233.977 252.312C233.695 252.562 233.349 252.766 232.938 252.922C232.531 253.078 232.049 253.156 231.492 253.156ZM237.914 245.875V253H236.469V244.547H237.875L237.914 245.875ZM240.555 244.5L240.547 245.844C240.427 245.818 240.312 245.802 240.203 245.797C240.099 245.786 239.979 245.781 239.844 245.781C239.51 245.781 239.216 245.833 238.961 245.938C238.706 246.042 238.49 246.188 238.312 246.375C238.135 246.562 237.995 246.786 237.891 247.047C237.792 247.302 237.727 247.583 237.695 247.891L237.289 248.125C237.289 247.615 237.339 247.135 237.438 246.688C237.542 246.24 237.701 245.844 237.914 245.5C238.128 245.151 238.398 244.88 238.727 244.688C239.06 244.49 239.456 244.391 239.914 244.391C240.018 244.391 240.138 244.404 240.273 244.43C240.409 244.451 240.503 244.474 240.555 244.5ZM253.156 251.812V253H245.711V251.961L249.438 247.812C249.896 247.302 250.25 246.87 250.5 246.516C250.755 246.156 250.932 245.836 251.031 245.555C251.135 245.268 251.188 244.977 251.188 244.68C251.188 244.305 251.109 243.966 250.953 243.664C250.802 243.357 250.578 243.112 250.281 242.93C249.984 242.747 249.625 242.656 249.203 242.656C248.698 242.656 248.276 242.755 247.938 242.953C247.604 243.146 247.354 243.417 247.188 243.766C247.021 244.115 246.938 244.516 246.938 244.969H245.492C245.492 244.328 245.633 243.742 245.914 243.211C246.195 242.68 246.612 242.258 247.164 241.945C247.716 241.628 248.396 241.469 249.203 241.469C249.922 241.469 250.536 241.596 251.047 241.852C251.557 242.102 251.948 242.456 252.219 242.914C252.495 243.367 252.633 243.898 252.633 244.508C252.633 244.841 252.576 245.18 252.461 245.523C252.352 245.862 252.198 246.201 252 246.539C251.807 246.878 251.581 247.211 251.32 247.539C251.065 247.867 250.792 248.19 250.5 248.508L247.453 251.812H253.156Z" fill="white"/>
<rect x="348" y="237" width="84" height="21" fill="#596266"/>
<path d="M375.07 241.625H376.57V249.32C376.57 250.174 376.38 250.885 376 251.453C375.62 252.021 375.115 252.448 374.484 252.734C373.859 253.016 373.18 253.156 372.445 253.156C371.674 253.156 370.977 253.016 370.352 252.734C369.732 252.448 369.24 252.021 368.875 251.453C368.516 250.885 368.336 250.174 368.336 249.32V241.625H369.828V249.32C369.828 249.914 369.938 250.404 370.156 250.789C370.375 251.174 370.68 251.461 371.07 251.648C371.466 251.836 371.924 251.93 372.445 251.93C372.971 251.93 373.43 251.836 373.82 251.648C374.216 251.461 374.523 251.174 374.742 250.789C374.961 250.404 375.07 249.914 375.07 249.32V241.625ZM383.641 250.758C383.641 250.549 383.594 250.357 383.5 250.18C383.411 249.997 383.227 249.833 382.945 249.688C382.669 249.536 382.253 249.406 381.695 249.297C381.227 249.198 380.802 249.081 380.422 248.945C380.047 248.81 379.727 248.646 379.461 248.453C379.201 248.26 379 248.034 378.859 247.773C378.719 247.513 378.648 247.208 378.648 246.859C378.648 246.526 378.721 246.211 378.867 245.914C379.018 245.617 379.229 245.354 379.5 245.125C379.776 244.896 380.107 244.716 380.492 244.586C380.878 244.456 381.307 244.391 381.781 244.391C382.458 244.391 383.036 244.51 383.516 244.75C383.995 244.99 384.362 245.31 384.617 245.711C384.872 246.107 385 246.547 385 247.031H383.555C383.555 246.797 383.484 246.57 383.344 246.352C383.208 246.128 383.008 245.943 382.742 245.797C382.482 245.651 382.161 245.578 381.781 245.578C381.38 245.578 381.055 245.641 380.805 245.766C380.56 245.885 380.38 246.039 380.266 246.227C380.156 246.414 380.102 246.612 380.102 246.82C380.102 246.977 380.128 247.117 380.18 247.242C380.237 247.362 380.336 247.474 380.477 247.578C380.617 247.677 380.815 247.771 381.07 247.859C381.326 247.948 381.651 248.036 382.047 248.125C382.74 248.281 383.31 248.469 383.758 248.688C384.206 248.906 384.539 249.174 384.758 249.492C384.977 249.81 385.086 250.195 385.086 250.648C385.086 251.018 385.008 251.357 384.852 251.664C384.701 251.971 384.479 252.237 384.188 252.461C383.901 252.68 383.557 252.852 383.156 252.977C382.76 253.096 382.315 253.156 381.82 253.156C381.076 253.156 380.445 253.023 379.93 252.758C379.414 252.492 379.023 252.148 378.758 251.727C378.492 251.305 378.359 250.859 378.359 250.391H379.812C379.833 250.786 379.948 251.102 380.156 251.336C380.365 251.565 380.62 251.729 380.922 251.828C381.224 251.922 381.523 251.969 381.82 251.969C382.216 251.969 382.547 251.917 382.812 251.812C383.083 251.708 383.289 251.565 383.43 251.383C383.57 251.201 383.641 250.992 383.641 250.758ZM390.492 253.156C389.904 253.156 389.37 253.057 388.891 252.859C388.417 252.656 388.008 252.372 387.664 252.008C387.326 251.643 387.065 251.211 386.883 250.711C386.701 250.211 386.609 249.664 386.609 249.07V248.742C386.609 248.055 386.711 247.443 386.914 246.906C387.117 246.365 387.393 245.906 387.742 245.531C388.091 245.156 388.487 244.872 388.93 244.68C389.372 244.487 389.831 244.391 390.305 244.391C390.909 244.391 391.43 244.495 391.867 244.703C392.31 244.911 392.672 245.203 392.953 245.578C393.234 245.948 393.443 246.385 393.578 246.891C393.714 247.391 393.781 247.938 393.781 248.531V249.18H387.469V248H392.336V247.891C392.315 247.516 392.237 247.151 392.102 246.797C391.971 246.443 391.763 246.151 391.477 245.922C391.19 245.693 390.799 245.578 390.305 245.578C389.977 245.578 389.674 245.648 389.398 245.789C389.122 245.924 388.885 246.128 388.688 246.398C388.49 246.669 388.336 247 388.227 247.391C388.117 247.781 388.062 248.232 388.062 248.742V249.07C388.062 249.471 388.117 249.849 388.227 250.203C388.341 250.552 388.505 250.859 388.719 251.125C388.938 251.391 389.201 251.599 389.508 251.75C389.82 251.901 390.174 251.977 390.57 251.977C391.081 251.977 391.513 251.872 391.867 251.664C392.221 251.456 392.531 251.177 392.797 250.828L393.672 251.523C393.49 251.799 393.258 252.062 392.977 252.312C392.695 252.562 392.349 252.766 391.938 252.922C391.531 253.078 391.049 253.156 390.492 253.156ZM396.914 245.875V253H395.469V244.547H396.875L396.914 245.875ZM399.555 244.5L399.547 245.844C399.427 245.818 399.312 245.802 399.203 245.797C399.099 245.786 398.979 245.781 398.844 245.781C398.51 245.781 398.216 245.833 397.961 245.938C397.706 246.042 397.49 246.188 397.312 246.375C397.135 246.562 396.995 246.786 396.891 247.047C396.792 247.302 396.727 247.583 396.695 247.891L396.289 248.125C396.289 247.615 396.339 247.135 396.438 246.688C396.542 246.24 396.701 245.844 396.914 245.5C397.128 245.151 397.398 244.88 397.727 244.688C398.06 244.49 398.456 244.391 398.914 244.391C399.018 244.391 399.138 244.404 399.273 244.43C399.409 244.451 399.503 244.474 399.555 244.5ZM406.812 246.602H407.844C408.349 246.602 408.766 246.518 409.094 246.352C409.427 246.18 409.674 245.948 409.836 245.656C410.003 245.359 410.086 245.026 410.086 244.656C410.086 244.219 410.013 243.852 409.867 243.555C409.721 243.258 409.503 243.034 409.211 242.883C408.919 242.732 408.549 242.656 408.102 242.656C407.695 242.656 407.336 242.737 407.023 242.898C406.716 243.055 406.474 243.279 406.297 243.57C406.125 243.862 406.039 244.206 406.039 244.602H404.594C404.594 244.023 404.74 243.497 405.031 243.023C405.323 242.549 405.732 242.172 406.258 241.891C406.789 241.609 407.404 241.469 408.102 241.469C408.789 241.469 409.391 241.591 409.906 241.836C410.422 242.076 410.823 242.435 411.109 242.914C411.396 243.388 411.539 243.979 411.539 244.688C411.539 244.974 411.471 245.281 411.336 245.609C411.206 245.932 411 246.234 410.719 246.516C410.443 246.797 410.083 247.029 409.641 247.211C409.198 247.388 408.667 247.477 408.047 247.477H406.812V246.602ZM406.812 247.789V246.922H408.047C408.771 246.922 409.37 247.008 409.844 247.18C410.318 247.352 410.69 247.581 410.961 247.867C411.237 248.154 411.43 248.469 411.539 248.812C411.654 249.151 411.711 249.49 411.711 249.828C411.711 250.359 411.62 250.831 411.438 251.242C411.26 251.654 411.008 252.003 410.68 252.289C410.357 252.576 409.977 252.792 409.539 252.938C409.102 253.083 408.625 253.156 408.109 253.156C407.615 253.156 407.148 253.086 406.711 252.945C406.279 252.805 405.896 252.602 405.562 252.336C405.229 252.065 404.969 251.734 404.781 251.344C404.594 250.948 404.5 250.497 404.5 249.992H405.945C405.945 250.388 406.031 250.734 406.203 251.031C406.38 251.328 406.63 251.56 406.953 251.727C407.281 251.888 407.667 251.969 408.109 251.969C408.552 251.969 408.932 251.893 409.25 251.742C409.573 251.586 409.82 251.352 409.992 251.039C410.169 250.727 410.258 250.333 410.258 249.859C410.258 249.385 410.159 248.997 409.961 248.695C409.763 248.388 409.482 248.161 409.117 248.016C408.758 247.865 408.333 247.789 407.844 247.789H406.812Z" fill="white"/>
<path d="M93 276.5L93.1026 276.5L93.197 276.54L99.0108 279.032L90 259.208L80.9892 279.032L86.803 276.54L86.8974 276.5L87 276.5L93 276.5Z" fill="#D97D41" stroke="#D97D41"/>
<rect width="3" height="6" transform="matrix(4.37114e-08 1 1 -4.37114e-08 87 277)" fill="#D97D41"/>
<path d="M87 280L87 288L93 288L93 280L87 280Z" fill="#D97D41"/>
<path d="M80 288L93 288L93 290.5C93 291.881 91.8807 293 90.5 293L80 293L80 288Z" fill="#D97D41"/>
<path d="M80 288H72.5C71.1193 288 70 289.119 70 290.5V290.5C70 291.881 71.1193 293 72.5 293H80V288Z" fill="#D97D41"/>
<path d="M40.9892 26.9679L50 46.7917L59.0108 26.9679L53.197 29.4596L53.1026 29.5L53 29.5L47 29.5L46.8974 29.5L46.803 29.4596L40.9892 26.9679Z" fill="#D97D41" stroke="#D97D41"/>
<rect width="3" height="6" transform="matrix(-4.37114e-08 -1 -1 4.37114e-08 53 29)" fill="#D97D41"/>
<path d="M53 26L53 18L47 18L47 26L53 26Z" fill="#D97D41"/>
<path d="M60 18L47 18L47 15.5C47 14.1193 48.1193 13 49.5 13L60 13L60 18Z" fill="#D97D41"/>
<path d="M60 18H67.5C68.8807 18 70 16.8807 70 15.5V15.5C70 14.1193 68.8807 13 67.5 13H60V18Z" fill="#D97D41"/>
<path d="M201.989 26.9679L211 46.7917L220.011 26.9679L214.197 29.4596L214.103 29.5L214 29.5L208 29.5L207.897 29.5L207.803 29.4596L201.989 26.9679Z" fill="#D97D41" stroke="#D97D41"/>
<rect width="3" height="6" transform="matrix(-4.37114e-08 -1 -1 4.37114e-08 214 29)" fill="#D97D41"/>
<path d="M214 26L214 18L208 18L208 26L214 26Z" fill="#D97D41"/>
<path d="M221 18L208 18L208 15.5C208 14.1193 209.119 13 210.5 13L221 13L221 18Z" fill="#D97D41"/>
<path d="M221 18H228.5C229.881 18 231 16.8807 231 15.5V15.5C231 14.1193 229.881 13 228.5 13H221V18Z" fill="#D97D41"/>
<path d="M360.989 26.9679L370 46.7917L379.011 26.9679L373.197 29.4596L373.103 29.5L373 29.5L367 29.5L366.897 29.5L366.803 29.4596L360.989 26.9679Z" fill="#D97D41" stroke="#D97D41"/>
<rect width="3" height="6" transform="matrix(-4.37114e-08 -1 -1 4.37114e-08 373 29)" fill="#D97D41"/>
<path d="M373 26L373 18L367 18L367 26L373 26Z" fill="#D97D41"/>
<path d="M380 18L367 18L367 15.5C367 14.1193 368.119 13 369.5 13L380 13L380 18Z" fill="#D97D41"/>
<path d="M380 18H387.5C388.881 18 390 16.8807 390 15.5V15.5C390 14.1193 388.881 13 387.5 13H380V18Z" fill="#D97D41"/>
<path d="M259.011 279.032L250 259.208L240.989 279.032L246.803 276.54L246.897 276.5L247 276.5L253 276.5L253.103 276.5L253.197 276.54L259.011 279.032Z" fill="#D97D41" stroke="#D97D41"/>
<rect width="3" height="6" transform="matrix(4.37114e-08 1 1 -4.37114e-08 247 277)" fill="#D97D41"/>
<path d="M247 280L247 288L253 288L253 280L247 280Z" fill="#D97D41"/>
<path d="M240 288L253 288L253 290.5C253 291.881 251.881 293 250.5 293L240 293L240 288Z" fill="#D97D41"/>
<path d="M240 288H232.5C231.119 288 230 289.119 230 290.5V290.5C230 291.881 231.119 293 232.5 293H240V288Z" fill="#D97D41"/>
<path d="M419.011 279.032L410 259.208L400.989 279.032L406.803 276.54L406.897 276.5L407 276.5L413 276.5L413.103 276.5L413.197 276.54L419.011 279.032Z" fill="#D97D41" stroke="#D97D41"/>
<rect width="3" height="6" transform="matrix(4.37114e-08 1 1 -4.37114e-08 407 277)" fill="#D97D41"/>
<path d="M407 280L407 288L413 288L413 280L407 280Z" fill="#D97D41"/>
<path d="M400 288L413 288L413 290.5C413 291.881 411.881 293 410.5 293L400 293L400 288Z" fill="#D97D41"/>
<path d="M400 288H392.5C391.119 288 390 289.119 390 290.5V290.5C390 291.881 391.119 293 392.5 293H400V288Z" fill="#D97D41"/>
<defs>
<filter id="filter0_i_2068_3145" x="175" y="52" width="110" height="56" filterUnits="userSpaceOnUse" color-interpolation-filters="sRGB">
<feFlood flood-opacity="0" result="BackgroundImageFix"/>
<feBlend mode="normal" in="SourceGraphic" in2="BackgroundImageFix" result="shape"/>
<feColorMatrix in="SourceAlpha" type="matrix" values="0 0 0 0 0 0 0 0 0 0 0 0 0 0 0 0 0 0 127 0" result="hardAlpha"/>
<feMorphology radius="2" operator="erode" in="SourceAlpha" result="effect1_innerShadow_2068_3145"/>
<feOffset/>
<feComposite in2="hardAlpha" operator="arithmetic" k2="-1" k3="1"/>
<feColorMatrix type="matrix" values="0 0 0 0 0.235294 0 0 0 0 0.235294 0 0 0 0 0.235294 0 0 0 1 0"/>
<feBlend mode="normal" in2="shape" result="effect1_innerShadow_2068_3145"/>
</filter>
<filter id="filter1_i_2068_3145" x="335" y="52" width="110" height="56" filterUnits="userSpaceOnUse" color-interpolation-filters="sRGB">
<feFlood flood-opacity="0" result="BackgroundImageFix"/>
<feBlend mode="normal" in="SourceGraphic" in2="BackgroundImageFix" result="shape"/>
<feColorMatrix in="SourceAlpha" type="matrix" values="0 0 0 0 0 0 0 0 0 0 0 0 0 0 0 0 0 0 127 0" result="hardAlpha"/>
<feMorphology radius="2" operator="erode" in="SourceAlpha" result="effect1_innerShadow_2068_3145"/>
<feOffset/>
<feComposite in2="hardAlpha" operator="arithmetic" k2="-1" k3="1"/>
<feColorMatrix type="matrix" values="0 0 0 0 0.235294 0 0 0 0 0.235294 0 0 0 0 0.235294 0 0 0 1 0"/>
<feBlend mode="normal" in2="shape" result="effect1_innerShadow_2068_3145"/>
</filter>
<filter id="filter2_i_2068_3145" x="15" y="52" width="110" height="56" filterUnits="userSpaceOnUse" color-interpolation-filters="sRGB">
<feFlood flood-opacity="0" result="BackgroundImageFix"/>
<feBlend mode="normal" in="SourceGraphic" in2="BackgroundImageFix" result="shape"/>
<feColorMatrix in="SourceAlpha" type="matrix" values="0 0 0 0 0 0 0 0 0 0 0 0 0 0 0 0 0 0 127 0" result="hardAlpha"/>
<feMorphology radius="2" operator="erode" in="SourceAlpha" result="effect1_innerShadow_2068_3145"/>
<feOffset/>
<feComposite in2="hardAlpha" operator="arithmetic" k2="-1" k3="1"/>
<feColorMatrix type="matrix" values="0 0 0 0 0.235294 0 0 0 0 0.235294 0 0 0 0 0.235294 0 0 0 1 0"/>
<feBlend mode="normal" in2="shape" result="effect1_innerShadow_2068_3145"/>
</filter>
<filter id="filter3_i_2068_3145" x="15" y="172" width="110" height="56" filterUnits="userSpaceOnUse" color-interpolation-filters="sRGB">
<feFlood flood-opacity="0" result="BackgroundImageFix"/>
<feBlend mode="normal" in="SourceGraphic" in2="BackgroundImageFix" result="shape"/>
<feColorMatrix in="SourceAlpha" type="matrix" values="0 0 0 0 0 0 0 0 0 0 0 0 0 0 0 0 0 0 127 0" result="hardAlpha"/>
<feMorphology radius="2" operator="erode" in="SourceAlpha" result="effect1_innerShadow_2068_3145"/>
<feOffset/>
<feComposite in2="hardAlpha" operator="arithmetic" k2="-1" k3="1"/>
<feColorMatrix type="matrix" values="0 0 0 0 0.235294 0 0 0 0 0.235294 0 0 0 0 0.235294 0 0 0 1 0"/>
<feBlend mode="normal" in2="shape" result="effect1_innerShadow_2068_3145"/>
</filter>
<filter id="filter4_i_2068_3145" x="175" y="172" width="110" height="56" filterUnits="userSpaceOnUse" color-interpolation-filters="sRGB">
<feFlood flood-opacity="0" result="BackgroundImageFix"/>
<feBlend mode="normal" in="SourceGraphic" in2="BackgroundImageFix" result="shape"/>
<feColorMatrix in="SourceAlpha" type="matrix" values="0 0 0 0 0 0 0 0 0 0 0 0 0 0 0 0 0 0 127 0" result="hardAlpha"/>
<feMorphology radius="2" operator="erode" in="SourceAlpha" result="effect1_innerShadow_2068_3145"/>
<feOffset/>
<feComposite in2="hardAlpha" operator="arithmetic" k2="-1" k3="1"/>
<feColorMatrix type="matrix" values="0 0 0 0 0.235294 0 0 0 0 0.235294 0 0 0 0 0.235294 0 0 0 1 0"/>
<feBlend mode="normal" in2="shape" result="effect1_innerShadow_2068_3145"/>
</filter>
<filter id="filter5_i_2068_3145" x="335" y="172" width="110" height="56" filterUnits="userSpaceOnUse" color-interpolation-filters="sRGB">
<feFlood flood-opacity="0" result="BackgroundImageFix"/>
<feBlend mode="normal" in="SourceGraphic" in2="BackgroundImageFix" result="shape"/>
<feColorMatrix in="SourceAlpha" type="matrix" values="0 0 0 0 0 0 0 0 0 0 0 0 0 0 0 0 0 0 127 0" result="hardAlpha"/>
<feMorphology radius="2" operator="erode" in="SourceAlpha" result="effect1_innerShadow_2068_3145"/>
<feOffset/>
<feComposite in2="hardAlpha" operator="arithmetic" k2="-1" k3="1"/>
<feColorMatrix type="matrix" values="0 0 0 0 0.235294 0 0 0 0 0.235294 0 0 0 0 0.235294 0 0 0 1 0"/>
<feBlend mode="normal" in2="shape" result="effect1_innerShadow_2068_3145"/>
</filter>
</defs>
</svg>
