<svg width="217" height="528" viewBox="0 0 217 528" fill="none" xmlns="http://www.w3.org/2000/svg">
<g clip-path="url(#clip0_2081_4216)">
<rect width="155" height="528" fill="#333333"/>
<rect x="8" width="139" height="204.463" rx="9" fill="#596266"/>
<rect x="8" width="139" height="528" fill="#596266"/>
<g filter="url(#filter0_i_2081_4216)">
<rect x="35" y="18" width="85" height="56" rx="9" fill="#6DA9CD"/>
</g>
<rect x="35.5" y="18.5" width="84" height="55" rx="8.5" stroke="#6DA9CD"/>
<path d="M55.0312 39.8555L50.3906 54H46.6523L52.9922 36.9375H55.3711L55.0312 39.8555ZM58.8867 54L54.2344 39.8555L53.8594 36.9375H56.2617L62.6367 54H58.8867ZM58.6758 47.6484V50.4023H49.6641V47.6484H58.6758ZM71.3672 50.9648V41.3203H74.7422V54H71.5664L71.3672 50.9648ZM71.7422 48.3633L72.7383 48.3398C72.7383 49.1836 72.6406 49.9688 72.4453 50.6953C72.25 51.4141 71.957 52.0391 71.5664 52.5703C71.1758 53.0938 70.6836 53.5039 70.0898 53.8008C69.4961 54.0898 68.7969 54.2344 67.9922 54.2344C67.375 54.2344 66.8047 54.1484 66.2812 53.9766C65.7656 53.7969 65.3203 53.5195 64.9453 53.1445C64.5781 52.7617 64.2891 52.2734 64.0781 51.6797C63.875 51.0781 63.7734 50.3555 63.7734 49.5117V41.3203H67.1484V49.5352C67.1484 49.9102 67.1914 50.2266 67.2773 50.4844C67.3711 50.7422 67.5 50.9531 67.6641 51.1172C67.8281 51.2812 68.0195 51.3984 68.2383 51.4688C68.4648 51.5391 68.7148 51.5742 68.9883 51.5742C69.6836 51.5742 70.2305 51.4336 70.6289 51.1523C71.0352 50.8711 71.3203 50.4883 71.4844 50.0039C71.6562 49.5117 71.7422 48.9648 71.7422 48.3633ZM84.8086 51.2344V36H88.207V54H85.1484L84.8086 51.2344ZM76.793 47.8125V47.5664C76.793 46.5977 76.9023 45.7188 77.1211 44.9297C77.3398 44.1328 77.6602 43.4492 78.082 42.8789C78.5039 42.3086 79.0234 41.8672 79.6406 41.5547C80.2578 41.2422 80.9609 41.0859 81.75 41.0859C82.4922 41.0859 83.1406 41.2422 83.6953 41.5547C84.2578 41.8672 84.7344 42.3125 85.125 42.8906C85.5234 43.4609 85.8438 44.1367 86.0859 44.918C86.3281 45.6914 86.5039 46.5391 86.6133 47.4609V48C86.5039 48.8828 86.3281 49.7031 86.0859 50.4609C85.8438 51.2188 85.5234 51.8828 85.125 52.4531C84.7344 53.0156 84.2578 53.4531 83.6953 53.7656C83.1328 54.0781 82.4766 54.2344 81.7266 54.2344C80.9375 54.2344 80.2344 54.0742 79.6172 53.7539C79.0078 53.4336 78.4922 52.9844 78.0703 52.4062C77.6562 51.8281 77.3398 51.1484 77.1211 50.3672C76.9023 49.5859 76.793 48.7344 76.793 47.8125ZM80.168 47.5664V47.8125C80.168 48.3359 80.207 48.8242 80.2852 49.2773C80.3711 49.7305 80.5078 50.1328 80.6953 50.4844C80.8906 50.8281 81.1406 51.0977 81.4453 51.293C81.7578 51.4805 82.1367 51.5742 82.582 51.5742C83.1602 51.5742 83.6367 51.4453 84.0117 51.1875C84.3867 50.9219 84.6719 50.5586 84.8672 50.0977C85.0703 49.6367 85.1875 49.1055 85.2188 48.5039V46.9688C85.1953 46.4766 85.125 46.0352 85.0078 45.6445C84.8984 45.2461 84.7344 44.9062 84.5156 44.625C84.3047 44.3438 84.0391 44.125 83.7188 43.9688C83.4062 43.8125 83.0352 43.7344 82.6055 43.7344C82.168 43.7344 81.793 43.8359 81.4805 44.0391C81.168 44.2344 80.9141 44.5039 80.7188 44.8477C80.5312 45.1914 80.3906 45.5977 80.2969 46.0664C80.2109 46.5273 80.168 47.0273 80.168 47.5664ZM94.4062 41.3203V54H91.0195V41.3203H94.4062ZM90.8086 38.0156C90.8086 37.5234 90.9805 37.1172 91.3242 36.7969C91.668 36.4766 92.1289 36.3164 92.707 36.3164C93.2773 36.3164 93.7344 36.4766 94.0781 36.7969C94.4297 37.1172 94.6055 37.5234 94.6055 38.0156C94.6055 38.5078 94.4297 38.9141 94.0781 39.2344C93.7344 39.5547 93.2773 39.7148 92.707 39.7148C92.1289 39.7148 91.668 39.5547 91.3242 39.2344C90.9805 38.9141 90.8086 38.5078 90.8086 38.0156ZM96.6562 47.7891V47.543C96.6562 46.6133 96.7891 45.7578 97.0547 44.9766C97.3203 44.1875 97.707 43.5039 98.2148 42.9258C98.7227 42.3477 99.3477 41.8984 100.09 41.5781C100.832 41.25 101.684 41.0859 102.645 41.0859C103.605 41.0859 104.461 41.25 105.211 41.5781C105.961 41.8984 106.59 42.3477 107.098 42.9258C107.613 43.5039 108.004 44.1875 108.27 44.9766C108.535 45.7578 108.668 46.6133 108.668 47.543V47.7891C108.668 48.7109 108.535 49.5664 108.27 50.3555C108.004 51.1367 107.613 51.8203 107.098 52.4062C106.59 52.9844 105.965 53.4336 105.223 53.7539C104.48 54.0742 103.629 54.2344 102.668 54.2344C101.707 54.2344 100.852 54.0742 100.102 53.7539C99.3594 53.4336 98.7305 52.9844 98.2148 52.4062C97.707 51.8203 97.3203 51.1367 97.0547 50.3555C96.7891 49.5664 96.6562 48.7109 96.6562 47.7891ZM100.031 47.543V47.7891C100.031 48.3203 100.078 48.8164 100.172 49.2773C100.266 49.7383 100.414 50.1445 100.617 50.4961C100.828 50.8398 101.102 51.1094 101.438 51.3047C101.773 51.5 102.184 51.5977 102.668 51.5977C103.137 51.5977 103.539 51.5 103.875 51.3047C104.211 51.1094 104.48 50.8398 104.684 50.4961C104.887 50.1445 105.035 49.7383 105.129 49.2773C105.23 48.8164 105.281 48.3203 105.281 47.7891V47.543C105.281 47.0273 105.23 46.543 105.129 46.0898C105.035 45.6289 104.883 45.2227 104.672 44.8711C104.469 44.5117 104.199 44.2305 103.863 44.0273C103.527 43.8242 103.121 43.7227 102.645 43.7227C102.168 43.7227 101.762 43.8242 101.426 44.0273C101.098 44.2305 100.828 44.5117 100.617 44.8711C100.414 45.2227 100.266 45.6289 100.172 46.0898C100.078 46.543 100.031 47.0273 100.031 47.543Z" fill="#333333"/>
<g filter="url(#filter1_i_2081_4216)">
<rect x="35" y="121" width="85" height="56" rx="9" fill="#6DA9CD"/>
</g>
<rect x="35.5" y="121.5" width="84" height="55" rx="8.5" stroke="#6DA9CD"/>
<path d="M74.3203 153.438L78.3398 139.938H82.2539L76.3125 157H73.7344L74.3203 153.438ZM70.6172 139.938L74.625 153.438L75.2344 157H72.6328L66.7266 139.938H70.6172ZM87.5859 139.938V157H84.082V139.938H87.5859Z" fill="#333333"/>
<g filter="url(#filter2_i_2081_4216)">
<rect x="34" y="224" width="85" height="56" rx="9" fill="#6DA9CD"/>
</g>
<rect x="34.5" y="224.5" width="84" height="55" rx="8.5" stroke="#6DA9CD"/>
<path d="M64.6484 252.512H60.2656L60.2422 250.098H63.9219C64.5703 250.098 65.1016 250.016 65.5156 249.852C65.9297 249.68 66.2383 249.434 66.4414 249.113C66.6523 248.785 66.7578 248.387 66.7578 247.918C66.7578 247.387 66.6562 246.957 66.4531 246.629C66.2578 246.301 65.9492 246.062 65.5273 245.914C65.1133 245.766 64.5781 245.691 63.9219 245.691H61.4844V260H57.9688V242.938H63.9219C64.9141 242.938 65.8008 243.031 66.582 243.219C67.3711 243.406 68.0391 243.691 68.5859 244.074C69.1328 244.457 69.5508 244.941 69.8398 245.527C70.1289 246.105 70.2734 246.793 70.2734 247.59C70.2734 248.293 70.1133 248.941 69.793 249.535C69.4805 250.129 68.9844 250.613 68.3047 250.988C67.6328 251.363 66.7539 251.57 65.668 251.609L64.6484 252.512ZM64.4961 260H59.3047L60.6758 257.258H64.4961C65.1133 257.258 65.6172 257.16 66.0078 256.965C66.3984 256.762 66.6875 256.488 66.875 256.145C67.0625 255.801 67.1562 255.406 67.1562 254.961C67.1562 254.461 67.0703 254.027 66.8984 253.66C66.7344 253.293 66.4688 253.012 66.1016 252.816C65.7344 252.613 65.25 252.512 64.6484 252.512H61.2617L61.2852 250.098H65.5039L66.3125 251.047C67.3516 251.031 68.1875 251.215 68.8203 251.598C69.4609 251.973 69.9258 252.461 70.2148 253.062C70.5117 253.664 70.6602 254.309 70.6602 254.996C70.6602 256.09 70.4219 257.012 69.9453 257.762C69.4688 258.504 68.7695 259.062 67.8477 259.438C66.9336 259.812 65.8164 260 64.4961 260ZM80.5859 256.965V247.32H83.9609V260H80.7852L80.5859 256.965ZM80.9609 254.363L81.957 254.34C81.957 255.184 81.8594 255.969 81.6641 256.695C81.4688 257.414 81.1758 258.039 80.7852 258.57C80.3945 259.094 79.9023 259.504 79.3086 259.801C78.7148 260.09 78.0156 260.234 77.2109 260.234C76.5938 260.234 76.0234 260.148 75.5 259.977C74.9844 259.797 74.5391 259.52 74.1641 259.145C73.7969 258.762 73.5078 258.273 73.2969 257.68C73.0938 257.078 72.9922 256.355 72.9922 255.512V247.32H76.3672V255.535C76.3672 255.91 76.4102 256.227 76.4961 256.484C76.5898 256.742 76.7188 256.953 76.8828 257.117C77.0469 257.281 77.2383 257.398 77.457 257.469C77.6836 257.539 77.9336 257.574 78.207 257.574C78.9023 257.574 79.4492 257.434 79.8477 257.152C80.2539 256.871 80.5391 256.488 80.7031 256.004C80.875 255.512 80.9609 254.965 80.9609 254.363ZM93.3945 256.496C93.3945 256.254 93.3242 256.035 93.1836 255.84C93.043 255.645 92.7812 255.465 92.3984 255.301C92.0234 255.129 91.4805 254.973 90.7695 254.832C90.1289 254.691 89.5312 254.516 88.9766 254.305C88.4297 254.086 87.9531 253.824 87.5469 253.52C87.1484 253.215 86.8359 252.855 86.6094 252.441C86.3828 252.02 86.2695 251.539 86.2695 251C86.2695 250.469 86.3828 249.969 86.6094 249.5C86.8438 249.031 87.1758 248.617 87.6055 248.258C88.043 247.891 88.5742 247.605 89.1992 247.402C89.832 247.191 90.543 247.086 91.332 247.086C92.4336 247.086 93.3789 247.262 94.168 247.613C94.9648 247.965 95.5742 248.449 95.9961 249.066C96.4258 249.676 96.6406 250.371 96.6406 251.152H93.2656C93.2656 250.824 93.1953 250.531 93.0547 250.273C92.9219 250.008 92.7109 249.801 92.4219 249.652C92.1406 249.496 91.7734 249.418 91.3203 249.418C90.9453 249.418 90.6211 249.484 90.3477 249.617C90.0742 249.742 89.8633 249.914 89.7148 250.133C89.5742 250.344 89.5039 250.578 89.5039 250.836C89.5039 251.031 89.543 251.207 89.6211 251.363C89.707 251.512 89.8438 251.648 90.0312 251.773C90.2188 251.898 90.4609 252.016 90.7578 252.125C91.0625 252.227 91.4375 252.32 91.8828 252.406C92.7969 252.594 93.6133 252.84 94.332 253.145C95.0508 253.441 95.6211 253.848 96.043 254.363C96.4648 254.871 96.6758 255.539 96.6758 256.367C96.6758 256.93 96.5508 257.445 96.3008 257.914C96.0508 258.383 95.6914 258.793 95.2227 259.145C94.7539 259.488 94.1914 259.758 93.5352 259.953C92.8867 260.141 92.1562 260.234 91.3438 260.234C90.1641 260.234 89.1641 260.023 88.3438 259.602C87.5312 259.18 86.9141 258.645 86.4922 257.996C86.0781 257.34 85.8711 256.668 85.8711 255.98H89.0703C89.0859 256.441 89.2031 256.812 89.4219 257.094C89.6484 257.375 89.9336 257.578 90.2773 257.703C90.6289 257.828 91.0078 257.891 91.4141 257.891C91.8516 257.891 92.2148 257.832 92.5039 257.715C92.793 257.59 93.0117 257.426 93.1602 257.223C93.3164 257.012 93.3945 256.77 93.3945 256.496Z" fill="#333333"/>
<g filter="url(#filter3_i_2081_4216)">
<rect x="35" y="327" width="85" height="56" rx="9" fill="#6DA9CD"/>
</g>
<rect x="35.5" y="327.5" width="84" height="55" rx="8.5" stroke="#6DA9CD"/>
<path d="M62.0039 359.438L66.0234 345.938H69.9375L63.9961 363H61.418L62.0039 359.438ZM58.3008 345.938L62.3086 359.438L62.918 363H60.3164L54.4102 345.938H58.3008ZM81.2578 357.34H84.7617C84.6914 358.488 84.375 359.508 83.8125 360.398C83.2578 361.289 82.4805 361.984 81.4805 362.484C80.4883 362.984 79.293 363.234 77.8945 363.234C76.8008 363.234 75.8203 363.047 74.9531 362.672C74.0859 362.289 73.3438 361.742 72.7266 361.031C72.1172 360.32 71.6523 359.461 71.332 358.453C71.0117 357.445 70.8516 356.316 70.8516 355.066V353.883C70.8516 352.633 71.0156 351.504 71.3438 350.496C71.6797 349.48 72.1562 348.617 72.7734 347.906C73.3984 347.195 74.1445 346.648 75.0117 346.266C75.8789 345.883 76.8477 345.691 77.918 345.691C79.3398 345.691 80.5391 345.949 81.5156 346.465C82.5 346.98 83.2617 347.691 83.8008 348.598C84.3477 349.504 84.6758 350.535 84.7852 351.691H81.2695C81.2305 351.004 81.0938 350.422 80.8594 349.945C80.625 349.461 80.2695 349.098 79.793 348.855C79.3242 348.605 78.6992 348.48 77.918 348.48C77.332 348.48 76.8203 348.59 76.3828 348.809C75.9453 349.027 75.5781 349.359 75.2812 349.805C74.9844 350.25 74.7617 350.812 74.6133 351.492C74.4727 352.164 74.4023 352.953 74.4023 353.859V355.066C74.4023 355.949 74.4688 356.727 74.6016 357.398C74.7344 358.062 74.9375 358.625 75.2109 359.086C75.4922 359.539 75.8516 359.883 76.2891 360.117C76.7344 360.344 77.2695 360.457 77.8945 360.457C78.6289 360.457 79.2344 360.34 79.7109 360.105C80.1875 359.871 80.5508 359.523 80.8008 359.062C81.0586 358.602 81.2109 358.027 81.2578 357.34ZM94.0078 348.855L89.3672 363H85.6289L91.9688 345.938H94.3477L94.0078 348.855ZM97.8633 363L93.2109 348.855L92.8359 345.938H95.2383L101.613 363H97.8633ZM97.6523 356.648V359.402H88.6406V356.648H97.6523Z" fill="#333333"/>
<g filter="url(#filter4_i_2081_4216)">
<rect x="35" y="430" width="85" height="56" rx="9" fill="#6DA9CD"/>
</g>
<rect x="35.5" y="430.5" width="84" height="55" rx="8.5" stroke="#6DA9CD"/>
<path d="M72.0469 451.855L67.4062 466H63.668L70.0078 448.938H72.3867L72.0469 451.855ZM75.9023 466L71.25 451.855L70.875 448.938H73.2773L79.6523 466H75.9023ZM75.6914 459.648V462.402H66.6797V459.648H75.6914ZM84.5859 448V466H81.1992V448H84.5859ZM90.9375 448V466H87.5508V448H90.9375Z" fill="#333333"/>
<rect x="35" y="285" width="84" height="21" fill="#333333"/>
<path d="M58.8828 294.953V295.672C58.8828 296.526 58.776 297.292 58.5625 297.969C58.349 298.646 58.0417 299.221 57.6406 299.695C57.2396 300.169 56.7578 300.531 56.1953 300.781C55.638 301.031 55.013 301.156 54.3203 301.156C53.6484 301.156 53.0312 301.031 52.4688 300.781C51.9115 300.531 51.4271 300.169 51.0156 299.695C50.6094 299.221 50.2943 298.646 50.0703 297.969C49.8464 297.292 49.7344 296.526 49.7344 295.672V294.953C49.7344 294.099 49.8438 293.336 50.0625 292.664C50.2865 291.987 50.6016 291.411 51.0078 290.938C51.4141 290.458 51.8958 290.094 52.4531 289.844C53.0156 289.594 53.6328 289.469 54.3047 289.469C54.9974 289.469 55.6224 289.594 56.1797 289.844C56.7422 290.094 57.224 290.458 57.625 290.938C58.0312 291.411 58.3411 291.987 58.5547 292.664C58.7734 293.336 58.8828 294.099 58.8828 294.953ZM57.3906 295.672V294.938C57.3906 294.26 57.3203 293.661 57.1797 293.141C57.0443 292.62 56.8438 292.182 56.5781 291.828C56.3125 291.474 55.987 291.206 55.6016 291.023C55.2214 290.841 54.7891 290.75 54.3047 290.75C53.8359 290.75 53.4115 290.841 53.0312 291.023C52.6562 291.206 52.3333 291.474 52.0625 291.828C51.7969 292.182 51.5911 292.62 51.4453 293.141C51.2995 293.661 51.2266 294.26 51.2266 294.938V295.672C51.2266 296.354 51.2995 296.958 51.4453 297.484C51.5911 298.005 51.7995 298.445 52.0703 298.805C52.3464 299.159 52.6719 299.427 53.0469 299.609C53.4271 299.792 53.8516 299.883 54.3203 299.883C54.8099 299.883 55.2448 299.792 55.625 299.609C56.0052 299.427 56.3255 299.159 56.5859 298.805C56.8516 298.445 57.0521 298.005 57.1875 297.484C57.3229 296.958 57.3906 296.354 57.3906 295.672ZM66.0938 299.047V292.547H67.5469V301H66.1641L66.0938 299.047ZM66.3672 297.266L66.9688 297.25C66.9688 297.812 66.9089 298.333 66.7891 298.812C66.6745 299.286 66.487 299.698 66.2266 300.047C65.9661 300.396 65.625 300.669 65.2031 300.867C64.7812 301.06 64.2682 301.156 63.6641 301.156C63.2526 301.156 62.875 301.096 62.5312 300.977C62.1927 300.857 61.901 300.672 61.6562 300.422C61.4115 300.172 61.2214 299.846 61.0859 299.445C60.9557 299.044 60.8906 298.562 60.8906 298V292.547H62.3359V298.016C62.3359 298.396 62.3776 298.711 62.4609 298.961C62.5495 299.206 62.6667 299.401 62.8125 299.547C62.9635 299.688 63.1302 299.786 63.3125 299.844C63.5 299.901 63.6927 299.93 63.8906 299.93C64.5052 299.93 64.9922 299.812 65.3516 299.578C65.7109 299.339 65.9688 299.018 66.125 298.617C66.2865 298.211 66.3672 297.76 66.3672 297.266ZM73.2891 292.547V293.656H68.7188V292.547H73.2891ZM70.2656 290.492H71.7109V298.906C71.7109 299.193 71.7552 299.409 71.8438 299.555C71.9323 299.701 72.0469 299.797 72.1875 299.844C72.3281 299.891 72.4792 299.914 72.6406 299.914C72.7604 299.914 72.8854 299.904 73.0156 299.883C73.151 299.857 73.2526 299.836 73.3203 299.82L73.3281 301C73.2135 301.036 73.0625 301.07 72.875 301.102C72.6927 301.138 72.4714 301.156 72.2109 301.156C71.8568 301.156 71.5312 301.086 71.2344 300.945C70.9375 300.805 70.7005 300.57 70.5234 300.242C70.3516 299.909 70.2656 299.461 70.2656 298.898V290.492ZM76.4297 294.172V304.25H74.9766V292.547H76.3047L76.4297 294.172ZM82.125 296.703V296.867C82.125 297.482 82.0521 298.052 81.9062 298.578C81.7604 299.099 81.5469 299.552 81.2656 299.938C80.9896 300.323 80.6484 300.622 80.2422 300.836C79.8359 301.049 79.3698 301.156 78.8438 301.156C78.3073 301.156 77.8333 301.068 77.4219 300.891C77.0104 300.714 76.6615 300.456 76.375 300.117C76.0885 299.779 75.8594 299.372 75.6875 298.898C75.5208 298.424 75.4062 297.891 75.3438 297.297V296.422C75.4062 295.797 75.5234 295.237 75.6953 294.742C75.8672 294.247 76.0938 293.826 76.375 293.477C76.6615 293.122 77.0078 292.854 77.4141 292.672C77.8203 292.484 78.2891 292.391 78.8203 292.391C79.3516 292.391 79.8229 292.495 80.2344 292.703C80.6458 292.906 80.9922 293.198 81.2734 293.578C81.5547 293.958 81.7656 294.414 81.9062 294.945C82.0521 295.471 82.125 296.057 82.125 296.703ZM80.6719 296.867V296.703C80.6719 296.281 80.6276 295.885 80.5391 295.516C80.4505 295.141 80.3125 294.812 80.125 294.531C79.9427 294.245 79.7083 294.021 79.4219 293.859C79.1354 293.693 78.7943 293.609 78.3984 293.609C78.0339 293.609 77.7161 293.672 77.4453 293.797C77.1797 293.922 76.9531 294.091 76.7656 294.305C76.5781 294.513 76.4245 294.753 76.3047 295.023C76.1901 295.289 76.1042 295.565 76.0469 295.852V297.875C76.151 298.24 76.2969 298.583 76.4844 298.906C76.6719 299.224 76.9219 299.482 77.2344 299.68C77.5469 299.872 77.9401 299.969 78.4141 299.969C78.8047 299.969 79.1406 299.888 79.4219 299.727C79.7083 299.56 79.9427 299.333 80.125 299.047C80.3125 298.76 80.4505 298.432 80.5391 298.062C80.6276 297.688 80.6719 297.289 80.6719 296.867ZM89.1406 299.047V292.547H90.5938V301H89.2109L89.1406 299.047ZM89.4141 297.266L90.0156 297.25C90.0156 297.812 89.9557 298.333 89.8359 298.812C89.7214 299.286 89.5339 299.698 89.2734 300.047C89.013 300.396 88.6719 300.669 88.25 300.867C87.8281 301.06 87.3151 301.156 86.7109 301.156C86.2995 301.156 85.9219 301.096 85.5781 300.977C85.2396 300.857 84.9479 300.672 84.7031 300.422C84.4583 300.172 84.2682 299.846 84.1328 299.445C84.0026 299.044 83.9375 298.562 83.9375 298V292.547H85.3828V298.016C85.3828 298.396 85.4245 298.711 85.5078 298.961C85.5964 299.206 85.7135 299.401 85.8594 299.547C86.0104 299.688 86.1771 299.786 86.3594 299.844C86.5469 299.901 86.7396 299.93 86.9375 299.93C87.5521 299.93 88.0391 299.812 88.3984 299.578C88.7578 299.339 89.0156 299.018 89.1719 298.617C89.3333 298.211 89.4141 297.76 89.4141 297.266ZM96.3359 292.547V293.656H91.7656V292.547H96.3359ZM93.3125 290.492H94.7578V298.906C94.7578 299.193 94.8021 299.409 94.8906 299.555C94.9792 299.701 95.0938 299.797 95.2344 299.844C95.375 299.891 95.526 299.914 95.6875 299.914C95.8073 299.914 95.9323 299.904 96.0625 299.883C96.1979 299.857 96.2995 299.836 96.3672 299.82L96.375 301C96.2604 301.036 96.1094 301.07 95.9219 301.102C95.7396 301.138 95.5182 301.156 95.2578 301.156C94.9036 301.156 94.5781 301.086 94.2812 300.945C93.9844 300.805 93.7474 300.57 93.5703 300.242C93.3984 299.909 93.3125 299.461 93.3125 298.898V290.492ZM102.953 298.758C102.953 298.549 102.906 298.357 102.812 298.18C102.724 297.997 102.539 297.833 102.258 297.688C101.982 297.536 101.565 297.406 101.008 297.297C100.539 297.198 100.115 297.081 99.7344 296.945C99.3594 296.81 99.0391 296.646 98.7734 296.453C98.513 296.26 98.3125 296.034 98.1719 295.773C98.0312 295.513 97.9609 295.208 97.9609 294.859C97.9609 294.526 98.0339 294.211 98.1797 293.914C98.3307 293.617 98.5417 293.354 98.8125 293.125C99.0885 292.896 99.4193 292.716 99.8047 292.586C100.19 292.456 100.62 292.391 101.094 292.391C101.771 292.391 102.349 292.51 102.828 292.75C103.307 292.99 103.674 293.31 103.93 293.711C104.185 294.107 104.312 294.547 104.312 295.031H102.867C102.867 294.797 102.797 294.57 102.656 294.352C102.521 294.128 102.32 293.943 102.055 293.797C101.794 293.651 101.474 293.578 101.094 293.578C100.693 293.578 100.367 293.641 100.117 293.766C99.8724 293.885 99.6927 294.039 99.5781 294.227C99.4688 294.414 99.4141 294.612 99.4141 294.82C99.4141 294.977 99.4401 295.117 99.4922 295.242C99.5495 295.362 99.6484 295.474 99.7891 295.578C99.9297 295.677 100.128 295.771 100.383 295.859C100.638 295.948 100.964 296.036 101.359 296.125C102.052 296.281 102.622 296.469 103.07 296.688C103.518 296.906 103.852 297.174 104.07 297.492C104.289 297.81 104.398 298.195 104.398 298.648C104.398 299.018 104.32 299.357 104.164 299.664C104.013 299.971 103.792 300.237 103.5 300.461C103.214 300.68 102.87 300.852 102.469 300.977C102.073 301.096 101.628 301.156 101.133 301.156C100.388 301.156 99.7578 301.023 99.2422 300.758C98.7266 300.492 98.3359 300.148 98.0703 299.727C97.8047 299.305 97.6719 298.859 97.6719 298.391H99.125C99.1458 298.786 99.2604 299.102 99.4688 299.336C99.6771 299.565 99.9323 299.729 100.234 299.828C100.536 299.922 100.836 299.969 101.133 299.969C101.529 299.969 101.859 299.917 102.125 299.812C102.396 299.708 102.602 299.565 102.742 299.383C102.883 299.201 102.953 298.992 102.953 298.758Z" fill="white"/>
<rect x="34" y="179" width="84" height="21" fill="#333333"/>
<path d="M61.2031 183.625H62.6641L66.3906 192.898L70.1094 183.625H71.5781L66.9531 195H65.8125L61.2031 183.625ZM60.7266 183.625H62.0156L62.2266 190.562V195H60.7266V183.625ZM70.7578 183.625H72.0469V195H70.5469V190.562L70.7578 183.625ZM76.3125 183.625V195H74.8047V183.625H76.3125ZM82.1328 195H79.7578L79.7734 193.773H82.1328C82.9453 193.773 83.6224 193.604 84.1641 193.266C84.7057 192.922 85.112 192.443 85.3828 191.828C85.6589 191.208 85.7969 190.484 85.7969 189.656V188.961C85.7969 188.31 85.7188 187.732 85.5625 187.227C85.4062 186.716 85.1771 186.286 84.875 185.938C84.5729 185.583 84.2031 185.315 83.7656 185.133C83.3333 184.951 82.8359 184.859 82.2734 184.859H79.7109V183.625H82.2734C83.0182 183.625 83.6979 183.75 84.3125 184C84.9271 184.245 85.4557 184.602 85.8984 185.07C86.3464 185.534 86.6901 186.096 86.9297 186.758C87.1693 187.414 87.2891 188.154 87.2891 188.977V189.656C87.2891 190.479 87.1693 191.221 86.9297 191.883C86.6901 192.539 86.3438 193.099 85.8906 193.562C85.4427 194.026 84.901 194.383 84.2656 194.633C83.6354 194.878 82.9245 195 82.1328 195ZM80.5625 183.625V195H79.0547V183.625H80.5625ZM91.1719 183.625V195H89.6641V183.625H91.1719Z" fill="white"/>
<rect x="35" y="76" width="85" height="21" fill="#333333"/>
<path d="M58.1797 80.625V92H56.6719V80.625H58.1797ZM62.1484 85.3516V92H60.7031V83.5469H62.0703L62.1484 85.3516ZM61.8047 87.4531L61.2031 87.4297C61.2083 86.8516 61.2943 86.3177 61.4609 85.8281C61.6276 85.3333 61.862 84.9036 62.1641 84.5391C62.4661 84.1745 62.8255 83.8932 63.2422 83.6953C63.6641 83.4922 64.1302 83.3906 64.6406 83.3906C65.0573 83.3906 65.4323 83.4479 65.7656 83.5625C66.099 83.6719 66.3828 83.849 66.6172 84.0938C66.8568 84.3385 67.0391 84.6562 67.1641 85.0469C67.2891 85.4323 67.3516 85.9036 67.3516 86.4609V92H65.8984V86.4453C65.8984 86.0026 65.8333 85.6484 65.7031 85.3828C65.5729 85.112 65.3828 84.9167 65.1328 84.7969C64.8828 84.6719 64.5755 84.6094 64.2109 84.6094C63.8516 84.6094 63.5234 84.6849 63.2266 84.8359C62.9349 84.987 62.6823 85.1953 62.4688 85.4609C62.2604 85.7266 62.0964 86.0312 61.9766 86.375C61.862 86.7135 61.8047 87.0729 61.8047 87.4531ZM70.9922 85.1719V95.25H69.5391V83.5469H70.8672L70.9922 85.1719ZM76.6875 87.7031V87.8672C76.6875 88.4818 76.6146 89.0521 76.4688 89.5781C76.3229 90.099 76.1094 90.5521 75.8281 90.9375C75.5521 91.3229 75.2109 91.6224 74.8047 91.8359C74.3984 92.0495 73.9323 92.1562 73.4062 92.1562C72.8698 92.1562 72.3958 92.0677 71.9844 91.8906C71.5729 91.7135 71.224 91.4557 70.9375 91.1172C70.651 90.7786 70.4219 90.3724 70.25 89.8984C70.0833 89.4245 69.9688 88.8906 69.9062 88.2969V87.4219C69.9688 86.7969 70.0859 86.237 70.2578 85.7422C70.4297 85.2474 70.6562 84.8255 70.9375 84.4766C71.224 84.1224 71.5703 83.8542 71.9766 83.6719C72.3828 83.4844 72.8516 83.3906 73.3828 83.3906C73.9141 83.3906 74.3854 83.4948 74.7969 83.7031C75.2083 83.9062 75.5547 84.1979 75.8359 84.5781C76.1172 84.9583 76.3281 85.4141 76.4688 85.9453C76.6146 86.4714 76.6875 87.0573 76.6875 87.7031ZM75.2344 87.8672V87.7031C75.2344 87.2812 75.1901 86.8854 75.1016 86.5156C75.013 86.1406 74.875 85.8125 74.6875 85.5312C74.5052 85.2448 74.2708 85.0208 73.9844 84.8594C73.6979 84.6927 73.3568 84.6094 72.9609 84.6094C72.5964 84.6094 72.2786 84.6719 72.0078 84.7969C71.7422 84.9219 71.5156 85.0911 71.3281 85.3047C71.1406 85.513 70.987 85.7526 70.8672 86.0234C70.7526 86.2891 70.6667 86.5651 70.6094 86.8516V88.875C70.7135 89.2396 70.8594 89.5833 71.0469 89.9062C71.2344 90.224 71.4844 90.4818 71.7969 90.6797C72.1094 90.8724 72.5026 90.9688 72.9766 90.9688C73.3672 90.9688 73.7031 90.888 73.9844 90.7266C74.2708 90.5599 74.5052 90.3333 74.6875 90.0469C74.875 89.7604 75.013 89.4323 75.1016 89.0625C75.1901 88.6875 75.2344 88.2891 75.2344 87.8672ZM83.7031 90.0469V83.5469H85.1562V92H83.7734L83.7031 90.0469ZM83.9766 88.2656L84.5781 88.25C84.5781 88.8125 84.5182 89.3333 84.3984 89.8125C84.2839 90.2865 84.0964 90.6979 83.8359 91.0469C83.5755 91.3958 83.2344 91.6693 82.8125 91.8672C82.3906 92.0599 81.8776 92.1562 81.2734 92.1562C80.862 92.1562 80.4844 92.0964 80.1406 91.9766C79.8021 91.8568 79.5104 91.6719 79.2656 91.4219C79.0208 91.1719 78.8307 90.8464 78.6953 90.4453C78.5651 90.0443 78.5 89.5625 78.5 89V83.5469H79.9453V89.0156C79.9453 89.3958 79.987 89.7109 80.0703 89.9609C80.1589 90.2057 80.276 90.401 80.4219 90.5469C80.5729 90.6875 80.7396 90.7865 80.9219 90.8438C81.1094 90.901 81.3021 90.9297 81.5 90.9297C82.1146 90.9297 82.6016 90.8125 82.9609 90.5781C83.3203 90.3385 83.5781 90.0182 83.7344 89.6172C83.8958 89.2109 83.9766 88.7604 83.9766 88.2656ZM90.8984 83.5469V84.6562H86.3281V83.5469H90.8984ZM87.875 81.4922H89.3203V89.9062C89.3203 90.1927 89.3646 90.4089 89.4531 90.5547C89.5417 90.7005 89.6562 90.7969 89.7969 90.8438C89.9375 90.8906 90.0885 90.9141 90.25 90.9141C90.3698 90.9141 90.4948 90.9036 90.625 90.8828C90.7604 90.8568 90.862 90.8359 90.9297 90.8203L90.9375 92C90.8229 92.0365 90.6719 92.0703 90.4844 92.1016C90.3021 92.138 90.0807 92.1562 89.8203 92.1562C89.4661 92.1562 89.1406 92.0859 88.8438 91.9453C88.5469 91.8047 88.3099 91.5703 88.1328 91.2422C87.9609 90.9089 87.875 90.4609 87.875 89.8984V81.4922ZM97.5156 89.7578C97.5156 89.5495 97.4688 89.3568 97.375 89.1797C97.2865 88.9974 97.1016 88.8333 96.8203 88.6875C96.5443 88.5365 96.1276 88.4062 95.5703 88.2969C95.1016 88.1979 94.6771 88.0807 94.2969 87.9453C93.9219 87.8099 93.6016 87.6458 93.3359 87.4531C93.0755 87.2604 92.875 87.0339 92.7344 86.7734C92.5938 86.513 92.5234 86.2083 92.5234 85.8594C92.5234 85.526 92.5964 85.2109 92.7422 84.9141C92.8932 84.6172 93.1042 84.3542 93.375 84.125C93.651 83.8958 93.9818 83.7161 94.3672 83.5859C94.7526 83.4557 95.1823 83.3906 95.6562 83.3906C96.3333 83.3906 96.9115 83.5104 97.3906 83.75C97.8698 83.9896 98.237 84.3099 98.4922 84.7109C98.7474 85.1068 98.875 85.5469 98.875 86.0312H97.4297C97.4297 85.7969 97.3594 85.5703 97.2188 85.3516C97.0833 85.1276 96.8828 84.9427 96.6172 84.7969C96.3568 84.651 96.0365 84.5781 95.6562 84.5781C95.2552 84.5781 94.9297 84.6406 94.6797 84.7656C94.4349 84.8854 94.2552 85.0391 94.1406 85.2266C94.0312 85.4141 93.9766 85.612 93.9766 85.8203C93.9766 85.9766 94.0026 86.1172 94.0547 86.2422C94.112 86.362 94.2109 86.474 94.3516 86.5781C94.4922 86.6771 94.6901 86.7708 94.9453 86.8594C95.2005 86.9479 95.526 87.0365 95.9219 87.125C96.6146 87.2812 97.1849 87.4688 97.6328 87.6875C98.0807 87.9062 98.4141 88.1745 98.6328 88.4922C98.8516 88.8099 98.9609 89.1953 98.9609 89.6484C98.9609 90.0182 98.8828 90.3568 98.7266 90.6641C98.5755 90.9714 98.3542 91.237 98.0625 91.4609C97.776 91.6797 97.4323 91.8516 97.0312 91.9766C96.6354 92.0964 96.1901 92.1562 95.6953 92.1562C94.9505 92.1562 94.3203 92.0234 93.8047 91.7578C93.2891 91.4922 92.8984 91.1484 92.6328 90.7266C92.3672 90.3047 92.2344 89.8594 92.2344 89.3906H93.6875C93.7083 89.7865 93.8229 90.1016 94.0312 90.3359C94.2396 90.5651 94.4948 90.7292 94.7969 90.8281C95.099 90.9219 95.3984 90.9688 95.6953 90.9688C96.0911 90.9688 96.4219 90.9167 96.6875 90.8125C96.9583 90.7083 97.1641 90.5651 97.3047 90.3828C97.4453 90.2005 97.5156 89.9922 97.5156 89.7578Z" fill="white"/>
<rect x="35" y="388" width="84" height="21" fill="#333333"/>
<path d="M70.3906 392.625V404H68.8828V392.625H70.3906ZM75.1562 397.742V398.977H70.0625V397.742H75.1562ZM75.9297 392.625V393.859H70.0625V392.625H75.9297ZM78.7031 392.625L81.4375 396.984L84.1719 392.625H85.9297L82.3359 398.258L86.0156 404H84.2422L81.4375 399.555L78.6328 404H76.8594L80.5391 398.258L76.9453 392.625H78.7031Z" fill="white"/>
<rect x="35" y="491" width="84" height="21" fill="#333333"/>
<path d="M68.5547 495.625H70.0547V503.32C70.0547 504.174 69.8646 504.885 69.4844 505.453C69.1042 506.021 68.599 506.448 67.9688 506.734C67.3438 507.016 66.6641 507.156 65.9297 507.156C65.1589 507.156 64.4609 507.016 63.8359 506.734C63.2161 506.448 62.724 506.021 62.3594 505.453C62 504.885 61.8203 504.174 61.8203 503.32V495.625H63.3125V503.32C63.3125 503.914 63.4219 504.404 63.6406 504.789C63.8594 505.174 64.1641 505.461 64.5547 505.648C64.9505 505.836 65.4089 505.93 65.9297 505.93C66.4557 505.93 66.9141 505.836 67.3047 505.648C67.7005 505.461 68.0078 505.174 68.2266 504.789C68.4453 504.404 68.5547 503.914 68.5547 503.32V495.625ZM77.125 504.758C77.125 504.549 77.0781 504.357 76.9844 504.18C76.8958 503.997 76.7109 503.833 76.4297 503.688C76.1536 503.536 75.737 503.406 75.1797 503.297C74.7109 503.198 74.2865 503.081 73.9062 502.945C73.5312 502.81 73.2109 502.646 72.9453 502.453C72.6849 502.26 72.4844 502.034 72.3438 501.773C72.2031 501.513 72.1328 501.208 72.1328 500.859C72.1328 500.526 72.2057 500.211 72.3516 499.914C72.5026 499.617 72.7135 499.354 72.9844 499.125C73.2604 498.896 73.5911 498.716 73.9766 498.586C74.362 498.456 74.7917 498.391 75.2656 498.391C75.9427 498.391 76.5208 498.51 77 498.75C77.4792 498.99 77.8464 499.31 78.1016 499.711C78.3568 500.107 78.4844 500.547 78.4844 501.031H77.0391C77.0391 500.797 76.9688 500.57 76.8281 500.352C76.6927 500.128 76.4922 499.943 76.2266 499.797C75.9661 499.651 75.6458 499.578 75.2656 499.578C74.8646 499.578 74.5391 499.641 74.2891 499.766C74.0443 499.885 73.8646 500.039 73.75 500.227C73.6406 500.414 73.5859 500.612 73.5859 500.82C73.5859 500.977 73.612 501.117 73.6641 501.242C73.7214 501.362 73.8203 501.474 73.9609 501.578C74.1016 501.677 74.2995 501.771 74.5547 501.859C74.8099 501.948 75.1354 502.036 75.5312 502.125C76.224 502.281 76.7943 502.469 77.2422 502.688C77.6901 502.906 78.0234 503.174 78.2422 503.492C78.4609 503.81 78.5703 504.195 78.5703 504.648C78.5703 505.018 78.4922 505.357 78.3359 505.664C78.1849 505.971 77.9635 506.237 77.6719 506.461C77.3854 506.68 77.0417 506.852 76.6406 506.977C76.2448 507.096 75.7995 507.156 75.3047 507.156C74.5599 507.156 73.9297 507.023 73.4141 506.758C72.8984 506.492 72.5078 506.148 72.2422 505.727C71.9766 505.305 71.8438 504.859 71.8438 504.391H73.2969C73.3177 504.786 73.4323 505.102 73.6406 505.336C73.849 505.565 74.1042 505.729 74.4062 505.828C74.7083 505.922 75.0078 505.969 75.3047 505.969C75.7005 505.969 76.0312 505.917 76.2969 505.812C76.5677 505.708 76.7734 505.565 76.9141 505.383C77.0547 505.201 77.125 504.992 77.125 504.758ZM83.9766 507.156C83.388 507.156 82.8542 507.057 82.375 506.859C81.901 506.656 81.4922 506.372 81.1484 506.008C80.8099 505.643 80.5495 505.211 80.3672 504.711C80.1849 504.211 80.0938 503.664 80.0938 503.07V502.742C80.0938 502.055 80.1953 501.443 80.3984 500.906C80.6016 500.365 80.8776 499.906 81.2266 499.531C81.5755 499.156 81.9714 498.872 82.4141 498.68C82.8568 498.487 83.3151 498.391 83.7891 498.391C84.3932 498.391 84.9141 498.495 85.3516 498.703C85.7943 498.911 86.1562 499.203 86.4375 499.578C86.7188 499.948 86.9271 500.385 87.0625 500.891C87.1979 501.391 87.2656 501.938 87.2656 502.531V503.18H80.9531V502H85.8203V501.891C85.7995 501.516 85.7214 501.151 85.5859 500.797C85.4557 500.443 85.2474 500.151 84.9609 499.922C84.6745 499.693 84.2839 499.578 83.7891 499.578C83.4609 499.578 83.1589 499.648 82.8828 499.789C82.6068 499.924 82.3698 500.128 82.1719 500.398C81.974 500.669 81.8203 501 81.7109 501.391C81.6016 501.781 81.5469 502.232 81.5469 502.742V503.07C81.5469 503.471 81.6016 503.849 81.7109 504.203C81.8255 504.552 81.9896 504.859 82.2031 505.125C82.4219 505.391 82.6849 505.599 82.9922 505.75C83.3047 505.901 83.6589 505.977 84.0547 505.977C84.5651 505.977 84.9974 505.872 85.3516 505.664C85.7057 505.456 86.0156 505.177 86.2812 504.828L87.1562 505.523C86.974 505.799 86.7422 506.062 86.4609 506.312C86.1797 506.562 85.8333 506.766 85.4219 506.922C85.0156 507.078 84.5339 507.156 83.9766 507.156ZM90.3984 499.875V507H88.9531V498.547H90.3594L90.3984 499.875ZM93.0391 498.5L93.0312 499.844C92.9115 499.818 92.7969 499.802 92.6875 499.797C92.5833 499.786 92.4635 499.781 92.3281 499.781C91.9948 499.781 91.7005 499.833 91.4453 499.938C91.1901 500.042 90.974 500.188 90.7969 500.375C90.6198 500.562 90.4792 500.786 90.375 501.047C90.276 501.302 90.2109 501.583 90.1797 501.891L89.7734 502.125C89.7734 501.615 89.8229 501.135 89.9219 500.688C90.026 500.24 90.1849 499.844 90.3984 499.5C90.612 499.151 90.8828 498.88 91.2109 498.688C91.5443 498.49 91.9401 498.391 92.3984 498.391C92.5026 498.391 92.6224 498.404 92.7578 498.43C92.8932 498.451 92.987 498.474 93.0391 498.5Z" fill="white"/>
<path d="M146.032 55.0108L126.208 46L146.032 36.9892L143.54 42.803L143.5 42.8974V43V49V49.1026L143.54 49.197L146.032 55.0108Z" fill="#D97D41" stroke="#D97D41"/>
<rect x="144" y="43" width="3" height="6" fill="#D97D41"/>
<path d="M147 43H178C179.657 43 181 44.3431 181 46V46C181 47.6569 179.657 49 178 49H147V43Z" fill="#D97D41"/>
<path d="M146.032 158.011L126.208 149L146.032 139.989L143.54 145.803L143.5 145.897V146V152V152.103L143.54 152.197L146.032 158.011Z" fill="#D97D41" stroke="#D97D41"/>
<rect x="144" y="146" width="3" height="6" fill="#D97D41"/>
<path d="M147 146H178C179.657 146 181 147.343 181 149V149C181 150.657 179.657 152 178 152H147V146Z" fill="#D97D41"/>
<path d="M146.032 261.011L126.208 252L146.032 242.989L143.54 248.803L143.5 248.897V249V255V255.103L143.54 255.197L146.032 261.011Z" fill="#D97D41" stroke="#D97D41"/>
<rect x="144" y="249" width="3" height="6" fill="#D97D41"/>
<path d="M147 249H178C179.657 249 181 250.343 181 252V252C181 253.657 179.657 255 178 255H147V249Z" fill="#D97D41"/>
<path d="M146.032 368.011L126.208 359L146.032 349.989L143.54 355.803L143.5 355.897V356V362V362.103L143.54 362.197L146.032 368.011Z" fill="#D97D41" stroke="#D97D41"/>
<rect x="144" y="356" width="3" height="6" fill="#D97D41"/>
<path d="M147 356H178C179.657 356 181 357.343 181 359V359C181 360.657 179.657 362 178 362H147V356Z" fill="#D97D41"/>
<path d="M146.032 471.011L126.208 462L146.032 452.989L143.54 458.803L143.5 458.897V459V465V465.103L143.54 465.197L146.032 471.011Z" fill="#D97D41" stroke="#D97D41"/>
<rect x="144" y="459" width="3" height="6" fill="#D97D41"/>
<path d="M147 459H178C179.657 459 181 460.343 181 462V462C181 463.657 179.657 465 178 465H147V459Z" fill="#D97D41"/>
<path d="M202.762 32.3535V58H197.699V38.1895L191.617 40.123V36.1328L202.217 32.3535H202.762Z" fill="#333333"/>
<path d="M207.93 157.045V161H190.422V157.625L198.701 148.748C199.533 147.822 200.189 147.008 200.67 146.305C201.15 145.59 201.496 144.951 201.707 144.389C201.93 143.814 202.041 143.27 202.041 142.754C202.041 141.98 201.912 141.318 201.654 140.768C201.396 140.205 201.016 139.771 200.512 139.467C200.02 139.162 199.41 139.01 198.684 139.01C197.91 139.01 197.242 139.197 196.68 139.572C196.129 139.947 195.707 140.469 195.414 141.137C195.133 141.805 194.992 142.561 194.992 143.404H189.912C189.912 141.881 190.275 140.486 191.002 139.221C191.729 137.943 192.754 136.93 194.078 136.18C195.402 135.418 196.973 135.037 198.789 135.037C200.582 135.037 202.094 135.33 203.324 135.916C204.566 136.49 205.504 137.322 206.137 138.412C206.781 139.49 207.104 140.779 207.104 142.279C207.104 143.123 206.969 143.949 206.699 144.758C206.43 145.555 206.043 146.352 205.539 147.148C205.047 147.934 204.449 148.73 203.746 149.539C203.043 150.348 202.264 151.186 201.408 152.053L196.961 157.045H207.93Z" fill="#333333"/>
<path d="M195.607 249.006H198.314C199.182 249.006 199.896 248.859 200.459 248.566C201.021 248.262 201.438 247.84 201.707 247.301C201.988 246.75 202.129 246.111 202.129 245.385C202.129 244.729 202 244.148 201.742 243.645C201.496 243.129 201.115 242.73 200.6 242.449C200.084 242.156 199.434 242.01 198.648 242.01C198.027 242.01 197.453 242.133 196.926 242.379C196.398 242.625 195.977 242.971 195.66 243.416C195.344 243.861 195.186 244.4 195.186 245.033H190.105C190.105 243.627 190.48 242.402 191.23 241.359C191.992 240.316 193.012 239.502 194.289 238.916C195.566 238.33 196.973 238.037 198.508 238.037C200.242 238.037 201.76 238.318 203.061 238.881C204.361 239.432 205.375 240.246 206.102 241.324C206.828 242.402 207.191 243.738 207.191 245.332C207.191 246.141 207.004 246.926 206.629 247.688C206.254 248.438 205.715 249.117 205.012 249.727C204.32 250.324 203.477 250.805 202.48 251.168C201.484 251.52 200.365 251.695 199.123 251.695H195.607V249.006ZM195.607 252.855V250.236H199.123C200.518 250.236 201.742 250.395 202.797 250.711C203.852 251.027 204.736 251.484 205.451 252.082C206.166 252.668 206.705 253.365 207.068 254.174C207.432 254.971 207.613 255.855 207.613 256.828C207.613 258.023 207.385 259.09 206.928 260.027C206.471 260.953 205.826 261.738 204.994 262.383C204.174 263.027 203.213 263.52 202.111 263.859C201.01 264.188 199.809 264.352 198.508 264.352C197.43 264.352 196.369 264.205 195.326 263.912C194.295 263.607 193.357 263.156 192.514 262.559C191.682 261.949 191.014 261.188 190.51 260.273C190.018 259.348 189.771 258.252 189.771 256.986H194.852C194.852 257.643 195.016 258.229 195.344 258.744C195.672 259.26 196.123 259.664 196.697 259.957C197.283 260.25 197.934 260.396 198.648 260.396C199.457 260.396 200.148 260.25 200.723 259.957C201.309 259.652 201.754 259.23 202.059 258.691C202.375 258.141 202.533 257.502 202.533 256.775C202.533 255.838 202.363 255.088 202.023 254.525C201.684 253.951 201.197 253.529 200.564 253.26C199.932 252.99 199.182 252.855 198.314 252.855H195.607Z" fill="#333333"/>
<path d="M208.352 361.438V365.41H189.912L189.666 362.334L200.336 345.406H204.361L200.002 352.701L194.693 361.438H208.352ZM205.451 345.406V371H200.389V345.406H205.451Z" fill="#333333"/>
<path d="M195.186 462.346L191.143 461.379L192.602 448.406H206.98V452.502H196.768L196.135 458.18C196.475 457.98 196.99 457.77 197.682 457.547C198.373 457.312 199.146 457.195 200.002 457.195C201.244 457.195 202.346 457.389 203.307 457.775C204.268 458.162 205.082 458.725 205.75 459.463C206.43 460.201 206.945 461.104 207.297 462.17C207.648 463.236 207.824 464.443 207.824 465.791C207.824 466.928 207.648 468.012 207.297 469.043C206.945 470.062 206.412 470.977 205.697 471.785C204.982 472.582 204.086 473.209 203.008 473.666C201.93 474.123 200.652 474.352 199.176 474.352C198.074 474.352 197.008 474.188 195.977 473.859C194.957 473.531 194.037 473.045 193.217 472.4C192.408 471.756 191.758 470.977 191.266 470.062C190.785 469.137 190.533 468.082 190.51 466.898H195.537C195.607 467.625 195.795 468.252 196.1 468.779C196.416 469.295 196.832 469.693 197.348 469.975C197.863 470.256 198.467 470.396 199.158 470.396C199.803 470.396 200.354 470.273 200.811 470.027C201.268 469.781 201.637 469.441 201.918 469.008C202.199 468.562 202.404 468.047 202.533 467.461C202.674 466.863 202.744 466.219 202.744 465.527C202.744 464.836 202.662 464.209 202.498 463.646C202.334 463.084 202.082 462.598 201.742 462.188C201.402 461.777 200.969 461.461 200.441 461.238C199.926 461.016 199.322 460.904 198.631 460.904C197.693 460.904 196.967 461.051 196.451 461.344C195.947 461.637 195.525 461.971 195.186 462.346Z" fill="#333333"/>
</g>
<defs>
<filter id="filter0_i_2081_4216" x="35" y="18" width="85" height="56" filterUnits="userSpaceOnUse" color-interpolation-filters="sRGB">
<feFlood flood-opacity="0" result="BackgroundImageFix"/>
<feBlend mode="normal" in="SourceGraphic" in2="BackgroundImageFix" result="shape"/>
<feColorMatrix in="SourceAlpha" type="matrix" values="0 0 0 0 0 0 0 0 0 0 0 0 0 0 0 0 0 0 127 0" result="hardAlpha"/>
<feMorphology radius="2" operator="erode" in="SourceAlpha" result="effect1_innerShadow_2081_4216"/>
<feOffset/>
<feComposite in2="hardAlpha" operator="arithmetic" k2="-1" k3="1"/>
<feColorMatrix type="matrix" values="0 0 0 0 0.235294 0 0 0 0 0.235294 0 0 0 0 0.235294 0 0 0 1 0"/>
<feBlend mode="normal" in2="shape" result="effect1_innerShadow_2081_4216"/>
</filter>
<filter id="filter1_i_2081_4216" x="35" y="121" width="85" height="56" filterUnits="userSpaceOnUse" color-interpolation-filters="sRGB">
<feFlood flood-opacity="0" result="BackgroundImageFix"/>
<feBlend mode="normal" in="SourceGraphic" in2="BackgroundImageFix" result="shape"/>
<feColorMatrix in="SourceAlpha" type="matrix" values="0 0 0 0 0 0 0 0 0 0 0 0 0 0 0 0 0 0 127 0" result="hardAlpha"/>
<feMorphology radius="2" operator="erode" in="SourceAlpha" result="effect1_innerShadow_2081_4216"/>
<feOffset/>
<feComposite in2="hardAlpha" operator="arithmetic" k2="-1" k3="1"/>
<feColorMatrix type="matrix" values="0 0 0 0 0.235294 0 0 0 0 0.235294 0 0 0 0 0.235294 0 0 0 1 0"/>
<feBlend mode="normal" in2="shape" result="effect1_innerShadow_2081_4216"/>
</filter>
<filter id="filter2_i_2081_4216" x="34" y="224" width="85" height="56" filterUnits="userSpaceOnUse" color-interpolation-filters="sRGB">
<feFlood flood-opacity="0" result="BackgroundImageFix"/>
<feBlend mode="normal" in="SourceGraphic" in2="BackgroundImageFix" result="shape"/>
<feColorMatrix in="SourceAlpha" type="matrix" values="0 0 0 0 0 0 0 0 0 0 0 0 0 0 0 0 0 0 127 0" result="hardAlpha"/>
<feMorphology radius="2" operator="erode" in="SourceAlpha" result="effect1_innerShadow_2081_4216"/>
<feOffset/>
<feComposite in2="hardAlpha" operator="arithmetic" k2="-1" k3="1"/>
<feColorMatrix type="matrix" values="0 0 0 0 0.235294 0 0 0 0 0.235294 0 0 0 0 0.235294 0 0 0 1 0"/>
<feBlend mode="normal" in2="shape" result="effect1_innerShadow_2081_4216"/>
</filter>
<filter id="filter3_i_2081_4216" x="35" y="327" width="85" height="56" filterUnits="userSpaceOnUse" color-interpolation-filters="sRGB">
<feFlood flood-opacity="0" result="BackgroundImageFix"/>
<feBlend mode="normal" in="SourceGraphic" in2="BackgroundImageFix" result="shape"/>
<feColorMatrix in="SourceAlpha" type="matrix" values="0 0 0 0 0 0 0 0 0 0 0 0 0 0 0 0 0 0 127 0" result="hardAlpha"/>
<feMorphology radius="2" operator="erode" in="SourceAlpha" result="effect1_innerShadow_2081_4216"/>
<feOffset/>
<feComposite in2="hardAlpha" operator="arithmetic" k2="-1" k3="1"/>
<feColorMatrix type="matrix" values="0 0 0 0 0.235294 0 0 0 0 0.235294 0 0 0 0 0.235294 0 0 0 1 0"/>
<feBlend mode="normal" in2="shape" result="effect1_innerShadow_2081_4216"/>
</filter>
<filter id="filter4_i_2081_4216" x="35" y="430" width="85" height="56" filterUnits="userSpaceOnUse" color-interpolation-filters="sRGB">
<feFlood flood-opacity="0" result="BackgroundImageFix"/>
<feBlend mode="normal" in="SourceGraphic" in2="BackgroundImageFix" result="shape"/>
<feColorMatrix in="SourceAlpha" type="matrix" values="0 0 0 0 0 0 0 0 0 0 0 0 0 0 0 0 0 0 127 0" result="hardAlpha"/>
<feMorphology radius="2" operator="erode" in="SourceAlpha" result="effect1_innerShadow_2081_4216"/>
<feOffset/>
<feComposite in2="hardAlpha" operator="arithmetic" k2="-1" k3="1"/>
<feColorMatrix type="matrix" values="0 0 0 0 0.235294 0 0 0 0 0.235294 0 0 0 0 0.235294 0 0 0 1 0"/>
<feBlend mode="normal" in2="shape" result="effect1_innerShadow_2081_4216"/>
</filter>
<clipPath id="clip0_2081_4216">
<rect width="217" height="528" fill="white"/>
</clipPath>
</defs>
</svg>
