<svg width="557" height="222" viewBox="0 0 557 222" fill="none" xmlns="http://www.w3.org/2000/svg">
<g clip-path="url(#clip0_2616_3683)">
<rect y="-200" width="557" height="422" fill="#333333"/>
<rect x="25" y="-191" width="524" height="404" rx="8" fill="#596266"/>
<g filter="url(#filter0_i_2616_3683)">
<rect x="447" y="15" width="85" height="56" rx="9" fill="#6DA9CD"/>
</g>
<rect x="447.5" y="15.5" width="84" height="55" rx="8.5" stroke="#6DA9CD"/>
<path d="M473.01 46.5352C473.01 46.2305 472.963 45.957 472.87 45.7148C472.784 45.4648 472.62 45.2383 472.377 45.0352C472.135 44.8242 471.795 44.6172 471.358 44.4141C470.92 44.2109 470.354 44 469.659 43.7812C468.885 43.5312 468.151 43.25 467.455 42.9375C466.768 42.625 466.159 42.2617 465.627 41.8477C465.104 41.4258 464.69 40.9375 464.385 40.3828C464.088 39.8281 463.94 39.1836 463.94 38.4492C463.94 37.7383 464.096 37.0938 464.409 36.5156C464.721 35.9297 465.159 35.4297 465.721 35.0156C466.284 34.5938 466.948 34.2695 467.713 34.043C468.487 33.8164 469.334 33.7031 470.256 33.7031C471.514 33.7031 472.612 33.9297 473.549 34.3828C474.487 34.8359 475.213 35.457 475.729 36.2461C476.252 37.0352 476.514 37.9375 476.514 38.9531H473.022C473.022 38.4531 472.916 38.0156 472.705 37.6406C472.502 37.2578 472.19 36.957 471.768 36.7383C471.354 36.5195 470.83 36.4102 470.198 36.4102C469.588 36.4102 469.08 36.5039 468.674 36.6914C468.268 36.8711 467.963 37.1172 467.76 37.4297C467.557 37.7344 467.455 38.0781 467.455 38.4609C467.455 38.75 467.526 39.0117 467.666 39.2461C467.815 39.4805 468.034 39.6992 468.323 39.9023C468.612 40.1055 468.967 40.2969 469.389 40.4766C469.811 40.6562 470.299 40.832 470.854 41.0039C471.784 41.2852 472.6 41.6016 473.303 41.9531C474.014 42.3047 474.608 42.6992 475.084 43.1367C475.561 43.5742 475.92 44.0703 476.163 44.625C476.405 45.1797 476.526 45.8086 476.526 46.5117C476.526 47.2539 476.381 47.918 476.092 48.5039C475.803 49.0898 475.385 49.5859 474.838 49.9922C474.291 50.3984 473.639 50.707 472.881 50.918C472.123 51.1289 471.276 51.2344 470.338 51.2344C469.495 51.2344 468.663 51.125 467.842 50.9062C467.022 50.6797 466.276 50.3398 465.604 49.8867C464.94 49.4336 464.409 48.8555 464.01 48.1523C463.612 47.4492 463.413 46.6172 463.413 45.6562H466.94C466.94 46.1875 467.022 46.6367 467.186 47.0039C467.35 47.3711 467.58 47.668 467.877 47.8945C468.182 48.1211 468.541 48.2852 468.955 48.3867C469.377 48.4883 469.838 48.5391 470.338 48.5391C470.948 48.5391 471.448 48.4531 471.838 48.2812C472.237 48.1094 472.53 47.8711 472.717 47.5664C472.913 47.2617 473.01 46.918 473.01 46.5352ZM482.504 48.5977C482.918 48.5977 483.285 48.5195 483.605 48.3633C483.926 48.1992 484.176 47.9727 484.355 47.6836C484.543 47.3867 484.64 47.0391 484.648 46.6406H487.824C487.816 47.5312 487.578 48.3242 487.109 49.0195C486.64 49.707 486.012 50.25 485.222 50.6484C484.433 51.0391 483.551 51.2344 482.574 51.2344C481.59 51.2344 480.73 51.0703 479.996 50.7422C479.269 50.4141 478.664 49.9609 478.18 49.3828C477.695 48.7969 477.332 48.1172 477.09 47.3438C476.847 46.5625 476.726 45.7266 476.726 44.8359V44.4961C476.726 43.5977 476.847 42.7617 477.09 41.9883C477.332 41.207 477.695 40.5273 478.18 39.9492C478.664 39.3633 479.269 38.9062 479.996 38.5781C480.722 38.25 481.574 38.0859 482.551 38.0859C483.59 38.0859 484.5 38.2852 485.281 38.6836C486.07 39.082 486.687 39.6523 487.133 40.3945C487.586 41.1289 487.816 42 487.824 43.0078H484.648C484.64 42.5859 484.551 42.2031 484.379 41.8594C484.215 41.5156 483.972 41.2422 483.652 41.0391C483.34 40.8281 482.953 40.7227 482.492 40.7227C482 40.7227 481.597 40.8281 481.285 41.0391C480.972 41.2422 480.73 41.5234 480.558 41.8828C480.387 42.2344 480.265 42.6367 480.195 43.0898C480.133 43.5352 480.101 44.0039 480.101 44.4961V44.8359C480.101 45.3281 480.133 45.8008 480.195 46.2539C480.258 46.707 480.375 47.1094 480.547 47.4609C480.726 47.8125 480.972 48.0898 481.285 48.293C481.597 48.4961 482.004 48.5977 482.504 48.5977ZM491.716 41.0859V51H488.341V38.3203H491.517L491.716 41.0859ZM495.536 38.2383L495.478 41.3672C495.314 41.3438 495.115 41.3242 494.88 41.3086C494.654 41.2852 494.447 41.2734 494.259 41.2734C493.783 41.2734 493.368 41.3359 493.017 41.4609C492.673 41.5781 492.384 41.7539 492.15 41.9883C491.923 42.2227 491.751 42.5078 491.634 42.8438C491.525 43.1797 491.462 43.5625 491.447 43.9922L490.767 43.7812C490.767 42.9609 490.849 42.207 491.013 41.5195C491.177 40.8242 491.415 40.2188 491.728 39.7031C492.048 39.1875 492.439 38.7891 492.9 38.5078C493.361 38.2266 493.888 38.0859 494.482 38.0859C494.669 38.0859 494.861 38.1016 495.056 38.1328C495.251 38.1562 495.411 38.1914 495.536 38.2383ZM494.8 44.7891V44.543C494.8 43.6133 494.932 42.7578 495.198 41.9766C495.464 41.1875 495.85 40.5039 496.358 39.9258C496.866 39.3477 497.491 38.8984 498.233 38.5781C498.975 38.25 499.827 38.0859 500.788 38.0859C501.749 38.0859 502.604 38.25 503.354 38.5781C504.104 38.8984 504.733 39.3477 505.241 39.9258C505.757 40.5039 506.147 41.1875 506.413 41.9766C506.678 42.7578 506.811 43.6133 506.811 44.543V44.7891C506.811 45.7109 506.678 46.5664 506.413 47.3555C506.147 48.1367 505.757 48.8203 505.241 49.4062C504.733 49.9844 504.108 50.4336 503.366 50.7539C502.624 51.0742 501.772 51.2344 500.811 51.2344C499.85 51.2344 498.995 51.0742 498.245 50.7539C497.503 50.4336 496.874 49.9844 496.358 49.4062C495.85 48.8203 495.464 48.1367 495.198 47.3555C494.932 46.5664 494.8 45.7109 494.8 44.7891ZM498.175 44.543V44.7891C498.175 45.3203 498.221 45.8164 498.315 46.2773C498.409 46.7383 498.557 47.1445 498.76 47.4961C498.971 47.8398 499.245 48.1094 499.581 48.3047C499.917 48.5 500.327 48.5977 500.811 48.5977C501.28 48.5977 501.682 48.5 502.018 48.3047C502.354 48.1094 502.624 47.8398 502.827 47.4961C503.03 47.1445 503.178 46.7383 503.272 46.2773C503.374 45.8164 503.425 45.3203 503.425 44.7891V44.543C503.425 44.0273 503.374 43.543 503.272 43.0898C503.178 42.6289 503.026 42.2227 502.815 41.8711C502.612 41.5117 502.342 41.2305 502.007 41.0273C501.671 40.8242 501.264 40.7227 500.788 40.7227C500.311 40.7227 499.905 40.8242 499.569 41.0273C499.241 41.2305 498.971 41.5117 498.76 41.8711C498.557 42.2227 498.409 42.6289 498.315 43.0898C498.221 43.543 498.175 44.0273 498.175 44.543ZM511.008 33V51H507.621V33H511.008ZM515.92 33V51H512.533V33H515.92Z" fill="#333333"/>
<g filter="url(#filter1_i_2616_3683)">
<rect x="311" y="15" width="85" height="56" rx="9" fill="#6DA9CD"/>
</g>
<rect x="311.5" y="15.5" width="84" height="55" rx="8.5" stroke="#6DA9CD"/>
<path d="M325.625 45.3398H329.129C329.058 46.4883 328.742 47.5078 328.179 48.3984C327.625 49.2891 326.847 49.9844 325.847 50.4844C324.855 50.9844 323.66 51.2344 322.261 51.2344C321.168 51.2344 320.187 51.0469 319.32 50.6719C318.453 50.2891 317.711 49.7422 317.093 49.0312C316.484 48.3203 316.019 47.4609 315.699 46.4531C315.379 45.4453 315.218 44.3164 315.218 43.0664V41.8828C315.218 40.6328 315.382 39.5039 315.711 38.4961C316.047 37.4805 316.523 36.6172 317.14 35.9062C317.765 35.1953 318.511 34.6484 319.379 34.2656C320.246 33.8828 321.215 33.6914 322.285 33.6914C323.707 33.6914 324.906 33.9492 325.882 34.4648C326.867 34.9805 327.629 35.6914 328.168 36.5977C328.715 37.5039 329.043 38.5352 329.152 39.6914H325.636C325.597 39.0039 325.461 38.4219 325.226 37.9453C324.992 37.4609 324.636 37.0977 324.16 36.8555C323.691 36.6055 323.066 36.4805 322.285 36.4805C321.699 36.4805 321.187 36.5898 320.75 36.8086C320.312 37.0273 319.945 37.3594 319.648 37.8047C319.351 38.25 319.129 38.8125 318.98 39.4922C318.84 40.1641 318.769 40.9531 318.769 41.8594V43.0664C318.769 43.9492 318.836 44.7266 318.968 45.3984C319.101 46.0625 319.304 46.625 319.578 47.0859C319.859 47.5391 320.218 47.8828 320.656 48.1172C321.101 48.3438 321.636 48.457 322.261 48.457C322.996 48.457 323.601 48.3398 324.078 48.1055C324.554 47.8711 324.918 47.5234 325.168 47.0625C325.425 46.6016 325.578 46.0273 325.625 45.3398ZM333.079 33V51H329.704V33H333.079ZM332.599 44.2148H331.673C331.681 43.332 331.798 42.5195 332.025 41.7773C332.251 41.0273 332.575 40.3789 332.997 39.832C333.419 39.2773 333.923 38.8477 334.509 38.543C335.103 38.2383 335.759 38.0859 336.478 38.0859C337.103 38.0859 337.669 38.1758 338.177 38.3555C338.692 38.5273 339.134 38.8086 339.501 39.1992C339.876 39.582 340.165 40.0859 340.368 40.7109C340.571 41.3359 340.673 42.0938 340.673 42.9844V51H337.275V42.9609C337.275 42.3984 337.192 41.957 337.028 41.6367C336.872 41.3086 336.642 41.0781 336.337 40.9453C336.04 40.8047 335.673 40.7344 335.235 40.7344C334.751 40.7344 334.337 40.8242 333.993 41.0039C333.657 41.1836 333.388 41.4336 333.185 41.7539C332.982 42.0664 332.833 42.4336 332.739 42.8555C332.646 43.2773 332.599 43.7305 332.599 44.2148ZM348.643 48.1406V42.4922C348.643 42.0859 348.577 41.7383 348.444 41.4492C348.311 41.1523 348.104 40.9219 347.823 40.7578C347.549 40.5938 347.194 40.5117 346.756 40.5117C346.381 40.5117 346.057 40.5781 345.784 40.7109C345.51 40.8359 345.299 41.0195 345.151 41.2617C345.002 41.4961 344.928 41.7734 344.928 42.0938H341.553C341.553 41.5547 341.678 41.043 341.928 40.5586C342.178 40.0742 342.542 39.6484 343.018 39.2812C343.495 38.9062 344.061 38.6133 344.717 38.4023C345.381 38.1914 346.124 38.0859 346.944 38.0859C347.928 38.0859 348.803 38.25 349.569 38.5781C350.335 38.9062 350.936 39.3984 351.374 40.0547C351.819 40.7109 352.042 41.5312 352.042 42.5156V47.9414C352.042 48.6367 352.085 49.207 352.17 49.6523C352.256 50.0898 352.381 50.4727 352.545 50.8008V51H349.135C348.971 50.6562 348.846 50.2266 348.76 49.7109C348.682 49.1875 348.643 48.6641 348.643 48.1406ZM349.088 43.2773L349.112 45.1875H347.225C346.78 45.1875 346.393 45.2383 346.065 45.3398C345.737 45.4414 345.467 45.5859 345.256 45.7734C345.045 45.9531 344.889 46.1641 344.788 46.4062C344.694 46.6484 344.647 46.9141 344.647 47.2031C344.647 47.4922 344.713 47.7539 344.846 47.9883C344.979 48.2148 345.17 48.3945 345.42 48.5273C345.67 48.6523 345.963 48.7148 346.299 48.7148C346.807 48.7148 347.249 48.6133 347.624 48.4102C347.999 48.207 348.288 47.957 348.491 47.6602C348.702 47.3633 348.811 47.082 348.819 46.8164L349.71 48.2461C349.585 48.5664 349.413 48.8984 349.194 49.2422C348.983 49.5859 348.713 49.9102 348.385 50.2148C348.057 50.5117 347.663 50.7578 347.202 50.9531C346.741 51.1406 346.194 51.2344 345.561 51.2344C344.756 51.2344 344.026 51.0742 343.37 50.7539C342.721 50.4258 342.206 49.9766 341.823 49.4062C341.448 48.8281 341.26 48.1719 341.26 47.4375C341.26 46.7734 341.385 46.1836 341.635 45.668C341.885 45.1523 342.252 44.7188 342.737 44.3672C343.229 44.0078 343.842 43.7383 344.577 43.5586C345.311 43.3711 346.163 43.2773 347.131 43.2773H349.088ZM356.508 41.0273V51H353.133V38.3203H356.297L356.508 41.0273ZM356.016 44.2148H355.102C355.102 43.2773 355.223 42.4336 355.465 41.6836C355.707 40.9258 356.047 40.2812 356.484 39.75C356.922 39.2109 357.441 38.8008 358.043 38.5195C358.652 38.2305 359.332 38.0859 360.082 38.0859C360.676 38.0859 361.219 38.1719 361.711 38.3438C362.203 38.5156 362.625 38.7891 362.977 39.1641C363.336 39.5391 363.609 40.0352 363.797 40.6523C363.992 41.2695 364.09 42.0234 364.09 42.9141V51H360.691V42.9023C360.691 42.3398 360.613 41.9023 360.457 41.5898C360.301 41.2773 360.07 41.0586 359.766 40.9336C359.469 40.8008 359.102 40.7344 358.664 40.7344C358.211 40.7344 357.816 40.8242 357.48 41.0039C357.152 41.1836 356.879 41.4336 356.66 41.7539C356.449 42.0664 356.289 42.4336 356.18 42.8555C356.07 43.2773 356.016 43.7305 356.016 44.2148ZM368.521 41.0273V51H365.146V38.3203H368.31L368.521 41.0273ZM368.029 44.2148H367.115C367.115 43.2773 367.236 42.4336 367.478 41.6836C367.72 40.9258 368.06 40.2812 368.497 39.75C368.935 39.2109 369.455 38.8008 370.056 38.5195C370.665 38.2305 371.345 38.0859 372.095 38.0859C372.689 38.0859 373.232 38.1719 373.724 38.3438C374.216 38.5156 374.638 38.7891 374.99 39.1641C375.349 39.5391 375.622 40.0352 375.81 40.6523C376.005 41.2695 376.103 42.0234 376.103 42.9141V51H372.705V42.9023C372.705 42.3398 372.626 41.9023 372.47 41.5898C372.314 41.2773 372.083 41.0586 371.779 40.9336C371.482 40.8008 371.115 40.7344 370.677 40.7344C370.224 40.7344 369.83 40.8242 369.494 41.0039C369.165 41.1836 368.892 41.4336 368.673 41.7539C368.462 42.0664 368.302 42.4336 368.193 42.8555C368.083 43.2773 368.029 43.7305 368.029 44.2148ZM383.065 51.2344C382.081 51.2344 381.198 51.0781 380.417 50.7656C379.636 50.4453 378.972 50.0039 378.425 49.4414C377.886 48.8789 377.472 48.2266 377.182 47.4844C376.893 46.7344 376.749 45.9375 376.749 45.0938V44.625C376.749 43.6641 376.886 42.7852 377.159 41.9883C377.432 41.1914 377.823 40.5 378.331 39.9141C378.847 39.3281 379.472 38.8789 380.206 38.5664C380.94 38.2461 381.768 38.0859 382.69 38.0859C383.589 38.0859 384.386 38.2344 385.081 38.5312C385.776 38.8281 386.358 39.25 386.827 39.7969C387.304 40.3438 387.663 41 387.905 41.7656C388.147 42.5234 388.268 43.3672 388.268 44.2969V45.7031H378.19V43.4531H384.952V43.1953C384.952 42.7266 384.866 42.3086 384.694 41.9414C384.53 41.5664 384.28 41.2695 383.944 41.0508C383.608 40.832 383.179 40.7227 382.655 40.7227C382.21 40.7227 381.827 40.8203 381.507 41.0156C381.186 41.2109 380.925 41.4844 380.722 41.8359C380.526 42.1875 380.378 42.6016 380.276 43.0781C380.182 43.5469 380.136 44.0625 380.136 44.625V45.0938C380.136 45.6016 380.206 46.0703 380.347 46.5C380.495 46.9297 380.702 47.3008 380.968 47.6133C381.241 47.9258 381.569 48.168 381.952 48.3398C382.343 48.5117 382.784 48.5977 383.276 48.5977C383.886 48.5977 384.452 48.4805 384.975 48.2461C385.507 48.0039 385.964 47.6406 386.347 47.1562L387.987 48.9375C387.722 49.3203 387.358 49.6875 386.897 50.0391C386.444 50.3906 385.897 50.6797 385.257 50.9062C384.616 51.125 383.886 51.2344 383.065 51.2344ZM392.313 33V51H388.926V33H392.313Z" fill="#333333"/>
<g filter="url(#filter2_i_2616_3683)">
<rect x="175" y="15" width="85" height="56" rx="9" fill="#6DA9CD"/>
</g>
<rect x="175.5" y="15.5" width="84" height="55" rx="8.5" stroke="#6DA9CD"/>
<path d="M206.795 44.918H202.448V42.1758H206.795C207.467 42.1758 208.014 42.0664 208.436 41.8477C208.858 41.6211 209.167 41.3086 209.362 40.9102C209.557 40.5117 209.655 40.0625 209.655 39.5625C209.655 39.0547 209.557 38.582 209.362 38.1445C209.167 37.707 208.858 37.3555 208.436 37.0898C208.014 36.8242 207.467 36.6914 206.795 36.6914H203.667V51H200.151V33.9375H206.795C208.131 33.9375 209.276 34.1797 210.229 34.6641C211.19 35.1406 211.924 35.8008 212.432 36.6445C212.94 37.4883 213.194 38.4531 213.194 39.5391C213.194 40.6406 212.94 41.5938 212.432 42.3984C211.924 43.2031 211.19 43.8242 210.229 44.2617C209.276 44.6992 208.131 44.918 206.795 44.918ZM220.672 48.1406V42.4922C220.672 42.0859 220.605 41.7383 220.473 41.4492C220.34 41.1523 220.133 40.9219 219.852 40.7578C219.578 40.5938 219.223 40.5117 218.785 40.5117C218.41 40.5117 218.086 40.5781 217.812 40.7109C217.539 40.8359 217.328 41.0195 217.18 41.2617C217.031 41.4961 216.957 41.7734 216.957 42.0938H213.582C213.582 41.5547 213.707 41.043 213.957 40.5586C214.207 40.0742 214.57 39.6484 215.047 39.2812C215.523 38.9062 216.09 38.6133 216.746 38.4023C217.41 38.1914 218.152 38.0859 218.973 38.0859C219.957 38.0859 220.832 38.25 221.598 38.5781C222.363 38.9062 222.965 39.3984 223.402 40.0547C223.848 40.7109 224.07 41.5312 224.07 42.5156V47.9414C224.07 48.6367 224.113 49.207 224.199 49.6523C224.285 50.0898 224.41 50.4727 224.574 50.8008V51H221.164C221 50.6562 220.875 50.2266 220.789 49.7109C220.711 49.1875 220.672 48.6641 220.672 48.1406ZM221.117 43.2773L221.141 45.1875H219.254C218.809 45.1875 218.422 45.2383 218.094 45.3398C217.766 45.4414 217.496 45.5859 217.285 45.7734C217.074 45.9531 216.918 46.1641 216.816 46.4062C216.723 46.6484 216.676 46.9141 216.676 47.2031C216.676 47.4922 216.742 47.7539 216.875 47.9883C217.008 48.2148 217.199 48.3945 217.449 48.5273C217.699 48.6523 217.992 48.7148 218.328 48.7148C218.836 48.7148 219.277 48.6133 219.652 48.4102C220.027 48.207 220.316 47.957 220.52 47.6602C220.73 47.3633 220.84 47.082 220.848 46.8164L221.738 48.2461C221.613 48.5664 221.441 48.8984 221.223 49.2422C221.012 49.5859 220.742 49.9102 220.414 50.2148C220.086 50.5117 219.691 50.7578 219.23 50.9531C218.77 51.1406 218.223 51.2344 217.59 51.2344C216.785 51.2344 216.055 51.0742 215.398 50.7539C214.75 50.4258 214.234 49.9766 213.852 49.4062C213.477 48.8281 213.289 48.1719 213.289 47.4375C213.289 46.7734 213.414 46.1836 213.664 45.668C213.914 45.1523 214.281 44.7188 214.766 44.3672C215.258 44.0078 215.871 43.7383 216.605 43.5586C217.34 43.3711 218.191 43.2773 219.16 43.2773H221.117ZM228.537 41.0273V51H225.162V38.3203H228.326L228.537 41.0273ZM228.044 44.2148H227.13C227.13 43.2773 227.251 42.4336 227.494 41.6836C227.736 40.9258 228.076 40.2812 228.513 39.75C228.951 39.2109 229.47 38.8008 230.072 38.5195C230.681 38.2305 231.361 38.0859 232.111 38.0859C232.705 38.0859 233.247 38.1719 233.74 38.3438C234.232 38.5156 234.654 38.7891 235.005 39.1641C235.365 39.5391 235.638 40.0352 235.826 40.6523C236.021 41.2695 236.119 42.0234 236.119 42.9141V51H232.72V42.9023C232.72 42.3398 232.642 41.9023 232.486 41.5898C232.33 41.2773 232.099 41.0586 231.794 40.9336C231.497 40.8008 231.13 40.7344 230.693 40.7344C230.24 40.7344 229.845 40.8242 229.509 41.0039C229.181 41.1836 228.908 41.4336 228.689 41.7539C228.478 42.0664 228.318 42.4336 228.208 42.8555C228.099 43.2773 228.044 43.7305 228.044 44.2148Z" fill="#333333"/>
<g filter="url(#filter3_i_2616_3683)">
<rect x="39" y="15" width="85" height="56" rx="9" fill="#6DA9CD"/>
</g>
<rect x="39.5" y="15.5" width="84" height="55" rx="8.5" stroke="#6DA9CD"/>
<path d="M73.8475 48.2578V51H65.2577V48.2578H73.8475ZM66.3944 33.9375V51H62.8787V33.9375H66.3944ZM77.7747 38.3203V51H74.388V38.3203H77.7747ZM74.177 35.0156C74.177 34.5234 74.3489 34.1172 74.6927 33.7969C75.0364 33.4766 75.4973 33.3164 76.0755 33.3164C76.6458 33.3164 77.1028 33.4766 77.4466 33.7969C77.7981 34.1172 77.9739 34.5234 77.9739 35.0156C77.9739 35.5078 77.7981 35.9141 77.4466 36.2344C77.1028 36.5547 76.6458 36.7148 76.0755 36.7148C75.4973 36.7148 75.0364 36.5547 74.6927 36.2344C74.3489 35.9141 74.177 35.5078 74.177 35.0156ZM82.4284 41.0273V51H79.0534V38.3203H82.2175L82.4284 41.0273ZM81.9362 44.2148H81.0222C81.0222 43.2773 81.1433 42.4336 81.3855 41.6836C81.6277 40.9258 81.9675 40.2812 82.405 39.75C82.8425 39.2109 83.362 38.8008 83.9636 38.5195C84.573 38.2305 85.2527 38.0859 86.0027 38.0859C86.5964 38.0859 87.1394 38.1719 87.6316 38.3438C88.1237 38.5156 88.5456 38.7891 88.8972 39.1641C89.2566 39.5391 89.53 40.0352 89.7175 40.6523C89.9128 41.2695 90.0105 42.0234 90.0105 42.9141V51H86.612V42.9023C86.612 42.3398 86.5339 41.9023 86.3777 41.5898C86.2214 41.2773 85.9909 41.0586 85.6862 40.9336C85.3894 40.8008 85.0222 40.7344 84.5847 40.7344C84.1316 40.7344 83.737 40.8242 83.4011 41.0039C83.073 41.1836 82.7995 41.4336 82.5808 41.7539C82.3698 42.0664 82.2097 42.4336 82.1003 42.8555C81.9909 43.2773 81.9362 43.7305 81.9362 44.2148ZM94.5119 32.9883V51H91.1369V32.9883H94.5119ZM102.504 38.3203L96.9963 44.6016L94.0431 47.5898L92.8127 45.1523L95.1564 42.1758L98.4494 38.3203H102.504ZM99.0002 51L95.2502 45.1406L97.5822 43.1016L102.891 51H99.0002Z" fill="#333333"/>
<g filter="url(#filter4_i_2616_3683)">
<rect x="38" y="114" width="85" height="56" rx="9" fill="#D7A55A"/>
</g>
<rect x="38.5" y="114.5" width="84" height="55" rx="8.5" stroke="#D7A55A"/>
<path d="M49.6898 132.938H52.6664L57.0492 145.465L61.432 132.938H64.4086L58.2445 150H55.8539L49.6898 132.938ZM48.0844 132.938H51.0492L51.5883 145.148V150H48.0844V132.938ZM63.0492 132.938H66.0258V150H62.5102V145.148L63.0492 132.938ZM74.3006 147.141V141.492C74.3006 141.086 74.2342 140.738 74.1014 140.449C73.9686 140.152 73.7616 139.922 73.4803 139.758C73.2069 139.594 72.8514 139.512 72.4139 139.512C72.0389 139.512 71.7147 139.578 71.4412 139.711C71.1678 139.836 70.9569 140.02 70.8084 140.262C70.66 140.496 70.5858 140.773 70.5858 141.094H67.2108C67.2108 140.555 67.3358 140.043 67.5858 139.559C67.8358 139.074 68.1991 138.648 68.6756 138.281C69.1522 137.906 69.7186 137.613 70.3748 137.402C71.0389 137.191 71.7811 137.086 72.6014 137.086C73.5858 137.086 74.4608 137.25 75.2264 137.578C75.992 137.906 76.5936 138.398 77.0311 139.055C77.4764 139.711 77.6991 140.531 77.6991 141.516V146.941C77.6991 147.637 77.742 148.207 77.828 148.652C77.9139 149.09 78.0389 149.473 78.203 149.801V150H74.7928C74.6287 149.656 74.5037 149.227 74.4178 148.711C74.3397 148.188 74.3006 147.664 74.3006 147.141ZM74.7459 142.277L74.7694 144.188H72.8827C72.4373 144.188 72.0506 144.238 71.7225 144.34C71.3944 144.441 71.1248 144.586 70.9139 144.773C70.703 144.953 70.5467 145.164 70.4452 145.406C70.3514 145.648 70.3045 145.914 70.3045 146.203C70.3045 146.492 70.3709 146.754 70.5037 146.988C70.6366 147.215 70.828 147.395 71.078 147.527C71.328 147.652 71.6209 147.715 71.9569 147.715C72.4647 147.715 72.9061 147.613 73.2811 147.41C73.6561 147.207 73.9452 146.957 74.1483 146.66C74.3592 146.363 74.4686 146.082 74.4764 145.816L75.367 147.246C75.242 147.566 75.0702 147.898 74.8514 148.242C74.6405 148.586 74.3709 148.91 74.0428 149.215C73.7147 149.512 73.3202 149.758 72.8592 149.953C72.3983 150.141 71.8514 150.234 71.2186 150.234C70.4139 150.234 69.6834 150.074 69.0272 149.754C68.3787 149.426 67.8631 148.977 67.4803 148.406C67.1053 147.828 66.9178 147.172 66.9178 146.438C66.9178 145.773 67.0428 145.184 67.2928 144.668C67.5428 144.152 67.91 143.719 68.3944 143.367C68.8866 143.008 69.4998 142.738 70.2342 142.559C70.9686 142.371 71.8202 142.277 72.7889 142.277H74.7459ZM85.7161 146.496C85.7161 146.254 85.6458 146.035 85.5052 145.84C85.3645 145.645 85.1028 145.465 84.72 145.301C84.345 145.129 83.802 144.973 83.0911 144.832C82.4505 144.691 81.8528 144.516 81.2981 144.305C80.7512 144.086 80.2747 143.824 79.8684 143.52C79.47 143.215 79.1575 142.855 78.9309 142.441C78.7044 142.02 78.5911 141.539 78.5911 141C78.5911 140.469 78.7044 139.969 78.9309 139.5C79.1653 139.031 79.4973 138.617 79.927 138.258C80.3645 137.891 80.8958 137.605 81.5208 137.402C82.1536 137.191 82.8645 137.086 83.6536 137.086C84.7552 137.086 85.7005 137.262 86.4895 137.613C87.2864 137.965 87.8958 138.449 88.3177 139.066C88.7473 139.676 88.9622 140.371 88.9622 141.152H85.5872C85.5872 140.824 85.5169 140.531 85.3762 140.273C85.2434 140.008 85.0325 139.801 84.7434 139.652C84.4622 139.496 84.095 139.418 83.6419 139.418C83.2669 139.418 82.9427 139.484 82.6692 139.617C82.3958 139.742 82.1848 139.914 82.0364 140.133C81.8958 140.344 81.8255 140.578 81.8255 140.836C81.8255 141.031 81.8645 141.207 81.9427 141.363C82.0286 141.512 82.1653 141.648 82.3528 141.773C82.5403 141.898 82.7825 142.016 83.0794 142.125C83.3841 142.227 83.7591 142.32 84.2044 142.406C85.1184 142.594 85.9348 142.84 86.6536 143.145C87.3723 143.441 87.9427 143.848 88.3645 144.363C88.7864 144.871 88.9973 145.539 88.9973 146.367C88.9973 146.93 88.8723 147.445 88.6223 147.914C88.3723 148.383 88.013 148.793 87.5442 149.145C87.0755 149.488 86.513 149.758 85.8567 149.953C85.2083 150.141 84.4778 150.234 83.6653 150.234C82.4856 150.234 81.4856 150.023 80.6653 149.602C79.8528 149.18 79.2356 148.645 78.8137 147.996C78.3997 147.34 78.1927 146.668 78.1927 145.98H81.3919C81.4075 146.441 81.5247 146.812 81.7434 147.094C81.97 147.375 82.2552 147.578 82.5989 147.703C82.9505 147.828 83.3294 147.891 83.7356 147.891C84.1731 147.891 84.5364 147.832 84.8255 147.715C85.1145 147.59 85.3333 147.426 85.4817 147.223C85.638 147.012 85.7161 146.77 85.7161 146.496ZM95.9597 137.32V139.711H88.5769V137.32H95.9597ZM90.405 134.191H93.78V146.18C93.78 146.547 93.8269 146.828 93.9206 147.023C94.0222 147.219 94.1706 147.355 94.3659 147.434C94.5612 147.504 94.8073 147.539 95.1042 147.539C95.3152 147.539 95.5027 147.531 95.6667 147.516C95.8386 147.492 95.9831 147.469 96.1003 147.445L96.112 149.93C95.823 150.023 95.5105 150.098 95.1745 150.152C94.8386 150.207 94.4675 150.234 94.0612 150.234C93.3191 150.234 92.6706 150.113 92.1159 149.871C91.5691 149.621 91.1472 149.223 90.8503 148.676C90.5534 148.129 90.405 147.41 90.405 146.52V134.191ZM102.277 150.234C101.293 150.234 100.41 150.078 99.6291 149.766C98.8478 149.445 98.1837 149.004 97.6369 148.441C97.0978 147.879 96.6837 147.227 96.3947 146.484C96.1056 145.734 95.9611 144.938 95.9611 144.094V143.625C95.9611 142.664 96.0978 141.785 96.3712 140.988C96.6447 140.191 97.0353 139.5 97.5431 138.914C98.0587 138.328 98.6837 137.879 99.4181 137.566C100.152 137.246 100.981 137.086 101.902 137.086C102.801 137.086 103.598 137.234 104.293 137.531C104.988 137.828 105.57 138.25 106.039 138.797C106.516 139.344 106.875 140 107.117 140.766C107.36 141.523 107.481 142.367 107.481 143.297V144.703H97.4025V142.453H104.164V142.195C104.164 141.727 104.078 141.309 103.906 140.941C103.742 140.566 103.492 140.27 103.156 140.051C102.82 139.832 102.391 139.723 101.867 139.723C101.422 139.723 101.039 139.82 100.719 140.016C100.399 140.211 100.137 140.484 99.9337 140.836C99.7384 141.188 99.59 141.602 99.4884 142.078C99.3947 142.547 99.3478 143.062 99.3478 143.625V144.094C99.3478 144.602 99.4181 145.07 99.5587 145.5C99.7072 145.93 99.9142 146.301 100.18 146.613C100.453 146.926 100.781 147.168 101.164 147.34C101.555 147.512 101.996 147.598 102.488 147.598C103.098 147.598 103.664 147.48 104.188 147.246C104.719 147.004 105.176 146.641 105.559 146.156L107.199 147.938C106.934 148.32 106.57 148.688 106.11 149.039C105.656 149.391 105.11 149.68 104.469 149.906C103.828 150.125 103.098 150.234 102.277 150.234ZM111.337 140.086V150H107.962V137.32H111.138L111.337 140.086ZM115.158 137.238L115.099 140.367C114.935 140.344 114.736 140.324 114.502 140.309C114.275 140.285 114.068 140.273 113.88 140.273C113.404 140.273 112.99 140.336 112.638 140.461C112.295 140.578 112.005 140.754 111.771 140.988C111.545 141.223 111.373 141.508 111.255 141.844C111.146 142.18 111.084 142.562 111.068 142.992L110.388 142.781C110.388 141.961 110.47 141.207 110.634 140.52C110.798 139.824 111.037 139.219 111.349 138.703C111.67 138.188 112.06 137.789 112.521 137.508C112.982 137.227 113.509 137.086 114.103 137.086C114.291 137.086 114.482 137.102 114.677 137.133C114.873 137.156 115.033 137.191 115.158 137.238Z" fill="#333333"/>
<g filter="url(#filter5_i_2616_3683)">
<rect x="174" y="114" width="85" height="56" rx="9" fill="#81BA75"/>
</g>
<rect x="174.5" y="114.5" width="84" height="55" rx="8.5" stroke="#81BA75"/>
<path d="M204.423 144.34H207.927C207.857 145.488 207.54 146.508 206.978 147.398C206.423 148.289 205.646 148.984 204.646 149.484C203.653 149.984 202.458 150.234 201.06 150.234C199.966 150.234 198.985 150.047 198.118 149.672C197.251 149.289 196.509 148.742 195.892 148.031C195.282 147.32 194.818 146.461 194.497 145.453C194.177 144.445 194.017 143.316 194.017 142.066V140.883C194.017 139.633 194.181 138.504 194.509 137.496C194.845 136.48 195.321 135.617 195.939 134.906C196.564 134.195 197.31 133.648 198.177 133.266C199.044 132.883 200.013 132.691 201.083 132.691C202.505 132.691 203.704 132.949 204.681 133.465C205.665 133.98 206.427 134.691 206.966 135.598C207.513 136.504 207.841 137.535 207.95 138.691H204.435C204.396 138.004 204.259 137.422 204.025 136.945C203.79 136.461 203.435 136.098 202.958 135.855C202.489 135.605 201.864 135.48 201.083 135.48C200.497 135.48 199.985 135.59 199.548 135.809C199.11 136.027 198.743 136.359 198.446 136.805C198.15 137.25 197.927 137.812 197.778 138.492C197.638 139.164 197.568 139.953 197.568 140.859V142.066C197.568 142.949 197.634 143.727 197.767 144.398C197.9 145.062 198.103 145.625 198.376 146.086C198.657 146.539 199.017 146.883 199.454 147.117C199.9 147.344 200.435 147.457 201.06 147.457C201.794 147.457 202.4 147.34 202.876 147.105C203.353 146.871 203.716 146.523 203.966 146.062C204.224 145.602 204.376 145.027 204.423 144.34ZM212.147 132V150H208.76V132H212.147ZM217.059 137.32V150H213.672V137.32H217.059ZM213.461 134.016C213.461 133.523 213.633 133.117 213.977 132.797C214.32 132.477 214.781 132.316 215.359 132.316C215.93 132.316 216.387 132.477 216.73 132.797C217.082 133.117 217.258 133.523 217.258 134.016C217.258 134.508 217.082 134.914 216.73 135.234C216.387 135.555 215.93 135.715 215.359 135.715C214.781 135.715 214.32 135.555 213.977 135.234C213.633 134.914 213.461 134.508 213.461 134.016ZM223.646 147.598C224.06 147.598 224.427 147.52 224.748 147.363C225.068 147.199 225.318 146.973 225.498 146.684C225.685 146.387 225.783 146.039 225.79 145.641H228.966C228.958 146.531 228.72 147.324 228.251 148.02C227.783 148.707 227.154 149.25 226.365 149.648C225.576 150.039 224.693 150.234 223.716 150.234C222.732 150.234 221.873 150.07 221.138 149.742C220.412 149.414 219.806 148.961 219.322 148.383C218.837 147.797 218.474 147.117 218.232 146.344C217.99 145.562 217.869 144.727 217.869 143.836V143.496C217.869 142.598 217.99 141.762 218.232 140.988C218.474 140.207 218.837 139.527 219.322 138.949C219.806 138.363 220.412 137.906 221.138 137.578C221.865 137.25 222.716 137.086 223.693 137.086C224.732 137.086 225.642 137.285 226.423 137.684C227.212 138.082 227.83 138.652 228.275 139.395C228.728 140.129 228.958 141 228.966 142.008H225.79C225.783 141.586 225.693 141.203 225.521 140.859C225.357 140.516 225.115 140.242 224.794 140.039C224.482 139.828 224.095 139.723 223.634 139.723C223.142 139.723 222.74 139.828 222.427 140.039C222.115 140.242 221.873 140.523 221.701 140.883C221.529 141.234 221.408 141.637 221.337 142.09C221.275 142.535 221.244 143.004 221.244 143.496V143.836C221.244 144.328 221.275 144.801 221.337 145.254C221.4 145.707 221.517 146.109 221.689 146.461C221.869 146.812 222.115 147.09 222.427 147.293C222.74 147.496 223.146 147.598 223.646 147.598ZM232.858 131.988V150H229.483V131.988H232.858ZM240.85 137.32L235.343 143.602L232.39 146.59L231.159 144.152L233.503 141.176L236.796 137.32H240.85ZM237.347 150L233.597 144.141L235.929 142.102L241.237 150H237.347Z" fill="#333333"/>
<g filter="url(#filter6_i_2616_3683)">
<rect x="310" y="114" width="85" height="56" rx="9" fill="#6DA9CD"/>
</g>
<rect x="310.5" y="114.5" width="84" height="55" rx="8.5" stroke="#6DA9CD"/>
<path d="M326.851 145.535C326.851 145.23 326.804 144.957 326.711 144.715C326.625 144.465 326.461 144.238 326.218 144.035C325.976 143.824 325.636 143.617 325.199 143.414C324.761 143.211 324.195 143 323.5 142.781C322.726 142.531 321.992 142.25 321.297 141.938C320.609 141.625 320 141.262 319.468 140.848C318.945 140.426 318.531 139.938 318.226 139.383C317.929 138.828 317.781 138.184 317.781 137.449C317.781 136.738 317.937 136.094 318.25 135.516C318.562 134.93 319 134.43 319.562 134.016C320.125 133.594 320.789 133.27 321.554 133.043C322.328 132.816 323.175 132.703 324.097 132.703C325.355 132.703 326.453 132.93 327.39 133.383C328.328 133.836 329.054 134.457 329.57 135.246C330.093 136.035 330.355 136.938 330.355 137.953H326.863C326.863 137.453 326.757 137.016 326.547 136.641C326.343 136.258 326.031 135.957 325.609 135.738C325.195 135.52 324.672 135.41 324.039 135.41C323.429 135.41 322.922 135.504 322.515 135.691C322.109 135.871 321.804 136.117 321.601 136.43C321.398 136.734 321.297 137.078 321.297 137.461C321.297 137.75 321.367 138.012 321.507 138.246C321.656 138.48 321.875 138.699 322.164 138.902C322.453 139.105 322.808 139.297 323.23 139.477C323.652 139.656 324.14 139.832 324.695 140.004C325.625 140.285 326.441 140.602 327.144 140.953C327.855 141.305 328.449 141.699 328.925 142.137C329.402 142.574 329.761 143.07 330.004 143.625C330.246 144.18 330.367 144.809 330.367 145.512C330.367 146.254 330.222 146.918 329.933 147.504C329.644 148.09 329.226 148.586 328.679 148.992C328.132 149.398 327.48 149.707 326.722 149.918C325.965 150.129 325.117 150.234 324.179 150.234C323.336 150.234 322.504 150.125 321.683 149.906C320.863 149.68 320.117 149.34 319.445 148.887C318.781 148.434 318.25 147.855 317.851 147.152C317.453 146.449 317.254 145.617 317.254 144.656H320.781C320.781 145.188 320.863 145.637 321.027 146.004C321.191 146.371 321.422 146.668 321.718 146.895C322.023 147.121 322.382 147.285 322.797 147.387C323.218 147.488 323.679 147.539 324.179 147.539C324.789 147.539 325.289 147.453 325.679 147.281C326.078 147.109 326.371 146.871 326.558 146.566C326.754 146.262 326.851 145.918 326.851 145.535ZM336.942 150.234C335.958 150.234 335.075 150.078 334.294 149.766C333.513 149.445 332.849 149.004 332.302 148.441C331.763 147.879 331.349 147.227 331.06 146.484C330.771 145.734 330.626 144.938 330.626 144.094V143.625C330.626 142.664 330.763 141.785 331.036 140.988C331.31 140.191 331.7 139.5 332.208 138.914C332.724 138.328 333.349 137.879 334.083 137.566C334.817 137.246 335.646 137.086 336.567 137.086C337.466 137.086 338.263 137.234 338.958 137.531C339.653 137.828 340.235 138.25 340.704 138.797C341.181 139.344 341.54 140 341.782 140.766C342.025 141.523 342.146 142.367 342.146 143.297V144.703H332.067V142.453H338.829V142.195C338.829 141.727 338.743 141.309 338.571 140.941C338.407 140.566 338.157 140.27 337.821 140.051C337.485 139.832 337.056 139.723 336.532 139.723C336.087 139.723 335.704 139.82 335.384 140.016C335.064 140.211 334.802 140.484 334.599 140.836C334.403 141.188 334.255 141.602 334.153 142.078C334.06 142.547 334.013 143.062 334.013 143.625V144.094C334.013 144.602 334.083 145.07 334.224 145.5C334.372 145.93 334.579 146.301 334.845 146.613C335.118 146.926 335.446 147.168 335.829 147.34C336.22 147.512 336.661 147.598 337.153 147.598C337.763 147.598 338.329 147.48 338.853 147.246C339.384 147.004 339.841 146.641 340.224 146.156L341.864 147.938C341.599 148.32 341.235 148.688 340.775 149.039C340.321 149.391 339.775 149.68 339.134 149.906C338.493 150.125 337.763 150.234 336.942 150.234ZM347.866 147.598C348.28 147.598 348.647 147.52 348.967 147.363C349.288 147.199 349.538 146.973 349.717 146.684C349.905 146.387 350.002 146.039 350.01 145.641H353.186C353.178 146.531 352.94 147.324 352.471 148.02C352.002 148.707 351.374 149.25 350.585 149.648C349.795 150.039 348.913 150.234 347.936 150.234C346.952 150.234 346.092 150.07 345.358 149.742C344.631 149.414 344.026 148.961 343.542 148.383C343.057 147.797 342.694 147.117 342.452 146.344C342.21 145.562 342.088 144.727 342.088 143.836V143.496C342.088 142.598 342.21 141.762 342.452 140.988C342.694 140.207 343.057 139.527 343.542 138.949C344.026 138.363 344.631 137.906 345.358 137.578C346.085 137.25 346.936 137.086 347.913 137.086C348.952 137.086 349.862 137.285 350.643 137.684C351.432 138.082 352.049 138.652 352.495 139.395C352.948 140.129 353.178 141 353.186 142.008H350.01C350.002 141.586 349.913 141.203 349.741 140.859C349.577 140.516 349.335 140.242 349.014 140.039C348.702 139.828 348.315 139.723 347.854 139.723C347.362 139.723 346.96 139.828 346.647 140.039C346.335 140.242 346.092 140.523 345.92 140.883C345.749 141.234 345.627 141.637 345.557 142.09C345.495 142.535 345.463 143.004 345.463 143.496V143.836C345.463 144.328 345.495 144.801 345.557 145.254C345.62 145.707 345.737 146.109 345.909 146.461C346.088 146.812 346.335 147.09 346.647 147.293C346.96 147.496 347.366 147.598 347.866 147.598ZM359.914 137.32V139.711H352.531V137.32H359.914ZM354.359 134.191H357.734V146.18C357.734 146.547 357.781 146.828 357.875 147.023C357.977 147.219 358.125 147.355 358.32 147.434C358.516 147.504 358.762 147.539 359.059 147.539C359.27 147.539 359.457 147.531 359.621 147.516C359.793 147.492 359.938 147.469 360.055 147.445L360.066 149.93C359.777 150.023 359.465 150.098 359.129 150.152C358.793 150.207 358.422 150.234 358.016 150.234C357.273 150.234 356.625 150.113 356.07 149.871C355.523 149.621 355.102 149.223 354.805 148.676C354.508 148.129 354.359 147.41 354.359 146.52V134.191ZM363.958 137.32V150H360.572V137.32H363.958ZM360.361 134.016C360.361 133.523 360.533 133.117 360.876 132.797C361.22 132.477 361.681 132.316 362.259 132.316C362.83 132.316 363.287 132.477 363.63 132.797C363.982 133.117 364.158 133.523 364.158 134.016C364.158 134.508 363.982 134.914 363.63 135.234C363.287 135.555 362.83 135.715 362.259 135.715C361.681 135.715 361.22 135.555 360.876 135.234C360.533 134.914 360.361 134.508 360.361 134.016ZM364.768 143.789V143.543C364.768 142.613 364.901 141.758 365.167 140.977C365.432 140.188 365.819 139.504 366.327 138.926C366.835 138.348 367.46 137.898 368.202 137.578C368.944 137.25 369.796 137.086 370.757 137.086C371.718 137.086 372.573 137.25 373.323 137.578C374.073 137.898 374.702 138.348 375.21 138.926C375.725 139.504 376.116 140.188 376.382 140.977C376.647 141.758 376.78 142.613 376.78 143.543V143.789C376.78 144.711 376.647 145.566 376.382 146.355C376.116 147.137 375.725 147.82 375.21 148.406C374.702 148.984 374.077 149.434 373.335 149.754C372.593 150.074 371.741 150.234 370.78 150.234C369.819 150.234 368.964 150.074 368.214 149.754C367.472 149.434 366.843 148.984 366.327 148.406C365.819 147.82 365.432 147.137 365.167 146.355C364.901 145.566 364.768 144.711 364.768 143.789ZM368.143 143.543V143.789C368.143 144.32 368.19 144.816 368.284 145.277C368.378 145.738 368.526 146.145 368.729 146.496C368.94 146.84 369.214 147.109 369.55 147.305C369.886 147.5 370.296 147.598 370.78 147.598C371.249 147.598 371.651 147.5 371.987 147.305C372.323 147.109 372.593 146.84 372.796 146.496C372.999 146.145 373.147 145.738 373.241 145.277C373.343 144.816 373.393 144.32 373.393 143.789V143.543C373.393 143.027 373.343 142.543 373.241 142.09C373.147 141.629 372.995 141.223 372.784 140.871C372.581 140.512 372.311 140.23 371.975 140.027C371.64 139.824 371.233 139.723 370.757 139.723C370.28 139.723 369.874 139.824 369.538 140.027C369.21 140.23 368.94 140.512 368.729 140.871C368.526 141.223 368.378 141.629 368.284 142.09C368.19 142.543 368.143 143.027 368.143 143.543ZM380.719 140.027V150H377.344V137.32H380.508L380.719 140.027ZM380.227 143.215H379.313C379.313 142.277 379.434 141.434 379.676 140.684C379.918 139.926 380.258 139.281 380.696 138.75C381.133 138.211 381.653 137.801 382.254 137.52C382.864 137.23 383.543 137.086 384.293 137.086C384.887 137.086 385.43 137.172 385.922 137.344C386.414 137.516 386.836 137.789 387.188 138.164C387.547 138.539 387.821 139.035 388.008 139.652C388.203 140.27 388.301 141.023 388.301 141.914V150H384.903V141.902C384.903 141.34 384.825 140.902 384.668 140.59C384.512 140.277 384.282 140.059 383.977 139.934C383.68 139.801 383.313 139.734 382.875 139.734C382.422 139.734 382.028 139.824 381.692 140.004C381.364 140.184 381.09 140.434 380.871 140.754C380.66 141.066 380.5 141.434 380.391 141.855C380.282 142.277 380.227 142.73 380.227 143.215Z" fill="#333333"/>
<g filter="url(#filter7_i_2616_3683)">
<rect x="447" y="114" width="85" height="56" rx="9" fill="#6DA9CD"/>
</g>
<rect x="447.5" y="114.5" width="84" height="55" rx="8.5" stroke="#6DA9CD"/>
<path d="M458.233 132.938H461.209L465.592 145.465L469.975 132.938H472.952L466.787 150H464.397L458.233 132.938ZM456.627 132.938H459.592L460.131 145.148V150H456.627V132.938ZM471.592 132.938H474.569V150H471.053V145.148L471.592 132.938ZM482.844 147.141V141.492C482.844 141.086 482.777 140.738 482.644 140.449C482.512 140.152 482.305 139.922 482.023 139.758C481.75 139.594 481.394 139.512 480.957 139.512C480.582 139.512 480.258 139.578 479.984 139.711C479.711 139.836 479.5 140.02 479.351 140.262C479.203 140.496 479.129 140.773 479.129 141.094H475.754C475.754 140.555 475.879 140.043 476.129 139.559C476.379 139.074 476.742 138.648 477.219 138.281C477.695 137.906 478.262 137.613 478.918 137.402C479.582 137.191 480.324 137.086 481.144 137.086C482.129 137.086 483.004 137.25 483.769 137.578C484.535 137.906 485.137 138.398 485.574 139.055C486.019 139.711 486.242 140.531 486.242 141.516V146.941C486.242 147.637 486.285 148.207 486.371 148.652C486.457 149.09 486.582 149.473 486.746 149.801V150H483.336C483.172 149.656 483.047 149.227 482.961 148.711C482.883 148.188 482.844 147.664 482.844 147.141ZM483.289 142.277L483.312 144.188H481.426C480.98 144.188 480.594 144.238 480.265 144.34C479.937 144.441 479.668 144.586 479.457 144.773C479.246 144.953 479.09 145.164 478.988 145.406C478.894 145.648 478.847 145.914 478.847 146.203C478.847 146.492 478.914 146.754 479.047 146.988C479.18 147.215 479.371 147.395 479.621 147.527C479.871 147.652 480.164 147.715 480.5 147.715C481.008 147.715 481.449 147.613 481.824 147.41C482.199 147.207 482.488 146.957 482.691 146.66C482.902 146.363 483.012 146.082 483.019 145.816L483.91 147.246C483.785 147.566 483.613 147.898 483.394 148.242C483.183 148.586 482.914 148.91 482.586 149.215C482.258 149.512 481.863 149.758 481.402 149.953C480.941 150.141 480.394 150.234 479.762 150.234C478.957 150.234 478.226 150.074 477.57 149.754C476.922 149.426 476.406 148.977 476.023 148.406C475.648 147.828 475.461 147.172 475.461 146.438C475.461 145.773 475.586 145.184 475.836 144.668C476.086 144.152 476.453 143.719 476.937 143.367C477.43 143.008 478.043 142.738 478.777 142.559C479.512 142.371 480.363 142.277 481.332 142.277H483.289ZM490.779 140.086V150H487.404V137.32H490.579L490.779 140.086ZM494.599 137.238L494.54 140.367C494.376 140.344 494.177 140.324 493.943 140.309C493.716 140.285 493.509 140.273 493.322 140.273C492.845 140.273 492.431 140.336 492.079 140.461C491.736 140.578 491.447 140.754 491.212 140.988C490.986 141.223 490.814 141.508 490.697 141.844C490.587 142.18 490.525 142.562 490.509 142.992L489.829 142.781C489.829 141.961 489.911 141.207 490.075 140.52C490.24 139.824 490.478 139.219 490.79 138.703C491.111 138.188 491.501 137.789 491.962 137.508C492.423 137.227 492.95 137.086 493.544 137.086C493.732 137.086 493.923 137.102 494.118 137.133C494.314 137.156 494.474 137.191 494.599 137.238ZM498.128 131.988V150H494.753V131.988H498.128ZM506.12 137.32L500.612 143.602L497.659 146.59L496.428 144.152L498.772 141.176L502.065 137.32H506.12ZM502.616 150L498.866 144.141L501.198 142.102L506.507 150H502.616ZM511.735 150.234C510.75 150.234 509.867 150.078 509.086 149.766C508.305 149.445 507.641 149.004 507.094 148.441C506.555 147.879 506.141 147.227 505.852 146.484C505.563 145.734 505.418 144.938 505.418 144.094V143.625C505.418 142.664 505.555 141.785 505.828 140.988C506.102 140.191 506.492 139.5 507 138.914C507.516 138.328 508.141 137.879 508.875 137.566C509.61 137.246 510.438 137.086 511.36 137.086C512.258 137.086 513.055 137.234 513.75 137.531C514.445 137.828 515.027 138.25 515.496 138.797C515.973 139.344 516.332 140 516.574 140.766C516.817 141.523 516.938 142.367 516.938 143.297V144.703H506.86V142.453H513.621V142.195C513.621 141.727 513.535 141.309 513.363 140.941C513.199 140.566 512.949 140.27 512.613 140.051C512.277 139.832 511.848 139.723 511.324 139.723C510.879 139.723 510.496 139.82 510.176 140.016C509.856 140.211 509.594 140.484 509.391 140.836C509.195 141.188 509.047 141.602 508.945 142.078C508.852 142.547 508.805 143.062 508.805 143.625V144.094C508.805 144.602 508.875 145.07 509.016 145.5C509.164 145.93 509.371 146.301 509.637 146.613C509.91 146.926 510.238 147.168 510.621 147.34C511.012 147.512 511.453 147.598 511.945 147.598C512.555 147.598 513.121 147.48 513.645 147.246C514.176 147.004 514.633 146.641 515.016 146.156L516.656 147.938C516.391 148.32 516.027 148.688 515.567 149.039C515.113 149.391 514.567 149.68 513.926 149.906C513.285 150.125 512.555 150.234 511.735 150.234ZM520.795 140.086V150H517.42V137.32H520.595L520.795 140.086ZM524.615 137.238L524.556 140.367C524.392 140.344 524.193 140.324 523.959 140.309C523.732 140.285 523.525 140.273 523.337 140.273C522.861 140.273 522.447 140.336 522.095 140.461C521.752 140.578 521.462 140.754 521.228 140.988C521.002 141.223 520.83 141.508 520.712 141.844C520.603 142.18 520.541 142.562 520.525 142.992L519.845 142.781C519.845 141.961 519.927 141.207 520.091 140.52C520.255 139.824 520.494 139.219 520.806 138.703C521.127 138.188 521.517 137.789 521.978 137.508C522.439 137.227 522.966 137.086 523.56 137.086C523.748 137.086 523.939 137.102 524.134 137.133C524.33 137.156 524.49 137.191 524.615 137.238Z" fill="#333333"/>
<rect x="39" y="77" width="85" height="21" fill="white"/>
<path d="M72.6016 91.7734V93H66.9141V91.7734H72.6016ZM67.2109 81.625V93H65.7031V81.625H67.2109ZM73.7266 88.8672V88.6875C73.7266 88.0781 73.8151 87.513 73.9922 86.9922C74.1693 86.4661 74.4245 86.0104 74.7578 85.625C75.0911 85.2344 75.4948 84.9323 75.9688 84.7188C76.4427 84.5 76.974 84.3906 77.5625 84.3906C78.1562 84.3906 78.6901 84.5 79.1641 84.7188C79.6432 84.9323 80.0495 85.2344 80.3828 85.625C80.7214 86.0104 80.9792 86.4661 81.1562 86.9922C81.3333 87.513 81.4219 88.0781 81.4219 88.6875V88.8672C81.4219 89.4766 81.3333 90.0417 81.1562 90.5625C80.9792 91.0833 80.7214 91.5391 80.3828 91.9297C80.0495 92.3151 79.6458 92.6172 79.1719 92.8359C78.7031 93.0495 78.1719 93.1562 77.5781 93.1562C76.9844 93.1562 76.4505 93.0495 75.9766 92.8359C75.5026 92.6172 75.0964 92.3151 74.7578 91.9297C74.4245 91.5391 74.1693 91.0833 73.9922 90.5625C73.8151 90.0417 73.7266 89.4766 73.7266 88.8672ZM75.1719 88.6875V88.8672C75.1719 89.2891 75.2214 89.6875 75.3203 90.0625C75.4193 90.4323 75.5677 90.7604 75.7656 91.0469C75.9688 91.3333 76.2214 91.5599 76.5234 91.7266C76.8255 91.888 77.1771 91.9688 77.5781 91.9688C77.974 91.9688 78.3203 91.888 78.6172 91.7266C78.9193 91.5599 79.1693 91.3333 79.3672 91.0469C79.5651 90.7604 79.7135 90.4323 79.8125 90.0625C79.9167 89.6875 79.9688 89.2891 79.9688 88.8672V88.6875C79.9688 88.2708 79.9167 87.8776 79.8125 87.5078C79.7135 87.1328 79.5625 86.8021 79.3594 86.5156C79.1615 86.224 78.9115 85.9948 78.6094 85.8281C78.3125 85.6615 77.9635 85.5781 77.5625 85.5781C77.1667 85.5781 76.8177 85.6615 76.5156 85.8281C76.2188 85.9948 75.9688 86.224 75.7656 86.5156C75.5677 86.8021 75.4193 87.1328 75.3203 87.5078C75.2214 87.8776 75.1719 88.2708 75.1719 88.6875ZM86.6172 91.9688C86.9609 91.9688 87.2786 91.8984 87.5703 91.7578C87.862 91.6172 88.1016 91.4245 88.2891 91.1797C88.4766 90.9297 88.5833 90.6458 88.6094 90.3281H89.9844C89.9583 90.8281 89.7891 91.2943 89.4766 91.7266C89.1693 92.1536 88.7656 92.5 88.2656 92.7656C87.7656 93.026 87.2161 93.1562 86.6172 93.1562C85.9818 93.1562 85.4271 93.0443 84.9531 92.8203C84.4844 92.5964 84.0938 92.2891 83.7812 91.8984C83.474 91.5078 83.2422 91.0599 83.0859 90.5547C82.9349 90.0443 82.8594 89.5052 82.8594 88.9375V88.6094C82.8594 88.0417 82.9349 87.5052 83.0859 87C83.2422 86.4896 83.474 86.0391 83.7812 85.6484C84.0938 85.2578 84.4844 84.9505 84.9531 84.7266C85.4271 84.5026 85.9818 84.3906 86.6172 84.3906C87.2786 84.3906 87.8568 84.526 88.3516 84.7969C88.8464 85.0625 89.2344 85.4271 89.5156 85.8906C89.8021 86.349 89.9583 86.8698 89.9844 87.4531H88.6094C88.5833 87.1042 88.4844 86.7891 88.3125 86.5078C88.1458 86.2266 87.9167 86.0026 87.625 85.8359C87.3385 85.6641 87.0026 85.5781 86.6172 85.5781C86.1745 85.5781 85.8021 85.6667 85.5 85.8438C85.2031 86.0156 84.9661 86.25 84.7891 86.5469C84.6172 86.8385 84.4922 87.1641 84.4141 87.5234C84.3411 87.8776 84.3047 88.2396 84.3047 88.6094V88.9375C84.3047 89.3073 84.3411 89.6719 84.4141 90.0312C84.487 90.3906 84.6094 90.7161 84.7812 91.0078C84.9583 91.2995 85.1953 91.5339 85.4922 91.7109C85.7943 91.8828 86.1693 91.9688 86.6172 91.9688ZM93.0625 81V93H91.6094V81H93.0625ZM98.2266 84.5469L94.5391 88.4922L92.4766 90.6328L92.3594 89.0938L93.8359 87.3281L96.4609 84.5469H98.2266ZM96.9062 93L93.8906 88.9688L94.6406 87.6797L98.6094 93H96.9062Z" fill="#333333"/>
<rect x="175" y="77" width="85" height="21" fill="white"/>
<path d="M207.523 81.625V93H206.016V81.625H207.523ZM212.289 86.7422V87.9766H207.195V86.7422H212.289ZM213.062 81.625V82.8594H207.195V81.625H213.062ZM216.211 81V93H214.758V81H216.211ZM220.102 84.5469V93H218.648V84.5469H220.102ZM218.539 82.3047C218.539 82.0703 218.609 81.8724 218.75 81.7109C218.896 81.5495 219.109 81.4688 219.391 81.4688C219.667 81.4688 219.878 81.5495 220.023 81.7109C220.174 81.8724 220.25 82.0703 220.25 82.3047C220.25 82.5286 220.174 82.7214 220.023 82.8828C219.878 83.0391 219.667 83.1172 219.391 83.1172C219.109 83.1172 218.896 83.0391 218.75 82.8828C218.609 82.7214 218.539 82.5286 218.539 82.3047ZM223.867 86.1719V96.25H222.414V84.5469H223.742L223.867 86.1719ZM229.562 88.7031V88.8672C229.562 89.4818 229.49 90.0521 229.344 90.5781C229.198 91.099 228.984 91.5521 228.703 91.9375C228.427 92.3229 228.086 92.6224 227.68 92.8359C227.273 93.0495 226.807 93.1562 226.281 93.1562C225.745 93.1562 225.271 93.0677 224.859 92.8906C224.448 92.7135 224.099 92.4557 223.812 92.1172C223.526 91.7786 223.297 91.3724 223.125 90.8984C222.958 90.4245 222.844 89.8906 222.781 89.2969V88.4219C222.844 87.7969 222.961 87.237 223.133 86.7422C223.305 86.2474 223.531 85.8255 223.812 85.4766C224.099 85.1224 224.445 84.8542 224.852 84.6719C225.258 84.4844 225.727 84.3906 226.258 84.3906C226.789 84.3906 227.26 84.4948 227.672 84.7031C228.083 84.9062 228.43 85.1979 228.711 85.5781C228.992 85.9583 229.203 86.4141 229.344 86.9453C229.49 87.4714 229.562 88.0573 229.562 88.7031ZM228.109 88.8672V88.7031C228.109 88.2812 228.065 87.8854 227.977 87.5156C227.888 87.1406 227.75 86.8125 227.562 86.5312C227.38 86.2448 227.146 86.0208 226.859 85.8594C226.573 85.6927 226.232 85.6094 225.836 85.6094C225.471 85.6094 225.154 85.6719 224.883 85.7969C224.617 85.9219 224.391 86.0911 224.203 86.3047C224.016 86.513 223.862 86.7526 223.742 87.0234C223.628 87.2891 223.542 87.5651 223.484 87.8516V89.875C223.589 90.2396 223.734 90.5833 223.922 90.9062C224.109 91.224 224.359 91.4818 224.672 91.6797C224.984 91.8724 225.378 91.9688 225.852 91.9688C226.242 91.9688 226.578 91.888 226.859 91.7266C227.146 91.5599 227.38 91.3333 227.562 91.0469C227.75 90.7604 227.888 90.4323 227.977 90.0625C228.065 89.6875 228.109 89.2891 228.109 88.8672Z" fill="#333333"/>
<rect x="311" y="77" width="85" height="21" fill="white"/>
<path d="M344.602 91.7734V93H338.914V91.7734H344.602ZM339.211 81.625V93H337.703V81.625H339.211ZM345.727 88.8672V88.6875C345.727 88.0781 345.815 87.513 345.992 86.9922C346.169 86.4661 346.424 86.0104 346.758 85.625C347.091 85.2344 347.495 84.9323 347.969 84.7188C348.443 84.5 348.974 84.3906 349.562 84.3906C350.156 84.3906 350.69 84.5 351.164 84.7188C351.643 84.9323 352.049 85.2344 352.383 85.625C352.721 86.0104 352.979 86.4661 353.156 86.9922C353.333 87.513 353.422 88.0781 353.422 88.6875V88.8672C353.422 89.4766 353.333 90.0417 353.156 90.5625C352.979 91.0833 352.721 91.5391 352.383 91.9297C352.049 92.3151 351.646 92.6172 351.172 92.8359C350.703 93.0495 350.172 93.1562 349.578 93.1562C348.984 93.1562 348.451 93.0495 347.977 92.8359C347.503 92.6172 347.096 92.3151 346.758 91.9297C346.424 91.5391 346.169 91.0833 345.992 90.5625C345.815 90.0417 345.727 89.4766 345.727 88.8672ZM347.172 88.6875V88.8672C347.172 89.2891 347.221 89.6875 347.32 90.0625C347.419 90.4323 347.568 90.7604 347.766 91.0469C347.969 91.3333 348.221 91.5599 348.523 91.7266C348.826 91.888 349.177 91.9688 349.578 91.9688C349.974 91.9688 350.32 91.888 350.617 91.7266C350.919 91.5599 351.169 91.3333 351.367 91.0469C351.565 90.7604 351.714 90.4323 351.812 90.0625C351.917 89.6875 351.969 89.2891 351.969 88.8672V88.6875C351.969 88.2708 351.917 87.8776 351.812 87.5078C351.714 87.1328 351.562 86.8021 351.359 86.5156C351.161 86.224 350.911 85.9948 350.609 85.8281C350.312 85.6615 349.964 85.5781 349.562 85.5781C349.167 85.5781 348.818 85.6615 348.516 85.8281C348.219 85.9948 347.969 86.224 347.766 86.5156C347.568 86.8021 347.419 87.1328 347.32 87.5078C347.221 87.8776 347.172 88.2708 347.172 88.6875ZM358.617 91.9688C358.961 91.9688 359.279 91.8984 359.57 91.7578C359.862 91.6172 360.102 91.4245 360.289 91.1797C360.477 90.9297 360.583 90.6458 360.609 90.3281H361.984C361.958 90.8281 361.789 91.2943 361.477 91.7266C361.169 92.1536 360.766 92.5 360.266 92.7656C359.766 93.026 359.216 93.1562 358.617 93.1562C357.982 93.1562 357.427 93.0443 356.953 92.8203C356.484 92.5964 356.094 92.2891 355.781 91.8984C355.474 91.5078 355.242 91.0599 355.086 90.5547C354.935 90.0443 354.859 89.5052 354.859 88.9375V88.6094C354.859 88.0417 354.935 87.5052 355.086 87C355.242 86.4896 355.474 86.0391 355.781 85.6484C356.094 85.2578 356.484 84.9505 356.953 84.7266C357.427 84.5026 357.982 84.3906 358.617 84.3906C359.279 84.3906 359.857 84.526 360.352 84.7969C360.846 85.0625 361.234 85.4271 361.516 85.8906C361.802 86.349 361.958 86.8698 361.984 87.4531H360.609C360.583 87.1042 360.484 86.7891 360.312 86.5078C360.146 86.2266 359.917 86.0026 359.625 85.8359C359.339 85.6641 359.003 85.5781 358.617 85.5781C358.174 85.5781 357.802 85.6667 357.5 85.8438C357.203 86.0156 356.966 86.25 356.789 86.5469C356.617 86.8385 356.492 87.1641 356.414 87.5234C356.341 87.8776 356.305 88.2396 356.305 88.6094V88.9375C356.305 89.3073 356.341 89.6719 356.414 90.0312C356.487 90.3906 356.609 90.7161 356.781 91.0078C356.958 91.2995 357.195 91.5339 357.492 91.7109C357.794 91.8828 358.169 91.9688 358.617 91.9688ZM365.062 81V93H363.609V81H365.062ZM370.227 84.5469L366.539 88.4922L364.477 90.6328L364.359 89.0938L365.836 87.3281L368.461 84.5469H370.227ZM368.906 93L365.891 88.9688L366.641 87.6797L370.609 93H368.906Z" fill="#333333"/>
<rect x="447" y="176" width="85" height="21" fill="white"/>
<path d="M483.406 180.625V192H481.898V180.625H483.406ZM488.172 185.742V186.977H483.078V185.742H488.172ZM488.945 180.625V181.859H483.078V180.625H488.945ZM498.055 188.172V189.359H489.836V188.508L494.93 180.625H496.109L494.844 182.906L491.477 188.172H498.055ZM496.469 180.625V192H495.023V180.625H496.469Z" fill="#333333"/>
<rect x="447" y="77" width="85" height="21" fill="white"/>
<path d="M477.602 91.7734V93H469.898V91.7734H477.602ZM477.352 82.7188L470.258 93H469.328V91.875L476.414 81.625H477.352V82.7188ZM476.711 81.625V82.8594H469.43V81.625H476.711ZM478.789 88.8672V88.6875C478.789 88.0781 478.878 87.513 479.055 86.9922C479.232 86.4661 479.487 86.0104 479.82 85.625C480.154 85.2344 480.557 84.9323 481.031 84.7188C481.505 84.5 482.036 84.3906 482.625 84.3906C483.219 84.3906 483.753 84.5 484.227 84.7188C484.706 84.9323 485.112 85.2344 485.445 85.625C485.784 86.0104 486.042 86.4661 486.219 86.9922C486.396 87.513 486.484 88.0781 486.484 88.6875V88.8672C486.484 89.4766 486.396 90.0417 486.219 90.5625C486.042 91.0833 485.784 91.5391 485.445 91.9297C485.112 92.3151 484.708 92.6172 484.234 92.8359C483.766 93.0495 483.234 93.1562 482.641 93.1562C482.047 93.1562 481.513 93.0495 481.039 92.8359C480.565 92.6172 480.159 92.3151 479.82 91.9297C479.487 91.5391 479.232 91.0833 479.055 90.5625C478.878 90.0417 478.789 89.4766 478.789 88.8672ZM480.234 88.6875V88.8672C480.234 89.2891 480.284 89.6875 480.383 90.0625C480.482 90.4323 480.63 90.7604 480.828 91.0469C481.031 91.3333 481.284 91.5599 481.586 91.7266C481.888 91.888 482.24 91.9688 482.641 91.9688C483.036 91.9688 483.383 91.888 483.68 91.7266C483.982 91.5599 484.232 91.3333 484.43 91.0469C484.628 90.7604 484.776 90.4323 484.875 90.0625C484.979 89.6875 485.031 89.2891 485.031 88.8672V88.6875C485.031 88.2708 484.979 87.8776 484.875 87.5078C484.776 87.1328 484.625 86.8021 484.422 86.5156C484.224 86.224 483.974 85.9948 483.672 85.8281C483.375 85.6615 483.026 85.5781 482.625 85.5781C482.229 85.5781 481.88 85.6615 481.578 85.8281C481.281 85.9948 481.031 86.224 480.828 86.5156C480.63 86.8021 480.482 87.1328 480.383 87.5078C480.284 87.8776 480.234 88.2708 480.234 88.6875ZM487.914 88.8672V88.6875C487.914 88.0781 488.003 87.513 488.18 86.9922C488.357 86.4661 488.612 86.0104 488.945 85.625C489.279 85.2344 489.682 84.9323 490.156 84.7188C490.63 84.5 491.161 84.3906 491.75 84.3906C492.344 84.3906 492.878 84.5 493.352 84.7188C493.831 84.9323 494.237 85.2344 494.57 85.625C494.909 86.0104 495.167 86.4661 495.344 86.9922C495.521 87.513 495.609 88.0781 495.609 88.6875V88.8672C495.609 89.4766 495.521 90.0417 495.344 90.5625C495.167 91.0833 494.909 91.5391 494.57 91.9297C494.237 92.3151 493.833 92.6172 493.359 92.8359C492.891 93.0495 492.359 93.1562 491.766 93.1562C491.172 93.1562 490.638 93.0495 490.164 92.8359C489.69 92.6172 489.284 92.3151 488.945 91.9297C488.612 91.5391 488.357 91.0833 488.18 90.5625C488.003 90.0417 487.914 89.4766 487.914 88.8672ZM489.359 88.6875V88.8672C489.359 89.2891 489.409 89.6875 489.508 90.0625C489.607 90.4323 489.755 90.7604 489.953 91.0469C490.156 91.3333 490.409 91.5599 490.711 91.7266C491.013 91.888 491.365 91.9688 491.766 91.9688C492.161 91.9688 492.508 91.888 492.805 91.7266C493.107 91.5599 493.357 91.3333 493.555 91.0469C493.753 90.7604 493.901 90.4323 494 90.0625C494.104 89.6875 494.156 89.2891 494.156 88.8672V88.6875C494.156 88.2708 494.104 87.8776 494 87.5078C493.901 87.1328 493.75 86.8021 493.547 86.5156C493.349 86.224 493.099 85.9948 492.797 85.8281C492.5 85.6615 492.151 85.5781 491.75 85.5781C491.354 85.5781 491.005 85.6615 490.703 85.8281C490.406 85.9948 490.156 86.224 489.953 86.5156C489.755 86.8021 489.607 87.1328 489.508 87.5078C489.409 87.8776 489.359 88.2708 489.359 88.6875ZM498.859 86.2266V93H497.406V84.5469H498.781L498.859 86.2266ZM498.562 88.4531L497.891 88.4297C497.896 87.8516 497.971 87.3177 498.117 86.8281C498.263 86.3333 498.479 85.9036 498.766 85.5391C499.052 85.1745 499.409 84.8932 499.836 84.6953C500.263 84.4922 500.758 84.3906 501.32 84.3906C501.716 84.3906 502.081 84.4479 502.414 84.5625C502.747 84.6719 503.036 84.8464 503.281 85.0859C503.526 85.3255 503.716 85.6328 503.852 86.0078C503.987 86.3828 504.055 86.8359 504.055 87.3672V93H502.609V87.4375C502.609 86.9948 502.534 86.6406 502.383 86.375C502.237 86.1094 502.029 85.9167 501.758 85.7969C501.487 85.6719 501.169 85.6094 500.805 85.6094C500.378 85.6094 500.021 85.6849 499.734 85.8359C499.448 85.987 499.219 86.1953 499.047 86.4609C498.875 86.7266 498.75 87.0312 498.672 87.375C498.599 87.7135 498.562 88.0729 498.562 88.4531ZM504.039 87.6562L503.07 87.9531C503.076 87.4896 503.151 87.0443 503.297 86.6172C503.448 86.1901 503.664 85.8099 503.945 85.4766C504.232 85.1432 504.583 84.8802 505 84.6875C505.417 84.4896 505.893 84.3906 506.43 84.3906C506.883 84.3906 507.284 84.4505 507.633 84.5703C507.987 84.6901 508.284 84.875 508.523 85.125C508.768 85.3698 508.953 85.6849 509.078 86.0703C509.203 86.4557 509.266 86.9141 509.266 87.4453V93H507.812V87.4297C507.812 86.9557 507.737 86.5885 507.586 86.3281C507.44 86.0625 507.232 85.8776 506.961 85.7734C506.695 85.6641 506.378 85.6094 506.008 85.6094C505.69 85.6094 505.409 85.6641 505.164 85.7734C504.919 85.8828 504.714 86.0339 504.547 86.2266C504.38 86.4141 504.253 86.6302 504.164 86.875C504.081 87.1198 504.039 87.3802 504.039 87.6562Z" fill="#333333"/>
<rect x="311" y="176" width="85" height="21" fill="white"/>
<path d="M347.406 180.625V192H345.898V180.625H347.406ZM352.172 185.742V186.977H347.078V185.742H352.172ZM352.945 180.625V181.859H347.078V180.625H352.945ZM356.477 185.602H357.508C358.013 185.602 358.43 185.518 358.758 185.352C359.091 185.18 359.339 184.948 359.5 184.656C359.667 184.359 359.75 184.026 359.75 183.656C359.75 183.219 359.677 182.852 359.531 182.555C359.385 182.258 359.167 182.034 358.875 181.883C358.583 181.732 358.214 181.656 357.766 181.656C357.359 181.656 357 181.737 356.688 181.898C356.38 182.055 356.138 182.279 355.961 182.57C355.789 182.862 355.703 183.206 355.703 183.602H354.258C354.258 183.023 354.404 182.497 354.695 182.023C354.987 181.549 355.396 181.172 355.922 180.891C356.453 180.609 357.068 180.469 357.766 180.469C358.453 180.469 359.055 180.591 359.57 180.836C360.086 181.076 360.487 181.435 360.773 181.914C361.06 182.388 361.203 182.979 361.203 183.688C361.203 183.974 361.135 184.281 361 184.609C360.87 184.932 360.664 185.234 360.383 185.516C360.107 185.797 359.747 186.029 359.305 186.211C358.862 186.388 358.331 186.477 357.711 186.477H356.477V185.602ZM356.477 186.789V185.922H357.711C358.435 185.922 359.034 186.008 359.508 186.18C359.982 186.352 360.354 186.581 360.625 186.867C360.901 187.154 361.094 187.469 361.203 187.812C361.318 188.151 361.375 188.49 361.375 188.828C361.375 189.359 361.284 189.831 361.102 190.242C360.924 190.654 360.672 191.003 360.344 191.289C360.021 191.576 359.641 191.792 359.203 191.938C358.766 192.083 358.289 192.156 357.773 192.156C357.279 192.156 356.812 192.086 356.375 191.945C355.943 191.805 355.56 191.602 355.227 191.336C354.893 191.065 354.633 190.734 354.445 190.344C354.258 189.948 354.164 189.497 354.164 188.992H355.609C355.609 189.388 355.695 189.734 355.867 190.031C356.044 190.328 356.294 190.56 356.617 190.727C356.945 190.888 357.331 190.969 357.773 190.969C358.216 190.969 358.596 190.893 358.914 190.742C359.237 190.586 359.484 190.352 359.656 190.039C359.833 189.727 359.922 189.333 359.922 188.859C359.922 188.385 359.823 187.997 359.625 187.695C359.427 187.388 359.146 187.161 358.781 187.016C358.422 186.865 357.997 186.789 357.508 186.789H356.477Z" fill="#333333"/>
<rect x="175" y="176" width="85" height="21" fill="white"/>
<path d="M211.406 180.625V192H209.898V180.625H211.406ZM216.172 185.742V186.977H211.078V185.742H216.172ZM216.945 180.625V181.859H211.078V180.625H216.945ZM225.82 190.812V192H218.375V190.961L222.102 186.812C222.56 186.302 222.914 185.87 223.164 185.516C223.419 185.156 223.596 184.836 223.695 184.555C223.799 184.268 223.852 183.977 223.852 183.68C223.852 183.305 223.773 182.966 223.617 182.664C223.466 182.357 223.242 182.112 222.945 181.93C222.648 181.747 222.289 181.656 221.867 181.656C221.362 181.656 220.94 181.755 220.602 181.953C220.268 182.146 220.018 182.417 219.852 182.766C219.685 183.115 219.602 183.516 219.602 183.969H218.156C218.156 183.328 218.297 182.742 218.578 182.211C218.859 181.68 219.276 181.258 219.828 180.945C220.38 180.628 221.06 180.469 221.867 180.469C222.586 180.469 223.201 180.596 223.711 180.852C224.221 181.102 224.612 181.456 224.883 181.914C225.159 182.367 225.297 182.898 225.297 183.508C225.297 183.841 225.24 184.18 225.125 184.523C225.016 184.862 224.862 185.201 224.664 185.539C224.471 185.878 224.245 186.211 223.984 186.539C223.729 186.867 223.456 187.19 223.164 187.508L220.117 190.812H225.82Z" fill="#333333"/>
<rect x="39" y="176" width="85" height="21" fill="white"/>
<path d="M75.4062 180.625V192H73.8984V180.625H75.4062ZM80.1719 185.742V186.977H75.0781V185.742H80.1719ZM80.9453 180.625V181.859H75.0781V180.625H80.9453ZM87.1172 180.562V192H85.6719V182.367L82.7578 183.43V182.125L86.8906 180.562H87.1172Z" fill="#333333"/>
</g>
<defs>
<filter id="filter0_i_2616_3683" x="447" y="15" width="85" height="56" filterUnits="userSpaceOnUse" color-interpolation-filters="sRGB">
<feFlood flood-opacity="0" result="BackgroundImageFix"/>
<feBlend mode="normal" in="SourceGraphic" in2="BackgroundImageFix" result="shape"/>
<feColorMatrix in="SourceAlpha" type="matrix" values="0 0 0 0 0 0 0 0 0 0 0 0 0 0 0 0 0 0 127 0" result="hardAlpha"/>
<feMorphology radius="2" operator="erode" in="SourceAlpha" result="effect1_innerShadow_2616_3683"/>
<feOffset/>
<feComposite in2="hardAlpha" operator="arithmetic" k2="-1" k3="1"/>
<feColorMatrix type="matrix" values="0 0 0 0 0.235294 0 0 0 0 0.235294 0 0 0 0 0.235294 0 0 0 1 0"/>
<feBlend mode="normal" in2="shape" result="effect1_innerShadow_2616_3683"/>
</filter>
<filter id="filter1_i_2616_3683" x="311" y="15" width="85" height="56" filterUnits="userSpaceOnUse" color-interpolation-filters="sRGB">
<feFlood flood-opacity="0" result="BackgroundImageFix"/>
<feBlend mode="normal" in="SourceGraphic" in2="BackgroundImageFix" result="shape"/>
<feColorMatrix in="SourceAlpha" type="matrix" values="0 0 0 0 0 0 0 0 0 0 0 0 0 0 0 0 0 0 127 0" result="hardAlpha"/>
<feMorphology radius="2" operator="erode" in="SourceAlpha" result="effect1_innerShadow_2616_3683"/>
<feOffset/>
<feComposite in2="hardAlpha" operator="arithmetic" k2="-1" k3="1"/>
<feColorMatrix type="matrix" values="0 0 0 0 0.235294 0 0 0 0 0.235294 0 0 0 0 0.235294 0 0 0 1 0"/>
<feBlend mode="normal" in2="shape" result="effect1_innerShadow_2616_3683"/>
</filter>
<filter id="filter2_i_2616_3683" x="175" y="15" width="85" height="56" filterUnits="userSpaceOnUse" color-interpolation-filters="sRGB">
<feFlood flood-opacity="0" result="BackgroundImageFix"/>
<feBlend mode="normal" in="SourceGraphic" in2="BackgroundImageFix" result="shape"/>
<feColorMatrix in="SourceAlpha" type="matrix" values="0 0 0 0 0 0 0 0 0 0 0 0 0 0 0 0 0 0 127 0" result="hardAlpha"/>
<feMorphology radius="2" operator="erode" in="SourceAlpha" result="effect1_innerShadow_2616_3683"/>
<feOffset/>
<feComposite in2="hardAlpha" operator="arithmetic" k2="-1" k3="1"/>
<feColorMatrix type="matrix" values="0 0 0 0 0.235294 0 0 0 0 0.235294 0 0 0 0 0.235294 0 0 0 1 0"/>
<feBlend mode="normal" in2="shape" result="effect1_innerShadow_2616_3683"/>
</filter>
<filter id="filter3_i_2616_3683" x="39" y="15" width="85" height="56" filterUnits="userSpaceOnUse" color-interpolation-filters="sRGB">
<feFlood flood-opacity="0" result="BackgroundImageFix"/>
<feBlend mode="normal" in="SourceGraphic" in2="BackgroundImageFix" result="shape"/>
<feColorMatrix in="SourceAlpha" type="matrix" values="0 0 0 0 0 0 0 0 0 0 0 0 0 0 0 0 0 0 127 0" result="hardAlpha"/>
<feMorphology radius="2" operator="erode" in="SourceAlpha" result="effect1_innerShadow_2616_3683"/>
<feOffset/>
<feComposite in2="hardAlpha" operator="arithmetic" k2="-1" k3="1"/>
<feColorMatrix type="matrix" values="0 0 0 0 0.235294 0 0 0 0 0.235294 0 0 0 0 0.235294 0 0 0 1 0"/>
<feBlend mode="normal" in2="shape" result="effect1_innerShadow_2616_3683"/>
</filter>
<filter id="filter4_i_2616_3683" x="38" y="114" width="85" height="56" filterUnits="userSpaceOnUse" color-interpolation-filters="sRGB">
<feFlood flood-opacity="0" result="BackgroundImageFix"/>
<feBlend mode="normal" in="SourceGraphic" in2="BackgroundImageFix" result="shape"/>
<feColorMatrix in="SourceAlpha" type="matrix" values="0 0 0 0 0 0 0 0 0 0 0 0 0 0 0 0 0 0 127 0" result="hardAlpha"/>
<feMorphology radius="2" operator="erode" in="SourceAlpha" result="effect1_innerShadow_2616_3683"/>
<feOffset/>
<feComposite in2="hardAlpha" operator="arithmetic" k2="-1" k3="1"/>
<feColorMatrix type="matrix" values="0 0 0 0 0.235294 0 0 0 0 0.235294 0 0 0 0 0.235294 0 0 0 1 0"/>
<feBlend mode="normal" in2="shape" result="effect1_innerShadow_2616_3683"/>
</filter>
<filter id="filter5_i_2616_3683" x="174" y="114" width="85" height="56" filterUnits="userSpaceOnUse" color-interpolation-filters="sRGB">
<feFlood flood-opacity="0" result="BackgroundImageFix"/>
<feBlend mode="normal" in="SourceGraphic" in2="BackgroundImageFix" result="shape"/>
<feColorMatrix in="SourceAlpha" type="matrix" values="0 0 0 0 0 0 0 0 0 0 0 0 0 0 0 0 0 0 127 0" result="hardAlpha"/>
<feMorphology radius="2" operator="erode" in="SourceAlpha" result="effect1_innerShadow_2616_3683"/>
<feOffset/>
<feComposite in2="hardAlpha" operator="arithmetic" k2="-1" k3="1"/>
<feColorMatrix type="matrix" values="0 0 0 0 0.235294 0 0 0 0 0.235294 0 0 0 0 0.235294 0 0 0 1 0"/>
<feBlend mode="normal" in2="shape" result="effect1_innerShadow_2616_3683"/>
</filter>
<filter id="filter6_i_2616_3683" x="310" y="114" width="85" height="56" filterUnits="userSpaceOnUse" color-interpolation-filters="sRGB">
<feFlood flood-opacity="0" result="BackgroundImageFix"/>
<feBlend mode="normal" in="SourceGraphic" in2="BackgroundImageFix" result="shape"/>
<feColorMatrix in="SourceAlpha" type="matrix" values="0 0 0 0 0 0 0 0 0 0 0 0 0 0 0 0 0 0 127 0" result="hardAlpha"/>
<feMorphology radius="2" operator="erode" in="SourceAlpha" result="effect1_innerShadow_2616_3683"/>
<feOffset/>
<feComposite in2="hardAlpha" operator="arithmetic" k2="-1" k3="1"/>
<feColorMatrix type="matrix" values="0 0 0 0 0.235294 0 0 0 0 0.235294 0 0 0 0 0.235294 0 0 0 1 0"/>
<feBlend mode="normal" in2="shape" result="effect1_innerShadow_2616_3683"/>
</filter>
<filter id="filter7_i_2616_3683" x="447" y="114" width="85" height="56" filterUnits="userSpaceOnUse" color-interpolation-filters="sRGB">
<feFlood flood-opacity="0" result="BackgroundImageFix"/>
<feBlend mode="normal" in="SourceGraphic" in2="BackgroundImageFix" result="shape"/>
<feColorMatrix in="SourceAlpha" type="matrix" values="0 0 0 0 0 0 0 0 0 0 0 0 0 0 0 0 0 0 127 0" result="hardAlpha"/>
<feMorphology radius="2" operator="erode" in="SourceAlpha" result="effect1_innerShadow_2616_3683"/>
<feOffset/>
<feComposite in2="hardAlpha" operator="arithmetic" k2="-1" k3="1"/>
<feColorMatrix type="matrix" values="0 0 0 0 0.235294 0 0 0 0 0.235294 0 0 0 0 0.235294 0 0 0 1 0"/>
<feBlend mode="normal" in2="shape" result="effect1_innerShadow_2616_3683"/>
</filter>
<clipPath id="clip0_2616_3683">
<rect width="557" height="222" fill="white"/>
</clipPath>
</defs>
</svg>
