<svg width="36" height="36" viewBox="0 0 36 36" fill="none" xmlns="http://www.w3.org/2000/svg">
<path d="M30 12H25.785C25.11 10.8 24.18 9.75 23.055 9L25.5 6.615L23.385 4.5L20.13 7.755C19.44 7.59 18.75 7.5 18 7.5C17.25 7.5 16.575 7.59 15.885 7.755L12.615 4.5L10.5 6.615L12.93 9C11.805 9.75 10.89 10.815 10.215 12H6V15H9.135C9.045 15.495 9 15.99 9 16.5V18H6V21H9V22.5C9 23.01 9.045 23.505 9.135 24H6V27H10.215C12.705 31.305 18.21 32.76 22.5 30.27C23.865 29.49 25.005 28.35 25.785 27H30V24H26.865C26.955 23.505 27 23.01 27 22.5V21H30V18H27V16.5C27 15.99 26.955 15.495 26.865 15H30V12ZM24 22.5C24 24.0913 23.3679 25.6174 22.2426 26.7426C21.1174 27.8679 19.5913 28.5 18 28.5C16.4087 28.5 14.8826 27.8679 13.7574 26.7426C12.6321 25.6174 12 24.0913 12 22.5V16.5C12 14.9087 12.6321 13.3826 13.7574 12.2574C14.8826 11.1321 16.4087 10.5 18 10.5C19.5913 10.5 21.1174 11.1321 22.2426 12.2574C23.3679 13.3826 24 14.9087 24 16.5V22.5ZM21 15V18H15V15H21ZM15 21H21V24H15V21Z" fill="black"/>
</svg>
