<svg width="36" height="36" viewBox="0 0 36 36" fill="none" xmlns="http://www.w3.org/2000/svg">
<g clip-path="url(#clip0_1820_2309)">
<path d="M14.8 3.19995L11.2 3.99995L9.6 8.39995H8.4L8 12.4L10 13.2L12 30.4L13.6 32.7999H21.6L23.6 31.5999L26 13.2L28.4 11.6L27.6 9.19995L26 7.99995L24.8 4.39995L22.8 3.19995H14.8Z" fill="white"/>
<path d="M26.7346 9.4438L26.7127 9.43089L26.6619 9.41541C26.6823 9.43264 26.7079 9.44265 26.7346 9.4438Z" fill="#0D0C22"/>
<path d="M26.7439 9.44029C26.7408 9.43989 26.7377 9.43916 26.7348 9.43811C26.7346 9.44014 26.7346 9.44219 26.7348 9.44421C26.7381 9.44376 26.7413 9.44241 26.7439 9.44029Z" fill="#0D0C22"/>
<path d="M26.7346 9.44407H26.7379V9.44202L26.7346 9.44407Z" fill="#0D0C22"/>
<path d="M27.0349 11.7258L27.0719 11.7047L27.0857 11.6969L27.0982 11.6836C27.0747 11.6937 27.0533 11.708 27.0349 11.7258Z" fill="#0D0C22"/>
<path d="M26.7985 9.49371L26.7623 9.45926L26.7378 9.44592C26.751 9.46919 26.7728 9.48635 26.7985 9.49371Z" fill="#0D0C22"/>
<path d="M17.7003 31.6777C17.6714 31.6902 17.6461 31.7098 17.6267 31.7345L17.6495 31.72C17.665 31.7058 17.687 31.689 17.7003 31.6777Z" fill="#0D0C22"/>
<path d="M22.9836 30.6381C22.9836 30.6056 22.9677 30.6116 22.9715 30.7277C22.9715 30.7185 22.9754 30.7089 22.9772 30.6999C22.9793 30.6792 22.981 30.6589 22.9836 30.6381Z" fill="#0D0C22"/>
<path d="M22.4357 31.6777C22.4068 31.6902 22.3815 31.7098 22.3621 31.7345L22.3849 31.72C22.4004 31.7058 22.4223 31.689 22.4357 31.6777Z" fill="#0D0C22"/>
<path d="M13.9793 31.9248C13.9574 31.9058 13.9306 31.8933 13.9019 31.8885C13.9251 31.8998 13.9483 31.9111 13.9638 31.9196L13.9793 31.9248Z" fill="#0D0C22"/>
<path d="M13.1421 31.1231C13.1387 31.0893 13.1283 31.0565 13.1116 31.0267C13.1234 31.0575 13.1333 31.0893 13.1413 31.1213L13.1421 31.1231Z" fill="#0D0C22"/>
<path d="M18.7662 16.7825C17.6167 17.2745 16.3123 17.8325 14.6218 17.8325C13.9145 17.831 13.2107 17.734 12.5295 17.544L13.6988 29.5486C13.7402 30.0502 13.9687 30.5181 14.3391 30.8591C14.7095 31.2001 15.1945 31.3892 15.698 31.3892C15.698 31.3892 17.3558 31.4753 17.909 31.4753C18.5044 31.4753 20.2897 31.3892 20.2897 31.3892C20.7931 31.3892 21.278 31.1998 21.6483 30.8588C22.0186 30.5178 22.2471 30.0502 22.2885 29.5486L23.5408 16.2831C22.9812 16.092 22.4163 15.965 21.7796 15.965C20.6784 15.9645 19.7912 16.3438 18.7662 16.7825Z" fill="#FFDD00"/>
<path d="M8.91016 11.6609L8.92996 11.6794L8.94287 11.6872C8.93293 11.6773 8.92196 11.6685 8.91016 11.6609Z" fill="#0D0C22"/>
<path d="M28.9478 10.5529L28.7717 9.66479C28.6137 8.86794 28.2551 8.115 27.4372 7.827C27.175 7.73486 26.8775 7.69527 26.6765 7.50455C26.4754 7.31385 26.416 7.01767 26.3695 6.74301C26.2834 6.23889 26.2025 5.73434 26.1142 5.2311C26.0381 4.79844 25.9778 4.31241 25.7793 3.9155C25.521 3.38254 24.9851 3.07086 24.4521 2.86465C24.179 2.76271 23.9003 2.67647 23.6174 2.60635C22.2858 2.25507 20.8858 2.12592 19.516 2.0523C17.8718 1.96158 16.2232 1.98891 14.5829 2.1341C13.362 2.24517 12.0761 2.37948 10.916 2.8018C10.4919 2.95635 10.055 3.14189 9.73254 3.4695C9.3369 3.87201 9.20775 4.49451 9.4966 4.99647C9.70196 5.35292 10.0498 5.60477 10.4187 5.77137C10.8993 5.98604 11.4012 6.14939 11.916 6.2587C13.3496 6.57555 14.8343 6.69995 16.2989 6.75291C17.9222 6.81841 19.548 6.76532 21.1635 6.59404C21.563 6.55013 21.9618 6.49746 22.3599 6.43607C22.8287 6.36416 23.1296 5.75113 22.9914 5.32407C22.8261 4.81352 22.3818 4.61549 21.8795 4.69255C21.8054 4.70416 21.7318 4.71492 21.6577 4.72568L21.6044 4.73344C21.4342 4.75498 21.264 4.77504 21.0938 4.79371C20.7422 4.83159 20.3898 4.86259 20.0365 4.8867C19.2452 4.9418 18.4518 4.96719 17.6589 4.96849C16.8796 4.96849 16.1 4.94653 15.3225 4.89531C14.9678 4.87207 14.6139 4.8425 14.2609 4.80662C14.1003 4.78983 13.9402 4.77219 13.7801 4.75238L13.6277 4.73301L13.5945 4.72828L13.4365 4.70546C13.1137 4.6568 12.7908 4.60086 12.4714 4.53325C12.4391 4.5261 12.4103 4.50818 12.3896 4.48242C12.3689 4.45667 12.3577 4.42464 12.3577 4.39163C12.3577 4.35861 12.3689 4.32658 12.3896 4.30083C12.4103 4.27507 12.4391 4.25714 12.4714 4.24999H12.4774C12.7542 4.19101 13.0331 4.14065 13.313 4.09673C13.4063 4.0821 13.4998 4.06775 13.5937 4.05368H13.5962C13.7714 4.04206 13.9475 4.01063 14.1219 3.98997C15.6388 3.83218 17.1647 3.77839 18.689 3.82896C19.429 3.85049 20.1686 3.89397 20.9052 3.96888C21.0636 3.98524 21.2212 4.00246 21.3788 4.02183C21.439 4.02915 21.4997 4.03775 21.5605 4.04508L21.6827 4.06272C22.0392 4.11582 22.3937 4.18025 22.7465 4.25602C23.2691 4.36967 23.9402 4.40669 24.1727 4.97925C24.2468 5.16092 24.2803 5.36283 24.3212 5.55353L24.3733 5.79677C24.3747 5.80112 24.3757 5.8056 24.3763 5.8101C24.4994 6.3841 24.6227 6.9581 24.7461 7.5321C24.7552 7.5745 24.7554 7.61831 24.7467 7.6608C24.7381 7.70331 24.7208 7.74354 24.6959 7.77906C24.6711 7.81457 24.6391 7.84457 24.6021 7.86718C24.5651 7.8898 24.5239 7.90454 24.4809 7.91052H24.4775L24.4021 7.92085L24.3277 7.93073C24.0918 7.96146 23.8556 7.99015 23.6191 8.01685C23.1533 8.06994 22.6868 8.11585 22.2195 8.15461C21.2911 8.23179 20.3608 8.28246 19.4286 8.30658C18.9536 8.31919 18.4788 8.32509 18.0041 8.32422C16.1146 8.32274 14.2268 8.2129 12.35 7.99531C12.1467 7.97121 11.9436 7.94537 11.7404 7.91912C11.8979 7.93936 11.6258 7.90361 11.5707 7.89588C11.4416 7.87779 11.3124 7.859 11.1833 7.83949C10.7498 7.77446 10.3189 7.6944 9.88621 7.62422C9.36316 7.53813 8.86292 7.58119 8.3898 7.83949C8.00145 8.052 7.68713 8.37788 7.48877 8.77367C7.28472 9.19555 7.22402 9.65488 7.13275 10.1082C7.04149 10.5615 6.89942 11.0493 6.95323 11.5146C7.06904 12.519 7.77118 13.3352 8.78113 13.5177C9.73124 13.6899 10.6865 13.8294 11.6444 13.9482C15.407 14.4091 19.2083 14.4642 22.9828 14.1127C23.2902 14.084 23.5971 14.0527 23.9036 14.0188C23.9994 14.0083 24.0963 14.0193 24.1872 14.0511C24.2781 14.0829 24.3608 14.1346 24.4291 14.2025C24.4975 14.2703 24.5498 14.3526 24.5822 14.4433C24.6146 14.534 24.6264 14.6308 24.6165 14.7266L24.521 15.6556C24.3284 17.5328 24.1358 19.41 23.9432 21.2869C23.7424 23.258 23.5401 25.229 23.3367 27.1997C23.2793 27.7549 23.2219 28.3098 23.1645 28.8645C23.1094 29.4109 23.1016 29.9744 22.9979 30.5143C22.8343 31.3632 22.2596 31.8846 21.421 32.0752C20.6527 32.2501 19.8678 32.342 19.0799 32.349C18.2064 32.3537 17.3334 32.3149 16.4599 32.3197C15.5274 32.3249 14.3853 32.2389 13.6656 31.5448C13.0331 30.9354 12.9457 29.9809 12.8597 29.1555C12.7449 28.0629 12.6311 26.9705 12.5183 25.8782L11.8854 19.8043L11.476 15.8743C11.4691 15.8093 11.4623 15.7451 11.4558 15.6797C11.4067 15.2109 11.0748 14.752 10.5518 14.7757C10.1041 14.7954 9.5952 15.176 9.64772 15.6797L9.95121 18.5933L10.5789 24.6203C10.7577 26.3322 10.9361 28.0443 11.114 29.7569C11.1484 30.0849 11.1807 30.4139 11.2169 30.742C11.4136 32.5346 12.7826 33.5006 14.4779 33.7726C15.468 33.9319 16.4823 33.9647 17.4871 33.981C18.7751 34.0017 20.0761 34.0513 21.343 33.8179C23.2204 33.4733 24.629 32.2199 24.8301 30.2753C24.8875 29.7139 24.9449 29.1525 25.0023 28.5908C25.1931 26.7333 25.3837 24.8757 25.574 23.0179L26.1965 16.948L26.4819 14.1661C26.4961 14.0281 26.5544 13.8984 26.648 13.7962C26.7417 13.6939 26.8658 13.6245 27.0019 13.5982C27.5387 13.4936 28.0519 13.315 28.4338 12.9064C29.0416 12.256 29.1626 11.4079 28.9478 10.5529ZM8.75357 11.153C8.76175 11.1491 8.74669 11.2193 8.74023 11.252C8.73894 11.2025 8.74152 11.1586 8.75357 11.153ZM8.80567 11.556C8.80997 11.5529 8.82288 11.5702 8.83623 11.5908C8.816 11.5719 8.80351 11.5577 8.80567 11.556ZM8.8569 11.6235C8.87541 11.655 8.88531 11.6748 8.8569 11.6235V11.6235ZM8.95978 11.7071H8.96236C8.96236 11.7101 8.9671 11.7131 8.96882 11.7161C8.96597 11.7128 8.96323 11.7098 8.95978 11.7071ZM26.977 11.5822C26.7841 11.7656 26.4935 11.8508 26.2064 11.8935C22.9862 12.3713 19.7192 12.6133 16.4638 12.5065C14.1339 12.4269 11.8286 12.1681 9.52202 11.8422C9.296 11.8104 9.05105 11.7691 8.89564 11.6025C8.6029 11.2882 8.74669 10.6554 8.82288 10.2757C8.89263 9.92782 9.02608 9.46418 9.43979 9.41467C10.0855 9.33891 10.8354 9.6114 11.4743 9.70827C12.2435 9.82564 13.0155 9.91964 13.7904 9.99024C17.0975 10.2916 20.4601 10.2447 23.7525 9.80385C24.3527 9.72318 24.9506 9.62949 25.5464 9.52273C26.0772 9.42758 26.6657 9.24894 26.9864 9.79867C27.2064 10.1732 27.2357 10.6743 27.2017 11.0975C27.1912 11.2819 27.1111 11.4553 26.977 11.5822Z" fill="#0D0C22"/>
</g>
<defs>
<clipPath id="clip0_1820_2309">
<rect width="32" height="32" fill="white" transform="translate(2 2)"/>
</clipPath>
</defs>
</svg>
