<svg width="78" height="102" viewBox="0 0 78 102" fill="none" xmlns="http://www.w3.org/2000/svg">
<rect x="0.5" y="0.5" width="77" height="101" rx="8.5" fill="#001724" stroke="black"/>
<rect width="72" height="17" transform="translate(3 4)" fill="white"/>
<path d="M24.249 18V7.2627H31.6099V9.0791H26.417V11.6206H30.8994V13.437H26.417V18H24.249ZM35.3599 18H33.3018V10.2217H35.2134V11.3276C35.5405 10.8052 35.8335 10.4609 36.0923 10.2949C36.356 10.1289 36.6538 10.0459 36.9858 10.0459C37.4546 10.0459 37.9062 10.1753 38.3408 10.4341L37.7036 12.2285C37.3569 12.0039 37.0347 11.8916 36.7368 11.8916C36.4487 11.8916 36.2046 11.9722 36.0044 12.1333C35.8042 12.2896 35.6455 12.5752 35.5283 12.9902C35.416 13.4053 35.3599 14.2744 35.3599 15.5977V18ZM43.7388 15.5244L45.7896 15.8687C45.5259 16.6206 45.1084 17.1943 44.5371 17.5898C43.9707 17.9805 43.2603 18.1758 42.4058 18.1758C41.0532 18.1758 40.0522 17.7339 39.4028 16.8501C38.8901 16.1421 38.6338 15.2485 38.6338 14.1694C38.6338 12.8804 38.9707 11.8721 39.6445 11.1445C40.3184 10.4121 41.1704 10.0459 42.2007 10.0459C43.3579 10.0459 44.271 10.4292 44.9399 11.1958C45.6089 11.9575 45.9287 13.127 45.8994 14.7041H40.7432C40.7578 15.3145 40.9238 15.7905 41.2412 16.1323C41.5586 16.4692 41.9541 16.6377 42.4277 16.6377C42.75 16.6377 43.021 16.5498 43.2407 16.374C43.4604 16.1982 43.6265 15.915 43.7388 15.5244ZM43.856 13.4443C43.8413 12.8486 43.6875 12.397 43.3945 12.0894C43.1016 11.7769 42.7451 11.6206 42.3252 11.6206C41.876 11.6206 41.5049 11.7842 41.2119 12.1113C40.9189 12.4385 40.7749 12.8828 40.7798 13.4443H43.856ZM52.0884 15.5244L54.1392 15.8687C53.8755 16.6206 53.458 17.1943 52.8867 17.5898C52.3203 17.9805 51.6099 18.1758 50.7554 18.1758C49.4028 18.1758 48.4019 17.7339 47.7524 16.8501C47.2397 16.1421 46.9834 15.2485 46.9834 14.1694C46.9834 12.8804 47.3203 11.8721 47.9941 11.1445C48.668 10.4121 49.52 10.0459 50.5503 10.0459C51.7075 10.0459 52.6206 10.4292 53.2896 11.1958C53.9585 11.9575 54.2783 13.127 54.249 14.7041H49.0928C49.1074 15.3145 49.2734 15.7905 49.5908 16.1323C49.9082 16.4692 50.3037 16.6377 50.7773 16.6377C51.0996 16.6377 51.3706 16.5498 51.5903 16.374C51.8101 16.1982 51.9761 15.915 52.0884 15.5244ZM52.2056 13.4443C52.1909 12.8486 52.0371 12.397 51.7441 12.0894C51.4512 11.7769 51.0947 11.6206 50.6748 11.6206C50.2256 11.6206 49.8545 11.7842 49.5615 12.1113C49.2686 12.4385 49.1245 12.8828 49.1294 13.4443H52.2056Z" fill="#333333"/>
<rect width="72" height="17" transform="translate(3 42)" fill="white"/>
<path d="M24.249 56V45.2627H31.6099V47.0791H26.417V49.6206H30.8994V51.437H26.417V56H24.249ZM35.3599 56H33.3018V48.2217H35.2134V49.3276C35.5405 48.8052 35.8335 48.4609 36.0923 48.2949C36.356 48.1289 36.6538 48.0459 36.9858 48.0459C37.4546 48.0459 37.9062 48.1753 38.3408 48.4341L37.7036 50.2285C37.3569 50.0039 37.0347 49.8916 36.7368 49.8916C36.4487 49.8916 36.2046 49.9722 36.0044 50.1333C35.8042 50.2896 35.6455 50.5752 35.5283 50.9902C35.416 51.4053 35.3599 52.2744 35.3599 53.5977V56ZM43.7388 53.5244L45.7896 53.8687C45.5259 54.6206 45.1084 55.1943 44.5371 55.5898C43.9707 55.9805 43.2603 56.1758 42.4058 56.1758C41.0532 56.1758 40.0522 55.7339 39.4028 54.8501C38.8901 54.1421 38.6338 53.2485 38.6338 52.1694C38.6338 50.8804 38.9707 49.8721 39.6445 49.1445C40.3184 48.4121 41.1704 48.0459 42.2007 48.0459C43.3579 48.0459 44.271 48.4292 44.9399 49.1958C45.6089 49.9575 45.9287 51.127 45.8994 52.7041H40.7432C40.7578 53.3145 40.9238 53.7905 41.2412 54.1323C41.5586 54.4692 41.9541 54.6377 42.4277 54.6377C42.75 54.6377 43.021 54.5498 43.2407 54.374C43.4604 54.1982 43.6265 53.915 43.7388 53.5244ZM43.856 51.4443C43.8413 50.8486 43.6875 50.397 43.3945 50.0894C43.1016 49.7769 42.7451 49.6206 42.3252 49.6206C41.876 49.6206 41.5049 49.7842 41.2119 50.1113C40.9189 50.4385 40.7749 50.8828 40.7798 51.4443H43.856ZM52.0884 53.5244L54.1392 53.8687C53.8755 54.6206 53.458 55.1943 52.8867 55.5898C52.3203 55.9805 51.6099 56.1758 50.7554 56.1758C49.4028 56.1758 48.4019 55.7339 47.7524 54.8501C47.2397 54.1421 46.9834 53.2485 46.9834 52.1694C46.9834 50.8804 47.3203 49.8721 47.9941 49.1445C48.668 48.4121 49.52 48.0459 50.5503 48.0459C51.7075 48.0459 52.6206 48.4292 53.2896 49.1958C53.9585 49.9575 54.2783 51.127 54.249 52.7041H49.0928C49.1074 53.3145 49.2734 53.7905 49.5908 54.1323C49.9082 54.4692 50.3037 54.6377 50.7773 54.6377C51.0996 54.6377 51.3706 54.5498 51.5903 54.374C51.8101 54.1982 51.9761 53.915 52.0884 53.5244ZM52.2056 51.4443C52.1909 50.8486 52.0371 50.397 51.7441 50.0894C51.4512 49.7769 51.0947 49.6206 50.6748 49.6206C50.2256 49.6206 49.8545 49.7842 49.5615 50.1113C49.2686 50.4385 49.1245 50.8828 49.1294 51.4443H52.2056Z" fill="#333333"/>
<rect x="3.5" y="81.5" width="71" height="12" stroke="white"/>
<rect x="24.5" y="82" width="2" height="12" fill="white"/>
</svg>
