<svg width="335" height="102" viewBox="0 0 335 102" fill="none" xmlns="http://www.w3.org/2000/svg">
<rect x="0.5" y="0.5" width="77" height="101" rx="8.5" fill="#001724" stroke="black"/>
<path d="M16.6318 17V8.0791H13.4458V6.2627H21.9785V8.0791H18.7998V17H16.6318ZM24.5054 17H22.4473V9.22168H24.3589V10.3276C24.686 9.80518 24.979 9.46094 25.2378 9.29492C25.5015 9.12891 25.7993 9.0459 26.1313 9.0459C26.6001 9.0459 27.0518 9.17529 27.4863 9.43408L26.8491 11.2285C26.5024 11.0039 26.1802 10.8916 25.8823 10.8916C25.5942 10.8916 25.3501 10.9722 25.1499 11.1333C24.9497 11.2896 24.791 11.5752 24.6738 11.9902C24.5615 12.4053 24.5054 13.2744 24.5054 14.5977V17ZM29.918 11.5947L28.0503 11.2578C28.2603 10.5059 28.6216 9.94922 29.1343 9.58789C29.647 9.22656 30.4087 9.0459 31.4194 9.0459C32.3374 9.0459 33.021 9.15576 33.4702 9.37549C33.9194 9.59033 34.2344 9.86621 34.415 10.2031C34.6006 10.5352 34.6934 11.1479 34.6934 12.0415L34.6714 14.4438C34.6714 15.1274 34.7031 15.6328 34.7666 15.96C34.835 16.2822 34.9595 16.6289 35.1401 17H33.104C33.0503 16.8633 32.9844 16.6606 32.9062 16.3921C32.8721 16.27 32.8477 16.1895 32.833 16.1504C32.4814 16.4922 32.1055 16.7485 31.7051 16.9194C31.3047 17.0903 30.8774 17.1758 30.4233 17.1758C29.6226 17.1758 28.9902 16.9585 28.5264 16.5239C28.0674 16.0894 27.8379 15.54 27.8379 14.876C27.8379 14.4365 27.9429 14.0459 28.1528 13.7041C28.3628 13.3574 28.6558 13.0938 29.0317 12.9131C29.4126 12.7275 29.9595 12.5664 30.6724 12.4297C31.6343 12.249 32.3008 12.0806 32.6719 11.9243V11.7192C32.6719 11.3237 32.5742 11.043 32.3789 10.877C32.1836 10.7061 31.8149 10.6206 31.2729 10.6206C30.9067 10.6206 30.6211 10.6938 30.416 10.8403C30.2109 10.9819 30.0449 11.2334 29.918 11.5947ZM32.6719 13.2646C32.4082 13.3525 31.9907 13.4575 31.4194 13.5796C30.8481 13.7017 30.4746 13.8213 30.2988 13.9385C30.0303 14.1289 29.896 14.3706 29.896 14.6636C29.896 14.9517 30.0034 15.2007 30.2183 15.4106C30.4331 15.6206 30.7065 15.7256 31.0386 15.7256C31.4097 15.7256 31.7637 15.6035 32.1006 15.3594C32.3496 15.1738 32.5132 14.9468 32.5913 14.6782C32.645 14.5024 32.6719 14.168 32.6719 13.6748V13.2646ZM43.5117 11.5215L41.4829 11.8877C41.4146 11.4824 41.2583 11.1772 41.0142 10.9722C40.7749 10.7671 40.4624 10.6646 40.0767 10.6646C39.564 10.6646 39.1538 10.8428 38.8462 11.1992C38.5435 11.5508 38.3921 12.1416 38.3921 12.9717C38.3921 13.8945 38.5459 14.5464 38.8535 14.9272C39.166 15.3081 39.5835 15.4985 40.106 15.4985C40.4966 15.4985 40.8164 15.3887 41.0654 15.1689C41.3145 14.9443 41.4902 14.561 41.5928 14.019L43.6143 14.3633C43.4043 15.291 43.0015 15.9917 42.4058 16.4653C41.8101 16.939 41.0117 17.1758 40.0107 17.1758C38.873 17.1758 37.9648 16.8169 37.2861 16.0991C36.6123 15.3813 36.2754 14.3877 36.2754 13.1182C36.2754 11.834 36.6147 10.8354 37.2935 10.1226C37.9722 9.40479 38.8901 9.0459 40.0474 9.0459C40.9946 9.0459 41.7466 9.25098 42.3032 9.66113C42.8647 10.0664 43.2676 10.6865 43.5117 11.5215ZM45.0059 17V6.2627H47.064V11.9609L49.4736 9.22168H52.0078L49.3491 12.0635L52.1982 17H49.979L48.0234 13.5063L47.064 14.5098V17H45.0059ZM57.1934 14.2388L59.2441 14.0264C59.3027 14.4902 59.4761 14.8589 59.7642 15.1323C60.0522 15.4009 60.3843 15.5352 60.7603 15.5352C61.1899 15.5352 61.5537 15.3618 61.8516 15.0151C62.1494 14.6636 62.2983 14.1362 62.2983 13.4331C62.2983 12.7739 62.1494 12.2808 61.8516 11.9536C61.5586 11.6216 61.1753 11.4556 60.7017 11.4556C60.1108 11.4556 59.5811 11.7168 59.1123 12.2393L57.4424 11.9976L58.4971 6.40918H63.939V8.33545H60.0571L59.7349 10.1592C60.1938 9.92969 60.6626 9.81494 61.1411 9.81494C62.0542 9.81494 62.8281 10.147 63.4629 10.811C64.0977 11.4751 64.415 12.3369 64.415 13.3965C64.415 14.2803 64.1587 15.0688 63.646 15.7622C62.9478 16.7095 61.9785 17.1831 60.7383 17.1831C59.7471 17.1831 58.939 16.917 58.314 16.3848C57.689 15.8525 57.3154 15.1372 57.1934 14.2388Z" fill="white"/>
<path d="M31.9834 45.4775L36.085 45.0527C36.2021 45.9805 36.5488 46.7178 37.125 47.2646C37.7012 47.8018 38.3652 48.0703 39.1172 48.0703C39.9766 48.0703 40.7041 47.7236 41.2998 47.0303C41.8955 46.3271 42.1934 45.2725 42.1934 43.8662C42.1934 42.5479 41.8955 41.5615 41.2998 40.9072C40.7139 40.2432 39.9473 39.9111 39 39.9111C37.8184 39.9111 36.7588 40.4336 35.8213 41.4785L32.4814 40.9951L34.5908 29.8184H45.4746V33.6709H37.7109L37.0664 37.3184C37.9844 36.8594 38.9219 36.6299 39.8789 36.6299C41.7051 36.6299 43.2529 37.2939 44.5225 38.6221C45.792 39.9502 46.4268 41.6738 46.4268 43.793C46.4268 45.5605 45.9141 47.1377 44.8887 48.5244C43.4922 50.4189 41.5537 51.3662 39.0732 51.3662C37.0908 51.3662 35.4746 50.834 34.2246 49.7695C32.9746 48.7051 32.2275 47.2744 31.9834 45.4775Z" fill="white"/>
<path d="M23.187 71.0522L25.2891 71.7188C24.9668 72.8906 24.4297 73.7622 23.6777 74.3335C22.9307 74.8999 21.981 75.1831 20.8286 75.1831C19.4028 75.1831 18.231 74.6973 17.313 73.7256C16.395 72.749 15.936 71.416 15.936 69.7266C15.936 67.9395 16.3975 66.5527 17.3203 65.5664C18.2432 64.5752 19.4565 64.0796 20.9604 64.0796C22.2739 64.0796 23.3408 64.4678 24.1611 65.2441C24.6494 65.7031 25.0156 66.3623 25.2598 67.2217L23.1138 67.7344C22.9868 67.1777 22.7207 66.7383 22.3154 66.416C21.915 66.0938 21.4268 65.9326 20.8506 65.9326C20.0547 65.9326 19.4077 66.2183 18.9097 66.7896C18.4165 67.3608 18.1699 68.2861 18.1699 69.5654C18.1699 70.9229 18.4141 71.8896 18.9023 72.4658C19.3906 73.042 20.0254 73.3301 20.8066 73.3301C21.3828 73.3301 21.8784 73.147 22.2935 72.7808C22.7085 72.4146 23.0063 71.8384 23.187 71.0522ZM31.6465 72.5244L33.6973 72.8687C33.4336 73.6206 33.0161 74.1943 32.4448 74.5898C31.8784 74.9805 31.168 75.1758 30.3135 75.1758C28.9609 75.1758 27.96 74.7339 27.3105 73.8501C26.7979 73.1421 26.5415 72.2485 26.5415 71.1694C26.5415 69.8804 26.8784 68.8721 27.5522 68.1445C28.2261 67.4121 29.0781 67.0459 30.1084 67.0459C31.2656 67.0459 32.1787 67.4292 32.8477 68.1958C33.5166 68.9575 33.8364 70.127 33.8071 71.7041H28.6509C28.6655 72.3145 28.8315 72.7905 29.1489 73.1323C29.4663 73.4692 29.8618 73.6377 30.3354 73.6377C30.6577 73.6377 30.9287 73.5498 31.1484 73.374C31.3682 73.1982 31.5342 72.915 31.6465 72.5244ZM31.7637 70.4443C31.749 69.8486 31.5952 69.397 31.3022 69.0894C31.0093 68.7769 30.6528 68.6206 30.2329 68.6206C29.7837 68.6206 29.4126 68.7842 29.1196 69.1113C28.8267 69.4385 28.6826 69.8828 28.6875 70.4443H31.7637ZM42.5669 75H40.5088V71.0303C40.5088 70.1904 40.4648 69.6484 40.377 69.4043C40.2891 69.1553 40.145 68.9624 39.9448 68.8257C39.7495 68.689 39.5127 68.6206 39.2344 68.6206C38.8779 68.6206 38.5581 68.7183 38.2749 68.9136C37.9917 69.1089 37.7964 69.3677 37.689 69.6899C37.5864 70.0122 37.5352 70.6079 37.5352 71.4771V75H35.4771V67.2217H37.3887V68.3643C38.0674 67.4854 38.9219 67.0459 39.9521 67.0459C40.4062 67.0459 40.8213 67.1289 41.1973 67.2949C41.5732 67.4561 41.8564 67.6636 42.0469 67.9175C42.2422 68.1714 42.3765 68.4595 42.4497 68.7817C42.5278 69.104 42.5669 69.5654 42.5669 70.166V75ZM48.2285 67.2217V68.8623H46.8223V71.9971C46.8223 72.6318 46.8345 73.0029 46.8589 73.1104C46.8882 73.2129 46.9492 73.2983 47.042 73.3667C47.1396 73.4351 47.2568 73.4692 47.3936 73.4692C47.584 73.4692 47.8599 73.4033 48.2212 73.2715L48.397 74.8682C47.9185 75.0732 47.3765 75.1758 46.771 75.1758C46.3999 75.1758 46.0654 75.1147 45.7676 74.9927C45.4697 74.8657 45.25 74.7046 45.1084 74.5093C44.9717 74.3091 44.8765 74.0405 44.8228 73.7036C44.7788 73.4644 44.7568 72.981 44.7568 72.2534V68.8623H43.812V67.2217H44.7568V65.6763L46.8223 64.4751V67.2217H48.2285ZM54.1611 72.5244L56.2119 72.8687C55.9482 73.6206 55.5308 74.1943 54.9595 74.5898C54.3931 74.9805 53.6826 75.1758 52.8281 75.1758C51.4756 75.1758 50.4746 74.7339 49.8252 73.8501C49.3125 73.1421 49.0562 72.2485 49.0562 71.1694C49.0562 69.8804 49.3931 68.8721 50.0669 68.1445C50.7407 67.4121 51.5928 67.0459 52.623 67.0459C53.7803 67.0459 54.6934 67.4292 55.3623 68.1958C56.0312 68.9575 56.3511 70.127 56.3218 71.7041H51.1655C51.1802 72.3145 51.3462 72.7905 51.6636 73.1323C51.981 73.4692 52.3765 73.6377 52.8501 73.6377C53.1724 73.6377 53.4434 73.5498 53.6631 73.374C53.8828 73.1982 54.0488 72.915 54.1611 72.5244ZM54.2783 70.4443C54.2637 69.8486 54.1099 69.397 53.8169 69.0894C53.5239 68.7769 53.1675 68.6206 52.7476 68.6206C52.2983 68.6206 51.9272 68.7842 51.6343 69.1113C51.3413 69.4385 51.1973 69.8828 51.2021 70.4443H54.2783ZM59.9766 75H57.9185V67.2217H59.8301V68.3276C60.1572 67.8052 60.4502 67.4609 60.709 67.2949C60.9727 67.1289 61.2705 67.0459 61.6025 67.0459C62.0713 67.0459 62.5229 67.1753 62.9575 67.4341L62.3203 69.2285C61.9736 69.0039 61.6514 68.8916 61.3535 68.8916C61.0654 68.8916 60.8213 68.9722 60.6211 69.1333C60.4209 69.2896 60.2622 69.5752 60.145 69.9902C60.0327 70.4053 59.9766 71.2744 59.9766 72.5977V75Z" fill="white"/>
<rect x="3.5" y="81.5" width="71" height="12" stroke="white"/>
<rect x="24.5" y="82" width="2" height="12" fill="white"/>
<rect x="85.5" y="0.5" width="77" height="101" rx="8.5" fill="#001724" stroke="black"/>
<path d="M101.632 17V8.0791H98.4458V6.2627H106.979V8.0791H103.8V17H101.632ZM109.505 17H107.447V9.22168H109.359V10.3276C109.686 9.80518 109.979 9.46094 110.238 9.29492C110.501 9.12891 110.799 9.0459 111.131 9.0459C111.6 9.0459 112.052 9.17529 112.486 9.43408L111.849 11.2285C111.502 11.0039 111.18 10.8916 110.882 10.8916C110.594 10.8916 110.35 10.9722 110.15 11.1333C109.95 11.2896 109.791 11.5752 109.674 11.9902C109.562 12.4053 109.505 13.2744 109.505 14.5977V17ZM114.918 11.5947L113.05 11.2578C113.26 10.5059 113.622 9.94922 114.134 9.58789C114.647 9.22656 115.409 9.0459 116.419 9.0459C117.337 9.0459 118.021 9.15576 118.47 9.37549C118.919 9.59033 119.234 9.86621 119.415 10.2031C119.601 10.5352 119.693 11.1479 119.693 12.0415L119.671 14.4438C119.671 15.1274 119.703 15.6328 119.767 15.96C119.835 16.2822 119.959 16.6289 120.14 17H118.104C118.05 16.8633 117.984 16.6606 117.906 16.3921C117.872 16.27 117.848 16.1895 117.833 16.1504C117.481 16.4922 117.105 16.7485 116.705 16.9194C116.305 17.0903 115.877 17.1758 115.423 17.1758C114.623 17.1758 113.99 16.9585 113.526 16.5239C113.067 16.0894 112.838 15.54 112.838 14.876C112.838 14.4365 112.943 14.0459 113.153 13.7041C113.363 13.3574 113.656 13.0938 114.032 12.9131C114.413 12.7275 114.959 12.5664 115.672 12.4297C116.634 12.249 117.301 12.0806 117.672 11.9243V11.7192C117.672 11.3237 117.574 11.043 117.379 10.877C117.184 10.7061 116.815 10.6206 116.273 10.6206C115.907 10.6206 115.621 10.6938 115.416 10.8403C115.211 10.9819 115.045 11.2334 114.918 11.5947ZM117.672 13.2646C117.408 13.3525 116.991 13.4575 116.419 13.5796C115.848 13.7017 115.475 13.8213 115.299 13.9385C115.03 14.1289 114.896 14.3706 114.896 14.6636C114.896 14.9517 115.003 15.2007 115.218 15.4106C115.433 15.6206 115.707 15.7256 116.039 15.7256C116.41 15.7256 116.764 15.6035 117.101 15.3594C117.35 15.1738 117.513 14.9468 117.591 14.6782C117.645 14.5024 117.672 14.168 117.672 13.6748V13.2646ZM128.512 11.5215L126.483 11.8877C126.415 11.4824 126.258 11.1772 126.014 10.9722C125.775 10.7671 125.462 10.6646 125.077 10.6646C124.564 10.6646 124.154 10.8428 123.846 11.1992C123.543 11.5508 123.392 12.1416 123.392 12.9717C123.392 13.8945 123.546 14.5464 123.854 14.9272C124.166 15.3081 124.583 15.4985 125.106 15.4985C125.497 15.4985 125.816 15.3887 126.065 15.1689C126.314 14.9443 126.49 14.561 126.593 14.019L128.614 14.3633C128.404 15.291 128.001 15.9917 127.406 16.4653C126.81 16.939 126.012 17.1758 125.011 17.1758C123.873 17.1758 122.965 16.8169 122.286 16.0991C121.612 15.3813 121.275 14.3877 121.275 13.1182C121.275 11.834 121.615 10.8354 122.293 10.1226C122.972 9.40479 123.89 9.0459 125.047 9.0459C125.995 9.0459 126.747 9.25098 127.303 9.66113C127.865 10.0664 128.268 10.6865 128.512 11.5215ZM130.006 17V6.2627H132.064V11.9609L134.474 9.22168H137.008L134.349 12.0635L137.198 17H134.979L133.023 13.5063L132.064 14.5098V17H130.006ZM149.137 8.89209L147.145 9.11182C147.096 8.70166 146.969 8.39893 146.764 8.20361C146.559 8.0083 146.292 7.91064 145.965 7.91064C145.531 7.91064 145.162 8.10596 144.859 8.49658C144.562 8.88721 144.374 9.7002 144.295 10.9355C144.808 10.3301 145.445 10.0273 146.207 10.0273C147.066 10.0273 147.801 10.3545 148.412 11.0088C149.027 11.6631 149.334 12.5078 149.334 13.543C149.334 14.6416 149.012 15.5229 148.368 16.187C147.723 16.8511 146.896 17.1831 145.885 17.1831C144.801 17.1831 143.91 16.7632 143.211 15.9233C142.513 15.0786 142.164 13.6968 142.164 11.7778C142.164 9.81006 142.528 8.3916 143.255 7.52246C143.983 6.65332 144.928 6.21875 146.09 6.21875C146.905 6.21875 147.579 6.44824 148.111 6.90723C148.648 7.36133 148.99 8.02295 149.137 8.89209ZM144.471 13.3818C144.471 14.0508 144.625 14.5684 144.933 14.9346C145.24 15.2959 145.592 15.4766 145.987 15.4766C146.368 15.4766 146.686 15.3276 146.939 15.0298C147.193 14.7319 147.32 14.2437 147.32 13.5649C147.32 12.8667 147.184 12.3564 146.91 12.0342C146.637 11.707 146.295 11.5435 145.885 11.5435C145.489 11.5435 145.155 11.6997 144.881 12.0122C144.608 12.3198 144.471 12.7764 144.471 13.3818Z" fill="white"/>
<path d="M127.435 27.8921L125.443 28.1118C125.394 27.7017 125.267 27.3989 125.062 27.2036C124.857 27.0083 124.591 26.9106 124.264 26.9106C123.829 26.9106 123.46 27.106 123.158 27.4966C122.86 27.8872 122.672 28.7002 122.594 29.9355C123.106 29.3301 123.744 29.0273 124.505 29.0273C125.365 29.0273 126.1 29.3545 126.71 30.0088C127.325 30.6631 127.633 31.5078 127.633 32.543C127.633 33.6416 127.311 34.5229 126.666 35.187C126.021 35.8511 125.194 36.1831 124.183 36.1831C123.099 36.1831 122.208 35.7632 121.51 34.9233C120.812 34.0786 120.462 32.6968 120.462 30.7778C120.462 28.8101 120.826 27.3916 121.554 26.5225C122.281 25.6533 123.226 25.2188 124.388 25.2188C125.204 25.2188 125.877 25.4482 126.41 25.9072C126.947 26.3613 127.289 27.0229 127.435 27.8921ZM122.77 32.3818C122.77 33.0508 122.923 33.5684 123.231 33.9346C123.539 34.2959 123.89 34.4766 124.286 34.4766C124.667 34.4766 124.984 34.3276 125.238 34.0298C125.492 33.7319 125.619 33.2437 125.619 32.5649C125.619 31.8667 125.482 31.3564 125.208 31.0342C124.935 30.707 124.593 30.5435 124.183 30.5435C123.788 30.5435 123.453 30.6997 123.18 31.0122C122.906 31.3198 122.77 31.7764 122.77 32.3818Z" fill="white"/>
<rect width="72" height="37" transform="translate(88 41)" fill="white"/>
<path d="M119.107 70H114.991V54.4873C113.487 55.8936 111.715 56.9336 109.674 57.6074V53.8721C110.748 53.5205 111.915 52.8564 113.175 51.8799C114.435 50.8936 115.299 49.7461 115.768 48.4375H119.107V70ZM133.346 70V65.6787H124.557V62.0752L133.873 48.4375H137.33V62.0605H139.996V65.6787H137.33V70H133.346ZM133.346 62.0605V54.7217L128.409 62.0605H133.346Z" fill="#333333"/>
<rect x="88.5" y="81.5" width="71" height="12" stroke="white"/>
<rect x="109.5" y="82" width="2" height="12" fill="white"/>
<rect x="170.5" y="0.5" width="77" height="101" rx="8.5" fill="#001724" stroke="black"/>
<path d="M186.632 17V8.0791H183.446V6.2627H191.979V8.0791H188.8V17H186.632ZM194.505 17H192.447V9.22168H194.359V10.3276C194.686 9.80518 194.979 9.46094 195.238 9.29492C195.501 9.12891 195.799 9.0459 196.131 9.0459C196.6 9.0459 197.052 9.17529 197.486 9.43408L196.849 11.2285C196.502 11.0039 196.18 10.8916 195.882 10.8916C195.594 10.8916 195.35 10.9722 195.15 11.1333C194.95 11.2896 194.791 11.5752 194.674 11.9902C194.562 12.4053 194.505 13.2744 194.505 14.5977V17ZM199.918 11.5947L198.05 11.2578C198.26 10.5059 198.622 9.94922 199.134 9.58789C199.647 9.22656 200.409 9.0459 201.419 9.0459C202.337 9.0459 203.021 9.15576 203.47 9.37549C203.919 9.59033 204.234 9.86621 204.415 10.2031C204.601 10.5352 204.693 11.1479 204.693 12.0415L204.671 14.4438C204.671 15.1274 204.703 15.6328 204.767 15.96C204.835 16.2822 204.959 16.6289 205.14 17H203.104C203.05 16.8633 202.984 16.6606 202.906 16.3921C202.872 16.27 202.848 16.1895 202.833 16.1504C202.481 16.4922 202.105 16.7485 201.705 16.9194C201.305 17.0903 200.877 17.1758 200.423 17.1758C199.623 17.1758 198.99 16.9585 198.526 16.5239C198.067 16.0894 197.838 15.54 197.838 14.876C197.838 14.4365 197.943 14.0459 198.153 13.7041C198.363 13.3574 198.656 13.0938 199.032 12.9131C199.413 12.7275 199.959 12.5664 200.672 12.4297C201.634 12.249 202.301 12.0806 202.672 11.9243V11.7192C202.672 11.3237 202.574 11.043 202.379 10.877C202.184 10.7061 201.815 10.6206 201.273 10.6206C200.907 10.6206 200.621 10.6938 200.416 10.8403C200.211 10.9819 200.045 11.2334 199.918 11.5947ZM202.672 13.2646C202.408 13.3525 201.991 13.4575 201.419 13.5796C200.848 13.7017 200.475 13.8213 200.299 13.9385C200.03 14.1289 199.896 14.3706 199.896 14.6636C199.896 14.9517 200.003 15.2007 200.218 15.4106C200.433 15.6206 200.707 15.7256 201.039 15.7256C201.41 15.7256 201.764 15.6035 202.101 15.3594C202.35 15.1738 202.513 14.9468 202.591 14.6782C202.645 14.5024 202.672 14.168 202.672 13.6748V13.2646ZM213.512 11.5215L211.483 11.8877C211.415 11.4824 211.258 11.1772 211.014 10.9722C210.775 10.7671 210.462 10.6646 210.077 10.6646C209.564 10.6646 209.154 10.8428 208.846 11.1992C208.543 11.5508 208.392 12.1416 208.392 12.9717C208.392 13.8945 208.546 14.5464 208.854 14.9272C209.166 15.3081 209.583 15.4985 210.106 15.4985C210.497 15.4985 210.816 15.3887 211.065 15.1689C211.314 14.9443 211.49 14.561 211.593 14.019L213.614 14.3633C213.404 15.291 213.001 15.9917 212.406 16.4653C211.81 16.939 211.012 17.1758 210.011 17.1758C208.873 17.1758 207.965 16.8169 207.286 16.0991C206.612 15.3813 206.275 14.3877 206.275 13.1182C206.275 11.834 206.615 10.8354 207.293 10.1226C207.972 9.40479 208.89 9.0459 210.047 9.0459C210.995 9.0459 211.747 9.25098 212.303 9.66113C212.865 10.0664 213.268 10.6865 213.512 11.5215ZM215.006 17V6.2627H217.064V11.9609L219.474 9.22168H222.008L219.349 12.0635L222.198 17H219.979L218.023 13.5063L217.064 14.5098V17H215.006ZM227.164 8.3208V6.40918H234.203V7.90332C233.622 8.47461 233.031 9.29492 232.43 10.3643C231.83 11.4336 231.371 12.5713 231.053 13.7773C230.741 14.9785 230.587 16.0527 230.592 17H228.607C228.641 15.5156 228.946 14.002 229.522 12.459C230.104 10.916 230.877 9.53662 231.844 8.3208H227.164Z" fill="white"/>
<path d="M205.462 27.3208V25.4092H212.501V26.9033C211.92 27.4746 211.329 28.2949 210.729 29.3643C210.128 30.4336 209.669 31.5713 209.352 32.7773C209.039 33.9785 208.885 35.0527 208.89 36H206.905C206.939 34.5156 207.245 33.002 207.821 31.459C208.402 29.916 209.176 28.5366 210.143 27.3208H205.462Z" fill="white"/>
<rect width="72" height="37" transform="translate(173 41)" fill="white"/>
<path d="M215.87 53.7842L211.886 54.2236C211.788 53.4033 211.534 52.7979 211.124 52.4072C210.714 52.0166 210.182 51.8213 209.527 51.8213C208.658 51.8213 207.921 52.2119 207.315 52.9932C206.72 53.7744 206.344 55.4004 206.188 57.8711C207.213 56.6602 208.487 56.0547 210.011 56.0547C211.729 56.0547 213.199 56.709 214.42 58.0176C215.65 59.3262 216.266 61.0156 216.266 63.0859C216.266 65.2832 215.621 67.0459 214.332 68.374C213.043 69.7021 211.388 70.3662 209.366 70.3662C207.198 70.3662 205.416 69.5264 204.02 67.8467C202.623 66.1572 201.925 63.3936 201.925 59.5557C201.925 55.6201 202.652 52.7832 204.107 51.0449C205.562 49.3066 207.452 48.4375 209.776 48.4375C211.407 48.4375 212.755 48.8965 213.819 49.8145C214.894 50.7227 215.577 52.0459 215.87 53.7842ZM206.539 62.7637C206.539 64.1016 206.847 65.1367 207.462 65.8691C208.077 66.5918 208.78 66.9531 209.571 66.9531C210.333 66.9531 210.968 66.6553 211.476 66.0596C211.983 65.4639 212.237 64.4873 212.237 63.1299C212.237 61.7334 211.964 60.7129 211.417 60.0684C210.87 59.4141 210.187 59.0869 209.366 59.0869C208.575 59.0869 207.906 59.3994 207.359 60.0244C206.812 60.6396 206.539 61.5527 206.539 62.7637Z" fill="#333333"/>
<rect x="173.5" y="81.5" width="71" height="12" stroke="white"/>
<rect x="194.5" y="82" width="2" height="12" fill="white"/>
<rect x="255.5" y="0.5" width="77" height="101" rx="8.5" fill="#001724" stroke="black"/>
<path d="M271.632 17V8.0791H268.446V6.2627H276.979V8.0791H273.8V17H271.632ZM279.505 17H277.447V9.22168H279.359V10.3276C279.686 9.80518 279.979 9.46094 280.238 9.29492C280.501 9.12891 280.799 9.0459 281.131 9.0459C281.6 9.0459 282.052 9.17529 282.486 9.43408L281.849 11.2285C281.502 11.0039 281.18 10.8916 280.882 10.8916C280.594 10.8916 280.35 10.9722 280.15 11.1333C279.95 11.2896 279.791 11.5752 279.674 11.9902C279.562 12.4053 279.505 13.2744 279.505 14.5977V17ZM284.918 11.5947L283.05 11.2578C283.26 10.5059 283.622 9.94922 284.134 9.58789C284.647 9.22656 285.409 9.0459 286.419 9.0459C287.337 9.0459 288.021 9.15576 288.47 9.37549C288.919 9.59033 289.234 9.86621 289.415 10.2031C289.601 10.5352 289.693 11.1479 289.693 12.0415L289.671 14.4438C289.671 15.1274 289.703 15.6328 289.767 15.96C289.835 16.2822 289.959 16.6289 290.14 17H288.104C288.05 16.8633 287.984 16.6606 287.906 16.3921C287.872 16.27 287.848 16.1895 287.833 16.1504C287.481 16.4922 287.105 16.7485 286.705 16.9194C286.305 17.0903 285.877 17.1758 285.423 17.1758C284.623 17.1758 283.99 16.9585 283.526 16.5239C283.067 16.0894 282.838 15.54 282.838 14.876C282.838 14.4365 282.943 14.0459 283.153 13.7041C283.363 13.3574 283.656 13.0938 284.032 12.9131C284.413 12.7275 284.959 12.5664 285.672 12.4297C286.634 12.249 287.301 12.0806 287.672 11.9243V11.7192C287.672 11.3237 287.574 11.043 287.379 10.877C287.184 10.7061 286.815 10.6206 286.273 10.6206C285.907 10.6206 285.621 10.6938 285.416 10.8403C285.211 10.9819 285.045 11.2334 284.918 11.5947ZM287.672 13.2646C287.408 13.3525 286.991 13.4575 286.419 13.5796C285.848 13.7017 285.475 13.8213 285.299 13.9385C285.03 14.1289 284.896 14.3706 284.896 14.6636C284.896 14.9517 285.003 15.2007 285.218 15.4106C285.433 15.6206 285.707 15.7256 286.039 15.7256C286.41 15.7256 286.764 15.6035 287.101 15.3594C287.35 15.1738 287.513 14.9468 287.591 14.6782C287.645 14.5024 287.672 14.168 287.672 13.6748V13.2646ZM298.512 11.5215L296.483 11.8877C296.415 11.4824 296.258 11.1772 296.014 10.9722C295.775 10.7671 295.462 10.6646 295.077 10.6646C294.564 10.6646 294.154 10.8428 293.846 11.1992C293.543 11.5508 293.392 12.1416 293.392 12.9717C293.392 13.8945 293.546 14.5464 293.854 14.9272C294.166 15.3081 294.583 15.4985 295.106 15.4985C295.497 15.4985 295.816 15.3887 296.065 15.1689C296.314 14.9443 296.49 14.561 296.593 14.019L298.614 14.3633C298.404 15.291 298.001 15.9917 297.406 16.4653C296.81 16.939 296.012 17.1758 295.011 17.1758C293.873 17.1758 292.965 16.8169 292.286 16.0991C291.612 15.3813 291.275 14.3877 291.275 13.1182C291.275 11.834 291.615 10.8354 292.293 10.1226C292.972 9.40479 293.89 9.0459 295.047 9.0459C295.995 9.0459 296.747 9.25098 297.303 9.66113C297.865 10.0664 298.268 10.6865 298.512 11.5215ZM300.006 17V6.2627H302.064V11.9609L304.474 9.22168H307.008L304.349 12.0635L307.198 17H304.979L303.023 13.5063L302.064 14.5098V17H300.006ZM313.929 11.2065C313.397 10.9819 313.009 10.6743 312.765 10.2837C312.525 9.88818 312.406 9.45605 312.406 8.9873C312.406 8.18652 312.684 7.5249 313.241 7.00244C313.802 6.47998 314.598 6.21875 315.628 6.21875C316.649 6.21875 317.44 6.47998 318.001 7.00244C318.568 7.5249 318.851 8.18652 318.851 8.9873C318.851 9.48535 318.722 9.92969 318.463 10.3203C318.204 10.7061 317.84 11.0015 317.372 11.2065C317.967 11.4458 318.419 11.7949 318.727 12.2539C319.039 12.7129 319.195 13.2427 319.195 13.8433C319.195 14.8345 318.878 15.6401 318.243 16.2603C317.613 16.8804 316.773 17.1904 315.724 17.1904C314.747 17.1904 313.934 16.9341 313.285 16.4214C312.518 15.8159 312.135 14.9858 312.135 13.9312C312.135 13.3501 312.279 12.8179 312.567 12.3345C312.855 11.8462 313.309 11.4702 313.929 11.2065ZM314.354 9.13379C314.354 9.54395 314.469 9.86377 314.698 10.0933C314.933 10.3228 315.243 10.4375 315.628 10.4375C316.019 10.4375 316.332 10.3228 316.566 10.0933C316.8 9.85889 316.917 9.53662 316.917 9.12646C316.917 8.74072 316.8 8.43311 316.566 8.20361C316.336 7.96924 316.031 7.85205 315.65 7.85205C315.255 7.85205 314.94 7.96924 314.706 8.20361C314.471 8.43799 314.354 8.74805 314.354 9.13379ZM314.164 13.7334C314.164 14.2998 314.308 14.7417 314.596 15.0591C314.889 15.3765 315.252 15.5352 315.687 15.5352C316.112 15.5352 316.463 15.3838 316.742 15.0811C317.02 14.7734 317.159 14.3315 317.159 13.7554C317.159 13.2524 317.018 12.8496 316.734 12.5469C316.451 12.2393 316.092 12.0854 315.658 12.0854C315.155 12.0854 314.779 12.2588 314.53 12.6055C314.286 12.9521 314.164 13.3281 314.164 13.7334Z" fill="white"/>
<path d="M292.228 30.2065C291.695 29.9819 291.307 29.6743 291.063 29.2837C290.824 28.8882 290.704 28.4561 290.704 27.9873C290.704 27.1865 290.982 26.5249 291.539 26.0024C292.101 25.48 292.896 25.2188 293.927 25.2188C294.947 25.2188 295.738 25.48 296.3 26.0024C296.866 26.5249 297.149 27.1865 297.149 27.9873C297.149 28.4854 297.02 28.9297 296.761 29.3203C296.502 29.7061 296.139 30.0015 295.67 30.2065C296.266 30.4458 296.717 30.7949 297.025 31.2539C297.337 31.7129 297.494 32.2427 297.494 32.8433C297.494 33.8345 297.176 34.6401 296.542 35.2603C295.912 35.8804 295.072 36.1904 294.022 36.1904C293.045 36.1904 292.232 35.9341 291.583 35.4214C290.816 34.8159 290.433 33.9858 290.433 32.9312C290.433 32.3501 290.577 31.8179 290.865 31.3345C291.153 30.8462 291.607 30.4702 292.228 30.2065ZM292.652 28.1338C292.652 28.5439 292.767 28.8638 292.997 29.0933C293.231 29.3228 293.541 29.4375 293.927 29.4375C294.317 29.4375 294.63 29.3228 294.864 29.0933C295.099 28.8589 295.216 28.5366 295.216 28.1265C295.216 27.7407 295.099 27.4331 294.864 27.2036C294.635 26.9692 294.33 26.8521 293.949 26.8521C293.553 26.8521 293.238 26.9692 293.004 27.2036C292.77 27.438 292.652 27.748 292.652 28.1338ZM292.462 32.7334C292.462 33.2998 292.606 33.7417 292.894 34.0591C293.187 34.3765 293.551 34.5352 293.985 34.5352C294.41 34.5352 294.762 34.3838 295.04 34.0811C295.318 33.7734 295.458 33.3315 295.458 32.7554C295.458 32.2524 295.316 31.8496 295.033 31.5469C294.75 31.2393 294.391 31.0854 293.956 31.0854C293.453 31.0854 293.077 31.2588 292.828 31.6055C292.584 31.9521 292.462 32.3281 292.462 32.7334Z" fill="white"/>
<rect width="72" height="37" transform="translate(258 41)" fill="white"/>
<path d="M286.778 64.3018L290.763 63.8184C290.89 64.834 291.231 65.6104 291.788 66.1475C292.345 66.6846 293.019 66.9531 293.81 66.9531C294.659 66.9531 295.372 66.6309 295.948 65.9863C296.534 65.3418 296.827 64.4727 296.827 63.3789C296.827 62.3438 296.549 61.5234 295.992 60.918C295.436 60.3125 294.757 60.0098 293.956 60.0098C293.429 60.0098 292.799 60.1123 292.066 60.3174L292.521 56.9629C293.634 56.9922 294.483 56.7529 295.069 56.2451C295.655 55.7275 295.948 55.0439 295.948 54.1943C295.948 53.4717 295.733 52.8955 295.304 52.4658C294.874 52.0361 294.303 51.8213 293.59 51.8213C292.887 51.8213 292.286 52.0654 291.788 52.5537C291.29 53.042 290.987 53.7549 290.88 54.6924L287.086 54.0479C287.35 52.749 287.745 51.7139 288.272 50.9424C288.81 50.1611 289.552 49.5508 290.499 49.1113C291.456 48.6621 292.525 48.4375 293.707 48.4375C295.729 48.4375 297.35 49.082 298.57 50.3711C299.576 51.4258 300.079 52.6172 300.079 53.9453C300.079 55.8301 299.049 57.334 296.988 58.457C298.219 58.7207 299.2 59.3115 299.933 60.2295C300.675 61.1475 301.046 62.2559 301.046 63.5547C301.046 65.4395 300.357 67.0459 298.98 68.374C297.604 69.7021 295.89 70.3662 293.839 70.3662C291.896 70.3662 290.284 69.8096 289.005 68.6963C287.726 67.5732 286.983 66.1084 286.778 64.3018Z" fill="#333333"/>
<rect x="258.5" y="81.5" width="71" height="12" stroke="white"/>
<rect x="279.5" y="82" width="2" height="12" fill="white"/>
</svg>
