<svg width="324" height="102" viewBox="0 0 324 102" fill="none" xmlns="http://www.w3.org/2000/svg">
<rect x="0.5" y="0.5" width="77" height="101" rx="8.5" fill="#001724" stroke="black"/>
<path d="M16.6318 18V9.0791H13.4458V7.2627H21.9785V9.0791H18.7998V18H16.6318ZM24.5054 18H22.4473V10.2217H24.3589V11.3276C24.686 10.8052 24.979 10.4609 25.2378 10.2949C25.5015 10.1289 25.7993 10.0459 26.1313 10.0459C26.6001 10.0459 27.0518 10.1753 27.4863 10.4341L26.8491 12.2285C26.5024 12.0039 26.1802 11.8916 25.8823 11.8916C25.5942 11.8916 25.3501 11.9722 25.1499 12.1333C24.9497 12.2896 24.791 12.5752 24.6738 12.9902C24.5615 13.4053 24.5054 14.2744 24.5054 15.5977V18ZM29.918 12.5947L28.0503 12.2578C28.2603 11.5059 28.6216 10.9492 29.1343 10.5879C29.647 10.2266 30.4087 10.0459 31.4194 10.0459C32.3374 10.0459 33.021 10.1558 33.4702 10.3755C33.9194 10.5903 34.2344 10.8662 34.415 11.2031C34.6006 11.5352 34.6934 12.1479 34.6934 13.0415L34.6714 15.4438C34.6714 16.1274 34.7031 16.6328 34.7666 16.96C34.835 17.2822 34.9595 17.6289 35.1401 18H33.104C33.0503 17.8633 32.9844 17.6606 32.9062 17.3921C32.8721 17.27 32.8477 17.1895 32.833 17.1504C32.4814 17.4922 32.1055 17.7485 31.7051 17.9194C31.3047 18.0903 30.8774 18.1758 30.4233 18.1758C29.6226 18.1758 28.9902 17.9585 28.5264 17.5239C28.0674 17.0894 27.8379 16.54 27.8379 15.876C27.8379 15.4365 27.9429 15.0459 28.1528 14.7041C28.3628 14.3574 28.6558 14.0938 29.0317 13.9131C29.4126 13.7275 29.9595 13.5664 30.6724 13.4297C31.6343 13.249 32.3008 13.0806 32.6719 12.9243V12.7192C32.6719 12.3237 32.5742 12.043 32.3789 11.877C32.1836 11.7061 31.8149 11.6206 31.2729 11.6206C30.9067 11.6206 30.6211 11.6938 30.416 11.8403C30.2109 11.9819 30.0449 12.2334 29.918 12.5947ZM32.6719 14.2646C32.4082 14.3525 31.9907 14.4575 31.4194 14.5796C30.8481 14.7017 30.4746 14.8213 30.2988 14.9385C30.0303 15.1289 29.896 15.3706 29.896 15.6636C29.896 15.9517 30.0034 16.2007 30.2183 16.4106C30.4331 16.6206 30.7065 16.7256 31.0386 16.7256C31.4097 16.7256 31.7637 16.6035 32.1006 16.3594C32.3496 16.1738 32.5132 15.9468 32.5913 15.6782C32.645 15.5024 32.6719 15.168 32.6719 14.6748V14.2646ZM43.5117 12.5215L41.4829 12.8877C41.4146 12.4824 41.2583 12.1772 41.0142 11.9722C40.7749 11.7671 40.4624 11.6646 40.0767 11.6646C39.564 11.6646 39.1538 11.8428 38.8462 12.1992C38.5435 12.5508 38.3921 13.1416 38.3921 13.9717C38.3921 14.8945 38.5459 15.5464 38.8535 15.9272C39.166 16.3081 39.5835 16.4985 40.106 16.4985C40.4966 16.4985 40.8164 16.3887 41.0654 16.1689C41.3145 15.9443 41.4902 15.561 41.5928 15.019L43.6143 15.3633C43.4043 16.291 43.0015 16.9917 42.4058 17.4653C41.8101 17.939 41.0117 18.1758 40.0107 18.1758C38.873 18.1758 37.9648 17.8169 37.2861 17.0991C36.6123 16.3813 36.2754 15.3877 36.2754 14.1182C36.2754 12.834 36.6147 11.8354 37.2935 11.1226C37.9722 10.4048 38.8901 10.0459 40.0474 10.0459C40.9946 10.0459 41.7466 10.251 42.3032 10.6611C42.8647 11.0664 43.2676 11.6865 43.5117 12.5215ZM45.0059 18V7.2627H47.064V12.9609L49.4736 10.2217H52.0078L49.3491 13.0635L52.1982 18H49.979L48.0234 14.5063L47.064 15.5098V18H45.0059ZM62.4302 18H60.3721V10.2437C59.6201 10.9468 58.7339 11.4668 57.7134 11.8037V9.93604C58.2505 9.76025 58.834 9.42822 59.4639 8.93994C60.0938 8.44678 60.5259 7.87305 60.7603 7.21875H62.4302V18Z" fill="white"/>
<rect width="72" height="17" transform="translate(3 23)" fill="white"/>
<path d="M5.06689 37V26.2627H9.62988C10.7773 26.2627 11.6099 26.3604 12.1274 26.5557C12.6499 26.7461 13.0674 27.0879 13.3799 27.5811C13.6924 28.0742 13.8486 28.6382 13.8486 29.2729C13.8486 30.0786 13.6118 30.7451 13.1382 31.2725C12.6646 31.7949 11.9565 32.1245 11.0142 32.2612C11.4829 32.5347 11.8687 32.835 12.1714 33.1621C12.479 33.4893 12.8916 34.0703 13.4092 34.9053L14.7202 37H12.1274L10.5601 34.6636C10.0034 33.8286 9.62256 33.3037 9.41748 33.0889C9.2124 32.8691 8.99512 32.7202 8.76562 32.6421C8.53613 32.5591 8.17236 32.5176 7.67432 32.5176H7.23486V37H5.06689ZM7.23486 30.8037H8.83887C9.87891 30.8037 10.5283 30.7598 10.7871 30.6719C11.0459 30.584 11.2485 30.4326 11.395 30.2178C11.5415 30.0029 11.6147 29.7344 11.6147 29.4121C11.6147 29.0508 11.5171 28.7603 11.3218 28.5405C11.1313 28.3159 10.8604 28.1743 10.5088 28.1157C10.333 28.0913 9.80566 28.0791 8.92676 28.0791H7.23486V30.8037ZM20.3892 34.5244L22.4399 34.8687C22.1763 35.6206 21.7588 36.1943 21.1875 36.5898C20.6211 36.9805 19.9106 37.1758 19.0562 37.1758C17.7036 37.1758 16.7026 36.7339 16.0532 35.8501C15.5405 35.1421 15.2842 34.2485 15.2842 33.1694C15.2842 31.8804 15.6211 30.8721 16.2949 30.1445C16.9688 29.4121 17.8208 29.0459 18.8511 29.0459C20.0083 29.0459 20.9214 29.4292 21.5903 30.1958C22.2593 30.9575 22.5791 32.127 22.5498 33.7041H17.3936C17.4082 34.3145 17.5742 34.7905 17.8916 35.1323C18.209 35.4692 18.6045 35.6377 19.0781 35.6377C19.4004 35.6377 19.6714 35.5498 19.8911 35.374C20.1108 35.1982 20.2769 34.915 20.3892 34.5244ZM20.5063 32.4443C20.4917 31.8486 20.3379 31.397 20.0449 31.0894C19.752 30.7769 19.3955 30.6206 18.9756 30.6206C18.5264 30.6206 18.1553 30.7842 17.8623 31.1113C17.5693 31.4385 17.4253 31.8828 17.4302 32.4443H20.5063ZM25.7725 31.5947L23.9048 31.2578C24.1147 30.5059 24.4761 29.9492 24.9888 29.5879C25.5015 29.2266 26.2632 29.0459 27.2739 29.0459C28.1919 29.0459 28.8755 29.1558 29.3247 29.3755C29.7739 29.5903 30.0889 29.8662 30.2695 30.2031C30.4551 30.5352 30.5479 31.1479 30.5479 32.0415L30.5259 34.4438C30.5259 35.1274 30.5576 35.6328 30.6211 35.96C30.6895 36.2822 30.814 36.6289 30.9946 37H28.9585C28.9048 36.8633 28.8389 36.6606 28.7607 36.3921C28.7266 36.27 28.7021 36.1895 28.6875 36.1504C28.3359 36.4922 27.96 36.7485 27.5596 36.9194C27.1592 37.0903 26.7319 37.1758 26.2778 37.1758C25.4771 37.1758 24.8447 36.9585 24.3809 36.5239C23.9219 36.0894 23.6924 35.54 23.6924 34.876C23.6924 34.4365 23.7974 34.0459 24.0073 33.7041C24.2173 33.3574 24.5103 33.0938 24.8862 32.9131C25.2671 32.7275 25.814 32.5664 26.5269 32.4297C27.4888 32.249 28.1553 32.0806 28.5264 31.9243V31.7192C28.5264 31.3237 28.4287 31.043 28.2334 30.877C28.0381 30.7061 27.6694 30.6206 27.1274 30.6206C26.7612 30.6206 26.4756 30.6938 26.2705 30.8403C26.0654 30.9819 25.8994 31.2334 25.7725 31.5947ZM28.5264 33.2646C28.2627 33.3525 27.8452 33.4575 27.2739 33.5796C26.7026 33.7017 26.3291 33.8213 26.1533 33.9385C25.8848 34.1289 25.7505 34.3706 25.7505 34.6636C25.7505 34.9517 25.8579 35.2007 26.0728 35.4106C26.2876 35.6206 26.561 35.7256 26.8931 35.7256C27.2642 35.7256 27.6182 35.6035 27.9551 35.3594C28.2041 35.1738 28.3677 34.9468 28.4458 34.6782C28.4995 34.5024 28.5264 34.168 28.5264 33.6748V33.2646ZM39.4688 33.0522L41.5708 33.7188C41.2485 34.8906 40.7114 35.7622 39.9595 36.3335C39.2124 36.8999 38.2627 37.1831 37.1104 37.1831C35.6846 37.1831 34.5127 36.6973 33.5947 35.7256C32.6768 34.749 32.2178 33.416 32.2178 31.7266C32.2178 29.9395 32.6792 28.5527 33.6021 27.5664C34.5249 26.5752 35.7383 26.0796 37.2422 26.0796C38.5557 26.0796 39.6226 26.4678 40.4429 27.2441C40.9312 27.7031 41.2974 28.3623 41.5415 29.2217L39.3955 29.7344C39.2686 29.1777 39.0024 28.7383 38.5972 28.416C38.1968 28.0938 37.7085 27.9326 37.1323 27.9326C36.3364 27.9326 35.6895 28.2183 35.1914 28.7896C34.6982 29.3608 34.4517 30.2861 34.4517 31.5654C34.4517 32.9229 34.6958 33.8896 35.1841 34.4658C35.6724 35.042 36.3071 35.3301 37.0884 35.3301C37.6646 35.3301 38.1602 35.147 38.5752 34.7808C38.9902 34.4146 39.2881 33.8384 39.4688 33.0522ZM42.9478 33.001C42.9478 32.3174 43.1162 31.6558 43.4531 31.0161C43.79 30.3765 44.2661 29.8882 44.8813 29.5513C45.5015 29.2144 46.1924 29.0459 46.9541 29.0459C48.1309 29.0459 49.0952 29.4292 49.8472 30.1958C50.5991 30.9575 50.9751 31.9219 50.9751 33.0889C50.9751 34.2656 50.5942 35.2422 49.8325 36.0186C49.0757 36.79 48.1211 37.1758 46.9688 37.1758C46.2559 37.1758 45.5747 37.0146 44.9253 36.6924C44.2808 36.3701 43.79 35.8989 43.4531 35.2788C43.1162 34.6538 42.9478 33.8945 42.9478 33.001ZM45.0571 33.1108C45.0571 33.8823 45.2402 34.4731 45.6064 34.8833C45.9727 35.2935 46.4243 35.4985 46.9614 35.4985C47.4985 35.4985 47.9478 35.2935 48.3091 34.8833C48.6753 34.4731 48.8584 33.8774 48.8584 33.0962C48.8584 32.3345 48.6753 31.7485 48.3091 31.3384C47.9478 30.9282 47.4985 30.7231 46.9614 30.7231C46.4243 30.7231 45.9727 30.9282 45.6064 31.3384C45.2402 31.7485 45.0571 32.3394 45.0571 33.1108ZM52.4399 29.2217H54.3369V30.2837C55.0156 29.4585 55.8237 29.0459 56.7612 29.0459C57.2593 29.0459 57.6914 29.1484 58.0576 29.3535C58.4238 29.5586 58.7241 29.8687 58.9585 30.2837C59.3003 29.8687 59.6689 29.5586 60.0645 29.3535C60.46 29.1484 60.8823 29.0459 61.3315 29.0459C61.9028 29.0459 62.3862 29.1631 62.7817 29.3975C63.1772 29.627 63.4727 29.9663 63.668 30.4155C63.8096 30.7476 63.8804 31.2847 63.8804 32.0269V37H61.8223V32.5542C61.8223 31.7827 61.7515 31.2847 61.6099 31.0601C61.4194 30.7671 61.1265 30.6206 60.731 30.6206C60.4429 30.6206 60.1719 30.7085 59.918 30.8843C59.6641 31.0601 59.481 31.3188 59.3687 31.6606C59.2563 31.9976 59.2002 32.5322 59.2002 33.2646V37H57.1421V32.7373C57.1421 31.9805 57.1055 31.4922 57.0322 31.2725C56.959 31.0527 56.8442 30.8892 56.688 30.7817C56.5366 30.6743 56.3291 30.6206 56.0654 30.6206C55.748 30.6206 55.4624 30.7061 55.2085 30.877C54.9546 31.0479 54.7715 31.2944 54.6592 31.6167C54.5518 31.939 54.498 32.4736 54.498 33.2207V37H52.4399V29.2217ZM65.8799 29.2217H67.7988V30.3643C68.0479 29.9736 68.3848 29.6562 68.8096 29.4121C69.2344 29.168 69.7056 29.0459 70.2231 29.0459C71.1265 29.0459 71.8931 29.3999 72.5229 30.1079C73.1528 30.8159 73.4678 31.8022 73.4678 33.0669C73.4678 34.3657 73.1504 35.3765 72.5156 36.0991C71.8809 36.8169 71.1118 37.1758 70.2085 37.1758C69.7788 37.1758 69.3882 37.0903 69.0366 36.9194C68.6899 36.7485 68.3237 36.4556 67.938 36.0405V39.959H65.8799V29.2217ZM67.916 32.979C67.916 33.853 68.0894 34.5 68.436 34.9199C68.7827 35.335 69.2051 35.5425 69.7031 35.5425C70.1816 35.5425 70.5796 35.3521 70.897 34.9712C71.2144 34.5854 71.373 33.9556 71.373 33.0815C71.373 32.2661 71.2095 31.6606 70.8823 31.2651C70.5552 30.8696 70.1499 30.6719 69.6665 30.6719C69.1636 30.6719 68.7461 30.8672 68.4141 31.2578C68.082 31.6436 67.916 32.2173 67.916 32.979Z" fill="#333333"/>
<path d="M10.897 56V45.2627H18.8584V47.0791H13.0649V49.4595H18.4556V51.2686H13.0649V54.1909H19.0635V56H10.897ZM27.9624 56H25.9043V52.0303C25.9043 51.1904 25.8604 50.6484 25.7725 50.4043C25.6846 50.1553 25.5405 49.9624 25.3403 49.8257C25.145 49.689 24.9082 49.6206 24.6299 49.6206C24.2734 49.6206 23.9536 49.7183 23.6704 49.9136C23.3872 50.1089 23.1919 50.3677 23.0845 50.6899C22.9819 51.0122 22.9307 51.6079 22.9307 52.4771V56H20.8726V48.2217H22.7842V49.3643C23.4629 48.4854 24.3174 48.0459 25.3477 48.0459C25.8018 48.0459 26.2168 48.1289 26.5928 48.2949C26.9688 48.4561 27.252 48.6636 27.4424 48.9175C27.6377 49.1714 27.772 49.4595 27.8452 49.7817C27.9233 50.104 27.9624 50.5654 27.9624 51.166V56ZM31.5952 50.5947L29.7275 50.2578C29.9375 49.5059 30.2988 48.9492 30.8115 48.5879C31.3242 48.2266 32.0859 48.0459 33.0967 48.0459C34.0146 48.0459 34.6982 48.1558 35.1475 48.3755C35.5967 48.5903 35.9116 48.8662 36.0923 49.2031C36.2778 49.5352 36.3706 50.1479 36.3706 51.0415L36.3486 53.4438C36.3486 54.1274 36.3804 54.6328 36.4438 54.96C36.5122 55.2822 36.6367 55.6289 36.8174 56H34.7812C34.7275 55.8633 34.6616 55.6606 34.5835 55.3921C34.5493 55.27 34.5249 55.1895 34.5103 55.1504C34.1587 55.4922 33.7827 55.7485 33.3823 55.9194C32.9819 56.0903 32.5547 56.1758 32.1006 56.1758C31.2998 56.1758 30.6675 55.9585 30.2036 55.5239C29.7446 55.0894 29.5151 54.54 29.5151 53.876C29.5151 53.4365 29.6201 53.0459 29.8301 52.7041C30.04 52.3574 30.333 52.0938 30.709 51.9131C31.0898 51.7275 31.6367 51.5664 32.3496 51.4297C33.3115 51.249 33.978 51.0806 34.3491 50.9243V50.7192C34.3491 50.3237 34.2515 50.043 34.0562 49.877C33.8608 49.7061 33.4922 49.6206 32.9502 49.6206C32.584 49.6206 32.2983 49.6938 32.0933 49.8403C31.8882 49.9819 31.7222 50.2334 31.5952 50.5947ZM34.3491 52.2646C34.0854 52.3525 33.668 52.4575 33.0967 52.5796C32.5254 52.7017 32.1519 52.8213 31.9761 52.9385C31.7075 53.1289 31.5732 53.3706 31.5732 53.6636C31.5732 53.9517 31.6807 54.2007 31.8955 54.4106C32.1104 54.6206 32.3838 54.7256 32.7158 54.7256C33.0869 54.7256 33.4409 54.6035 33.7778 54.3594C34.0269 54.1738 34.1904 53.9468 34.2686 53.6782C34.3223 53.5024 34.3491 53.168 34.3491 52.6748V52.2646ZM38.3188 56V45.2627H40.377V49.1299C41.0117 48.4072 41.7637 48.0459 42.6328 48.0459C43.5801 48.0459 44.3638 48.3901 44.9839 49.0786C45.604 49.7622 45.9141 50.7461 45.9141 52.0303C45.9141 53.3584 45.5967 54.3813 44.9619 55.0991C44.332 55.8169 43.5654 56.1758 42.6621 56.1758C42.2178 56.1758 41.7783 56.0659 41.3438 55.8462C40.9141 55.6216 40.543 55.292 40.2305 54.8574V56H38.3188ZM40.3623 51.9424C40.3623 52.748 40.4893 53.3438 40.7432 53.7295C41.0996 54.2764 41.5732 54.5498 42.1641 54.5498C42.6182 54.5498 43.0039 54.3569 43.3213 53.9712C43.6436 53.5806 43.8047 52.9678 43.8047 52.1328C43.8047 51.2441 43.6436 50.6045 43.3213 50.2139C42.999 49.8184 42.5864 49.6206 42.0835 49.6206C41.5903 49.6206 41.1802 49.8135 40.853 50.1992C40.5259 50.5801 40.3623 51.1611 40.3623 51.9424ZM47.5767 56V45.2627H49.6348V56H47.5767ZM56.2559 53.5244L58.3066 53.8687C58.043 54.6206 57.6255 55.1943 57.0542 55.5898C56.4878 55.9805 55.7773 56.1758 54.9229 56.1758C53.5703 56.1758 52.5693 55.7339 51.9199 54.8501C51.4072 54.1421 51.1509 53.2485 51.1509 52.1694C51.1509 50.8804 51.4878 49.8721 52.1616 49.1445C52.8354 48.4121 53.6875 48.0459 54.7178 48.0459C55.875 48.0459 56.7881 48.4292 57.457 49.1958C58.126 49.9575 58.4458 51.127 58.4165 52.7041H53.2603C53.2749 53.3145 53.4409 53.7905 53.7583 54.1323C54.0757 54.4692 54.4712 54.6377 54.9448 54.6377C55.2671 54.6377 55.5381 54.5498 55.7578 54.374C55.9775 54.1982 56.1436 53.915 56.2559 53.5244ZM56.373 51.4443C56.3584 50.8486 56.2046 50.397 55.9116 50.0894C55.6187 49.7769 55.2622 49.6206 54.8423 49.6206C54.3931 49.6206 54.022 49.7842 53.729 50.1113C53.436 50.4385 53.292 50.8828 53.2969 51.4443H56.373ZM67.2349 56H65.3232V54.8574C65.0059 55.3018 64.6299 55.6338 64.1953 55.8535C63.7656 56.0684 63.3311 56.1758 62.8916 56.1758C61.998 56.1758 61.2314 55.8169 60.5918 55.0991C59.957 54.3765 59.6396 53.3706 59.6396 52.0815C59.6396 50.7632 59.9497 49.7622 60.5698 49.0786C61.1899 48.3901 61.9736 48.0459 62.9209 48.0459C63.79 48.0459 64.542 48.4072 65.1768 49.1299V45.2627H67.2349V56ZM61.7417 51.9424C61.7417 52.7725 61.8564 53.373 62.0859 53.7441C62.418 54.2812 62.8818 54.5498 63.4775 54.5498C63.9512 54.5498 64.354 54.3496 64.686 53.9492C65.0181 53.5439 65.1841 52.9409 65.1841 52.1401C65.1841 51.2466 65.0229 50.6045 64.7007 50.2139C64.3784 49.8184 63.9658 49.6206 63.4629 49.6206C62.9746 49.6206 62.5645 49.8159 62.2324 50.2065C61.9053 50.5923 61.7417 51.1709 61.7417 51.9424Z" fill="white"/>
<rect x="3.5" y="81.5" width="71" height="12" stroke="white"/>
<rect x="24.5" y="82" width="2" height="12" fill="white"/>
<rect x="82.5" y="0.5" width="77" height="101" rx="8.5" fill="#001724" stroke="black"/>
<rect width="72" height="17" transform="translate(85 4)" fill="white"/>
<path d="M98.6318 18V9.0791H95.4458V7.2627H103.979V9.0791H100.8V18H98.6318ZM106.505 18H104.447V10.2217H106.359V11.3276C106.686 10.8052 106.979 10.4609 107.238 10.2949C107.501 10.1289 107.799 10.0459 108.131 10.0459C108.6 10.0459 109.052 10.1753 109.486 10.4341L108.849 12.2285C108.502 12.0039 108.18 11.8916 107.882 11.8916C107.594 11.8916 107.35 11.9722 107.15 12.1333C106.95 12.2896 106.791 12.5752 106.674 12.9902C106.562 13.4053 106.505 14.2744 106.505 15.5977V18ZM111.918 12.5947L110.05 12.2578C110.26 11.5059 110.622 10.9492 111.134 10.5879C111.647 10.2266 112.409 10.0459 113.419 10.0459C114.337 10.0459 115.021 10.1558 115.47 10.3755C115.919 10.5903 116.234 10.8662 116.415 11.2031C116.601 11.5352 116.693 12.1479 116.693 13.0415L116.671 15.4438C116.671 16.1274 116.703 16.6328 116.767 16.96C116.835 17.2822 116.959 17.6289 117.14 18H115.104C115.05 17.8633 114.984 17.6606 114.906 17.3921C114.872 17.27 114.848 17.1895 114.833 17.1504C114.481 17.4922 114.105 17.7485 113.705 17.9194C113.305 18.0903 112.877 18.1758 112.423 18.1758C111.623 18.1758 110.99 17.9585 110.526 17.5239C110.067 17.0894 109.838 16.54 109.838 15.876C109.838 15.4365 109.943 15.0459 110.153 14.7041C110.363 14.3574 110.656 14.0938 111.032 13.9131C111.413 13.7275 111.959 13.5664 112.672 13.4297C113.634 13.249 114.301 13.0806 114.672 12.9243V12.7192C114.672 12.3237 114.574 12.043 114.379 11.877C114.184 11.7061 113.815 11.6206 113.273 11.6206C112.907 11.6206 112.621 11.6938 112.416 11.8403C112.211 11.9819 112.045 12.2334 111.918 12.5947ZM114.672 14.2646C114.408 14.3525 113.991 14.4575 113.419 14.5796C112.848 14.7017 112.475 14.8213 112.299 14.9385C112.03 15.1289 111.896 15.3706 111.896 15.6636C111.896 15.9517 112.003 16.2007 112.218 16.4106C112.433 16.6206 112.707 16.7256 113.039 16.7256C113.41 16.7256 113.764 16.6035 114.101 16.3594C114.35 16.1738 114.513 15.9468 114.591 15.6782C114.645 15.5024 114.672 15.168 114.672 14.6748V14.2646ZM125.512 12.5215L123.483 12.8877C123.415 12.4824 123.258 12.1772 123.014 11.9722C122.775 11.7671 122.462 11.6646 122.077 11.6646C121.564 11.6646 121.154 11.8428 120.846 12.1992C120.543 12.5508 120.392 13.1416 120.392 13.9717C120.392 14.8945 120.546 15.5464 120.854 15.9272C121.166 16.3081 121.583 16.4985 122.106 16.4985C122.497 16.4985 122.816 16.3887 123.065 16.1689C123.314 15.9443 123.49 15.561 123.593 15.019L125.614 15.3633C125.404 16.291 125.001 16.9917 124.406 17.4653C123.81 17.939 123.012 18.1758 122.011 18.1758C120.873 18.1758 119.965 17.8169 119.286 17.0991C118.612 16.3813 118.275 15.3877 118.275 14.1182C118.275 12.834 118.615 11.8354 119.293 11.1226C119.972 10.4048 120.89 10.0459 122.047 10.0459C122.995 10.0459 123.747 10.251 124.303 10.6611C124.865 11.0664 125.268 11.6865 125.512 12.5215ZM127.006 18V7.2627H129.064V12.9609L131.474 10.2217H134.008L131.349 13.0635L134.198 18H131.979L130.023 14.5063L129.064 15.5098V18H127.006ZM146.115 16.0884V18H138.9C138.979 17.2773 139.213 16.5938 139.604 15.9492C139.994 15.2998 140.766 14.4404 141.918 13.3711C142.846 12.5068 143.415 11.9209 143.625 11.6133C143.908 11.1885 144.049 10.7686 144.049 10.3535C144.049 9.89453 143.925 9.54297 143.676 9.29883C143.432 9.0498 143.092 8.92529 142.658 8.92529C142.228 8.92529 141.886 9.05469 141.632 9.31348C141.378 9.57227 141.232 10.002 141.193 10.6025L139.142 10.3975C139.264 9.26465 139.647 8.45166 140.292 7.9585C140.937 7.46533 141.742 7.21875 142.709 7.21875C143.769 7.21875 144.601 7.50439 145.207 8.07568C145.812 8.64697 146.115 9.35742 146.115 10.207C146.115 10.6904 146.027 11.1519 145.851 11.5913C145.68 12.0259 145.407 12.4824 145.031 12.9609C144.782 13.2783 144.333 13.7349 143.683 14.3306C143.034 14.9263 142.621 15.3218 142.445 15.5171C142.274 15.7124 142.135 15.9028 142.028 16.0884H146.115Z" fill="#333333"/>
<rect width="72" height="17" transform="translate(85 23)" fill="white"/>
<path d="M97.8994 26.2627H101.862C102.755 26.2627 103.437 26.3311 103.905 26.4678C104.535 26.6533 105.075 26.9829 105.524 27.4565C105.973 27.9302 106.315 28.5112 106.549 29.1997C106.784 29.8833 106.901 30.728 106.901 31.7339C106.901 32.6177 106.791 33.3794 106.571 34.019C106.303 34.8003 105.919 35.4326 105.421 35.916C105.045 36.2822 104.538 36.5679 103.898 36.7729C103.419 36.9243 102.78 37 101.979 37H97.8994V26.2627ZM100.067 28.0791V35.1909H101.686C102.292 35.1909 102.729 35.1567 102.997 35.0884C103.349 35.0005 103.639 34.8516 103.869 34.6416C104.103 34.4316 104.293 34.0874 104.44 33.6089C104.586 33.1255 104.66 32.4688 104.66 31.6387C104.66 30.8086 104.586 30.1714 104.44 29.7271C104.293 29.2827 104.088 28.936 103.825 28.687C103.561 28.438 103.227 28.2695 102.821 28.1816C102.519 28.1133 101.925 28.0791 101.042 28.0791H100.067ZM108.732 28.167V26.2627H110.79V28.167H108.732ZM108.732 37V29.2217H110.79V37H108.732ZM112.182 34.7808L114.247 34.4658C114.335 34.8662 114.513 35.1714 114.782 35.3813C115.05 35.5864 115.426 35.689 115.91 35.689C116.442 35.689 116.842 35.5913 117.111 35.396C117.292 35.2593 117.382 35.0762 117.382 34.8467C117.382 34.6904 117.333 34.561 117.235 34.4585C117.133 34.3608 116.903 34.2705 116.547 34.1875C114.887 33.8213 113.834 33.4868 113.39 33.1841C112.775 32.7642 112.467 32.1807 112.467 31.4336C112.467 30.7598 112.733 30.1934 113.266 29.7344C113.798 29.2754 114.623 29.0459 115.741 29.0459C116.806 29.0459 117.597 29.2192 118.114 29.5659C118.632 29.9126 118.988 30.4253 119.184 31.104L117.243 31.4629C117.16 31.1602 117.001 30.9282 116.767 30.7671C116.537 30.606 116.208 30.5254 115.778 30.5254C115.236 30.5254 114.848 30.6011 114.613 30.7524C114.457 30.8599 114.379 30.999 114.379 31.1699C114.379 31.3164 114.447 31.4409 114.584 31.5435C114.77 31.6802 115.409 31.873 116.503 32.1221C117.602 32.3711 118.368 32.6763 118.803 33.0376C119.232 33.4038 119.447 33.9141 119.447 34.5684C119.447 35.2812 119.149 35.894 118.554 36.4067C117.958 36.9194 117.077 37.1758 115.91 37.1758C114.85 37.1758 114.01 36.9609 113.39 36.5312C112.775 36.1016 112.372 35.5181 112.182 34.7808ZM124.823 29.2217V30.8623H123.417V33.9971C123.417 34.6318 123.429 35.0029 123.454 35.1104C123.483 35.2129 123.544 35.2983 123.637 35.3667C123.734 35.4351 123.852 35.4692 123.988 35.4692C124.179 35.4692 124.455 35.4033 124.816 35.2715L124.992 36.8682C124.513 37.0732 123.971 37.1758 123.366 37.1758C122.995 37.1758 122.66 37.1147 122.362 36.9927C122.064 36.8657 121.845 36.7046 121.703 36.5093C121.566 36.3091 121.471 36.0405 121.417 35.7036C121.374 35.4644 121.352 34.981 121.352 34.2534V30.8623H120.407V29.2217H121.352V27.6763L123.417 26.4751V29.2217H124.823ZM125.775 33.001C125.775 32.3174 125.944 31.6558 126.281 31.0161C126.618 30.3765 127.094 29.8882 127.709 29.5513C128.329 29.2144 129.02 29.0459 129.782 29.0459C130.958 29.0459 131.923 29.4292 132.675 30.1958C133.427 30.9575 133.803 31.9219 133.803 33.0889C133.803 34.2656 133.422 35.2422 132.66 36.0186C131.903 36.79 130.949 37.1758 129.796 37.1758C129.083 37.1758 128.402 37.0146 127.753 36.6924C127.108 36.3701 126.618 35.8989 126.281 35.2788C125.944 34.6538 125.775 33.8945 125.775 33.001ZM127.885 33.1108C127.885 33.8823 128.068 34.4731 128.434 34.8833C128.8 35.2935 129.252 35.4985 129.789 35.4985C130.326 35.4985 130.775 35.2935 131.137 34.8833C131.503 34.4731 131.686 33.8774 131.686 33.0962C131.686 32.3345 131.503 31.7485 131.137 31.3384C130.775 30.9282 130.326 30.7231 129.789 30.7231C129.252 30.7231 128.8 30.9282 128.434 31.3384C128.068 31.7485 127.885 32.3394 127.885 33.1108ZM137.392 37H135.333V29.2217H137.245V30.3276C137.572 29.8052 137.865 29.4609 138.124 29.2949C138.388 29.1289 138.686 29.0459 139.018 29.0459C139.486 29.0459 139.938 29.1753 140.373 29.4341L139.735 31.2285C139.389 31.0039 139.066 30.8916 138.769 30.8916C138.48 30.8916 138.236 30.9722 138.036 31.1333C137.836 31.2896 137.677 31.5752 137.56 31.9902C137.448 32.4053 137.392 33.2744 137.392 34.5977V37ZM144.833 29.2217V30.8623H143.427V33.9971C143.427 34.6318 143.439 35.0029 143.463 35.1104C143.493 35.2129 143.554 35.2983 143.646 35.3667C143.744 35.4351 143.861 35.4692 143.998 35.4692C144.188 35.4692 144.464 35.4033 144.826 35.2715L145.001 36.8682C144.523 37.0732 143.981 37.1758 143.375 37.1758C143.004 37.1758 142.67 37.1147 142.372 36.9927C142.074 36.8657 141.854 36.7046 141.713 36.5093C141.576 36.3091 141.481 36.0405 141.427 35.7036C141.383 35.4644 141.361 34.981 141.361 34.2534V30.8623H140.417V29.2217H141.361V27.6763L143.427 26.4751V29.2217H144.833Z" fill="#333333"/>
<path d="M90.7949 45.2627H94.7573C95.6509 45.2627 96.332 45.3311 96.8008 45.4678C97.4307 45.6533 97.9702 45.9829 98.4194 46.4565C98.8687 46.9302 99.2104 47.5112 99.4448 48.1997C99.6792 48.8833 99.7964 49.728 99.7964 50.7339C99.7964 51.6177 99.6865 52.3794 99.4668 53.019C99.1982 53.8003 98.8149 54.4326 98.3169 54.916C97.9409 55.2822 97.4331 55.5679 96.7935 55.7729C96.3149 55.9243 95.6753 56 94.8745 56H90.7949V45.2627ZM92.9629 47.0791V54.1909H94.5815C95.187 54.1909 95.624 54.1567 95.8926 54.0884C96.2441 54.0005 96.5347 53.8516 96.7642 53.6416C96.9985 53.4316 97.189 53.0874 97.3354 52.6089C97.4819 52.1255 97.5552 51.4688 97.5552 50.6387C97.5552 49.8086 97.4819 49.1714 97.3354 48.7271C97.189 48.2827 96.9839 47.936 96.7202 47.687C96.4565 47.438 96.1221 47.2695 95.7168 47.1816C95.4141 47.1133 94.8208 47.0791 93.937 47.0791H92.9629ZM101.627 47.167V45.2627H103.686V47.167H101.627ZM101.627 56V48.2217H103.686V56H101.627ZM105.077 53.7808L107.143 53.4658C107.23 53.8662 107.409 54.1714 107.677 54.3813C107.946 54.5864 108.322 54.689 108.805 54.689C109.337 54.689 109.738 54.5913 110.006 54.396C110.187 54.2593 110.277 54.0762 110.277 53.8467C110.277 53.6904 110.229 53.561 110.131 53.4585C110.028 53.3608 109.799 53.2705 109.442 53.1875C107.782 52.8213 106.73 52.4868 106.286 52.1841C105.67 51.7642 105.363 51.1807 105.363 50.4336C105.363 49.7598 105.629 49.1934 106.161 48.7344C106.693 48.2754 107.519 48.0459 108.637 48.0459C109.701 48.0459 110.492 48.2192 111.01 48.5659C111.527 48.9126 111.884 49.4253 112.079 50.104L110.138 50.4629C110.055 50.1602 109.896 49.9282 109.662 49.7671C109.433 49.606 109.103 49.5254 108.673 49.5254C108.131 49.5254 107.743 49.6011 107.509 49.7524C107.353 49.8599 107.274 49.999 107.274 50.1699C107.274 50.3164 107.343 50.4409 107.479 50.5435C107.665 50.6802 108.305 50.873 109.398 51.1221C110.497 51.3711 111.264 51.6763 111.698 52.0376C112.128 52.4038 112.343 52.9141 112.343 53.5684C112.343 54.2812 112.045 54.894 111.449 55.4067C110.854 55.9194 109.972 56.1758 108.805 56.1758C107.746 56.1758 106.906 55.9609 106.286 55.5312C105.67 55.1016 105.268 54.5181 105.077 53.7808ZM115.69 50.5947L113.822 50.2578C114.032 49.5059 114.394 48.9492 114.906 48.5879C115.419 48.2266 116.181 48.0459 117.191 48.0459C118.109 48.0459 118.793 48.1558 119.242 48.3755C119.691 48.5903 120.006 48.8662 120.187 49.2031C120.373 49.5352 120.465 50.1479 120.465 51.0415L120.443 53.4438C120.443 54.1274 120.475 54.6328 120.539 54.96C120.607 55.2822 120.731 55.6289 120.912 56H118.876C118.822 55.8633 118.756 55.6606 118.678 55.3921C118.644 55.27 118.62 55.1895 118.605 55.1504C118.253 55.4922 117.877 55.7485 117.477 55.9194C117.077 56.0903 116.649 56.1758 116.195 56.1758C115.395 56.1758 114.762 55.9585 114.298 55.5239C113.839 55.0894 113.61 54.54 113.61 53.876C113.61 53.4365 113.715 53.0459 113.925 52.7041C114.135 52.3574 114.428 52.0938 114.804 51.9131C115.185 51.7275 115.731 51.5664 116.444 51.4297C117.406 51.249 118.073 51.0806 118.444 50.9243V50.7192C118.444 50.3237 118.346 50.043 118.151 49.877C117.956 49.7061 117.587 49.6206 117.045 49.6206C116.679 49.6206 116.393 49.6938 116.188 49.8403C115.983 49.9819 115.817 50.2334 115.69 50.5947ZM118.444 52.2646C118.18 52.3525 117.763 52.4575 117.191 52.5796C116.62 52.7017 116.247 52.8213 116.071 52.9385C115.802 53.1289 115.668 53.3706 115.668 53.6636C115.668 53.9517 115.775 54.2007 115.99 54.4106C116.205 54.6206 116.479 54.7256 116.811 54.7256C117.182 54.7256 117.536 54.6035 117.873 54.3594C118.122 54.1738 118.285 53.9468 118.363 53.6782C118.417 53.5024 118.444 53.168 118.444 52.6748V52.2646ZM122.414 56V45.2627H124.472V49.1299C125.106 48.4072 125.858 48.0459 126.728 48.0459C127.675 48.0459 128.458 48.3901 129.079 49.0786C129.699 49.7622 130.009 50.7461 130.009 52.0303C130.009 53.3584 129.691 54.3813 129.057 55.0991C128.427 55.8169 127.66 56.1758 126.757 56.1758C126.312 56.1758 125.873 56.0659 125.438 55.8462C125.009 55.6216 124.638 55.292 124.325 54.8574V56H122.414ZM124.457 51.9424C124.457 52.748 124.584 53.3438 124.838 53.7295C125.194 54.2764 125.668 54.5498 126.259 54.5498C126.713 54.5498 127.099 54.3569 127.416 53.9712C127.738 53.5806 127.899 52.9678 127.899 52.1328C127.899 51.2441 127.738 50.6045 127.416 50.2139C127.094 49.8184 126.681 49.6206 126.178 49.6206C125.685 49.6206 125.275 49.8135 124.948 50.1992C124.621 50.5801 124.457 51.1611 124.457 51.9424ZM131.671 56V45.2627H133.729V56H131.671ZM140.351 53.5244L142.401 53.8687C142.138 54.6206 141.72 55.1943 141.149 55.5898C140.583 55.9805 139.872 56.1758 139.018 56.1758C137.665 56.1758 136.664 55.7339 136.015 54.8501C135.502 54.1421 135.246 53.2485 135.246 52.1694C135.246 50.8804 135.583 49.8721 136.256 49.1445C136.93 48.4121 137.782 48.0459 138.812 48.0459C139.97 48.0459 140.883 48.4292 141.552 49.1958C142.221 49.9575 142.541 51.127 142.511 52.7041H137.355C137.37 53.3145 137.536 53.7905 137.853 54.1323C138.17 54.4692 138.566 54.6377 139.04 54.6377C139.362 54.6377 139.633 54.5498 139.853 54.374C140.072 54.1982 140.238 53.915 140.351 53.5244ZM140.468 51.4443C140.453 50.8486 140.299 50.397 140.006 50.0894C139.713 49.7769 139.357 49.6206 138.937 49.6206C138.488 49.6206 138.117 49.7842 137.824 50.1113C137.531 50.4385 137.387 50.8828 137.392 51.4443H140.468ZM151.33 56H149.418V54.8574C149.101 55.3018 148.725 55.6338 148.29 55.8535C147.86 56.0684 147.426 56.1758 146.986 56.1758C146.093 56.1758 145.326 55.8169 144.687 55.0991C144.052 54.3765 143.734 53.3706 143.734 52.0815C143.734 50.7632 144.044 49.7622 144.665 49.0786C145.285 48.3901 146.068 48.0459 147.016 48.0459C147.885 48.0459 148.637 48.4072 149.271 49.1299V45.2627H151.33V56ZM145.836 51.9424C145.836 52.7725 145.951 53.373 146.181 53.7441C146.513 54.2812 146.977 54.5498 147.572 54.5498C148.046 54.5498 148.449 54.3496 148.781 53.9492C149.113 53.5439 149.279 52.9409 149.279 52.1401C149.279 51.2466 149.118 50.6045 148.795 50.2139C148.473 49.8184 148.061 49.6206 147.558 49.6206C147.069 49.6206 146.659 49.8159 146.327 50.2065C146 50.5923 145.836 51.1709 145.836 51.9424Z" fill="white"/>
<rect x="85.5" y="81.5" width="71" height="12" stroke="white"/>
<rect x="106.5" y="82" width="2" height="12" fill="white"/>
<rect x="164.5" y="0.5" width="77" height="101" rx="8.5" fill="#001724" stroke="black"/>
<path d="M180.632 18V9.0791H177.446V7.2627H185.979V9.0791H182.8V18H180.632ZM188.505 18H186.447V10.2217H188.359V11.3276C188.686 10.8052 188.979 10.4609 189.238 10.2949C189.501 10.1289 189.799 10.0459 190.131 10.0459C190.6 10.0459 191.052 10.1753 191.486 10.4341L190.849 12.2285C190.502 12.0039 190.18 11.8916 189.882 11.8916C189.594 11.8916 189.35 11.9722 189.15 12.1333C188.95 12.2896 188.791 12.5752 188.674 12.9902C188.562 13.4053 188.505 14.2744 188.505 15.5977V18ZM193.918 12.5947L192.05 12.2578C192.26 11.5059 192.622 10.9492 193.134 10.5879C193.647 10.2266 194.409 10.0459 195.419 10.0459C196.337 10.0459 197.021 10.1558 197.47 10.3755C197.919 10.5903 198.234 10.8662 198.415 11.2031C198.601 11.5352 198.693 12.1479 198.693 13.0415L198.671 15.4438C198.671 16.1274 198.703 16.6328 198.767 16.96C198.835 17.2822 198.959 17.6289 199.14 18H197.104C197.05 17.8633 196.984 17.6606 196.906 17.3921C196.872 17.27 196.848 17.1895 196.833 17.1504C196.481 17.4922 196.105 17.7485 195.705 17.9194C195.305 18.0903 194.877 18.1758 194.423 18.1758C193.623 18.1758 192.99 17.9585 192.526 17.5239C192.067 17.0894 191.838 16.54 191.838 15.876C191.838 15.4365 191.943 15.0459 192.153 14.7041C192.363 14.3574 192.656 14.0938 193.032 13.9131C193.413 13.7275 193.959 13.5664 194.672 13.4297C195.634 13.249 196.301 13.0806 196.672 12.9243V12.7192C196.672 12.3237 196.574 12.043 196.379 11.877C196.184 11.7061 195.815 11.6206 195.273 11.6206C194.907 11.6206 194.621 11.6938 194.416 11.8403C194.211 11.9819 194.045 12.2334 193.918 12.5947ZM196.672 14.2646C196.408 14.3525 195.991 14.4575 195.419 14.5796C194.848 14.7017 194.475 14.8213 194.299 14.9385C194.03 15.1289 193.896 15.3706 193.896 15.6636C193.896 15.9517 194.003 16.2007 194.218 16.4106C194.433 16.6206 194.707 16.7256 195.039 16.7256C195.41 16.7256 195.764 16.6035 196.101 16.3594C196.35 16.1738 196.513 15.9468 196.591 15.6782C196.645 15.5024 196.672 15.168 196.672 14.6748V14.2646ZM207.512 12.5215L205.483 12.8877C205.415 12.4824 205.258 12.1772 205.014 11.9722C204.775 11.7671 204.462 11.6646 204.077 11.6646C203.564 11.6646 203.154 11.8428 202.846 12.1992C202.543 12.5508 202.392 13.1416 202.392 13.9717C202.392 14.8945 202.546 15.5464 202.854 15.9272C203.166 16.3081 203.583 16.4985 204.106 16.4985C204.497 16.4985 204.816 16.3887 205.065 16.1689C205.314 15.9443 205.49 15.561 205.593 15.019L207.614 15.3633C207.404 16.291 207.001 16.9917 206.406 17.4653C205.81 17.939 205.012 18.1758 204.011 18.1758C202.873 18.1758 201.965 17.8169 201.286 17.0991C200.612 16.3813 200.275 15.3877 200.275 14.1182C200.275 12.834 200.615 11.8354 201.293 11.1226C201.972 10.4048 202.89 10.0459 204.047 10.0459C204.995 10.0459 205.747 10.251 206.303 10.6611C206.865 11.0664 207.268 11.6865 207.512 12.5215ZM209.006 18V7.2627H211.064V12.9609L213.474 10.2217H216.008L213.349 13.0635L216.198 18H213.979L212.023 14.5063L211.064 15.5098V18H209.006ZM221.091 15.1509L223.083 14.9092C223.146 15.417 223.317 15.8052 223.596 16.0737C223.874 16.3423 224.211 16.4766 224.606 16.4766C225.031 16.4766 225.388 16.3154 225.676 15.9932C225.969 15.6709 226.115 15.2363 226.115 14.6895C226.115 14.1719 225.976 13.7617 225.698 13.459C225.419 13.1562 225.08 13.0049 224.68 13.0049C224.416 13.0049 224.101 13.0562 223.735 13.1587L223.962 11.4814C224.519 11.4961 224.943 11.3765 225.236 11.1226C225.529 10.8638 225.676 10.522 225.676 10.0972C225.676 9.73584 225.568 9.44775 225.354 9.23291C225.139 9.01807 224.853 8.91064 224.497 8.91064C224.145 8.91064 223.845 9.03271 223.596 9.27686C223.347 9.521 223.195 9.87744 223.142 10.3462L221.245 10.0239C221.376 9.37451 221.574 8.85693 221.838 8.47119C222.106 8.08057 222.478 7.77539 222.951 7.55566C223.43 7.33105 223.964 7.21875 224.555 7.21875C225.566 7.21875 226.376 7.54102 226.987 8.18555C227.49 8.71289 227.741 9.30859 227.741 9.97266C227.741 10.915 227.226 11.667 226.196 12.2285C226.811 12.3604 227.302 12.6558 227.668 13.1147C228.039 13.5737 228.225 14.1279 228.225 14.7773C228.225 15.7197 227.88 16.5229 227.192 17.187C226.503 17.8511 225.646 18.1831 224.621 18.1831C223.649 18.1831 222.844 17.9048 222.204 17.3481C221.564 16.7866 221.193 16.0542 221.091 15.1509Z" fill="white"/>
<rect width="72" height="17" transform="translate(167 23)" fill="white"/>
<path d="M178.647 37V26.2627H183.21C184.357 26.2627 185.19 26.3604 185.708 26.5557C186.23 26.7461 186.647 27.0879 186.96 27.5811C187.272 28.0742 187.429 28.6382 187.429 29.2729C187.429 30.0786 187.192 30.7451 186.718 31.2725C186.245 31.7949 185.537 32.1245 184.594 32.2612C185.063 32.5347 185.449 32.835 185.751 33.1621C186.059 33.4893 186.472 34.0703 186.989 34.9053L188.3 37H185.708L184.14 34.6636C183.583 33.8286 183.203 33.3037 182.998 33.0889C182.792 32.8691 182.575 32.7202 182.346 32.6421C182.116 32.5591 181.752 32.5176 181.254 32.5176H180.815V37H178.647ZM180.815 30.8037H182.419C183.459 30.8037 184.108 30.7598 184.367 30.6719C184.626 30.584 184.829 30.4326 184.975 30.2178C185.122 30.0029 185.195 29.7344 185.195 29.4121C185.195 29.0508 185.097 28.7603 184.902 28.5405C184.711 28.3159 184.44 28.1743 184.089 28.1157C183.913 28.0913 183.386 28.0791 182.507 28.0791H180.815V30.8037ZM193.969 34.5244L196.02 34.8687C195.756 35.6206 195.339 36.1943 194.768 36.5898C194.201 36.9805 193.491 37.1758 192.636 37.1758C191.284 37.1758 190.283 36.7339 189.633 35.8501C189.121 35.1421 188.864 34.2485 188.864 33.1694C188.864 31.8804 189.201 30.8721 189.875 30.1445C190.549 29.4121 191.401 29.0459 192.431 29.0459C193.588 29.0459 194.501 29.4292 195.17 30.1958C195.839 30.9575 196.159 32.127 196.13 33.7041H190.974C190.988 34.3145 191.154 34.7905 191.472 35.1323C191.789 35.4692 192.185 35.6377 192.658 35.6377C192.98 35.6377 193.251 35.5498 193.471 35.374C193.691 35.1982 193.857 34.915 193.969 34.5244ZM194.086 32.4443C194.072 31.8486 193.918 31.397 193.625 31.0894C193.332 30.7769 192.976 30.6206 192.556 30.6206C192.106 30.6206 191.735 30.7842 191.442 31.1113C191.149 31.4385 191.005 31.8828 191.01 32.4443H194.086ZM199.953 37L196.818 29.2217H198.979L200.444 33.1914L200.869 34.5171C200.981 34.1802 201.052 33.958 201.081 33.8506C201.149 33.6309 201.223 33.4111 201.301 33.1914L202.78 29.2217H204.897L201.806 37H199.953ZM210.668 34.5244L212.719 34.8687C212.456 35.6206 212.038 36.1943 211.467 36.5898C210.9 36.9805 210.19 37.1758 209.335 37.1758C207.983 37.1758 206.982 36.7339 206.333 35.8501C205.82 35.1421 205.563 34.2485 205.563 33.1694C205.563 31.8804 205.9 30.8721 206.574 30.1445C207.248 29.4121 208.1 29.0459 209.13 29.0459C210.288 29.0459 211.201 29.4292 211.87 30.1958C212.539 30.9575 212.858 32.127 212.829 33.7041H207.673C207.688 34.3145 207.854 34.7905 208.171 35.1323C208.488 35.4692 208.884 35.6377 209.357 35.6377C209.68 35.6377 209.951 35.5498 210.17 35.374C210.39 35.1982 210.556 34.915 210.668 34.5244ZM210.786 32.4443C210.771 31.8486 210.617 31.397 210.324 31.0894C210.031 30.7769 209.675 30.6206 209.255 30.6206C208.806 30.6206 208.435 30.7842 208.142 31.1113C207.849 31.4385 207.705 31.8828 207.709 32.4443H210.786ZM216.484 37H214.426V29.2217H216.337V30.3276C216.665 29.8052 216.958 29.4609 217.216 29.2949C217.48 29.1289 217.778 29.0459 218.11 29.0459C218.579 29.0459 219.03 29.1753 219.465 29.4341L218.828 31.2285C218.481 31.0039 218.159 30.8916 217.861 30.8916C217.573 30.8916 217.329 30.9722 217.128 31.1333C216.928 31.2896 216.77 31.5752 216.652 31.9902C216.54 32.4053 216.484 33.2744 216.484 34.5977V37ZM220.271 37V26.2627H222.329V30.1299C222.963 29.4072 223.715 29.0459 224.584 29.0459C225.532 29.0459 226.315 29.3901 226.936 30.0786C227.556 30.7622 227.866 31.7461 227.866 33.0303C227.866 34.3584 227.548 35.3813 226.914 36.0991C226.284 36.8169 225.517 37.1758 224.614 37.1758C224.169 37.1758 223.73 37.0659 223.295 36.8462C222.866 36.6216 222.495 36.292 222.182 35.8574V37H220.271ZM222.314 32.9424C222.314 33.748 222.441 34.3438 222.695 34.7295C223.051 35.2764 223.525 35.5498 224.116 35.5498C224.57 35.5498 224.956 35.3569 225.273 34.9712C225.595 34.5806 225.756 33.9678 225.756 33.1328C225.756 32.2441 225.595 31.6045 225.273 31.2139C224.951 30.8184 224.538 30.6206 224.035 30.6206C223.542 30.6206 223.132 30.8135 222.805 31.1992C222.478 31.5801 222.314 32.1611 222.314 32.9424Z" fill="#333333"/>
<path d="M174.897 56V45.2627H182.858V47.0791H177.065V49.4595H182.456V51.2686H177.065V54.1909H183.063V56H174.897ZM191.962 56H189.904V52.0303C189.904 51.1904 189.86 50.6484 189.772 50.4043C189.685 50.1553 189.541 49.9624 189.34 49.8257C189.145 49.689 188.908 49.6206 188.63 49.6206C188.273 49.6206 187.954 49.7183 187.67 49.9136C187.387 50.1089 187.192 50.3677 187.084 50.6899C186.982 51.0122 186.931 51.6079 186.931 52.4771V56H184.873V48.2217H186.784V49.3643C187.463 48.4854 188.317 48.0459 189.348 48.0459C189.802 48.0459 190.217 48.1289 190.593 48.2949C190.969 48.4561 191.252 48.6636 191.442 48.9175C191.638 49.1714 191.772 49.4595 191.845 49.7817C191.923 50.104 191.962 50.5654 191.962 51.166V56ZM195.595 50.5947L193.728 50.2578C193.938 49.5059 194.299 48.9492 194.812 48.5879C195.324 48.2266 196.086 48.0459 197.097 48.0459C198.015 48.0459 198.698 48.1558 199.147 48.3755C199.597 48.5903 199.912 48.8662 200.092 49.2031C200.278 49.5352 200.371 50.1479 200.371 51.0415L200.349 53.4438C200.349 54.1274 200.38 54.6328 200.444 54.96C200.512 55.2822 200.637 55.6289 200.817 56H198.781C198.728 55.8633 198.662 55.6606 198.583 55.3921C198.549 55.27 198.525 55.1895 198.51 55.1504C198.159 55.4922 197.783 55.7485 197.382 55.9194C196.982 56.0903 196.555 56.1758 196.101 56.1758C195.3 56.1758 194.667 55.9585 194.204 55.5239C193.745 55.0894 193.515 54.54 193.515 53.876C193.515 53.4365 193.62 53.0459 193.83 52.7041C194.04 52.3574 194.333 52.0938 194.709 51.9131C195.09 51.7275 195.637 51.5664 196.35 51.4297C197.312 51.249 197.978 51.0806 198.349 50.9243V50.7192C198.349 50.3237 198.251 50.043 198.056 49.877C197.861 49.7061 197.492 49.6206 196.95 49.6206C196.584 49.6206 196.298 49.6938 196.093 49.8403C195.888 49.9819 195.722 50.2334 195.595 50.5947ZM198.349 52.2646C198.085 52.3525 197.668 52.4575 197.097 52.5796C196.525 52.7017 196.152 52.8213 195.976 52.9385C195.708 53.1289 195.573 53.3706 195.573 53.6636C195.573 53.9517 195.681 54.2007 195.896 54.4106C196.11 54.6206 196.384 54.7256 196.716 54.7256C197.087 54.7256 197.441 54.6035 197.778 54.3594C198.027 54.1738 198.19 53.9468 198.269 53.6782C198.322 53.5024 198.349 53.168 198.349 52.6748V52.2646ZM202.319 56V45.2627H204.377V49.1299C205.012 48.4072 205.764 48.0459 206.633 48.0459C207.58 48.0459 208.364 48.3901 208.984 49.0786C209.604 49.7622 209.914 50.7461 209.914 52.0303C209.914 53.3584 209.597 54.3813 208.962 55.0991C208.332 55.8169 207.565 56.1758 206.662 56.1758C206.218 56.1758 205.778 56.0659 205.344 55.8462C204.914 55.6216 204.543 55.292 204.23 54.8574V56H202.319ZM204.362 51.9424C204.362 52.748 204.489 53.3438 204.743 53.7295C205.1 54.2764 205.573 54.5498 206.164 54.5498C206.618 54.5498 207.004 54.3569 207.321 53.9712C207.644 53.5806 207.805 52.9678 207.805 52.1328C207.805 51.2441 207.644 50.6045 207.321 50.2139C206.999 49.8184 206.586 49.6206 206.083 49.6206C205.59 49.6206 205.18 49.8135 204.853 50.1992C204.526 50.5801 204.362 51.1611 204.362 51.9424ZM211.577 56V45.2627H213.635V56H211.577ZM220.256 53.5244L222.307 53.8687C222.043 54.6206 221.625 55.1943 221.054 55.5898C220.488 55.9805 219.777 56.1758 218.923 56.1758C217.57 56.1758 216.569 55.7339 215.92 54.8501C215.407 54.1421 215.151 53.2485 215.151 52.1694C215.151 50.8804 215.488 49.8721 216.162 49.1445C216.835 48.4121 217.688 48.0459 218.718 48.0459C219.875 48.0459 220.788 48.4292 221.457 49.1958C222.126 49.9575 222.446 51.127 222.417 52.7041H217.26C217.275 53.3145 217.441 53.7905 217.758 54.1323C218.076 54.4692 218.471 54.6377 218.945 54.6377C219.267 54.6377 219.538 54.5498 219.758 54.374C219.978 54.1982 220.144 53.915 220.256 53.5244ZM220.373 51.4443C220.358 50.8486 220.205 50.397 219.912 50.0894C219.619 49.7769 219.262 49.6206 218.842 49.6206C218.393 49.6206 218.022 49.7842 217.729 50.1113C217.436 50.4385 217.292 50.8828 217.297 51.4443H220.373ZM231.235 56H229.323V54.8574C229.006 55.3018 228.63 55.6338 228.195 55.8535C227.766 56.0684 227.331 56.1758 226.892 56.1758C225.998 56.1758 225.231 55.8169 224.592 55.0991C223.957 54.3765 223.64 53.3706 223.64 52.0815C223.64 50.7632 223.95 49.7622 224.57 49.0786C225.19 48.3901 225.974 48.0459 226.921 48.0459C227.79 48.0459 228.542 48.4072 229.177 49.1299V45.2627H231.235V56ZM225.742 51.9424C225.742 52.7725 225.856 53.373 226.086 53.7441C226.418 54.2812 226.882 54.5498 227.478 54.5498C227.951 54.5498 228.354 54.3496 228.686 53.9492C229.018 53.5439 229.184 52.9409 229.184 52.1401C229.184 51.2466 229.023 50.6045 228.701 50.2139C228.378 49.8184 227.966 49.6206 227.463 49.6206C226.975 49.6206 226.564 49.8159 226.232 50.2065C225.905 50.5923 225.742 51.1709 225.742 51.9424Z" fill="white"/>
<rect x="167.5" y="81.5" width="71" height="12" stroke="white"/>
<rect x="188.5" y="82" width="2" height="12" fill="white"/>
<rect x="246.5" y="0.5" width="77" height="101" rx="8.5" fill="#001724" stroke="black"/>
<path d="M262.632 18V9.0791H259.446V7.2627H267.979V9.0791H264.8V18H262.632ZM270.505 18H268.447V10.2217H270.359V11.3276C270.686 10.8052 270.979 10.4609 271.238 10.2949C271.501 10.1289 271.799 10.0459 272.131 10.0459C272.6 10.0459 273.052 10.1753 273.486 10.4341L272.849 12.2285C272.502 12.0039 272.18 11.8916 271.882 11.8916C271.594 11.8916 271.35 11.9722 271.15 12.1333C270.95 12.2896 270.791 12.5752 270.674 12.9902C270.562 13.4053 270.505 14.2744 270.505 15.5977V18ZM275.918 12.5947L274.05 12.2578C274.26 11.5059 274.622 10.9492 275.134 10.5879C275.647 10.2266 276.409 10.0459 277.419 10.0459C278.337 10.0459 279.021 10.1558 279.47 10.3755C279.919 10.5903 280.234 10.8662 280.415 11.2031C280.601 11.5352 280.693 12.1479 280.693 13.0415L280.671 15.4438C280.671 16.1274 280.703 16.6328 280.767 16.96C280.835 17.2822 280.959 17.6289 281.14 18H279.104C279.05 17.8633 278.984 17.6606 278.906 17.3921C278.872 17.27 278.848 17.1895 278.833 17.1504C278.481 17.4922 278.105 17.7485 277.705 17.9194C277.305 18.0903 276.877 18.1758 276.423 18.1758C275.623 18.1758 274.99 17.9585 274.526 17.5239C274.067 17.0894 273.838 16.54 273.838 15.876C273.838 15.4365 273.943 15.0459 274.153 14.7041C274.363 14.3574 274.656 14.0938 275.032 13.9131C275.413 13.7275 275.959 13.5664 276.672 13.4297C277.634 13.249 278.301 13.0806 278.672 12.9243V12.7192C278.672 12.3237 278.574 12.043 278.379 11.877C278.184 11.7061 277.815 11.6206 277.273 11.6206C276.907 11.6206 276.621 11.6938 276.416 11.8403C276.211 11.9819 276.045 12.2334 275.918 12.5947ZM278.672 14.2646C278.408 14.3525 277.991 14.4575 277.419 14.5796C276.848 14.7017 276.475 14.8213 276.299 14.9385C276.03 15.1289 275.896 15.3706 275.896 15.6636C275.896 15.9517 276.003 16.2007 276.218 16.4106C276.433 16.6206 276.707 16.7256 277.039 16.7256C277.41 16.7256 277.764 16.6035 278.101 16.3594C278.35 16.1738 278.513 15.9468 278.591 15.6782C278.645 15.5024 278.672 15.168 278.672 14.6748V14.2646ZM289.512 12.5215L287.483 12.8877C287.415 12.4824 287.258 12.1772 287.014 11.9722C286.775 11.7671 286.462 11.6646 286.077 11.6646C285.564 11.6646 285.154 11.8428 284.846 12.1992C284.543 12.5508 284.392 13.1416 284.392 13.9717C284.392 14.8945 284.546 15.5464 284.854 15.9272C285.166 16.3081 285.583 16.4985 286.106 16.4985C286.497 16.4985 286.816 16.3887 287.065 16.1689C287.314 15.9443 287.49 15.561 287.593 15.019L289.614 15.3633C289.404 16.291 289.001 16.9917 288.406 17.4653C287.81 17.939 287.012 18.1758 286.011 18.1758C284.873 18.1758 283.965 17.8169 283.286 17.0991C282.612 16.3813 282.275 15.3877 282.275 14.1182C282.275 12.834 282.615 11.8354 283.293 11.1226C283.972 10.4048 284.89 10.0459 286.047 10.0459C286.995 10.0459 287.747 10.251 288.303 10.6611C288.865 11.0664 289.268 11.6865 289.512 12.5215ZM291.006 18V7.2627H293.064V12.9609L295.474 10.2217H298.008L295.349 13.0635L298.198 18H295.979L294.023 14.5063L293.064 15.5098V18H291.006ZM307.2 18V15.8394H302.805V14.0376L307.463 7.21875H309.192V14.0303H310.525V15.8394H309.192V18H307.2ZM307.2 14.0303V10.3608L304.731 14.0303H307.2Z" fill="white"/>
<rect width="72" height="17" transform="translate(249 23)" fill="white"/>
<path d="M266.052 26.2627H270.015C270.908 26.2627 271.589 26.3311 272.058 26.4678C272.688 26.6533 273.228 26.9829 273.677 27.4565C274.126 27.9302 274.468 28.5112 274.702 29.1997C274.937 29.8833 275.054 30.728 275.054 31.7339C275.054 32.6177 274.944 33.3794 274.724 34.019C274.456 34.8003 274.072 35.4326 273.574 35.916C273.198 36.2822 272.69 36.5679 272.051 36.7729C271.572 36.9243 270.933 37 270.132 37H266.052V26.2627ZM268.22 28.0791V35.1909H269.839C270.444 35.1909 270.881 35.1567 271.15 35.0884C271.501 35.0005 271.792 34.8516 272.021 34.6416C272.256 34.4316 272.446 34.0874 272.593 33.6089C272.739 33.1255 272.812 32.4688 272.812 31.6387C272.812 30.8086 272.739 30.1714 272.593 29.7271C272.446 29.2827 272.241 28.936 271.978 28.687C271.714 28.438 271.379 28.2695 270.974 28.1816C270.671 28.1133 270.078 28.0791 269.194 28.0791H268.22ZM281.389 34.5244L283.44 34.8687C283.176 35.6206 282.759 36.1943 282.188 36.5898C281.621 36.9805 280.911 37.1758 280.056 37.1758C278.704 37.1758 277.703 36.7339 277.053 35.8501C276.541 35.1421 276.284 34.2485 276.284 33.1694C276.284 31.8804 276.621 30.8721 277.295 30.1445C277.969 29.4121 278.821 29.0459 279.851 29.0459C281.008 29.0459 281.921 29.4292 282.59 30.1958C283.259 30.9575 283.579 32.127 283.55 33.7041H278.394C278.408 34.3145 278.574 34.7905 278.892 35.1323C279.209 35.4692 279.604 35.6377 280.078 35.6377C280.4 35.6377 280.671 35.5498 280.891 35.374C281.111 35.1982 281.277 34.915 281.389 34.5244ZM281.506 32.4443C281.492 31.8486 281.338 31.397 281.045 31.0894C280.752 30.7769 280.396 30.6206 279.976 30.6206C279.526 30.6206 279.155 30.7842 278.862 31.1113C278.569 31.4385 278.425 31.8828 278.43 32.4443H281.506ZM285.234 37V26.2627H287.292V37H285.234ZM290.947 31.5947L289.08 31.2578C289.29 30.5059 289.651 29.9492 290.164 29.5879C290.676 29.2266 291.438 29.0459 292.449 29.0459C293.367 29.0459 294.05 29.1558 294.5 29.3755C294.949 29.5903 295.264 29.8662 295.444 30.2031C295.63 30.5352 295.723 31.1479 295.723 32.0415L295.701 34.4438C295.701 35.1274 295.732 35.6328 295.796 35.96C295.864 36.2822 295.989 36.6289 296.169 37H294.133C294.08 36.8633 294.014 36.6606 293.936 36.3921C293.901 36.27 293.877 36.1895 293.862 36.1504C293.511 36.4922 293.135 36.7485 292.734 36.9194C292.334 37.0903 291.907 37.1758 291.453 37.1758C290.652 37.1758 290.02 36.9585 289.556 36.5239C289.097 36.0894 288.867 35.54 288.867 34.876C288.867 34.4365 288.972 34.0459 289.182 33.7041C289.392 33.3574 289.685 33.0938 290.061 32.9131C290.442 32.7275 290.989 32.5664 291.702 32.4297C292.664 32.249 293.33 32.0806 293.701 31.9243V31.7192C293.701 31.3237 293.604 31.043 293.408 30.877C293.213 30.7061 292.844 30.6206 292.302 30.6206C291.936 30.6206 291.65 30.6938 291.445 30.8403C291.24 30.9819 291.074 31.2334 290.947 31.5947ZM293.701 33.2646C293.438 33.3525 293.02 33.4575 292.449 33.5796C291.877 33.7017 291.504 33.8213 291.328 33.9385C291.06 34.1289 290.925 34.3706 290.925 34.6636C290.925 34.9517 291.033 35.2007 291.248 35.4106C291.462 35.6206 291.736 35.7256 292.068 35.7256C292.439 35.7256 292.793 35.6035 293.13 35.3594C293.379 35.1738 293.542 34.9468 293.621 34.6782C293.674 34.5024 293.701 34.168 293.701 33.6748V33.2646ZM296.785 29.2217H298.975L300.835 34.7441L302.651 29.2217H304.783L302.036 36.707L301.545 38.062C301.365 38.5161 301.191 38.8628 301.025 39.1021C300.864 39.3413 300.676 39.5342 300.461 39.6807C300.251 39.832 299.99 39.9492 299.678 40.0322C299.37 40.1152 299.021 40.1567 298.63 40.1567C298.235 40.1567 297.847 40.1152 297.466 40.0322L297.283 38.4209C297.605 38.4844 297.896 38.5161 298.154 38.5161C298.633 38.5161 298.987 38.3745 299.216 38.0913C299.446 37.813 299.622 37.4565 299.744 37.022L296.785 29.2217Z" fill="#333333"/>
<path d="M256.897 56V45.2627H264.858V47.0791H259.065V49.4595H264.456V51.2686H259.065V54.1909H265.063V56H256.897ZM273.962 56H271.904V52.0303C271.904 51.1904 271.86 50.6484 271.772 50.4043C271.685 50.1553 271.541 49.9624 271.34 49.8257C271.145 49.689 270.908 49.6206 270.63 49.6206C270.273 49.6206 269.954 49.7183 269.67 49.9136C269.387 50.1089 269.192 50.3677 269.084 50.6899C268.982 51.0122 268.931 51.6079 268.931 52.4771V56H266.873V48.2217H268.784V49.3643C269.463 48.4854 270.317 48.0459 271.348 48.0459C271.802 48.0459 272.217 48.1289 272.593 48.2949C272.969 48.4561 273.252 48.6636 273.442 48.9175C273.638 49.1714 273.772 49.4595 273.845 49.7817C273.923 50.104 273.962 50.5654 273.962 51.166V56ZM277.595 50.5947L275.728 50.2578C275.938 49.5059 276.299 48.9492 276.812 48.5879C277.324 48.2266 278.086 48.0459 279.097 48.0459C280.015 48.0459 280.698 48.1558 281.147 48.3755C281.597 48.5903 281.912 48.8662 282.092 49.2031C282.278 49.5352 282.371 50.1479 282.371 51.0415L282.349 53.4438C282.349 54.1274 282.38 54.6328 282.444 54.96C282.512 55.2822 282.637 55.6289 282.817 56H280.781C280.728 55.8633 280.662 55.6606 280.583 55.3921C280.549 55.27 280.525 55.1895 280.51 55.1504C280.159 55.4922 279.783 55.7485 279.382 55.9194C278.982 56.0903 278.555 56.1758 278.101 56.1758C277.3 56.1758 276.667 55.9585 276.204 55.5239C275.745 55.0894 275.515 54.54 275.515 53.876C275.515 53.4365 275.62 53.0459 275.83 52.7041C276.04 52.3574 276.333 52.0938 276.709 51.9131C277.09 51.7275 277.637 51.5664 278.35 51.4297C279.312 51.249 279.978 51.0806 280.349 50.9243V50.7192C280.349 50.3237 280.251 50.043 280.056 49.877C279.861 49.7061 279.492 49.6206 278.95 49.6206C278.584 49.6206 278.298 49.6938 278.093 49.8403C277.888 49.9819 277.722 50.2334 277.595 50.5947ZM280.349 52.2646C280.085 52.3525 279.668 52.4575 279.097 52.5796C278.525 52.7017 278.152 52.8213 277.976 52.9385C277.708 53.1289 277.573 53.3706 277.573 53.6636C277.573 53.9517 277.681 54.2007 277.896 54.4106C278.11 54.6206 278.384 54.7256 278.716 54.7256C279.087 54.7256 279.441 54.6035 279.778 54.3594C280.027 54.1738 280.19 53.9468 280.269 53.6782C280.322 53.5024 280.349 53.168 280.349 52.6748V52.2646ZM284.319 56V45.2627H286.377V49.1299C287.012 48.4072 287.764 48.0459 288.633 48.0459C289.58 48.0459 290.364 48.3901 290.984 49.0786C291.604 49.7622 291.914 50.7461 291.914 52.0303C291.914 53.3584 291.597 54.3813 290.962 55.0991C290.332 55.8169 289.565 56.1758 288.662 56.1758C288.218 56.1758 287.778 56.0659 287.344 55.8462C286.914 55.6216 286.543 55.292 286.23 54.8574V56H284.319ZM286.362 51.9424C286.362 52.748 286.489 53.3438 286.743 53.7295C287.1 54.2764 287.573 54.5498 288.164 54.5498C288.618 54.5498 289.004 54.3569 289.321 53.9712C289.644 53.5806 289.805 52.9678 289.805 52.1328C289.805 51.2441 289.644 50.6045 289.321 50.2139C288.999 49.8184 288.586 49.6206 288.083 49.6206C287.59 49.6206 287.18 49.8135 286.853 50.1992C286.526 50.5801 286.362 51.1611 286.362 51.9424ZM293.577 56V45.2627H295.635V56H293.577ZM302.256 53.5244L304.307 53.8687C304.043 54.6206 303.625 55.1943 303.054 55.5898C302.488 55.9805 301.777 56.1758 300.923 56.1758C299.57 56.1758 298.569 55.7339 297.92 54.8501C297.407 54.1421 297.151 53.2485 297.151 52.1694C297.151 50.8804 297.488 49.8721 298.162 49.1445C298.835 48.4121 299.688 48.0459 300.718 48.0459C301.875 48.0459 302.788 48.4292 303.457 49.1958C304.126 49.9575 304.446 51.127 304.417 52.7041H299.26C299.275 53.3145 299.441 53.7905 299.758 54.1323C300.076 54.4692 300.471 54.6377 300.945 54.6377C301.267 54.6377 301.538 54.5498 301.758 54.374C301.978 54.1982 302.144 53.915 302.256 53.5244ZM302.373 51.4443C302.358 50.8486 302.205 50.397 301.912 50.0894C301.619 49.7769 301.262 49.6206 300.842 49.6206C300.393 49.6206 300.022 49.7842 299.729 50.1113C299.436 50.4385 299.292 50.8828 299.297 51.4443H302.373ZM313.235 56H311.323V54.8574C311.006 55.3018 310.63 55.6338 310.195 55.8535C309.766 56.0684 309.331 56.1758 308.892 56.1758C307.998 56.1758 307.231 55.8169 306.592 55.0991C305.957 54.3765 305.64 53.3706 305.64 52.0815C305.64 50.7632 305.95 49.7622 306.57 49.0786C307.19 48.3901 307.974 48.0459 308.921 48.0459C309.79 48.0459 310.542 48.4072 311.177 49.1299V45.2627H313.235V56ZM307.742 51.9424C307.742 52.7725 307.856 53.373 308.086 53.7441C308.418 54.2812 308.882 54.5498 309.478 54.5498C309.951 54.5498 310.354 54.3496 310.686 53.9492C311.018 53.5439 311.184 52.9409 311.184 52.1401C311.184 51.2466 311.023 50.6045 310.701 50.2139C310.378 49.8184 309.966 49.6206 309.463 49.6206C308.975 49.6206 308.564 49.8159 308.232 50.2065C307.905 50.5923 307.742 51.1709 307.742 51.9424Z" fill="white"/>
<rect x="249.5" y="81.5" width="71" height="12" stroke="white"/>
<rect x="270.5" y="82" width="2" height="12" fill="white"/>
</svg>
