<svg width="429" height="1026" viewBox="0 0 429 1026" fill="none" xmlns="http://www.w3.org/2000/svg">
<g clip-path="url(#clip0_2003_3417)">
<rect x="201" width="127" height="1026" fill="#333333"/>
<rect x="120" width="208" height="285" fill="#333333"/>
<rect width="132" height="385" fill="#596266"/>
<rect x="120" y="271" width="208" height="114" fill="#596266"/>
<rect x="201" y="395" width="127" height="102" fill="#596266"/>
<g filter="url(#filter0_i_2003_3417)">
<rect x="223" y="298" width="85" height="56" rx="9" fill="#6DA9CD"/>
</g>
<rect x="223.5" y="298.5" width="84" height="55" rx="8.5" stroke="#6DA9CD"/>
<path d="M242.551 329.535C242.551 329.23 242.504 328.957 242.41 328.715C242.324 328.465 242.16 328.238 241.918 328.035C241.676 327.824 241.336 327.617 240.898 327.414C240.461 327.211 239.895 327 239.199 326.781C238.426 326.531 237.691 326.25 236.996 325.938C236.309 325.625 235.699 325.262 235.168 324.848C234.645 324.426 234.23 323.938 233.926 323.383C233.629 322.828 233.48 322.184 233.48 321.449C233.48 320.738 233.637 320.094 233.949 319.516C234.262 318.93 234.699 318.43 235.262 318.016C235.824 317.594 236.488 317.27 237.254 317.043C238.027 316.816 238.875 316.703 239.797 316.703C241.055 316.703 242.152 316.93 243.09 317.383C244.027 317.836 244.754 318.457 245.27 319.246C245.793 320.035 246.055 320.938 246.055 321.953H242.562C242.562 321.453 242.457 321.016 242.246 320.641C242.043 320.258 241.73 319.957 241.309 319.738C240.895 319.52 240.371 319.41 239.738 319.41C239.129 319.41 238.621 319.504 238.215 319.691C237.809 319.871 237.504 320.117 237.301 320.43C237.098 320.734 236.996 321.078 236.996 321.461C236.996 321.75 237.066 322.012 237.207 322.246C237.355 322.48 237.574 322.699 237.863 322.902C238.152 323.105 238.508 323.297 238.93 323.477C239.352 323.656 239.84 323.832 240.395 324.004C241.324 324.285 242.141 324.602 242.844 324.953C243.555 325.305 244.148 325.699 244.625 326.137C245.102 326.574 245.461 327.07 245.703 327.625C245.945 328.18 246.066 328.809 246.066 329.512C246.066 330.254 245.922 330.918 245.633 331.504C245.344 332.09 244.926 332.586 244.379 332.992C243.832 333.398 243.18 333.707 242.422 333.918C241.664 334.129 240.816 334.234 239.879 334.234C239.035 334.234 238.203 334.125 237.383 333.906C236.562 333.68 235.816 333.34 235.145 332.887C234.48 332.434 233.949 331.855 233.551 331.152C233.152 330.449 232.953 329.617 232.953 328.656H236.48C236.48 329.188 236.562 329.637 236.727 330.004C236.891 330.371 237.121 330.668 237.418 330.895C237.723 331.121 238.082 331.285 238.496 331.387C238.918 331.488 239.379 331.539 239.879 331.539C240.488 331.539 240.988 331.453 241.379 331.281C241.777 331.109 242.07 330.871 242.258 330.566C242.453 330.262 242.551 329.918 242.551 329.535ZM254.082 334.234C253.098 334.234 252.215 334.078 251.434 333.766C250.652 333.445 249.988 333.004 249.441 332.441C248.902 331.879 248.488 331.227 248.199 330.484C247.91 329.734 247.766 328.938 247.766 328.094V327.625C247.766 326.664 247.902 325.785 248.176 324.988C248.449 324.191 248.84 323.5 249.348 322.914C249.863 322.328 250.488 321.879 251.223 321.566C251.957 321.246 252.785 321.086 253.707 321.086C254.605 321.086 255.402 321.234 256.098 321.531C256.793 321.828 257.375 322.25 257.844 322.797C258.32 323.344 258.68 324 258.922 324.766C259.164 325.523 259.285 326.367 259.285 327.297V328.703H249.207V326.453H255.969V326.195C255.969 325.727 255.883 325.309 255.711 324.941C255.547 324.566 255.297 324.27 254.961 324.051C254.625 323.832 254.195 323.723 253.672 323.723C253.227 323.723 252.844 323.82 252.523 324.016C252.203 324.211 251.941 324.484 251.738 324.836C251.543 325.188 251.395 325.602 251.293 326.078C251.199 326.547 251.152 327.062 251.152 327.625V328.094C251.152 328.602 251.223 329.07 251.363 329.5C251.512 329.93 251.719 330.301 251.984 330.613C252.258 330.926 252.586 331.168 252.969 331.34C253.359 331.512 253.801 331.598 254.293 331.598C254.902 331.598 255.469 331.48 255.992 331.246C256.523 331.004 256.98 330.641 257.363 330.156L259.004 331.938C258.738 332.32 258.375 332.688 257.914 333.039C257.461 333.391 256.914 333.68 256.273 333.906C255.633 334.125 254.902 334.234 254.082 334.234ZM264.77 316V334H261.383V316H264.77ZM273.395 334.234C272.41 334.234 271.527 334.078 270.746 333.766C269.965 333.445 269.301 333.004 268.754 332.441C268.215 331.879 267.801 331.227 267.512 330.484C267.223 329.734 267.078 328.938 267.078 328.094V327.625C267.078 326.664 267.215 325.785 267.488 324.988C267.762 324.191 268.152 323.5 268.66 322.914C269.176 322.328 269.801 321.879 270.535 321.566C271.27 321.246 272.098 321.086 273.02 321.086C273.918 321.086 274.715 321.234 275.41 321.531C276.105 321.828 276.688 322.25 277.156 322.797C277.633 323.344 277.992 324 278.234 324.766C278.477 325.523 278.598 326.367 278.598 327.297V328.703H268.52V326.453H275.281V326.195C275.281 325.727 275.195 325.309 275.023 324.941C274.859 324.566 274.609 324.27 274.273 324.051C273.938 323.832 273.508 323.723 272.984 323.723C272.539 323.723 272.156 323.82 271.836 324.016C271.516 324.211 271.254 324.484 271.051 324.836C270.855 325.188 270.707 325.602 270.605 326.078C270.512 326.547 270.465 327.062 270.465 327.625V328.094C270.465 328.602 270.535 329.07 270.676 329.5C270.824 329.93 271.031 330.301 271.297 330.613C271.57 330.926 271.898 331.168 272.281 331.34C272.672 331.512 273.113 331.598 273.605 331.598C274.215 331.598 274.781 331.48 275.305 331.246C275.836 331.004 276.293 330.641 276.676 330.156L278.316 331.938C278.051 332.32 277.688 332.688 277.227 333.039C276.773 333.391 276.227 333.68 275.586 333.906C274.945 334.125 274.215 334.234 273.395 334.234ZM285.758 331.598C286.172 331.598 286.539 331.52 286.859 331.363C287.18 331.199 287.43 330.973 287.609 330.684C287.797 330.387 287.895 330.039 287.902 329.641H291.078C291.07 330.531 290.832 331.324 290.363 332.02C289.895 332.707 289.266 333.25 288.477 333.648C287.688 334.039 286.805 334.234 285.828 334.234C284.844 334.234 283.984 334.07 283.25 333.742C282.523 333.414 281.918 332.961 281.434 332.383C280.949 331.797 280.586 331.117 280.344 330.344C280.102 329.562 279.98 328.727 279.98 327.836V327.496C279.98 326.598 280.102 325.762 280.344 324.988C280.586 324.207 280.949 323.527 281.434 322.949C281.918 322.363 282.523 321.906 283.25 321.578C283.977 321.25 284.828 321.086 285.805 321.086C286.844 321.086 287.754 321.285 288.535 321.684C289.324 322.082 289.941 322.652 290.387 323.395C290.84 324.129 291.07 325 291.078 326.008H287.902C287.895 325.586 287.805 325.203 287.633 324.859C287.469 324.516 287.227 324.242 286.906 324.039C286.594 323.828 286.207 323.723 285.746 323.723C285.254 323.723 284.852 323.828 284.539 324.039C284.227 324.242 283.984 324.523 283.812 324.883C283.641 325.234 283.52 325.637 283.449 326.09C283.387 326.535 283.355 327.004 283.355 327.496V327.836C283.355 328.328 283.387 328.801 283.449 329.254C283.512 329.707 283.629 330.109 283.801 330.461C283.98 330.812 284.227 331.09 284.539 331.293C284.852 331.496 285.258 331.598 285.758 331.598ZM299.246 321.32V323.711H291.863V321.32H299.246ZM293.691 318.191H297.066V330.18C297.066 330.547 297.113 330.828 297.207 331.023C297.309 331.219 297.457 331.355 297.652 331.434C297.848 331.504 298.094 331.539 298.391 331.539C298.602 331.539 298.789 331.531 298.953 331.516C299.125 331.492 299.27 331.469 299.387 331.445L299.398 333.93C299.109 334.023 298.797 334.098 298.461 334.152C298.125 334.207 297.754 334.234 297.348 334.234C296.605 334.234 295.957 334.113 295.402 333.871C294.855 333.621 294.434 333.223 294.137 332.676C293.84 332.129 293.691 331.41 293.691 330.52V318.191Z" fill="#333333"/>
<g filter="url(#filter1_i_2003_3417)">
<rect x="20" y="298" width="85" height="56" rx="9" fill="#CC594F"/>
</g>
<rect x="20.5" y="298.5" width="84" height="55" rx="8.5" stroke="#CC594F"/>
<path d="M45.1992 319.855L40.5586 334H36.8203L43.1602 316.938H45.5391L45.1992 319.855ZM49.0547 334L44.4023 319.855L44.0273 316.938H46.4297L52.8047 334H49.0547ZM48.8438 327.648V330.402H39.832V327.648H48.8438ZM54.3867 316.938H60.75C62.0547 316.938 63.1758 317.133 64.1133 317.523C65.0586 317.914 65.7852 318.492 66.293 319.258C66.8008 320.023 67.0547 320.965 67.0547 322.082C67.0547 322.996 66.8984 323.781 66.5859 324.438C66.2812 325.086 65.8477 325.629 65.2852 326.066C64.7305 326.496 64.0781 326.84 63.3281 327.098L62.2148 327.684H56.6836L56.6602 324.941H60.7734C61.3906 324.941 61.9023 324.832 62.3086 324.613C62.7148 324.395 63.0195 324.09 63.2227 323.699C63.4336 323.309 63.5391 322.855 63.5391 322.34C63.5391 321.793 63.4375 321.32 63.2344 320.922C63.0312 320.523 62.7227 320.219 62.3086 320.008C61.8945 319.797 61.375 319.691 60.75 319.691H57.9023V334H54.3867V316.938ZM63.9258 334L60.0352 326.395L63.75 326.371L67.6875 333.836V334H63.9258ZM71.3672 316.938H74.3438L78.7266 329.465L83.1094 316.938H86.0859L79.9219 334H77.5312L71.3672 316.938ZM69.7617 316.938H72.7266L73.2656 329.148V334H69.7617V316.938ZM84.7266 316.938H87.7031V334H84.1875V329.148L84.7266 316.938Z" fill="#333333"/>
<g filter="url(#filter2_i_2003_3417)">
<rect x="213" y="424" width="40" height="40" rx="9" fill="#CC594F"/>
</g>
<rect x="213.5" y="424.5" width="39" height="39" rx="8.5" stroke="#CC594F"/>
<path d="M225.617 434.938H228.594L232.977 447.465L237.359 434.938H240.336L234.172 452H231.781L225.617 434.938ZM224.012 434.938H226.977L227.516 447.148V452H224.012V434.938ZM238.977 434.938H241.953V452H238.438V447.148L238.977 434.938Z" fill="#333333"/>
<g filter="url(#filter3_i_2003_3417)">
<rect x="277" y="424" width="40" height="40" rx="9" fill="#D7A55A"/>
</g>
<rect x="277.5" y="424.5" width="39" height="39" rx="8.5" stroke="#D7A55A"/>
<path d="M300.012 447.535C300.012 447.23 299.965 446.957 299.871 446.715C299.785 446.465 299.621 446.238 299.379 446.035C299.137 445.824 298.797 445.617 298.359 445.414C297.922 445.211 297.355 445 296.66 444.781C295.887 444.531 295.152 444.25 294.457 443.938C293.77 443.625 293.16 443.262 292.629 442.848C292.105 442.426 291.691 441.938 291.387 441.383C291.09 440.828 290.941 440.184 290.941 439.449C290.941 438.738 291.098 438.094 291.41 437.516C291.723 436.93 292.16 436.43 292.723 436.016C293.285 435.594 293.949 435.27 294.715 435.043C295.488 434.816 296.336 434.703 297.258 434.703C298.516 434.703 299.613 434.93 300.551 435.383C301.488 435.836 302.215 436.457 302.73 437.246C303.254 438.035 303.516 438.938 303.516 439.953H300.023C300.023 439.453 299.918 439.016 299.707 438.641C299.504 438.258 299.191 437.957 298.77 437.738C298.355 437.52 297.832 437.41 297.199 437.41C296.59 437.41 296.082 437.504 295.676 437.691C295.27 437.871 294.965 438.117 294.762 438.43C294.559 438.734 294.457 439.078 294.457 439.461C294.457 439.75 294.527 440.012 294.668 440.246C294.816 440.48 295.035 440.699 295.324 440.902C295.613 441.105 295.969 441.297 296.391 441.477C296.812 441.656 297.301 441.832 297.855 442.004C298.785 442.285 299.602 442.602 300.305 442.953C301.016 443.305 301.609 443.699 302.086 444.137C302.562 444.574 302.922 445.07 303.164 445.625C303.406 446.18 303.527 446.809 303.527 447.512C303.527 448.254 303.383 448.918 303.094 449.504C302.805 450.09 302.387 450.586 301.84 450.992C301.293 451.398 300.641 451.707 299.883 451.918C299.125 452.129 298.277 452.234 297.34 452.234C296.496 452.234 295.664 452.125 294.844 451.906C294.023 451.68 293.277 451.34 292.605 450.887C291.941 450.434 291.41 449.855 291.012 449.152C290.613 448.449 290.414 447.617 290.414 446.656H293.941C293.941 447.188 294.023 447.637 294.188 448.004C294.352 448.371 294.582 448.668 294.879 448.895C295.184 449.121 295.543 449.285 295.957 449.387C296.379 449.488 296.84 449.539 297.34 449.539C297.949 449.539 298.449 449.453 298.84 449.281C299.238 449.109 299.531 448.871 299.719 448.566C299.914 448.262 300.012 447.918 300.012 447.535Z" fill="#333333"/>
<rect x="214.34" y="13.34" width="101.64" height="133.32" rx="11.22" fill="#001724" stroke="black" stroke-width="1.32"/>
<path d="M221.272 38.36V24.1867H224.056L229.857 33.6517V24.1867H232.516V38.36H229.644L223.931 29.1174V38.36H221.272ZM234.904 33.0813C234.904 32.1789 235.126 31.3056 235.571 30.4613C236.016 29.6169 236.644 28.9724 237.456 28.5277C238.275 28.0829 239.187 27.8606 240.192 27.8606C241.745 27.8606 243.018 28.3665 244.011 29.3784C245.004 30.3839 245.5 31.6569 245.5 33.1973C245.5 34.7506 244.997 36.0397 243.992 37.0645C242.993 38.0828 241.733 38.592 240.211 38.592C239.27 38.592 238.371 38.3793 237.514 37.9539C236.663 37.5285 236.016 36.9066 235.571 36.088C235.126 35.263 234.904 34.2608 234.904 33.0813ZM237.688 33.2263C237.688 34.2447 237.93 35.0245 238.413 35.5659C238.897 36.1073 239.493 36.3781 240.202 36.3781C240.911 36.3781 241.504 36.1073 241.981 35.5659C242.464 35.0245 242.706 34.2382 242.706 33.207C242.706 32.2015 242.464 31.4281 241.981 30.8866C241.504 30.3452 240.911 30.0745 240.202 30.0745C239.493 30.0745 238.897 30.3452 238.413 30.8866C237.93 31.4281 237.688 32.2079 237.688 33.2263ZM250.237 38.36H247.52V28.0926H250.044V29.5525C250.476 28.8628 250.862 28.4084 251.204 28.1893C251.552 27.9701 251.945 27.8606 252.383 27.8606C253.002 27.8606 253.598 28.0314 254.172 28.373L253.331 30.7416C252.873 30.4451 252.448 30.2969 252.055 30.2969C251.674 30.2969 251.352 30.4032 251.088 30.6159C250.824 30.8222 250.614 31.1992 250.459 31.7471C250.311 32.2949 250.237 33.4422 250.237 35.1889V38.36ZM255.148 28.0926H257.652V29.4945C258.548 28.4052 259.615 27.8606 260.853 27.8606C261.51 27.8606 262.08 27.9959 262.564 28.2666C263.047 28.5373 263.444 28.9466 263.753 29.4945C264.204 28.9466 264.691 28.5373 265.213 28.2666C265.735 27.9959 266.292 27.8606 266.885 27.8606C267.639 27.8606 268.278 28.0153 268.8 28.3246C269.322 28.6276 269.712 29.0755 269.969 29.6685C270.156 30.1068 270.25 30.8157 270.25 31.7954V38.36H267.533V32.4915C267.533 31.4732 267.44 30.8157 267.253 30.5193C267.001 30.1325 266.615 29.9392 266.093 29.9392C265.712 29.9392 265.355 30.0552 265.019 30.2872C264.684 30.5193 264.443 30.8609 264.294 31.312C264.146 31.7568 264.072 32.4625 264.072 33.4293V38.36H261.355V32.7332C261.355 31.7342 261.307 31.0897 261.21 30.7996C261.114 30.5096 260.962 30.2937 260.756 30.1519C260.556 30.0101 260.282 29.9392 259.934 29.9392C259.515 29.9392 259.138 30.052 258.803 30.2776C258.468 30.5031 258.226 30.8286 258.078 31.254C257.936 31.6794 257.865 32.3852 257.865 33.3713V38.36H255.148V28.0926ZM274.997 31.225L272.531 30.7803C272.809 29.7877 273.286 29.053 273.962 28.576C274.639 28.099 275.645 27.8606 276.979 27.8606C278.19 27.8606 279.093 28.0056 279.686 28.2956C280.279 28.5792 280.694 28.9434 280.933 29.3881C281.178 29.8264 281.3 30.6353 281.3 31.8148L281.271 34.9859C281.271 35.8882 281.313 36.5553 281.397 36.9871C281.487 37.4125 281.652 37.8701 281.89 38.36H279.202C279.131 38.1795 279.044 37.912 278.941 37.5575C278.896 37.3964 278.864 37.2901 278.845 37.2385C278.381 37.6897 277.884 38.0281 277.356 38.2536C276.827 38.4792 276.263 38.592 275.664 38.592C274.607 38.592 273.772 38.3052 273.16 37.7316C272.554 37.1579 272.251 36.4328 272.251 35.5563C272.251 34.9762 272.39 34.4606 272.667 34.0094C272.944 33.5518 273.331 33.2037 273.827 32.9653C274.33 32.7203 275.052 32.5076 275.993 32.3272C277.262 32.0887 278.142 31.8663 278.632 31.6601V31.3894C278.632 30.8673 278.503 30.4967 278.245 30.2776C277.987 30.052 277.501 29.9392 276.785 29.9392C276.302 29.9392 275.925 30.0359 275.654 30.2292C275.383 30.4161 275.164 30.7481 274.997 31.225ZM278.632 33.4293C278.284 33.5453 277.733 33.6839 276.979 33.845C276.225 34.0062 275.732 34.1641 275.5 34.3188C275.145 34.5701 274.968 34.8892 274.968 35.2759C274.968 35.6562 275.11 35.9849 275.393 36.262C275.677 36.5392 276.038 36.6778 276.476 36.6778C276.966 36.6778 277.433 36.5166 277.878 36.1944C278.207 35.9494 278.422 35.6497 278.526 35.2952C278.596 35.0632 278.632 34.6217 278.632 33.9707V33.4293ZM283.988 38.36V24.1867H286.705V38.36H283.988Z" fill="white"/>
<path d="M247.697 81H242.445V61.2058C240.526 63.0002 238.264 64.3273 235.66 65.1871V60.4208C237.03 59.9722 238.52 59.1248 240.127 57.8787C241.734 56.6202 242.837 55.156 243.435 53.4862H247.697V81ZM273.304 76.1215V81H254.893C255.093 79.1558 255.691 77.4112 256.688 75.7664C257.684 74.1091 259.653 71.916 262.594 69.187C264.962 66.9814 266.413 65.4861 266.949 64.7011C267.672 63.617 268.033 62.5454 268.033 61.4862C268.033 60.3148 267.716 59.4177 267.08 58.7946C266.457 58.1591 265.591 57.8413 264.482 57.8413C263.385 57.8413 262.513 58.1716 261.865 58.832C261.217 59.4924 260.843 60.589 260.744 62.1217L255.51 61.5983C255.822 58.7074 256.8 56.6326 258.445 55.3741C260.089 54.1155 262.145 53.4862 264.613 53.4862C267.317 53.4862 269.441 54.2152 270.987 55.6731C272.532 57.1311 273.304 58.9441 273.304 61.1123C273.304 62.346 273.08 63.5235 272.631 64.645C272.195 65.754 271.497 66.9191 270.538 68.1403C269.902 68.9503 268.756 70.1154 267.099 71.6356C265.441 73.1558 264.388 74.1652 263.94 74.6636C263.504 75.1621 263.149 75.648 262.874 76.1215H273.304Z" fill="white"/>
<path d="M224.066 110.64V96.5828H226.928V108.252H234.043V110.64H224.066ZM242.445 110.64H239.728V100.402C238.735 101.33 237.566 102.016 236.219 102.461V99.9956C236.928 99.7635 237.698 99.3253 238.529 98.6807C239.361 98.0298 239.931 97.2724 240.24 96.4088H242.445V110.64ZM251.107 96.4088C252.48 96.4088 253.553 96.8986 254.327 97.8783C255.248 99.0385 255.709 100.962 255.709 103.65C255.709 106.331 255.245 108.258 254.317 109.432C253.55 110.398 252.48 110.882 251.107 110.882C249.728 110.882 248.616 110.353 247.772 109.296C246.927 108.233 246.505 106.341 246.505 103.621C246.505 100.953 246.969 99.032 247.897 97.859C248.664 96.8922 249.734 96.4088 251.107 96.4088ZM251.107 98.6614C250.779 98.6614 250.485 98.7677 250.227 98.9804C249.97 99.1867 249.77 99.5605 249.628 100.102C249.441 100.804 249.348 101.987 249.348 103.65C249.348 105.313 249.431 106.457 249.599 107.082C249.767 107.701 249.976 108.113 250.227 108.32C250.485 108.526 250.779 108.629 251.107 108.629C251.436 108.629 251.729 108.526 251.987 108.32C252.245 108.107 252.445 107.73 252.586 107.189C252.773 106.492 252.867 105.313 252.867 103.65C252.867 101.987 252.783 100.846 252.615 100.228C252.448 99.6024 252.235 99.1867 251.977 98.9804C251.726 98.7677 251.436 98.6614 251.107 98.6614ZM262.129 96.4088C263.502 96.4088 264.575 96.8986 265.348 97.8783C266.27 99.0385 266.731 100.962 266.731 103.65C266.731 106.331 266.267 108.258 265.338 109.432C264.571 110.398 263.502 110.882 262.129 110.882C260.749 110.882 259.638 110.353 258.793 109.296C257.949 108.233 257.527 106.341 257.527 103.621C257.527 100.953 257.991 99.032 258.919 97.859C259.686 96.8922 260.756 96.4088 262.129 96.4088ZM262.129 98.6614C261.8 98.6614 261.507 98.7677 261.249 98.9804C260.991 99.1867 260.791 99.5605 260.65 100.102C260.463 100.804 260.369 101.987 260.369 103.65C260.369 105.313 260.453 106.457 260.621 107.082C260.788 107.701 260.998 108.113 261.249 108.32C261.507 108.526 261.8 108.629 262.129 108.629C262.457 108.629 262.751 108.526 263.008 108.32C263.266 108.107 263.466 107.73 263.608 107.189C263.795 106.492 263.888 105.313 263.888 103.65C263.888 101.987 263.804 100.846 263.637 100.228C263.469 99.6024 263.257 99.1867 262.999 98.9804C262.747 98.7677 262.457 98.6614 262.129 98.6614ZM268.577 99.9666C268.577 98.6968 268.854 97.7558 269.409 97.1435C269.969 96.5312 270.727 96.2251 271.681 96.2251C272.667 96.2251 273.437 96.5312 273.991 97.1435C274.552 97.7494 274.832 98.6904 274.832 99.9666C274.832 101.236 274.552 102.177 273.991 102.79C273.437 103.402 272.683 103.708 271.729 103.708C270.743 103.708 269.969 103.405 269.409 102.799C268.854 102.187 268.577 101.243 268.577 99.9666ZM270.695 99.9472C270.695 100.869 270.801 101.488 271.014 101.803C271.175 102.036 271.397 102.152 271.681 102.152C271.971 102.152 272.196 102.036 272.357 101.803C272.564 101.488 272.667 100.869 272.667 99.9472C272.667 99.0256 272.564 98.41 272.357 98.1007C272.196 97.8622 271.971 97.7429 271.681 97.7429C271.397 97.7429 271.175 97.859 271.014 98.091C270.801 98.4068 270.695 99.0256 270.695 99.9472ZM273.75 111.181H271.739L279.289 96.2251H281.242L273.75 111.181ZM278.139 107.459C278.139 106.19 278.416 105.249 278.97 104.636C279.531 104.024 280.295 103.718 281.262 103.718C282.235 103.718 282.999 104.024 283.553 104.636C284.114 105.249 284.394 106.19 284.394 107.459C284.394 108.735 284.114 109.68 283.553 110.292C282.999 110.904 282.245 111.21 281.291 111.21C280.304 111.21 279.531 110.904 278.97 110.292C278.416 109.68 278.139 108.735 278.139 107.459ZM280.256 107.45C280.256 108.371 280.363 108.987 280.575 109.296C280.736 109.535 280.959 109.654 281.242 109.654C281.532 109.654 281.755 109.538 281.909 109.306C282.122 108.99 282.228 108.371 282.228 107.45C282.228 106.528 282.125 105.909 281.919 105.593C281.758 105.361 281.532 105.245 281.242 105.245C280.952 105.245 280.73 105.361 280.575 105.593C280.363 105.909 280.256 106.528 280.256 107.45Z" fill="white"/>
<rect x="290.24" y="113" width="22.44" height="2.64" fill="white"/>
<rect x="290.24" y="109.04" width="22.44" height="2.64" fill="white"/>
<rect x="290.24" y="105.08" width="22.44" height="2.64" fill="white"/>
<rect x="290.24" y="101.12" width="22.44" height="2.64" fill="white"/>
<rect x="290.24" y="97.16" width="22.44" height="2.64" fill="white"/>
<rect x="290.24" y="93.2" width="22.44" height="2.64" fill="white"/>
<rect x="290.24" y="89.24" width="22.44" height="2.64" fill="white"/>
<rect x="290.24" y="85.28" width="22.44" height="2.64" fill="white"/>
<rect x="290.24" y="81.32" width="22.44" height="2.64" fill="white"/>
<rect x="290.24" y="77.36" width="22.44" height="2.64" fill="white"/>
<rect x="290.24" y="73.4" width="22.44" height="2.64" fill="white"/>
<rect x="290.24" y="69.44" width="22.44" height="2.64" fill="white"/>
<rect x="290.24" y="65.48" width="22.44" height="2.64" fill="white"/>
<rect x="290.24" y="61.52" width="22.44" height="2.64" fill="white"/>
<rect x="290.24" y="57.56" width="22.44" height="2.64" fill="white"/>
<rect x="290.24" y="53.6" width="22.44" height="2.64" fill="white"/>
<rect x="218.3" y="120.26" width="93.72" height="15.84" stroke="white" stroke-width="1.32"/>
<rect x="246.02" y="120.92" width="2.64" height="15.84" fill="white"/>
<circle cx="64" cy="82" r="47" fill="#333333"/>
<circle cx="64" cy="82" r="37.5" fill="#455178" stroke="#455178" stroke-dasharray="2 2"/>
<mask id="path-42-inside-1_2003_3417" fill="white">
<path d="M256 696C256 692.686 258.686 690 262 690H268C271.314 690 274 692.686 274 696V1034C274 1037.31 271.314 1040 268 1040H262C258.686 1040 256 1037.31 256 1034V696Z"/>
</mask>
<path d="M256 696C256 692.686 258.686 690 262 690H268C271.314 690 274 692.686 274 696V1034C274 1037.31 271.314 1040 268 1040H262C258.686 1040 256 1037.31 256 1034V696Z" fill="black"/>
<path d="M256 690H274H256ZM274 1040H256H274ZM256 1040V690V1040ZM268 690C272.418 690 276 693.582 276 698V1032C276 1036.42 272.418 1040 268 1040C270.209 1040 272 1037.31 272 1034V696C272 692.686 270.209 690 268 690Z" fill="#596266" mask="url(#path-42-inside-1_2003_3417)"/>
<path d="M302.839 698.004V681.5H306.521V701H303.208L302.839 698.004ZM294.156 694.297V694.03C294.156 692.981 294.274 692.029 294.511 691.174C294.748 690.311 295.095 689.57 295.552 688.952C296.009 688.334 296.572 687.856 297.241 687.518C297.909 687.179 298.671 687.01 299.526 687.01C300.33 687.01 301.032 687.179 301.633 687.518C302.243 687.856 302.759 688.339 303.182 688.965C303.614 689.583 303.961 690.315 304.223 691.161C304.486 691.999 304.676 692.917 304.794 693.916V694.5C304.676 695.456 304.486 696.345 304.223 697.166C303.961 697.987 303.614 698.706 303.182 699.324C302.759 699.934 302.243 700.408 301.633 700.746C301.024 701.085 300.313 701.254 299.5 701.254C298.646 701.254 297.884 701.08 297.215 700.733C296.555 700.386 295.997 699.9 295.54 699.273C295.091 698.647 294.748 697.911 294.511 697.064C294.274 696.218 294.156 695.296 294.156 694.297ZM297.812 694.03V694.297C297.812 694.864 297.854 695.393 297.939 695.884C298.032 696.375 298.18 696.811 298.383 697.191C298.595 697.564 298.866 697.856 299.196 698.067C299.534 698.271 299.945 698.372 300.427 698.372C301.054 698.372 301.57 698.232 301.976 697.953C302.382 697.665 302.691 697.272 302.903 696.772C303.123 696.273 303.25 695.698 303.284 695.046V693.383C303.258 692.85 303.182 692.371 303.055 691.948C302.937 691.517 302.759 691.148 302.522 690.844C302.293 690.539 302.006 690.302 301.659 690.133C301.32 689.964 300.918 689.879 300.453 689.879C299.979 689.879 299.572 689.989 299.234 690.209C298.895 690.421 298.62 690.713 298.409 691.085C298.206 691.457 298.053 691.897 297.952 692.405C297.859 692.905 297.812 693.446 297.812 694.03ZM316.842 692.888H312.094L312.069 690.272H316.055C316.758 690.272 317.333 690.184 317.782 690.006C318.23 689.82 318.565 689.553 318.785 689.206C319.013 688.851 319.127 688.419 319.127 687.911C319.127 687.336 319.017 686.87 318.797 686.515C318.586 686.159 318.251 685.901 317.794 685.74C317.346 685.579 316.766 685.499 316.055 685.499H313.415V701H309.606V682.516H316.055C317.13 682.516 318.091 682.617 318.937 682.82C319.792 683.023 320.515 683.332 321.108 683.747C321.7 684.162 322.153 684.687 322.466 685.321C322.779 685.948 322.936 686.692 322.936 687.556C322.936 688.317 322.763 689.02 322.416 689.663C322.077 690.306 321.54 690.831 320.803 691.237C320.075 691.644 319.123 691.868 317.947 691.91L316.842 692.888ZM316.677 701H311.053L312.539 698.029H316.677C317.346 698.029 317.892 697.924 318.315 697.712C318.738 697.492 319.051 697.196 319.254 696.823C319.458 696.451 319.559 696.023 319.559 695.541C319.559 694.999 319.466 694.53 319.28 694.132C319.102 693.734 318.814 693.429 318.417 693.218C318.019 692.998 317.494 692.888 316.842 692.888H313.173L313.199 690.272H317.769L318.645 691.301C319.771 691.284 320.676 691.483 321.362 691.897C322.056 692.304 322.559 692.833 322.873 693.484C323.194 694.136 323.355 694.834 323.355 695.579C323.355 696.764 323.097 697.763 322.581 698.575C322.064 699.379 321.307 699.984 320.308 700.391C319.318 700.797 318.108 701 316.677 701Z" fill="white"/>
<path d="M306.45 730.478V749H302.883V734.845L299.354 736.203V733.232L306.057 730.478H306.45ZM322.434 738.133V741.345C322.434 742.733 322.302 743.926 322.04 744.925C321.778 745.924 321.41 746.744 320.936 747.388C320.462 748.022 319.899 748.492 319.247 748.797C318.595 749.102 317.876 749.254 317.089 749.254C316.463 749.254 315.874 749.157 315.324 748.962C314.774 748.767 314.275 748.471 313.826 748.073C313.386 747.667 313.005 747.155 312.684 746.537C312.37 745.911 312.129 745.17 311.96 744.315C311.791 743.452 311.706 742.462 311.706 741.345V738.133C311.706 736.745 311.837 735.556 312.1 734.565C312.37 733.567 312.743 732.75 313.217 732.115C313.691 731.48 314.254 731.015 314.905 730.719C315.565 730.414 316.289 730.262 317.076 730.262C317.694 730.262 318.278 730.359 318.828 730.554C319.378 730.74 319.873 731.032 320.313 731.43C320.754 731.827 321.13 732.34 321.443 732.966C321.765 733.584 322.01 734.324 322.18 735.188C322.349 736.042 322.434 737.024 322.434 738.133ZM318.866 741.84V737.612C318.866 736.961 318.837 736.389 318.777 735.898C318.727 735.408 318.65 734.993 318.549 734.654C318.456 734.316 318.333 734.041 318.181 733.829C318.037 733.618 317.872 733.465 317.686 733.372C317.499 733.271 317.296 733.22 317.076 733.22C316.797 733.22 316.547 733.296 316.327 733.448C316.107 733.601 315.917 733.85 315.756 734.197C315.595 734.536 315.472 734.989 315.388 735.556C315.312 736.114 315.273 736.8 315.273 737.612V741.84C315.273 742.492 315.299 743.067 315.35 743.566C315.409 744.066 315.489 744.493 315.591 744.849C315.701 745.196 315.824 745.475 315.959 745.687C316.103 745.898 316.268 746.055 316.454 746.156C316.649 746.249 316.86 746.296 317.089 746.296C317.36 746.296 317.605 746.22 317.825 746.067C318.054 745.907 318.244 745.653 318.396 745.306C318.549 744.959 318.663 744.502 318.739 743.935C318.824 743.359 318.866 742.661 318.866 741.84Z" fill="white"/>
<path d="M308.854 813.621L306.011 812.91L306.938 803.516H315.862V806.562H309.857L309.515 810.536C309.709 810.401 309.997 810.253 310.378 810.092C310.767 809.931 311.199 809.851 311.673 809.851C312.443 809.851 313.12 809.99 313.704 810.27C314.297 810.549 314.796 810.955 315.202 811.488C315.608 812.021 315.917 812.673 316.129 813.443C316.34 814.214 316.446 815.085 316.446 816.059C316.446 816.88 316.336 817.662 316.116 818.407C315.896 819.152 315.558 819.812 315.101 820.388C314.644 820.963 314.076 821.42 313.399 821.759C312.731 822.089 311.939 822.254 311.025 822.254C310.34 822.254 309.68 822.135 309.045 821.898C308.41 821.661 307.839 821.31 307.331 820.845C306.823 820.371 306.417 819.804 306.112 819.144C305.808 818.475 305.655 817.713 305.655 816.858H309.172C309.214 817.358 309.312 817.789 309.464 818.153C309.625 818.517 309.836 818.801 310.099 819.004C310.361 819.199 310.666 819.296 311.013 819.296C311.36 819.296 311.652 819.211 311.889 819.042C312.134 818.864 312.329 818.619 312.473 818.306C312.617 817.993 312.718 817.629 312.777 817.214C312.845 816.791 312.879 816.338 312.879 815.855C312.879 815.365 312.837 814.92 312.752 814.522C312.667 814.125 312.536 813.782 312.358 813.494C312.181 813.206 311.948 812.986 311.66 812.834C311.381 812.682 311.055 812.605 310.683 812.605C310.158 812.605 309.764 812.715 309.502 812.936C309.248 813.147 309.032 813.376 308.854 813.621Z" fill="white"/>
<path d="M308.854 985.621L306.011 984.91L306.938 975.516H315.862V978.562H309.857L309.515 982.536C309.709 982.401 309.997 982.253 310.378 982.092C310.767 981.931 311.199 981.851 311.673 981.851C312.443 981.851 313.12 981.99 313.704 982.27C314.297 982.549 314.796 982.955 315.202 983.488C315.608 984.021 315.917 984.673 316.129 985.443C316.34 986.214 316.446 987.085 316.446 988.059C316.446 988.88 316.336 989.662 316.116 990.407C315.896 991.152 315.558 991.812 315.101 992.388C314.644 992.963 314.076 993.42 313.399 993.759C312.731 994.089 311.939 994.254 311.025 994.254C310.34 994.254 309.68 994.135 309.045 993.898C308.41 993.661 307.839 993.31 307.331 992.845C306.823 992.371 306.417 991.804 306.112 991.144C305.808 990.475 305.655 989.713 305.655 988.858H309.172C309.214 989.358 309.312 989.789 309.464 990.153C309.625 990.517 309.836 990.801 310.099 991.004C310.361 991.199 310.666 991.296 311.013 991.296C311.36 991.296 311.652 991.211 311.889 991.042C312.134 990.864 312.329 990.619 312.473 990.306C312.617 989.993 312.718 989.629 312.777 989.214C312.845 988.791 312.879 988.338 312.879 987.855C312.879 987.365 312.837 986.92 312.752 986.522C312.667 986.125 312.536 985.782 312.358 985.494C312.181 985.206 311.948 984.986 311.66 984.834C311.381 984.682 311.055 984.605 310.683 984.605C310.158 984.605 309.764 984.715 309.502 984.936C309.248 985.147 309.032 985.376 308.854 985.621Z" fill="white"/>
<path d="M312.874 889.516H316.581V902.211C316.581 903.633 316.319 904.792 315.794 905.689C315.278 906.578 314.562 907.23 313.648 907.645C312.734 908.051 311.689 908.254 310.513 908.254C309.328 908.254 308.274 908.051 307.352 907.645C306.429 907.23 305.71 906.578 305.193 905.689C304.686 904.792 304.432 903.633 304.432 902.211V889.516H308.139V902.211C308.139 903.015 308.228 903.633 308.405 904.064C308.591 904.496 308.858 904.792 309.205 904.953C309.561 905.105 309.996 905.182 310.513 905.182C311.037 905.182 311.469 905.105 311.808 904.953C312.155 904.792 312.417 904.496 312.595 904.064C312.781 903.633 312.874 903.015 312.874 902.211V889.516Z" fill="white"/>
<rect x="223" y="736" width="28" height="7" fill="#F7F7F8"/>
<rect x="279" y="736" width="15" height="7" fill="#F7F7F8"/>
<rect x="279" y="809" width="15" height="7" fill="#F7F7F8"/>
<rect x="223" y="752" width="28" height="3" fill="#F7F7F8"/>
<rect x="223" y="767" width="28" height="3" fill="#F7F7F8"/>
<rect x="223" y="782" width="28" height="3" fill="#F7F7F8"/>
<rect x="223" y="797" width="28" height="3" fill="#F7F7F8"/>
<rect x="223" y="809" width="28" height="7" fill="#F7F7F8"/>
<rect x="223" y="825" width="28" height="3" fill="#F7F7F8"/>
<rect x="223" y="840" width="28" height="3" fill="#F7F7F8"/>
<rect x="223" y="855" width="28" height="3" fill="#F7F7F8"/>
<rect x="223" y="870" width="28" height="3" fill="#F7F7F8"/>
<rect x="251" y="988" width="28" height="7" transform="rotate(-180 251 988)" fill="#F7F7F8"/>
<rect x="251" y="905" width="28" height="14" transform="rotate(-180 251 905)" fill="#F7F7F8"/>
<rect x="251" y="972" width="28" height="3" transform="rotate(-180 251 972)" fill="#F7F7F8"/>
<rect x="251" y="1001" width="28" height="3" transform="rotate(-180 251 1001)" fill="#F7F7F8"/>
<rect x="251" y="1016" width="28" height="3" transform="rotate(-180 251 1016)" fill="#F7F7F8"/>
<rect x="251" y="957" width="28" height="3" transform="rotate(-180 251 957)" fill="#F7F7F8"/>
<rect x="251" y="942" width="28" height="3" transform="rotate(-180 251 942)" fill="#F7F7F8"/>
<rect x="251" y="927" width="28" height="3" transform="rotate(-180 251 927)" fill="#F7F7F8"/>
<rect x="230" y="842" width="69" height="154" rx="4" fill="#D9D9D9"/>
<rect x="235" y="897" width="59" height="3" rx="1.5" fill="#333333"/>
<rect x="235" y="907" width="59" height="3" rx="1.5" fill="#333333"/>
<rect x="235" y="917" width="59" height="3" rx="1.5" fill="#333333"/>
<rect x="235" y="927" width="59" height="3" rx="1.5" fill="#333333"/>
<rect x="235" y="937" width="59" height="3" rx="1.5" fill="#333333"/>
<path d="M334.5 89V89.1026L334.54 89.197L337.032 95.0108L317.208 86L337.032 76.9892L334.54 82.803L334.5 82.8974V83V89Z" fill="#D97D41" stroke="#D97D41"/>
<rect x="335" y="83" width="3" height="6" fill="#D97D41"/>
<path d="M338 83H365C366.657 83 368 84.3431 368 86C368 87.6569 366.657 89 365 89H338V83Z" fill="#D97D41"/>
<path d="M334.5 130V130.103L334.54 130.197L337.032 136.011L317.208 127L337.032 117.989L334.54 123.803L334.5 123.897V124V130Z" fill="#D97D41" stroke="#D97D41"/>
<rect x="335" y="124" width="3" height="6" fill="#D97D41"/>
<path d="M338 124H364C365.657 124 367 125.343 367 127C367 128.657 365.657 130 364 130H338V124Z" fill="#D97D41"/>
<path d="M334.5 333V333.103L334.54 333.197L337.032 339.011L317.208 330L337.032 320.989L334.54 326.803L334.5 326.897V327V333Z" fill="#D97D41" stroke="#D97D41"/>
<rect x="335" y="327" width="3" height="6" fill="#D97D41"/>
<path d="M338 327H365C366.657 327 368 328.343 368 330C368 331.657 366.657 333 365 333H338V327Z" fill="#D97D41"/>
<path d="M334.5 449V449.103L334.54 449.197L337.032 455.011L317.208 446L337.032 436.989L334.54 442.803L334.5 442.897V443V449Z" fill="#D97D41" stroke="#D97D41"/>
<rect x="335" y="443" width="3" height="6" fill="#D97D41"/>
<path d="M338 443H365C366.657 443 368 444.343 368 446C368 447.657 366.657 449 365 449H338V443Z" fill="#D97D41"/>
<path d="M334.5 923V923.103L334.54 923.197L337.032 929.011L317.208 920L337.032 910.989L334.54 916.803L334.5 916.897V917V923Z" fill="#D97D41" stroke="#D97D41"/>
<rect x="335" y="917" width="3" height="6" fill="#D97D41"/>
<path d="M338 917H365C366.657 917 368 918.343 368 920C368 921.657 366.657 923 365 923H338V917Z" fill="#D97D41"/>
<path d="M334.5 39V39.1026L334.54 39.197L337.032 45.0108L317.208 36L337.032 26.9892L334.54 32.803L334.5 32.8974V33V39Z" fill="#D97D41" stroke="#D97D41"/>
<rect x="335" y="33" width="3" height="6" fill="#D97D41"/>
<path d="M338 33H365C366.657 33 368 34.3431 368 36C368 37.6569 366.657 39 365 39H338V33Z" fill="#D97D41"/>
<path d="M232 481.5L231.897 481.5L231.803 481.54L225.989 484.032L235 464.208L244.011 484.032L238.197 481.54L238.103 481.5L238 481.5L232 481.5Z" fill="#D97D41" stroke="#D97D41"/>
<rect x="238" y="482" width="3" height="6" transform="rotate(90 238 482)" fill="#D97D41"/>
<path d="M238 485L238 495L232 495L232 485L238 485Z" fill="#D97D41"/>
<path d="M245 495L232 495L232 497.5C232 498.881 233.119 500 234.5 500L245 500L245 495Z" fill="#D97D41"/>
<path d="M245 495H365.5C366.881 495 368 496.119 368 497.5V497.5C368 498.881 366.881 500 365.5 500H245V495Z" fill="#D97D41"/>
<path d="M63 140.5L62.8974 140.5L62.803 140.54L56.9892 143.032L66 123.208L75.0108 143.032L69.197 140.54L69.1026 140.5L69 140.5L63 140.5Z" fill="#D97D41" stroke="#D97D41"/>
<rect x="69" y="141" width="3" height="6" transform="rotate(90 69 141)" fill="#D97D41"/>
<path d="M69 144L69 182L63 182L63 144L69 144Z" fill="#D97D41"/>
<path d="M76 182L63 182L63 184.5C63 185.881 64.1193 187 65.5 187L76 187L76 182Z" fill="#D97D41"/>
<path d="M76 182H364.5C365.881 182 367 183.119 367 184.5V184.5C367 185.881 365.881 187 364.5 187H76V182Z" fill="#D97D41"/>
<path d="M388.762 22.3535V48H383.699V28.1895L377.617 30.123V26.1328L388.217 22.3535H388.762Z" fill="#333333"/>
<path d="M393.93 94.0449V98H376.422V94.625L384.701 85.748C385.533 84.8223 386.189 84.0078 386.67 83.3047C387.15 82.5898 387.496 81.9512 387.707 81.3887C387.93 80.8145 388.041 80.2695 388.041 79.7539C388.041 78.9805 387.912 78.3184 387.654 77.7676C387.396 77.2051 387.016 76.7715 386.512 76.4668C386.02 76.1621 385.41 76.0098 384.684 76.0098C383.91 76.0098 383.242 76.1973 382.68 76.5723C382.129 76.9473 381.707 77.4688 381.414 78.1367C381.133 78.8047 380.992 79.5605 380.992 80.4043H375.912C375.912 78.8809 376.275 77.4863 377.002 76.2207C377.729 74.9434 378.754 73.9297 380.078 73.1797C381.402 72.418 382.973 72.0371 384.789 72.0371C386.582 72.0371 388.094 72.3301 389.324 72.916C390.566 73.4902 391.504 74.3223 392.137 75.4121C392.781 76.4902 393.104 77.7793 393.104 79.2793C393.104 80.123 392.969 80.9492 392.699 81.7578C392.43 82.5547 392.043 83.3516 391.539 84.1484C391.047 84.9336 390.449 85.7305 389.746 86.5391C389.043 87.3477 388.264 88.1855 387.408 89.0527L382.961 94.0449H393.93Z" fill="#333333"/>
<path d="M381.607 124.006H384.314C385.182 124.006 385.896 123.859 386.459 123.566C387.021 123.262 387.438 122.84 387.707 122.301C387.988 121.75 388.129 121.111 388.129 120.385C388.129 119.729 388 119.148 387.742 118.645C387.496 118.129 387.115 117.73 386.6 117.449C386.084 117.156 385.434 117.01 384.648 117.01C384.027 117.01 383.453 117.133 382.926 117.379C382.398 117.625 381.977 117.971 381.66 118.416C381.344 118.861 381.186 119.4 381.186 120.033H376.105C376.105 118.627 376.48 117.402 377.23 116.359C377.992 115.316 379.012 114.502 380.289 113.916C381.566 113.33 382.973 113.037 384.508 113.037C386.242 113.037 387.76 113.318 389.061 113.881C390.361 114.432 391.375 115.246 392.102 116.324C392.828 117.402 393.191 118.738 393.191 120.332C393.191 121.141 393.004 121.926 392.629 122.688C392.254 123.438 391.715 124.117 391.012 124.727C390.32 125.324 389.477 125.805 388.48 126.168C387.484 126.52 386.365 126.695 385.123 126.695H381.607V124.006ZM381.607 127.855V125.236H385.123C386.518 125.236 387.742 125.395 388.797 125.711C389.852 126.027 390.736 126.484 391.451 127.082C392.166 127.668 392.705 128.365 393.068 129.174C393.432 129.971 393.613 130.855 393.613 131.828C393.613 133.023 393.385 134.09 392.928 135.027C392.471 135.953 391.826 136.738 390.994 137.383C390.174 138.027 389.213 138.52 388.111 138.859C387.01 139.188 385.809 139.352 384.508 139.352C383.43 139.352 382.369 139.205 381.326 138.912C380.295 138.607 379.357 138.156 378.514 137.559C377.682 136.949 377.014 136.188 376.51 135.273C376.018 134.348 375.771 133.252 375.771 131.986H380.852C380.852 132.643 381.016 133.229 381.344 133.744C381.672 134.26 382.123 134.664 382.697 134.957C383.283 135.25 383.934 135.396 384.648 135.396C385.457 135.396 386.148 135.25 386.723 134.957C387.309 134.652 387.754 134.23 388.059 133.691C388.375 133.141 388.533 132.502 388.533 131.775C388.533 130.838 388.363 130.088 388.023 129.525C387.684 128.951 387.197 128.529 386.564 128.26C385.932 127.99 385.182 127.855 384.314 127.855H381.607Z" fill="#333333"/>
<path d="M394.352 187.438V191.41H375.912L375.666 188.334L386.336 171.406H390.361L386.002 178.701L380.693 187.438H394.352ZM391.451 171.406V197H386.389V171.406H391.451Z" fill="#333333"/>
<path d="M382.186 330.346L378.143 329.379L379.602 316.406H393.98V320.502H383.768L383.135 326.18C383.475 325.98 383.99 325.77 384.682 325.547C385.373 325.312 386.146 325.195 387.002 325.195C388.244 325.195 389.346 325.389 390.307 325.775C391.268 326.162 392.082 326.725 392.75 327.463C393.43 328.201 393.945 329.104 394.297 330.17C394.648 331.236 394.824 332.443 394.824 333.791C394.824 334.928 394.648 336.012 394.297 337.043C393.945 338.062 393.412 338.977 392.697 339.785C391.982 340.582 391.086 341.209 390.008 341.666C388.93 342.123 387.652 342.352 386.176 342.352C385.074 342.352 384.008 342.188 382.977 341.859C381.957 341.531 381.037 341.045 380.217 340.4C379.408 339.756 378.758 338.977 378.266 338.062C377.785 337.137 377.533 336.082 377.51 334.898H382.537C382.607 335.625 382.795 336.252 383.1 336.779C383.416 337.295 383.832 337.693 384.348 337.975C384.863 338.256 385.467 338.396 386.158 338.396C386.803 338.396 387.354 338.273 387.811 338.027C388.268 337.781 388.637 337.441 388.918 337.008C389.199 336.562 389.404 336.047 389.533 335.461C389.674 334.863 389.744 334.219 389.744 333.527C389.744 332.836 389.662 332.209 389.498 331.646C389.334 331.084 389.082 330.598 388.742 330.188C388.402 329.777 387.969 329.461 387.441 329.238C386.926 329.016 386.322 328.904 385.631 328.904C384.693 328.904 383.967 329.051 383.451 329.344C382.947 329.637 382.525 329.971 382.186 330.346Z" fill="#333333"/>
<path d="M390.482 432.143H391.221V436.186H390.922C389.586 436.186 388.396 436.385 387.354 436.783C386.311 437.182 385.426 437.75 384.699 438.488C383.984 439.215 383.434 440.094 383.047 441.125C382.672 442.156 382.484 443.311 382.484 444.588V448.842C382.484 449.756 382.572 450.564 382.748 451.268C382.936 451.959 383.199 452.539 383.539 453.008C383.891 453.465 384.301 453.811 384.77 454.045C385.238 454.268 385.766 454.379 386.352 454.379C386.902 454.379 387.4 454.262 387.846 454.027C388.303 453.793 388.689 453.465 389.006 453.043C389.334 452.609 389.58 452.105 389.744 451.531C389.92 450.945 390.008 450.307 390.008 449.615C390.008 448.924 389.92 448.285 389.744 447.699C389.58 447.113 389.334 446.609 389.006 446.188C388.678 445.754 388.279 445.42 387.811 445.186C387.342 444.951 386.814 444.834 386.229 444.834C385.432 444.834 384.729 445.021 384.119 445.396C383.521 445.76 383.053 446.229 382.713 446.803C382.373 447.377 382.191 447.98 382.168 448.613L380.639 447.629C380.674 446.727 380.861 445.871 381.201 445.062C381.553 444.254 382.033 443.539 382.643 442.918C383.264 442.285 384.008 441.793 384.875 441.441C385.742 441.078 386.721 440.896 387.811 440.896C389.006 440.896 390.055 441.125 390.957 441.582C391.871 442.039 392.633 442.666 393.242 443.463C393.852 444.26 394.309 445.18 394.613 446.223C394.918 447.266 395.07 448.379 395.07 449.562C395.07 450.805 394.865 451.959 394.455 453.025C394.057 454.092 393.477 455.023 392.715 455.82C391.965 456.617 391.062 457.238 390.008 457.684C388.953 458.129 387.77 458.352 386.457 458.352C385.098 458.352 383.861 458.105 382.748 457.613C381.646 457.109 380.697 456.406 379.9 455.504C379.104 454.602 378.488 453.529 378.055 452.287C377.633 451.045 377.422 449.686 377.422 448.209V446.24C377.422 444.178 377.721 442.291 378.318 440.58C378.928 438.857 379.801 437.369 380.938 436.115C382.074 434.85 383.445 433.871 385.051 433.18C386.656 432.488 388.467 432.143 390.482 432.143Z" fill="#333333"/>
<path d="M394.807 483.406V486.131L384.91 509H379.566L389.463 487.361H376.719V483.406H394.807Z" fill="#333333"/>
<path d="M394.666 923.986C394.666 925.592 394.291 926.945 393.541 928.047C392.791 929.137 391.76 929.963 390.447 930.525C389.146 931.076 387.67 931.352 386.018 931.352C384.365 931.352 382.883 931.076 381.57 930.525C380.258 929.963 379.221 929.137 378.459 928.047C377.697 926.945 377.316 925.592 377.316 923.986C377.316 922.908 377.533 921.936 377.967 921.068C378.4 920.189 379.004 919.439 379.777 918.818C380.562 918.186 381.482 917.705 382.537 917.377C383.592 917.037 384.74 916.867 385.982 916.867C387.646 916.867 389.135 917.16 390.447 917.746C391.76 918.332 392.791 919.158 393.541 920.225C394.291 921.291 394.666 922.545 394.666 923.986ZM389.568 923.652C389.568 922.867 389.416 922.193 389.111 921.631C388.818 921.057 388.402 920.617 387.863 920.312C387.324 920.008 386.697 919.855 385.982 919.855C385.268 919.855 384.641 920.008 384.102 920.312C383.562 920.617 383.141 921.057 382.836 921.631C382.543 922.193 382.396 922.867 382.396 923.652C382.396 924.426 382.543 925.094 382.836 925.656C383.141 926.219 383.562 926.652 384.102 926.957C384.652 927.25 385.291 927.396 386.018 927.396C386.744 927.396 387.371 927.25 387.898 926.957C388.438 926.652 388.848 926.219 389.129 925.656C389.422 925.094 389.568 924.426 389.568 923.652ZM394.121 912.191C394.121 913.492 393.775 914.646 393.084 915.654C392.393 916.65 391.432 917.43 390.201 917.992C388.982 918.555 387.588 918.836 386.018 918.836C384.436 918.836 383.029 918.555 381.799 917.992C380.568 917.43 379.607 916.65 378.916 915.654C378.225 914.646 377.879 913.492 377.879 912.191C377.879 910.645 378.225 909.344 378.916 908.289C379.619 907.223 380.58 906.414 381.799 905.863C383.029 905.312 384.424 905.037 385.982 905.037C387.564 905.037 388.965 905.312 390.184 905.863C391.414 906.414 392.375 907.223 393.066 908.289C393.77 909.344 394.121 910.645 394.121 912.191ZM389.059 912.42C389.059 911.729 388.936 911.131 388.689 910.627C388.443 910.111 388.092 909.713 387.635 909.432C387.189 909.15 386.639 909.01 385.982 909.01C385.35 909.01 384.805 909.145 384.348 909.414C383.902 909.684 383.557 910.076 383.311 910.592C383.076 911.096 382.959 911.705 382.959 912.42C382.959 913.111 383.076 913.721 383.311 914.248C383.557 914.764 383.908 915.168 384.365 915.461C384.822 915.754 385.373 915.9 386.018 915.9C386.662 915.9 387.207 915.754 387.652 915.461C388.109 915.168 388.455 914.764 388.689 914.248C388.936 913.721 389.059 913.111 389.059 912.42Z" fill="#333333"/>
</g>
<defs>
<filter id="filter0_i_2003_3417" x="223" y="298" width="85" height="56" filterUnits="userSpaceOnUse" color-interpolation-filters="sRGB">
<feFlood flood-opacity="0" result="BackgroundImageFix"/>
<feBlend mode="normal" in="SourceGraphic" in2="BackgroundImageFix" result="shape"/>
<feColorMatrix in="SourceAlpha" type="matrix" values="0 0 0 0 0 0 0 0 0 0 0 0 0 0 0 0 0 0 127 0" result="hardAlpha"/>
<feMorphology radius="2" operator="erode" in="SourceAlpha" result="effect1_innerShadow_2003_3417"/>
<feOffset/>
<feComposite in2="hardAlpha" operator="arithmetic" k2="-1" k3="1"/>
<feColorMatrix type="matrix" values="0 0 0 0 0.235294 0 0 0 0 0.235294 0 0 0 0 0.235294 0 0 0 1 0"/>
<feBlend mode="normal" in2="shape" result="effect1_innerShadow_2003_3417"/>
</filter>
<filter id="filter1_i_2003_3417" x="20" y="298" width="85" height="56" filterUnits="userSpaceOnUse" color-interpolation-filters="sRGB">
<feFlood flood-opacity="0" result="BackgroundImageFix"/>
<feBlend mode="normal" in="SourceGraphic" in2="BackgroundImageFix" result="shape"/>
<feColorMatrix in="SourceAlpha" type="matrix" values="0 0 0 0 0 0 0 0 0 0 0 0 0 0 0 0 0 0 127 0" result="hardAlpha"/>
<feMorphology radius="2" operator="erode" in="SourceAlpha" result="effect1_innerShadow_2003_3417"/>
<feOffset/>
<feComposite in2="hardAlpha" operator="arithmetic" k2="-1" k3="1"/>
<feColorMatrix type="matrix" values="0 0 0 0 0.235294 0 0 0 0 0.235294 0 0 0 0 0.235294 0 0 0 1 0"/>
<feBlend mode="normal" in2="shape" result="effect1_innerShadow_2003_3417"/>
</filter>
<filter id="filter2_i_2003_3417" x="213" y="424" width="40" height="40" filterUnits="userSpaceOnUse" color-interpolation-filters="sRGB">
<feFlood flood-opacity="0" result="BackgroundImageFix"/>
<feBlend mode="normal" in="SourceGraphic" in2="BackgroundImageFix" result="shape"/>
<feColorMatrix in="SourceAlpha" type="matrix" values="0 0 0 0 0 0 0 0 0 0 0 0 0 0 0 0 0 0 127 0" result="hardAlpha"/>
<feMorphology radius="2" operator="erode" in="SourceAlpha" result="effect1_innerShadow_2003_3417"/>
<feOffset/>
<feComposite in2="hardAlpha" operator="arithmetic" k2="-1" k3="1"/>
<feColorMatrix type="matrix" values="0 0 0 0 0.235294 0 0 0 0 0.235294 0 0 0 0 0.235294 0 0 0 1 0"/>
<feBlend mode="normal" in2="shape" result="effect1_innerShadow_2003_3417"/>
</filter>
<filter id="filter3_i_2003_3417" x="277" y="424" width="40" height="40" filterUnits="userSpaceOnUse" color-interpolation-filters="sRGB">
<feFlood flood-opacity="0" result="BackgroundImageFix"/>
<feBlend mode="normal" in="SourceGraphic" in2="BackgroundImageFix" result="shape"/>
<feColorMatrix in="SourceAlpha" type="matrix" values="0 0 0 0 0 0 0 0 0 0 0 0 0 0 0 0 0 0 127 0" result="hardAlpha"/>
<feMorphology radius="2" operator="erode" in="SourceAlpha" result="effect1_innerShadow_2003_3417"/>
<feOffset/>
<feComposite in2="hardAlpha" operator="arithmetic" k2="-1" k3="1"/>
<feColorMatrix type="matrix" values="0 0 0 0 0.235294 0 0 0 0 0.235294 0 0 0 0 0.235294 0 0 0 1 0"/>
<feBlend mode="normal" in2="shape" result="effect1_innerShadow_2003_3417"/>
</filter>
<clipPath id="clip0_2003_3417">
<rect width="429" height="1026" fill="white"/>
</clipPath>
</defs>
</svg>
