<svg width="566" height="481" viewBox="0 0 566 481" fill="none" xmlns="http://www.w3.org/2000/svg">
<rect x="9" width="557" height="422" fill="#333333"/>
<rect x="34" y="9" width="524" height="404" rx="8" fill="#596266"/>
<path d="M37 18C37 14.6863 39.6863 12 43 12H549C552.314 12 555 14.6863 555 18V164H37V18Z" fill="#333333"/>
<g clip-path="url(#clip0_2616_3599)">
<circle cx="293.5" cy="87.5" r="108.5" fill="#333333"/>
</g>
<g filter="url(#filter0_d_2616_3599)">
<path d="M410 73C410 68.0294 414.029 64 419 64H467.272C469.659 64 471.948 64.9482 473.636 66.636L493.253 86.2528C496.722 89.7216 496.774 95.3294 493.37 98.8618L475.655 117.245C473.958 119.005 471.619 120 469.174 120H419C414.029 120 410 115.971 410 111V73Z" fill="#6DA9CD"/>
<path d="M419 64.5H467.272C469.527 64.5001 471.688 65.3955 473.282 66.9893L492.899 86.6064C496.175 89.8825 496.224 95.1785 493.01 98.5146L475.295 116.898C473.693 118.561 471.483 119.5 469.174 119.5H419C414.306 119.5 410.5 115.694 410.5 111V73L410.511 72.5625C410.731 68.2163 414.216 64.7311 418.562 64.5107L419 64.5Z" stroke="#6DA9CD"/>
</g>
<g filter="url(#filter1_d_2616_3599)">
<path d="M411 74C411 69.0294 415.029 65 420 65H466.589C468.964 65 471.242 65.9383 472.928 67.6105L491.677 86.2099C495.18 89.6845 495.232 95.3315 491.794 98.8704L474.891 116.271C473.196 118.016 470.868 119 468.436 119H420C415.029 119 411 114.971 411 110V74Z" fill="#6DA9CD"/>
<path d="M420 65.5H466.589C468.691 65.5 470.714 66.279 472.271 67.6777L472.575 67.9658L491.325 86.5645C494.633 89.8461 494.682 95.1802 491.436 98.5225L474.532 115.923C472.932 117.57 470.732 118.5 468.436 118.5H420C415.306 118.5 411.5 114.694 411.5 110V74C411.5 69.3056 415.306 65.5 420 65.5Z" stroke="#333333"/>
</g>
<g filter="url(#filter2_d_2616_3599)">
<path d="M178 111C178 115.971 173.971 120 169 120L120.728 120C118.341 120 116.052 119.052 114.364 117.364L94.7472 97.7472C91.2784 94.2784 91.2265 88.6706 94.6305 85.1382L112.345 66.755C114.042 64.9945 116.381 64 118.826 64L169 64C173.971 64 178 68.0294 178 73L178 111Z" fill="#6DA9CD"/>
<path d="M169 119.5L120.728 119.5C118.473 119.5 116.312 118.605 114.718 117.011L95.1006 97.3935C91.8247 94.1175 91.7757 88.8215 94.9902 85.4853L112.705 67.1016C114.307 65.439 116.517 64.5 118.826 64.5L169 64.5C173.694 64.5 177.5 68.3056 177.5 73L177.5 111L177.489 111.437C177.269 115.784 173.784 119.269 169.438 119.489L169 119.5Z" stroke="#6DA9CD"/>
</g>
<g filter="url(#filter3_d_2616_3599)">
<path d="M177 110C177 114.971 172.971 119 168 119L121.411 119C119.036 119 116.758 118.062 115.072 116.389L96.3229 97.7901C92.8202 94.3155 92.7679 88.6685 96.2056 85.1296L113.109 67.729C114.804 65.9844 117.132 65 119.564 65L168 65C172.971 65 177 69.0294 177 74L177 110Z" fill="#6DA9CD"/>
<path d="M168 118.5L121.411 118.5C119.309 118.5 117.286 117.721 115.729 116.322L115.425 116.034L96.6748 97.4355C93.3667 94.1539 93.3177 88.8198 96.5645 85.4775L113.468 68.0771C115.068 66.4297 117.268 65.5 119.564 65.5L168 65.5C172.694 65.5 176.5 69.3056 176.5 74L176.5 110C176.5 114.694 172.694 118.5 168 118.5Z" stroke="#333333"/>
</g>
<g filter="url(#filter4_i_2616_3599)">
<rect x="456" y="215" width="85" height="56" rx="9" fill="#6DA9CD"/>
</g>
<rect x="456.5" y="215.5" width="84" height="55" rx="8.5" stroke="#6DA9CD"/>
<path d="M482.01 246.535C482.01 246.23 481.963 245.957 481.87 245.715C481.784 245.465 481.62 245.238 481.377 245.035C481.135 244.824 480.795 244.617 480.358 244.414C479.92 244.211 479.354 244 478.659 243.781C477.885 243.531 477.151 243.25 476.455 242.938C475.768 242.625 475.159 242.262 474.627 241.848C474.104 241.426 473.69 240.938 473.385 240.383C473.088 239.828 472.94 239.184 472.94 238.449C472.94 237.738 473.096 237.094 473.409 236.516C473.721 235.93 474.159 235.43 474.721 235.016C475.284 234.594 475.948 234.27 476.713 234.043C477.487 233.816 478.334 233.703 479.256 233.703C480.514 233.703 481.612 233.93 482.549 234.383C483.487 234.836 484.213 235.457 484.729 236.246C485.252 237.035 485.514 237.938 485.514 238.953H482.022C482.022 238.453 481.916 238.016 481.705 237.641C481.502 237.258 481.19 236.957 480.768 236.738C480.354 236.52 479.83 236.41 479.198 236.41C478.588 236.41 478.08 236.504 477.674 236.691C477.268 236.871 476.963 237.117 476.76 237.43C476.557 237.734 476.455 238.078 476.455 238.461C476.455 238.75 476.526 239.012 476.666 239.246C476.815 239.48 477.034 239.699 477.323 239.902C477.612 240.105 477.967 240.297 478.389 240.477C478.811 240.656 479.299 240.832 479.854 241.004C480.784 241.285 481.6 241.602 482.303 241.953C483.014 242.305 483.608 242.699 484.084 243.137C484.561 243.574 484.92 244.07 485.163 244.625C485.405 245.18 485.526 245.809 485.526 246.512C485.526 247.254 485.381 247.918 485.092 248.504C484.803 249.09 484.385 249.586 483.838 249.992C483.291 250.398 482.639 250.707 481.881 250.918C481.123 251.129 480.276 251.234 479.338 251.234C478.495 251.234 477.663 251.125 476.842 250.906C476.022 250.68 475.276 250.34 474.604 249.887C473.94 249.434 473.409 248.855 473.01 248.152C472.612 247.449 472.413 246.617 472.413 245.656H475.94C475.94 246.188 476.022 246.637 476.186 247.004C476.35 247.371 476.58 247.668 476.877 247.895C477.182 248.121 477.541 248.285 477.955 248.387C478.377 248.488 478.838 248.539 479.338 248.539C479.948 248.539 480.448 248.453 480.838 248.281C481.237 248.109 481.53 247.871 481.717 247.566C481.913 247.262 482.01 246.918 482.01 246.535ZM491.504 248.598C491.918 248.598 492.285 248.52 492.605 248.363C492.926 248.199 493.176 247.973 493.355 247.684C493.543 247.387 493.64 247.039 493.648 246.641H496.824C496.816 247.531 496.578 248.324 496.109 249.02C495.64 249.707 495.012 250.25 494.222 250.648C493.433 251.039 492.551 251.234 491.574 251.234C490.59 251.234 489.73 251.07 488.996 250.742C488.269 250.414 487.664 249.961 487.18 249.383C486.695 248.797 486.332 248.117 486.09 247.344C485.847 246.562 485.726 245.727 485.726 244.836V244.496C485.726 243.598 485.847 242.762 486.09 241.988C486.332 241.207 486.695 240.527 487.18 239.949C487.664 239.363 488.269 238.906 488.996 238.578C489.722 238.25 490.574 238.086 491.551 238.086C492.59 238.086 493.5 238.285 494.281 238.684C495.07 239.082 495.687 239.652 496.133 240.395C496.586 241.129 496.816 242 496.824 243.008H493.648C493.64 242.586 493.551 242.203 493.379 241.859C493.215 241.516 492.972 241.242 492.652 241.039C492.34 240.828 491.953 240.723 491.492 240.723C491 240.723 490.597 240.828 490.285 241.039C489.972 241.242 489.73 241.523 489.558 241.883C489.387 242.234 489.265 242.637 489.195 243.09C489.133 243.535 489.101 244.004 489.101 244.496V244.836C489.101 245.328 489.133 245.801 489.195 246.254C489.258 246.707 489.375 247.109 489.547 247.461C489.726 247.812 489.972 248.09 490.285 248.293C490.597 248.496 491.004 248.598 491.504 248.598ZM500.716 241.086V251H497.341V238.32H500.517L500.716 241.086ZM504.536 238.238L504.478 241.367C504.314 241.344 504.115 241.324 503.88 241.309C503.654 241.285 503.447 241.273 503.259 241.273C502.783 241.273 502.368 241.336 502.017 241.461C501.673 241.578 501.384 241.754 501.15 241.988C500.923 242.223 500.751 242.508 500.634 242.844C500.525 243.18 500.462 243.562 500.447 243.992L499.767 243.781C499.767 242.961 499.849 242.207 500.013 241.52C500.177 240.824 500.415 240.219 500.728 239.703C501.048 239.188 501.439 238.789 501.9 238.508C502.361 238.227 502.888 238.086 503.482 238.086C503.669 238.086 503.861 238.102 504.056 238.133C504.251 238.156 504.411 238.191 504.536 238.238ZM503.8 244.789V244.543C503.8 243.613 503.932 242.758 504.198 241.977C504.464 241.188 504.85 240.504 505.358 239.926C505.866 239.348 506.491 238.898 507.233 238.578C507.975 238.25 508.827 238.086 509.788 238.086C510.749 238.086 511.604 238.25 512.354 238.578C513.104 238.898 513.733 239.348 514.241 239.926C514.757 240.504 515.147 241.188 515.413 241.977C515.678 242.758 515.811 243.613 515.811 244.543V244.789C515.811 245.711 515.678 246.566 515.413 247.355C515.147 248.137 514.757 248.82 514.241 249.406C513.733 249.984 513.108 250.434 512.366 250.754C511.624 251.074 510.772 251.234 509.811 251.234C508.85 251.234 507.995 251.074 507.245 250.754C506.503 250.434 505.874 249.984 505.358 249.406C504.85 248.82 504.464 248.137 504.198 247.355C503.932 246.566 503.8 245.711 503.8 244.789ZM507.175 244.543V244.789C507.175 245.32 507.221 245.816 507.315 246.277C507.409 246.738 507.557 247.145 507.76 247.496C507.971 247.84 508.245 248.109 508.581 248.305C508.917 248.5 509.327 248.598 509.811 248.598C510.28 248.598 510.682 248.5 511.018 248.305C511.354 248.109 511.624 247.84 511.827 247.496C512.03 247.145 512.178 246.738 512.272 246.277C512.374 245.816 512.425 245.32 512.425 244.789V244.543C512.425 244.027 512.374 243.543 512.272 243.09C512.178 242.629 512.026 242.223 511.815 241.871C511.612 241.512 511.342 241.23 511.007 241.027C510.671 240.824 510.264 240.723 509.788 240.723C509.311 240.723 508.905 240.824 508.569 241.027C508.241 241.23 507.971 241.512 507.76 241.871C507.557 242.223 507.409 242.629 507.315 243.09C507.221 243.543 507.175 244.027 507.175 244.543ZM520.008 233V251H516.621V233H520.008ZM524.92 233V251H521.533V233H524.92Z" fill="#333333"/>
<g filter="url(#filter5_i_2616_3599)">
<rect x="320" y="215" width="85" height="56" rx="9" fill="#6DA9CD"/>
</g>
<rect x="320.5" y="215.5" width="84" height="55" rx="8.5" stroke="#6DA9CD"/>
<path d="M334.625 245.34H338.129C338.058 246.488 337.742 247.508 337.179 248.398C336.625 249.289 335.847 249.984 334.847 250.484C333.855 250.984 332.66 251.234 331.261 251.234C330.168 251.234 329.187 251.047 328.32 250.672C327.453 250.289 326.711 249.742 326.093 249.031C325.484 248.32 325.019 247.461 324.699 246.453C324.379 245.445 324.218 244.316 324.218 243.066V241.883C324.218 240.633 324.382 239.504 324.711 238.496C325.047 237.48 325.523 236.617 326.14 235.906C326.765 235.195 327.511 234.648 328.379 234.266C329.246 233.883 330.215 233.691 331.285 233.691C332.707 233.691 333.906 233.949 334.882 234.465C335.867 234.98 336.629 235.691 337.168 236.598C337.715 237.504 338.043 238.535 338.152 239.691H334.636C334.597 239.004 334.461 238.422 334.226 237.945C333.992 237.461 333.636 237.098 333.16 236.855C332.691 236.605 332.066 236.48 331.285 236.48C330.699 236.48 330.187 236.59 329.75 236.809C329.312 237.027 328.945 237.359 328.648 237.805C328.351 238.25 328.129 238.812 327.98 239.492C327.84 240.164 327.769 240.953 327.769 241.859V243.066C327.769 243.949 327.836 244.727 327.968 245.398C328.101 246.062 328.304 246.625 328.578 247.086C328.859 247.539 329.218 247.883 329.656 248.117C330.101 248.344 330.636 248.457 331.261 248.457C331.996 248.457 332.601 248.34 333.078 248.105C333.554 247.871 333.918 247.523 334.168 247.062C334.425 246.602 334.578 246.027 334.625 245.34ZM342.079 233V251H338.704V233H342.079ZM341.599 244.215H340.673C340.681 243.332 340.798 242.52 341.025 241.777C341.251 241.027 341.575 240.379 341.997 239.832C342.419 239.277 342.923 238.848 343.509 238.543C344.103 238.238 344.759 238.086 345.478 238.086C346.103 238.086 346.669 238.176 347.177 238.355C347.692 238.527 348.134 238.809 348.501 239.199C348.876 239.582 349.165 240.086 349.368 240.711C349.571 241.336 349.673 242.094 349.673 242.984V251H346.275V242.961C346.275 242.398 346.192 241.957 346.028 241.637C345.872 241.309 345.642 241.078 345.337 240.945C345.04 240.805 344.673 240.734 344.235 240.734C343.751 240.734 343.337 240.824 342.993 241.004C342.657 241.184 342.388 241.434 342.185 241.754C341.982 242.066 341.833 242.434 341.739 242.855C341.646 243.277 341.599 243.73 341.599 244.215ZM357.643 248.141V242.492C357.643 242.086 357.577 241.738 357.444 241.449C357.311 241.152 357.104 240.922 356.823 240.758C356.549 240.594 356.194 240.512 355.756 240.512C355.381 240.512 355.057 240.578 354.784 240.711C354.51 240.836 354.299 241.02 354.151 241.262C354.002 241.496 353.928 241.773 353.928 242.094H350.553C350.553 241.555 350.678 241.043 350.928 240.559C351.178 240.074 351.542 239.648 352.018 239.281C352.495 238.906 353.061 238.613 353.717 238.402C354.381 238.191 355.124 238.086 355.944 238.086C356.928 238.086 357.803 238.25 358.569 238.578C359.335 238.906 359.936 239.398 360.374 240.055C360.819 240.711 361.042 241.531 361.042 242.516V247.941C361.042 248.637 361.085 249.207 361.17 249.652C361.256 250.09 361.381 250.473 361.545 250.801V251H358.135C357.971 250.656 357.846 250.227 357.76 249.711C357.682 249.188 357.643 248.664 357.643 248.141ZM358.088 243.277L358.112 245.188H356.225C355.78 245.188 355.393 245.238 355.065 245.34C354.737 245.441 354.467 245.586 354.256 245.773C354.045 245.953 353.889 246.164 353.788 246.406C353.694 246.648 353.647 246.914 353.647 247.203C353.647 247.492 353.713 247.754 353.846 247.988C353.979 248.215 354.17 248.395 354.42 248.527C354.67 248.652 354.963 248.715 355.299 248.715C355.807 248.715 356.249 248.613 356.624 248.41C356.999 248.207 357.288 247.957 357.491 247.66C357.702 247.363 357.811 247.082 357.819 246.816L358.71 248.246C358.585 248.566 358.413 248.898 358.194 249.242C357.983 249.586 357.713 249.91 357.385 250.215C357.057 250.512 356.663 250.758 356.202 250.953C355.741 251.141 355.194 251.234 354.561 251.234C353.756 251.234 353.026 251.074 352.37 250.754C351.721 250.426 351.206 249.977 350.823 249.406C350.448 248.828 350.26 248.172 350.26 247.438C350.26 246.773 350.385 246.184 350.635 245.668C350.885 245.152 351.252 244.719 351.737 244.367C352.229 244.008 352.842 243.738 353.577 243.559C354.311 243.371 355.163 243.277 356.131 243.277H358.088ZM365.508 241.027V251H362.133V238.32H365.297L365.508 241.027ZM365.016 244.215H364.102C364.102 243.277 364.223 242.434 364.465 241.684C364.707 240.926 365.047 240.281 365.484 239.75C365.922 239.211 366.441 238.801 367.043 238.52C367.652 238.23 368.332 238.086 369.082 238.086C369.676 238.086 370.219 238.172 370.711 238.344C371.203 238.516 371.625 238.789 371.977 239.164C372.336 239.539 372.609 240.035 372.797 240.652C372.992 241.27 373.09 242.023 373.09 242.914V251H369.691V242.902C369.691 242.34 369.613 241.902 369.457 241.59C369.301 241.277 369.07 241.059 368.766 240.934C368.469 240.801 368.102 240.734 367.664 240.734C367.211 240.734 366.816 240.824 366.48 241.004C366.152 241.184 365.879 241.434 365.66 241.754C365.449 242.066 365.289 242.434 365.18 242.855C365.07 243.277 365.016 243.73 365.016 244.215ZM377.521 241.027V251H374.146V238.32H377.31L377.521 241.027ZM377.029 244.215H376.115C376.115 243.277 376.236 242.434 376.478 241.684C376.72 240.926 377.06 240.281 377.497 239.75C377.935 239.211 378.455 238.801 379.056 238.52C379.665 238.23 380.345 238.086 381.095 238.086C381.689 238.086 382.232 238.172 382.724 238.344C383.216 238.516 383.638 238.789 383.99 239.164C384.349 239.539 384.622 240.035 384.81 240.652C385.005 241.27 385.103 242.023 385.103 242.914V251H381.705V242.902C381.705 242.34 381.626 241.902 381.47 241.59C381.314 241.277 381.083 241.059 380.779 240.934C380.482 240.801 380.115 240.734 379.677 240.734C379.224 240.734 378.83 240.824 378.494 241.004C378.165 241.184 377.892 241.434 377.673 241.754C377.462 242.066 377.302 242.434 377.193 242.855C377.083 243.277 377.029 243.73 377.029 244.215ZM392.065 251.234C391.081 251.234 390.198 251.078 389.417 250.766C388.636 250.445 387.972 250.004 387.425 249.441C386.886 248.879 386.472 248.227 386.182 247.484C385.893 246.734 385.749 245.938 385.749 245.094V244.625C385.749 243.664 385.886 242.785 386.159 241.988C386.432 241.191 386.823 240.5 387.331 239.914C387.847 239.328 388.472 238.879 389.206 238.566C389.94 238.246 390.768 238.086 391.69 238.086C392.589 238.086 393.386 238.234 394.081 238.531C394.776 238.828 395.358 239.25 395.827 239.797C396.304 240.344 396.663 241 396.905 241.766C397.147 242.523 397.268 243.367 397.268 244.297V245.703H387.19V243.453H393.952V243.195C393.952 242.727 393.866 242.309 393.694 241.941C393.53 241.566 393.28 241.27 392.944 241.051C392.608 240.832 392.179 240.723 391.655 240.723C391.21 240.723 390.827 240.82 390.507 241.016C390.186 241.211 389.925 241.484 389.722 241.836C389.526 242.188 389.378 242.602 389.276 243.078C389.182 243.547 389.136 244.062 389.136 244.625V245.094C389.136 245.602 389.206 246.07 389.347 246.5C389.495 246.93 389.702 247.301 389.968 247.613C390.241 247.926 390.569 248.168 390.952 248.34C391.343 248.512 391.784 248.598 392.276 248.598C392.886 248.598 393.452 248.48 393.975 248.246C394.507 248.004 394.964 247.641 395.347 247.156L396.987 248.938C396.722 249.32 396.358 249.688 395.897 250.039C395.444 250.391 394.897 250.68 394.257 250.906C393.616 251.125 392.886 251.234 392.065 251.234ZM401.313 233V251H397.926V233H401.313Z" fill="#333333"/>
<g filter="url(#filter6_i_2616_3599)">
<rect x="184" y="215" width="85" height="56" rx="9" fill="#6DA9CD"/>
</g>
<rect x="184.5" y="215.5" width="84" height="55" rx="8.5" stroke="#6DA9CD"/>
<path d="M215.795 244.918H211.448V242.176H215.795C216.467 242.176 217.014 242.066 217.436 241.848C217.858 241.621 218.167 241.309 218.362 240.91C218.557 240.512 218.655 240.062 218.655 239.562C218.655 239.055 218.557 238.582 218.362 238.145C218.167 237.707 217.858 237.355 217.436 237.09C217.014 236.824 216.467 236.691 215.795 236.691H212.667V251H209.151V233.938H215.795C217.131 233.938 218.276 234.18 219.229 234.664C220.19 235.141 220.924 235.801 221.432 236.645C221.94 237.488 222.194 238.453 222.194 239.539C222.194 240.641 221.94 241.594 221.432 242.398C220.924 243.203 220.19 243.824 219.229 244.262C218.276 244.699 217.131 244.918 215.795 244.918ZM229.672 248.141V242.492C229.672 242.086 229.605 241.738 229.473 241.449C229.34 241.152 229.133 240.922 228.852 240.758C228.578 240.594 228.223 240.512 227.785 240.512C227.41 240.512 227.086 240.578 226.812 240.711C226.539 240.836 226.328 241.02 226.18 241.262C226.031 241.496 225.957 241.773 225.957 242.094H222.582C222.582 241.555 222.707 241.043 222.957 240.559C223.207 240.074 223.57 239.648 224.047 239.281C224.523 238.906 225.09 238.613 225.746 238.402C226.41 238.191 227.152 238.086 227.973 238.086C228.957 238.086 229.832 238.25 230.598 238.578C231.363 238.906 231.965 239.398 232.402 240.055C232.848 240.711 233.07 241.531 233.07 242.516V247.941C233.07 248.637 233.113 249.207 233.199 249.652C233.285 250.09 233.41 250.473 233.574 250.801V251H230.164C230 250.656 229.875 250.227 229.789 249.711C229.711 249.188 229.672 248.664 229.672 248.141ZM230.117 243.277L230.141 245.188H228.254C227.809 245.188 227.422 245.238 227.094 245.34C226.766 245.441 226.496 245.586 226.285 245.773C226.074 245.953 225.918 246.164 225.816 246.406C225.723 246.648 225.676 246.914 225.676 247.203C225.676 247.492 225.742 247.754 225.875 247.988C226.008 248.215 226.199 248.395 226.449 248.527C226.699 248.652 226.992 248.715 227.328 248.715C227.836 248.715 228.277 248.613 228.652 248.41C229.027 248.207 229.316 247.957 229.52 247.66C229.73 247.363 229.84 247.082 229.848 246.816L230.738 248.246C230.613 248.566 230.441 248.898 230.223 249.242C230.012 249.586 229.742 249.91 229.414 250.215C229.086 250.512 228.691 250.758 228.23 250.953C227.77 251.141 227.223 251.234 226.59 251.234C225.785 251.234 225.055 251.074 224.398 250.754C223.75 250.426 223.234 249.977 222.852 249.406C222.477 248.828 222.289 248.172 222.289 247.438C222.289 246.773 222.414 246.184 222.664 245.668C222.914 245.152 223.281 244.719 223.766 244.367C224.258 244.008 224.871 243.738 225.605 243.559C226.34 243.371 227.191 243.277 228.16 243.277H230.117ZM237.537 241.027V251H234.162V238.32H237.326L237.537 241.027ZM237.044 244.215H236.13C236.13 243.277 236.251 242.434 236.494 241.684C236.736 240.926 237.076 240.281 237.513 239.75C237.951 239.211 238.47 238.801 239.072 238.52C239.681 238.23 240.361 238.086 241.111 238.086C241.705 238.086 242.247 238.172 242.74 238.344C243.232 238.516 243.654 238.789 244.005 239.164C244.365 239.539 244.638 240.035 244.826 240.652C245.021 241.27 245.119 242.023 245.119 242.914V251H241.72V242.902C241.72 242.34 241.642 241.902 241.486 241.59C241.33 241.277 241.099 241.059 240.794 240.934C240.497 240.801 240.13 240.734 239.693 240.734C239.24 240.734 238.845 240.824 238.509 241.004C238.181 241.184 237.908 241.434 237.689 241.754C237.478 242.066 237.318 242.434 237.208 242.855C237.099 243.277 237.044 243.73 237.044 244.215Z" fill="#333333"/>
<g filter="url(#filter7_i_2616_3599)">
<rect x="48" y="215" width="85" height="56" rx="9" fill="#6DA9CD"/>
</g>
<rect x="48.5" y="215.5" width="84" height="55" rx="8.5" stroke="#6DA9CD"/>
<path d="M82.8475 248.258V251H74.2577V248.258H82.8475ZM75.3944 233.938V251H71.8787V233.938H75.3944ZM86.7747 238.32V251H83.388V238.32H86.7747ZM83.177 235.016C83.177 234.523 83.3489 234.117 83.6927 233.797C84.0364 233.477 84.4973 233.316 85.0755 233.316C85.6458 233.316 86.1028 233.477 86.4466 233.797C86.7981 234.117 86.9739 234.523 86.9739 235.016C86.9739 235.508 86.7981 235.914 86.4466 236.234C86.1028 236.555 85.6458 236.715 85.0755 236.715C84.4973 236.715 84.0364 236.555 83.6927 236.234C83.3489 235.914 83.177 235.508 83.177 235.016ZM91.4284 241.027V251H88.0534V238.32H91.2175L91.4284 241.027ZM90.9362 244.215H90.0222C90.0222 243.277 90.1433 242.434 90.3855 241.684C90.6277 240.926 90.9675 240.281 91.405 239.75C91.8425 239.211 92.362 238.801 92.9636 238.52C93.573 238.23 94.2527 238.086 95.0027 238.086C95.5964 238.086 96.1394 238.172 96.6316 238.344C97.1237 238.516 97.5456 238.789 97.8972 239.164C98.2566 239.539 98.53 240.035 98.7175 240.652C98.9128 241.27 99.0105 242.023 99.0105 242.914V251H95.612V242.902C95.612 242.34 95.5339 241.902 95.3777 241.59C95.2214 241.277 94.9909 241.059 94.6862 240.934C94.3894 240.801 94.0222 240.734 93.5847 240.734C93.1316 240.734 92.737 240.824 92.4011 241.004C92.073 241.184 91.7995 241.434 91.5808 241.754C91.3698 242.066 91.2097 242.434 91.1003 242.855C90.9909 243.277 90.9362 243.73 90.9362 244.215ZM103.512 232.988V251H100.137V232.988H103.512ZM111.504 238.32L105.996 244.602L103.043 247.59L101.813 245.152L104.156 242.176L107.449 238.32H111.504ZM108 251L104.25 245.141L106.582 243.102L111.891 251H108Z" fill="#333333"/>
<g filter="url(#filter8_i_2616_3599)">
<rect x="47" y="314" width="85" height="56" rx="9" fill="#D7A55A"/>
</g>
<rect x="47.5" y="314.5" width="84" height="55" rx="8.5" stroke="#D7A55A"/>
<path d="M58.6898 332.938H61.6664L66.0492 345.465L70.432 332.938H73.4086L67.2445 350H64.8539L58.6898 332.938ZM57.0844 332.938H60.0492L60.5883 345.148V350H57.0844V332.938ZM72.0492 332.938H75.0258V350H71.5102V345.148L72.0492 332.938ZM83.3006 347.141V341.492C83.3006 341.086 83.2342 340.738 83.1014 340.449C82.9686 340.152 82.7616 339.922 82.4803 339.758C82.2069 339.594 81.8514 339.512 81.4139 339.512C81.0389 339.512 80.7147 339.578 80.4412 339.711C80.1678 339.836 79.9569 340.02 79.8084 340.262C79.66 340.496 79.5858 340.773 79.5858 341.094H76.2108C76.2108 340.555 76.3358 340.043 76.5858 339.559C76.8358 339.074 77.1991 338.648 77.6756 338.281C78.1522 337.906 78.7186 337.613 79.3748 337.402C80.0389 337.191 80.7811 337.086 81.6014 337.086C82.5858 337.086 83.4608 337.25 84.2264 337.578C84.992 337.906 85.5936 338.398 86.0311 339.055C86.4764 339.711 86.6991 340.531 86.6991 341.516V346.941C86.6991 347.637 86.742 348.207 86.828 348.652C86.9139 349.09 87.0389 349.473 87.203 349.801V350H83.7928C83.6287 349.656 83.5037 349.227 83.4178 348.711C83.3397 348.188 83.3006 347.664 83.3006 347.141ZM83.7459 342.277L83.7694 344.188H81.8827C81.4373 344.188 81.0506 344.238 80.7225 344.34C80.3944 344.441 80.1248 344.586 79.9139 344.773C79.703 344.953 79.5467 345.164 79.4452 345.406C79.3514 345.648 79.3045 345.914 79.3045 346.203C79.3045 346.492 79.3709 346.754 79.5037 346.988C79.6366 347.215 79.828 347.395 80.078 347.527C80.328 347.652 80.6209 347.715 80.9569 347.715C81.4647 347.715 81.9061 347.613 82.2811 347.41C82.6561 347.207 82.9452 346.957 83.1483 346.66C83.3592 346.363 83.4686 346.082 83.4764 345.816L84.367 347.246C84.242 347.566 84.0702 347.898 83.8514 348.242C83.6405 348.586 83.3709 348.91 83.0428 349.215C82.7147 349.512 82.3202 349.758 81.8592 349.953C81.3983 350.141 80.8514 350.234 80.2186 350.234C79.4139 350.234 78.6834 350.074 78.0272 349.754C77.3787 349.426 76.8631 348.977 76.4803 348.406C76.1053 347.828 75.9178 347.172 75.9178 346.438C75.9178 345.773 76.0428 345.184 76.2928 344.668C76.5428 344.152 76.91 343.719 77.3944 343.367C77.8866 343.008 78.4998 342.738 79.2342 342.559C79.9686 342.371 80.8202 342.277 81.7889 342.277H83.7459ZM94.7161 346.496C94.7161 346.254 94.6458 346.035 94.5052 345.84C94.3645 345.645 94.1028 345.465 93.72 345.301C93.345 345.129 92.802 344.973 92.0911 344.832C91.4505 344.691 90.8528 344.516 90.2981 344.305C89.7512 344.086 89.2747 343.824 88.8684 343.52C88.47 343.215 88.1575 342.855 87.9309 342.441C87.7044 342.02 87.5911 341.539 87.5911 341C87.5911 340.469 87.7044 339.969 87.9309 339.5C88.1653 339.031 88.4973 338.617 88.927 338.258C89.3645 337.891 89.8958 337.605 90.5208 337.402C91.1536 337.191 91.8645 337.086 92.6536 337.086C93.7552 337.086 94.7005 337.262 95.4895 337.613C96.2864 337.965 96.8958 338.449 97.3177 339.066C97.7473 339.676 97.9622 340.371 97.9622 341.152H94.5872C94.5872 340.824 94.5169 340.531 94.3762 340.273C94.2434 340.008 94.0325 339.801 93.7434 339.652C93.4622 339.496 93.095 339.418 92.6419 339.418C92.2669 339.418 91.9427 339.484 91.6692 339.617C91.3958 339.742 91.1848 339.914 91.0364 340.133C90.8958 340.344 90.8255 340.578 90.8255 340.836C90.8255 341.031 90.8645 341.207 90.9427 341.363C91.0286 341.512 91.1653 341.648 91.3528 341.773C91.5403 341.898 91.7825 342.016 92.0794 342.125C92.3841 342.227 92.7591 342.32 93.2044 342.406C94.1184 342.594 94.9348 342.84 95.6536 343.145C96.3723 343.441 96.9427 343.848 97.3645 344.363C97.7864 344.871 97.9973 345.539 97.9973 346.367C97.9973 346.93 97.8723 347.445 97.6223 347.914C97.3723 348.383 97.013 348.793 96.5442 349.145C96.0755 349.488 95.513 349.758 94.8567 349.953C94.2083 350.141 93.4778 350.234 92.6653 350.234C91.4856 350.234 90.4856 350.023 89.6653 349.602C88.8528 349.18 88.2356 348.645 87.8137 347.996C87.3997 347.34 87.1927 346.668 87.1927 345.98H90.3919C90.4075 346.441 90.5247 346.812 90.7434 347.094C90.97 347.375 91.2552 347.578 91.5989 347.703C91.9505 347.828 92.3294 347.891 92.7356 347.891C93.1731 347.891 93.5364 347.832 93.8255 347.715C94.1145 347.59 94.3333 347.426 94.4817 347.223C94.638 347.012 94.7161 346.77 94.7161 346.496ZM104.96 337.32V339.711H97.5769V337.32H104.96ZM99.405 334.191H102.78V346.18C102.78 346.547 102.827 346.828 102.921 347.023C103.022 347.219 103.171 347.355 103.366 347.434C103.561 347.504 103.807 347.539 104.104 347.539C104.315 347.539 104.503 347.531 104.667 347.516C104.839 347.492 104.983 347.469 105.1 347.445L105.112 349.93C104.823 350.023 104.51 350.098 104.175 350.152C103.839 350.207 103.467 350.234 103.061 350.234C102.319 350.234 101.671 350.113 101.116 349.871C100.569 349.621 100.147 349.223 99.8503 348.676C99.5534 348.129 99.405 347.41 99.405 346.52V334.191ZM111.277 350.234C110.293 350.234 109.41 350.078 108.629 349.766C107.848 349.445 107.184 349.004 106.637 348.441C106.098 347.879 105.684 347.227 105.395 346.484C105.106 345.734 104.961 344.938 104.961 344.094V343.625C104.961 342.664 105.098 341.785 105.371 340.988C105.645 340.191 106.035 339.5 106.543 338.914C107.059 338.328 107.684 337.879 108.418 337.566C109.152 337.246 109.981 337.086 110.902 337.086C111.801 337.086 112.598 337.234 113.293 337.531C113.988 337.828 114.57 338.25 115.039 338.797C115.516 339.344 115.875 340 116.117 340.766C116.36 341.523 116.481 342.367 116.481 343.297V344.703H106.402V342.453H113.164V342.195C113.164 341.727 113.078 341.309 112.906 340.941C112.742 340.566 112.492 340.27 112.156 340.051C111.82 339.832 111.391 339.723 110.867 339.723C110.422 339.723 110.039 339.82 109.719 340.016C109.399 340.211 109.137 340.484 108.934 340.836C108.738 341.188 108.59 341.602 108.488 342.078C108.395 342.547 108.348 343.062 108.348 343.625V344.094C108.348 344.602 108.418 345.07 108.559 345.5C108.707 345.93 108.914 346.301 109.18 346.613C109.453 346.926 109.781 347.168 110.164 347.34C110.555 347.512 110.996 347.598 111.488 347.598C112.098 347.598 112.664 347.48 113.188 347.246C113.719 347.004 114.176 346.641 114.559 346.156L116.199 347.938C115.934 348.32 115.57 348.688 115.11 349.039C114.656 349.391 114.11 349.68 113.469 349.906C112.828 350.125 112.098 350.234 111.277 350.234ZM120.337 340.086V350H116.962V337.32H120.138L120.337 340.086ZM124.158 337.238L124.099 340.367C123.935 340.344 123.736 340.324 123.502 340.309C123.275 340.285 123.068 340.273 122.88 340.273C122.404 340.273 121.99 340.336 121.638 340.461C121.295 340.578 121.005 340.754 120.771 340.988C120.545 341.223 120.373 341.508 120.255 341.844C120.146 342.18 120.084 342.562 120.068 342.992L119.388 342.781C119.388 341.961 119.47 341.207 119.634 340.52C119.798 339.824 120.037 339.219 120.349 338.703C120.67 338.188 121.06 337.789 121.521 337.508C121.982 337.227 122.509 337.086 123.103 337.086C123.291 337.086 123.482 337.102 123.677 337.133C123.873 337.156 124.033 337.191 124.158 337.238Z" fill="#333333"/>
<g filter="url(#filter9_i_2616_3599)">
<rect x="183" y="314" width="85" height="56" rx="9" fill="#81BA75"/>
</g>
<rect x="183.5" y="314.5" width="84" height="55" rx="8.5" stroke="#81BA75"/>
<path d="M213.423 344.34H216.927C216.857 345.488 216.54 346.508 215.978 347.398C215.423 348.289 214.646 348.984 213.646 349.484C212.653 349.984 211.458 350.234 210.06 350.234C208.966 350.234 207.985 350.047 207.118 349.672C206.251 349.289 205.509 348.742 204.892 348.031C204.282 347.32 203.818 346.461 203.497 345.453C203.177 344.445 203.017 343.316 203.017 342.066V340.883C203.017 339.633 203.181 338.504 203.509 337.496C203.845 336.48 204.321 335.617 204.939 334.906C205.564 334.195 206.31 333.648 207.177 333.266C208.044 332.883 209.013 332.691 210.083 332.691C211.505 332.691 212.704 332.949 213.681 333.465C214.665 333.98 215.427 334.691 215.966 335.598C216.513 336.504 216.841 337.535 216.95 338.691H213.435C213.396 338.004 213.259 337.422 213.025 336.945C212.79 336.461 212.435 336.098 211.958 335.855C211.489 335.605 210.864 335.48 210.083 335.48C209.497 335.48 208.985 335.59 208.548 335.809C208.11 336.027 207.743 336.359 207.446 336.805C207.15 337.25 206.927 337.812 206.778 338.492C206.638 339.164 206.568 339.953 206.568 340.859V342.066C206.568 342.949 206.634 343.727 206.767 344.398C206.9 345.062 207.103 345.625 207.376 346.086C207.657 346.539 208.017 346.883 208.454 347.117C208.9 347.344 209.435 347.457 210.06 347.457C210.794 347.457 211.4 347.34 211.876 347.105C212.353 346.871 212.716 346.523 212.966 346.062C213.224 345.602 213.376 345.027 213.423 344.34ZM221.147 332V350H217.76V332H221.147ZM226.059 337.32V350H222.672V337.32H226.059ZM222.461 334.016C222.461 333.523 222.633 333.117 222.977 332.797C223.32 332.477 223.781 332.316 224.359 332.316C224.93 332.316 225.387 332.477 225.73 332.797C226.082 333.117 226.258 333.523 226.258 334.016C226.258 334.508 226.082 334.914 225.73 335.234C225.387 335.555 224.93 335.715 224.359 335.715C223.781 335.715 223.32 335.555 222.977 335.234C222.633 334.914 222.461 334.508 222.461 334.016ZM232.646 347.598C233.06 347.598 233.427 347.52 233.748 347.363C234.068 347.199 234.318 346.973 234.498 346.684C234.685 346.387 234.783 346.039 234.79 345.641H237.966C237.958 346.531 237.72 347.324 237.251 348.02C236.783 348.707 236.154 349.25 235.365 349.648C234.576 350.039 233.693 350.234 232.716 350.234C231.732 350.234 230.873 350.07 230.138 349.742C229.412 349.414 228.806 348.961 228.322 348.383C227.837 347.797 227.474 347.117 227.232 346.344C226.99 345.562 226.869 344.727 226.869 343.836V343.496C226.869 342.598 226.99 341.762 227.232 340.988C227.474 340.207 227.837 339.527 228.322 338.949C228.806 338.363 229.412 337.906 230.138 337.578C230.865 337.25 231.716 337.086 232.693 337.086C233.732 337.086 234.642 337.285 235.423 337.684C236.212 338.082 236.83 338.652 237.275 339.395C237.728 340.129 237.958 341 237.966 342.008H234.79C234.783 341.586 234.693 341.203 234.521 340.859C234.357 340.516 234.115 340.242 233.794 340.039C233.482 339.828 233.095 339.723 232.634 339.723C232.142 339.723 231.74 339.828 231.427 340.039C231.115 340.242 230.873 340.523 230.701 340.883C230.529 341.234 230.408 341.637 230.337 342.09C230.275 342.535 230.244 343.004 230.244 343.496V343.836C230.244 344.328 230.275 344.801 230.337 345.254C230.4 345.707 230.517 346.109 230.689 346.461C230.869 346.812 231.115 347.09 231.427 347.293C231.74 347.496 232.146 347.598 232.646 347.598ZM241.858 331.988V350H238.483V331.988H241.858ZM249.85 337.32L244.343 343.602L241.39 346.59L240.159 344.152L242.503 341.176L245.796 337.32H249.85ZM246.347 350L242.597 344.141L244.929 342.102L250.237 350H246.347Z" fill="#333333"/>
<g filter="url(#filter10_i_2616_3599)">
<rect x="319" y="314" width="85" height="56" rx="9" fill="#6DA9CD"/>
</g>
<rect x="319.5" y="314.5" width="84" height="55" rx="8.5" stroke="#6DA9CD"/>
<path d="M335.851 345.535C335.851 345.23 335.804 344.957 335.711 344.715C335.625 344.465 335.461 344.238 335.218 344.035C334.976 343.824 334.636 343.617 334.199 343.414C333.761 343.211 333.195 343 332.5 342.781C331.726 342.531 330.992 342.25 330.297 341.938C329.609 341.625 329 341.262 328.468 340.848C327.945 340.426 327.531 339.938 327.226 339.383C326.929 338.828 326.781 338.184 326.781 337.449C326.781 336.738 326.937 336.094 327.25 335.516C327.562 334.93 328 334.43 328.562 334.016C329.125 333.594 329.789 333.27 330.554 333.043C331.328 332.816 332.175 332.703 333.097 332.703C334.355 332.703 335.453 332.93 336.39 333.383C337.328 333.836 338.054 334.457 338.57 335.246C339.093 336.035 339.355 336.938 339.355 337.953H335.863C335.863 337.453 335.757 337.016 335.547 336.641C335.343 336.258 335.031 335.957 334.609 335.738C334.195 335.52 333.672 335.41 333.039 335.41C332.429 335.41 331.922 335.504 331.515 335.691C331.109 335.871 330.804 336.117 330.601 336.43C330.398 336.734 330.297 337.078 330.297 337.461C330.297 337.75 330.367 338.012 330.507 338.246C330.656 338.48 330.875 338.699 331.164 338.902C331.453 339.105 331.808 339.297 332.23 339.477C332.652 339.656 333.14 339.832 333.695 340.004C334.625 340.285 335.441 340.602 336.144 340.953C336.855 341.305 337.449 341.699 337.925 342.137C338.402 342.574 338.761 343.07 339.004 343.625C339.246 344.18 339.367 344.809 339.367 345.512C339.367 346.254 339.222 346.918 338.933 347.504C338.644 348.09 338.226 348.586 337.679 348.992C337.132 349.398 336.48 349.707 335.722 349.918C334.965 350.129 334.117 350.234 333.179 350.234C332.336 350.234 331.504 350.125 330.683 349.906C329.863 349.68 329.117 349.34 328.445 348.887C327.781 348.434 327.25 347.855 326.851 347.152C326.453 346.449 326.254 345.617 326.254 344.656H329.781C329.781 345.188 329.863 345.637 330.027 346.004C330.191 346.371 330.422 346.668 330.718 346.895C331.023 347.121 331.382 347.285 331.797 347.387C332.218 347.488 332.679 347.539 333.179 347.539C333.789 347.539 334.289 347.453 334.679 347.281C335.078 347.109 335.371 346.871 335.558 346.566C335.754 346.262 335.851 345.918 335.851 345.535ZM345.942 350.234C344.958 350.234 344.075 350.078 343.294 349.766C342.513 349.445 341.849 349.004 341.302 348.441C340.763 347.879 340.349 347.227 340.06 346.484C339.771 345.734 339.626 344.938 339.626 344.094V343.625C339.626 342.664 339.763 341.785 340.036 340.988C340.31 340.191 340.7 339.5 341.208 338.914C341.724 338.328 342.349 337.879 343.083 337.566C343.817 337.246 344.646 337.086 345.567 337.086C346.466 337.086 347.263 337.234 347.958 337.531C348.653 337.828 349.235 338.25 349.704 338.797C350.181 339.344 350.54 340 350.782 340.766C351.025 341.523 351.146 342.367 351.146 343.297V344.703H341.067V342.453H347.829V342.195C347.829 341.727 347.743 341.309 347.571 340.941C347.407 340.566 347.157 340.27 346.821 340.051C346.485 339.832 346.056 339.723 345.532 339.723C345.087 339.723 344.704 339.82 344.384 340.016C344.064 340.211 343.802 340.484 343.599 340.836C343.403 341.188 343.255 341.602 343.153 342.078C343.06 342.547 343.013 343.062 343.013 343.625V344.094C343.013 344.602 343.083 345.07 343.224 345.5C343.372 345.93 343.579 346.301 343.845 346.613C344.118 346.926 344.446 347.168 344.829 347.34C345.22 347.512 345.661 347.598 346.153 347.598C346.763 347.598 347.329 347.48 347.853 347.246C348.384 347.004 348.841 346.641 349.224 346.156L350.864 347.938C350.599 348.32 350.235 348.688 349.775 349.039C349.321 349.391 348.775 349.68 348.134 349.906C347.493 350.125 346.763 350.234 345.942 350.234ZM356.866 347.598C357.28 347.598 357.647 347.52 357.967 347.363C358.288 347.199 358.538 346.973 358.717 346.684C358.905 346.387 359.002 346.039 359.01 345.641H362.186C362.178 346.531 361.94 347.324 361.471 348.02C361.002 348.707 360.374 349.25 359.585 349.648C358.795 350.039 357.913 350.234 356.936 350.234C355.952 350.234 355.092 350.07 354.358 349.742C353.631 349.414 353.026 348.961 352.542 348.383C352.057 347.797 351.694 347.117 351.452 346.344C351.21 345.562 351.088 344.727 351.088 343.836V343.496C351.088 342.598 351.21 341.762 351.452 340.988C351.694 340.207 352.057 339.527 352.542 338.949C353.026 338.363 353.631 337.906 354.358 337.578C355.085 337.25 355.936 337.086 356.913 337.086C357.952 337.086 358.862 337.285 359.643 337.684C360.432 338.082 361.049 338.652 361.495 339.395C361.948 340.129 362.178 341 362.186 342.008H359.01C359.002 341.586 358.913 341.203 358.741 340.859C358.577 340.516 358.335 340.242 358.014 340.039C357.702 339.828 357.315 339.723 356.854 339.723C356.362 339.723 355.96 339.828 355.647 340.039C355.335 340.242 355.092 340.523 354.92 340.883C354.749 341.234 354.627 341.637 354.557 342.09C354.495 342.535 354.463 343.004 354.463 343.496V343.836C354.463 344.328 354.495 344.801 354.557 345.254C354.62 345.707 354.737 346.109 354.909 346.461C355.088 346.812 355.335 347.09 355.647 347.293C355.96 347.496 356.366 347.598 356.866 347.598ZM368.914 337.32V339.711H361.531V337.32H368.914ZM363.359 334.191H366.734V346.18C366.734 346.547 366.781 346.828 366.875 347.023C366.977 347.219 367.125 347.355 367.32 347.434C367.516 347.504 367.762 347.539 368.059 347.539C368.27 347.539 368.457 347.531 368.621 347.516C368.793 347.492 368.938 347.469 369.055 347.445L369.066 349.93C368.777 350.023 368.465 350.098 368.129 350.152C367.793 350.207 367.422 350.234 367.016 350.234C366.273 350.234 365.625 350.113 365.07 349.871C364.523 349.621 364.102 349.223 363.805 348.676C363.508 348.129 363.359 347.41 363.359 346.52V334.191ZM372.958 337.32V350H369.572V337.32H372.958ZM369.361 334.016C369.361 333.523 369.533 333.117 369.876 332.797C370.22 332.477 370.681 332.316 371.259 332.316C371.83 332.316 372.287 332.477 372.63 332.797C372.982 333.117 373.158 333.523 373.158 334.016C373.158 334.508 372.982 334.914 372.63 335.234C372.287 335.555 371.83 335.715 371.259 335.715C370.681 335.715 370.22 335.555 369.876 335.234C369.533 334.914 369.361 334.508 369.361 334.016ZM373.768 343.789V343.543C373.768 342.613 373.901 341.758 374.167 340.977C374.432 340.188 374.819 339.504 375.327 338.926C375.835 338.348 376.46 337.898 377.202 337.578C377.944 337.25 378.796 337.086 379.757 337.086C380.718 337.086 381.573 337.25 382.323 337.578C383.073 337.898 383.702 338.348 384.21 338.926C384.725 339.504 385.116 340.188 385.382 340.977C385.647 341.758 385.78 342.613 385.78 343.543V343.789C385.78 344.711 385.647 345.566 385.382 346.355C385.116 347.137 384.725 347.82 384.21 348.406C383.702 348.984 383.077 349.434 382.335 349.754C381.593 350.074 380.741 350.234 379.78 350.234C378.819 350.234 377.964 350.074 377.214 349.754C376.472 349.434 375.843 348.984 375.327 348.406C374.819 347.82 374.432 347.137 374.167 346.355C373.901 345.566 373.768 344.711 373.768 343.789ZM377.143 343.543V343.789C377.143 344.32 377.19 344.816 377.284 345.277C377.378 345.738 377.526 346.145 377.729 346.496C377.94 346.84 378.214 347.109 378.55 347.305C378.886 347.5 379.296 347.598 379.78 347.598C380.249 347.598 380.651 347.5 380.987 347.305C381.323 347.109 381.593 346.84 381.796 346.496C381.999 346.145 382.147 345.738 382.241 345.277C382.343 344.816 382.393 344.32 382.393 343.789V343.543C382.393 343.027 382.343 342.543 382.241 342.09C382.147 341.629 381.995 341.223 381.784 340.871C381.581 340.512 381.311 340.23 380.975 340.027C380.64 339.824 380.233 339.723 379.757 339.723C379.28 339.723 378.874 339.824 378.538 340.027C378.21 340.23 377.94 340.512 377.729 340.871C377.526 341.223 377.378 341.629 377.284 342.09C377.19 342.543 377.143 343.027 377.143 343.543ZM389.719 340.027V350H386.344V337.32H389.508L389.719 340.027ZM389.227 343.215H388.313C388.313 342.277 388.434 341.434 388.676 340.684C388.918 339.926 389.258 339.281 389.696 338.75C390.133 338.211 390.653 337.801 391.254 337.52C391.864 337.23 392.543 337.086 393.293 337.086C393.887 337.086 394.43 337.172 394.922 337.344C395.414 337.516 395.836 337.789 396.188 338.164C396.547 338.539 396.821 339.035 397.008 339.652C397.203 340.27 397.301 341.023 397.301 341.914V350H393.903V341.902C393.903 341.34 393.825 340.902 393.668 340.59C393.512 340.277 393.282 340.059 392.977 339.934C392.68 339.801 392.313 339.734 391.875 339.734C391.422 339.734 391.028 339.824 390.692 340.004C390.364 340.184 390.09 340.434 389.871 340.754C389.66 341.066 389.5 341.434 389.391 341.855C389.282 342.277 389.227 342.73 389.227 343.215Z" fill="#333333"/>
<g filter="url(#filter11_i_2616_3599)">
<rect x="456" y="314" width="85" height="56" rx="9" fill="#6DA9CD"/>
</g>
<rect x="456.5" y="314.5" width="84" height="55" rx="8.5" stroke="#6DA9CD"/>
<path d="M467.233 332.938H470.209L474.592 345.465L478.975 332.938H481.952L475.787 350H473.397L467.233 332.938ZM465.627 332.938H468.592L469.131 345.148V350H465.627V332.938ZM480.592 332.938H483.569V350H480.053V345.148L480.592 332.938ZM491.844 347.141V341.492C491.844 341.086 491.777 340.738 491.644 340.449C491.512 340.152 491.305 339.922 491.023 339.758C490.75 339.594 490.394 339.512 489.957 339.512C489.582 339.512 489.258 339.578 488.984 339.711C488.711 339.836 488.5 340.02 488.351 340.262C488.203 340.496 488.129 340.773 488.129 341.094H484.754C484.754 340.555 484.879 340.043 485.129 339.559C485.379 339.074 485.742 338.648 486.219 338.281C486.695 337.906 487.262 337.613 487.918 337.402C488.582 337.191 489.324 337.086 490.144 337.086C491.129 337.086 492.004 337.25 492.769 337.578C493.535 337.906 494.137 338.398 494.574 339.055C495.019 339.711 495.242 340.531 495.242 341.516V346.941C495.242 347.637 495.285 348.207 495.371 348.652C495.457 349.09 495.582 349.473 495.746 349.801V350H492.336C492.172 349.656 492.047 349.227 491.961 348.711C491.883 348.188 491.844 347.664 491.844 347.141ZM492.289 342.277L492.312 344.188H490.426C489.98 344.188 489.594 344.238 489.265 344.34C488.937 344.441 488.668 344.586 488.457 344.773C488.246 344.953 488.09 345.164 487.988 345.406C487.894 345.648 487.847 345.914 487.847 346.203C487.847 346.492 487.914 346.754 488.047 346.988C488.18 347.215 488.371 347.395 488.621 347.527C488.871 347.652 489.164 347.715 489.5 347.715C490.008 347.715 490.449 347.613 490.824 347.41C491.199 347.207 491.488 346.957 491.691 346.66C491.902 346.363 492.012 346.082 492.019 345.816L492.91 347.246C492.785 347.566 492.613 347.898 492.394 348.242C492.183 348.586 491.914 348.91 491.586 349.215C491.258 349.512 490.863 349.758 490.402 349.953C489.941 350.141 489.394 350.234 488.762 350.234C487.957 350.234 487.226 350.074 486.57 349.754C485.922 349.426 485.406 348.977 485.023 348.406C484.648 347.828 484.461 347.172 484.461 346.438C484.461 345.773 484.586 345.184 484.836 344.668C485.086 344.152 485.453 343.719 485.937 343.367C486.43 343.008 487.043 342.738 487.777 342.559C488.512 342.371 489.363 342.277 490.332 342.277H492.289ZM499.779 340.086V350H496.404V337.32H499.579L499.779 340.086ZM503.599 337.238L503.54 340.367C503.376 340.344 503.177 340.324 502.943 340.309C502.716 340.285 502.509 340.273 502.322 340.273C501.845 340.273 501.431 340.336 501.079 340.461C500.736 340.578 500.447 340.754 500.212 340.988C499.986 341.223 499.814 341.508 499.697 341.844C499.587 342.18 499.525 342.562 499.509 342.992L498.829 342.781C498.829 341.961 498.911 341.207 499.075 340.52C499.24 339.824 499.478 339.219 499.79 338.703C500.111 338.188 500.501 337.789 500.962 337.508C501.423 337.227 501.95 337.086 502.544 337.086C502.732 337.086 502.923 337.102 503.118 337.133C503.314 337.156 503.474 337.191 503.599 337.238ZM507.128 331.988V350H503.753V331.988H507.128ZM515.12 337.32L509.612 343.602L506.659 346.59L505.428 344.152L507.772 341.176L511.065 337.32H515.12ZM511.616 350L507.866 344.141L510.198 342.102L515.507 350H511.616ZM520.735 350.234C519.75 350.234 518.867 350.078 518.086 349.766C517.305 349.445 516.641 349.004 516.094 348.441C515.555 347.879 515.141 347.227 514.852 346.484C514.563 345.734 514.418 344.938 514.418 344.094V343.625C514.418 342.664 514.555 341.785 514.828 340.988C515.102 340.191 515.492 339.5 516 338.914C516.516 338.328 517.141 337.879 517.875 337.566C518.61 337.246 519.438 337.086 520.36 337.086C521.258 337.086 522.055 337.234 522.75 337.531C523.445 337.828 524.027 338.25 524.496 338.797C524.973 339.344 525.332 340 525.574 340.766C525.817 341.523 525.938 342.367 525.938 343.297V344.703H515.86V342.453H522.621V342.195C522.621 341.727 522.535 341.309 522.363 340.941C522.199 340.566 521.949 340.27 521.613 340.051C521.277 339.832 520.848 339.723 520.324 339.723C519.879 339.723 519.496 339.82 519.176 340.016C518.856 340.211 518.594 340.484 518.391 340.836C518.195 341.188 518.047 341.602 517.945 342.078C517.852 342.547 517.805 343.062 517.805 343.625V344.094C517.805 344.602 517.875 345.07 518.016 345.5C518.164 345.93 518.371 346.301 518.637 346.613C518.91 346.926 519.238 347.168 519.621 347.34C520.012 347.512 520.453 347.598 520.945 347.598C521.555 347.598 522.121 347.48 522.645 347.246C523.176 347.004 523.633 346.641 524.016 346.156L525.656 347.938C525.391 348.32 525.027 348.688 524.567 349.039C524.113 349.391 523.567 349.68 522.926 349.906C522.285 350.125 521.555 350.234 520.735 350.234ZM529.795 340.086V350H526.42V337.32H529.595L529.795 340.086ZM533.615 337.238L533.556 340.367C533.392 340.344 533.193 340.324 532.959 340.309C532.732 340.285 532.525 340.273 532.337 340.273C531.861 340.273 531.447 340.336 531.095 340.461C530.752 340.578 530.462 340.754 530.228 340.988C530.002 341.223 529.83 341.508 529.712 341.844C529.603 342.18 529.541 342.562 529.525 342.992L528.845 342.781C528.845 341.961 528.927 341.207 529.091 340.52C529.255 339.824 529.494 339.219 529.806 338.703C530.127 338.188 530.517 337.789 530.978 337.508C531.439 337.227 531.966 337.086 532.56 337.086C532.748 337.086 532.939 337.102 533.134 337.133C533.33 337.156 533.49 337.191 533.615 337.238Z" fill="#333333"/>
<rect x="48" y="277" width="85" height="21" fill="white"/>
<path d="M81.6016 291.773V293H75.9141V291.773H81.6016ZM76.2109 281.625V293H74.7031V281.625H76.2109ZM82.7266 288.867V288.688C82.7266 288.078 82.8151 287.513 82.9922 286.992C83.1693 286.466 83.4245 286.01 83.7578 285.625C84.0911 285.234 84.4948 284.932 84.9688 284.719C85.4427 284.5 85.974 284.391 86.5625 284.391C87.1562 284.391 87.6901 284.5 88.1641 284.719C88.6432 284.932 89.0495 285.234 89.3828 285.625C89.7214 286.01 89.9792 286.466 90.1562 286.992C90.3333 287.513 90.4219 288.078 90.4219 288.688V288.867C90.4219 289.477 90.3333 290.042 90.1562 290.562C89.9792 291.083 89.7214 291.539 89.3828 291.93C89.0495 292.315 88.6458 292.617 88.1719 292.836C87.7031 293.049 87.1719 293.156 86.5781 293.156C85.9844 293.156 85.4505 293.049 84.9766 292.836C84.5026 292.617 84.0964 292.315 83.7578 291.93C83.4245 291.539 83.1693 291.083 82.9922 290.562C82.8151 290.042 82.7266 289.477 82.7266 288.867ZM84.1719 288.688V288.867C84.1719 289.289 84.2214 289.688 84.3203 290.062C84.4193 290.432 84.5677 290.76 84.7656 291.047C84.9688 291.333 85.2214 291.56 85.5234 291.727C85.8255 291.888 86.1771 291.969 86.5781 291.969C86.974 291.969 87.3203 291.888 87.6172 291.727C87.9193 291.56 88.1693 291.333 88.3672 291.047C88.5651 290.76 88.7135 290.432 88.8125 290.062C88.9167 289.688 88.9688 289.289 88.9688 288.867V288.688C88.9688 288.271 88.9167 287.878 88.8125 287.508C88.7135 287.133 88.5625 286.802 88.3594 286.516C88.1615 286.224 87.9115 285.995 87.6094 285.828C87.3125 285.661 86.9635 285.578 86.5625 285.578C86.1667 285.578 85.8177 285.661 85.5156 285.828C85.2188 285.995 84.9688 286.224 84.7656 286.516C84.5677 286.802 84.4193 287.133 84.3203 287.508C84.2214 287.878 84.1719 288.271 84.1719 288.688ZM95.6172 291.969C95.9609 291.969 96.2786 291.898 96.5703 291.758C96.862 291.617 97.1016 291.424 97.2891 291.18C97.4766 290.93 97.5833 290.646 97.6094 290.328H98.9844C98.9583 290.828 98.7891 291.294 98.4766 291.727C98.1693 292.154 97.7656 292.5 97.2656 292.766C96.7656 293.026 96.2161 293.156 95.6172 293.156C94.9818 293.156 94.4271 293.044 93.9531 292.82C93.4844 292.596 93.0938 292.289 92.7812 291.898C92.474 291.508 92.2422 291.06 92.0859 290.555C91.9349 290.044 91.8594 289.505 91.8594 288.938V288.609C91.8594 288.042 91.9349 287.505 92.0859 287C92.2422 286.49 92.474 286.039 92.7812 285.648C93.0938 285.258 93.4844 284.951 93.9531 284.727C94.4271 284.503 94.9818 284.391 95.6172 284.391C96.2786 284.391 96.8568 284.526 97.3516 284.797C97.8464 285.062 98.2344 285.427 98.5156 285.891C98.8021 286.349 98.9583 286.87 98.9844 287.453H97.6094C97.5833 287.104 97.4844 286.789 97.3125 286.508C97.1458 286.227 96.9167 286.003 96.625 285.836C96.3385 285.664 96.0026 285.578 95.6172 285.578C95.1745 285.578 94.8021 285.667 94.5 285.844C94.2031 286.016 93.9661 286.25 93.7891 286.547C93.6172 286.839 93.4922 287.164 93.4141 287.523C93.3411 287.878 93.3047 288.24 93.3047 288.609V288.938C93.3047 289.307 93.3411 289.672 93.4141 290.031C93.487 290.391 93.6094 290.716 93.7812 291.008C93.9583 291.299 94.1953 291.534 94.4922 291.711C94.7943 291.883 95.1693 291.969 95.6172 291.969ZM102.062 281V293H100.609V281H102.062ZM107.227 284.547L103.539 288.492L101.477 290.633L101.359 289.094L102.836 287.328L105.461 284.547H107.227ZM105.906 293L102.891 288.969L103.641 287.68L107.609 293H105.906Z" fill="#333333"/>
<rect x="184" y="277" width="85" height="21" fill="white"/>
<path d="M216.523 281.625V293H215.016V281.625H216.523ZM221.289 286.742V287.977H216.195V286.742H221.289ZM222.062 281.625V282.859H216.195V281.625H222.062ZM225.211 281V293H223.758V281H225.211ZM229.102 284.547V293H227.648V284.547H229.102ZM227.539 282.305C227.539 282.07 227.609 281.872 227.75 281.711C227.896 281.549 228.109 281.469 228.391 281.469C228.667 281.469 228.878 281.549 229.023 281.711C229.174 281.872 229.25 282.07 229.25 282.305C229.25 282.529 229.174 282.721 229.023 282.883C228.878 283.039 228.667 283.117 228.391 283.117C228.109 283.117 227.896 283.039 227.75 282.883C227.609 282.721 227.539 282.529 227.539 282.305ZM232.867 286.172V296.25H231.414V284.547H232.742L232.867 286.172ZM238.562 288.703V288.867C238.562 289.482 238.49 290.052 238.344 290.578C238.198 291.099 237.984 291.552 237.703 291.938C237.427 292.323 237.086 292.622 236.68 292.836C236.273 293.049 235.807 293.156 235.281 293.156C234.745 293.156 234.271 293.068 233.859 292.891C233.448 292.714 233.099 292.456 232.812 292.117C232.526 291.779 232.297 291.372 232.125 290.898C231.958 290.424 231.844 289.891 231.781 289.297V288.422C231.844 287.797 231.961 287.237 232.133 286.742C232.305 286.247 232.531 285.826 232.812 285.477C233.099 285.122 233.445 284.854 233.852 284.672C234.258 284.484 234.727 284.391 235.258 284.391C235.789 284.391 236.26 284.495 236.672 284.703C237.083 284.906 237.43 285.198 237.711 285.578C237.992 285.958 238.203 286.414 238.344 286.945C238.49 287.471 238.562 288.057 238.562 288.703ZM237.109 288.867V288.703C237.109 288.281 237.065 287.885 236.977 287.516C236.888 287.141 236.75 286.812 236.562 286.531C236.38 286.245 236.146 286.021 235.859 285.859C235.573 285.693 235.232 285.609 234.836 285.609C234.471 285.609 234.154 285.672 233.883 285.797C233.617 285.922 233.391 286.091 233.203 286.305C233.016 286.513 232.862 286.753 232.742 287.023C232.628 287.289 232.542 287.565 232.484 287.852V289.875C232.589 290.24 232.734 290.583 232.922 290.906C233.109 291.224 233.359 291.482 233.672 291.68C233.984 291.872 234.378 291.969 234.852 291.969C235.242 291.969 235.578 291.888 235.859 291.727C236.146 291.56 236.38 291.333 236.562 291.047C236.75 290.76 236.888 290.432 236.977 290.062C237.065 289.688 237.109 289.289 237.109 288.867Z" fill="#333333"/>
<rect x="320" y="277" width="85" height="21" fill="white"/>
<path d="M353.602 291.773V293H347.914V291.773H353.602ZM348.211 281.625V293H346.703V281.625H348.211ZM354.727 288.867V288.688C354.727 288.078 354.815 287.513 354.992 286.992C355.169 286.466 355.424 286.01 355.758 285.625C356.091 285.234 356.495 284.932 356.969 284.719C357.443 284.5 357.974 284.391 358.562 284.391C359.156 284.391 359.69 284.5 360.164 284.719C360.643 284.932 361.049 285.234 361.383 285.625C361.721 286.01 361.979 286.466 362.156 286.992C362.333 287.513 362.422 288.078 362.422 288.688V288.867C362.422 289.477 362.333 290.042 362.156 290.562C361.979 291.083 361.721 291.539 361.383 291.93C361.049 292.315 360.646 292.617 360.172 292.836C359.703 293.049 359.172 293.156 358.578 293.156C357.984 293.156 357.451 293.049 356.977 292.836C356.503 292.617 356.096 292.315 355.758 291.93C355.424 291.539 355.169 291.083 354.992 290.562C354.815 290.042 354.727 289.477 354.727 288.867ZM356.172 288.688V288.867C356.172 289.289 356.221 289.688 356.32 290.062C356.419 290.432 356.568 290.76 356.766 291.047C356.969 291.333 357.221 291.56 357.523 291.727C357.826 291.888 358.177 291.969 358.578 291.969C358.974 291.969 359.32 291.888 359.617 291.727C359.919 291.56 360.169 291.333 360.367 291.047C360.565 290.76 360.714 290.432 360.812 290.062C360.917 289.688 360.969 289.289 360.969 288.867V288.688C360.969 288.271 360.917 287.878 360.812 287.508C360.714 287.133 360.562 286.802 360.359 286.516C360.161 286.224 359.911 285.995 359.609 285.828C359.312 285.661 358.964 285.578 358.562 285.578C358.167 285.578 357.818 285.661 357.516 285.828C357.219 285.995 356.969 286.224 356.766 286.516C356.568 286.802 356.419 287.133 356.32 287.508C356.221 287.878 356.172 288.271 356.172 288.688ZM367.617 291.969C367.961 291.969 368.279 291.898 368.57 291.758C368.862 291.617 369.102 291.424 369.289 291.18C369.477 290.93 369.583 290.646 369.609 290.328H370.984C370.958 290.828 370.789 291.294 370.477 291.727C370.169 292.154 369.766 292.5 369.266 292.766C368.766 293.026 368.216 293.156 367.617 293.156C366.982 293.156 366.427 293.044 365.953 292.82C365.484 292.596 365.094 292.289 364.781 291.898C364.474 291.508 364.242 291.06 364.086 290.555C363.935 290.044 363.859 289.505 363.859 288.938V288.609C363.859 288.042 363.935 287.505 364.086 287C364.242 286.49 364.474 286.039 364.781 285.648C365.094 285.258 365.484 284.951 365.953 284.727C366.427 284.503 366.982 284.391 367.617 284.391C368.279 284.391 368.857 284.526 369.352 284.797C369.846 285.062 370.234 285.427 370.516 285.891C370.802 286.349 370.958 286.87 370.984 287.453H369.609C369.583 287.104 369.484 286.789 369.312 286.508C369.146 286.227 368.917 286.003 368.625 285.836C368.339 285.664 368.003 285.578 367.617 285.578C367.174 285.578 366.802 285.667 366.5 285.844C366.203 286.016 365.966 286.25 365.789 286.547C365.617 286.839 365.492 287.164 365.414 287.523C365.341 287.878 365.305 288.24 365.305 288.609V288.938C365.305 289.307 365.341 289.672 365.414 290.031C365.487 290.391 365.609 290.716 365.781 291.008C365.958 291.299 366.195 291.534 366.492 291.711C366.794 291.883 367.169 291.969 367.617 291.969ZM374.062 281V293H372.609V281H374.062ZM379.227 284.547L375.539 288.492L373.477 290.633L373.359 289.094L374.836 287.328L377.461 284.547H379.227ZM377.906 293L374.891 288.969L375.641 287.68L379.609 293H377.906Z" fill="#333333"/>
<rect x="456" y="376" width="85" height="21" fill="white"/>
<path d="M492.406 380.625V392H490.898V380.625H492.406ZM497.172 385.742V386.977H492.078V385.742H497.172ZM497.945 380.625V381.859H492.078V380.625H497.945ZM507.055 388.172V389.359H498.836V388.508L503.93 380.625H505.109L503.844 382.906L500.477 388.172H507.055ZM505.469 380.625V392H504.023V380.625H505.469Z" fill="#333333"/>
<rect x="456" y="277" width="85" height="21" fill="white"/>
<path d="M486.602 291.773V293H478.898V291.773H486.602ZM486.352 282.719L479.258 293H478.328V291.875L485.414 281.625H486.352V282.719ZM485.711 281.625V282.859H478.43V281.625H485.711ZM487.789 288.867V288.688C487.789 288.078 487.878 287.513 488.055 286.992C488.232 286.466 488.487 286.01 488.82 285.625C489.154 285.234 489.557 284.932 490.031 284.719C490.505 284.5 491.036 284.391 491.625 284.391C492.219 284.391 492.753 284.5 493.227 284.719C493.706 284.932 494.112 285.234 494.445 285.625C494.784 286.01 495.042 286.466 495.219 286.992C495.396 287.513 495.484 288.078 495.484 288.688V288.867C495.484 289.477 495.396 290.042 495.219 290.562C495.042 291.083 494.784 291.539 494.445 291.93C494.112 292.315 493.708 292.617 493.234 292.836C492.766 293.049 492.234 293.156 491.641 293.156C491.047 293.156 490.513 293.049 490.039 292.836C489.565 292.617 489.159 292.315 488.82 291.93C488.487 291.539 488.232 291.083 488.055 290.562C487.878 290.042 487.789 289.477 487.789 288.867ZM489.234 288.688V288.867C489.234 289.289 489.284 289.688 489.383 290.062C489.482 290.432 489.63 290.76 489.828 291.047C490.031 291.333 490.284 291.56 490.586 291.727C490.888 291.888 491.24 291.969 491.641 291.969C492.036 291.969 492.383 291.888 492.68 291.727C492.982 291.56 493.232 291.333 493.43 291.047C493.628 290.76 493.776 290.432 493.875 290.062C493.979 289.688 494.031 289.289 494.031 288.867V288.688C494.031 288.271 493.979 287.878 493.875 287.508C493.776 287.133 493.625 286.802 493.422 286.516C493.224 286.224 492.974 285.995 492.672 285.828C492.375 285.661 492.026 285.578 491.625 285.578C491.229 285.578 490.88 285.661 490.578 285.828C490.281 285.995 490.031 286.224 489.828 286.516C489.63 286.802 489.482 287.133 489.383 287.508C489.284 287.878 489.234 288.271 489.234 288.688ZM496.914 288.867V288.688C496.914 288.078 497.003 287.513 497.18 286.992C497.357 286.466 497.612 286.01 497.945 285.625C498.279 285.234 498.682 284.932 499.156 284.719C499.63 284.5 500.161 284.391 500.75 284.391C501.344 284.391 501.878 284.5 502.352 284.719C502.831 284.932 503.237 285.234 503.57 285.625C503.909 286.01 504.167 286.466 504.344 286.992C504.521 287.513 504.609 288.078 504.609 288.688V288.867C504.609 289.477 504.521 290.042 504.344 290.562C504.167 291.083 503.909 291.539 503.57 291.93C503.237 292.315 502.833 292.617 502.359 292.836C501.891 293.049 501.359 293.156 500.766 293.156C500.172 293.156 499.638 293.049 499.164 292.836C498.69 292.617 498.284 292.315 497.945 291.93C497.612 291.539 497.357 291.083 497.18 290.562C497.003 290.042 496.914 289.477 496.914 288.867ZM498.359 288.688V288.867C498.359 289.289 498.409 289.688 498.508 290.062C498.607 290.432 498.755 290.76 498.953 291.047C499.156 291.333 499.409 291.56 499.711 291.727C500.013 291.888 500.365 291.969 500.766 291.969C501.161 291.969 501.508 291.888 501.805 291.727C502.107 291.56 502.357 291.333 502.555 291.047C502.753 290.76 502.901 290.432 503 290.062C503.104 289.688 503.156 289.289 503.156 288.867V288.688C503.156 288.271 503.104 287.878 503 287.508C502.901 287.133 502.75 286.802 502.547 286.516C502.349 286.224 502.099 285.995 501.797 285.828C501.5 285.661 501.151 285.578 500.75 285.578C500.354 285.578 500.005 285.661 499.703 285.828C499.406 285.995 499.156 286.224 498.953 286.516C498.755 286.802 498.607 287.133 498.508 287.508C498.409 287.878 498.359 288.271 498.359 288.688ZM507.859 286.227V293H506.406V284.547H507.781L507.859 286.227ZM507.562 288.453L506.891 288.43C506.896 287.852 506.971 287.318 507.117 286.828C507.263 286.333 507.479 285.904 507.766 285.539C508.052 285.174 508.409 284.893 508.836 284.695C509.263 284.492 509.758 284.391 510.32 284.391C510.716 284.391 511.081 284.448 511.414 284.562C511.747 284.672 512.036 284.846 512.281 285.086C512.526 285.326 512.716 285.633 512.852 286.008C512.987 286.383 513.055 286.836 513.055 287.367V293H511.609V287.438C511.609 286.995 511.534 286.641 511.383 286.375C511.237 286.109 511.029 285.917 510.758 285.797C510.487 285.672 510.169 285.609 509.805 285.609C509.378 285.609 509.021 285.685 508.734 285.836C508.448 285.987 508.219 286.195 508.047 286.461C507.875 286.727 507.75 287.031 507.672 287.375C507.599 287.714 507.562 288.073 507.562 288.453ZM513.039 287.656L512.07 287.953C512.076 287.49 512.151 287.044 512.297 286.617C512.448 286.19 512.664 285.81 512.945 285.477C513.232 285.143 513.583 284.88 514 284.688C514.417 284.49 514.893 284.391 515.43 284.391C515.883 284.391 516.284 284.451 516.633 284.57C516.987 284.69 517.284 284.875 517.523 285.125C517.768 285.37 517.953 285.685 518.078 286.07C518.203 286.456 518.266 286.914 518.266 287.445V293H516.812V287.43C516.812 286.956 516.737 286.589 516.586 286.328C516.44 286.062 516.232 285.878 515.961 285.773C515.695 285.664 515.378 285.609 515.008 285.609C514.69 285.609 514.409 285.664 514.164 285.773C513.919 285.883 513.714 286.034 513.547 286.227C513.38 286.414 513.253 286.63 513.164 286.875C513.081 287.12 513.039 287.38 513.039 287.656Z" fill="#333333"/>
<rect x="399" y="126" width="85" height="21" fill="white"/>
<path d="M424.57 130.625H428.336C429.19 130.625 429.911 130.755 430.5 131.016C431.094 131.276 431.544 131.661 431.852 132.172C432.164 132.677 432.32 133.299 432.32 134.039C432.32 134.56 432.214 135.036 432 135.469C431.792 135.896 431.49 136.26 431.094 136.562C430.703 136.859 430.234 137.081 429.688 137.227L429.266 137.391H425.727L425.711 136.164H428.383C428.924 136.164 429.375 136.07 429.734 135.883C430.094 135.69 430.365 135.432 430.547 135.109C430.729 134.786 430.82 134.43 430.82 134.039C430.82 133.602 430.734 133.219 430.562 132.891C430.391 132.562 430.12 132.31 429.75 132.133C429.385 131.951 428.914 131.859 428.336 131.859H426.078V142H424.57V130.625ZM431.219 142L428.453 136.844L430.023 136.836L432.828 141.906V142H431.219ZM437.719 142.156C437.13 142.156 436.596 142.057 436.117 141.859C435.643 141.656 435.234 141.372 434.891 141.008C434.552 140.643 434.292 140.211 434.109 139.711C433.927 139.211 433.836 138.664 433.836 138.07V137.742C433.836 137.055 433.938 136.443 434.141 135.906C434.344 135.365 434.62 134.906 434.969 134.531C435.318 134.156 435.714 133.872 436.156 133.68C436.599 133.487 437.057 133.391 437.531 133.391C438.135 133.391 438.656 133.495 439.094 133.703C439.536 133.911 439.898 134.203 440.18 134.578C440.461 134.948 440.669 135.385 440.805 135.891C440.94 136.391 441.008 136.938 441.008 137.531V138.18H434.695V137H439.562V136.891C439.542 136.516 439.464 136.151 439.328 135.797C439.198 135.443 438.99 135.151 438.703 134.922C438.417 134.693 438.026 134.578 437.531 134.578C437.203 134.578 436.901 134.648 436.625 134.789C436.349 134.924 436.112 135.128 435.914 135.398C435.716 135.669 435.562 136 435.453 136.391C435.344 136.781 435.289 137.232 435.289 137.742V138.07C435.289 138.471 435.344 138.849 435.453 139.203C435.568 139.552 435.732 139.859 435.945 140.125C436.164 140.391 436.427 140.599 436.734 140.75C437.047 140.901 437.401 140.977 437.797 140.977C438.307 140.977 438.74 140.872 439.094 140.664C439.448 140.456 439.758 140.177 440.023 139.828L440.898 140.523C440.716 140.799 440.484 141.062 440.203 141.312C439.922 141.562 439.576 141.766 439.164 141.922C438.758 142.078 438.276 142.156 437.719 142.156ZM448.023 140.359V130H449.477V142H448.148L448.023 140.359ZM442.336 137.867V137.703C442.336 137.057 442.414 136.471 442.57 135.945C442.732 135.414 442.958 134.958 443.25 134.578C443.547 134.198 443.898 133.906 444.305 133.703C444.716 133.495 445.174 133.391 445.68 133.391C446.211 133.391 446.674 133.484 447.07 133.672C447.471 133.854 447.81 134.122 448.086 134.477C448.367 134.826 448.589 135.247 448.75 135.742C448.911 136.237 449.023 136.797 449.086 137.422V138.141C449.029 138.76 448.917 139.318 448.75 139.812C448.589 140.307 448.367 140.729 448.086 141.078C447.81 141.427 447.471 141.695 447.07 141.883C446.669 142.065 446.201 142.156 445.664 142.156C445.169 142.156 444.716 142.049 444.305 141.836C443.898 141.622 443.547 141.323 443.25 140.938C442.958 140.552 442.732 140.099 442.57 139.578C442.414 139.052 442.336 138.482 442.336 137.867ZM443.789 137.703V137.867C443.789 138.289 443.831 138.685 443.914 139.055C444.003 139.424 444.138 139.75 444.32 140.031C444.503 140.312 444.734 140.534 445.016 140.695C445.297 140.852 445.633 140.93 446.023 140.93C446.503 140.93 446.896 140.828 447.203 140.625C447.516 140.422 447.766 140.154 447.953 139.82C448.141 139.487 448.286 139.125 448.391 138.734V136.852C448.328 136.565 448.237 136.289 448.117 136.023C448.003 135.753 447.852 135.513 447.664 135.305C447.482 135.091 447.255 134.922 446.984 134.797C446.719 134.672 446.404 134.609 446.039 134.609C445.643 134.609 445.302 134.693 445.016 134.859C444.734 135.021 444.503 135.245 444.32 135.531C444.138 135.812 444.003 136.141 443.914 136.516C443.831 136.885 443.789 137.281 443.789 137.703ZM451.344 137.867V137.688C451.344 137.078 451.432 136.513 451.609 135.992C451.786 135.466 452.042 135.01 452.375 134.625C452.708 134.234 453.112 133.932 453.586 133.719C454.06 133.5 454.591 133.391 455.18 133.391C455.773 133.391 456.307 133.5 456.781 133.719C457.26 133.932 457.667 134.234 458 134.625C458.339 135.01 458.596 135.466 458.773 135.992C458.951 136.513 459.039 137.078 459.039 137.688V137.867C459.039 138.477 458.951 139.042 458.773 139.562C458.596 140.083 458.339 140.539 458 140.93C457.667 141.315 457.263 141.617 456.789 141.836C456.32 142.049 455.789 142.156 455.195 142.156C454.602 142.156 454.068 142.049 453.594 141.836C453.12 141.617 452.714 141.315 452.375 140.93C452.042 140.539 451.786 140.083 451.609 139.562C451.432 139.042 451.344 138.477 451.344 137.867ZM452.789 137.688V137.867C452.789 138.289 452.839 138.688 452.938 139.062C453.036 139.432 453.185 139.76 453.383 140.047C453.586 140.333 453.839 140.56 454.141 140.727C454.443 140.888 454.794 140.969 455.195 140.969C455.591 140.969 455.938 140.888 456.234 140.727C456.536 140.56 456.786 140.333 456.984 140.047C457.182 139.76 457.331 139.432 457.43 139.062C457.534 138.688 457.586 138.289 457.586 137.867V137.688C457.586 137.271 457.534 136.878 457.43 136.508C457.331 136.133 457.18 135.802 456.977 135.516C456.779 135.224 456.529 134.995 456.227 134.828C455.93 134.661 455.581 134.578 455.18 134.578C454.784 134.578 454.435 134.661 454.133 134.828C453.836 134.995 453.586 135.224 453.383 135.516C453.185 135.802 453.036 136.133 452.938 136.508C452.839 136.878 452.789 137.271 452.789 137.688Z" fill="#333333"/>
<rect x="101" y="126" width="85" height="21" fill="white"/>
<path d="M132.641 130.625H134.141V138.32C134.141 139.174 133.951 139.885 133.57 140.453C133.19 141.021 132.685 141.448 132.055 141.734C131.43 142.016 130.75 142.156 130.016 142.156C129.245 142.156 128.547 142.016 127.922 141.734C127.302 141.448 126.81 141.021 126.445 140.453C126.086 139.885 125.906 139.174 125.906 138.32V130.625H127.398V138.32C127.398 138.914 127.508 139.404 127.727 139.789C127.945 140.174 128.25 140.461 128.641 140.648C129.036 140.836 129.495 140.93 130.016 140.93C130.542 140.93 131 140.836 131.391 140.648C131.786 140.461 132.094 140.174 132.312 139.789C132.531 139.404 132.641 138.914 132.641 138.32V130.625ZM137.734 135.352V142H136.289V133.547H137.656L137.734 135.352ZM137.391 137.453L136.789 137.43C136.794 136.852 136.88 136.318 137.047 135.828C137.214 135.333 137.448 134.904 137.75 134.539C138.052 134.174 138.411 133.893 138.828 133.695C139.25 133.492 139.716 133.391 140.227 133.391C140.643 133.391 141.018 133.448 141.352 133.562C141.685 133.672 141.969 133.849 142.203 134.094C142.443 134.339 142.625 134.656 142.75 135.047C142.875 135.432 142.938 135.904 142.938 136.461V142H141.484V136.445C141.484 136.003 141.419 135.648 141.289 135.383C141.159 135.112 140.969 134.917 140.719 134.797C140.469 134.672 140.161 134.609 139.797 134.609C139.438 134.609 139.109 134.685 138.812 134.836C138.521 134.987 138.268 135.195 138.055 135.461C137.846 135.727 137.682 136.031 137.562 136.375C137.448 136.714 137.391 137.073 137.391 137.453ZM150.461 140.359V130H151.914V142H150.586L150.461 140.359ZM144.773 137.867V137.703C144.773 137.057 144.852 136.471 145.008 135.945C145.169 135.414 145.396 134.958 145.688 134.578C145.984 134.198 146.336 133.906 146.742 133.703C147.154 133.495 147.612 133.391 148.117 133.391C148.648 133.391 149.112 133.484 149.508 133.672C149.909 133.854 150.247 134.122 150.523 134.477C150.805 134.826 151.026 135.247 151.188 135.742C151.349 136.237 151.461 136.797 151.523 137.422V138.141C151.466 138.76 151.354 139.318 151.188 139.812C151.026 140.307 150.805 140.729 150.523 141.078C150.247 141.427 149.909 141.695 149.508 141.883C149.107 142.065 148.638 142.156 148.102 142.156C147.607 142.156 147.154 142.049 146.742 141.836C146.336 141.622 145.984 141.323 145.688 140.938C145.396 140.552 145.169 140.099 145.008 139.578C144.852 139.052 144.773 138.482 144.773 137.867ZM146.227 137.703V137.867C146.227 138.289 146.268 138.685 146.352 139.055C146.44 139.424 146.576 139.75 146.758 140.031C146.94 140.312 147.172 140.534 147.453 140.695C147.734 140.852 148.07 140.93 148.461 140.93C148.94 140.93 149.333 140.828 149.641 140.625C149.953 140.422 150.203 140.154 150.391 139.82C150.578 139.487 150.724 139.125 150.828 138.734V136.852C150.766 136.565 150.674 136.289 150.555 136.023C150.44 135.753 150.289 135.513 150.102 135.305C149.919 135.091 149.693 134.922 149.422 134.797C149.156 134.672 148.841 134.609 148.477 134.609C148.081 134.609 147.74 134.693 147.453 134.859C147.172 135.021 146.94 135.245 146.758 135.531C146.576 135.812 146.44 136.141 146.352 136.516C146.268 136.885 146.227 137.281 146.227 137.703ZM153.781 137.867V137.688C153.781 137.078 153.87 136.513 154.047 135.992C154.224 135.466 154.479 135.01 154.812 134.625C155.146 134.234 155.549 133.932 156.023 133.719C156.497 133.5 157.029 133.391 157.617 133.391C158.211 133.391 158.745 133.5 159.219 133.719C159.698 133.932 160.104 134.234 160.438 134.625C160.776 135.01 161.034 135.466 161.211 135.992C161.388 136.513 161.477 137.078 161.477 137.688V137.867C161.477 138.477 161.388 139.042 161.211 139.562C161.034 140.083 160.776 140.539 160.438 140.93C160.104 141.315 159.701 141.617 159.227 141.836C158.758 142.049 158.227 142.156 157.633 142.156C157.039 142.156 156.505 142.049 156.031 141.836C155.557 141.617 155.151 141.315 154.812 140.93C154.479 140.539 154.224 140.083 154.047 139.562C153.87 139.042 153.781 138.477 153.781 137.867ZM155.227 137.688V137.867C155.227 138.289 155.276 138.688 155.375 139.062C155.474 139.432 155.622 139.76 155.82 140.047C156.023 140.333 156.276 140.56 156.578 140.727C156.88 140.888 157.232 140.969 157.633 140.969C158.029 140.969 158.375 140.888 158.672 140.727C158.974 140.56 159.224 140.333 159.422 140.047C159.62 139.76 159.768 139.432 159.867 139.062C159.971 138.688 160.023 138.289 160.023 137.867V137.688C160.023 137.271 159.971 136.878 159.867 136.508C159.768 136.133 159.617 135.802 159.414 135.516C159.216 135.224 158.966 134.995 158.664 134.828C158.367 134.661 158.018 134.578 157.617 134.578C157.221 134.578 156.872 134.661 156.57 134.828C156.273 134.995 156.023 135.224 155.82 135.516C155.622 135.802 155.474 136.133 155.375 136.508C155.276 136.878 155.227 137.271 155.227 137.688Z" fill="#333333"/>
<rect x="320" y="376" width="85" height="21" fill="white"/>
<path d="M356.406 380.625V392H354.898V380.625H356.406ZM361.172 385.742V386.977H356.078V385.742H361.172ZM361.945 380.625V381.859H356.078V380.625H361.945ZM365.477 385.602H366.508C367.013 385.602 367.43 385.518 367.758 385.352C368.091 385.18 368.339 384.948 368.5 384.656C368.667 384.359 368.75 384.026 368.75 383.656C368.75 383.219 368.677 382.852 368.531 382.555C368.385 382.258 368.167 382.034 367.875 381.883C367.583 381.732 367.214 381.656 366.766 381.656C366.359 381.656 366 381.737 365.688 381.898C365.38 382.055 365.138 382.279 364.961 382.57C364.789 382.862 364.703 383.206 364.703 383.602H363.258C363.258 383.023 363.404 382.497 363.695 382.023C363.987 381.549 364.396 381.172 364.922 380.891C365.453 380.609 366.068 380.469 366.766 380.469C367.453 380.469 368.055 380.591 368.57 380.836C369.086 381.076 369.487 381.435 369.773 381.914C370.06 382.388 370.203 382.979 370.203 383.688C370.203 383.974 370.135 384.281 370 384.609C369.87 384.932 369.664 385.234 369.383 385.516C369.107 385.797 368.747 386.029 368.305 386.211C367.862 386.388 367.331 386.477 366.711 386.477H365.477V385.602ZM365.477 386.789V385.922H366.711C367.435 385.922 368.034 386.008 368.508 386.18C368.982 386.352 369.354 386.581 369.625 386.867C369.901 387.154 370.094 387.469 370.203 387.812C370.318 388.151 370.375 388.49 370.375 388.828C370.375 389.359 370.284 389.831 370.102 390.242C369.924 390.654 369.672 391.003 369.344 391.289C369.021 391.576 368.641 391.792 368.203 391.938C367.766 392.083 367.289 392.156 366.773 392.156C366.279 392.156 365.812 392.086 365.375 391.945C364.943 391.805 364.56 391.602 364.227 391.336C363.893 391.065 363.633 390.734 363.445 390.344C363.258 389.948 363.164 389.497 363.164 388.992H364.609C364.609 389.388 364.695 389.734 364.867 390.031C365.044 390.328 365.294 390.56 365.617 390.727C365.945 390.888 366.331 390.969 366.773 390.969C367.216 390.969 367.596 390.893 367.914 390.742C368.237 390.586 368.484 390.352 368.656 390.039C368.833 389.727 368.922 389.333 368.922 388.859C368.922 388.385 368.823 387.997 368.625 387.695C368.427 387.388 368.146 387.161 367.781 387.016C367.422 386.865 366.997 386.789 366.508 386.789H365.477Z" fill="#333333"/>
<rect x="184" y="376" width="85" height="21" fill="white"/>
<path d="M220.406 380.625V392H218.898V380.625H220.406ZM225.172 385.742V386.977H220.078V385.742H225.172ZM225.945 380.625V381.859H220.078V380.625H225.945ZM234.82 390.812V392H227.375V390.961L231.102 386.812C231.56 386.302 231.914 385.87 232.164 385.516C232.419 385.156 232.596 384.836 232.695 384.555C232.799 384.268 232.852 383.977 232.852 383.68C232.852 383.305 232.773 382.966 232.617 382.664C232.466 382.357 232.242 382.112 231.945 381.93C231.648 381.747 231.289 381.656 230.867 381.656C230.362 381.656 229.94 381.755 229.602 381.953C229.268 382.146 229.018 382.417 228.852 382.766C228.685 383.115 228.602 383.516 228.602 383.969H227.156C227.156 383.328 227.297 382.742 227.578 382.211C227.859 381.68 228.276 381.258 228.828 380.945C229.38 380.628 230.06 380.469 230.867 380.469C231.586 380.469 232.201 380.596 232.711 380.852C233.221 381.102 233.612 381.456 233.883 381.914C234.159 382.367 234.297 382.898 234.297 383.508C234.297 383.841 234.24 384.18 234.125 384.523C234.016 384.862 233.862 385.201 233.664 385.539C233.471 385.878 233.245 386.211 232.984 386.539C232.729 386.867 232.456 387.19 232.164 387.508L229.117 390.812H234.82Z" fill="#333333"/>
<rect x="48" y="376" width="85" height="21" fill="white"/>
<path d="M84.4062 380.625V392H82.8984V380.625H84.4062ZM89.1719 385.742V386.977H84.0781V385.742H89.1719ZM89.9453 380.625V381.859H84.0781V380.625H89.9453ZM96.1172 380.562V392H94.6719V382.367L91.7578 383.43V382.125L95.8906 380.562H96.1172Z" fill="#333333"/>
<circle cx="293.5" cy="95.5" r="72" fill="#455178" stroke="#455178" stroke-dasharray="2 2"/>
<path d="M165.46 246.197L165.5 246.103L165.5 239.897L165.46 239.803L162.969 233.99L182.792 243L162.969 252.011L165.46 246.197Z" fill="#D97D41" stroke="#D97D41"/>
<rect x="165" y="246" width="3" height="6" transform="rotate(-180 165 246)" fill="#D97D41"/>
<path d="M162 246L157 246L157 240L162 240L162 246Z" fill="#D97D41"/>
<path d="M157 253L157 240L154.5 240C153.119 240 152 241.119 152 242.5L152 253L157 253Z" fill="#D97D41"/>
<path d="M157 253L157 434.5C157 435.881 155.881 437 154.5 437V437C153.119 437 152 435.881 152 434.5L152 253L157 253Z" fill="#D97D41"/>
<path d="M301.46 246.197L301.5 246.103L301.5 239.897L301.46 239.803L298.969 233.99L318.792 243L298.969 252.011L301.46 246.197Z" fill="#D97D41" stroke="#D97D41"/>
<rect x="301" y="246" width="3" height="6" transform="rotate(-180 301 246)" fill="#D97D41"/>
<path d="M298 246L293 246L293 240L298 240L298 246Z" fill="#D97D41"/>
<path d="M293 253L293 240L290.5 240C289.119 240 288 241.119 288 242.5L288 253L293 253Z" fill="#D97D41"/>
<path d="M293 253L293 434.5C293 435.881 291.881 437 290.5 437V437C289.119 437 288 435.881 288 434.5L288 253L293 253Z" fill="#D97D41"/>
<path d="M437.46 246.197L437.5 246.103L437.5 239.897L437.46 239.803L434.969 233.99L454.792 243L434.969 252.011L437.46 246.197Z" fill="#D97D41" stroke="#D97D41"/>
<rect x="437" y="246" width="3" height="6" transform="rotate(-180 437 246)" fill="#D97D41"/>
<path d="M434 246L429 246L429 240L434 240L434 246Z" fill="#D97D41"/>
<path d="M429 253L429 240L426.5 240C425.119 240 424 241.119 424 242.5L424 253L429 253Z" fill="#D97D41"/>
<path d="M429 253L429 434.5C429 435.881 427.881 437 426.5 437V437C425.119 437 424 435.881 424 434.5L424 253L429 253Z" fill="#D97D41"/>
<path d="M29.46 246.197L29.5 246.103L29.5 239.897L29.46 239.803L26.9688 233.99L46.792 243L26.9688 252.011L29.46 246.197Z" fill="#D97D41" stroke="#D97D41"/>
<rect x="29" y="246" width="3" height="6" transform="rotate(-180 29 246)" fill="#D97D41"/>
<path d="M26 246L21 246L21 240L26 240L26 246Z" fill="#D97D41"/>
<path d="M21 253L21 240L18.5 240C17.1193 240 16 241.119 16 242.5L16 253L21 253Z" fill="#D97D41"/>
<path d="M21 253L21 434.5C21 435.881 19.8807 437 18.5 437V437C17.1193 437 16 435.881 16 434.5L16 253L21 253Z" fill="#D97D41"/>
<path d="M368.197 415.54L368.103 415.5L361.897 415.5L361.803 415.54L355.99 418.031L365 398.208L374.011 418.031L368.197 415.54Z" fill="#D97D41" stroke="#D97D41"/>
<rect x="368" y="416" width="3" height="6" transform="rotate(90 368 416)" fill="#D97D41"/>
<path d="M368 419L368 434C368 435.657 366.657 437 365 437V437C363.343 437 362 435.657 362 434L362 419L368 419Z" fill="#D97D41"/>
<path d="M502.197 415.54L502.103 415.5L495.897 415.5L495.803 415.54L489.99 418.031L499 398.208L508.011 418.031L502.197 415.54Z" fill="#D97D41" stroke="#D97D41"/>
<rect x="502" y="416" width="3" height="6" transform="rotate(90 502 416)" fill="#D97D41"/>
<path d="M502 419L502 434C502 435.657 500.657 437 499 437V437C497.343 437 496 435.657 496 434L496 419L502 419Z" fill="#D97D41"/>
<path d="M230.197 415.54L230.103 415.5L223.897 415.5L223.803 415.54L217.99 418.031L227 398.208L236.011 418.031L230.197 415.54Z" fill="#D97D41" stroke="#D97D41"/>
<rect x="230" y="416" width="3" height="6" transform="rotate(90 230 416)" fill="#D97D41"/>
<path d="M230 419L230 434C230 435.657 228.657 437 227 437V437C225.343 437 224 435.657 224 434L224 419L230 419Z" fill="#D97D41"/>
<path d="M94.1973 415.54L94.1025 415.5L87.8975 415.5L87.8027 415.54L81.9902 418.031L91 398.208L100.011 418.031L94.1973 415.54Z" fill="#D97D41" stroke="#D97D41"/>
<rect x="94" y="416" width="3" height="6" transform="rotate(90 94 416)" fill="#D97D41"/>
<path d="M94 419L94 434C94 435.657 92.6569 437 91 437V437C89.3431 437 88 435.657 88 434L88 419L94 419Z" fill="#D97D41"/>
<path d="M21.7617 442.354V468H16.6992V448.189L10.6172 450.123V446.133L21.2168 442.354H21.7617Z" fill="#333333"/>
<path d="M99.9297 464.045V468H82.4219V464.625L90.7012 455.748C91.5332 454.822 92.1895 454.008 92.6699 453.305C93.1504 452.59 93.4961 451.951 93.707 451.389C93.9297 450.814 94.041 450.27 94.041 449.754C94.041 448.98 93.9121 448.318 93.6543 447.768C93.3965 447.205 93.0156 446.771 92.5117 446.467C92.0195 446.162 91.4102 446.01 90.6836 446.01C89.9102 446.01 89.2422 446.197 88.6797 446.572C88.1289 446.947 87.707 447.469 87.4141 448.137C87.1328 448.805 86.9922 449.561 86.9922 450.404H81.9121C81.9121 448.881 82.2754 447.486 83.002 446.221C83.7285 444.943 84.7539 443.93 86.0781 443.18C87.4023 442.418 88.9727 442.037 90.7891 442.037C92.582 442.037 94.0938 442.33 95.3242 442.916C96.5664 443.49 97.5039 444.322 98.1367 445.412C98.7812 446.49 99.1035 447.779 99.1035 449.279C99.1035 450.123 98.9688 450.949 98.6992 451.758C98.4297 452.555 98.043 453.352 97.5391 454.148C97.0469 454.934 96.4492 455.73 95.7461 456.539C95.043 457.348 94.2637 458.186 93.4082 459.053L88.9609 464.045H99.9297Z" fill="#333333"/>
<path d="M150.607 453.006H153.314C154.182 453.006 154.896 452.859 155.459 452.566C156.021 452.262 156.438 451.84 156.707 451.301C156.988 450.75 157.129 450.111 157.129 449.385C157.129 448.729 157 448.148 156.742 447.645C156.496 447.129 156.115 446.73 155.6 446.449C155.084 446.156 154.434 446.01 153.648 446.01C153.027 446.01 152.453 446.133 151.926 446.379C151.398 446.625 150.977 446.971 150.66 447.416C150.344 447.861 150.186 448.4 150.186 449.033H145.105C145.105 447.627 145.48 446.402 146.23 445.359C146.992 444.316 148.012 443.502 149.289 442.916C150.566 442.33 151.973 442.037 153.508 442.037C155.242 442.037 156.76 442.318 158.061 442.881C159.361 443.432 160.375 444.246 161.102 445.324C161.828 446.402 162.191 447.738 162.191 449.332C162.191 450.141 162.004 450.926 161.629 451.688C161.254 452.438 160.715 453.117 160.012 453.727C159.32 454.324 158.477 454.805 157.48 455.168C156.484 455.52 155.365 455.695 154.123 455.695H150.607V453.006ZM150.607 456.855V454.236H154.123C155.518 454.236 156.742 454.395 157.797 454.711C158.852 455.027 159.736 455.484 160.451 456.082C161.166 456.668 161.705 457.365 162.068 458.174C162.432 458.971 162.613 459.855 162.613 460.828C162.613 462.023 162.385 463.09 161.928 464.027C161.471 464.953 160.826 465.738 159.994 466.383C159.174 467.027 158.213 467.52 157.111 467.859C156.01 468.188 154.809 468.352 153.508 468.352C152.43 468.352 151.369 468.205 150.326 467.912C149.295 467.607 148.357 467.156 147.514 466.559C146.682 465.949 146.014 465.188 145.51 464.273C145.018 463.348 144.771 462.252 144.771 460.986H149.852C149.852 461.643 150.016 462.229 150.344 462.744C150.672 463.26 151.123 463.664 151.697 463.957C152.283 464.25 152.934 464.396 153.648 464.396C154.457 464.396 155.148 464.25 155.723 463.957C156.309 463.652 156.754 463.23 157.059 462.691C157.375 462.141 157.533 461.502 157.533 460.775C157.533 459.838 157.363 459.088 157.023 458.525C156.684 457.951 156.197 457.529 155.564 457.26C154.932 456.99 154.182 456.855 153.314 456.855H150.607Z" fill="#333333"/>
<path d="M236.352 458.438V462.41H217.912L217.666 459.334L228.336 442.406H232.361L228.002 449.701L222.693 458.438H236.352ZM233.451 442.406V468H228.389V442.406H233.451Z" fill="#333333"/>
<path d="M287.186 456.346L283.143 455.379L284.602 442.406H298.98V446.502H288.768L288.135 452.18C288.475 451.98 288.99 451.77 289.682 451.547C290.373 451.312 291.146 451.195 292.002 451.195C293.244 451.195 294.346 451.389 295.307 451.775C296.268 452.162 297.082 452.725 297.75 453.463C298.43 454.201 298.945 455.104 299.297 456.17C299.648 457.236 299.824 458.443 299.824 459.791C299.824 460.928 299.648 462.012 299.297 463.043C298.945 464.062 298.412 464.977 297.697 465.785C296.982 466.582 296.086 467.209 295.008 467.666C293.93 468.123 292.652 468.352 291.176 468.352C290.074 468.352 289.008 468.188 287.977 467.859C286.957 467.531 286.037 467.045 285.217 466.4C284.408 465.756 283.758 464.977 283.266 464.062C282.785 463.137 282.533 462.082 282.51 460.898H287.537C287.607 461.625 287.795 462.252 288.1 462.779C288.416 463.295 288.832 463.693 289.348 463.975C289.863 464.256 290.467 464.396 291.158 464.396C291.803 464.396 292.354 464.273 292.811 464.027C293.268 463.781 293.637 463.441 293.918 463.008C294.199 462.562 294.404 462.047 294.533 461.461C294.674 460.863 294.744 460.219 294.744 459.527C294.744 458.836 294.662 458.209 294.498 457.646C294.334 457.084 294.082 456.598 293.742 456.188C293.402 455.777 292.969 455.461 292.441 455.238C291.926 455.016 291.322 454.904 290.631 454.904C289.693 454.904 288.967 455.051 288.451 455.344C287.947 455.637 287.525 455.971 287.186 456.346Z" fill="#333333"/>
<path d="M369.482 442.143H370.221V446.186H369.922C368.586 446.186 367.396 446.385 366.354 446.783C365.311 447.182 364.426 447.75 363.699 448.488C362.984 449.215 362.434 450.094 362.047 451.125C361.672 452.156 361.484 453.311 361.484 454.588V458.842C361.484 459.756 361.572 460.564 361.748 461.268C361.936 461.959 362.199 462.539 362.539 463.008C362.891 463.465 363.301 463.811 363.77 464.045C364.238 464.268 364.766 464.379 365.352 464.379C365.902 464.379 366.4 464.262 366.846 464.027C367.303 463.793 367.689 463.465 368.006 463.043C368.334 462.609 368.58 462.105 368.744 461.531C368.92 460.945 369.008 460.307 369.008 459.615C369.008 458.924 368.92 458.285 368.744 457.699C368.58 457.113 368.334 456.609 368.006 456.188C367.678 455.754 367.279 455.42 366.811 455.186C366.342 454.951 365.814 454.834 365.229 454.834C364.432 454.834 363.729 455.021 363.119 455.396C362.521 455.76 362.053 456.229 361.713 456.803C361.373 457.377 361.191 457.98 361.168 458.613L359.639 457.629C359.674 456.727 359.861 455.871 360.201 455.062C360.553 454.254 361.033 453.539 361.643 452.918C362.264 452.285 363.008 451.793 363.875 451.441C364.742 451.078 365.721 450.896 366.811 450.896C368.006 450.896 369.055 451.125 369.957 451.582C370.871 452.039 371.633 452.666 372.242 453.463C372.852 454.26 373.309 455.18 373.613 456.223C373.918 457.266 374.07 458.379 374.07 459.562C374.07 460.805 373.865 461.959 373.455 463.025C373.057 464.092 372.477 465.023 371.715 465.82C370.965 466.617 370.062 467.238 369.008 467.684C367.953 468.129 366.77 468.352 365.457 468.352C364.098 468.352 362.861 468.105 361.748 467.613C360.646 467.109 359.697 466.406 358.9 465.504C358.104 464.602 357.488 463.529 357.055 462.287C356.633 461.045 356.422 459.686 356.422 458.209V456.24C356.422 454.178 356.721 452.291 357.318 450.58C357.928 448.857 358.801 447.369 359.938 446.115C361.074 444.85 362.445 443.871 364.051 443.18C365.656 442.488 367.467 442.143 369.482 442.143Z" fill="#333333"/>
<path d="M435.807 442.406V445.131L425.91 468H420.566L430.463 446.361H417.719V442.406H435.807Z" fill="#333333"/>
<path d="M507.666 460.986C507.666 462.592 507.291 463.945 506.541 465.047C505.791 466.137 504.76 466.963 503.447 467.525C502.146 468.076 500.67 468.352 499.018 468.352C497.365 468.352 495.883 468.076 494.57 467.525C493.258 466.963 492.221 466.137 491.459 465.047C490.697 463.945 490.316 462.592 490.316 460.986C490.316 459.908 490.533 458.936 490.967 458.068C491.4 457.189 492.004 456.439 492.777 455.818C493.562 455.186 494.482 454.705 495.537 454.377C496.592 454.037 497.74 453.867 498.982 453.867C500.646 453.867 502.135 454.16 503.447 454.746C504.76 455.332 505.791 456.158 506.541 457.225C507.291 458.291 507.666 459.545 507.666 460.986ZM502.568 460.652C502.568 459.867 502.416 459.193 502.111 458.631C501.818 458.057 501.402 457.617 500.863 457.312C500.324 457.008 499.697 456.855 498.982 456.855C498.268 456.855 497.641 457.008 497.102 457.312C496.562 457.617 496.141 458.057 495.836 458.631C495.543 459.193 495.396 459.867 495.396 460.652C495.396 461.426 495.543 462.094 495.836 462.656C496.141 463.219 496.562 463.652 497.102 463.957C497.652 464.25 498.291 464.396 499.018 464.396C499.744 464.396 500.371 464.25 500.898 463.957C501.438 463.652 501.848 463.219 502.129 462.656C502.422 462.094 502.568 461.426 502.568 460.652ZM507.121 449.191C507.121 450.492 506.775 451.646 506.084 452.654C505.393 453.65 504.432 454.43 503.201 454.992C501.982 455.555 500.588 455.836 499.018 455.836C497.436 455.836 496.029 455.555 494.799 454.992C493.568 454.43 492.607 453.65 491.916 452.654C491.225 451.646 490.879 450.492 490.879 449.191C490.879 447.645 491.225 446.344 491.916 445.289C492.619 444.223 493.58 443.414 494.799 442.863C496.029 442.312 497.424 442.037 498.982 442.037C500.564 442.037 501.965 442.312 503.184 442.863C504.414 443.414 505.375 444.223 506.066 445.289C506.77 446.344 507.121 447.645 507.121 449.191ZM502.059 449.42C502.059 448.729 501.936 448.131 501.689 447.627C501.443 447.111 501.092 446.713 500.635 446.432C500.189 446.15 499.639 446.01 498.982 446.01C498.35 446.01 497.805 446.145 497.348 446.414C496.902 446.684 496.557 447.076 496.311 447.592C496.076 448.096 495.959 448.705 495.959 449.42C495.959 450.111 496.076 450.721 496.311 451.248C496.557 451.764 496.908 452.168 497.365 452.461C497.822 452.754 498.373 452.9 499.018 452.9C499.662 452.9 500.207 452.754 500.652 452.461C501.109 452.168 501.455 451.764 501.689 451.248C501.936 450.721 502.059 450.111 502.059 449.42Z" fill="#333333"/>
<defs>
<filter id="filter0_d_2616_3599" x="410" y="64" width="85.8887" height="56" filterUnits="userSpaceOnUse" color-interpolation-filters="sRGB">
<feFlood flood-opacity="0" result="BackgroundImageFix"/>
<feColorMatrix in="SourceAlpha" type="matrix" values="0 0 0 0 0 0 0 0 0 0 0 0 0 0 0 0 0 0 127 0" result="hardAlpha"/>
<feOffset/>
<feComposite in2="hardAlpha" operator="out"/>
<feColorMatrix type="matrix" values="0 0 0 0 0 0 0 0 0 0 0 0 0 0 0 0 0 0 1 0"/>
<feBlend mode="normal" in2="BackgroundImageFix" result="effect1_dropShadow_2616_3599"/>
<feBlend mode="normal" in="SourceGraphic" in2="effect1_dropShadow_2616_3599" result="shape"/>
</filter>
<filter id="filter1_d_2616_3599" x="411" y="65" width="83.3389" height="54" filterUnits="userSpaceOnUse" color-interpolation-filters="sRGB">
<feFlood flood-opacity="0" result="BackgroundImageFix"/>
<feColorMatrix in="SourceAlpha" type="matrix" values="0 0 0 0 0 0 0 0 0 0 0 0 0 0 0 0 0 0 127 0" result="hardAlpha"/>
<feOffset/>
<feComposite in2="hardAlpha" operator="out"/>
<feColorMatrix type="matrix" values="0 0 0 0 0 0 0 0 0 0 0 0 0 0 0 0 0 0 1 0"/>
<feBlend mode="normal" in2="BackgroundImageFix" result="effect1_dropShadow_2616_3599"/>
<feBlend mode="normal" in="SourceGraphic" in2="effect1_dropShadow_2616_3599" result="shape"/>
</filter>
<filter id="filter2_d_2616_3599" x="92.1113" y="64" width="85.8887" height="56" filterUnits="userSpaceOnUse" color-interpolation-filters="sRGB">
<feFlood flood-opacity="0" result="BackgroundImageFix"/>
<feColorMatrix in="SourceAlpha" type="matrix" values="0 0 0 0 0 0 0 0 0 0 0 0 0 0 0 0 0 0 127 0" result="hardAlpha"/>
<feOffset/>
<feComposite in2="hardAlpha" operator="out"/>
<feColorMatrix type="matrix" values="0 0 0 0 0 0 0 0 0 0 0 0 0 0 0 0 0 0 1 0"/>
<feBlend mode="normal" in2="BackgroundImageFix" result="effect1_dropShadow_2616_3599"/>
<feBlend mode="normal" in="SourceGraphic" in2="effect1_dropShadow_2616_3599" result="shape"/>
</filter>
<filter id="filter3_d_2616_3599" x="93.6611" y="65" width="83.3389" height="54" filterUnits="userSpaceOnUse" color-interpolation-filters="sRGB">
<feFlood flood-opacity="0" result="BackgroundImageFix"/>
<feColorMatrix in="SourceAlpha" type="matrix" values="0 0 0 0 0 0 0 0 0 0 0 0 0 0 0 0 0 0 127 0" result="hardAlpha"/>
<feOffset/>
<feComposite in2="hardAlpha" operator="out"/>
<feColorMatrix type="matrix" values="0 0 0 0 0 0 0 0 0 0 0 0 0 0 0 0 0 0 1 0"/>
<feBlend mode="normal" in2="BackgroundImageFix" result="effect1_dropShadow_2616_3599"/>
<feBlend mode="normal" in="SourceGraphic" in2="effect1_dropShadow_2616_3599" result="shape"/>
</filter>
<filter id="filter4_i_2616_3599" x="456" y="215" width="85" height="56" filterUnits="userSpaceOnUse" color-interpolation-filters="sRGB">
<feFlood flood-opacity="0" result="BackgroundImageFix"/>
<feBlend mode="normal" in="SourceGraphic" in2="BackgroundImageFix" result="shape"/>
<feColorMatrix in="SourceAlpha" type="matrix" values="0 0 0 0 0 0 0 0 0 0 0 0 0 0 0 0 0 0 127 0" result="hardAlpha"/>
<feMorphology radius="2" operator="erode" in="SourceAlpha" result="effect1_innerShadow_2616_3599"/>
<feOffset/>
<feComposite in2="hardAlpha" operator="arithmetic" k2="-1" k3="1"/>
<feColorMatrix type="matrix" values="0 0 0 0 0.235294 0 0 0 0 0.235294 0 0 0 0 0.235294 0 0 0 1 0"/>
<feBlend mode="normal" in2="shape" result="effect1_innerShadow_2616_3599"/>
</filter>
<filter id="filter5_i_2616_3599" x="320" y="215" width="85" height="56" filterUnits="userSpaceOnUse" color-interpolation-filters="sRGB">
<feFlood flood-opacity="0" result="BackgroundImageFix"/>
<feBlend mode="normal" in="SourceGraphic" in2="BackgroundImageFix" result="shape"/>
<feColorMatrix in="SourceAlpha" type="matrix" values="0 0 0 0 0 0 0 0 0 0 0 0 0 0 0 0 0 0 127 0" result="hardAlpha"/>
<feMorphology radius="2" operator="erode" in="SourceAlpha" result="effect1_innerShadow_2616_3599"/>
<feOffset/>
<feComposite in2="hardAlpha" operator="arithmetic" k2="-1" k3="1"/>
<feColorMatrix type="matrix" values="0 0 0 0 0.235294 0 0 0 0 0.235294 0 0 0 0 0.235294 0 0 0 1 0"/>
<feBlend mode="normal" in2="shape" result="effect1_innerShadow_2616_3599"/>
</filter>
<filter id="filter6_i_2616_3599" x="184" y="215" width="85" height="56" filterUnits="userSpaceOnUse" color-interpolation-filters="sRGB">
<feFlood flood-opacity="0" result="BackgroundImageFix"/>
<feBlend mode="normal" in="SourceGraphic" in2="BackgroundImageFix" result="shape"/>
<feColorMatrix in="SourceAlpha" type="matrix" values="0 0 0 0 0 0 0 0 0 0 0 0 0 0 0 0 0 0 127 0" result="hardAlpha"/>
<feMorphology radius="2" operator="erode" in="SourceAlpha" result="effect1_innerShadow_2616_3599"/>
<feOffset/>
<feComposite in2="hardAlpha" operator="arithmetic" k2="-1" k3="1"/>
<feColorMatrix type="matrix" values="0 0 0 0 0.235294 0 0 0 0 0.235294 0 0 0 0 0.235294 0 0 0 1 0"/>
<feBlend mode="normal" in2="shape" result="effect1_innerShadow_2616_3599"/>
</filter>
<filter id="filter7_i_2616_3599" x="48" y="215" width="85" height="56" filterUnits="userSpaceOnUse" color-interpolation-filters="sRGB">
<feFlood flood-opacity="0" result="BackgroundImageFix"/>
<feBlend mode="normal" in="SourceGraphic" in2="BackgroundImageFix" result="shape"/>
<feColorMatrix in="SourceAlpha" type="matrix" values="0 0 0 0 0 0 0 0 0 0 0 0 0 0 0 0 0 0 127 0" result="hardAlpha"/>
<feMorphology radius="2" operator="erode" in="SourceAlpha" result="effect1_innerShadow_2616_3599"/>
<feOffset/>
<feComposite in2="hardAlpha" operator="arithmetic" k2="-1" k3="1"/>
<feColorMatrix type="matrix" values="0 0 0 0 0.235294 0 0 0 0 0.235294 0 0 0 0 0.235294 0 0 0 1 0"/>
<feBlend mode="normal" in2="shape" result="effect1_innerShadow_2616_3599"/>
</filter>
<filter id="filter8_i_2616_3599" x="47" y="314" width="85" height="56" filterUnits="userSpaceOnUse" color-interpolation-filters="sRGB">
<feFlood flood-opacity="0" result="BackgroundImageFix"/>
<feBlend mode="normal" in="SourceGraphic" in2="BackgroundImageFix" result="shape"/>
<feColorMatrix in="SourceAlpha" type="matrix" values="0 0 0 0 0 0 0 0 0 0 0 0 0 0 0 0 0 0 127 0" result="hardAlpha"/>
<feMorphology radius="2" operator="erode" in="SourceAlpha" result="effect1_innerShadow_2616_3599"/>
<feOffset/>
<feComposite in2="hardAlpha" operator="arithmetic" k2="-1" k3="1"/>
<feColorMatrix type="matrix" values="0 0 0 0 0.235294 0 0 0 0 0.235294 0 0 0 0 0.235294 0 0 0 1 0"/>
<feBlend mode="normal" in2="shape" result="effect1_innerShadow_2616_3599"/>
</filter>
<filter id="filter9_i_2616_3599" x="183" y="314" width="85" height="56" filterUnits="userSpaceOnUse" color-interpolation-filters="sRGB">
<feFlood flood-opacity="0" result="BackgroundImageFix"/>
<feBlend mode="normal" in="SourceGraphic" in2="BackgroundImageFix" result="shape"/>
<feColorMatrix in="SourceAlpha" type="matrix" values="0 0 0 0 0 0 0 0 0 0 0 0 0 0 0 0 0 0 127 0" result="hardAlpha"/>
<feMorphology radius="2" operator="erode" in="SourceAlpha" result="effect1_innerShadow_2616_3599"/>
<feOffset/>
<feComposite in2="hardAlpha" operator="arithmetic" k2="-1" k3="1"/>
<feColorMatrix type="matrix" values="0 0 0 0 0.235294 0 0 0 0 0.235294 0 0 0 0 0.235294 0 0 0 1 0"/>
<feBlend mode="normal" in2="shape" result="effect1_innerShadow_2616_3599"/>
</filter>
<filter id="filter10_i_2616_3599" x="319" y="314" width="85" height="56" filterUnits="userSpaceOnUse" color-interpolation-filters="sRGB">
<feFlood flood-opacity="0" result="BackgroundImageFix"/>
<feBlend mode="normal" in="SourceGraphic" in2="BackgroundImageFix" result="shape"/>
<feColorMatrix in="SourceAlpha" type="matrix" values="0 0 0 0 0 0 0 0 0 0 0 0 0 0 0 0 0 0 127 0" result="hardAlpha"/>
<feMorphology radius="2" operator="erode" in="SourceAlpha" result="effect1_innerShadow_2616_3599"/>
<feOffset/>
<feComposite in2="hardAlpha" operator="arithmetic" k2="-1" k3="1"/>
<feColorMatrix type="matrix" values="0 0 0 0 0.235294 0 0 0 0 0.235294 0 0 0 0 0.235294 0 0 0 1 0"/>
<feBlend mode="normal" in2="shape" result="effect1_innerShadow_2616_3599"/>
</filter>
<filter id="filter11_i_2616_3599" x="456" y="314" width="85" height="56" filterUnits="userSpaceOnUse" color-interpolation-filters="sRGB">
<feFlood flood-opacity="0" result="BackgroundImageFix"/>
<feBlend mode="normal" in="SourceGraphic" in2="BackgroundImageFix" result="shape"/>
<feColorMatrix in="SourceAlpha" type="matrix" values="0 0 0 0 0 0 0 0 0 0 0 0 0 0 0 0 0 0 127 0" result="hardAlpha"/>
<feMorphology radius="2" operator="erode" in="SourceAlpha" result="effect1_innerShadow_2616_3599"/>
<feOffset/>
<feComposite in2="hardAlpha" operator="arithmetic" k2="-1" k3="1"/>
<feColorMatrix type="matrix" values="0 0 0 0 0.235294 0 0 0 0 0.235294 0 0 0 0 0.235294 0 0 0 1 0"/>
<feBlend mode="normal" in2="shape" result="effect1_innerShadow_2616_3599"/>
</filter>
<clipPath id="clip0_2616_3599">
<rect width="217" height="176" fill="white" transform="translate(185 20)"/>
</clipPath>
</defs>
</svg>
