<svg width="300" height="300" viewBox="0 0 300 300" fill="none" xmlns="http://www.w3.org/2000/svg">
<path fill-rule="evenodd" clip-rule="evenodd" d="M240.534 221.839C262.394 193.082 280.1 158.859 284.086 126.004C276.567 114.982 270.799 109.665 266.848 107.588C264.975 106.604 263.873 106.538 263.335 106.585C262.831 106.628 262.112 106.828 261.076 107.675C258.653 109.658 255.746 114.173 252.961 122.011C250.277 129.563 248.098 139.05 246.364 149.605C242.901 170.686 241.389 194.911 240.755 214.026C240.664 216.748 240.592 219.36 240.534 221.839ZM283.848 97.8648C277.675 57.3762 245.973 33.6676 213.506 20.8429L228.558 147.169C228.584 147.01 228.61 146.852 228.636 146.693C230.458 135.601 232.848 124.954 236.032 115.995C239.115 107.321 243.374 98.9457 249.7 93.7704C253.039 91.0384 257.09 89.0918 261.787 88.6856C266.452 88.2822 270.982 89.4637 275.209 91.6859C278.092 93.2015 280.966 95.27 283.848 97.8648ZM194.165 14.4159C179.752 10.4646 166.198 8.5092 155.812 8.00004L173.391 202.049L194.165 14.4159ZM136.947 8.97428C122.439 11.1119 103.996 16.3426 85.9109 24.762L108.338 209.24L136.947 8.97428ZM66.0923 35.4894C38.5478 52.7679 16.0004 78.2901 16.0002 112.446C16.0001 125.369 18.9065 139.186 23.907 153.202C27.6766 149.917 31.372 145.44 34.9772 139.733C43.0488 126.957 49.4731 109.826 54.4322 92.1929C59.3603 74.6708 62.6952 57.1933 64.799 44.048C65.299 40.9238 65.7284 38.0514 66.0923 35.4894ZM31.0201 170.412C38.6466 165.112 44.9721 157.55 50.1661 149.329C59.5926 134.407 66.5806 115.357 71.7273 97.0571C72.9272 92.7908 74.0351 88.5354 75.0562 84.3465L96.3331 259.366C71.8614 236.291 46.5334 203.591 31.0201 170.412ZM116.865 276.585L144.549 82.8007L163.225 288.959C158.483 290.769 154.178 291.729 150.464 291.729C141.818 291.729 129.97 286.125 116.865 276.585ZM183.035 278.21L203.767 90.9553L221.993 243.926C208.938 258.026 195.399 269.849 183.035 278.21Z" fill="#F7CB15"/>
</svg>
