<svg width="324" height="102" viewBox="0 0 324 102" fill="none" xmlns="http://www.w3.org/2000/svg">
<rect x="0.5" y="0.5" width="77" height="101" rx="8.5" fill="#001724" stroke="black"/>
<path d="M16.6318 18V9.0791H13.4458V7.2627H21.9785V9.0791H18.7998V18H16.6318ZM24.5054 18H22.4473V10.2217H24.3589V11.3276C24.686 10.8052 24.979 10.4609 25.2378 10.2949C25.5015 10.1289 25.7993 10.0459 26.1313 10.0459C26.6001 10.0459 27.0518 10.1753 27.4863 10.4341L26.8491 12.2285C26.5024 12.0039 26.1802 11.8916 25.8823 11.8916C25.5942 11.8916 25.3501 11.9722 25.1499 12.1333C24.9497 12.2896 24.791 12.5752 24.6738 12.9902C24.5615 13.4053 24.5054 14.2744 24.5054 15.5977V18ZM29.918 12.5947L28.0503 12.2578C28.2603 11.5059 28.6216 10.9492 29.1343 10.5879C29.647 10.2266 30.4087 10.0459 31.4194 10.0459C32.3374 10.0459 33.021 10.1558 33.4702 10.3755C33.9194 10.5903 34.2344 10.8662 34.415 11.2031C34.6006 11.5352 34.6934 12.1479 34.6934 13.0415L34.6714 15.4438C34.6714 16.1274 34.7031 16.6328 34.7666 16.96C34.835 17.2822 34.9595 17.6289 35.1401 18H33.104C33.0503 17.8633 32.9844 17.6606 32.9062 17.3921C32.8721 17.27 32.8477 17.1895 32.833 17.1504C32.4814 17.4922 32.1055 17.7485 31.7051 17.9194C31.3047 18.0903 30.8774 18.1758 30.4233 18.1758C29.6226 18.1758 28.9902 17.9585 28.5264 17.5239C28.0674 17.0894 27.8379 16.54 27.8379 15.876C27.8379 15.4365 27.9429 15.0459 28.1528 14.7041C28.3628 14.3574 28.6558 14.0938 29.0317 13.9131C29.4126 13.7275 29.9595 13.5664 30.6724 13.4297C31.6343 13.249 32.3008 13.0806 32.6719 12.9243V12.7192C32.6719 12.3237 32.5742 12.043 32.3789 11.877C32.1836 11.7061 31.8149 11.6206 31.2729 11.6206C30.9067 11.6206 30.6211 11.6938 30.416 11.8403C30.2109 11.9819 30.0449 12.2334 29.918 12.5947ZM32.6719 14.2646C32.4082 14.3525 31.9907 14.4575 31.4194 14.5796C30.8481 14.7017 30.4746 14.8213 30.2988 14.9385C30.0303 15.1289 29.896 15.3706 29.896 15.6636C29.896 15.9517 30.0034 16.2007 30.2183 16.4106C30.4331 16.6206 30.7065 16.7256 31.0386 16.7256C31.4097 16.7256 31.7637 16.6035 32.1006 16.3594C32.3496 16.1738 32.5132 15.9468 32.5913 15.6782C32.645 15.5024 32.6719 15.168 32.6719 14.6748V14.2646ZM43.5117 12.5215L41.4829 12.8877C41.4146 12.4824 41.2583 12.1772 41.0142 11.9722C40.7749 11.7671 40.4624 11.6646 40.0767 11.6646C39.564 11.6646 39.1538 11.8428 38.8462 12.1992C38.5435 12.5508 38.3921 13.1416 38.3921 13.9717C38.3921 14.8945 38.5459 15.5464 38.8535 15.9272C39.166 16.3081 39.5835 16.4985 40.106 16.4985C40.4966 16.4985 40.8164 16.3887 41.0654 16.1689C41.3145 15.9443 41.4902 15.561 41.5928 15.019L43.6143 15.3633C43.4043 16.291 43.0015 16.9917 42.4058 17.4653C41.8101 17.939 41.0117 18.1758 40.0107 18.1758C38.873 18.1758 37.9648 17.8169 37.2861 17.0991C36.6123 16.3813 36.2754 15.3877 36.2754 14.1182C36.2754 12.834 36.6147 11.8354 37.2935 11.1226C37.9722 10.4048 38.8901 10.0459 40.0474 10.0459C40.9946 10.0459 41.7466 10.251 42.3032 10.6611C42.8647 11.0664 43.2676 11.6865 43.5117 12.5215ZM45.0059 18V7.2627H47.064V12.9609L49.4736 10.2217H52.0078L49.3491 13.0635L52.1982 18H49.979L48.0234 14.5063L47.064 15.5098V18H45.0059ZM62.4302 18H60.3721V10.2437C59.6201 10.9468 58.7339 11.4668 57.7134 11.8037V9.93604C58.2505 9.76025 58.834 9.42822 59.4639 8.93994C60.0938 8.44678 60.5259 7.87305 60.7603 7.21875H62.4302V18Z" fill="white"/>
<rect width="72" height="17" transform="translate(3 23)" fill="white"/>
<path d="M21.7515 37V26.2627H29.1123V28.0791H23.9194V30.6206H28.4019V32.437H23.9194V37H21.7515ZM30.8921 28.167V26.2627H32.9502V28.167H30.8921ZM30.8921 37V29.2217H32.9502V37H30.8921ZM35.0669 37V26.2627H37.125V37H35.0669ZM42.8086 29.2217V30.8623H41.4023V33.9971C41.4023 34.6318 41.4146 35.0029 41.439 35.1104C41.4683 35.2129 41.5293 35.2983 41.6221 35.3667C41.7197 35.4351 41.8369 35.4692 41.9736 35.4692C42.1641 35.4692 42.4399 35.4033 42.8013 35.2715L42.9771 36.8682C42.4985 37.0732 41.9565 37.1758 41.3511 37.1758C40.98 37.1758 40.6455 37.1147 40.3477 36.9927C40.0498 36.8657 39.8301 36.7046 39.6885 36.5093C39.5518 36.3091 39.4565 36.0405 39.4028 35.7036C39.3589 35.4644 39.3369 34.981 39.3369 34.2534V30.8623H38.3921V29.2217H39.3369V27.6763L41.4023 26.4751V29.2217H42.8086ZM48.7412 34.5244L50.792 34.8687C50.5283 35.6206 50.1108 36.1943 49.5396 36.5898C48.9731 36.9805 48.2627 37.1758 47.4082 37.1758C46.0557 37.1758 45.0547 36.7339 44.4053 35.8501C43.8926 35.1421 43.6362 34.2485 43.6362 33.1694C43.6362 31.8804 43.9731 30.8721 44.647 30.1445C45.3208 29.4121 46.1729 29.0459 47.2031 29.0459C48.3604 29.0459 49.2734 29.4292 49.9424 30.1958C50.6113 30.9575 50.9312 32.127 50.9019 33.7041H45.7456C45.7603 34.3145 45.9263 34.7905 46.2437 35.1323C46.561 35.4692 46.9565 35.6377 47.4302 35.6377C47.7524 35.6377 48.0234 35.5498 48.2432 35.374C48.4629 35.1982 48.6289 34.915 48.7412 34.5244ZM48.8584 32.4443C48.8438 31.8486 48.6899 31.397 48.397 31.0894C48.104 30.7769 47.7476 30.6206 47.3276 30.6206C46.8784 30.6206 46.5073 30.7842 46.2144 31.1113C45.9214 31.4385 45.7773 31.8828 45.7822 32.4443H48.8584ZM54.5566 37H52.4985V29.2217H54.4102V30.3276C54.7373 29.8052 55.0303 29.4609 55.2891 29.2949C55.5527 29.1289 55.8506 29.0459 56.1826 29.0459C56.6514 29.0459 57.103 29.1753 57.5376 29.4341L56.9004 31.2285C56.5537 31.0039 56.2314 30.8916 55.9336 30.8916C55.6455 30.8916 55.4014 30.9722 55.2012 31.1333C55.001 31.2896 54.8423 31.5752 54.7251 31.9902C54.6128 32.4053 54.5566 33.2744 54.5566 34.5977V37Z" fill="#333333"/>
<path d="M20.4844 45.2627H24.4468C25.3403 45.2627 26.0215 45.3311 26.4902 45.4678C27.1201 45.6533 27.6597 45.9829 28.1089 46.4565C28.5581 46.9302 28.8999 47.5112 29.1343 48.1997C29.3687 48.8833 29.4858 49.728 29.4858 50.7339C29.4858 51.6177 29.376 52.3794 29.1562 53.019C28.8877 53.8003 28.5044 54.4326 28.0063 54.916C27.6304 55.2822 27.1226 55.5679 26.4829 55.7729C26.0044 55.9243 25.3647 56 24.564 56H20.4844V45.2627ZM22.6523 47.0791V54.1909H24.271C24.8765 54.1909 25.3135 54.1567 25.582 54.0884C25.9336 54.0005 26.2241 53.8516 26.4536 53.6416C26.688 53.4316 26.8784 53.0874 27.0249 52.6089C27.1714 52.1255 27.2446 51.4688 27.2446 50.6387C27.2446 49.8086 27.1714 49.1714 27.0249 48.7271C26.8784 48.2827 26.6733 47.936 26.4097 47.687C26.146 47.438 25.8115 47.2695 25.4062 47.1816C25.1035 47.1133 24.5103 47.0791 23.6265 47.0791H22.6523ZM33.2871 56H31.229V48.2217H33.1406V49.3276C33.4678 48.8052 33.7607 48.4609 34.0195 48.2949C34.2832 48.1289 34.5811 48.0459 34.9131 48.0459C35.3818 48.0459 35.8335 48.1753 36.2681 48.4341L35.6309 50.2285C35.2842 50.0039 34.9619 49.8916 34.6641 49.8916C34.376 49.8916 34.1318 49.9722 33.9316 50.1333C33.7314 50.2896 33.5728 50.5752 33.4556 50.9902C33.3433 51.4053 33.2871 52.2744 33.2871 53.5977V56ZM42.2812 56V54.8354C41.998 55.2505 41.6245 55.5776 41.1606 55.8169C40.7017 56.0562 40.2158 56.1758 39.7031 56.1758C39.1807 56.1758 38.7119 56.061 38.2969 55.8315C37.8818 55.6021 37.5815 55.2798 37.396 54.8647C37.2104 54.4497 37.1177 53.876 37.1177 53.1436V48.2217H39.1758V51.7959C39.1758 52.8896 39.2124 53.561 39.2856 53.8101C39.3638 54.0542 39.5029 54.2495 39.7031 54.396C39.9033 54.5376 40.1572 54.6084 40.4648 54.6084C40.8164 54.6084 41.1313 54.5132 41.4097 54.3228C41.688 54.1274 41.8784 53.8882 41.981 53.605C42.0835 53.3169 42.1348 52.6162 42.1348 51.5029V48.2217H44.1929V56H42.2812ZM46.1777 48.2217H48.0747V49.2837C48.7534 48.4585 49.5615 48.0459 50.499 48.0459C50.9971 48.0459 51.4292 48.1484 51.7954 48.3535C52.1616 48.5586 52.4619 48.8687 52.6963 49.2837C53.0381 48.8687 53.4067 48.5586 53.8022 48.3535C54.1978 48.1484 54.6201 48.0459 55.0693 48.0459C55.6406 48.0459 56.124 48.1631 56.5195 48.3975C56.915 48.627 57.2104 48.9663 57.4058 49.4155C57.5474 49.7476 57.6182 50.2847 57.6182 51.0269V56H55.5601V51.5542C55.5601 50.7827 55.4893 50.2847 55.3477 50.0601C55.1572 49.7671 54.8643 49.6206 54.4688 49.6206C54.1807 49.6206 53.9097 49.7085 53.6558 49.8843C53.4019 50.0601 53.2188 50.3188 53.1064 50.6606C52.9941 50.9976 52.938 51.5322 52.938 52.2646V56H50.8799V51.7373C50.8799 50.9805 50.8433 50.4922 50.77 50.2725C50.6968 50.0527 50.582 49.8892 50.4258 49.7817C50.2744 49.6743 50.0669 49.6206 49.8032 49.6206C49.4858 49.6206 49.2002 49.7061 48.9463 49.877C48.6924 50.0479 48.5093 50.2944 48.397 50.6167C48.2896 50.939 48.2358 51.4736 48.2358 52.2207V56H46.1777V48.2217Z" fill="white"/>
<rect x="3.5" y="81.5" width="71" height="12" stroke="white"/>
<rect x="24.5" y="82" width="2" height="12" fill="white"/>
<rect x="82.5" y="0.5" width="77" height="101" rx="8.5" fill="#001724" stroke="black"/>
<path d="M98.6318 18V9.0791H95.4458V7.2627H103.979V9.0791H100.8V18H98.6318ZM106.505 18H104.447V10.2217H106.359V11.3276C106.686 10.8052 106.979 10.4609 107.238 10.2949C107.501 10.1289 107.799 10.0459 108.131 10.0459C108.6 10.0459 109.052 10.1753 109.486 10.4341L108.849 12.2285C108.502 12.0039 108.18 11.8916 107.882 11.8916C107.594 11.8916 107.35 11.9722 107.15 12.1333C106.95 12.2896 106.791 12.5752 106.674 12.9902C106.562 13.4053 106.505 14.2744 106.505 15.5977V18ZM111.918 12.5947L110.05 12.2578C110.26 11.5059 110.622 10.9492 111.134 10.5879C111.647 10.2266 112.409 10.0459 113.419 10.0459C114.337 10.0459 115.021 10.1558 115.47 10.3755C115.919 10.5903 116.234 10.8662 116.415 11.2031C116.601 11.5352 116.693 12.1479 116.693 13.0415L116.671 15.4438C116.671 16.1274 116.703 16.6328 116.767 16.96C116.835 17.2822 116.959 17.6289 117.14 18H115.104C115.05 17.8633 114.984 17.6606 114.906 17.3921C114.872 17.27 114.848 17.1895 114.833 17.1504C114.481 17.4922 114.105 17.7485 113.705 17.9194C113.305 18.0903 112.877 18.1758 112.423 18.1758C111.623 18.1758 110.99 17.9585 110.526 17.5239C110.067 17.0894 109.838 16.54 109.838 15.876C109.838 15.4365 109.943 15.0459 110.153 14.7041C110.363 14.3574 110.656 14.0938 111.032 13.9131C111.413 13.7275 111.959 13.5664 112.672 13.4297C113.634 13.249 114.301 13.0806 114.672 12.9243V12.7192C114.672 12.3237 114.574 12.043 114.379 11.877C114.184 11.7061 113.815 11.6206 113.273 11.6206C112.907 11.6206 112.621 11.6938 112.416 11.8403C112.211 11.9819 112.045 12.2334 111.918 12.5947ZM114.672 14.2646C114.408 14.3525 113.991 14.4575 113.419 14.5796C112.848 14.7017 112.475 14.8213 112.299 14.9385C112.03 15.1289 111.896 15.3706 111.896 15.6636C111.896 15.9517 112.003 16.2007 112.218 16.4106C112.433 16.6206 112.707 16.7256 113.039 16.7256C113.41 16.7256 113.764 16.6035 114.101 16.3594C114.35 16.1738 114.513 15.9468 114.591 15.6782C114.645 15.5024 114.672 15.168 114.672 14.6748V14.2646ZM125.512 12.5215L123.483 12.8877C123.415 12.4824 123.258 12.1772 123.014 11.9722C122.775 11.7671 122.462 11.6646 122.077 11.6646C121.564 11.6646 121.154 11.8428 120.846 12.1992C120.543 12.5508 120.392 13.1416 120.392 13.9717C120.392 14.8945 120.546 15.5464 120.854 15.9272C121.166 16.3081 121.583 16.4985 122.106 16.4985C122.497 16.4985 122.816 16.3887 123.065 16.1689C123.314 15.9443 123.49 15.561 123.593 15.019L125.614 15.3633C125.404 16.291 125.001 16.9917 124.406 17.4653C123.81 17.939 123.012 18.1758 122.011 18.1758C120.873 18.1758 119.965 17.8169 119.286 17.0991C118.612 16.3813 118.275 15.3877 118.275 14.1182C118.275 12.834 118.615 11.8354 119.293 11.1226C119.972 10.4048 120.89 10.0459 122.047 10.0459C122.995 10.0459 123.747 10.251 124.303 10.6611C124.865 11.0664 125.268 11.6865 125.512 12.5215ZM127.006 18V7.2627H129.064V12.9609L131.474 10.2217H134.008L131.349 13.0635L134.198 18H131.979L130.023 14.5063L129.064 15.5098V18H127.006ZM146.115 16.0884V18H138.9C138.979 17.2773 139.213 16.5938 139.604 15.9492C139.994 15.2998 140.766 14.4404 141.918 13.3711C142.846 12.5068 143.415 11.9209 143.625 11.6133C143.908 11.1885 144.049 10.7686 144.049 10.3535C144.049 9.89453 143.925 9.54297 143.676 9.29883C143.432 9.0498 143.092 8.92529 142.658 8.92529C142.228 8.92529 141.886 9.05469 141.632 9.31348C141.378 9.57227 141.232 10.002 141.193 10.6025L139.142 10.3975C139.264 9.26465 139.647 8.45166 140.292 7.9585C140.937 7.46533 141.742 7.21875 142.709 7.21875C143.769 7.21875 144.601 7.50439 145.207 8.07568C145.812 8.64697 146.115 9.35742 146.115 10.207C146.115 10.6904 146.027 11.1519 145.851 11.5913C145.68 12.0259 145.407 12.4824 145.031 12.9609C144.782 13.2783 144.333 13.7349 143.683 14.3306C143.034 14.9263 142.621 15.3218 142.445 15.5171C142.274 15.7124 142.135 15.9028 142.028 16.0884H146.115Z" fill="white"/>
<rect width="72" height="17" transform="translate(85 23)" fill="white"/>
<path d="M103.751 37V26.2627H111.112V28.0791H105.919V30.6206H110.402V32.437H105.919V37H103.751ZM112.892 28.167V26.2627H114.95V28.167H112.892ZM112.892 37V29.2217H114.95V37H112.892ZM117.067 37V26.2627H119.125V37H117.067ZM124.809 29.2217V30.8623H123.402V33.9971C123.402 34.6318 123.415 35.0029 123.439 35.1104C123.468 35.2129 123.529 35.2983 123.622 35.3667C123.72 35.4351 123.837 35.4692 123.974 35.4692C124.164 35.4692 124.44 35.4033 124.801 35.2715L124.977 36.8682C124.499 37.0732 123.957 37.1758 123.351 37.1758C122.98 37.1758 122.646 37.1147 122.348 36.9927C122.05 36.8657 121.83 36.7046 121.688 36.5093C121.552 36.3091 121.457 36.0405 121.403 35.7036C121.359 35.4644 121.337 34.981 121.337 34.2534V30.8623H120.392V29.2217H121.337V27.6763L123.402 26.4751V29.2217H124.809ZM130.741 34.5244L132.792 34.8687C132.528 35.6206 132.111 36.1943 131.54 36.5898C130.973 36.9805 130.263 37.1758 129.408 37.1758C128.056 37.1758 127.055 36.7339 126.405 35.8501C125.893 35.1421 125.636 34.2485 125.636 33.1694C125.636 31.8804 125.973 30.8721 126.647 30.1445C127.321 29.4121 128.173 29.0459 129.203 29.0459C130.36 29.0459 131.273 29.4292 131.942 30.1958C132.611 30.9575 132.931 32.127 132.902 33.7041H127.746C127.76 34.3145 127.926 34.7905 128.244 35.1323C128.561 35.4692 128.957 35.6377 129.43 35.6377C129.752 35.6377 130.023 35.5498 130.243 35.374C130.463 35.1982 130.629 34.915 130.741 34.5244ZM130.858 32.4443C130.844 31.8486 130.69 31.397 130.397 31.0894C130.104 30.7769 129.748 30.6206 129.328 30.6206C128.878 30.6206 128.507 30.7842 128.214 31.1113C127.921 31.4385 127.777 31.8828 127.782 32.4443H130.858ZM136.557 37H134.499V29.2217H136.41V30.3276C136.737 29.8052 137.03 29.4609 137.289 29.2949C137.553 29.1289 137.851 29.0459 138.183 29.0459C138.651 29.0459 139.103 29.1753 139.538 29.4341L138.9 31.2285C138.554 31.0039 138.231 30.8916 137.934 30.8916C137.646 30.8916 137.401 30.9722 137.201 31.1333C137.001 31.2896 136.842 31.5752 136.725 31.9902C136.613 32.4053 136.557 33.2744 136.557 34.5977V37Z" fill="#333333"/>
<path d="M104.982 52.0522V50.2432H109.655V54.5205C109.201 54.96 108.542 55.3481 107.677 55.6851C106.818 56.0171 105.946 56.1831 105.062 56.1831C103.939 56.1831 102.96 55.9487 102.125 55.48C101.291 55.0063 100.663 54.3325 100.243 53.4585C99.8232 52.5796 99.6133 51.625 99.6133 50.5947C99.6133 49.4766 99.8477 48.4829 100.316 47.6138C100.785 46.7446 101.471 46.0781 102.375 45.6143C103.063 45.2578 103.92 45.0796 104.945 45.0796C106.278 45.0796 107.318 45.3604 108.065 45.9219C108.817 46.4785 109.301 47.25 109.516 48.2363L107.362 48.6392C107.211 48.1118 106.925 47.6968 106.505 47.394C106.09 47.0864 105.57 46.9326 104.945 46.9326C103.998 46.9326 103.244 47.2329 102.682 47.8335C102.125 48.4341 101.847 49.3252 101.847 50.5068C101.847 51.7812 102.13 52.7383 102.697 53.3779C103.263 54.0127 104.005 54.3301 104.923 54.3301C105.377 54.3301 105.832 54.2422 106.286 54.0664C106.745 53.8857 107.138 53.6685 107.465 53.4146V52.0522H104.982ZM116.767 56V54.8354C116.483 55.2505 116.11 55.5776 115.646 55.8169C115.187 56.0562 114.701 56.1758 114.188 56.1758C113.666 56.1758 113.197 56.061 112.782 55.8315C112.367 55.6021 112.067 55.2798 111.881 54.8647C111.696 54.4497 111.603 53.876 111.603 53.1436V48.2217H113.661V51.7959C113.661 52.8896 113.698 53.561 113.771 53.8101C113.849 54.0542 113.988 54.2495 114.188 54.396C114.389 54.5376 114.643 54.6084 114.95 54.6084C115.302 54.6084 115.617 54.5132 115.895 54.3228C116.173 54.1274 116.364 53.8882 116.466 53.605C116.569 53.3169 116.62 52.6162 116.62 51.5029V48.2217H118.678V56H116.767ZM120.817 47.167V45.2627H122.875V47.167H120.817ZM120.817 56V48.2217H122.875V56H120.817ZM128.559 48.2217V49.8623H127.152V52.9971C127.152 53.6318 127.165 54.0029 127.189 54.1104C127.218 54.2129 127.279 54.2983 127.372 54.3667C127.47 54.4351 127.587 54.4692 127.724 54.4692C127.914 54.4692 128.19 54.4033 128.551 54.2715L128.727 55.8682C128.249 56.0732 127.707 56.1758 127.101 56.1758C126.73 56.1758 126.396 56.1147 126.098 55.9927C125.8 55.8657 125.58 55.7046 125.438 55.5093C125.302 55.3091 125.207 55.0405 125.153 54.7036C125.109 54.4644 125.087 53.981 125.087 53.2534V49.8623H124.142V48.2217H125.087V46.6763L127.152 45.4751V48.2217H128.559ZM131.525 50.5947L129.657 50.2578C129.867 49.5059 130.229 48.9492 130.741 48.5879C131.254 48.2266 132.016 48.0459 133.026 48.0459C133.944 48.0459 134.628 48.1558 135.077 48.3755C135.526 48.5903 135.841 48.8662 136.022 49.2031C136.208 49.5352 136.3 50.1479 136.3 51.0415L136.278 53.4438C136.278 54.1274 136.31 54.6328 136.374 54.96C136.442 55.2822 136.566 55.6289 136.747 56H134.711C134.657 55.8633 134.591 55.6606 134.513 55.3921C134.479 55.27 134.455 55.1895 134.44 55.1504C134.088 55.4922 133.712 55.7485 133.312 55.9194C132.912 56.0903 132.484 56.1758 132.03 56.1758C131.229 56.1758 130.597 55.9585 130.133 55.5239C129.674 55.0894 129.445 54.54 129.445 53.876C129.445 53.4365 129.55 53.0459 129.76 52.7041C129.97 52.3574 130.263 52.0938 130.639 51.9131C131.02 51.7275 131.566 51.5664 132.279 51.4297C133.241 51.249 133.908 51.0806 134.279 50.9243V50.7192C134.279 50.3237 134.181 50.043 133.986 49.877C133.791 49.7061 133.422 49.6206 132.88 49.6206C132.514 49.6206 132.228 49.6938 132.023 49.8403C131.818 49.9819 131.652 50.2334 131.525 50.5947ZM134.279 52.2646C134.015 52.3525 133.598 52.4575 133.026 52.5796C132.455 52.7017 132.082 52.8213 131.906 52.9385C131.637 53.1289 131.503 53.3706 131.503 53.6636C131.503 53.9517 131.61 54.2007 131.825 54.4106C132.04 54.6206 132.313 54.7256 132.646 54.7256C133.017 54.7256 133.371 54.6035 133.708 54.3594C133.957 54.1738 134.12 53.9468 134.198 53.6782C134.252 53.5024 134.279 53.168 134.279 52.6748V52.2646ZM140.307 56H138.249V48.2217H140.16V49.3276C140.487 48.8052 140.78 48.4609 141.039 48.2949C141.303 48.1289 141.601 48.0459 141.933 48.0459C142.401 48.0459 142.853 48.1753 143.288 48.4341L142.65 50.2285C142.304 50.0039 141.981 49.8916 141.684 49.8916C141.396 49.8916 141.151 49.9722 140.951 50.1333C140.751 50.2896 140.592 50.5752 140.475 50.9902C140.363 51.4053 140.307 52.2744 140.307 53.5977V56Z" fill="white"/>
<rect x="85.5" y="81.5" width="71" height="12" stroke="white"/>
<rect x="106.5" y="82" width="2" height="12" fill="white"/>
<rect x="164.5" y="0.5" width="77" height="101" rx="8.5" fill="#001724" stroke="black"/>
<path d="M180.632 18V9.0791H177.446V7.2627H185.979V9.0791H182.8V18H180.632ZM188.505 18H186.447V10.2217H188.359V11.3276C188.686 10.8052 188.979 10.4609 189.238 10.2949C189.501 10.1289 189.799 10.0459 190.131 10.0459C190.6 10.0459 191.052 10.1753 191.486 10.4341L190.849 12.2285C190.502 12.0039 190.18 11.8916 189.882 11.8916C189.594 11.8916 189.35 11.9722 189.15 12.1333C188.95 12.2896 188.791 12.5752 188.674 12.9902C188.562 13.4053 188.505 14.2744 188.505 15.5977V18ZM193.918 12.5947L192.05 12.2578C192.26 11.5059 192.622 10.9492 193.134 10.5879C193.647 10.2266 194.409 10.0459 195.419 10.0459C196.337 10.0459 197.021 10.1558 197.47 10.3755C197.919 10.5903 198.234 10.8662 198.415 11.2031C198.601 11.5352 198.693 12.1479 198.693 13.0415L198.671 15.4438C198.671 16.1274 198.703 16.6328 198.767 16.96C198.835 17.2822 198.959 17.6289 199.14 18H197.104C197.05 17.8633 196.984 17.6606 196.906 17.3921C196.872 17.27 196.848 17.1895 196.833 17.1504C196.481 17.4922 196.105 17.7485 195.705 17.9194C195.305 18.0903 194.877 18.1758 194.423 18.1758C193.623 18.1758 192.99 17.9585 192.526 17.5239C192.067 17.0894 191.838 16.54 191.838 15.876C191.838 15.4365 191.943 15.0459 192.153 14.7041C192.363 14.3574 192.656 14.0938 193.032 13.9131C193.413 13.7275 193.959 13.5664 194.672 13.4297C195.634 13.249 196.301 13.0806 196.672 12.9243V12.7192C196.672 12.3237 196.574 12.043 196.379 11.877C196.184 11.7061 195.815 11.6206 195.273 11.6206C194.907 11.6206 194.621 11.6938 194.416 11.8403C194.211 11.9819 194.045 12.2334 193.918 12.5947ZM196.672 14.2646C196.408 14.3525 195.991 14.4575 195.419 14.5796C194.848 14.7017 194.475 14.8213 194.299 14.9385C194.03 15.1289 193.896 15.3706 193.896 15.6636C193.896 15.9517 194.003 16.2007 194.218 16.4106C194.433 16.6206 194.707 16.7256 195.039 16.7256C195.41 16.7256 195.764 16.6035 196.101 16.3594C196.35 16.1738 196.513 15.9468 196.591 15.6782C196.645 15.5024 196.672 15.168 196.672 14.6748V14.2646ZM207.512 12.5215L205.483 12.8877C205.415 12.4824 205.258 12.1772 205.014 11.9722C204.775 11.7671 204.462 11.6646 204.077 11.6646C203.564 11.6646 203.154 11.8428 202.846 12.1992C202.543 12.5508 202.392 13.1416 202.392 13.9717C202.392 14.8945 202.546 15.5464 202.854 15.9272C203.166 16.3081 203.583 16.4985 204.106 16.4985C204.497 16.4985 204.816 16.3887 205.065 16.1689C205.314 15.9443 205.49 15.561 205.593 15.019L207.614 15.3633C207.404 16.291 207.001 16.9917 206.406 17.4653C205.81 17.939 205.012 18.1758 204.011 18.1758C202.873 18.1758 201.965 17.8169 201.286 17.0991C200.612 16.3813 200.275 15.3877 200.275 14.1182C200.275 12.834 200.615 11.8354 201.293 11.1226C201.972 10.4048 202.89 10.0459 204.047 10.0459C204.995 10.0459 205.747 10.251 206.303 10.6611C206.865 11.0664 207.268 11.6865 207.512 12.5215ZM209.006 18V7.2627H211.064V12.9609L213.474 10.2217H216.008L213.349 13.0635L216.198 18H213.979L212.023 14.5063L211.064 15.5098V18H209.006ZM221.091 15.1509L223.083 14.9092C223.146 15.417 223.317 15.8052 223.596 16.0737C223.874 16.3423 224.211 16.4766 224.606 16.4766C225.031 16.4766 225.388 16.3154 225.676 15.9932C225.969 15.6709 226.115 15.2363 226.115 14.6895C226.115 14.1719 225.976 13.7617 225.698 13.459C225.419 13.1562 225.08 13.0049 224.68 13.0049C224.416 13.0049 224.101 13.0562 223.735 13.1587L223.962 11.4814C224.519 11.4961 224.943 11.3765 225.236 11.1226C225.529 10.8638 225.676 10.522 225.676 10.0972C225.676 9.73584 225.568 9.44775 225.354 9.23291C225.139 9.01807 224.853 8.91064 224.497 8.91064C224.145 8.91064 223.845 9.03271 223.596 9.27686C223.347 9.521 223.195 9.87744 223.142 10.3462L221.245 10.0239C221.376 9.37451 221.574 8.85693 221.838 8.47119C222.106 8.08057 222.478 7.77539 222.951 7.55566C223.43 7.33105 223.964 7.21875 224.555 7.21875C225.566 7.21875 226.376 7.54102 226.987 8.18555C227.49 8.71289 227.741 9.30859 227.741 9.97266C227.741 10.915 227.226 11.667 226.196 12.2285C226.811 12.3604 227.302 12.6558 227.668 13.1147C228.039 13.5737 228.225 14.1279 228.225 14.7773C228.225 15.7197 227.88 16.5229 227.192 17.187C226.503 17.8511 225.646 18.1831 224.621 18.1831C223.649 18.1831 222.844 17.9048 222.204 17.3481C221.564 16.7866 221.193 16.0542 221.091 15.1509Z" fill="white"/>
<rect width="72" height="17" transform="translate(167 23)" fill="white"/>
<path d="M185.751 37V26.2627H193.112V28.0791H187.919V30.6206H192.402V32.437H187.919V37H185.751ZM194.892 28.167V26.2627H196.95V28.167H194.892ZM194.892 37V29.2217H196.95V37H194.892ZM199.067 37V26.2627H201.125V37H199.067ZM206.809 29.2217V30.8623H205.402V33.9971C205.402 34.6318 205.415 35.0029 205.439 35.1104C205.468 35.2129 205.529 35.2983 205.622 35.3667C205.72 35.4351 205.837 35.4692 205.974 35.4692C206.164 35.4692 206.44 35.4033 206.801 35.2715L206.977 36.8682C206.499 37.0732 205.957 37.1758 205.351 37.1758C204.98 37.1758 204.646 37.1147 204.348 36.9927C204.05 36.8657 203.83 36.7046 203.688 36.5093C203.552 36.3091 203.457 36.0405 203.403 35.7036C203.359 35.4644 203.337 34.981 203.337 34.2534V30.8623H202.392V29.2217H203.337V27.6763L205.402 26.4751V29.2217H206.809ZM212.741 34.5244L214.792 34.8687C214.528 35.6206 214.111 36.1943 213.54 36.5898C212.973 36.9805 212.263 37.1758 211.408 37.1758C210.056 37.1758 209.055 36.7339 208.405 35.8501C207.893 35.1421 207.636 34.2485 207.636 33.1694C207.636 31.8804 207.973 30.8721 208.647 30.1445C209.321 29.4121 210.173 29.0459 211.203 29.0459C212.36 29.0459 213.273 29.4292 213.942 30.1958C214.611 30.9575 214.931 32.127 214.902 33.7041H209.746C209.76 34.3145 209.926 34.7905 210.244 35.1323C210.561 35.4692 210.957 35.6377 211.43 35.6377C211.752 35.6377 212.023 35.5498 212.243 35.374C212.463 35.1982 212.629 34.915 212.741 34.5244ZM212.858 32.4443C212.844 31.8486 212.69 31.397 212.397 31.0894C212.104 30.7769 211.748 30.6206 211.328 30.6206C210.878 30.6206 210.507 30.7842 210.214 31.1113C209.921 31.4385 209.777 31.8828 209.782 32.4443H212.858ZM218.557 37H216.499V29.2217H218.41V30.3276C218.737 29.8052 219.03 29.4609 219.289 29.2949C219.553 29.1289 219.851 29.0459 220.183 29.0459C220.651 29.0459 221.103 29.1753 221.538 29.4341L220.9 31.2285C220.554 31.0039 220.231 30.8916 219.934 30.8916C219.646 30.8916 219.401 30.9722 219.201 31.1333C219.001 31.2896 218.842 31.5752 218.725 31.9902C218.613 32.4053 218.557 33.2744 218.557 34.5977V37Z" fill="#333333"/>
<path d="M186.154 45.2627H190.446C191.296 45.2627 191.928 45.2993 192.343 45.3726C192.763 45.4409 193.137 45.5874 193.464 45.812C193.796 46.0366 194.072 46.3369 194.292 46.7129C194.511 47.084 194.621 47.5015 194.621 47.9653C194.621 48.4683 194.484 48.9297 194.211 49.3496C193.942 49.7695 193.576 50.0845 193.112 50.2944C193.767 50.4849 194.27 50.8096 194.621 51.2686C194.973 51.7275 195.148 52.2671 195.148 52.8872C195.148 53.3755 195.034 53.8516 194.804 54.3154C194.58 54.7744 194.27 55.1431 193.874 55.4214C193.483 55.6948 193 55.8633 192.424 55.9268C192.062 55.9658 191.191 55.9902 189.809 56H186.154V45.2627ZM188.322 47.0498V49.5327H189.743C190.588 49.5327 191.113 49.5205 191.318 49.4961C191.689 49.4521 191.979 49.3252 192.189 49.1152C192.404 48.9004 192.512 48.6196 192.512 48.2729C192.512 47.9409 192.419 47.6724 192.233 47.4673C192.053 47.2573 191.782 47.1304 191.42 47.0864C191.206 47.062 190.588 47.0498 189.567 47.0498H188.322ZM188.322 51.3198V54.1909H190.329C191.11 54.1909 191.606 54.1689 191.816 54.125C192.138 54.0664 192.399 53.9248 192.6 53.7002C192.805 53.4707 192.907 53.1655 192.907 52.7847C192.907 52.4624 192.829 52.189 192.673 51.9644C192.517 51.7397 192.29 51.5762 191.992 51.4736C191.699 51.3711 191.059 51.3198 190.073 51.3198H188.322ZM198.51 50.5947L196.643 50.2578C196.853 49.5059 197.214 48.9492 197.727 48.5879C198.239 48.2266 199.001 48.0459 200.012 48.0459C200.93 48.0459 201.613 48.1558 202.062 48.3755C202.512 48.5903 202.827 48.8662 203.007 49.2031C203.193 49.5352 203.286 50.1479 203.286 51.0415L203.264 53.4438C203.264 54.1274 203.295 54.6328 203.359 54.96C203.427 55.2822 203.552 55.6289 203.732 56H201.696C201.643 55.8633 201.577 55.6606 201.499 55.3921C201.464 55.27 201.44 55.1895 201.425 55.1504C201.074 55.4922 200.698 55.7485 200.297 55.9194C199.897 56.0903 199.47 56.1758 199.016 56.1758C198.215 56.1758 197.583 55.9585 197.119 55.5239C196.66 55.0894 196.43 54.54 196.43 53.876C196.43 53.4365 196.535 53.0459 196.745 52.7041C196.955 52.3574 197.248 52.0938 197.624 51.9131C198.005 51.7275 198.552 51.5664 199.265 51.4297C200.227 51.249 200.893 51.0806 201.264 50.9243V50.7192C201.264 50.3237 201.167 50.043 200.971 49.877C200.776 49.7061 200.407 49.6206 199.865 49.6206C199.499 49.6206 199.213 49.6938 199.008 49.8403C198.803 49.9819 198.637 50.2334 198.51 50.5947ZM201.264 52.2646C201 52.3525 200.583 52.4575 200.012 52.5796C199.44 52.7017 199.067 52.8213 198.891 52.9385C198.623 53.1289 198.488 53.3706 198.488 53.6636C198.488 53.9517 198.596 54.2007 198.811 54.4106C199.025 54.6206 199.299 54.7256 199.631 54.7256C200.002 54.7256 200.356 54.6035 200.693 54.3594C200.942 54.1738 201.105 53.9468 201.184 53.6782C201.237 53.5024 201.264 53.168 201.264 52.6748V52.2646ZM204.597 53.7808L206.662 53.4658C206.75 53.8662 206.928 54.1714 207.197 54.3813C207.465 54.5864 207.841 54.689 208.325 54.689C208.857 54.689 209.257 54.5913 209.526 54.396C209.707 54.2593 209.797 54.0762 209.797 53.8467C209.797 53.6904 209.748 53.561 209.65 53.4585C209.548 53.3608 209.318 53.2705 208.962 53.1875C207.302 52.8213 206.25 52.4868 205.805 52.1841C205.19 51.7642 204.882 51.1807 204.882 50.4336C204.882 49.7598 205.148 49.1934 205.681 48.7344C206.213 48.2754 207.038 48.0459 208.156 48.0459C209.221 48.0459 210.012 48.2192 210.529 48.5659C211.047 48.9126 211.403 49.4253 211.599 50.104L209.658 50.4629C209.575 50.1602 209.416 49.9282 209.182 49.7671C208.952 49.606 208.623 49.5254 208.193 49.5254C207.651 49.5254 207.263 49.6011 207.028 49.7524C206.872 49.8599 206.794 49.999 206.794 50.1699C206.794 50.3164 206.862 50.4409 206.999 50.5435C207.185 50.6802 207.824 50.873 208.918 51.1221C210.017 51.3711 210.783 51.6763 211.218 52.0376C211.647 52.4038 211.862 52.9141 211.862 53.5684C211.862 54.2812 211.564 54.894 210.969 55.4067C210.373 55.9194 209.492 56.1758 208.325 56.1758C207.265 56.1758 206.425 55.9609 205.805 55.5312C205.19 55.1016 204.787 54.5181 204.597 53.7808ZM212.946 53.7808L215.012 53.4658C215.1 53.8662 215.278 54.1714 215.546 54.3813C215.815 54.5864 216.191 54.689 216.674 54.689C217.207 54.689 217.607 54.5913 217.875 54.396C218.056 54.2593 218.146 54.0762 218.146 53.8467C218.146 53.6904 218.098 53.561 218 53.4585C217.897 53.3608 217.668 53.2705 217.312 53.1875C215.651 52.8213 214.599 52.4868 214.155 52.1841C213.54 51.7642 213.232 51.1807 213.232 50.4336C213.232 49.7598 213.498 49.1934 214.03 48.7344C214.562 48.2754 215.388 48.0459 216.506 48.0459C217.57 48.0459 218.361 48.2192 218.879 48.5659C219.396 48.9126 219.753 49.4253 219.948 50.104L218.007 50.4629C217.924 50.1602 217.766 49.9282 217.531 49.7671C217.302 49.606 216.972 49.5254 216.542 49.5254C216 49.5254 215.612 49.6011 215.378 49.7524C215.222 49.8599 215.144 49.999 215.144 50.1699C215.144 50.3164 215.212 50.4409 215.349 50.5435C215.534 50.6802 216.174 50.873 217.268 51.1221C218.366 51.3711 219.133 51.6763 219.567 52.0376C219.997 52.4038 220.212 52.9141 220.212 53.5684C220.212 54.2812 219.914 54.894 219.318 55.4067C218.723 55.9194 217.841 56.1758 216.674 56.1758C215.615 56.1758 214.775 55.9609 214.155 55.5312C213.54 55.1016 213.137 54.5181 212.946 53.7808Z" fill="white"/>
<rect x="167.5" y="81.5" width="71" height="12" stroke="white"/>
<rect x="188.5" y="82" width="2" height="12" fill="white"/>
<rect x="246.5" y="0.5" width="77" height="101" rx="8.5" fill="#001724" stroke="black"/>
<path d="M262.632 18V9.0791H259.446V7.2627H267.979V9.0791H264.8V18H262.632ZM270.505 18H268.447V10.2217H270.359V11.3276C270.686 10.8052 270.979 10.4609 271.238 10.2949C271.501 10.1289 271.799 10.0459 272.131 10.0459C272.6 10.0459 273.052 10.1753 273.486 10.4341L272.849 12.2285C272.502 12.0039 272.18 11.8916 271.882 11.8916C271.594 11.8916 271.35 11.9722 271.15 12.1333C270.95 12.2896 270.791 12.5752 270.674 12.9902C270.562 13.4053 270.505 14.2744 270.505 15.5977V18ZM275.918 12.5947L274.05 12.2578C274.26 11.5059 274.622 10.9492 275.134 10.5879C275.647 10.2266 276.409 10.0459 277.419 10.0459C278.337 10.0459 279.021 10.1558 279.47 10.3755C279.919 10.5903 280.234 10.8662 280.415 11.2031C280.601 11.5352 280.693 12.1479 280.693 13.0415L280.671 15.4438C280.671 16.1274 280.703 16.6328 280.767 16.96C280.835 17.2822 280.959 17.6289 281.14 18H279.104C279.05 17.8633 278.984 17.6606 278.906 17.3921C278.872 17.27 278.848 17.1895 278.833 17.1504C278.481 17.4922 278.105 17.7485 277.705 17.9194C277.305 18.0903 276.877 18.1758 276.423 18.1758C275.623 18.1758 274.99 17.9585 274.526 17.5239C274.067 17.0894 273.838 16.54 273.838 15.876C273.838 15.4365 273.943 15.0459 274.153 14.7041C274.363 14.3574 274.656 14.0938 275.032 13.9131C275.413 13.7275 275.959 13.5664 276.672 13.4297C277.634 13.249 278.301 13.0806 278.672 12.9243V12.7192C278.672 12.3237 278.574 12.043 278.379 11.877C278.184 11.7061 277.815 11.6206 277.273 11.6206C276.907 11.6206 276.621 11.6938 276.416 11.8403C276.211 11.9819 276.045 12.2334 275.918 12.5947ZM278.672 14.2646C278.408 14.3525 277.991 14.4575 277.419 14.5796C276.848 14.7017 276.475 14.8213 276.299 14.9385C276.03 15.1289 275.896 15.3706 275.896 15.6636C275.896 15.9517 276.003 16.2007 276.218 16.4106C276.433 16.6206 276.707 16.7256 277.039 16.7256C277.41 16.7256 277.764 16.6035 278.101 16.3594C278.35 16.1738 278.513 15.9468 278.591 15.6782C278.645 15.5024 278.672 15.168 278.672 14.6748V14.2646ZM289.512 12.5215L287.483 12.8877C287.415 12.4824 287.258 12.1772 287.014 11.9722C286.775 11.7671 286.462 11.6646 286.077 11.6646C285.564 11.6646 285.154 11.8428 284.846 12.1992C284.543 12.5508 284.392 13.1416 284.392 13.9717C284.392 14.8945 284.546 15.5464 284.854 15.9272C285.166 16.3081 285.583 16.4985 286.106 16.4985C286.497 16.4985 286.816 16.3887 287.065 16.1689C287.314 15.9443 287.49 15.561 287.593 15.019L289.614 15.3633C289.404 16.291 289.001 16.9917 288.406 17.4653C287.81 17.939 287.012 18.1758 286.011 18.1758C284.873 18.1758 283.965 17.8169 283.286 17.0991C282.612 16.3813 282.275 15.3877 282.275 14.1182C282.275 12.834 282.615 11.8354 283.293 11.1226C283.972 10.4048 284.89 10.0459 286.047 10.0459C286.995 10.0459 287.747 10.251 288.303 10.6611C288.865 11.0664 289.268 11.6865 289.512 12.5215ZM291.006 18V7.2627H293.064V12.9609L295.474 10.2217H298.008L295.349 13.0635L298.198 18H295.979L294.023 14.5063L293.064 15.5098V18H291.006ZM307.2 18V15.8394H302.805V14.0376L307.463 7.21875H309.192V14.0303H310.525V15.8394H309.192V18H307.2ZM307.2 14.0303V10.3608L304.731 14.0303H307.2Z" fill="white"/>
<rect width="72" height="17" transform="translate(249 23)" fill="white"/>
<path d="M261.929 37V26.2627H264.038L268.433 33.4331V26.2627H270.447V37H268.271L263.943 29.998V37H261.929ZM272.256 33.001C272.256 32.3174 272.424 31.6558 272.761 31.0161C273.098 30.3765 273.574 29.8882 274.189 29.5513C274.81 29.2144 275.5 29.0459 276.262 29.0459C277.439 29.0459 278.403 29.4292 279.155 30.1958C279.907 30.9575 280.283 31.9219 280.283 33.0889C280.283 34.2656 279.902 35.2422 279.141 36.0186C278.384 36.79 277.429 37.1758 276.277 37.1758C275.564 37.1758 274.883 37.0146 274.233 36.6924C273.589 36.3701 273.098 35.8989 272.761 35.2788C272.424 34.6538 272.256 33.8945 272.256 33.001ZM274.365 33.1108C274.365 33.8823 274.548 34.4731 274.915 34.8833C275.281 35.2935 275.732 35.4985 276.27 35.4985C276.807 35.4985 277.256 35.2935 277.617 34.8833C277.983 34.4731 278.167 33.8774 278.167 33.0962C278.167 32.3345 277.983 31.7485 277.617 31.3384C277.256 30.9282 276.807 30.7231 276.27 30.7231C275.732 30.7231 275.281 30.9282 274.915 31.3384C274.548 31.7485 274.365 32.3394 274.365 33.1108ZM286.106 37V26.2627H293.467V28.0791H288.274V30.6206H292.756V32.437H288.274V37H286.106ZM295.247 37V26.2627H297.305V37H295.247ZM302.988 29.2217V30.8623H301.582V33.9971C301.582 34.6318 301.594 35.0029 301.619 35.1104C301.648 35.2129 301.709 35.2983 301.802 35.3667C301.899 35.4351 302.017 35.4692 302.153 35.4692C302.344 35.4692 302.62 35.4033 302.981 35.2715L303.157 36.8682C302.678 37.0732 302.136 37.1758 301.531 37.1758C301.16 37.1758 300.825 37.1147 300.527 36.9927C300.229 36.8657 300.01 36.7046 299.868 36.5093C299.731 36.3091 299.636 36.0405 299.583 35.7036C299.539 35.4644 299.517 34.981 299.517 34.2534V30.8623H298.572V29.2217H299.517V27.6763L301.582 26.4751V29.2217H302.988ZM306.387 37H304.329V29.2217H306.24V30.3276C306.567 29.8052 306.86 29.4609 307.119 29.2949C307.383 29.1289 307.681 29.0459 308.013 29.0459C308.481 29.0459 308.933 29.1753 309.368 29.4341L308.73 31.2285C308.384 31.0039 308.062 30.8916 307.764 30.8916C307.476 30.8916 307.231 30.9722 307.031 31.1333C306.831 31.2896 306.672 31.5752 306.555 31.9902C306.443 32.4053 306.387 33.2744 306.387 34.5977V37Z" fill="#333333"/>
<path d="M269.597 71.0522L271.699 71.7188C271.377 72.8906 270.84 73.7622 270.088 74.3335C269.341 74.8999 268.391 75.1831 267.239 75.1831C265.813 75.1831 264.641 74.6973 263.723 73.7256C262.805 72.749 262.346 71.416 262.346 69.7266C262.346 67.9395 262.808 66.5527 263.73 65.5664C264.653 64.5752 265.867 64.0796 267.371 64.0796C268.684 64.0796 269.751 64.4678 270.571 65.2441C271.06 65.7031 271.426 66.3623 271.67 67.2217L269.524 67.7344C269.397 67.1777 269.131 66.7383 268.726 66.416C268.325 66.0938 267.837 65.9326 267.261 65.9326C266.465 65.9326 265.818 66.2183 265.32 66.7896C264.827 67.3608 264.58 68.2861 264.58 69.5654C264.58 70.9229 264.824 71.8896 265.312 72.4658C265.801 73.042 266.436 73.3301 267.217 73.3301C267.793 73.3301 268.289 73.147 268.704 72.7808C269.119 72.4146 269.417 71.8384 269.597 71.0522ZM275.522 75H273.464V67.2217H275.376V68.3276C275.703 67.8052 275.996 67.4609 276.255 67.2949C276.519 67.1289 276.816 67.0459 277.148 67.0459C277.617 67.0459 278.069 67.1753 278.503 67.4341L277.866 69.2285C277.52 69.0039 277.197 68.8916 276.899 68.8916C276.611 68.8916 276.367 68.9722 276.167 69.1333C275.967 69.2896 275.808 69.5752 275.691 69.9902C275.579 70.4053 275.522 71.2744 275.522 72.5977V75ZM283.901 72.5244L285.952 72.8687C285.688 73.6206 285.271 74.1943 284.7 74.5898C284.133 74.9805 283.423 75.1758 282.568 75.1758C281.216 75.1758 280.215 74.7339 279.565 73.8501C279.053 73.1421 278.796 72.2485 278.796 71.1694C278.796 69.8804 279.133 68.8721 279.807 68.1445C280.481 67.4121 281.333 67.0459 282.363 67.0459C283.521 67.0459 284.434 67.4292 285.103 68.1958C285.771 68.9575 286.091 70.127 286.062 71.7041H280.906C280.92 72.3145 281.086 72.7905 281.404 73.1323C281.721 73.4692 282.117 73.6377 282.59 73.6377C282.913 73.6377 283.184 73.5498 283.403 73.374C283.623 73.1982 283.789 72.915 283.901 72.5244ZM284.019 70.4443C284.004 69.8486 283.85 69.397 283.557 69.0894C283.264 68.7769 282.908 68.6206 282.488 68.6206C282.039 68.6206 281.667 68.7842 281.375 69.1113C281.082 69.4385 280.938 69.8828 280.942 70.4443H284.019ZM289.285 69.5947L287.417 69.2578C287.627 68.5059 287.988 67.9492 288.501 67.5879C289.014 67.2266 289.775 67.0459 290.786 67.0459C291.704 67.0459 292.388 67.1558 292.837 67.3755C293.286 67.5903 293.601 67.8662 293.782 68.2031C293.967 68.5352 294.06 69.1479 294.06 70.0415L294.038 72.4438C294.038 73.1274 294.07 73.6328 294.133 73.96C294.202 74.2822 294.326 74.6289 294.507 75H292.471C292.417 74.8633 292.351 74.6606 292.273 74.3921C292.239 74.27 292.214 74.1895 292.2 74.1504C291.848 74.4922 291.472 74.7485 291.072 74.9194C290.671 75.0903 290.244 75.1758 289.79 75.1758C288.989 75.1758 288.357 74.9585 287.893 74.5239C287.434 74.0894 287.205 73.54 287.205 72.876C287.205 72.4365 287.31 72.0459 287.52 71.7041C287.729 71.3574 288.022 71.0938 288.398 70.9131C288.779 70.7275 289.326 70.5664 290.039 70.4297C291.001 70.249 291.667 70.0806 292.039 69.9243V69.7192C292.039 69.3237 291.941 69.043 291.746 68.877C291.55 68.7061 291.182 68.6206 290.64 68.6206C290.273 68.6206 289.988 68.6938 289.783 68.8403C289.578 68.9819 289.412 69.2334 289.285 69.5947ZM292.039 71.2646C291.775 71.3525 291.357 71.4575 290.786 71.5796C290.215 71.7017 289.841 71.8213 289.666 71.9385C289.397 72.1289 289.263 72.3706 289.263 72.6636C289.263 72.9517 289.37 73.2007 289.585 73.4106C289.8 73.6206 290.073 73.7256 290.405 73.7256C290.776 73.7256 291.13 73.6035 291.467 73.3594C291.716 73.1738 291.88 72.9468 291.958 72.6782C292.012 72.5024 292.039 72.168 292.039 71.6748V71.2646ZM299.663 67.2217V68.8623H298.257V71.9971C298.257 72.6318 298.269 73.0029 298.293 73.1104C298.323 73.2129 298.384 73.2983 298.477 73.3667C298.574 73.4351 298.691 73.4692 298.828 73.4692C299.019 73.4692 299.294 73.4033 299.656 73.2715L299.832 74.8682C299.353 75.0732 298.811 75.1758 298.206 75.1758C297.834 75.1758 297.5 75.1147 297.202 74.9927C296.904 74.8657 296.685 74.7046 296.543 74.5093C296.406 74.3091 296.311 74.0405 296.257 73.7036C296.213 73.4644 296.191 72.981 296.191 72.2534V68.8623H295.247V67.2217H296.191V65.6763L298.257 64.4751V67.2217H299.663ZM305.596 72.5244L307.646 72.8687C307.383 73.6206 306.965 74.1943 306.394 74.5898C305.828 74.9805 305.117 75.1758 304.263 75.1758C302.91 75.1758 301.909 74.7339 301.26 73.8501C300.747 73.1421 300.491 72.2485 300.491 71.1694C300.491 69.8804 300.828 68.8721 301.501 68.1445C302.175 67.4121 303.027 67.0459 304.058 67.0459C305.215 67.0459 306.128 67.4292 306.797 68.1958C307.466 68.9575 307.786 70.127 307.756 71.7041H302.6C302.615 72.3145 302.781 72.7905 303.098 73.1323C303.416 73.4692 303.811 73.6377 304.285 73.6377C304.607 73.6377 304.878 73.5498 305.098 73.374C305.317 73.1982 305.483 72.915 305.596 72.5244ZM305.713 70.4443C305.698 69.8486 305.544 69.397 305.251 69.0894C304.958 68.7769 304.602 68.6206 304.182 68.6206C303.733 68.6206 303.362 68.7842 303.069 69.1113C302.776 69.4385 302.632 69.8828 302.637 70.4443H305.713Z" fill="white"/>
<rect x="249.5" y="81.5" width="71" height="12" stroke="white"/>
<rect x="270.5" y="82" width="2" height="12" fill="white"/>
</svg>
