<svg width="193" height="89" viewBox="0 0 193 89" fill="none" xmlns="http://www.w3.org/2000/svg">
<g clip-path="url(#clip0_4758_3418)">
    <g filter="url(#filter0_d_4758_3418)">
        <path d="M179.126 1.75488H13.7787C6.73956 1.75488 1.0332 7.46124 1.0332 14.5004V75.1277C1.0332 82.1668 6.73956 87.8732 13.7787 87.8732H179.126C186.165 87.8732 191.871 82.1668 191.871 75.1277V14.5004C191.871 7.46124 186.165 1.75488 179.126 1.75488Z" fill="white"/>
    </g>
    <path d="M179.126 1.75488H13.7787C6.73956 1.75488 1.0332 7.46124 1.0332 14.5004V75.1277C1.0332 82.1668 6.73956 87.8732 13.7787 87.8732H179.126C186.165 87.8732 191.871 82.1668 191.871 75.1277V14.5004C191.871 7.46124 186.165 1.75488 179.126 1.75488Z" stroke="black" stroke-width="2.06684"/>
    <path d="M95.0615 17.8682H97.9498V24.6472H105.233V17.8682H108.121V33.8526H105.233V27.1361H97.9498V33.8526H95.0615V17.8682Z" fill="black"/>
    <path d="M111.42 22.3711H114.271V29.1751C114.271 30.5759 114.632 31.514 116.039 31.514C118.106 31.514 119.238 29.6879 119.238 27.6367V22.3711H122.089V33.8528H119.35V32.5521C119.35 32.1018 119.4 31.7391 119.4 31.7391H119.35C118.79 32.9273 117.334 34.128 115.379 34.128C112.939 34.128 111.408 32.8898 111.408 29.7629V22.3711H111.42Z" fill="black"/>
    <path d="M125.015 22.3709H127.754V23.6966C127.754 24.1219 127.704 24.4846 127.704 24.4846H127.754C128.314 23.3589 129.684 22.0957 131.476 22.0957C133.269 22.0957 134.34 22.9087 134.813 24.4596H134.863C135.485 23.2214 136.967 22.0957 138.759 22.0957C141.137 22.0957 142.507 23.4465 142.507 26.4608V33.8526H139.656V27.0111C139.656 25.7103 139.407 24.7097 138.087 24.7097C136.631 24.7097 135.672 25.8854 135.336 27.3238C135.224 27.774 135.199 28.2743 135.199 28.8122V33.8526H132.348V27.0111C132.348 25.7729 132.149 24.7097 130.804 24.7097C129.323 24.7097 128.364 25.8854 128.003 27.3488C127.891 27.774 127.866 28.2994 127.866 28.8122V33.8526H125.015V22.3709Z" fill="black"/>
    <path d="M151.271 26.6484H151.657V26.4858C151.657 24.9724 150.711 24.4596 149.466 24.4596C147.835 24.4596 146.328 25.5602 146.328 25.5602L145.258 23.509C145.258 23.509 147.026 22.0957 149.74 22.0957C152.74 22.0957 154.495 23.7592 154.495 26.6609V33.8401H151.868V32.8895C151.868 32.4393 151.918 32.0766 151.918 32.0766H151.868C151.868 32.0766 150.997 34.1028 148.395 34.1028C146.353 34.1028 144.523 32.8145 144.523 30.5257C144.523 26.8735 149.428 26.6234 151.296 26.6234L151.271 26.6484ZM149.105 31.889C150.611 31.889 151.682 30.263 151.682 28.8747V28.5995H151.184C149.727 28.5995 147.374 28.7996 147.374 30.4006C147.374 31.1635 147.934 31.889 149.105 31.889Z" fill="black"/>
    <path d="M157.309 22.3709H160.048V23.6966C160.048 24.1219 159.998 24.4846 159.998 24.4846H160.048C160.546 23.5215 161.791 22.0957 164.106 22.0957C166.634 22.0957 168.078 23.4215 168.078 26.4608V33.8526H165.252V27.0486C165.252 25.6478 164.891 24.7097 163.434 24.7097C161.978 24.7097 160.795 25.6728 160.359 27.0486C160.197 27.5239 160.16 28.0367 160.16 28.5745V33.8401H157.309V22.3709Z" fill="black"/>
    <path d="M96.4427 38.5371H99.5301L102.643 46.4418C103.004 47.3923 103.452 48.7806 103.452 48.7806H103.502C103.502 48.7806 103.925 47.3798 104.286 46.4418L107.398 38.5371H110.486L111.768 54.5215H108.905L108.233 45.5787C108.17 44.5156 108.208 43.1023 108.208 43.1023H108.158C108.158 43.1023 107.685 44.6532 107.311 45.5787L104.734 51.7699H102.207L99.6546 45.5787C99.2687 44.6532 98.7832 43.0773 98.7832 43.0773H98.7334C98.7334 43.0773 98.7832 44.5156 98.7085 45.5787L98.0362 54.5215H95.1479L96.4427 38.5371Z" fill="#F7CB15"/>
    <path d="M120.62 47.3173H121.006V47.1548C121.006 45.6414 120.059 45.1286 118.815 45.1286C117.184 45.1286 115.677 46.2292 115.677 46.2292L114.607 44.1781C114.607 44.1781 116.374 42.7646 119.088 42.7646C122.089 42.7646 123.844 44.4281 123.844 47.3298V54.5092H121.217V53.5585C121.217 53.1082 121.267 52.7455 121.267 52.7455H121.217C121.217 52.7455 120.346 54.7718 117.744 54.7718C115.702 54.7718 113.872 53.4835 113.872 51.1946C113.872 47.5425 118.777 47.2924 120.645 47.2924L120.62 47.3173ZM118.453 52.5579C119.96 52.5579 121.031 50.932 121.031 49.5436V49.2686H120.533C119.076 49.2686 116.723 49.4686 116.723 51.0695C116.723 51.8325 117.283 52.5579 118.453 52.5579Z" fill="#F7CB15"/>
    <path d="M131.14 42.7646C133.654 42.7646 134.439 44.228 134.439 44.228H134.489C134.489 44.228 134.464 43.9403 134.464 43.5776V38.5371H137.315V54.5215H134.626V53.5709C134.626 53.1457 134.675 52.833 134.675 52.833H134.626C134.626 52.833 133.667 54.7967 131.04 54.7967C127.953 54.7967 125.973 52.3452 125.973 48.7806C125.973 45.216 128.127 42.7646 131.152 42.7646H131.14ZM131.675 52.3827C133.156 52.3827 134.538 51.3071 134.538 48.7556C134.538 46.9796 133.592 45.216 131.687 45.216C130.119 45.216 128.824 46.5043 128.824 48.7681C128.824 51.032 129.994 52.3702 131.675 52.3702V52.3827Z" fill="#F7CB15"/>
    <path d="M145.32 42.7635C148.619 42.7635 150.387 45.1774 150.387 48.2167C150.387 48.5544 150.324 49.3173 150.324 49.3173H142.431C142.606 51.3185 144.162 52.3566 145.855 52.3566C147.698 52.3566 149.154 51.0934 149.154 51.0934L150.25 53.1446C150.25 53.1446 148.507 54.7831 145.656 54.7831C141.871 54.7831 139.518 52.0314 139.518 48.767C139.518 45.2274 141.921 42.751 145.32 42.751V42.7635ZM147.511 47.3537C147.461 45.8028 146.502 44.9648 145.245 44.9648C143.788 44.9648 142.78 45.8653 142.506 47.3537H147.511Z" fill="#F7CB15"/>
    <path d="M102.328 58.9297C106.213 58.9297 108.205 61.1185 108.205 61.1185L106.81 63.2822C106.81 63.2822 104.993 61.5938 102.465 61.5938C99.1041 61.5938 97.1246 64.1202 97.1246 67.0845C97.1246 70.0487 99.1663 72.8003 102.478 72.8003C105.229 72.8003 107.097 70.7742 107.097 70.7742L108.615 72.8629C108.615 72.8629 106.424 75.4519 102.366 75.4519C97.4981 75.4519 94.1367 71.8248 94.1367 67.122C94.1367 62.4192 97.635 58.9297 102.316 58.9297H102.328Z" fill="black"/>
    <path d="M115.961 63.4336C119.459 63.4336 122.26 65.9351 122.26 69.4496C122.26 72.9642 119.459 75.4657 115.986 75.4657C112.512 75.4657 109.686 72.9892 109.686 69.4496C109.686 65.91 112.487 63.4336 115.961 63.4336ZM115.986 73.0267C117.828 73.0267 119.372 71.5884 119.372 69.4496C119.372 67.3109 117.828 65.8725 115.986 65.8725C114.143 65.8725 112.575 67.3359 112.575 69.4496C112.575 71.5634 114.118 73.0267 115.986 73.0267Z" fill="black"/>
    <path d="M124.451 63.7088H127.19V65.0345C127.19 65.4598 127.14 65.8225 127.14 65.8225H127.19C127.688 64.8594 128.933 63.4336 131.249 63.4336C133.776 63.4336 135.22 64.7594 135.22 67.7987V75.1905H132.394V68.3865C132.394 66.9857 132.033 66.0476 130.576 66.0476C129.12 66.0476 127.937 67.0107 127.501 68.3865C127.339 68.8618 127.302 69.3746 127.302 69.9124V75.178H124.451V63.7088Z" fill="black"/>
    <path d="M138.345 66.1591H136.864V63.8828H138.407V60.5684H141.184V63.8828H143.786V66.1591H141.184V70.6118C141.184 72.5004 142.665 72.7755 143.449 72.7755C143.761 72.7755 143.96 72.7255 143.96 72.7255V75.227C143.96 75.227 143.624 75.2895 143.088 75.2895C141.495 75.2895 138.333 74.8142 138.333 70.962V66.1466L138.345 66.1591Z" fill="black"/>
    <path d="M150.819 63.4324C154.119 63.4324 155.886 65.8463 155.886 68.8856C155.886 69.2233 155.824 69.9863 155.824 69.9863H147.931C148.105 71.9875 149.662 73.0256 151.355 73.0256C153.197 73.0256 154.654 71.7623 154.654 71.7623L155.749 73.8135C155.749 73.8135 154.007 75.452 151.156 75.452C147.371 75.452 145.018 72.7004 145.018 69.436C145.018 65.8964 147.421 63.4199 150.819 63.4199V63.4324ZM153.011 68.0226C152.961 66.4717 152.002 65.6337 150.745 65.6337C149.288 65.6337 148.28 66.5343 148.006 68.0226H153.011Z" fill="black"/>
    <path d="M158.214 63.7088H160.953V65.0345C160.953 65.4598 160.903 65.8225 160.903 65.8225H160.953C161.451 64.8594 162.696 63.4336 165.012 63.4336C167.539 63.4336 168.983 64.7594 168.983 67.7987V75.1905H166.157V68.3865C166.157 66.9857 165.796 66.0476 164.339 66.0476C162.883 66.0476 161.7 67.0107 161.264 68.3865C161.103 68.8618 161.065 69.3746 161.065 69.9124V75.178H158.214V63.7088Z" fill="black"/>
    <path d="M172.108 66.1591H170.626V63.8828H172.17V60.5684H174.946V63.8828H177.548V66.1591H174.946V70.6118C174.946 72.5004 176.428 72.7755 177.212 72.7755C177.523 72.7755 177.722 72.7255 177.722 72.7255V75.227C177.722 75.227 177.386 75.2895 176.851 75.2895C175.257 75.2895 172.095 74.8142 172.095 70.962V66.1466L172.108 66.1591Z" fill="black"/>
    <path d="M79.1523 17.6133V75.4848" stroke="#F7CB15" stroke-width="2.06684"/>
    <path d="M36.8122 66.0986C36.8132 66.1124 36.8151 66.1257 36.8161 66.1387H34.7966V66.0986H36.8122ZM45.2312 29.3037C52.1355 30.8517 57.3023 37.1044 57.3025 44.584C57.3025 49.9413 55.6516 51.3304 53.4294 54.9287C52.1288 57.0351 51.4626 59.4103 51.4626 61.9062V66.1387H36.8601C36.8734 65.6914 36.8691 64.4357 36.8122 61.5918C36.7121 56.5841 35.2136 53.1251 33.4987 50.3721C32.0036 47.9718 30.8188 43.6871 31.9294 40.1436C33.69 34.5264 40.2761 31.7525 42.947 31.5439L45.2312 29.3037Z" fill="#FDF6DE"/>
    <path d="M52.1159 40.1458C50.3553 34.5287 43.7694 31.7552 41.0986 31.5467L43.269 29.8965L51.4193 33.9716C51.4193 33.9716 54.1656 36.5408 56.3803 44.3368L53.0139 53.7274L50.5466 59.5744V66.1012H47.2332C47.1915 66.6854 47.1331 66.602 47.2332 61.5941C47.3334 56.5862 48.8316 53.1272 50.5466 50.3741C52.0417 47.9739 53.2266 43.6894 52.1159 40.1458Z" fill="#F8E495"/>
    <path fill-rule="evenodd" clip-rule="evenodd" d="M51.0631 44.585C51.0631 49.7271 46.9597 53.8964 41.898 53.8964C36.8364 53.8964 32.7334 49.7271 32.7334 44.585H35.1974C35.1974 48.345 38.1972 51.393 41.8984 51.393C45.5997 51.393 48.5994 48.3454 48.5994 44.585H51.0631Z" fill="#F7CB15"/>
    <path fill-rule="evenodd" clip-rule="evenodd" d="M49.3333 38.7656C50.3695 38.7656 51.2096 39.6191 51.2096 40.6715C51.2096 41.7238 50.3695 42.5777 49.3333 42.5777C48.2971 42.5777 47.457 41.7242 47.457 40.6715C47.457 39.6187 48.2971 38.7656 49.3333 38.7656Z" fill="#F7CB15"/>
    <path fill-rule="evenodd" clip-rule="evenodd" d="M44.0345 70.6684C44.0345 71.8676 43.0778 72.8392 41.8978 72.8392C40.7179 72.8392 39.7612 71.8672 39.7612 70.6684H36.6226V68.165H47.1735V70.6684H44.0345Z" fill="#F7CB15"/>
    <path fill-rule="evenodd" clip-rule="evenodd" d="M48.9993 61.9077C48.9993 58.9741 49.8176 56.0823 51.3507 53.6002C53.3291 50.3968 54.8385 49.1361 54.8385 44.5854C54.8385 37.3242 49.0449 31.4381 41.8979 31.4381C38.9038 31.4381 36.1475 32.4712 33.9552 34.2056C38.9474 33.5055 43.4068 37.455 43.4068 42.5774H40.9428C40.9428 37.7126 35.498 34.9328 31.655 37.7544C30.6838 38.4672 29.9273 39.488 29.5297 40.7089C29.1579 41.9343 28.9577 43.2361 28.9577 44.5854C28.9577 49.1361 30.467 50.3968 32.4454 53.6002C33.9782 56.0823 34.7968 58.9745 34.7968 61.9077H32.3328C32.3328 59.4117 31.6671 57.0362 30.3665 54.9303C28.1443 51.3319 26.4937 49.9428 26.4937 44.5858C26.4937 35.9425 33.3908 28.9355 41.8979 28.9355C50.4049 28.9355 57.3025 35.9429 57.3025 44.5858C57.3025 49.9432 55.6519 51.3319 53.4296 54.9303C52.129 57.0367 51.4633 59.4117 51.4633 61.9077V66.1401H34.7968V63.6367H48.9997L48.9993 61.9077Z" fill="#F7CB15"/>
    <path d="M43.1301 19.2744H40.666V25.7908H43.1301V19.2744Z" fill="#F7CB15"/>
    <path d="M58.5347 52.8994L57.3027 55.0674L62.8574 58.3256L64.0894 56.1576L58.5347 52.8994Z" fill="#F7CB15"/>
    <path d="M25.2608 52.9004L19.7061 56.1586L20.9381 58.3266L26.4928 55.0684L25.2608 52.9004Z" fill="#F7CB15"/>
    <path d="M20.9381 30.8457L19.7061 33.0137L25.2604 36.2717L26.4924 34.1037L20.9381 30.8457Z" fill="#F7CB15"/>
    <path d="M62.8574 30.8447L57.3027 34.1029L58.5347 36.2709L64.0894 33.0127L62.8574 30.8447Z" fill="#F7CB15"/>
    <path d="M51.684 24.8613L50.0806 27.6828L52.2145 28.9345L53.8179 26.113L51.684 24.8613Z" fill="#F7CB15"/>
    <path d="M32.1114 24.8604L29.9775 26.1121L31.5809 28.9336L33.7148 27.6819L32.1114 24.8604Z" fill="#F7CB15"/>
    <path d="M23.3982 43.334H20.1914V45.8374H23.3982V43.334Z" fill="#F7CB15"/>
    <path d="M63.6043 43.334H60.3975V45.8374H63.6043V43.334Z" fill="#F7CB15"/>
</g>
</svg>
