<svg width="270" height="284" viewBox="0 0 270 284" fill="none" xmlns="http://www.w3.org/2000/svg">
<path opacity="0.2" fill-rule="evenodd" clip-rule="evenodd" d="M225.508 213.854C247.368 185.097 265.074 150.874 269.06 118.019C261.54 106.998 255.772 101.68 251.822 99.6033C249.949 98.6187 248.846 98.5535 248.309 98.6C247.805 98.6436 247.086 98.8434 246.05 99.6905C243.626 101.674 240.72 106.188 237.935 114.026C235.251 121.579 233.072 131.065 231.338 141.62C227.875 162.701 226.363 186.926 225.728 206.041C225.638 208.763 225.565 211.375 225.508 213.854ZM268.821 89.8799C262.649 49.3913 230.947 25.6827 198.48 12.858L213.532 139.185C213.557 139.026 213.583 138.867 213.61 138.708C215.431 127.616 217.822 116.969 221.006 108.01C224.088 99.3362 228.348 90.9608 234.673 85.7855C238.013 83.0535 242.064 81.107 246.761 80.7007C251.425 80.2974 255.955 81.4788 260.182 83.701C263.065 85.2166 265.94 87.2852 268.821 89.8799ZM179.139 6.43105C164.725 2.47969 151.171 0.524341 140.786 0.0151863L158.365 194.065L179.139 6.43105ZM121.921 0.989426C107.413 3.127 88.9702 8.35779 70.8846 16.7772L93.3113 201.255L121.921 0.989426ZM51.066 27.5046C23.5214 44.783 0.974037 70.3053 0.973877 104.461C0.973814 117.384 3.88016 131.202 8.88071 145.217C12.6503 141.932 16.3457 137.455 19.9509 131.748C28.0225 118.972 34.4467 101.841 39.4059 84.208C44.334 66.6859 47.6688 49.2085 49.7727 36.0631C50.2727 32.9389 50.7021 30.0665 51.066 27.5046ZM15.9938 162.427C23.6203 157.127 29.9458 149.565 35.1398 141.344C44.5663 126.423 51.5542 107.372 56.701 89.0722C57.9009 84.8059 59.0088 80.5506 60.0299 76.3616L81.3067 251.381C56.8351 228.306 31.5071 195.606 15.9938 162.427ZM101.839 268.6L129.522 74.8158L148.199 280.974C143.457 282.784 139.152 283.744 135.437 283.744C126.792 283.744 114.943 278.14 101.839 268.6ZM168.009 270.225L188.741 82.9705L206.967 235.941C193.911 250.041 180.372 261.864 168.009 270.225Z" fill="white"/>
</svg>
